%TF.GenerationSoftware,Altium Limited,Altium Designer,24.0.1 (36)*%
G04 Layer_Color=16711935*
%FSLAX45Y45*%
%MOMM*%
%TF.SameCoordinates,65C793CC-7C80-44E8-9821-AA658A2EEAB5*%
%TF.FilePolarity,Negative*%
%TF.FileFunction,Soldermask,Bot*%
%TF.Part,Single*%
G01*
G75*
%TA.AperFunction,SMDPad,CuDef*%
G04:AMPARAMS|DCode=53|XSize=1.624mm|YSize=1.37mm|CornerRadius=0.14525mm|HoleSize=0mm|Usage=FLASHONLY|Rotation=0.000|XOffset=0mm|YOffset=0mm|HoleType=Round|Shape=RoundedRectangle|*
%AMROUNDEDRECTD53*
21,1,1.62400,1.07950,0,0,0.0*
21,1,1.33350,1.37000,0,0,0.0*
1,1,0.29050,0.66675,-0.53975*
1,1,0.29050,-0.66675,-0.53975*
1,1,0.29050,-0.66675,0.53975*
1,1,0.29050,0.66675,0.53975*
%
%ADD53ROUNDEDRECTD53*%
G04:AMPARAMS|DCode=60|XSize=1.624mm|YSize=1.37mm|CornerRadius=0.14525mm|HoleSize=0mm|Usage=FLASHONLY|Rotation=270.000|XOffset=0mm|YOffset=0mm|HoleType=Round|Shape=RoundedRectangle|*
%AMROUNDEDRECTD60*
21,1,1.62400,1.07950,0,0,270.0*
21,1,1.33350,1.37000,0,0,270.0*
1,1,0.29050,-0.53975,-0.66675*
1,1,0.29050,-0.53975,0.66675*
1,1,0.29050,0.53975,0.66675*
1,1,0.29050,0.53975,-0.66675*
%
%ADD60ROUNDEDRECTD60*%
%TA.AperFunction,ComponentPad*%
%ADD67C,2.05320*%
%ADD68R,2.05320X2.05320*%
%ADD69R,2.05320X2.05320*%
%ADD70C,5.20320*%
%ADD71C,0.85320*%
%ADD72O,2.30320X1.20320*%
%ADD73O,2.00320X1.20320*%
%ADD74O,2.35320X2.70320*%
%TA.AperFunction,ViaPad*%
%ADD75C,2.00320*%
%ADD76C,1.00320*%
%ADD77C,2.05320*%
%TA.AperFunction,SMDPad,CuDef*%
G04:AMPARAMS|DCode=78|XSize=0.862mm|YSize=0.862mm|CornerRadius=0.0881mm|HoleSize=0mm|Usage=FLASHONLY|Rotation=0.000|XOffset=0mm|YOffset=0mm|HoleType=Round|Shape=RoundedRectangle|*
%AMROUNDEDRECTD78*
21,1,0.86200,0.68580,0,0,0.0*
21,1,0.68580,0.86200,0,0,0.0*
1,1,0.17620,0.34290,-0.34290*
1,1,0.17620,-0.34290,-0.34290*
1,1,0.17620,-0.34290,0.34290*
1,1,0.17620,0.34290,0.34290*
%
%ADD78ROUNDEDRECTD78*%
G04:AMPARAMS|DCode=79|XSize=0.862mm|YSize=0.862mm|CornerRadius=0.0881mm|HoleSize=0mm|Usage=FLASHONLY|Rotation=90.000|XOffset=0mm|YOffset=0mm|HoleType=Round|Shape=RoundedRectangle|*
%AMROUNDEDRECTD79*
21,1,0.86200,0.68580,0,0,90.0*
21,1,0.68580,0.86200,0,0,90.0*
1,1,0.17620,0.34290,0.34290*
1,1,0.17620,0.34290,-0.34290*
1,1,0.17620,-0.34290,-0.34290*
1,1,0.17620,-0.34290,0.34290*
%
%ADD79ROUNDEDRECTD79*%
D53*
X2507000Y1516500D02*
D03*
X2735600D02*
D03*
D60*
X2316500Y2723000D02*
D03*
Y2494400D02*
D03*
X3954800Y259200D02*
D03*
Y487800D02*
D03*
Y818000D02*
D03*
Y1046600D02*
D03*
D67*
X1000000Y2500000D02*
D03*
X1762000D02*
D03*
X1508000D02*
D03*
X1254000D02*
D03*
X7000000Y2154000D02*
D03*
Y1900000D02*
D03*
Y1138000D02*
D03*
Y1392000D02*
D03*
Y1646000D02*
D03*
X3130000Y2600000D02*
D03*
X3384000D02*
D03*
X4146000D02*
D03*
X3892000D02*
D03*
X3638000D02*
D03*
X5300000D02*
D03*
X5046000D02*
D03*
X4792000D02*
D03*
D68*
X2016000Y2500000D02*
D03*
X4400000Y2600000D02*
D03*
X5554000D02*
D03*
D69*
X7000000Y884000D02*
D03*
D70*
X7150000Y2650000D02*
D03*
X350000D02*
D03*
X7150000Y350000D02*
D03*
D71*
X618000Y1789000D02*
D03*
Y1211000D02*
D03*
D72*
X668000Y1068000D02*
D03*
Y1932000D02*
D03*
D73*
X250000Y1068000D02*
D03*
Y1932000D02*
D03*
D74*
X2824500Y627500D02*
D03*
X2570500D02*
D03*
X3078500D02*
D03*
D75*
X5588000Y1879600D02*
D03*
Y1295400D02*
D03*
D76*
X1803400Y1193800D02*
D03*
X2514600Y1676400D02*
D03*
X5961400Y1732400D02*
D03*
X2247900Y1943100D02*
D03*
X1854200Y1955800D02*
D03*
X3403600Y1930400D02*
D03*
X1066800Y1727200D02*
D03*
X1168400Y1168400D02*
D03*
X1371600Y1371600D02*
D03*
X1150000Y1400000D02*
D03*
X950000Y1200000D02*
D03*
X1440200Y1122800D02*
D03*
X1100000Y350000D02*
D03*
X2964200Y894200D02*
D03*
X2811800Y1173600D02*
D03*
X1745000Y1630800D02*
D03*
X3802400Y310000D02*
D03*
X2557800Y2519800D02*
D03*
X3396000Y2418200D02*
D03*
X3726200Y1935600D02*
D03*
X4081800Y1757800D02*
D03*
X5072400Y564000D02*
D03*
X5199400Y1351400D02*
D03*
X4970800Y1503800D02*
D03*
X4539000Y1910200D02*
D03*
X5199400Y1173600D02*
D03*
Y1021200D02*
D03*
Y2215000D02*
D03*
X5097800Y1630800D02*
D03*
X5199400Y2062600D02*
D03*
X3751600Y818000D02*
D03*
X3980200Y1224400D02*
D03*
X1846600Y767200D02*
D03*
X2380000Y437000D02*
D03*
X3774288Y210161D02*
D03*
X6444000Y1859400D02*
D03*
X6450000Y1275200D02*
D03*
Y716400D02*
D03*
X6400066Y132200D02*
D03*
X5961400D02*
D03*
X3751600Y1199000D02*
D03*
X3421400Y1097400D02*
D03*
X1872000Y1630800D02*
D03*
X1948200Y1707000D02*
D03*
X3777000Y411600D02*
D03*
D77*
X1414800Y513200D02*
D03*
D78*
X1371600Y1219200D02*
D03*
X1511300D02*
D03*
X6450000Y300000D02*
D03*
X6310300D02*
D03*
X6450000Y850000D02*
D03*
X6310300D02*
D03*
X6450000Y1450000D02*
D03*
X6310300D02*
D03*
X6450000Y2000000D02*
D03*
X6310300D02*
D03*
D79*
X4250000Y439700D02*
D03*
Y300000D02*
D03*
X2075200Y1973700D02*
D03*
Y1834000D02*
D03*
%TF.MD5,783da9272bc9f8febb622dc9b855fb14*%
M02*
