%TF.GenerationSoftware,Altium Limited,Altium Designer,24.0.1 (36)*%
G04 Layer_Color=0*
%FSLAX45Y45*%
%MOMM*%
%TF.SameCoordinates,65C793CC-7C80-44E8-9821-AA658A2EEAB5*%
%TF.FilePolarity,Positive*%
%TF.FileFunction,Plated,1,2,PTH,Drill*%
%TF.Part,Single*%
G01*
G75*
%TA.AperFunction,ComponentDrill*%
%ADD91C,0.85000*%
%ADD92C,0.85000*%
%ADD93O,1.70000X0.60000*%
%ADD94O,1.40000X0.60000*%
%ADD95C,1.15000*%
%ADD96C,0.30000*%
%TA.AperFunction,ViaDrill,NotFilled*%
%ADD97C,0.85000*%
%ADD98C,0.40000*%
D91*
X1000000Y2500000D02*
D03*
X2016000D02*
D03*
X1762000D02*
D03*
X1508000D02*
D03*
X1254000D02*
D03*
X3130000Y2600000D02*
D03*
X3384000D02*
D03*
X4400000D02*
D03*
X4146000D02*
D03*
X3892000D02*
D03*
X3638000D02*
D03*
X5554000D02*
D03*
X5300000D02*
D03*
X5046000D02*
D03*
X4792000D02*
D03*
D92*
X7000000Y2154000D02*
D03*
Y1900000D02*
D03*
Y884000D02*
D03*
Y1138000D02*
D03*
Y1392000D02*
D03*
Y1646000D02*
D03*
D93*
X668000Y1068000D02*
D03*
Y1932000D02*
D03*
D94*
X250000Y1068000D02*
D03*
Y1932000D02*
D03*
D95*
X2824500Y627500D02*
D03*
X2570500D02*
D03*
X3078500D02*
D03*
D96*
X4489500Y885500D02*
D03*
X4379500D02*
D03*
X4434500Y940500D02*
D03*
X4324500D02*
D03*
X4434500Y830500D02*
D03*
X4489500Y775500D02*
D03*
X4379500D02*
D03*
X4324500Y830500D02*
D03*
X4434500Y720500D02*
D03*
X4269500Y885500D02*
D03*
Y775500D02*
D03*
X4324500Y720500D02*
D03*
D97*
X5588000Y1879600D02*
D03*
Y1295400D02*
D03*
X1414800Y513200D02*
D03*
D98*
X1803400Y1193800D02*
D03*
X2514600Y1676400D02*
D03*
X5961400Y1732400D02*
D03*
X2247900Y1943100D02*
D03*
X1854200Y1955800D02*
D03*
X3403600Y1930400D02*
D03*
X1066800Y1727200D02*
D03*
X1168400Y1168400D02*
D03*
X1371600Y1371600D02*
D03*
X1150000Y1400000D02*
D03*
X950000Y1200000D02*
D03*
X1440200Y1122800D02*
D03*
X1100000Y350000D02*
D03*
X2964200Y894200D02*
D03*
X2811800Y1173600D02*
D03*
X1745000Y1630800D02*
D03*
X3802400Y310000D02*
D03*
X2557800Y2519800D02*
D03*
X3396000Y2418200D02*
D03*
X3726200Y1935600D02*
D03*
X4081800Y1757800D02*
D03*
X5072400Y564000D02*
D03*
X5199400Y1351400D02*
D03*
X4970800Y1503800D02*
D03*
X4539000Y1910200D02*
D03*
X5199400Y1173600D02*
D03*
Y1021200D02*
D03*
Y2215000D02*
D03*
X5097800Y1630800D02*
D03*
X5199400Y2062600D02*
D03*
X3751600Y818000D02*
D03*
X3980200Y1224400D02*
D03*
X1846600Y767200D02*
D03*
X2380000Y437000D02*
D03*
X3774288Y210161D02*
D03*
X6444000Y1859400D02*
D03*
X6450000Y1275200D02*
D03*
Y716400D02*
D03*
X6400066Y132200D02*
D03*
X5961400D02*
D03*
X3751600Y1199000D02*
D03*
X3421400Y1097400D02*
D03*
X1872000Y1630800D02*
D03*
X1948200Y1707000D02*
D03*
X3777000Y411600D02*
D03*
%TF.MD5,2b6b5c0b697a3887799692d7b4a212b7*%
M02*
