%TF.GenerationSoftware,Altium Limited,Altium Designer,24.0.1 (36)*%
G04 Layer_Color=255*
%FSLAX45Y45*%
%MOMM*%
%TF.SameCoordinates,65C793CC-7C80-44E8-9821-AA658A2EEAB5*%
%TF.FilePolarity,Positive*%
%TF.FileFunction,Pads,Top*%
%TF.Part,Single*%
G01*
G75*
%TA.AperFunction,SMDPad,CuDef*%
%ADD11R,0.91440X1.27000*%
%ADD12R,0.91440X0.91440*%
G04:AMPARAMS|DCode=13|XSize=2.5mm|YSize=1.6mm|CornerRadius=0.12mm|HoleSize=0mm|Usage=FLASHONLY|Rotation=90.000|XOffset=0mm|YOffset=0mm|HoleType=Round|Shape=RoundedRectangle|*
%AMROUNDEDRECTD13*
21,1,2.50000,1.36000,0,0,90.0*
21,1,2.26000,1.60000,0,0,90.0*
1,1,0.24000,0.68000,1.13000*
1,1,0.24000,0.68000,-1.13000*
1,1,0.24000,-0.68000,-1.13000*
1,1,0.24000,-0.68000,1.13000*
%
%ADD13ROUNDEDRECTD13*%
G04:AMPARAMS|DCode=14|XSize=1.524mm|YSize=1.27mm|CornerRadius=0.09525mm|HoleSize=0mm|Usage=FLASHONLY|Rotation=0.000|XOffset=0mm|YOffset=0mm|HoleType=Round|Shape=RoundedRectangle|*
%AMROUNDEDRECTD14*
21,1,1.52400,1.07950,0,0,0.0*
21,1,1.33350,1.27000,0,0,0.0*
1,1,0.19050,0.66675,-0.53975*
1,1,0.19050,-0.66675,-0.53975*
1,1,0.19050,-0.66675,0.53975*
1,1,0.19050,0.66675,0.53975*
%
%ADD14ROUNDEDRECTD14*%
G04:AMPARAMS|DCode=15|XSize=1mm|YSize=1.5mm|CornerRadius=0.075mm|HoleSize=0mm|Usage=FLASHONLY|Rotation=90.000|XOffset=0mm|YOffset=0mm|HoleType=Round|Shape=RoundedRectangle|*
%AMROUNDEDRECTD15*
21,1,1.00000,1.35000,0,0,90.0*
21,1,0.85000,1.50000,0,0,90.0*
1,1,0.15000,0.67500,0.42500*
1,1,0.15000,0.67500,-0.42500*
1,1,0.15000,-0.67500,-0.42500*
1,1,0.15000,-0.67500,0.42500*
%
%ADD15ROUNDEDRECTD15*%
%TA.AperFunction,ConnectorPad*%
%ADD16R,1.15000X0.30000*%
%ADD17R,1.15000X0.60000*%
%TA.AperFunction,SMDPad,CuDef*%
G04:AMPARAMS|DCode=18|XSize=2.83mm|YSize=1.22mm|CornerRadius=0.1525mm|HoleSize=0mm|Usage=FLASHONLY|Rotation=180.000|XOffset=0mm|YOffset=0mm|HoleType=Round|Shape=RoundedRectangle|*
%AMROUNDEDRECTD18*
21,1,2.83000,0.91500,0,0,180.0*
21,1,2.52500,1.22000,0,0,180.0*
1,1,0.30500,-1.26250,0.45750*
1,1,0.30500,1.26250,0.45750*
1,1,0.30500,1.26250,-0.45750*
1,1,0.30500,-1.26250,-0.45750*
%
%ADD18ROUNDEDRECTD18*%
G04:AMPARAMS|DCode=19|XSize=6.1mm|YSize=5.63mm|CornerRadius=0.70375mm|HoleSize=0mm|Usage=FLASHONLY|Rotation=180.000|XOffset=0mm|YOffset=0mm|HoleType=Round|Shape=RoundedRectangle|*
%AMROUNDEDRECTD19*
21,1,6.10000,4.22250,0,0,180.0*
21,1,4.69250,5.63000,0,0,180.0*
1,1,1.40750,-2.34625,2.11125*
1,1,1.40750,2.34625,2.11125*
1,1,1.40750,2.34625,-2.11125*
1,1,1.40750,-2.34625,-2.11125*
%
%ADD19ROUNDEDRECTD19*%
%ADD20R,2.29000X3.12000*%
G04:AMPARAMS|DCode=21|XSize=1.524mm|YSize=1.27mm|CornerRadius=0.09525mm|HoleSize=0mm|Usage=FLASHONLY|Rotation=270.000|XOffset=0mm|YOffset=0mm|HoleType=Round|Shape=RoundedRectangle|*
%AMROUNDEDRECTD21*
21,1,1.52400,1.07950,0,0,270.0*
21,1,1.33350,1.27000,0,0,270.0*
1,1,0.19050,-0.53975,-0.66675*
1,1,0.19050,-0.53975,0.66675*
1,1,0.19050,0.53975,0.66675*
1,1,0.19050,0.53975,-0.66675*
%
%ADD21ROUNDEDRECTD21*%
G04:AMPARAMS|DCode=22|XSize=1.14mm|YSize=1.63mm|CornerRadius=0.1425mm|HoleSize=0mm|Usage=FLASHONLY|Rotation=0.000|XOffset=0mm|YOffset=0mm|HoleType=Round|Shape=RoundedRectangle|*
%AMROUNDEDRECTD22*
21,1,1.14000,1.34500,0,0,0.0*
21,1,0.85500,1.63000,0,0,0.0*
1,1,0.28500,0.42750,-0.67250*
1,1,0.28500,-0.42750,-0.67250*
1,1,0.28500,-0.42750,0.67250*
1,1,0.28500,0.42750,0.67250*
%
%ADD22ROUNDEDRECTD22*%
G04:AMPARAMS|DCode=23|XSize=0.97mm|YSize=0.26mm|CornerRadius=0.0325mm|HoleSize=0mm|Usage=FLASHONLY|Rotation=90.000|XOffset=0mm|YOffset=0mm|HoleType=Round|Shape=RoundedRectangle|*
%AMROUNDEDRECTD23*
21,1,0.97000,0.19500,0,0,90.0*
21,1,0.90500,0.26000,0,0,90.0*
1,1,0.06500,0.09750,0.45250*
1,1,0.06500,0.09750,-0.45250*
1,1,0.06500,-0.09750,-0.45250*
1,1,0.06500,-0.09750,0.45250*
%
%ADD23ROUNDEDRECTD23*%
G04:AMPARAMS|DCode=24|XSize=0.97mm|YSize=0.26mm|CornerRadius=0.0325mm|HoleSize=0mm|Usage=FLASHONLY|Rotation=0.000|XOffset=0mm|YOffset=0mm|HoleType=Round|Shape=RoundedRectangle|*
%AMROUNDEDRECTD24*
21,1,0.97000,0.19500,0,0,0.0*
21,1,0.90500,0.26000,0,0,0.0*
1,1,0.06500,0.45250,-0.09750*
1,1,0.06500,-0.45250,-0.09750*
1,1,0.06500,-0.45250,0.09750*
1,1,0.06500,0.45250,0.09750*
%
%ADD24ROUNDEDRECTD24*%
%ADD25R,3.15000X3.15000*%
%TA.AperFunction,BGAPad,CuDef*%
%ADD26R,0.70000X0.70000*%
%TA.AperFunction,ConnectorPad*%
%ADD27R,1.50000X0.90000*%
%TA.AperFunction,ComponentPad*%
%ADD32C,1.85000*%
%ADD33R,1.85000X1.85000*%
%ADD34R,1.85000X1.85000*%
%ADD35C,5.00000*%
%ADD36C,0.65000*%
%ADD37O,2.10000X1.00000*%
%ADD38O,1.80000X1.00000*%
%ADD39O,2.15000X2.50000*%
%ADD40C,0.40000*%
D11*
X3103480Y1796800D02*
D03*
X2082800Y1981200D02*
D03*
D12*
X3009500Y2000000D02*
D03*
X3200000D02*
D03*
X1988820Y2184400D02*
D03*
X2179320D02*
D03*
D13*
X1270000D02*
D03*
Y1834400D02*
D03*
X5750000Y575000D02*
D03*
Y225000D02*
D03*
D14*
X406400Y2146300D02*
D03*
X177800D02*
D03*
X406400Y812800D02*
D03*
X177800D02*
D03*
X2697500Y2138800D02*
D03*
X2468900D02*
D03*
D15*
X6149000Y1623000D02*
D03*
X6639000D02*
D03*
X6149000Y1303000D02*
D03*
X6639000D02*
D03*
X6149000Y2194500D02*
D03*
X6639000D02*
D03*
X6149000Y1874500D02*
D03*
X6639000D02*
D03*
Y160000D02*
D03*
X6149000D02*
D03*
X6639000Y480000D02*
D03*
X6149000D02*
D03*
X6639000Y731500D02*
D03*
X6149000D02*
D03*
X6639000Y1051500D02*
D03*
X6149000D02*
D03*
D16*
X725500Y1675000D02*
D03*
Y1625000D02*
D03*
Y1575000D02*
D03*
Y1325000D02*
D03*
Y1375000D02*
D03*
Y1425000D02*
D03*
Y1525000D02*
D03*
Y1475000D02*
D03*
D17*
Y1260000D02*
D03*
Y1740000D02*
D03*
Y1180000D02*
D03*
Y1820000D02*
D03*
D18*
X1587500Y271500D02*
D03*
Y729500D02*
D03*
D19*
X922500Y500500D02*
D03*
D20*
X2456000Y1275200D02*
D03*
X3142000D02*
D03*
D21*
X2100000Y528600D02*
D03*
Y300000D02*
D03*
D22*
X2597000Y246500D02*
D03*
X2925000D02*
D03*
D23*
X1722000Y1021200D02*
D03*
X1772000D02*
D03*
X1822000D02*
D03*
X1872000D02*
D03*
X1922000D02*
D03*
X1972000D02*
D03*
X2022000D02*
D03*
Y1495200D02*
D03*
X1972000D02*
D03*
X1922000D02*
D03*
X1872000D02*
D03*
X1822000D02*
D03*
X1772000D02*
D03*
X1722000D02*
D03*
D24*
X1635000Y1408200D02*
D03*
Y1358200D02*
D03*
Y1308200D02*
D03*
Y1258200D02*
D03*
Y1208200D02*
D03*
Y1158200D02*
D03*
Y1108200D02*
D03*
X2109000D02*
D03*
Y1158200D02*
D03*
Y1208200D02*
D03*
Y1258200D02*
D03*
Y1308200D02*
D03*
Y1358200D02*
D03*
Y1408200D02*
D03*
D25*
X1872000Y1258200D02*
D03*
D26*
X4489500Y940500D02*
D03*
X4379500D02*
D03*
X4269500D02*
D03*
Y720500D02*
D03*
X4379500D02*
D03*
X4489500D02*
D03*
Y830500D02*
D03*
X4269500D02*
D03*
X4379500D02*
D03*
D27*
X3600500Y210500D02*
D03*
Y360500D02*
D03*
Y510500D02*
D03*
Y660500D02*
D03*
Y810500D02*
D03*
Y960500D02*
D03*
Y1110500D02*
D03*
Y1260500D02*
D03*
Y1410500D02*
D03*
X5350500D02*
D03*
Y1260500D02*
D03*
Y1110500D02*
D03*
Y960500D02*
D03*
Y810500D02*
D03*
Y660500D02*
D03*
Y510500D02*
D03*
Y360500D02*
D03*
Y210500D02*
D03*
D32*
X1000000Y2500000D02*
D03*
X1762000D02*
D03*
X1508000D02*
D03*
X1254000D02*
D03*
X7000000Y2154000D02*
D03*
Y1900000D02*
D03*
Y1138000D02*
D03*
Y1392000D02*
D03*
Y1646000D02*
D03*
X3130000Y2600000D02*
D03*
X3384000D02*
D03*
X4146000D02*
D03*
X3892000D02*
D03*
X3638000D02*
D03*
X5300000D02*
D03*
X5046000D02*
D03*
X4792000D02*
D03*
D33*
X2016000Y2500000D02*
D03*
X4400000Y2600000D02*
D03*
X5554000D02*
D03*
D34*
X7000000Y884000D02*
D03*
D35*
X7150000Y2650000D02*
D03*
X350000D02*
D03*
X7150000Y350000D02*
D03*
D36*
X618000Y1789000D02*
D03*
Y1211000D02*
D03*
D37*
X668000Y1068000D02*
D03*
Y1932000D02*
D03*
D38*
X250000Y1068000D02*
D03*
Y1932000D02*
D03*
D39*
X2824500Y627500D02*
D03*
X2570500D02*
D03*
X3078500D02*
D03*
D40*
X4489500Y885500D02*
D03*
X4379500D02*
D03*
X4434500Y940500D02*
D03*
X4324500D02*
D03*
X4434500Y830500D02*
D03*
X4489500Y775500D02*
D03*
X4379500D02*
D03*
X4324500Y830500D02*
D03*
X4434500Y720500D02*
D03*
X4269500Y885500D02*
D03*
Y775500D02*
D03*
X4324500Y720500D02*
D03*
%TF.MD5,93e8ea213b68daf586fed97f43f8d47d*%
M02*
