%TF.GenerationSoftware,Altium Limited,Altium Designer,24.0.1 (36)*%
G04 Layer_Color=255*
%FSLAX45Y45*%
%MOMM*%
%TF.SameCoordinates,B6A77970-8F51-4162-B198-D5255F9352F6*%
%TF.FilePolarity,Positive*%
%TF.FileFunction,Pads,Top*%
%TF.Part,Single*%
G01*
G75*
%TA.AperFunction,SMDPad,CuDef*%
%ADD10R,3.12000X2.29000*%
%ADD11R,2.29000X3.12000*%
G04:AMPARAMS|DCode=12|XSize=2.5mm|YSize=1.6mm|CornerRadius=0.12mm|HoleSize=0mm|Usage=FLASHONLY|Rotation=270.000|XOffset=0mm|YOffset=0mm|HoleType=Round|Shape=RoundedRectangle|*
%AMROUNDEDRECTD12*
21,1,2.50000,1.36000,0,0,270.0*
21,1,2.26000,1.60000,0,0,270.0*
1,1,0.24000,-0.68000,-1.13000*
1,1,0.24000,-0.68000,1.13000*
1,1,0.24000,0.68000,1.13000*
1,1,0.24000,0.68000,-1.13000*
%
%ADD12ROUNDEDRECTD12*%
G04:AMPARAMS|DCode=13|XSize=0.6mm|YSize=0.24mm|CornerRadius=0.03mm|HoleSize=0mm|Usage=FLASHONLY|Rotation=270.000|XOffset=0mm|YOffset=0mm|HoleType=Round|Shape=RoundedRectangle|*
%AMROUNDEDRECTD13*
21,1,0.60000,0.18000,0,0,270.0*
21,1,0.54000,0.24000,0,0,270.0*
1,1,0.06000,-0.09000,-0.27000*
1,1,0.06000,-0.09000,0.27000*
1,1,0.06000,0.09000,0.27000*
1,1,0.06000,0.09000,-0.27000*
%
%ADD13ROUNDEDRECTD13*%
G04:AMPARAMS|DCode=14|XSize=1.65mm|YSize=2.4mm|CornerRadius=0.04125mm|HoleSize=0mm|Usage=FLASHONLY|Rotation=270.000|XOffset=0mm|YOffset=0mm|HoleType=Round|Shape=RoundedRectangle|*
%AMROUNDEDRECTD14*
21,1,1.65000,2.31750,0,0,270.0*
21,1,1.56750,2.40000,0,0,270.0*
1,1,0.08250,-1.15875,-0.78375*
1,1,0.08250,-1.15875,0.78375*
1,1,0.08250,1.15875,0.78375*
1,1,0.08250,1.15875,-0.78375*
%
%ADD14ROUNDEDRECTD14*%
G04:AMPARAMS|DCode=15|XSize=1.22mm|YSize=0.6mm|CornerRadius=0.15mm|HoleSize=0mm|Usage=FLASHONLY|Rotation=0.000|XOffset=0mm|YOffset=0mm|HoleType=Round|Shape=RoundedRectangle|*
%AMROUNDEDRECTD15*
21,1,1.22000,0.30000,0,0,0.0*
21,1,0.92000,0.60000,0,0,0.0*
1,1,0.30000,0.46000,-0.15000*
1,1,0.30000,-0.46000,-0.15000*
1,1,0.30000,-0.46000,0.15000*
1,1,0.30000,0.46000,0.15000*
%
%ADD15ROUNDEDRECTD15*%
G04:AMPARAMS|DCode=16|XSize=1.524mm|YSize=1.27mm|CornerRadius=0.09525mm|HoleSize=0mm|Usage=FLASHONLY|Rotation=0.000|XOffset=0mm|YOffset=0mm|HoleType=Round|Shape=RoundedRectangle|*
%AMROUNDEDRECTD16*
21,1,1.52400,1.07950,0,0,0.0*
21,1,1.33350,1.27000,0,0,0.0*
1,1,0.19050,0.66675,-0.53975*
1,1,0.19050,-0.66675,-0.53975*
1,1,0.19050,-0.66675,0.53975*
1,1,0.19050,0.66675,0.53975*
%
%ADD16ROUNDEDRECTD16*%
%ADD17R,3.00000X2.80000*%
%ADD18R,0.80000X2.70000*%
G04:AMPARAMS|DCode=19|XSize=1.524mm|YSize=1.27mm|CornerRadius=0.09525mm|HoleSize=0mm|Usage=FLASHONLY|Rotation=90.000|XOffset=0mm|YOffset=0mm|HoleType=Round|Shape=RoundedRectangle|*
%AMROUNDEDRECTD19*
21,1,1.52400,1.07950,0,0,90.0*
21,1,1.33350,1.27000,0,0,90.0*
1,1,0.19050,0.53975,0.66675*
1,1,0.19050,0.53975,-0.66675*
1,1,0.19050,-0.53975,-0.66675*
1,1,0.19050,-0.53975,0.66675*
%
%ADD19ROUNDEDRECTD19*%
G04:AMPARAMS|DCode=20|XSize=0.762mm|YSize=0.762mm|CornerRadius=0.0381mm|HoleSize=0mm|Usage=FLASHONLY|Rotation=90.000|XOffset=0mm|YOffset=0mm|HoleType=Round|Shape=RoundedRectangle|*
%AMROUNDEDRECTD20*
21,1,0.76200,0.68580,0,0,90.0*
21,1,0.68580,0.76200,0,0,90.0*
1,1,0.07620,0.34290,0.34290*
1,1,0.07620,0.34290,-0.34290*
1,1,0.07620,-0.34290,-0.34290*
1,1,0.07620,-0.34290,0.34290*
%
%ADD20ROUNDEDRECTD20*%
%TA.AperFunction,ComponentPad*%
%ADD26R,3.25000X2.85000*%
%ADD27O,3.25000X2.85000*%
%ADD28C,0.30000*%
%ADD29R,2.15000X2.15000*%
%ADD30C,2.15000*%
%ADD31C,5.00000*%
%ADD32C,1.85000*%
%ADD33R,1.85000X1.85000*%
D10*
X3800000Y1057000D02*
D03*
Y1743000D02*
D03*
D11*
X3057000Y2500000D02*
D03*
X3743000D02*
D03*
D12*
X2600000Y2400000D02*
D03*
Y2050000D02*
D03*
Y1650000D02*
D03*
Y1300000D02*
D03*
X2050000Y1300000D02*
D03*
Y1650000D02*
D03*
X900000Y1800000D02*
D03*
Y1450000D02*
D03*
D13*
X1600000Y1590000D02*
D03*
X1550000D02*
D03*
X1500000D02*
D03*
X1450000D02*
D03*
X1400000D02*
D03*
Y1310000D02*
D03*
X1450000D02*
D03*
X1500000D02*
D03*
X1550000D02*
D03*
X1600000D02*
D03*
D14*
X1500000Y1450000D02*
D03*
D15*
X3174500Y1095000D02*
D03*
Y905000D02*
D03*
X2925500D02*
D03*
Y1000000D02*
D03*
Y1095000D02*
D03*
D16*
X2314300Y950000D02*
D03*
X2085700D02*
D03*
D17*
X2975000Y400000D02*
D03*
X3625000D02*
D03*
D18*
X1600000Y1950000D02*
D03*
X1380000D02*
D03*
D19*
X1300000Y950000D02*
D03*
Y721400D02*
D03*
X1700000D02*
D03*
Y950000D02*
D03*
D20*
X950000Y860300D02*
D03*
Y1000000D02*
D03*
D26*
X7000000Y1970000D02*
D03*
D27*
Y1500000D02*
D03*
Y1030000D02*
D03*
D28*
X1405000Y1450000D02*
D03*
X1500000Y1507500D02*
D03*
Y1392500D02*
D03*
X1595000Y1450000D02*
D03*
D29*
X4346000Y450000D02*
D03*
D30*
X4854000D02*
D03*
D31*
X350000Y2650000D02*
D03*
X7150000Y350000D02*
D03*
Y2650000D02*
D03*
D32*
X1000000Y2500000D02*
D03*
X1762000D02*
D03*
X1508000D02*
D03*
X1254000D02*
D03*
D33*
X2016000D02*
D03*
%TF.MD5,ed18b38ffbb52c8fe33e6a8317fd838a*%
M02*
