%TF.GenerationSoftware,Altium Limited,Altium Designer,24.0.1 (36)*%
G04 Layer_Physical_Order=2*
G04 Layer_Color=16711680*
%FSLAX45Y45*%
%MOMM*%
%TF.SameCoordinates,B6A77970-8F51-4162-B198-D5255F9352F6*%
%TF.FilePolarity,Positive*%
%TF.FileFunction,Copper,L2,Bot,Signal*%
%TF.Part,Single*%
G01*
G75*
%TA.AperFunction,Conductor*%
%ADD21C,0.40000*%
%ADD22C,0.50000*%
%TA.AperFunction,ComponentPad*%
%ADD26R,3.25000X2.85000*%
%ADD27O,3.25000X2.85000*%
%ADD28C,0.30000*%
%ADD29R,2.15000X2.15000*%
%ADD30C,2.15000*%
%ADD31C,5.00000*%
%ADD32C,1.85000*%
%ADD33R,1.85000X1.85000*%
%TA.AperFunction,ViaPad*%
%ADD34C,0.80000*%
G36*
X7441373Y58627D02*
X58627D01*
Y2941374D01*
X7441373D01*
Y58627D01*
D02*
G37*
%LPC*%
G36*
X1025000Y2614946D02*
Y2525000D01*
X1114946D01*
X1109493Y2545353D01*
X1094023Y2572147D01*
X1072147Y2594024D01*
X1045353Y2609493D01*
X1025000Y2614946D01*
D02*
G37*
G36*
X975000D02*
X954647Y2609493D01*
X927853Y2594024D01*
X905977Y2572147D01*
X890507Y2545353D01*
X885054Y2525000D01*
X975000D01*
Y2614946D01*
D02*
G37*
G36*
X2128500Y2612500D02*
X1903500D01*
Y2387500D01*
X2128500D01*
Y2612500D01*
D02*
G37*
G36*
X1522811D02*
X1493189D01*
X1464577Y2604833D01*
X1438923Y2590023D01*
X1417978Y2569077D01*
X1403167Y2543423D01*
X1395500Y2514811D01*
Y2485189D01*
X1403167Y2456577D01*
X1417978Y2430924D01*
X1438923Y2409978D01*
X1464577Y2395167D01*
X1493189Y2387500D01*
X1522811D01*
X1551423Y2395167D01*
X1577077Y2409978D01*
X1598022Y2430924D01*
X1612833Y2456577D01*
X1620500Y2485189D01*
Y2514811D01*
X1612833Y2543423D01*
X1598022Y2569077D01*
X1577077Y2590023D01*
X1551423Y2604833D01*
X1522811Y2612500D01*
D02*
G37*
G36*
X1268811D02*
X1239189D01*
X1210577Y2604833D01*
X1184923Y2590023D01*
X1163978Y2569077D01*
X1149167Y2543423D01*
X1141500Y2514811D01*
Y2485189D01*
X1149167Y2456577D01*
X1163978Y2430924D01*
X1184923Y2409978D01*
X1210577Y2395167D01*
X1239189Y2387500D01*
X1268811D01*
X1297423Y2395167D01*
X1323077Y2409978D01*
X1344022Y2430924D01*
X1358833Y2456577D01*
X1366500Y2485189D01*
Y2514811D01*
X1358833Y2543423D01*
X1344022Y2569077D01*
X1323077Y2590023D01*
X1297423Y2604833D01*
X1268811Y2612500D01*
D02*
G37*
G36*
X1114946Y2475000D02*
X1025000D01*
Y2385054D01*
X1045353Y2390508D01*
X1072147Y2405977D01*
X1094023Y2427853D01*
X1109493Y2454647D01*
X1114946Y2475000D01*
D02*
G37*
G36*
X975000D02*
X885054D01*
X890507Y2454647D01*
X905977Y2427853D01*
X927853Y2405977D01*
X954647Y2390508D01*
X975000Y2385054D01*
Y2475000D01*
D02*
G37*
G36*
X7171249Y2920000D02*
X7128751D01*
X7086775Y2913352D01*
X7046356Y2900219D01*
X7008489Y2880925D01*
X6974107Y2855945D01*
X6944055Y2825893D01*
X6919075Y2791511D01*
X6899781Y2753644D01*
X6886648Y2713225D01*
X6880000Y2671249D01*
Y2628751D01*
X6886648Y2586775D01*
X6899781Y2546356D01*
X6919075Y2508489D01*
X6944055Y2474107D01*
X6974107Y2444056D01*
X7008489Y2419075D01*
X7046356Y2399781D01*
X7086775Y2386648D01*
X7128751Y2380000D01*
X7171249D01*
X7213225Y2386648D01*
X7253644Y2399781D01*
X7291511Y2419075D01*
X7325893Y2444056D01*
X7355944Y2474107D01*
X7380925Y2508489D01*
X7400219Y2546356D01*
X7413352Y2586775D01*
X7420000Y2628751D01*
Y2671249D01*
X7413352Y2713225D01*
X7400219Y2753644D01*
X7380925Y2791511D01*
X7355944Y2825893D01*
X7325893Y2855945D01*
X7291511Y2880925D01*
X7253644Y2900219D01*
X7213225Y2913352D01*
X7171249Y2920000D01*
D02*
G37*
G36*
X371249D02*
X328751D01*
X286775Y2913352D01*
X246356Y2900219D01*
X208489Y2880925D01*
X174107Y2855945D01*
X144056Y2825893D01*
X119075Y2791511D01*
X99781Y2753644D01*
X86648Y2713225D01*
X80000Y2671249D01*
Y2628751D01*
X86648Y2586775D01*
X99781Y2546356D01*
X119075Y2508489D01*
X144056Y2474107D01*
X174107Y2444056D01*
X208489Y2419075D01*
X246356Y2399781D01*
X286775Y2386648D01*
X328751Y2380000D01*
X371249D01*
X413225Y2386648D01*
X453644Y2399781D01*
X491511Y2419075D01*
X525893Y2444056D01*
X555945Y2474107D01*
X580925Y2508489D01*
X600219Y2546356D01*
X613352Y2586775D01*
X620000Y2628751D01*
Y2671249D01*
X613352Y2713225D01*
X600219Y2753644D01*
X580925Y2791511D01*
X555945Y2825893D01*
X525893Y2855945D01*
X491511Y2880925D01*
X453644Y2900219D01*
X413225Y2913352D01*
X371249Y2920000D01*
D02*
G37*
G36*
X7182500Y2132500D02*
X6817500D01*
Y2027082D01*
X3290171D01*
X3285187Y2032066D01*
X3263135Y2041200D01*
X3239265D01*
X3217213Y2032066D01*
X3200334Y2015187D01*
X3191200Y1993135D01*
Y1969265D01*
X3200334Y1947213D01*
X3217213Y1930334D01*
X3239265Y1921200D01*
X3263135D01*
X3285187Y1930334D01*
X3290171Y1935318D01*
X6817500D01*
Y1807500D01*
X7182500D01*
Y2132500D01*
D02*
G37*
G36*
X1776811Y2612500D02*
X1747189D01*
X1718577Y2604833D01*
X1692923Y2590023D01*
X1671978Y2569077D01*
X1657167Y2543423D01*
X1649500Y2514811D01*
Y2485189D01*
X1657167Y2456577D01*
X1671978Y2430924D01*
X1692923Y2409978D01*
X1705217Y2402880D01*
Y2267201D01*
X1705216Y2267200D01*
X1707806Y2254182D01*
X1708321Y2251593D01*
X1717162Y2238362D01*
X2003161Y1952362D01*
X2003162Y1952362D01*
X2016393Y1943521D01*
X2018982Y1943006D01*
X2032000Y1940416D01*
X2032001Y1940416D01*
X2241931D01*
X2252013Y1930334D01*
X2274065Y1921200D01*
X2297935D01*
X2319987Y1930334D01*
X2336866Y1947213D01*
X2346000Y1969265D01*
Y1993135D01*
X2336866Y2015187D01*
X2319987Y2032066D01*
X2297935Y2041200D01*
X2274065D01*
X2252013Y2032066D01*
X2241931Y2021984D01*
X2048893D01*
X1786784Y2284093D01*
Y2390172D01*
X1805423Y2395167D01*
X1831077Y2409978D01*
X1852022Y2430924D01*
X1866833Y2456577D01*
X1874500Y2485189D01*
Y2514811D01*
X1866833Y2543423D01*
X1852022Y2569077D01*
X1831077Y2590023D01*
X1805423Y2604833D01*
X1776811Y2612500D01*
D02*
G37*
G36*
X1218800Y1825894D02*
Y1790300D01*
X1254394D01*
X1254370Y1790389D01*
X1245813Y1805211D01*
X1233711Y1817313D01*
X1218889Y1825870D01*
X1218800Y1825894D01*
D02*
G37*
G36*
X1168800D02*
X1168711Y1825870D01*
X1153889Y1817313D01*
X1141787Y1805211D01*
X1133230Y1790389D01*
X1133206Y1790300D01*
X1168800D01*
Y1825894D01*
D02*
G37*
G36*
X1254394Y1740300D02*
X1218800D01*
Y1704706D01*
X1218889Y1704730D01*
X1233711Y1713287D01*
X1245813Y1725389D01*
X1254370Y1740211D01*
X1254394Y1740300D01*
D02*
G37*
G36*
X1168800D02*
X1133206D01*
X1133230Y1740211D01*
X1141787Y1725389D01*
X1153889Y1713287D01*
X1168711Y1704730D01*
X1168800Y1704706D01*
Y1740300D01*
D02*
G37*
G36*
X3361935Y1710000D02*
X3338065D01*
X3316013Y1700866D01*
X3305931Y1690784D01*
X1300000D01*
X1284393Y1687679D01*
X1271162Y1678838D01*
X1271161Y1678838D01*
X1226872Y1634549D01*
X1218032Y1621318D01*
X1217516Y1618729D01*
X1214927Y1605711D01*
X1214927Y1605710D01*
Y1599780D01*
X1199135Y1583987D01*
X1190000Y1561935D01*
Y1538065D01*
X1199135Y1516013D01*
X1216013Y1499134D01*
X1238065Y1490000D01*
X1261935D01*
X1283987Y1499134D01*
X1300866Y1516013D01*
X1310000Y1538065D01*
Y1561935D01*
X1300866Y1583987D01*
X1296494Y1588359D01*
Y1588817D01*
X1316893Y1609216D01*
X3305931D01*
X3316013Y1599134D01*
X3338065Y1590000D01*
X3361935D01*
X3383987Y1599134D01*
X3400865Y1616013D01*
X3410000Y1638065D01*
Y1661935D01*
X3400865Y1683987D01*
X3383987Y1700866D01*
X3361935Y1710000D01*
D02*
G37*
G36*
X1525000Y1539068D02*
Y1532500D01*
X1531568D01*
X1525000Y1539068D01*
D02*
G37*
G36*
X1475000D02*
X1468432Y1532500D01*
X1475000D01*
Y1539068D01*
D02*
G37*
G36*
X1531568Y1482500D02*
X1525000D01*
Y1475932D01*
X1531568Y1482500D01*
D02*
G37*
G36*
X1475000D02*
X1468432D01*
X1475000Y1475932D01*
Y1482500D01*
D02*
G37*
G36*
X1620000Y1481568D02*
Y1475000D01*
X1626569D01*
X1620000Y1481568D01*
D02*
G37*
G36*
X1430000D02*
Y1475000D01*
X1436568D01*
X1430000Y1481568D01*
D02*
G37*
G36*
X1570000D02*
X1563432Y1475000D01*
X1570000D01*
Y1481568D01*
D02*
G37*
G36*
X1380000D02*
X1373432Y1475000D01*
X1380000D01*
Y1481568D01*
D02*
G37*
G36*
X1803000Y1482994D02*
Y1447400D01*
X1838594D01*
X1838570Y1447489D01*
X1830013Y1462311D01*
X1817911Y1474413D01*
X1803089Y1482970D01*
X1803000Y1482994D01*
D02*
G37*
G36*
X1753000D02*
X1752911Y1482970D01*
X1738089Y1474413D01*
X1725987Y1462311D01*
X1717430Y1447489D01*
X1717406Y1447400D01*
X1753000D01*
Y1482994D01*
D02*
G37*
G36*
X1129900Y1457594D02*
Y1422000D01*
X1165494D01*
X1165470Y1422089D01*
X1156913Y1436911D01*
X1144811Y1449013D01*
X1129989Y1457570D01*
X1129900Y1457594D01*
D02*
G37*
G36*
X1079900D02*
X1079811Y1457570D01*
X1064989Y1449013D01*
X1052887Y1436911D01*
X1044330Y1422089D01*
X1044306Y1422000D01*
X1079900D01*
Y1457594D01*
D02*
G37*
G36*
X1626569Y1425000D02*
X1620000D01*
Y1418432D01*
X1626569Y1425000D01*
D02*
G37*
G36*
X1436568D02*
X1430000D01*
Y1418432D01*
X1436568Y1425000D01*
D02*
G37*
G36*
X1570000D02*
X1563432D01*
X1570000Y1418432D01*
Y1425000D01*
D02*
G37*
G36*
X1380000D02*
X1373432D01*
X1380000Y1418432D01*
Y1425000D01*
D02*
G37*
G36*
X1525000Y1424068D02*
Y1417500D01*
X1531568D01*
X1525000Y1424068D01*
D02*
G37*
G36*
X1475000D02*
X1468432Y1417500D01*
X1475000D01*
Y1424068D01*
D02*
G37*
G36*
X1838594Y1397400D02*
X1803000D01*
Y1361806D01*
X1803089Y1361830D01*
X1817911Y1370387D01*
X1830013Y1382489D01*
X1838570Y1397311D01*
X1838594Y1397400D01*
D02*
G37*
G36*
X1753000D02*
X1717406D01*
X1717430Y1397311D01*
X1725987Y1382489D01*
X1738089Y1370387D01*
X1752911Y1361830D01*
X1753000Y1361806D01*
Y1397400D01*
D02*
G37*
G36*
X1531568Y1367500D02*
X1525000D01*
Y1360931D01*
X1531568Y1367500D01*
D02*
G37*
G36*
X1475000D02*
X1468432D01*
X1475000Y1360931D01*
Y1367500D01*
D02*
G37*
G36*
X7020000Y1663286D02*
X6980000D01*
X6948144Y1660149D01*
X6917513Y1650857D01*
X6889283Y1635768D01*
X6864539Y1615461D01*
X6844232Y1590717D01*
X6829143Y1562487D01*
X6819851Y1531856D01*
X6816714Y1500000D01*
X6819851Y1468144D01*
X6829143Y1437513D01*
X6844232Y1409283D01*
X6864539Y1384539D01*
X6889283Y1364232D01*
X6917513Y1349143D01*
X6948144Y1339851D01*
X6980000Y1336714D01*
X7020000D01*
X7051856Y1339851D01*
X7082487Y1349143D01*
X7110717Y1364232D01*
X7135461Y1384539D01*
X7155768Y1409283D01*
X7170857Y1437513D01*
X7180149Y1468144D01*
X7183286Y1500000D01*
X7180149Y1531856D01*
X7170857Y1562487D01*
X7155768Y1590717D01*
X7135461Y1615461D01*
X7110717Y1635768D01*
X7082487Y1650857D01*
X7051856Y1660149D01*
X7020000Y1663286D01*
D02*
G37*
G36*
X1165494Y1372000D02*
X1129900D01*
Y1336406D01*
X1129989Y1336430D01*
X1144811Y1344987D01*
X1156913Y1357089D01*
X1165470Y1371911D01*
X1165494Y1372000D01*
D02*
G37*
G36*
X1079900D02*
X1044306D01*
X1044330Y1371911D01*
X1052887Y1357089D01*
X1064989Y1344987D01*
X1079811Y1336430D01*
X1079900Y1336406D01*
Y1372000D01*
D02*
G37*
G36*
X1621057Y1176694D02*
Y1141100D01*
X1656651D01*
X1656628Y1141189D01*
X1648070Y1156011D01*
X1635968Y1168113D01*
X1621147Y1176670D01*
X1621057Y1176694D01*
D02*
G37*
G36*
X1571058D02*
X1570968Y1176670D01*
X1556147Y1168113D01*
X1544045Y1156011D01*
X1535487Y1141189D01*
X1535464Y1141100D01*
X1571058D01*
Y1176694D01*
D02*
G37*
G36*
X1656651Y1091100D02*
X1621057D01*
Y1055506D01*
X1621147Y1055530D01*
X1635968Y1064087D01*
X1648070Y1076189D01*
X1656628Y1091011D01*
X1656651Y1091100D01*
D02*
G37*
G36*
X1571058D02*
X1535464D01*
X1535487Y1091011D01*
X1544045Y1076189D01*
X1556147Y1064087D01*
X1570968Y1055530D01*
X1571058Y1055506D01*
Y1091100D01*
D02*
G37*
G36*
X7020000Y1193286D02*
X6980000D01*
X6948144Y1190149D01*
X6917513Y1180857D01*
X6889283Y1165768D01*
X6864539Y1145461D01*
X6844232Y1120717D01*
X6829143Y1092487D01*
X6819851Y1061856D01*
X6816714Y1030000D01*
X6819851Y998144D01*
X6829143Y967513D01*
X6844232Y939283D01*
X6864539Y914539D01*
X6889283Y894232D01*
X6917513Y879143D01*
X6948144Y869851D01*
X6980000Y866714D01*
X7020000D01*
X7051856Y869851D01*
X7082487Y879143D01*
X7110717Y894232D01*
X7135461Y914539D01*
X7155768Y939283D01*
X7170857Y967513D01*
X7180149Y998144D01*
X7183286Y1030000D01*
X7180149Y1061856D01*
X7170857Y1092487D01*
X7155768Y1120717D01*
X7135461Y1145461D01*
X7110717Y1165768D01*
X7082487Y1180857D01*
X7051856Y1190149D01*
X7020000Y1193286D01*
D02*
G37*
G36*
X4879000Y580475D02*
Y475000D01*
X4984475D01*
X4977470Y501143D01*
X4960026Y531357D01*
X4935357Y556026D01*
X4905143Y573470D01*
X4879000Y580475D01*
D02*
G37*
G36*
X4829000D02*
X4802857Y573470D01*
X4772643Y556026D01*
X4747974Y531357D01*
X4730530Y501143D01*
X4723525Y475000D01*
X4829000D01*
Y580475D01*
D02*
G37*
G36*
X4473500Y577500D02*
X4218500D01*
Y322500D01*
X4473500D01*
Y577500D01*
D02*
G37*
G36*
X4984475Y425000D02*
X4879000D01*
Y319525D01*
X4905143Y326530D01*
X4935357Y343974D01*
X4960026Y368643D01*
X4977470Y398857D01*
X4984475Y425000D01*
D02*
G37*
G36*
X4829000D02*
X4723525D01*
X4730530Y398857D01*
X4747974Y368643D01*
X4772643Y343974D01*
X4802857Y326530D01*
X4829000Y319525D01*
Y425000D01*
D02*
G37*
G36*
X7171249Y620000D02*
X7128751D01*
X7086775Y613352D01*
X7046356Y600219D01*
X7008489Y580925D01*
X6974107Y555945D01*
X6944055Y525893D01*
X6919075Y491511D01*
X6899781Y453644D01*
X6886648Y413225D01*
X6880000Y371249D01*
Y328751D01*
X6886648Y286775D01*
X6899781Y246356D01*
X6919075Y208489D01*
X6944055Y174107D01*
X6974107Y144056D01*
X7008489Y119075D01*
X7046356Y99781D01*
X7086775Y86648D01*
X7128751Y80000D01*
X7171249D01*
X7213225Y86648D01*
X7253644Y99781D01*
X7291511Y119075D01*
X7325893Y144056D01*
X7355944Y174107D01*
X7380925Y208489D01*
X7400219Y246356D01*
X7413352Y286775D01*
X7420000Y328751D01*
Y371249D01*
X7413352Y413225D01*
X7400219Y453644D01*
X7380925Y491511D01*
X7355944Y525893D01*
X7325893Y555945D01*
X7291511Y580925D01*
X7253644Y600219D01*
X7213225Y613352D01*
X7171249Y620000D01*
D02*
G37*
%LPD*%
D21*
X1746000Y2267200D02*
Y2500000D01*
X2032000Y1981200D02*
X2286000D01*
X1746000Y2267200D02*
X2032000Y1981200D01*
X1250000Y1550000D02*
X1255711Y1555711D01*
Y1605711D01*
X1300000Y1650000D01*
X3350000D01*
D22*
X6988800Y1981200D02*
X7000000Y1970000D01*
X3251200Y1981200D02*
X6988800D01*
D26*
X7000000Y1970000D02*
D03*
D27*
Y1500000D02*
D03*
Y1030000D02*
D03*
D28*
X1405000Y1450000D02*
D03*
X1500000Y1507500D02*
D03*
Y1392500D02*
D03*
X1595000Y1450000D02*
D03*
D29*
X4346000Y450000D02*
D03*
D30*
X4854000D02*
D03*
D31*
X350000Y2650000D02*
D03*
X7150000Y350000D02*
D03*
Y2650000D02*
D03*
D32*
X1000000Y2500000D02*
D03*
X1762000D02*
D03*
X1508000D02*
D03*
X1254000D02*
D03*
D33*
X2016000D02*
D03*
D34*
X1193800Y1765300D02*
D03*
X1104900Y1397000D02*
D03*
X1778000Y1422400D02*
D03*
X1596058Y1116100D02*
D03*
X3251200Y1981200D02*
D03*
X2286000D02*
D03*
X3350000Y1650000D02*
D03*
X1250000Y1550000D02*
D03*
%TF.MD5,962b20b234aad3bc29c057469f664c1d*%
M02*
