%TF.GenerationSoftware,Altium Limited,Altium Designer,24.0.1 (36)*%
G04 Layer_Color=128*
%FSLAX45Y45*%
%MOMM*%
%TF.SameCoordinates,B6A77970-8F51-4162-B198-D5255F9352F6*%
%TF.FilePolarity,Positive*%
%TF.FileFunction,Drillmap*%
%TF.Part,Single*%
G01*
G75*
%TA.AperFunction,NonConductor*%
%ADD38C,0.12700*%
D38*
X6907500Y1970000D02*
X7092500D01*
X7000000Y1877500D02*
Y2062500D01*
X6907500Y1500000D02*
X7092500D01*
X7000000Y1407500D02*
Y1592500D01*
X6907500Y1030000D02*
X7092500D01*
X7000000Y937500D02*
Y1122500D01*
X1395000Y1450000D02*
X1415000D01*
X1405000Y1440000D02*
Y1460000D01*
X1490000Y1507500D02*
X1510000D01*
X1500000Y1497500D02*
Y1517500D01*
X1490000Y1392500D02*
X1510000D01*
X1500000Y1382500D02*
Y1402500D01*
X1585000Y1450000D02*
X1605000D01*
X1595000Y1440000D02*
Y1460000D01*
X4288500Y450000D02*
X4403500D01*
X4346000Y392500D02*
Y507500D01*
X4796500Y450000D02*
X4911500D01*
X4854000Y392500D02*
Y507500D01*
X192500Y2650000D02*
X507500D01*
X350000Y2492500D02*
Y2807500D01*
X6992500Y350000D02*
X7307500D01*
X7150000Y192500D02*
Y507500D01*
X6992500Y2650000D02*
X7307500D01*
X7150000Y2492500D02*
Y2807500D01*
X957500Y2500000D02*
X1042500D01*
X1000000Y2457500D02*
Y2542500D01*
X1973500Y2500000D02*
X2058500D01*
X2016000Y2457500D02*
Y2542500D01*
X1719500Y2500000D02*
X1804500D01*
X1762000Y2457500D02*
Y2542500D01*
X1465500Y2500000D02*
X1550500D01*
X1508000Y2457500D02*
Y2542500D01*
X1211500Y2500000D02*
X1296500D01*
X1254000Y2457500D02*
Y2542500D01*
X1173800Y1765300D02*
X1213800D01*
X1193800Y1745300D02*
Y1785300D01*
X1084900Y1397000D02*
X1124900D01*
X1104900Y1377000D02*
Y1417000D01*
X1758000Y1422400D02*
X1798000D01*
X1778000Y1402400D02*
Y1442400D01*
X1576058Y1116100D02*
X1616057D01*
X1596058Y1096100D02*
Y1136100D01*
X3231200Y1981200D02*
X3271200D01*
X3251200Y1961200D02*
Y2001200D01*
X2266000Y1981200D02*
X2306000D01*
X2286000Y1961200D02*
Y2001200D01*
X3330000Y1650000D02*
X3370000D01*
X3350000Y1630000D02*
Y1670000D01*
X1230000Y1550000D02*
X1270000D01*
X1250000Y1530000D02*
Y1570000D01*
%TF.MD5,daa0a4fc5f2f32ea2e5b9b4d270f5102*%
M02*
