%TF.GenerationSoftware,Altium Limited,Altium Designer,24.0.1 (36)*%
G04 Layer_Color=0*
%FSLAX45Y45*%
%MOMM*%
%TF.SameCoordinates,B6A77970-8F51-4162-B198-D5255F9352F6*%
%TF.FilePolarity,Positive*%
%TF.FileFunction,Plated,1,2,PTH,Drill*%
%TF.Part,Single*%
G01*
G75*
%TA.AperFunction,ComponentDrill*%
%ADD64O,2.25000X1.85000*%
%ADD65C,0.20000*%
%ADD66C,1.15000*%
%ADD67C,0.85000*%
%TA.AperFunction,ViaDrill,NotFilled*%
%ADD68C,0.40000*%
D64*
X7000000Y1970000D02*
D03*
Y1500000D02*
D03*
Y1030000D02*
D03*
D65*
X1405000Y1450000D02*
D03*
X1500000Y1507500D02*
D03*
Y1392500D02*
D03*
X1595000Y1450000D02*
D03*
D66*
X4346000Y450000D02*
D03*
X4854000D02*
D03*
D67*
X1000000Y2500000D02*
D03*
X2016000D02*
D03*
X1762000D02*
D03*
X1508000D02*
D03*
X1254000D02*
D03*
D68*
X1193800Y1765300D02*
D03*
X1104900Y1397000D02*
D03*
X1778000Y1422400D02*
D03*
X1596058Y1116100D02*
D03*
X3251200Y1981200D02*
D03*
X2286000D02*
D03*
X3350000Y1650000D02*
D03*
X1250000Y1550000D02*
D03*
%TF.MD5,50186b14021193dcaacfada5a1e813d1*%
M02*
