%TF.GenerationSoftware,Altium Limited,Altium Designer,24.0.1 (36)*%
G04 Layer_Color=255*
%FSLAX45Y45*%
%MOMM*%
%TF.SameCoordinates,A01A54B3-6B64-4A67-9B29-D4FC54FCECB2*%
%TF.FilePolarity,Positive*%
%TF.FileFunction,Pads,Bot*%
%TF.Part,Single*%
G01*
G75*
%TA.AperFunction,SMDPad,CuDef*%
G04:AMPARAMS|DCode=11|XSize=0.762mm|YSize=0.762mm|CornerRadius=0.0381mm|HoleSize=0mm|Usage=FLASHONLY|Rotation=180.000|XOffset=0mm|YOffset=0mm|HoleType=Round|Shape=RoundedRectangle|*
%AMROUNDEDRECTD11*
21,1,0.76200,0.68580,0,0,180.0*
21,1,0.68580,0.76200,0,0,180.0*
1,1,0.07620,-0.34290,0.34290*
1,1,0.07620,0.34290,0.34290*
1,1,0.07620,0.34290,-0.34290*
1,1,0.07620,-0.34290,-0.34290*
%
%ADD11ROUNDEDRECTD11*%
G04:AMPARAMS|DCode=12|XSize=1.524mm|YSize=1.27mm|CornerRadius=0.09525mm|HoleSize=0mm|Usage=FLASHONLY|Rotation=90.000|XOffset=0mm|YOffset=0mm|HoleType=Round|Shape=RoundedRectangle|*
%AMROUNDEDRECTD12*
21,1,1.52400,1.07950,0,0,90.0*
21,1,1.33350,1.27000,0,0,90.0*
1,1,0.19050,0.53975,0.66675*
1,1,0.19050,0.53975,-0.66675*
1,1,0.19050,-0.53975,-0.66675*
1,1,0.19050,-0.53975,0.66675*
%
%ADD12ROUNDEDRECTD12*%
G04:AMPARAMS|DCode=13|XSize=0.762mm|YSize=0.762mm|CornerRadius=0.0381mm|HoleSize=0mm|Usage=FLASHONLY|Rotation=90.000|XOffset=0mm|YOffset=0mm|HoleType=Round|Shape=RoundedRectangle|*
%AMROUNDEDRECTD13*
21,1,0.76200,0.68580,0,0,90.0*
21,1,0.68580,0.76200,0,0,90.0*
1,1,0.07620,0.34290,0.34290*
1,1,0.07620,0.34290,-0.34290*
1,1,0.07620,-0.34290,-0.34290*
1,1,0.07620,-0.34290,0.34290*
%
%ADD13ROUNDEDRECTD13*%
%TA.AperFunction,ComponentPad*%
%ADD27O,1.11000X2.22000*%
%ADD28C,1.85000*%
%ADD29R,1.85000X1.85000*%
%ADD30C,0.40000*%
%ADD31C,0.65000*%
%ADD32O,2.10000X1.00000*%
%ADD33O,1.80000X1.00000*%
%ADD34C,5.00000*%
D11*
X3175000Y152400D02*
D03*
X3314700D02*
D03*
D12*
X5130800Y584200D02*
D03*
Y812800D02*
D03*
X4254500Y1043940D02*
D03*
Y815340D02*
D03*
X3954800Y818000D02*
D03*
Y1046600D02*
D03*
D13*
X4826000Y762000D02*
D03*
Y901700D02*
D03*
X871500Y476580D02*
D03*
Y336880D02*
D03*
X1421500Y476580D02*
D03*
Y336880D02*
D03*
X2021500Y476580D02*
D03*
Y336880D02*
D03*
X2571500Y476580D02*
D03*
Y336880D02*
D03*
X4518660Y866140D02*
D03*
Y1005840D02*
D03*
D27*
X3378200Y378285D02*
D03*
X3251200D02*
D03*
X3124200D02*
D03*
D28*
X4778000Y2369000D02*
D03*
X4524000D02*
D03*
X3762000D02*
D03*
X4016000D02*
D03*
X4270000D02*
D03*
X3000000Y1600000D02*
D03*
X6556000Y2750000D02*
D03*
X6302000D02*
D03*
X4778000D02*
D03*
X4524000D02*
D03*
X4270000D02*
D03*
X4016000D02*
D03*
X3254000D02*
D03*
X3508000D02*
D03*
X3762000D02*
D03*
X5032000D02*
D03*
X5286000D02*
D03*
X5540000D02*
D03*
X5794000D02*
D03*
X6048000D02*
D03*
X1041400Y965200D02*
D03*
X1295400D02*
D03*
D29*
X3508000Y2369000D02*
D03*
X3254000Y1600000D02*
D03*
X3000000Y2750000D02*
D03*
X1549400Y965200D02*
D03*
D30*
X4586000Y1401000D02*
D03*
X4476000D02*
D03*
X4531000Y1456000D02*
D03*
X4421000D02*
D03*
X4531000Y1346000D02*
D03*
X4586000Y1291000D02*
D03*
X4476000D02*
D03*
X4421000Y1346000D02*
D03*
X4531000Y1236000D02*
D03*
X4366000Y1401000D02*
D03*
Y1291000D02*
D03*
X4421000Y1236000D02*
D03*
D31*
X618000Y1789000D02*
D03*
Y1211000D02*
D03*
D32*
X668000Y1068000D02*
D03*
Y1932000D02*
D03*
D33*
X250000Y1068000D02*
D03*
Y1932000D02*
D03*
D34*
X350000Y2650000D02*
D03*
X6650000Y350000D02*
D03*
%TF.MD5,ce1bca4e9c0ebdda6d19e42d89763ef1*%
M02*
