%TF.GenerationSoftware,Altium Limited,Altium Designer,24.0.1 (36)*%
G04 Layer_Color=65535*
%FSLAX45Y45*%
%MOMM*%
%TF.SameCoordinates,A01A54B3-6B64-4A67-9B29-D4FC54FCECB2*%
%TF.FilePolarity,Positive*%
%TF.FileFunction,Legend,Top*%
%TF.Part,Single*%
G01*
G75*
%TA.AperFunction,NonConductor*%
%ADD37C,0.12000*%
%ADD38C,0.20000*%
%ADD39C,0.20320*%
%ADD40C,0.10160*%
%ADD41C,0.30480*%
%ADD42C,0.25400*%
%ADD43C,0.12700*%
D37*
X3062536Y478570D02*
G03*
X3441108Y477024I188664J-153120D01*
G01*
D38*
X5632000Y726000D02*
G03*
X5632000Y726000I-10000J0D01*
G01*
X1061500Y767880D02*
G03*
X1061500Y767880I-10000J0D01*
G01*
X2204500D02*
G03*
X2204500Y767880I-10000J0D01*
G01*
X1633000D02*
G03*
X1633000Y767880I-10000J0D01*
G01*
X2776000D02*
G03*
X2776000Y767880I-10000J0D01*
G01*
X1932800Y2295200D02*
G03*
X1932800Y2295200I-10000J0D01*
G01*
X860000Y1825000D02*
G03*
X860000Y1825000I-10000J0D01*
G01*
X390000Y1053000D02*
X515000D01*
X390000Y1947000D02*
X515000D01*
X-10000Y1053000D02*
X118000D01*
X-10000Y1947000D02*
X118000D01*
D39*
X1577180Y1582420D02*
Y1785620D01*
X1468980Y1584020D02*
Y1784020D01*
X1571280Y1684020D01*
X1468980Y1584020D02*
X1571280Y1684020D01*
D40*
X1294420Y1874520D02*
X1746540D01*
X1294420Y1493520D02*
X1746540D01*
D41*
X3315750Y547150D02*
X3430050D01*
X3315750Y724950D02*
X3430050D01*
X3112550D02*
X3239550D01*
X3112550Y547150D02*
X3239550D01*
X3430050D02*
Y724950D01*
X3112550Y547150D02*
Y724950D01*
X2926055Y1287780D02*
X3154655D01*
X2926055Y805180D02*
X3154655D01*
X2926055Y1097280D02*
Y1287780D01*
X3154655Y1097280D02*
Y1287780D01*
Y805180D02*
Y995680D01*
X2926055Y805180D02*
Y995680D01*
X3213100Y1257300D02*
X3390900D01*
X3213100Y939800D02*
X3390900D01*
X3213100Y1130300D02*
Y1257300D01*
X3390900Y1130300D02*
Y1257300D01*
Y939800D02*
Y1054100D01*
X3213100Y939800D02*
Y1054100D01*
X1625860Y2549340D02*
X1854460D01*
X1625860Y2066740D02*
X1854460D01*
X1625860Y2358840D02*
Y2549340D01*
X1854460Y2358840D02*
Y2549340D01*
Y2066740D02*
Y2257240D01*
X1625860Y2066740D02*
Y2257240D01*
X2425700Y2657100D02*
X2654300D01*
X2425700Y2174500D02*
X2654300D01*
X2425700Y2466600D02*
Y2657100D01*
X2654300Y2466600D02*
Y2657100D01*
Y2174500D02*
Y2365000D01*
X2425700Y2174500D02*
Y2365000D01*
X2873000Y1785700D02*
Y2014300D01*
X3355600Y1785700D02*
Y2014300D01*
X2873000Y1785700D02*
X3063500D01*
X2873000Y2014300D02*
X3063500D01*
X3165100D02*
X3355600D01*
X3165100Y1785700D02*
X3355600D01*
X5582920Y350520D02*
X5811520D01*
X5582920Y833120D02*
X5811520D01*
Y350520D02*
Y541020D01*
X5582920Y350520D02*
Y541020D01*
Y642620D02*
Y833120D01*
X5811520Y642620D02*
Y833120D01*
X1924050Y2628900D02*
X2038350D01*
X1924050Y2451100D02*
X2038350D01*
X2114550D02*
X2241550D01*
X2114550Y2628900D02*
X2241550D01*
X1924050Y2451100D02*
Y2628900D01*
X2241550Y2451100D02*
Y2628900D01*
X2127250Y2705100D02*
X2241550D01*
X2127250Y2882900D02*
X2241550D01*
X1924050D02*
X2051050D01*
X1924050Y2705100D02*
X2051050D01*
X2241550D02*
Y2882900D01*
X1924050Y2705100D02*
Y2882900D01*
X530860Y2052320D02*
Y2280920D01*
X48260Y2052320D02*
Y2280920D01*
X340360D02*
X530860D01*
X340360Y2052320D02*
X530860D01*
X48260D02*
X238760D01*
X48260Y2280920D02*
X238760D01*
X533400Y698500D02*
Y927100D01*
X50800Y698500D02*
Y927100D01*
X342900D02*
X533400D01*
X342900Y698500D02*
X533400D01*
X50800D02*
X241300D01*
X50800Y927100D02*
X241300D01*
D42*
X3635000Y2242000D02*
Y2496000D01*
X3381000Y2242000D02*
Y2496000D01*
X4905000D01*
X3381000Y2242000D02*
X4905000D01*
Y2496000D01*
X2873000Y1727000D02*
X3381000D01*
X2873000Y1473000D02*
Y1727000D01*
Y1473000D02*
X3381000D01*
Y1727000D01*
X3127000Y1473000D02*
Y1727000D01*
Y2623000D02*
Y2877000D01*
X2873000Y2623000D02*
Y2877000D01*
Y2877000D02*
X6683000Y2877000D01*
Y2686500D02*
Y2813500D01*
X2873000Y2623000D02*
X6683000Y2623000D01*
Y2686500D01*
Y2813500D02*
Y2877000D01*
X914400Y1092200D02*
X1676400D01*
X914400Y838200D02*
Y1092200D01*
Y838200D02*
X1676400D01*
Y1092200D01*
X1422400Y838200D02*
Y1092200D01*
X3451184Y2163879D02*
X3438488Y2176575D01*
X3413096D01*
X3400400Y2163879D01*
Y2113096D01*
X3413096Y2100400D01*
X3438488D01*
X3451184Y2113096D01*
Y2138488D01*
X3425792D01*
X3476575Y2100400D02*
Y2176575D01*
X3527359Y2100400D01*
Y2176575D01*
X3552751D02*
Y2100400D01*
X3590839D01*
X3603534Y2113096D01*
Y2163879D01*
X3590839Y2176575D01*
X3552751D01*
X3650400Y2163879D02*
X3663096Y2176575D01*
X3688488D01*
X3701184Y2163879D01*
Y2151183D01*
X3688488Y2138488D01*
X3675792D01*
X3688488D01*
X3701184Y2125792D01*
Y2113096D01*
X3688488Y2100400D01*
X3663096D01*
X3650400Y2113096D01*
X3726575Y2176575D02*
Y2125792D01*
X3751967Y2100400D01*
X3777359Y2125792D01*
Y2176575D01*
X3802751Y2163879D02*
X3815447Y2176575D01*
X3840839D01*
X3853534Y2163879D01*
Y2151183D01*
X3840839Y2138488D01*
X3828143D01*
X3840839D01*
X3853534Y2125792D01*
Y2113096D01*
X3840839Y2100400D01*
X3815447D01*
X3802751Y2113096D01*
X4447249Y2176967D02*
Y2075400D01*
X4599600D01*
Y2176967D01*
X4523425Y2075400D02*
Y2126183D01*
X3947249Y2075400D02*
Y2176967D01*
Y2126183D01*
X4099600D01*
X4349600Y2075400D02*
X4197249D01*
Y2151575D01*
X4222641Y2176967D01*
X4273424D01*
X4298816Y2151575D01*
Y2075400D01*
Y2126183D02*
X4349600Y2176967D01*
X4722641Y2075400D02*
X4697249Y2100792D01*
Y2151575D01*
X4722641Y2176967D01*
X4824208D01*
X4849600Y2151575D01*
Y2100792D01*
X4824208Y2075400D01*
X4722641D01*
X2803647Y1645315D02*
X2820308Y1661976D01*
Y1695298D01*
X2803647Y1711960D01*
X2737002D01*
X2720340Y1695298D01*
Y1661976D01*
X2737002Y1645315D01*
X2770324D01*
Y1678637D01*
X2720340Y1611992D02*
X2820308D01*
X2720340Y1545347D01*
X2820308D01*
Y1512024D02*
X2720340D01*
Y1462040D01*
X2737002Y1445379D01*
X2803647D01*
X2820308Y1462040D01*
Y1512024D01*
X3528968Y1719580D02*
Y1686257D01*
Y1702918D01*
X3429000D01*
Y1719580D01*
Y1686257D01*
X3528968Y1586289D02*
Y1619612D01*
X3512307Y1636273D01*
X3445662D01*
X3429000Y1619612D01*
Y1586289D01*
X3445662Y1569628D01*
X3512307D01*
X3528968Y1586289D01*
X3429000Y1536306D02*
Y1502983D01*
Y1519644D01*
X3528968D01*
X3512307Y1536306D01*
Y1452999D02*
X3528968Y1436338D01*
Y1403015D01*
X3512307Y1386354D01*
X3445662D01*
X3429000Y1403015D01*
Y1436338D01*
X3445662Y1452999D01*
X3512307D01*
X5715049Y2209800D02*
Y2260583D01*
Y2235192D01*
X5867400D01*
Y2209800D01*
Y2260583D01*
X5715049Y2412934D02*
Y2362151D01*
X5740441Y2336759D01*
X5842008D01*
X5867400Y2362151D01*
Y2412934D01*
X5842008Y2438326D01*
X5740441D01*
X5715049Y2412934D01*
Y2590677D02*
X5740441Y2539893D01*
X5791225Y2489110D01*
X5842008D01*
X5867400Y2514501D01*
Y2565285D01*
X5842008Y2590677D01*
X5816617D01*
X5791225Y2565285D01*
Y2489110D01*
X6477049Y2209800D02*
Y2260583D01*
Y2235192D01*
X6629400D01*
Y2209800D01*
Y2260583D01*
X6477049Y2412934D02*
Y2362151D01*
X6502441Y2336759D01*
X6604008D01*
X6629400Y2362151D01*
Y2412934D01*
X6604008Y2438326D01*
X6502441D01*
X6477049Y2412934D01*
X6604008Y2489110D02*
X6629400Y2514501D01*
Y2565285D01*
X6604008Y2590677D01*
X6502441D01*
X6477049Y2565285D01*
Y2514501D01*
X6502441Y2489110D01*
X6527833D01*
X6553225Y2514501D01*
Y2590677D01*
X6223049Y2209800D02*
Y2260583D01*
Y2235192D01*
X6375400D01*
Y2209800D01*
Y2260583D01*
X6223049Y2412934D02*
Y2362151D01*
X6248441Y2336759D01*
X6350008D01*
X6375400Y2362151D01*
Y2412934D01*
X6350008Y2438326D01*
X6248441D01*
X6223049Y2412934D01*
X6248441Y2489110D02*
X6223049Y2514501D01*
Y2565285D01*
X6248441Y2590677D01*
X6273833D01*
X6299225Y2565285D01*
X6324617Y2590677D01*
X6350008D01*
X6375400Y2565285D01*
Y2514501D01*
X6350008Y2489110D01*
X6324617D01*
X6299225Y2514501D01*
X6273833Y2489110D01*
X6248441D01*
X6299225Y2514501D02*
Y2565285D01*
X5969049Y2209800D02*
Y2260583D01*
Y2235192D01*
X6121400D01*
Y2209800D01*
Y2260583D01*
X5969049Y2412934D02*
Y2362151D01*
X5994441Y2336759D01*
X6096008D01*
X6121400Y2362151D01*
Y2412934D01*
X6096008Y2438326D01*
X5994441D01*
X5969049Y2412934D01*
Y2489110D02*
Y2590677D01*
X5994441D01*
X6096008Y2489110D01*
X6121400D01*
X5461049Y2209800D02*
Y2260583D01*
Y2235192D01*
X5613400D01*
Y2209800D01*
Y2260583D01*
X5461049Y2412934D02*
Y2362151D01*
X5486441Y2336759D01*
X5588008D01*
X5613400Y2362151D01*
Y2412934D01*
X5588008Y2438326D01*
X5486441D01*
X5461049Y2412934D01*
Y2590677D02*
Y2489110D01*
X5537225D01*
X5511833Y2539893D01*
Y2565285D01*
X5537225Y2590677D01*
X5588008D01*
X5613400Y2565285D01*
Y2514501D01*
X5588008Y2489110D01*
X5207049Y2209800D02*
Y2260583D01*
Y2235192D01*
X5359400D01*
Y2209800D01*
Y2260583D01*
X5207049Y2412934D02*
Y2362151D01*
X5232441Y2336759D01*
X5334008D01*
X5359400Y2362151D01*
Y2412934D01*
X5334008Y2438326D01*
X5232441D01*
X5207049Y2412934D01*
X5359400Y2565285D02*
X5207049D01*
X5283225Y2489110D01*
Y2590677D01*
X4953049Y2209800D02*
Y2260583D01*
Y2235192D01*
X5105400D01*
Y2209800D01*
Y2260583D01*
X4953049Y2412934D02*
Y2362151D01*
X4978441Y2336759D01*
X5080008D01*
X5105400Y2362151D01*
Y2412934D01*
X5080008Y2438326D01*
X4978441D01*
X4953049Y2412934D01*
X4978441Y2489110D02*
X4953049Y2514501D01*
Y2565285D01*
X4978441Y2590677D01*
X5003833D01*
X5029225Y2565285D01*
Y2539893D01*
Y2565285D01*
X5054617Y2590677D01*
X5080008D01*
X5105400Y2565285D01*
Y2514501D01*
X5080008Y2489110D01*
X2920745Y2070100D02*
X3014048D01*
X3060700Y2116752D01*
X3014048Y2163403D01*
X2920745D01*
Y2210055D02*
X3060700D01*
Y2280032D01*
X3037374Y2303358D01*
X3014048D01*
X2990722Y2280032D01*
Y2210055D01*
Y2280032D01*
X2967397Y2303358D01*
X2944071D01*
X2920745Y2280032D01*
Y2210055D01*
X3060700Y2350010D02*
X2967397D01*
X2920745Y2396661D01*
X2967397Y2443313D01*
X3060700D01*
X2990722D01*
Y2350010D01*
X2920745Y2489965D02*
Y2583268D01*
Y2536616D01*
X3060700D01*
X3179825Y2070100D02*
X3273128D01*
X3319780Y2116752D01*
X3273128Y2163403D01*
X3179825D01*
Y2210055D02*
X3319780D01*
Y2280032D01*
X3296454Y2303358D01*
X3273128D01*
X3249802Y2280032D01*
Y2210055D01*
Y2280032D01*
X3226477Y2303358D01*
X3203151D01*
X3179825Y2280032D01*
Y2210055D01*
Y2350010D02*
X3296454D01*
X3319780Y2373336D01*
Y2419987D01*
X3296454Y2443313D01*
X3179825D01*
X3203151Y2583268D02*
X3179825Y2559942D01*
Y2513290D01*
X3203151Y2489965D01*
X3226477D01*
X3249802Y2513290D01*
Y2559942D01*
X3273128Y2583268D01*
X3296454D01*
X3319780Y2559942D01*
Y2513290D01*
X3296454Y2489965D01*
X965249Y1244567D02*
Y1143000D01*
X1041425D01*
X1016033Y1193783D01*
Y1219175D01*
X1041425Y1244567D01*
X1092208D01*
X1117600Y1219175D01*
Y1168392D01*
X1092208Y1143000D01*
X965249Y1295351D02*
X1066817D01*
X1117600Y1346134D01*
X1066817Y1396918D01*
X965249D01*
X1219249Y1168400D02*
X1371600D01*
Y1244575D01*
X1346208Y1269967D01*
X1244641D01*
X1219249Y1244575D01*
Y1168400D01*
X1498641Y1244567D02*
X1473249Y1219175D01*
Y1168392D01*
X1498641Y1143000D01*
X1600208D01*
X1625600Y1168392D01*
Y1219175D01*
X1600208Y1244567D01*
X1549425D01*
Y1193783D01*
X1625600Y1295351D02*
X1473249D01*
X1625600Y1396918D01*
X1473249D01*
Y1447701D02*
X1625600D01*
Y1523877D01*
X1600208Y1549269D01*
X1498641D01*
X1473249Y1523877D01*
Y1447701D01*
X2336800Y1574751D02*
Y1422400D01*
X2412975D01*
X2438367Y1447792D01*
Y1549359D01*
X2412975Y1574751D01*
X2336800D01*
X2489151Y1498575D02*
X2590718D01*
X2336800Y1320751D02*
Y1168400D01*
X2412975D01*
X2438367Y1193792D01*
Y1295359D01*
X2412975Y1320751D01*
X2336800D01*
X2489151Y1244575D02*
X2590718D01*
X2539934Y1295359D02*
Y1193792D01*
X6502400Y2032000D02*
X6654751D01*
X6502400Y1930433D01*
X6654751D01*
Y1803474D02*
Y1854257D01*
X6629359Y1879649D01*
X6527792D01*
X6502400Y1854257D01*
Y1803474D01*
X6527792Y1778082D01*
X6629359D01*
X6654751Y1803474D01*
Y1727299D02*
X6502400D01*
Y1651123D01*
X6527792Y1625731D01*
X6629359D01*
X6654751Y1651123D01*
Y1727299D01*
Y1473381D02*
Y1574948D01*
X6502400D01*
Y1473381D01*
X6578575Y1574948D02*
Y1524164D01*
X6654751Y1270246D02*
X6553183D01*
X6502400Y1219463D01*
X6553183Y1168679D01*
X6654751D01*
X6502400Y1016328D02*
Y1117896D01*
X6603967Y1016328D01*
X6629359D01*
X6654751Y1041720D01*
Y1092504D01*
X6629359Y1117896D01*
X6502400Y965545D02*
X6527792D01*
Y940153D01*
X6502400D01*
Y965545D01*
Y737019D02*
Y838586D01*
X6603967Y737019D01*
X6629359D01*
X6654751Y762411D01*
Y813194D01*
X6629359Y838586D01*
X6908751Y2032000D02*
X6756400D01*
X6807183D01*
X6908751Y1930433D01*
X6832575Y2006608D01*
X6756400Y1930433D01*
Y1879649D02*
X6908751D01*
Y1803474D01*
X6883359Y1778082D01*
X6832575D01*
X6807183Y1803474D01*
Y1879649D01*
Y1828866D02*
X6756400Y1778082D01*
Y1727299D02*
X6857967D01*
X6908751Y1676515D01*
X6857967Y1625731D01*
X6756400D01*
X6832575D01*
Y1727299D01*
X6756400Y1574948D02*
X6908751D01*
Y1498772D01*
X6883359Y1473381D01*
X6832575D01*
X6807183Y1498772D01*
Y1574948D01*
Y1524164D02*
X6756400Y1473381D01*
Y1422597D02*
X6857967Y1321030D01*
X6883359Y1168679D02*
X6908751Y1194071D01*
Y1244855D01*
X6883359Y1270246D01*
X6857967D01*
X6832575Y1244855D01*
Y1194071D01*
X6807183Y1168679D01*
X6781792D01*
X6756400Y1194071D01*
Y1244855D01*
X6781792Y1270246D01*
X6883359Y1016328D02*
X6908751Y1041720D01*
Y1092504D01*
X6883359Y1117896D01*
X6781792D01*
X6756400Y1092504D01*
Y1041720D01*
X6781792Y1016328D01*
X6908751Y965545D02*
X6756400D01*
X6832575D01*
Y863978D01*
X6908751D01*
X6756400D01*
X6908751Y711627D02*
Y813194D01*
X6832575D01*
Y762411D01*
Y813194D01*
X6756400D01*
X5947374Y506368D02*
X5927381Y526361D01*
X5887394D01*
X5867400Y506368D01*
Y426394D01*
X5887394Y406400D01*
X5927381D01*
X5947374Y426394D01*
Y466381D01*
X5907387D01*
X5987361Y406400D02*
Y526361D01*
X6067335Y406400D01*
Y526361D01*
X6107322D02*
Y406400D01*
X6167303D01*
X6187296Y426394D01*
Y506368D01*
X6167303Y526361D01*
X6107322D01*
X5816600Y1092200D02*
Y1192168D01*
X5866584D01*
X5883245Y1175506D01*
Y1142184D01*
X5866584Y1125523D01*
X5816600D01*
X5849923D02*
X5883245Y1092200D01*
X5983213Y1192168D02*
X5916568D01*
Y1092200D01*
X5983213D01*
X5916568Y1142184D02*
X5949890D01*
X6083181Y1175506D02*
X6066519Y1192168D01*
X6033197D01*
X6016536Y1175506D01*
Y1158845D01*
X6033197Y1142184D01*
X6066519D01*
X6083181Y1125523D01*
Y1108861D01*
X6066519Y1092200D01*
X6033197D01*
X6016536Y1108861D01*
X6183148Y1192168D02*
X6116503D01*
Y1092200D01*
X6183148D01*
X6116503Y1142184D02*
X6149826D01*
X6216471Y1192168D02*
X6283116D01*
X6249794D01*
Y1092200D01*
X3480616Y762499D02*
X3580584D01*
Y712515D01*
X3563922Y695854D01*
X3530600D01*
X3513938Y712515D01*
Y762499D01*
Y729177D02*
X3480616Y695854D01*
Y662532D02*
Y629209D01*
Y645870D01*
X3580584D01*
X3563922Y662532D01*
Y579225D02*
X3580584Y562564D01*
Y529241D01*
X3563922Y512580D01*
X3497277D01*
X3480616Y529241D01*
Y562564D01*
X3497277Y579225D01*
X3563922D01*
X2764418Y1148277D02*
X2874382D01*
Y1093295D01*
X2856055Y1074967D01*
X2819400D01*
X2801073Y1093295D01*
Y1148277D01*
Y1111622D02*
X2764418Y1074967D01*
X2782745Y1038313D02*
X2764418Y1019985D01*
Y983330D01*
X2782745Y965003D01*
X2856055D01*
X2874382Y983330D01*
Y1019985D01*
X2856055Y1038313D01*
X2837728D01*
X2819400Y1019985D01*
Y965003D01*
X3523283Y1113533D02*
X3539944Y1130194D01*
Y1163517D01*
X3523283Y1180178D01*
X3456637D01*
X3439976Y1163517D01*
Y1130194D01*
X3456637Y1113533D01*
X3439976Y1080210D02*
Y1046888D01*
Y1063549D01*
X3539944D01*
X3523283Y1080210D01*
X3439976Y996904D02*
Y963582D01*
Y980243D01*
X3539944D01*
X3523283Y996904D01*
X2656643Y1814458D02*
Y1924422D01*
X2711625D01*
X2729953Y1906095D01*
Y1869440D01*
X2711625Y1851113D01*
X2656643D01*
X2693298D02*
X2729953Y1814458D01*
X2766607Y1906095D02*
X2784935Y1924422D01*
X2821590D01*
X2839917Y1906095D01*
Y1887768D01*
X2821590Y1869440D01*
X2839917Y1851113D01*
Y1832785D01*
X2821590Y1814458D01*
X2784935D01*
X2766607Y1832785D01*
Y1851113D01*
X2784935Y1869440D01*
X2766607Y1887768D01*
Y1906095D01*
X2784935Y1869440D02*
X2821590D01*
X5573041Y1976175D02*
Y1849217D01*
X5598433Y1823825D01*
X5649217D01*
X5674608Y1849217D01*
Y1976175D01*
X5826959Y1823825D02*
X5725392D01*
X5826959Y1925392D01*
Y1950784D01*
X5801567Y1976175D01*
X5750784D01*
X5725392Y1950784D01*
X957675Y533339D02*
X805325D01*
Y457163D01*
X830716Y431772D01*
X932283D01*
X957675Y457163D01*
Y533339D01*
Y279421D02*
X932283Y330205D01*
X881500Y380988D01*
X830716D01*
X805325Y355596D01*
Y304813D01*
X830716Y279421D01*
X856108D01*
X881500Y304813D01*
Y380988D01*
X1175823Y2023482D02*
Y1913518D01*
X1230805D01*
X1249133Y1931845D01*
Y2005155D01*
X1230805Y2023482D01*
X1175823D01*
X1359097Y1913518D02*
X1285787D01*
X1359097Y1986828D01*
Y2005155D01*
X1340770Y2023482D01*
X1304115D01*
X1285787Y2005155D01*
X1924086Y2089441D02*
Y1989473D01*
X1944080Y1969479D01*
X1984067D01*
X2004060Y1989473D01*
Y2089441D01*
X2044047Y1969479D02*
X2084034D01*
X2064041D01*
Y2089441D01*
X2044047Y2069447D01*
X3124077Y203575D02*
Y76617D01*
X3149469Y51225D01*
X3200252D01*
X3225644Y76617D01*
Y203575D01*
X3276428Y178184D02*
X3301819Y203575D01*
X3352603D01*
X3377995Y178184D01*
Y152792D01*
X3352603Y127400D01*
X3327211D01*
X3352603D01*
X3377995Y102008D01*
Y76617D01*
X3352603Y51225D01*
X3301819D01*
X3276428Y76617D01*
X2281818Y2629097D02*
X2391782D01*
Y2574115D01*
X2373455Y2555787D01*
X2336800D01*
X2318473Y2574115D01*
Y2629097D01*
Y2592442D02*
X2281818Y2555787D01*
Y2445823D02*
Y2519133D01*
X2355128Y2445823D01*
X2373455D01*
X2391782Y2464150D01*
Y2500805D01*
X2373455Y2519133D01*
X1876162Y2728311D02*
X1766198D01*
Y2783293D01*
X1784525Y2801620D01*
X1821180D01*
X1839507Y2783293D01*
Y2728311D01*
Y2764965D02*
X1876162Y2801620D01*
Y2838275D02*
Y2874930D01*
Y2856602D01*
X1766198D01*
X1784525Y2838275D01*
X1953611Y1812662D02*
Y1702698D01*
X2026920D01*
X2063575D02*
X2100230D01*
X2081902D01*
Y1812662D01*
X2063575Y1794335D01*
X5679469Y246363D02*
X5654077Y271755D01*
X5603294D01*
X5577902Y246363D01*
Y144797D01*
X5603294Y119405D01*
X5654077D01*
X5679469Y144797D01*
X5730252Y119405D02*
X5781036D01*
X5755644D01*
Y271755D01*
X5730252Y246363D01*
X5857211D02*
X5882603Y271755D01*
X5933387D01*
X5958779Y246363D01*
Y144797D01*
X5933387Y119405D01*
X5882603D01*
X5857211Y144797D01*
Y246363D01*
X190541Y482625D02*
Y634975D01*
X266717D01*
X292108Y609583D01*
Y558800D01*
X266717Y533408D01*
X190541D01*
X241325D02*
X292108Y482625D01*
X342892Y634975D02*
X444459D01*
Y609583D01*
X342892Y508017D01*
Y482625D01*
X581701Y2090445D02*
Y2242795D01*
X657877D01*
X683268Y2217403D01*
Y2166620D01*
X657877Y2141228D01*
X581701D01*
X632485D02*
X683268Y2090445D01*
X835619Y2242795D02*
X784835Y2217403D01*
X734052Y2166620D01*
Y2115837D01*
X759444Y2090445D01*
X810227D01*
X835619Y2115837D01*
Y2141228D01*
X810227Y2166620D01*
X734052D01*
X1529176Y519838D02*
X1376825D01*
Y443663D01*
X1402217Y418271D01*
X1503784D01*
X1529176Y443663D01*
Y519838D01*
Y265920D02*
Y367488D01*
X1453000D01*
X1478392Y316704D01*
Y291312D01*
X1453000Y265920D01*
X1402217D01*
X1376825Y291312D01*
Y342096D01*
X1402217Y367488D01*
X2120875Y513039D02*
X1968525D01*
Y436863D01*
X1993917Y411472D01*
X2095483D01*
X2120875Y436863D01*
Y513039D01*
X1968525Y284513D02*
X2120875D01*
X2044700Y360688D01*
Y259121D01*
X2692375Y525739D02*
X2540025D01*
Y449563D01*
X2565417Y424172D01*
X2666983D01*
X2692375Y449563D01*
Y525739D01*
X2666983Y373388D02*
X2692375Y347996D01*
Y297213D01*
X2666983Y271821D01*
X2641592D01*
X2616200Y297213D01*
Y322605D01*
Y297213D01*
X2590808Y271821D01*
X2565417D01*
X2540025Y297213D01*
Y347996D01*
X2565417Y373388D01*
X1457413Y2360755D02*
X1439085Y2379082D01*
X1402430D01*
X1384103Y2360755D01*
Y2287445D01*
X1402430Y2269118D01*
X1439085D01*
X1457413Y2287445D01*
X1494067Y2360755D02*
X1512395Y2379082D01*
X1549050D01*
X1567377Y2360755D01*
Y2342428D01*
X1549050Y2324100D01*
X1530722D01*
X1549050D01*
X1567377Y2305773D01*
Y2287445D01*
X1549050Y2269118D01*
X1512395D01*
X1494067Y2287445D01*
X2542540Y2784935D02*
X2524213Y2803262D01*
X2487558D01*
X2469231Y2784935D01*
Y2711625D01*
X2487558Y2693298D01*
X2524213D01*
X2542540Y2711625D01*
X2579195Y2693298D02*
X2615850D01*
X2597522D01*
Y2803262D01*
X2579195Y2784935D01*
D43*
X3672000Y16000D02*
X5472000D01*
X3672000D02*
Y649000D01*
Y2016000D02*
X5472000D01*
Y16000D02*
Y649000D01*
X3672000Y2003000D02*
Y2016000D01*
X5472000Y2003000D02*
Y2016000D01*
X641500Y142880D02*
Y642880D01*
X1141500Y142880D02*
Y642880D01*
X812850D02*
X970150D01*
X812850Y142880D02*
X970150D01*
X1955850D02*
X2113150D01*
X1955850Y642880D02*
X2113150D01*
X2284500Y142880D02*
Y642880D01*
X1784500Y142880D02*
Y642880D01*
X1213000Y142880D02*
Y642880D01*
X1713000Y142880D02*
Y642880D01*
X1384350D02*
X1541650D01*
X1384350Y142880D02*
X1541650D01*
X2527350D02*
X2684650D01*
X2527350Y642880D02*
X2684650D01*
X2856000Y142880D02*
Y642880D01*
X2356000Y142880D02*
Y642880D01*
X2136000Y2049600D02*
X2436000D01*
X2136000Y1709600D02*
X2436000D01*
X2022800Y2332700D02*
X2142800D01*
X2022800Y2137700D02*
X2142800D01*
%TF.MD5,cba6644ff847ebe59a0bb2b9171d28e6*%
M02*
