%TF.GenerationSoftware,Altium Limited,Altium Designer,24.0.1 (36)*%
G04 Layer_Color=128*
%FSLAX45Y45*%
%MOMM*%
%TF.SameCoordinates,A01A54B3-6B64-4A67-9B29-D4FC54FCECB2*%
%TF.FilePolarity,Positive*%
%TF.FileFunction,Paste,Bot*%
%TF.Part,Single*%
G01*
G75*
%TA.AperFunction,SMDPad,CuDef*%
G04:AMPARAMS|DCode=65|XSize=0.722mm|YSize=0.722mm|CornerRadius=0.0181mm|HoleSize=0mm|Usage=FLASHONLY|Rotation=180.000|XOffset=0mm|YOffset=0mm|HoleType=Round|Shape=RoundedRectangle|*
%AMROUNDEDRECTD65*
21,1,0.72200,0.68580,0,0,180.0*
21,1,0.68580,0.72200,0,0,180.0*
1,1,0.03620,-0.34290,0.34290*
1,1,0.03620,0.34290,0.34290*
1,1,0.03620,0.34290,-0.34290*
1,1,0.03620,-0.34290,-0.34290*
%
%ADD65ROUNDEDRECTD65*%
G04:AMPARAMS|DCode=66|XSize=1.484mm|YSize=1.23mm|CornerRadius=0.07525mm|HoleSize=0mm|Usage=FLASHONLY|Rotation=90.000|XOffset=0mm|YOffset=0mm|HoleType=Round|Shape=RoundedRectangle|*
%AMROUNDEDRECTD66*
21,1,1.48400,1.07950,0,0,90.0*
21,1,1.33350,1.23000,0,0,90.0*
1,1,0.15050,0.53975,0.66675*
1,1,0.15050,0.53975,-0.66675*
1,1,0.15050,-0.53975,-0.66675*
1,1,0.15050,-0.53975,0.66675*
%
%ADD66ROUNDEDRECTD66*%
G04:AMPARAMS|DCode=67|XSize=0.722mm|YSize=0.722mm|CornerRadius=0.0181mm|HoleSize=0mm|Usage=FLASHONLY|Rotation=90.000|XOffset=0mm|YOffset=0mm|HoleType=Round|Shape=RoundedRectangle|*
%AMROUNDEDRECTD67*
21,1,0.72200,0.68580,0,0,90.0*
21,1,0.68580,0.72200,0,0,90.0*
1,1,0.03620,0.34290,0.34290*
1,1,0.03620,0.34290,-0.34290*
1,1,0.03620,-0.34290,-0.34290*
1,1,0.03620,-0.34290,0.34290*
%
%ADD67ROUNDEDRECTD67*%
D65*
X3175000Y152400D02*
D03*
X3314700D02*
D03*
D66*
X5130800Y584200D02*
D03*
Y812800D02*
D03*
X4254500Y1043940D02*
D03*
Y815340D02*
D03*
X3954800Y818000D02*
D03*
Y1046600D02*
D03*
D67*
X4826000Y762000D02*
D03*
Y901700D02*
D03*
X871500Y476580D02*
D03*
Y336880D02*
D03*
X1421500Y476580D02*
D03*
Y336880D02*
D03*
X2021500Y476580D02*
D03*
Y336880D02*
D03*
X2571500Y476580D02*
D03*
Y336880D02*
D03*
X4518660Y866140D02*
D03*
Y1005840D02*
D03*
%TF.MD5,f65a76ac8f47d8c9c9fbad1ad0517070*%
M02*
