%TF.GenerationSoftware,Altium Limited,Altium Designer,24.0.1 (36)*%
G04 Layer_Physical_Order=1*
G04 Layer_Color=255*
%FSLAX45Y45*%
%MOMM*%
%TF.SameCoordinates,B6A77970-8F51-4162-B198-D5255F9352F6*%
%TF.FilePolarity,Positive*%
%TF.FileFunction,Copper,L1,Top,Signal*%
%TF.Part,Single*%
G01*
G75*
%TA.AperFunction,SMDPad,CuDef*%
%ADD10R,3.12000X2.29000*%
%ADD11R,2.29000X3.12000*%
G04:AMPARAMS|DCode=12|XSize=2.5mm|YSize=1.6mm|CornerRadius=0.12mm|HoleSize=0mm|Usage=FLASHONLY|Rotation=270.000|XOffset=0mm|YOffset=0mm|HoleType=Round|Shape=RoundedRectangle|*
%AMROUNDEDRECTD12*
21,1,2.50000,1.36000,0,0,270.0*
21,1,2.26000,1.60000,0,0,270.0*
1,1,0.24000,-0.68000,-1.13000*
1,1,0.24000,-0.68000,1.13000*
1,1,0.24000,0.68000,1.13000*
1,1,0.24000,0.68000,-1.13000*
%
%ADD12ROUNDEDRECTD12*%
G04:AMPARAMS|DCode=13|XSize=0.6mm|YSize=0.24mm|CornerRadius=0.03mm|HoleSize=0mm|Usage=FLASHONLY|Rotation=270.000|XOffset=0mm|YOffset=0mm|HoleType=Round|Shape=RoundedRectangle|*
%AMROUNDEDRECTD13*
21,1,0.60000,0.18000,0,0,270.0*
21,1,0.54000,0.24000,0,0,270.0*
1,1,0.06000,-0.09000,-0.27000*
1,1,0.06000,-0.09000,0.27000*
1,1,0.06000,0.09000,0.27000*
1,1,0.06000,0.09000,-0.27000*
%
%ADD13ROUNDEDRECTD13*%
G04:AMPARAMS|DCode=14|XSize=1.65mm|YSize=2.4mm|CornerRadius=0.04125mm|HoleSize=0mm|Usage=FLASHONLY|Rotation=270.000|XOffset=0mm|YOffset=0mm|HoleType=Round|Shape=RoundedRectangle|*
%AMROUNDEDRECTD14*
21,1,1.65000,2.31750,0,0,270.0*
21,1,1.56750,2.40000,0,0,270.0*
1,1,0.08250,-1.15875,-0.78375*
1,1,0.08250,-1.15875,0.78375*
1,1,0.08250,1.15875,0.78375*
1,1,0.08250,1.15875,-0.78375*
%
%ADD14ROUNDEDRECTD14*%
G04:AMPARAMS|DCode=15|XSize=1.22mm|YSize=0.6mm|CornerRadius=0.15mm|HoleSize=0mm|Usage=FLASHONLY|Rotation=0.000|XOffset=0mm|YOffset=0mm|HoleType=Round|Shape=RoundedRectangle|*
%AMROUNDEDRECTD15*
21,1,1.22000,0.30000,0,0,0.0*
21,1,0.92000,0.60000,0,0,0.0*
1,1,0.30000,0.46000,-0.15000*
1,1,0.30000,-0.46000,-0.15000*
1,1,0.30000,-0.46000,0.15000*
1,1,0.30000,0.46000,0.15000*
%
%ADD15ROUNDEDRECTD15*%
G04:AMPARAMS|DCode=16|XSize=1.524mm|YSize=1.27mm|CornerRadius=0.09525mm|HoleSize=0mm|Usage=FLASHONLY|Rotation=0.000|XOffset=0mm|YOffset=0mm|HoleType=Round|Shape=RoundedRectangle|*
%AMROUNDEDRECTD16*
21,1,1.52400,1.07950,0,0,0.0*
21,1,1.33350,1.27000,0,0,0.0*
1,1,0.19050,0.66675,-0.53975*
1,1,0.19050,-0.66675,-0.53975*
1,1,0.19050,-0.66675,0.53975*
1,1,0.19050,0.66675,0.53975*
%
%ADD16ROUNDEDRECTD16*%
%ADD17R,3.00000X2.80000*%
%ADD18R,0.80000X2.70000*%
G04:AMPARAMS|DCode=19|XSize=1.524mm|YSize=1.27mm|CornerRadius=0.09525mm|HoleSize=0mm|Usage=FLASHONLY|Rotation=90.000|XOffset=0mm|YOffset=0mm|HoleType=Round|Shape=RoundedRectangle|*
%AMROUNDEDRECTD19*
21,1,1.52400,1.07950,0,0,90.0*
21,1,1.33350,1.27000,0,0,90.0*
1,1,0.19050,0.53975,0.66675*
1,1,0.19050,0.53975,-0.66675*
1,1,0.19050,-0.53975,-0.66675*
1,1,0.19050,-0.53975,0.66675*
%
%ADD19ROUNDEDRECTD19*%
G04:AMPARAMS|DCode=20|XSize=0.762mm|YSize=0.762mm|CornerRadius=0.0381mm|HoleSize=0mm|Usage=FLASHONLY|Rotation=90.000|XOffset=0mm|YOffset=0mm|HoleType=Round|Shape=RoundedRectangle|*
%AMROUNDEDRECTD20*
21,1,0.76200,0.68580,0,0,90.0*
21,1,0.68580,0.76200,0,0,90.0*
1,1,0.07620,0.34290,0.34290*
1,1,0.07620,0.34290,-0.34290*
1,1,0.07620,-0.34290,-0.34290*
1,1,0.07620,-0.34290,0.34290*
%
%ADD20ROUNDEDRECTD20*%
%TA.AperFunction,Conductor*%
%ADD21C,0.40000*%
%ADD22C,0.50000*%
%ADD23C,0.25000*%
%ADD24C,0.75000*%
%ADD25C,0.30000*%
%TA.AperFunction,ComponentPad*%
%ADD26R,3.25000X2.85000*%
%ADD27O,3.25000X2.85000*%
%ADD28C,0.30000*%
%ADD29R,2.15000X2.15000*%
%ADD30C,2.15000*%
%ADD31C,5.00000*%
%ADD32C,1.85000*%
%ADD33R,1.85000X1.85000*%
%TA.AperFunction,ViaPad*%
%ADD34C,0.80000*%
G36*
X7441373Y58627D02*
X58627D01*
Y2941374D01*
X7441373D01*
Y58627D01*
D02*
G37*
%LPC*%
G36*
X1025000Y2614946D02*
Y2525000D01*
X1114946D01*
X1109493Y2545353D01*
X1094023Y2572147D01*
X1072147Y2594024D01*
X1045353Y2609493D01*
X1025000Y2614946D01*
D02*
G37*
G36*
X975000D02*
X954647Y2609493D01*
X927853Y2594024D01*
X905977Y2572147D01*
X890507Y2545353D01*
X885054Y2525000D01*
X975000D01*
Y2614946D01*
D02*
G37*
G36*
X1114946Y2475000D02*
X1025000D01*
Y2385054D01*
X1045353Y2390508D01*
X1072147Y2405977D01*
X1094023Y2427853D01*
X1109493Y2454647D01*
X1114946Y2475000D01*
D02*
G37*
G36*
X975000D02*
X885054D01*
X890507Y2454647D01*
X905977Y2427853D01*
X927853Y2405977D01*
X954647Y2390508D01*
X975000Y2385054D01*
Y2475000D01*
D02*
G37*
G36*
X7171249Y2920000D02*
X7128751D01*
X7086775Y2913352D01*
X7046356Y2900219D01*
X7008489Y2880925D01*
X6974107Y2855945D01*
X6944055Y2825893D01*
X6919075Y2791511D01*
X6899781Y2753644D01*
X6886648Y2713225D01*
X6880000Y2671249D01*
Y2628751D01*
X6886648Y2586775D01*
X6899781Y2546356D01*
X6919075Y2508489D01*
X6944055Y2474107D01*
X6974107Y2444056D01*
X7008489Y2419075D01*
X7046356Y2399781D01*
X7086775Y2386648D01*
X7128751Y2380000D01*
X7171249D01*
X7213225Y2386648D01*
X7253644Y2399781D01*
X7291511Y2419075D01*
X7325893Y2444056D01*
X7355944Y2474107D01*
X7380925Y2508489D01*
X7400219Y2546356D01*
X7413352Y2586775D01*
X7420000Y2628751D01*
Y2671249D01*
X7413352Y2713225D01*
X7400219Y2753644D01*
X7380925Y2791511D01*
X7355944Y2825893D01*
X7325893Y2855945D01*
X7291511Y2880925D01*
X7253644Y2900219D01*
X7213225Y2913352D01*
X7171249Y2920000D01*
D02*
G37*
G36*
X371249D02*
X328751D01*
X286775Y2913352D01*
X246356Y2900219D01*
X208489Y2880925D01*
X174107Y2855945D01*
X144056Y2825893D01*
X119075Y2791511D01*
X99781Y2753644D01*
X86648Y2713225D01*
X80000Y2671249D01*
Y2628751D01*
X86648Y2586775D01*
X99781Y2546356D01*
X119075Y2508489D01*
X144056Y2474107D01*
X174107Y2444056D01*
X208489Y2419075D01*
X246356Y2399781D01*
X286775Y2386648D01*
X328751Y2380000D01*
X371249D01*
X413225Y2386648D01*
X453644Y2399781D01*
X491511Y2419075D01*
X525893Y2444056D01*
X555945Y2474107D01*
X580925Y2508489D01*
X600219Y2546356D01*
X613352Y2586775D01*
X620000Y2628751D01*
Y2671249D01*
X613352Y2713225D01*
X600219Y2753644D01*
X580925Y2791511D01*
X555945Y2825893D01*
X525893Y2855945D01*
X491511Y2880925D01*
X453644Y2900219D01*
X413225Y2913352D01*
X371249Y2920000D01*
D02*
G37*
G36*
X2128500Y2612500D02*
X1903500D01*
Y2387500D01*
X1991373D01*
Y1795627D01*
X1982000D01*
X1969514Y1793143D01*
X1958930Y1786071D01*
X1951857Y1775486D01*
X1949373Y1763000D01*
Y1625686D01*
X1630723D01*
X1630666Y1625974D01*
X1625582Y1633582D01*
X1617974Y1638665D01*
X1609000Y1640450D01*
X1591000D01*
X1583137Y1646904D01*
Y1686275D01*
X1623431Y1726569D01*
X1630614Y1737319D01*
X1633137Y1750000D01*
Y1795000D01*
X1660000D01*
Y2105000D01*
X1540000D01*
Y1795000D01*
X1566864D01*
Y1763726D01*
X1526569Y1723431D01*
X1519386Y1712681D01*
X1516863Y1700000D01*
Y1652002D01*
X1509000Y1645548D01*
X1491000D01*
X1483137Y1652002D01*
Y1700000D01*
X1480614Y1712680D01*
X1473431Y1723431D01*
X1414562Y1782300D01*
X1416578Y1795000D01*
X1440000D01*
Y2105000D01*
X1320000D01*
Y1795000D01*
X1346863D01*
Y1770000D01*
X1349386Y1757319D01*
X1356569Y1746569D01*
X1416864Y1686274D01*
Y1646904D01*
X1409000Y1640450D01*
X1391000D01*
X1382026Y1638665D01*
X1374418Y1633582D01*
X1369335Y1625974D01*
X1369277Y1625686D01*
X1308590D01*
X1305607Y1627679D01*
X1290000Y1630783D01*
X1274393Y1627679D01*
X1261162Y1618838D01*
X1252323Y1610000D01*
X1238065D01*
X1216013Y1600865D01*
X1205931Y1590783D01*
X1134393D01*
X1000627Y1724550D01*
Y1913000D01*
X998143Y1925485D01*
X991070Y1936070D01*
X980485Y1943143D01*
X968000Y1945627D01*
X832000D01*
X819514Y1943143D01*
X808930Y1936070D01*
X801857Y1925485D01*
X799373Y1913000D01*
Y1687000D01*
X801857Y1674514D01*
X808930Y1663929D01*
X819514Y1656856D01*
X832000Y1654373D01*
X955450D01*
X1088661Y1521162D01*
X1088662Y1521162D01*
X1101893Y1512321D01*
X1117500Y1509216D01*
X1117501Y1509216D01*
X1205931D01*
X1209217Y1505931D01*
Y1250001D01*
X1209216Y1250000D01*
X1212321Y1234393D01*
X1221162Y1221162D01*
X1259216Y1183107D01*
Y1046778D01*
X1246025D01*
X1234505Y1044487D01*
X1224739Y1037961D01*
X1218213Y1028195D01*
X1215922Y1016675D01*
Y883325D01*
X1218213Y871805D01*
X1224739Y862039D01*
X1234505Y855513D01*
X1246025Y853222D01*
X1353975D01*
X1365495Y855513D01*
X1375261Y862039D01*
X1381787Y871805D01*
X1384078Y883325D01*
Y1016675D01*
X1381787Y1028195D01*
X1375261Y1037961D01*
X1365495Y1044487D01*
X1353975Y1046778D01*
X1340783D01*
Y1199999D01*
X1340784Y1200000D01*
X1337679Y1215607D01*
X1328838Y1228839D01*
X1290784Y1266893D01*
Y1505931D01*
X1300866Y1516013D01*
X1310000Y1538065D01*
Y1552323D01*
X1311991Y1554314D01*
X1351155D01*
X1357943Y1541614D01*
X1356690Y1539739D01*
X1354430Y1528375D01*
Y1507892D01*
X1330000D01*
X1322196Y1506340D01*
X1315581Y1501919D01*
X1311160Y1495304D01*
X1309608Y1487500D01*
Y1462500D01*
X1311160Y1454696D01*
X1314298Y1450000D01*
X1311160Y1445303D01*
X1309608Y1437500D01*
Y1412500D01*
X1311160Y1404696D01*
X1315581Y1398081D01*
X1322196Y1393660D01*
X1330000Y1392108D01*
X1354430D01*
Y1371625D01*
X1356690Y1360261D01*
X1363127Y1350627D01*
X1369568Y1346323D01*
X1369335Y1345974D01*
X1367549Y1337000D01*
Y1313449D01*
X1366863Y1310000D01*
X1367549Y1306551D01*
Y1283000D01*
X1369335Y1274026D01*
X1374418Y1266418D01*
X1382026Y1261335D01*
X1391000Y1259549D01*
X1409000D01*
X1417974Y1261335D01*
X1425000Y1266029D01*
X1432026Y1261335D01*
X1441000Y1259549D01*
X1459000D01*
X1466863Y1253096D01*
Y863726D01*
X1396062Y792924D01*
X1382282Y797105D01*
X1381787Y799595D01*
X1375261Y809361D01*
X1365495Y815887D01*
X1353975Y818178D01*
X1246025D01*
X1234505Y815887D01*
X1224739Y809361D01*
X1218213Y799595D01*
X1215922Y788075D01*
Y780026D01*
X1113184D01*
X1008566Y884644D01*
Y894590D01*
X1006718Y903880D01*
X1001456Y911756D01*
X993580Y917018D01*
X984290Y918866D01*
X950301D01*
X950000Y918926D01*
X949699Y918866D01*
X915710D01*
X906420Y917018D01*
X898544Y911756D01*
X893281Y903880D01*
X891434Y894590D01*
Y860601D01*
X891374Y860300D01*
X891434Y859999D01*
Y826010D01*
X893281Y816720D01*
X898544Y808844D01*
X906420Y803582D01*
X915710Y801734D01*
X925656D01*
X1047445Y679945D01*
X1066465Y667236D01*
X1088900Y662773D01*
X1215922D01*
Y654725D01*
X1218213Y643205D01*
X1224739Y633439D01*
X1234505Y626913D01*
X1246025Y624622D01*
X1353975D01*
X1365495Y626913D01*
X1375261Y633439D01*
X1381787Y643205D01*
X1384078Y654725D01*
Y703218D01*
X1386355D01*
X1399036Y705741D01*
X1409786Y712924D01*
X1523431Y826569D01*
X1530614Y837319D01*
X1533137Y850000D01*
Y1069770D01*
X1538518Y1072937D01*
X1545837Y1074397D01*
X1556147Y1064087D01*
X1570968Y1055530D01*
X1571058Y1055506D01*
Y1116100D01*
X1621057D01*
Y1055506D01*
X1621147Y1055530D01*
X1635968Y1064087D01*
X1648070Y1076189D01*
X1654163Y1086743D01*
X1666863Y1083340D01*
Y1046778D01*
X1646025D01*
X1634505Y1044487D01*
X1624739Y1037961D01*
X1618213Y1028195D01*
X1615922Y1016675D01*
Y883325D01*
X1618213Y871805D01*
X1624739Y862039D01*
X1634505Y855513D01*
X1646025Y853222D01*
X1753975D01*
X1765495Y855513D01*
X1775261Y862039D01*
X1781787Y871805D01*
X1784078Y883325D01*
Y891373D01*
X1989847D01*
X1991213Y884505D01*
X1997739Y874739D01*
X2007505Y868213D01*
X2019025Y865922D01*
X2152375D01*
X2163895Y868213D01*
X2173661Y874739D01*
X2180187Y884505D01*
X2182478Y896025D01*
Y1003975D01*
X2180187Y1015495D01*
X2173661Y1025261D01*
X2163895Y1031787D01*
X2152375Y1034078D01*
X2019025D01*
X2007505Y1031787D01*
X1997739Y1025261D01*
X1991213Y1015495D01*
X1989847Y1008626D01*
X1784078D01*
Y1016675D01*
X1781787Y1028195D01*
X1775261Y1037961D01*
X1765495Y1044487D01*
X1753975Y1046778D01*
X1733136D01*
Y1210000D01*
X1730614Y1222681D01*
X1723431Y1233431D01*
X1640931Y1315931D01*
X1632451Y1321598D01*
Y1337000D01*
X1630666Y1345974D01*
X1630432Y1346323D01*
X1636873Y1350627D01*
X1643310Y1360261D01*
X1645570Y1371625D01*
Y1392108D01*
X1670000D01*
X1677804Y1393660D01*
X1684419Y1398081D01*
X1688840Y1404696D01*
X1690392Y1412500D01*
Y1437500D01*
X1688840Y1445303D01*
X1685702Y1450000D01*
X1688840Y1454696D01*
X1690392Y1462500D01*
Y1487500D01*
X1688840Y1495304D01*
X1684419Y1501919D01*
X1677804Y1506340D01*
X1670000Y1507892D01*
X1645570D01*
Y1528375D01*
X1643310Y1539739D01*
X1642057Y1541614D01*
X1648846Y1554314D01*
X1949373D01*
Y1537000D01*
X1951857Y1524514D01*
X1958930Y1513929D01*
X1969514Y1506857D01*
X1982000Y1504373D01*
X2089988D01*
X2092500Y1503874D01*
X2113216D01*
X2255673Y1361416D01*
Y1034078D01*
X2247625D01*
X2236105Y1031787D01*
X2226339Y1025261D01*
X2219813Y1015495D01*
X2217522Y1003975D01*
Y896025D01*
X2219813Y884505D01*
X2226339Y874739D01*
X2236105Y868213D01*
X2247625Y865922D01*
X2380975D01*
X2392495Y868213D01*
X2402261Y874739D01*
X2408787Y884505D01*
X2411078Y896025D01*
Y1003975D01*
X2408787Y1015495D01*
X2402261Y1025261D01*
X2392495Y1031787D01*
X2380975Y1034078D01*
X2372926D01*
Y1385700D01*
X2368464Y1408135D01*
X2355755Y1427155D01*
X2178955Y1603955D01*
X2159935Y1616664D01*
X2150627Y1618515D01*
Y1763000D01*
X2148143Y1775486D01*
X2141070Y1786071D01*
X2130485Y1793143D01*
X2118000Y1795627D01*
X2108626D01*
Y2341373D01*
X2499373D01*
Y2287000D01*
X2501857Y2274514D01*
X2508929Y2263929D01*
X2519514Y2256857D01*
X2532000Y2254373D01*
X2668000D01*
X2680485Y2256857D01*
X2691070Y2263929D01*
X2698143Y2274514D01*
X2700627Y2287000D01*
Y2513000D01*
X2698143Y2525485D01*
X2691070Y2536070D01*
X2680485Y2543143D01*
X2668000Y2545627D01*
X2532000D01*
X2519514Y2543143D01*
X2508929Y2536070D01*
X2501857Y2525485D01*
X2499373Y2513000D01*
Y2458626D01*
X2128500D01*
Y2612500D01*
D02*
G37*
G36*
X1776811D02*
X1747189D01*
X1718577Y2604833D01*
X1692923Y2590023D01*
X1671978Y2569077D01*
X1657167Y2543423D01*
X1649500Y2514811D01*
Y2485189D01*
X1657167Y2456577D01*
X1671978Y2430924D01*
X1692923Y2409978D01*
X1718577Y2395167D01*
X1721217Y2394460D01*
Y2286893D01*
X1684907Y2250584D01*
X1337693D01*
X1294784Y2293493D01*
Y2394460D01*
X1297423Y2395167D01*
X1323077Y2409978D01*
X1344022Y2430924D01*
X1358833Y2456577D01*
X1366500Y2485189D01*
Y2514811D01*
X1358833Y2543423D01*
X1344022Y2569077D01*
X1323077Y2590023D01*
X1297423Y2604833D01*
X1268811Y2612500D01*
X1239189D01*
X1210577Y2604833D01*
X1184923Y2590023D01*
X1163978Y2569077D01*
X1149167Y2543423D01*
X1141500Y2514811D01*
Y2485189D01*
X1149167Y2456577D01*
X1163978Y2430924D01*
X1184923Y2409978D01*
X1210577Y2395167D01*
X1213217Y2394460D01*
Y2276601D01*
X1213216Y2276600D01*
X1216321Y2260993D01*
X1225162Y2247762D01*
X1291961Y2180962D01*
X1291962Y2180962D01*
X1305193Y2172121D01*
X1320800Y2169016D01*
X1320801Y2169016D01*
X1701799D01*
X1701800Y2169016D01*
X1717407Y2172121D01*
X1730638Y2180962D01*
X1790838Y2241162D01*
X1799679Y2254393D01*
X1802784Y2270000D01*
X1802784Y2270001D01*
Y2394460D01*
X1805423Y2395167D01*
X1831077Y2409978D01*
X1852022Y2430924D01*
X1866833Y2456577D01*
X1874500Y2485189D01*
Y2514811D01*
X1866833Y2543423D01*
X1852022Y2569077D01*
X1831077Y2590023D01*
X1805423Y2604833D01*
X1776811Y2612500D01*
D02*
G37*
G36*
X2668000Y2200725D02*
X2625000D01*
Y2075000D01*
X2705725D01*
Y2163000D01*
X2702853Y2177437D01*
X2694675Y2189676D01*
X2682436Y2197853D01*
X2668000Y2200725D01*
D02*
G37*
G36*
X2575000D02*
X2532000D01*
X2517563Y2197853D01*
X2505324Y2189676D01*
X2497147Y2177437D01*
X2494275Y2163000D01*
Y2075000D01*
X2575000D01*
Y2200725D01*
D02*
G37*
G36*
X2788400Y2814482D02*
X1625600D01*
X1608042Y2810989D01*
X1593157Y2801043D01*
X1475557Y2683443D01*
X1465611Y2668558D01*
X1462118Y2651000D01*
Y2603414D01*
X1438923Y2590023D01*
X1417978Y2569077D01*
X1403167Y2543423D01*
X1395500Y2514811D01*
Y2485189D01*
X1403167Y2456577D01*
X1417978Y2430924D01*
X1438923Y2409978D01*
X1464577Y2395167D01*
X1493189Y2387500D01*
X1522811D01*
X1551423Y2395167D01*
X1577077Y2409978D01*
X1598022Y2430924D01*
X1612833Y2456577D01*
X1620500Y2485189D01*
Y2514811D01*
X1612833Y2543423D01*
X1598022Y2569077D01*
X1577077Y2590023D01*
X1553882Y2603414D01*
Y2631995D01*
X1644605Y2722718D01*
X2769395D01*
X2893557Y2598557D01*
X2908442Y2588611D01*
X2922500Y2585815D01*
Y2324000D01*
X3011118D01*
Y2175400D01*
X3014611Y2157842D01*
X3024557Y2142957D01*
X3191200Y1976314D01*
Y1969265D01*
X3200334Y1947213D01*
X3217213Y1930334D01*
X3239265Y1921200D01*
X3263135D01*
X3285187Y1930334D01*
X3302066Y1947213D01*
X3311200Y1969265D01*
Y1993135D01*
X3302066Y2015187D01*
X3285187Y2032066D01*
X3263135Y2041200D01*
X3256086D01*
X3102882Y2194405D01*
Y2324000D01*
X3191500D01*
Y2676000D01*
X2971932D01*
X2967500Y2676882D01*
X2945005D01*
X2820843Y2801043D01*
X2805958Y2810989D01*
X2788400Y2814482D01*
D02*
G37*
G36*
X2705725Y2025000D02*
X2625000D01*
Y1899275D01*
X2668000D01*
X2682436Y1902147D01*
X2694675Y1910324D01*
X2702853Y1922563D01*
X2705725Y1937000D01*
Y2025000D01*
D02*
G37*
G36*
X2575000D02*
X2494275D01*
Y1937000D01*
X2497147Y1922563D01*
X2505324Y1910324D01*
X2517563Y1902147D01*
X2532000Y1899275D01*
X2575000D01*
Y2025000D01*
D02*
G37*
G36*
X7182500Y2132500D02*
X6817500D01*
Y1807500D01*
X7182500D01*
Y2132500D01*
D02*
G37*
G36*
X1218800Y1825894D02*
Y1790300D01*
X1254394D01*
X1254370Y1790389D01*
X1245813Y1805211D01*
X1233711Y1817313D01*
X1218889Y1825870D01*
X1218800Y1825894D01*
D02*
G37*
G36*
X1168800D02*
X1168711Y1825870D01*
X1153889Y1817313D01*
X1141787Y1805211D01*
X1133230Y1790389D01*
X1133206Y1790300D01*
X1168800D01*
Y1825894D01*
D02*
G37*
G36*
X3877500Y2676000D02*
X3608500D01*
Y2324000D01*
X3759217D01*
Y1877500D01*
X3624000D01*
Y1783784D01*
X3443001D01*
X3443000Y1783784D01*
X3427393Y1780679D01*
X3414162Y1771838D01*
X3352323Y1710000D01*
X3338065D01*
X3316013Y1700866D01*
X3299134Y1683987D01*
X3290000Y1661935D01*
Y1638065D01*
X3299134Y1616013D01*
X3316013Y1599134D01*
X3338065Y1590000D01*
X3361935D01*
X3383987Y1599134D01*
X3400865Y1616013D01*
X3410000Y1638065D01*
Y1652323D01*
X3459893Y1702217D01*
X3624000D01*
Y1608500D01*
X3976000D01*
Y1877500D01*
X3840784D01*
Y2324000D01*
X3877500D01*
Y2676000D01*
D02*
G37*
G36*
X1254394Y1740300D02*
X1218800D01*
Y1704706D01*
X1218889Y1704730D01*
X1233711Y1713287D01*
X1245813Y1725389D01*
X1254370Y1740211D01*
X1254394Y1740300D01*
D02*
G37*
G36*
X1168800D02*
X1133206D01*
X1133230Y1740211D01*
X1141787Y1725389D01*
X1153889Y1713287D01*
X1168711Y1704730D01*
X1168800Y1704706D01*
Y1740300D01*
D02*
G37*
G36*
X968000Y1600725D02*
X925000D01*
Y1475000D01*
X1005725D01*
Y1563000D01*
X1002853Y1577437D01*
X994675Y1589676D01*
X982436Y1597853D01*
X968000Y1600725D01*
D02*
G37*
G36*
X875000D02*
X832000D01*
X817564Y1597853D01*
X805325Y1589676D01*
X797147Y1577437D01*
X794275Y1563000D01*
Y1475000D01*
X875000D01*
Y1600725D01*
D02*
G37*
G36*
X1803000Y1482994D02*
Y1447400D01*
X1838594D01*
X1838570Y1447489D01*
X1830013Y1462311D01*
X1817911Y1474413D01*
X1803089Y1482970D01*
X1803000Y1482994D01*
D02*
G37*
G36*
X1753000D02*
X1752911Y1482970D01*
X1738089Y1474413D01*
X1725987Y1462311D01*
X1717430Y1447489D01*
X1717406Y1447400D01*
X1753000D01*
Y1482994D01*
D02*
G37*
G36*
X1129900Y1457594D02*
Y1422000D01*
X1165494D01*
X1165470Y1422089D01*
X1156913Y1436911D01*
X1144811Y1449013D01*
X1129989Y1457570D01*
X1129900Y1457594D01*
D02*
G37*
G36*
X1079900D02*
X1079811Y1457570D01*
X1064989Y1449013D01*
X1052887Y1436911D01*
X1044330Y1422089D01*
X1044306Y1422000D01*
X1079900D01*
Y1457594D01*
D02*
G37*
G36*
X1838594Y1397400D02*
X1803000D01*
Y1361806D01*
X1803089Y1361830D01*
X1817911Y1370387D01*
X1830013Y1382489D01*
X1838570Y1397311D01*
X1838594Y1397400D01*
D02*
G37*
G36*
X1753000D02*
X1717406D01*
X1717430Y1397311D01*
X1725987Y1382489D01*
X1738089Y1370387D01*
X1752911Y1361830D01*
X1753000Y1361806D01*
Y1397400D01*
D02*
G37*
G36*
X7020000Y1663286D02*
X6980000D01*
X6948144Y1660149D01*
X6917513Y1650857D01*
X6889283Y1635768D01*
X6864539Y1615461D01*
X6844232Y1590717D01*
X6829143Y1562487D01*
X6824106Y1545882D01*
X6630800D01*
X6613242Y1542389D01*
X6598357Y1532443D01*
X5873795Y807882D01*
X3067005D01*
X3005271Y869615D01*
Y880375D01*
X3007186Y890000D01*
Y920000D01*
X3004469Y933656D01*
X2996734Y945233D01*
X3001234Y957501D01*
X3009179Y969393D01*
X3010294Y975000D01*
X2840706D01*
X2841821Y969393D01*
X2849767Y957501D01*
X2854267Y945233D01*
X2846531Y933656D01*
X2843814Y920000D01*
Y890000D01*
X2846531Y876344D01*
X2854267Y864766D01*
X2865844Y857031D01*
X2879500Y854314D01*
X2879619D01*
Y560000D01*
X2805000D01*
Y240000D01*
X3145000D01*
Y560000D01*
X2971382D01*
Y757138D01*
X2983115Y761999D01*
X3015557Y729557D01*
X3030442Y719611D01*
X3048000Y716118D01*
X5892800D01*
X5910358Y719611D01*
X5925243Y729557D01*
X6649805Y1454119D01*
X6824106D01*
X6829143Y1437513D01*
X6844232Y1409283D01*
X6864539Y1384539D01*
X6889283Y1364232D01*
X6917513Y1349143D01*
X6948144Y1339851D01*
X6980000Y1336714D01*
X7020000D01*
X7051856Y1339851D01*
X7082487Y1349143D01*
X7110717Y1364232D01*
X7135461Y1384539D01*
X7155768Y1409283D01*
X7170857Y1437513D01*
X7180149Y1468144D01*
X7183286Y1500000D01*
X7180149Y1531856D01*
X7170857Y1562487D01*
X7155768Y1590717D01*
X7135461Y1615461D01*
X7110717Y1635768D01*
X7082487Y1650857D01*
X7051856Y1660149D01*
X7020000Y1663286D01*
D02*
G37*
G36*
X1165494Y1372000D02*
X1129900D01*
Y1336406D01*
X1129989Y1336430D01*
X1144811Y1344987D01*
X1156913Y1357089D01*
X1165470Y1371911D01*
X1165494Y1372000D01*
D02*
G37*
G36*
X1079900D02*
X1044306D01*
X1044330Y1371911D01*
X1052887Y1357089D01*
X1064989Y1344987D01*
X1079811Y1336430D01*
X1079900Y1336406D01*
Y1372000D01*
D02*
G37*
G36*
X2118000Y1450725D02*
X2075000D01*
Y1325000D01*
X2155725D01*
Y1413000D01*
X2152853Y1427437D01*
X2144675Y1439676D01*
X2132436Y1447853D01*
X2118000Y1450725D01*
D02*
G37*
G36*
X2025000D02*
X1982000D01*
X1967564Y1447853D01*
X1955325Y1439676D01*
X1947147Y1427437D01*
X1944275Y1413000D01*
Y1325000D01*
X2025000D01*
Y1450725D01*
D02*
G37*
G36*
X2668000Y1450725D02*
X2625000D01*
Y1325000D01*
X2705725D01*
Y1413000D01*
X2702853Y1427437D01*
X2694675Y1439676D01*
X2682436Y1447853D01*
X2668000Y1450725D01*
D02*
G37*
G36*
X2575000D02*
X2532000D01*
X2517563Y1447853D01*
X2505324Y1439676D01*
X2497147Y1427437D01*
X2494275Y1413000D01*
Y1325000D01*
X2575000D01*
Y1450725D01*
D02*
G37*
G36*
X1005725Y1425000D02*
X925000D01*
Y1299275D01*
X968000D01*
X982436Y1302147D01*
X994675Y1310324D01*
X1002853Y1322563D01*
X1005725Y1337000D01*
Y1425000D01*
D02*
G37*
G36*
X875000D02*
X794275D01*
Y1337000D01*
X797147Y1322563D01*
X805325Y1310324D01*
X817564Y1302147D01*
X832000Y1299275D01*
X875000D01*
Y1425000D01*
D02*
G37*
G36*
X2155725Y1275000D02*
X2075000D01*
Y1149275D01*
X2118000D01*
X2132436Y1152147D01*
X2144675Y1160325D01*
X2152853Y1172564D01*
X2155725Y1187000D01*
Y1275000D01*
D02*
G37*
G36*
X2025000D02*
X1944275D01*
Y1187000D01*
X1947147Y1172564D01*
X1955325Y1160325D01*
X1967564Y1152147D01*
X1982000Y1149275D01*
X2025000D01*
Y1275000D01*
D02*
G37*
G36*
X2705725Y1275000D02*
X2625000D01*
Y1149275D01*
X2668000D01*
X2682436Y1152147D01*
X2694675Y1160324D01*
X2702853Y1172563D01*
X2705725Y1187000D01*
Y1275000D01*
D02*
G37*
G36*
X2575000D02*
X2494275D01*
Y1187000D01*
X2497147Y1172563D01*
X2505324Y1160324D01*
X2517563Y1152147D01*
X2532000Y1149275D01*
X2575000D01*
Y1275000D01*
D02*
G37*
G36*
X984290Y1063664D02*
X975000D01*
Y1025000D01*
X1013664D01*
Y1034290D01*
X1011428Y1045531D01*
X1005061Y1055061D01*
X995531Y1061428D01*
X984290Y1063664D01*
D02*
G37*
G36*
X925000D02*
X915710D01*
X904469Y1061428D01*
X894939Y1055061D01*
X888572Y1045531D01*
X886336Y1034290D01*
Y1025000D01*
X925000D01*
Y1063664D01*
D02*
G37*
G36*
X1013664Y975000D02*
X975000D01*
Y936336D01*
X984290D01*
X995531Y938572D01*
X1005061Y944939D01*
X1011428Y954469D01*
X1013664Y965710D01*
Y975000D01*
D02*
G37*
G36*
X925000D02*
X886336D01*
Y965710D01*
X888572Y954469D01*
X894939Y944939D01*
X904469Y938572D01*
X915710Y936336D01*
X925000D01*
Y975000D01*
D02*
G37*
G36*
X2297935Y2041200D02*
X2274065D01*
X2252013Y2032066D01*
X2235134Y2015187D01*
X2226000Y1993135D01*
Y1969265D01*
X2235134Y1947213D01*
X2252013Y1930334D01*
X2269042Y1923281D01*
X2469749Y1722574D01*
X2469750Y1722573D01*
X2482981Y1713732D01*
X2498588Y1710628D01*
X2499373Y1698508D01*
Y1537000D01*
X2501857Y1524514D01*
X2508929Y1513929D01*
X2519514Y1506857D01*
X2532000Y1504373D01*
X2668000D01*
X2680485Y1506857D01*
X2691070Y1513929D01*
X2698143Y1524514D01*
X2700627Y1537000D01*
Y1609216D01*
X2783107D01*
X2884717Y1507607D01*
Y1145686D01*
X2879500D01*
X2865844Y1142969D01*
X2854267Y1135234D01*
X2846531Y1123656D01*
X2843814Y1110000D01*
Y1080000D01*
X2846531Y1066344D01*
X2854267Y1054767D01*
X2849767Y1042499D01*
X2841821Y1030607D01*
X2840706Y1025000D01*
X3010294D01*
X3009179Y1030607D01*
X3001890Y1041517D01*
X3004574Y1049963D01*
X3007515Y1054217D01*
X3104089D01*
X3114844Y1047031D01*
X3128500Y1044314D01*
X3133716D01*
Y955686D01*
X3128500D01*
X3114844Y952969D01*
X3103266Y945234D01*
X3095531Y933656D01*
X3092814Y920000D01*
Y890000D01*
X3095531Y876344D01*
X3103266Y864766D01*
X3114844Y857031D01*
X3128500Y854314D01*
X3220500D01*
X3234156Y857031D01*
X3245733Y864766D01*
X3253469Y876344D01*
X3256186Y890000D01*
Y920000D01*
X3253469Y933656D01*
X3245733Y945234D01*
X3234156Y952969D01*
X3220500Y955686D01*
X3215283D01*
Y1044314D01*
X3220500D01*
X3234156Y1047031D01*
X3244910Y1054217D01*
X3624000D01*
Y922500D01*
X3976000D01*
Y1191500D01*
X3624000D01*
Y1135784D01*
X3244910D01*
X3234156Y1142969D01*
X3220500Y1145686D01*
X3128500D01*
X3114844Y1142969D01*
X3104089Y1135784D01*
X2995911D01*
X2985156Y1142969D01*
X2971500Y1145686D01*
X2966284D01*
Y1524500D01*
X2963179Y1540107D01*
X2954339Y1553338D01*
X2954338Y1553339D01*
X2828839Y1678838D01*
X2815608Y1687679D01*
X2800000Y1690784D01*
X2799999Y1690783D01*
X2700627D01*
Y1763000D01*
X2698143Y1775485D01*
X2691070Y1786070D01*
X2680485Y1793143D01*
X2668000Y1795627D01*
X2532000D01*
X2519514Y1793143D01*
X2518096Y1792195D01*
X2515481D01*
X2343777Y1963899D01*
X2346000Y1969265D01*
Y1993135D01*
X2336866Y2015187D01*
X2319987Y2032066D01*
X2297935Y2041200D01*
D02*
G37*
G36*
X7020000Y1193286D02*
X6980000D01*
X6948144Y1190149D01*
X6917513Y1180857D01*
X6889283Y1165768D01*
X6864539Y1145461D01*
X6844232Y1120717D01*
X6829143Y1092487D01*
X6819851Y1061856D01*
X6816714Y1030000D01*
X6819851Y998144D01*
X6829143Y967513D01*
X6844232Y939283D01*
X6864539Y914539D01*
X6889283Y894232D01*
X6917513Y879143D01*
X6948144Y869851D01*
X6980000Y866714D01*
X7020000D01*
X7051856Y869851D01*
X7082487Y879143D01*
X7110717Y894232D01*
X7135461Y914539D01*
X7155768Y939283D01*
X7170857Y967513D01*
X7180149Y998144D01*
X7183286Y1030000D01*
X7180149Y1061856D01*
X7170857Y1092487D01*
X7155768Y1120717D01*
X7135461Y1145461D01*
X7110717Y1165768D01*
X7082487Y1180857D01*
X7051856Y1190149D01*
X7020000Y1193286D01*
D02*
G37*
G36*
X1753975Y823276D02*
X1725000D01*
Y746400D01*
X1789176D01*
Y788075D01*
X1786497Y801546D01*
X1778866Y812966D01*
X1767446Y820597D01*
X1753975Y823276D01*
D02*
G37*
G36*
X1675000D02*
X1646025D01*
X1632554Y820597D01*
X1621134Y812966D01*
X1613503Y801546D01*
X1610824Y788075D01*
Y746400D01*
X1675000D01*
Y823276D01*
D02*
G37*
G36*
X1789176Y696400D02*
X1725000D01*
Y619524D01*
X1753975D01*
X1767446Y622203D01*
X1778866Y629834D01*
X1786497Y641254D01*
X1789176Y654725D01*
Y696400D01*
D02*
G37*
G36*
X1675000D02*
X1610824D01*
Y654725D01*
X1613503Y641254D01*
X1621134Y629834D01*
X1632554Y622203D01*
X1646025Y619524D01*
X1675000D01*
Y696400D01*
D02*
G37*
G36*
X4879000Y580475D02*
Y475000D01*
X4984475D01*
X4977470Y501143D01*
X4960026Y531357D01*
X4935357Y556026D01*
X4905143Y573470D01*
X4879000Y580475D01*
D02*
G37*
G36*
X4829000D02*
X4802857Y573470D01*
X4772643Y556026D01*
X4747974Y531357D01*
X4730530Y501143D01*
X4723525Y475000D01*
X4829000D01*
Y580475D01*
D02*
G37*
G36*
X4473500Y577500D02*
X4218500D01*
Y445882D01*
X3795000D01*
Y560000D01*
X3455000D01*
Y240000D01*
X3795000D01*
Y354118D01*
X4218500D01*
Y322500D01*
X4473500D01*
Y577500D01*
D02*
G37*
G36*
X4984475Y425000D02*
X4879000D01*
Y319525D01*
X4905143Y326530D01*
X4935357Y343974D01*
X4960026Y368643D01*
X4977470Y398857D01*
X4984475Y425000D01*
D02*
G37*
G36*
X4829000D02*
X4723525D01*
X4730530Y398857D01*
X4747974Y368643D01*
X4772643Y343974D01*
X4802857Y326530D01*
X4829000Y319525D01*
Y425000D01*
D02*
G37*
G36*
X7171249Y620000D02*
X7128751D01*
X7086775Y613352D01*
X7046356Y600219D01*
X7008489Y580925D01*
X6974107Y555945D01*
X6944055Y525893D01*
X6919075Y491511D01*
X6899781Y453644D01*
X6886648Y413225D01*
X6880000Y371249D01*
Y328751D01*
X6886648Y286775D01*
X6899781Y246356D01*
X6919075Y208489D01*
X6944055Y174107D01*
X6974107Y144056D01*
X7008489Y119075D01*
X7046356Y99781D01*
X7086775Y86648D01*
X7128751Y80000D01*
X7171249D01*
X7213225Y86648D01*
X7253644Y99781D01*
X7291511Y119075D01*
X7325893Y144056D01*
X7355944Y174107D01*
X7380925Y208489D01*
X7400219Y246356D01*
X7413352Y286775D01*
X7420000Y328751D01*
Y371249D01*
X7413352Y413225D01*
X7400219Y453644D01*
X7380925Y491511D01*
X7355944Y525893D01*
X7325893Y555945D01*
X7291511Y580925D01*
X7253644Y600219D01*
X7213225Y613352D01*
X7171249Y620000D01*
D02*
G37*
%LPD*%
G36*
X1620000Y1487500D02*
X1670000D01*
Y1462500D01*
X1620000D01*
Y1437500D01*
X1670000D01*
Y1412500D01*
X1620000D01*
Y1367500D01*
X1380000D01*
Y1412500D01*
X1330000D01*
Y1437500D01*
X1380000D01*
Y1462500D01*
X1330000D01*
Y1487500D01*
X1380000D01*
Y1532500D01*
X1620000D01*
Y1487500D01*
D02*
G37*
D10*
X3800000Y1057000D02*
D03*
Y1743000D02*
D03*
D11*
X3057000Y2500000D02*
D03*
X3743000D02*
D03*
D12*
X2600000Y2400000D02*
D03*
Y2050000D02*
D03*
Y1650000D02*
D03*
Y1300000D02*
D03*
X2050000Y1300000D02*
D03*
Y1650000D02*
D03*
X900000Y1800000D02*
D03*
Y1450000D02*
D03*
D13*
X1600000Y1590000D02*
D03*
X1550000D02*
D03*
X1500000D02*
D03*
X1450000D02*
D03*
X1400000D02*
D03*
Y1310000D02*
D03*
X1450000D02*
D03*
X1500000D02*
D03*
X1550000D02*
D03*
X1600000D02*
D03*
D14*
X1500000Y1450000D02*
D03*
D15*
X3174500Y1095000D02*
D03*
Y905000D02*
D03*
X2925500D02*
D03*
Y1000000D02*
D03*
Y1095000D02*
D03*
D16*
X2314300Y950000D02*
D03*
X2085700D02*
D03*
D17*
X2975000Y400000D02*
D03*
X3625000D02*
D03*
D18*
X1600000Y1950000D02*
D03*
X1380000D02*
D03*
D19*
X1300000Y950000D02*
D03*
Y721400D02*
D03*
X1700000D02*
D03*
Y950000D02*
D03*
D20*
X950000Y860300D02*
D03*
Y1000000D02*
D03*
D21*
X2925500Y1095000D02*
X3174500D01*
X1701800Y2209800D02*
X1762000Y2270000D01*
Y2500000D01*
X1320800Y2209800D02*
X1701800D01*
X1254000Y2276600D02*
X1320800Y2209800D01*
X1254000Y2276600D02*
Y2500000D01*
X2286000Y1964000D02*
X2498588Y1751412D01*
X2286000Y1964000D02*
Y1981200D01*
X2498588Y1751412D02*
X2540000D01*
X2600000Y1691411D01*
Y1650000D02*
Y1691411D01*
X3743000Y2500000D02*
X3800000Y2443000D01*
Y1743000D02*
Y2443000D01*
X3174500Y905000D02*
Y1095000D01*
X3762000D01*
X3800000Y1057000D01*
X2600000Y1650000D02*
X2800000D01*
X2925500Y1524500D01*
Y1095000D02*
Y1524500D01*
X3443000Y1743000D02*
X3800000D01*
X3350000Y1650000D02*
X3443000Y1743000D01*
X900000Y1767500D02*
X1117500Y1550000D01*
X1250000D01*
Y1250000D02*
Y1550000D01*
X1290000Y1590000D01*
X1250000Y1250000D02*
X1300000Y1200000D01*
Y950000D02*
Y1200000D01*
D22*
X1508000Y2651000D02*
X1625600Y2768600D01*
X1508000Y2500000D02*
Y2651000D01*
X1625600Y2768600D02*
X2788400D01*
X2926000Y2631000D01*
X3057000Y2500000D02*
Y2541500D01*
X2967500Y2631000D02*
X3057000Y2541500D01*
X2926000Y2631000D02*
X2967500D01*
X3057000Y2175400D02*
Y2500000D01*
Y2175400D02*
X3251200Y1981200D01*
X2954390Y905000D02*
X2959390Y900000D01*
Y850610D02*
Y900000D01*
Y850610D02*
X3048000Y762000D01*
X2925500Y905000D02*
X2954390D01*
X3048000Y762000D02*
X5892800D01*
X6630800Y1500000D01*
X7000000D01*
X4296000Y400000D02*
X4346000Y450000D01*
X3625000Y400000D02*
X4296000D01*
X2925500Y449500D02*
Y905000D01*
Y449500D02*
X2975000Y400000D01*
D23*
X1500000Y1507500D02*
Y1590000D01*
X1550000Y1310000D02*
Y1400000D01*
X1500000Y1450000D02*
X1550000Y1400000D01*
Y1162158D02*
X1596058Y1116100D01*
X1550000Y1162158D02*
Y1310000D01*
X1500000Y850000D02*
Y1310000D01*
X1450000D02*
X1500000D01*
X1400000D02*
X1450000D01*
X1386355Y736355D02*
X1500000Y850000D01*
X1300000Y721400D02*
X1314955Y736355D01*
X1386355D01*
X1600500Y1292500D02*
X1617500D01*
X1700000Y1210000D01*
Y950000D02*
Y1210000D01*
X1600000Y1293000D02*
Y1310000D01*
Y1293000D02*
X1600500Y1292500D01*
X900000Y1767500D02*
Y1800000D01*
X1600000Y1750000D02*
Y1950000D01*
X1550000Y1700000D02*
X1600000Y1750000D01*
X1550000Y1590000D02*
Y1700000D01*
X1380000Y1770000D02*
Y1950000D01*
X1450000Y1590000D02*
Y1700000D01*
X1380000Y1770000D02*
X1450000Y1700000D01*
D24*
X2050000Y1650000D02*
Y2450000D01*
X2000000Y2500000D02*
X2050000Y2450000D01*
X2100000Y2400000D02*
X2600000D01*
X950000Y860300D02*
X1088900Y721400D01*
X1300000D01*
X1700000Y950000D02*
X2085700D01*
X2092500Y1562500D02*
X2137500D01*
X2050000Y1605000D02*
Y1650000D01*
X2314300Y950000D02*
Y1385700D01*
X2137500Y1562500D02*
X2314300Y1385700D01*
X2050000Y1605000D02*
X2092500Y1562500D01*
D25*
X1990000Y1590000D02*
X2050000Y1650000D01*
X1290000Y1590000D02*
X1400000D01*
X1600000D02*
X1990000D01*
D26*
X7000000Y1970000D02*
D03*
D27*
Y1500000D02*
D03*
Y1030000D02*
D03*
D28*
X1405000Y1450000D02*
D03*
X1500000Y1507500D02*
D03*
Y1392500D02*
D03*
X1595000Y1450000D02*
D03*
D29*
X4346000Y450000D02*
D03*
D30*
X4854000D02*
D03*
D31*
X350000Y2650000D02*
D03*
X7150000Y350000D02*
D03*
Y2650000D02*
D03*
D32*
X1000000Y2500000D02*
D03*
X1762000D02*
D03*
X1508000D02*
D03*
X1254000D02*
D03*
D33*
X2016000D02*
D03*
D34*
X1193800Y1765300D02*
D03*
X1104900Y1397000D02*
D03*
X1778000Y1422400D02*
D03*
X1596058Y1116100D02*
D03*
X3251200Y1981200D02*
D03*
X2286000D02*
D03*
X3350000Y1650000D02*
D03*
X1250000Y1550000D02*
D03*
%TF.MD5,5c5dede05dba6a0e84e6547d470b24aa*%
M02*
