%TF.GenerationSoftware,Altium Limited,Altium Designer,24.0.1 (36)*%
G04 Layer_Color=16711935*
%FSLAX45Y45*%
%MOMM*%
%TF.SameCoordinates,B6A77970-8F51-4162-B198-D5255F9352F6*%
%TF.FilePolarity,Negative*%
%TF.FileFunction,Soldermask,Bot*%
%TF.Part,Single*%
G01*
G75*
%TA.AperFunction,ComponentPad*%
%ADD49R,3.45320X3.05320*%
%ADD50O,3.45320X3.05320*%
%ADD51R,2.35320X2.35320*%
%ADD52C,2.35320*%
%ADD53C,5.20320*%
%ADD54C,2.05320*%
%ADD55R,2.05320X2.05320*%
%TA.AperFunction,ViaPad*%
%ADD56C,1.00320*%
D49*
X7000000Y1970000D02*
D03*
D50*
Y1500000D02*
D03*
Y1030000D02*
D03*
D51*
X4346000Y450000D02*
D03*
D52*
X4854000D02*
D03*
D53*
X350000Y2650000D02*
D03*
X7150000Y350000D02*
D03*
Y2650000D02*
D03*
D54*
X1000000Y2500000D02*
D03*
X1762000D02*
D03*
X1508000D02*
D03*
X1254000D02*
D03*
D55*
X2016000D02*
D03*
D56*
X1193800Y1765300D02*
D03*
X1104900Y1397000D02*
D03*
X1778000Y1422400D02*
D03*
X1596058Y1116100D02*
D03*
X3251200Y1981200D02*
D03*
X2286000D02*
D03*
X3350000Y1650000D02*
D03*
X1250000Y1550000D02*
D03*
%TF.MD5,b499f172a383108b3df269c164f33c9e*%
M02*
