%TF.GenerationSoftware,Altium Limited,Altium Designer,24.0.1 (36)*%
G04 Layer_Color=8421504*
%FSLAX45Y45*%
%MOMM*%
%TF.SameCoordinates,B6A77970-8F51-4162-B198-D5255F9352F6*%
%TF.FilePolarity,Positive*%
%TF.FileFunction,Paste,Top*%
%TF.Part,Single*%
G01*
G75*
%TA.AperFunction,SMDPad,CuDef*%
%ADD10R,3.12000X2.29000*%
%ADD11R,2.29000X3.12000*%
G04:AMPARAMS|DCode=13|XSize=0.6mm|YSize=0.24mm|CornerRadius=0.03mm|HoleSize=0mm|Usage=FLASHONLY|Rotation=270.000|XOffset=0mm|YOffset=0mm|HoleType=Round|Shape=RoundedRectangle|*
%AMROUNDEDRECTD13*
21,1,0.60000,0.18000,0,0,270.0*
21,1,0.54000,0.24000,0,0,270.0*
1,1,0.06000,-0.09000,-0.27000*
1,1,0.06000,-0.09000,0.27000*
1,1,0.06000,0.09000,0.27000*
1,1,0.06000,0.09000,-0.27000*
%
%ADD13ROUNDEDRECTD13*%
G04:AMPARAMS|DCode=15|XSize=1.22mm|YSize=0.6mm|CornerRadius=0.15mm|HoleSize=0mm|Usage=FLASHONLY|Rotation=0.000|XOffset=0mm|YOffset=0mm|HoleType=Round|Shape=RoundedRectangle|*
%AMROUNDEDRECTD15*
21,1,1.22000,0.30000,0,0,0.0*
21,1,0.92000,0.60000,0,0,0.0*
1,1,0.30000,0.46000,-0.15000*
1,1,0.30000,-0.46000,-0.15000*
1,1,0.30000,-0.46000,0.15000*
1,1,0.30000,0.46000,0.15000*
%
%ADD15ROUNDEDRECTD15*%
%ADD17R,3.00000X2.80000*%
%ADD18R,0.80000X2.70000*%
G04:AMPARAMS|DCode=57|XSize=2.46mm|YSize=1.56mm|CornerRadius=0.1mm|HoleSize=0mm|Usage=FLASHONLY|Rotation=270.000|XOffset=0mm|YOffset=0mm|HoleType=Round|Shape=RoundedRectangle|*
%AMROUNDEDRECTD57*
21,1,2.46000,1.36000,0,0,270.0*
21,1,2.26000,1.56000,0,0,270.0*
1,1,0.20000,-0.68000,-1.13000*
1,1,0.20000,-0.68000,1.13000*
1,1,0.20000,0.68000,1.13000*
1,1,0.20000,0.68000,-1.13000*
%
%ADD57ROUNDEDRECTD57*%
G04:AMPARAMS|DCode=58|XSize=1.484mm|YSize=1.23mm|CornerRadius=0.07525mm|HoleSize=0mm|Usage=FLASHONLY|Rotation=0.000|XOffset=0mm|YOffset=0mm|HoleType=Round|Shape=RoundedRectangle|*
%AMROUNDEDRECTD58*
21,1,1.48400,1.07950,0,0,0.0*
21,1,1.33350,1.23000,0,0,0.0*
1,1,0.15050,0.66675,-0.53975*
1,1,0.15050,-0.66675,-0.53975*
1,1,0.15050,-0.66675,0.53975*
1,1,0.15050,0.66675,0.53975*
%
%ADD58ROUNDEDRECTD58*%
G04:AMPARAMS|DCode=59|XSize=1.484mm|YSize=1.23mm|CornerRadius=0.07525mm|HoleSize=0mm|Usage=FLASHONLY|Rotation=90.000|XOffset=0mm|YOffset=0mm|HoleType=Round|Shape=RoundedRectangle|*
%AMROUNDEDRECTD59*
21,1,1.48400,1.07950,0,0,90.0*
21,1,1.33350,1.23000,0,0,90.0*
1,1,0.15050,0.53975,0.66675*
1,1,0.15050,0.53975,-0.66675*
1,1,0.15050,-0.53975,-0.66675*
1,1,0.15050,-0.53975,0.66675*
%
%ADD59ROUNDEDRECTD59*%
G04:AMPARAMS|DCode=60|XSize=0.722mm|YSize=0.722mm|CornerRadius=0.0181mm|HoleSize=0mm|Usage=FLASHONLY|Rotation=90.000|XOffset=0mm|YOffset=0mm|HoleType=Round|Shape=RoundedRectangle|*
%AMROUNDEDRECTD60*
21,1,0.72200,0.68580,0,0,90.0*
21,1,0.68580,0.72200,0,0,90.0*
1,1,0.03620,0.34290,0.34290*
1,1,0.03620,0.34290,-0.34290*
1,1,0.03620,-0.34290,-0.34290*
1,1,0.03620,-0.34290,0.34290*
%
%ADD60ROUNDEDRECTD60*%
G36*
X1364000Y1462500D02*
X1330000D01*
Y1487500D01*
X1364000D01*
Y1462500D01*
D02*
G37*
G36*
Y1412500D02*
X1330000D01*
Y1437500D01*
X1364000D01*
Y1412500D01*
D02*
G37*
G36*
X1490000Y1375000D02*
X1384000D01*
Y1525000D01*
X1490000D01*
Y1375000D01*
D02*
G37*
G36*
X1670000Y1462500D02*
X1636000D01*
Y1487500D01*
X1670000D01*
Y1462500D01*
D02*
G37*
G36*
Y1412500D02*
X1636000D01*
Y1437500D01*
X1670000D01*
Y1412500D01*
D02*
G37*
G36*
X1616000Y1375000D02*
X1510000D01*
Y1525000D01*
X1616000D01*
Y1375000D01*
D02*
G37*
D10*
X3800000Y1057000D02*
D03*
Y1743000D02*
D03*
D11*
X3057000Y2500000D02*
D03*
X3743000D02*
D03*
D13*
X1600000Y1590000D02*
D03*
X1550000D02*
D03*
X1500000D02*
D03*
X1450000D02*
D03*
X1400000D02*
D03*
Y1310000D02*
D03*
X1450000D02*
D03*
X1500000D02*
D03*
X1550000D02*
D03*
X1600000D02*
D03*
D15*
X3174500Y1095000D02*
D03*
Y905000D02*
D03*
X2925500D02*
D03*
Y1000000D02*
D03*
Y1095000D02*
D03*
D17*
X2975000Y400000D02*
D03*
X3625000D02*
D03*
D18*
X1600000Y1950000D02*
D03*
X1380000D02*
D03*
D57*
X2600000Y2400000D02*
D03*
Y2050000D02*
D03*
Y1650000D02*
D03*
Y1300000D02*
D03*
X2050000Y1300000D02*
D03*
Y1650000D02*
D03*
X900000Y1800000D02*
D03*
Y1450000D02*
D03*
D58*
X2314300Y950000D02*
D03*
X2085700D02*
D03*
D59*
X1300000D02*
D03*
Y721400D02*
D03*
X1700000D02*
D03*
Y950000D02*
D03*
D60*
X950000Y860300D02*
D03*
Y1000000D02*
D03*
%TF.MD5,734429b623e35db4b2f6bb0fe4e7a19e*%
M02*
