%TF.GenerationSoftware,Altium Limited,Altium Designer,24.0.1 (36)*%
G04 Layer_Color=255*
%FSLAX45Y45*%
%MOMM*%
%TF.SameCoordinates,1548FFD4-C5F0-4C99-8D9D-CADF44B10A7D*%
%TF.FilePolarity,Positive*%
%TF.FileFunction,Pads,Bot*%
%TF.Part,Single*%
G01*
G75*
%TA.AperFunction,SMDPad,CuDef*%
G04:AMPARAMS|DCode=11|XSize=1.14mm|YSize=1.63mm|CornerRadius=0.1425mm|HoleSize=0mm|Usage=FLASHONLY|Rotation=0.000|XOffset=0mm|YOffset=0mm|HoleType=Round|Shape=RoundedRectangle|*
%AMROUNDEDRECTD11*
21,1,1.14000,1.34500,0,0,0.0*
21,1,0.85500,1.63000,0,0,0.0*
1,1,0.28500,0.42750,-0.67250*
1,1,0.28500,-0.42750,-0.67250*
1,1,0.28500,-0.42750,0.67250*
1,1,0.28500,0.42750,0.67250*
%
%ADD11ROUNDEDRECTD11*%
%TA.AperFunction,ComponentPad*%
%ADD28C,1.75001*%
%ADD29R,1.75001X1.75001*%
%ADD30O,3.10000X1.55000*%
%ADD31C,5.00000*%
%ADD32C,1.85000*%
%ADD33R,1.85000X1.85000*%
%ADD34C,2.15000*%
%ADD35R,2.15000X2.15000*%
%ADD36C,3.00000*%
%ADD37C,1.52400*%
%ADD38C,1.95000*%
%ADD39O,2.15000X2.50000*%
%ADD40R,2.05000X2.05000*%
%ADD41C,2.05000*%
%ADD42C,1.85001*%
%ADD43C,2.60000*%
%ADD44R,2.60000X2.60000*%
D11*
X4872000Y1500000D02*
D03*
X5200000D02*
D03*
D28*
X2098000Y2950000D02*
D03*
X8477000Y3550000D02*
D03*
D29*
X2352000Y2950000D02*
D03*
X8223000Y3550000D02*
D03*
D30*
X2500000Y1010000D02*
D03*
X2760000Y1180000D02*
D03*
X2500000Y1350000D02*
D03*
X2760000Y1520000D02*
D03*
X2500000Y1690000D02*
D03*
D31*
X9650000Y350000D02*
D03*
X3350000Y2650000D02*
D03*
X5000000Y8950000D02*
D03*
X350000Y350000D02*
D03*
D32*
X9556000Y2750000D02*
D03*
X9302000D02*
D03*
X7778000D02*
D03*
X7524000D02*
D03*
X7270000D02*
D03*
X7016000D02*
D03*
X6254000D02*
D03*
X6508000D02*
D03*
X6762000D02*
D03*
X8032000D02*
D03*
X8286000D02*
D03*
X8540000D02*
D03*
X8794000D02*
D03*
X9048000D02*
D03*
D33*
X6000000D02*
D03*
D34*
X8400000Y8700000D02*
D03*
X8908000D02*
D03*
X6692000D02*
D03*
X7200000D02*
D03*
D35*
X9416000D02*
D03*
X7708000D02*
D03*
D36*
X6350800Y5534300D02*
D03*
Y6042300D02*
D03*
Y7058300D02*
D03*
Y7566300D02*
D03*
X5150800Y5534300D02*
D03*
Y6042300D02*
D03*
Y7058300D02*
D03*
Y7566300D02*
D03*
D37*
X500000Y8350000D02*
D03*
X4000000D02*
D03*
X1500000D02*
D03*
X3000000D02*
D03*
X500000Y4850000D02*
D03*
X4000000D02*
D03*
X3500000D02*
D03*
X1000000D02*
D03*
D38*
X9525000Y6477000D02*
D03*
Y5715000D02*
D03*
X8763000Y6096000D02*
D03*
X9525000Y4064000D02*
D03*
X8763000D02*
D03*
D39*
X5304000Y1931666D02*
D03*
X5050000Y1931700D02*
D03*
X4796000D02*
D03*
D40*
X1300000Y2442000D02*
D03*
X800000Y3458000D02*
D03*
X350000D02*
D03*
X1750000Y2442000D02*
D03*
D41*
X1300000Y3458000D02*
D03*
X800000Y2442000D02*
D03*
X350000D02*
D03*
X1750000Y3458000D02*
D03*
D42*
X1231000Y1529215D02*
D03*
X469000D02*
D03*
D43*
X1297714Y350000D02*
D03*
D44*
X2821714D02*
D03*
%TF.MD5,3cfef1ae67ba02e9a940d391c6e5acd4*%
M02*
