%TF.GenerationSoftware,Altium Limited,Altium Designer,24.0.1 (36)*%
G04 Layer_Color=16711935*
%FSLAX45Y45*%
%MOMM*%
%TF.SameCoordinates,1548FFD4-C5F0-4C99-8D9D-CADF44B10A7D*%
%TF.FilePolarity,Negative*%
%TF.FileFunction,Soldermask,Bot*%
%TF.Part,Single*%
G01*
G75*
%TA.AperFunction,SMDPad,CuDef*%
G04:AMPARAMS|DCode=52|XSize=1.3432mm|YSize=1.8332mm|CornerRadius=0.2441mm|HoleSize=0mm|Usage=FLASHONLY|Rotation=0.000|XOffset=0mm|YOffset=0mm|HoleType=Round|Shape=RoundedRectangle|*
%AMROUNDEDRECTD52*
21,1,1.34320,1.34500,0,0,0.0*
21,1,0.85500,1.83320,0,0,0.0*
1,1,0.48820,0.42750,-0.67250*
1,1,0.48820,-0.42750,-0.67250*
1,1,0.48820,-0.42750,0.67250*
1,1,0.48820,0.42750,0.67250*
%
%ADD52ROUNDEDRECTD52*%
%TA.AperFunction,ComponentPad*%
%ADD62C,1.95321*%
%ADD63R,1.95321X1.95321*%
%ADD64O,3.30320X1.75320*%
%ADD65C,5.20320*%
%ADD66C,2.05320*%
%ADD67R,2.05320X2.05320*%
%ADD68C,2.35320*%
%ADD69R,2.35320X2.35320*%
%ADD70C,3.20320*%
%ADD71C,0.20320*%
%ADD72C,1.72720*%
%ADD73C,2.15320*%
%ADD74O,2.35320X2.70320*%
%ADD75R,2.25320X2.25320*%
%ADD76C,2.25320*%
%ADD77C,2.05321*%
%ADD78C,2.80320*%
%ADD79R,2.80320X2.80320*%
%TA.AperFunction,ViaPad*%
%ADD80C,1.60320*%
D52*
X4872000Y1500000D02*
D03*
X5200000D02*
D03*
D62*
X2098000Y2950000D02*
D03*
X8477000Y3550000D02*
D03*
D63*
X2352000Y2950000D02*
D03*
X8223000Y3550000D02*
D03*
D64*
X2500000Y1010000D02*
D03*
X2760000Y1180000D02*
D03*
X2500000Y1350000D02*
D03*
X2760000Y1520000D02*
D03*
X2500000Y1690000D02*
D03*
D65*
X9650000Y350000D02*
D03*
X3350000Y2650000D02*
D03*
X5000000Y8950000D02*
D03*
X350000Y350000D02*
D03*
D66*
X9556000Y2750000D02*
D03*
X9302000D02*
D03*
X7778000D02*
D03*
X7524000D02*
D03*
X7270000D02*
D03*
X7016000D02*
D03*
X6254000D02*
D03*
X6508000D02*
D03*
X6762000D02*
D03*
X8032000D02*
D03*
X8286000D02*
D03*
X8540000D02*
D03*
X8794000D02*
D03*
X9048000D02*
D03*
D67*
X6000000D02*
D03*
D68*
X8400000Y8700000D02*
D03*
X8908000D02*
D03*
X6692000D02*
D03*
X7200000D02*
D03*
D69*
X9416000D02*
D03*
X7708000D02*
D03*
D70*
X6350800Y5534300D02*
D03*
Y6042300D02*
D03*
Y7058300D02*
D03*
Y7566300D02*
D03*
X5150800Y5534300D02*
D03*
Y6042300D02*
D03*
Y7058300D02*
D03*
Y7566300D02*
D03*
D71*
X4125000Y4225000D02*
D03*
X375000D02*
D03*
Y8975000D02*
D03*
X4125000D02*
D03*
X5050000Y450000D02*
D03*
D72*
X500000Y8350000D02*
D03*
X4000000D02*
D03*
X1500000D02*
D03*
X3000000D02*
D03*
X500000Y4850000D02*
D03*
X4000000D02*
D03*
X3500000D02*
D03*
X1000000D02*
D03*
D73*
X9525000Y6477000D02*
D03*
Y5715000D02*
D03*
X8763000Y6096000D02*
D03*
X9525000Y4064000D02*
D03*
X8763000D02*
D03*
D74*
X5304000Y1931666D02*
D03*
X5050000Y1931700D02*
D03*
X4796000D02*
D03*
D75*
X1300000Y2442000D02*
D03*
X800000Y3458000D02*
D03*
X350000D02*
D03*
X1750000Y2442000D02*
D03*
D76*
X1300000Y3458000D02*
D03*
X800000Y2442000D02*
D03*
X350000D02*
D03*
X1750000Y3458000D02*
D03*
D77*
X1231000Y1529215D02*
D03*
X469000D02*
D03*
D78*
X1297714Y350000D02*
D03*
D79*
X2821714D02*
D03*
D80*
X4625000Y275000D02*
D03*
Y475000D02*
D03*
Y675000D02*
D03*
X5475000D02*
D03*
Y475000D02*
D03*
Y275000D02*
D03*
X7321400Y3638900D02*
D03*
X8050000Y3750000D02*
D03*
X6950000Y4600000D02*
D03*
X8145550Y4805000D02*
D03*
%TF.MD5,58be869503e0da677ae150f30a61606d*%
M02*
