%TF.GenerationSoftware,Altium Limited,Altium Designer,24.0.1 (36)*%
G04 Layer_Color=32896*
%FSLAX45Y45*%
%MOMM*%
%TF.SameCoordinates,1548FFD4-C5F0-4C99-8D9D-CADF44B10A7D*%
%TF.FilePolarity,Positive*%
%TF.FileFunction,Legend,Bot*%
%TF.Part,Single*%
G01*
G75*
%TA.AperFunction,NonConductor*%
%ADD27C,0.25400*%
%ADD46C,0.20000*%
%ADD47C,0.12700*%
D27*
X147249Y8649599D02*
X299600D01*
X248817D01*
X147249Y8548032D01*
X223425Y8624208D01*
X299600Y8548032D01*
Y8497249D02*
X147249D01*
Y8421073D01*
X172641Y8395681D01*
X223425D01*
X248817Y8421073D01*
Y8497249D01*
Y8446465D02*
X299600Y8395681D01*
Y8344898D02*
X198033D01*
X147249Y8294114D01*
X198033Y8243331D01*
X299600D01*
X223425D01*
Y8344898D01*
X299600Y8192547D02*
X147249D01*
Y8116372D01*
X172641Y8090980D01*
X223425D01*
X248817Y8116372D01*
Y8192547D01*
Y8141764D02*
X299600Y8090980D01*
Y8040197D02*
X198033Y7938629D01*
X172641Y7786279D02*
X147249Y7811670D01*
Y7862454D01*
X172641Y7887846D01*
X198033D01*
X223425Y7862454D01*
Y7811670D01*
X248817Y7786279D01*
X274208D01*
X299600Y7811670D01*
Y7862454D01*
X274208Y7887846D01*
X172641Y7633928D02*
X147249Y7659320D01*
Y7710103D01*
X172641Y7735495D01*
X274208D01*
X299600Y7710103D01*
Y7659320D01*
X274208Y7633928D01*
X147249Y7583144D02*
X299600D01*
X223425D01*
Y7481577D01*
X147249D01*
X299600D01*
X147249Y7329226D02*
Y7430794D01*
X223425D01*
Y7380010D01*
Y7430794D01*
X299600D01*
X172641Y6719823D02*
X147249Y6745215D01*
Y6795999D01*
X172641Y6821391D01*
X198033D01*
X223425Y6795999D01*
Y6745215D01*
X248817Y6719823D01*
X274208D01*
X299600Y6745215D01*
Y6795999D01*
X274208Y6821391D01*
X198033Y6669040D02*
X274208D01*
X299600Y6643648D01*
X274208Y6618257D01*
X299600Y6592865D01*
X274208Y6567473D01*
X198033D01*
X299600Y6516689D02*
Y6465906D01*
Y6491297D01*
X198033D01*
Y6516689D01*
X172641Y6364339D02*
X198033D01*
Y6389730D01*
Y6338947D01*
Y6364339D01*
X274208D01*
X299600Y6338947D01*
X198033Y6161204D02*
Y6237380D01*
X223425Y6262772D01*
X274208D01*
X299600Y6237380D01*
Y6161204D01*
X147249Y6110421D02*
X299600D01*
X223425D01*
X198033Y6085029D01*
Y6034245D01*
X223425Y6008854D01*
X299600D01*
X223425Y5958070D02*
Y5856503D01*
X299600Y5805719D02*
X147249D01*
X198033Y5754936D01*
X147249Y5704152D01*
X299600D01*
Y5627977D02*
Y5577193D01*
X274208Y5551801D01*
X223425D01*
X198033Y5577193D01*
Y5627977D01*
X223425Y5653369D01*
X274208D01*
X299600Y5627977D01*
X147249Y5399451D02*
X299600D01*
Y5475626D01*
X274208Y5501018D01*
X223425D01*
X198033Y5475626D01*
Y5399451D01*
Y5348667D02*
X274208D01*
X299600Y5323275D01*
Y5247100D01*
X198033D01*
X299600Y5196317D02*
Y5145533D01*
Y5170925D01*
X147249D01*
Y5196317D01*
Y4917007D02*
X248817D01*
X299600Y4866223D01*
X248817Y4815440D01*
X147249D01*
X299600Y4764656D02*
Y4713873D01*
Y4739264D01*
X147249D01*
X172641Y4764656D01*
X299600Y4637697D02*
X274208D01*
Y4612305D01*
X299600D01*
Y4637697D01*
Y4510739D02*
Y4459955D01*
Y4485347D01*
X147249D01*
X172641Y4510739D01*
X5311140Y1836371D02*
Y1684020D01*
X5234965D01*
X5209573Y1709412D01*
Y1810979D01*
X5234965Y1836371D01*
X5311140D01*
X5158789D02*
X5057222D01*
Y1810979D01*
X5158789Y1709412D01*
Y1684020D01*
D46*
X5325500Y1500000D02*
G03*
X5325500Y1500000I-10000J0D01*
G01*
D47*
X4961000Y1570000D02*
X5111000D01*
X4961000Y1430000D02*
X5111000D01*
%TF.MD5,0e90f10d81efa4a9393fcae431318296*%
M02*
