%TF.GenerationSoftware,Altium Limited,Altium Designer,24.0.1 (36)*%
G04 Layer_Physical_Order=2*
G04 Layer_Color=16711680*
%FSLAX45Y45*%
%MOMM*%
%TF.SameCoordinates,1548FFD4-C5F0-4C99-8D9D-CADF44B10A7D*%
%TF.FilePolarity,Positive*%
%TF.FileFunction,Copper,L2,Bot,Signal*%
%TF.Part,Single*%
G01*
G75*
%TA.AperFunction,SMDPad,CuDef*%
G04:AMPARAMS|DCode=11|XSize=1.14mm|YSize=1.63mm|CornerRadius=0.1425mm|HoleSize=0mm|Usage=FLASHONLY|Rotation=0.000|XOffset=0mm|YOffset=0mm|HoleType=Round|Shape=RoundedRectangle|*
%AMROUNDEDRECTD11*
21,1,1.14000,1.34500,0,0,0.0*
21,1,0.85500,1.63000,0,0,0.0*
1,1,0.28500,0.42750,-0.67250*
1,1,0.28500,-0.42750,-0.67250*
1,1,0.28500,-0.42750,0.67250*
1,1,0.28500,0.42750,0.67250*
%
%ADD11ROUNDEDRECTD11*%
%TA.AperFunction,Conductor*%
%ADD21C,0.75000*%
%ADD22C,0.60000*%
%ADD23C,1.50000*%
%ADD24C,3.00000*%
%ADD25C,2.20000*%
%TA.AperFunction,NonConductor*%
%ADD27C,0.25400*%
%TA.AperFunction,ComponentPad*%
%ADD28C,1.75001*%
%ADD29R,1.75001X1.75001*%
%ADD30O,3.10000X1.55000*%
%ADD31C,5.00000*%
%ADD32C,1.85000*%
%ADD33R,1.85000X1.85000*%
%ADD34C,2.15000*%
%ADD35R,2.15000X2.15000*%
%ADD36C,3.00000*%
%ADD37C,1.52400*%
%ADD38C,1.95000*%
%ADD39O,2.15000X2.50000*%
%ADD40R,2.05000X2.05000*%
%ADD41C,2.05000*%
%ADD42C,1.85001*%
%ADD43C,2.60000*%
%ADD44R,2.60000X2.60000*%
%TA.AperFunction,ViaPad*%
%ADD45C,1.40000*%
G36*
X10000000Y0D02*
X0D01*
Y2650000D01*
X1000000D01*
Y2100000D01*
X1186529D01*
Y1691151D01*
X1182142Y1690278D01*
X1151659Y1677652D01*
X1124225Y1659321D01*
X1100894Y1635990D01*
X1082563Y1608556D01*
X1069936Y1578073D01*
X1063500Y1545712D01*
Y1512717D01*
X1069936Y1480356D01*
X1082563Y1449873D01*
X1100894Y1422439D01*
X1124225Y1399108D01*
X1151659Y1380778D01*
X1182142Y1368151D01*
X1214503Y1361714D01*
X1247497D01*
X1279858Y1368151D01*
X1310341Y1380778D01*
X1337776Y1399108D01*
X1361106Y1422439D01*
X1379437Y1449873D01*
X1392064Y1480356D01*
X1398501Y1512717D01*
Y1545712D01*
X1394420Y1566229D01*
X1398269Y1571245D01*
X1409604Y1598612D01*
X1413471Y1627980D01*
Y2100000D01*
X1950000D01*
X3000000Y3150000D01*
X3700000Y3800000D01*
X6022934D01*
X6027795Y3788267D01*
X5223764Y2984236D01*
X5205731Y2960736D01*
X5194396Y2933369D01*
X5190529Y2904000D01*
Y2092133D01*
X5174328Y2078838D01*
X5160636Y2062153D01*
X5137926Y2080790D01*
X5110564Y2095415D01*
X5080875Y2104421D01*
X5075000Y2105000D01*
Y1931701D01*
Y1758401D01*
X5080875Y1758979D01*
X5110564Y1767985D01*
X5137926Y1782610D01*
X5160602Y1801220D01*
X5174328Y1784495D01*
X5190529Y1771199D01*
Y1675501D01*
X5172298Y1657270D01*
X5157250D01*
X5133951Y1654203D01*
X5112240Y1645210D01*
X5093596Y1630904D01*
X5079290Y1612260D01*
X5070297Y1590549D01*
X5067230Y1567250D01*
Y1432750D01*
X5070297Y1409451D01*
X5079290Y1387740D01*
X5093596Y1369096D01*
X5112240Y1354790D01*
X5133951Y1345797D01*
X5157250Y1342730D01*
X5242750D01*
X5266049Y1345797D01*
X5287760Y1354790D01*
X5306404Y1369096D01*
X5320710Y1387740D01*
X5329703Y1409451D01*
X5332770Y1432750D01*
Y1496798D01*
X5384236Y1548264D01*
X5402269Y1571764D01*
X5413605Y1599131D01*
X5417471Y1628500D01*
Y1771199D01*
X5433672Y1784495D01*
X5456478Y1812284D01*
X5473424Y1843988D01*
X5483859Y1878390D01*
X5487383Y1914166D01*
Y1949166D01*
X5483859Y1984943D01*
X5473424Y2019344D01*
X5456478Y2051048D01*
X5433672Y2078838D01*
X5417471Y2092133D01*
Y2856999D01*
X6360472Y3800000D01*
X7902851D01*
X7910583Y3789924D01*
X7905000Y3769090D01*
Y3765472D01*
X7636780Y3497252D01*
X7623782D01*
X7594413Y3493386D01*
X7567046Y3482050D01*
X7543545Y3464017D01*
X7189764Y3110236D01*
X7171731Y3086735D01*
X7160395Y3059368D01*
X7156529Y3030000D01*
Y2873410D01*
X7146590Y2863471D01*
X7139410D01*
X7122775Y2880106D01*
X7095341Y2898437D01*
X7064858Y2911063D01*
X7032497Y2917500D01*
X6999503D01*
X6967142Y2911063D01*
X6936659Y2898437D01*
X6909225Y2880106D01*
X6885894Y2856775D01*
X6879782Y2847627D01*
X6867143Y2846382D01*
X6849497Y2864028D01*
X6817003Y2882789D01*
X6787000Y2890828D01*
Y2750000D01*
X6737000D01*
Y2890828D01*
X6706997Y2882789D01*
X6674503Y2864028D01*
X6656857Y2846382D01*
X6644218Y2847627D01*
X6638106Y2856775D01*
X6614775Y2880106D01*
X6587341Y2898437D01*
X6556858Y2911063D01*
X6524497Y2917500D01*
X6491503D01*
X6459142Y2911063D01*
X6428659Y2898437D01*
X6401225Y2880106D01*
X6381000Y2859881D01*
X6360775Y2880106D01*
X6333341Y2898437D01*
X6302858Y2911063D01*
X6270497Y2917500D01*
X6237503D01*
X6205142Y2911063D01*
X6180200Y2900732D01*
X6167500Y2907871D01*
Y2917500D01*
X5832500D01*
Y2582500D01*
X6167500D01*
Y2592129D01*
X6180200Y2599268D01*
X6205142Y2588937D01*
X6237503Y2582500D01*
X6270497D01*
X6302858Y2588937D01*
X6333341Y2601564D01*
X6360775Y2619894D01*
X6381000Y2640119D01*
X6394529Y2626590D01*
Y2562000D01*
X6398395Y2532631D01*
X6409731Y2505264D01*
X6427764Y2481764D01*
X6499764Y2409764D01*
X6523264Y2391731D01*
X6550631Y2380396D01*
X6580000Y2376529D01*
X7720000D01*
X7749369Y2380396D01*
X7776736Y2391731D01*
X7800236Y2409764D01*
X7855236Y2464764D01*
X7873269Y2488265D01*
X7884604Y2515631D01*
X7888471Y2545000D01*
Y2623590D01*
X7905000Y2640119D01*
X7925225Y2619894D01*
X7952659Y2601564D01*
X7983142Y2588937D01*
X8015503Y2582500D01*
X8048497D01*
X8080858Y2588937D01*
X8111341Y2601564D01*
X8138775Y2619894D01*
X8159000Y2640119D01*
X8179225Y2619894D01*
X8206659Y2601564D01*
X8237142Y2588937D01*
X8269503Y2582500D01*
X8302497D01*
X8334858Y2588937D01*
X8365341Y2601564D01*
X8392775Y2619894D01*
X8413000Y2640119D01*
X8433225Y2619894D01*
X8460659Y2601564D01*
X8491142Y2588937D01*
X8523503Y2582500D01*
X8556497D01*
X8588858Y2588937D01*
X8619341Y2601564D01*
X8646775Y2619894D01*
X8667000Y2640119D01*
X8687225Y2619894D01*
X8714659Y2601564D01*
X8745142Y2588937D01*
X8777503Y2582500D01*
X8810497D01*
X8842858Y2588937D01*
X8873341Y2601564D01*
X8900775Y2619894D01*
X8921000Y2640119D01*
X8941225Y2619894D01*
X8968659Y2601564D01*
X8999142Y2588937D01*
X9031503Y2582500D01*
X9064497D01*
X9096858Y2588937D01*
X9127341Y2601564D01*
X9154775Y2619894D01*
X9175000Y2640119D01*
X9195225Y2619894D01*
X9222659Y2601564D01*
X9253142Y2588937D01*
X9285503Y2582500D01*
X9318497D01*
X9350858Y2588937D01*
X9381341Y2601564D01*
X9408775Y2619894D01*
X9429000Y2640119D01*
X9449225Y2619894D01*
X9476659Y2601564D01*
X9507142Y2588937D01*
X9539503Y2582500D01*
X9572497D01*
X9604858Y2588937D01*
X9635341Y2601564D01*
X9662775Y2619894D01*
X9686106Y2643225D01*
X9704437Y2670659D01*
X9717063Y2701142D01*
X9723500Y2733503D01*
Y2766497D01*
X9717063Y2798858D01*
X9704437Y2829341D01*
X9686106Y2856775D01*
X9662775Y2880106D01*
X9635341Y2898437D01*
X9604858Y2911063D01*
X9572497Y2917500D01*
X9539503D01*
X9507142Y2911063D01*
X9476659Y2898437D01*
X9449225Y2880106D01*
X9429000Y2859881D01*
X9408775Y2880106D01*
X9381341Y2898437D01*
X9350858Y2911063D01*
X9318497Y2917500D01*
X9285503D01*
X9253142Y2911063D01*
X9222659Y2898437D01*
X9195225Y2880106D01*
X9175000Y2859881D01*
X9154775Y2880106D01*
X9127341Y2898437D01*
X9096858Y2911063D01*
X9064497Y2917500D01*
X9031503D01*
X8999142Y2911063D01*
X8968659Y2898437D01*
X8941225Y2880106D01*
X8921000Y2859881D01*
X8900775Y2880106D01*
X8873341Y2898437D01*
X8842858Y2911063D01*
X8810497Y2917500D01*
X8777503D01*
X8745142Y2911063D01*
X8714659Y2898437D01*
X8687225Y2880106D01*
X8667000Y2859881D01*
X8646775Y2880106D01*
X8619341Y2898437D01*
X8588858Y2911063D01*
X8556497Y2917500D01*
X8523503D01*
X8491142Y2911063D01*
X8460659Y2898437D01*
X8433225Y2880106D01*
X8413000Y2859881D01*
X8392775Y2880106D01*
X8365341Y2898437D01*
X8334858Y2911063D01*
X8302497Y2917500D01*
X8269503D01*
X8237142Y2911063D01*
X8206659Y2898437D01*
X8179225Y2880106D01*
X8159000Y2859881D01*
X8138775Y2880106D01*
X8111341Y2898437D01*
X8080858Y2911063D01*
X8048497Y2917500D01*
X8015503D01*
X7983142Y2911063D01*
X7952659Y2898437D01*
X7925225Y2880106D01*
X7905000Y2859881D01*
X7884775Y2880106D01*
X7857341Y2898437D01*
X7826858Y2911063D01*
X7794497Y2917500D01*
X7761503D01*
X7729142Y2911063D01*
X7698659Y2898437D01*
X7671225Y2880106D01*
X7647894Y2856775D01*
X7641782Y2847627D01*
X7629143Y2846382D01*
X7611497Y2864028D01*
X7579003Y2882789D01*
X7549000Y2890828D01*
Y2750000D01*
X7499000D01*
Y2890828D01*
X7468997Y2882789D01*
X7436503Y2864028D01*
X7418857Y2846382D01*
X7406218Y2847627D01*
X7400106Y2856775D01*
X7383471Y2873410D01*
Y2982999D01*
X7670783Y3270310D01*
X7683781D01*
X7713150Y3274177D01*
X7740517Y3285513D01*
X7764017Y3303545D01*
X8065472Y3605000D01*
X8069090D01*
X8075424Y3606697D01*
X8085500Y3598966D01*
Y3575000D01*
X8198000D01*
Y3687500D01*
X8194896D01*
X8186771Y3700201D01*
X8195000Y3730910D01*
Y3769090D01*
X8189417Y3789924D01*
X8197148Y3800000D01*
X10000000D01*
Y0D01*
D02*
G37*
%LPC*%
G36*
X8493005Y3712501D02*
X8460995D01*
X8429600Y3706256D01*
X8400027Y3694006D01*
X8373412Y3676223D01*
X8372234Y3675044D01*
X8360500Y3679905D01*
Y3687500D01*
X8248000D01*
Y3550000D01*
Y3412500D01*
X8360500D01*
Y3420096D01*
X8372234Y3424956D01*
X8373412Y3423778D01*
X8400027Y3405994D01*
X8429600Y3393744D01*
X8460995Y3387499D01*
X8493005D01*
X8524400Y3393744D01*
X8553973Y3405994D01*
X8580588Y3423778D01*
X8603223Y3446412D01*
X8621006Y3473027D01*
X8633256Y3502600D01*
X8639501Y3533995D01*
Y3566005D01*
X8633256Y3597400D01*
X8621006Y3626973D01*
X8603223Y3653588D01*
X8580588Y3676223D01*
X8553973Y3694006D01*
X8524400Y3706256D01*
X8493005Y3712501D01*
D02*
G37*
G36*
X7346400Y3756434D02*
Y3663900D01*
X7438934D01*
X7433222Y3685218D01*
X7417424Y3712582D01*
X7395081Y3734924D01*
X7367718Y3750722D01*
X7346400Y3756434D01*
D02*
G37*
G36*
X7296400D02*
X7275082Y3750722D01*
X7247718Y3734924D01*
X7225376Y3712582D01*
X7209578Y3685218D01*
X7203866Y3663900D01*
X7296400D01*
Y3756434D01*
D02*
G37*
G36*
X7438934Y3613900D02*
X7346400D01*
Y3521366D01*
X7367718Y3527078D01*
X7395081Y3542877D01*
X7417424Y3565219D01*
X7433222Y3592582D01*
X7438934Y3613900D01*
D02*
G37*
G36*
X7296400D02*
X7203866D01*
X7209578Y3592582D01*
X7225376Y3565219D01*
X7247718Y3542877D01*
X7275082Y3527078D01*
X7296400Y3521366D01*
Y3613900D01*
D02*
G37*
G36*
X8198000Y3525000D02*
X8085500D01*
Y3412500D01*
X8198000D01*
Y3525000D01*
D02*
G37*
G36*
X3375000Y2949780D02*
Y2675000D01*
X3649780D01*
X3642613Y2720250D01*
X3628021Y2765160D01*
X3606583Y2807234D01*
X3578827Y2845437D01*
X3545437Y2878827D01*
X3507234Y2906583D01*
X3465160Y2928021D01*
X3420250Y2942613D01*
X3375000Y2949780D01*
D02*
G37*
G36*
X3325000D02*
X3279750Y2942613D01*
X3234840Y2928021D01*
X3192766Y2906583D01*
X3154563Y2878827D01*
X3121173Y2845437D01*
X3093417Y2807234D01*
X3071979Y2765160D01*
X3057387Y2720250D01*
X3050220Y2675000D01*
X3325000D01*
Y2949780D01*
D02*
G37*
G36*
X825000Y2592515D02*
Y2467000D01*
X950515D01*
X946639Y2486482D01*
X935143Y2514236D01*
X918454Y2539213D01*
X897213Y2560454D01*
X872236Y2577143D01*
X844482Y2588639D01*
X825000Y2592515D01*
D02*
G37*
G36*
X375000D02*
Y2467000D01*
X500515D01*
X496639Y2486482D01*
X485144Y2514236D01*
X468454Y2539213D01*
X447213Y2560454D01*
X422236Y2577143D01*
X394483Y2588639D01*
X375000Y2592515D01*
D02*
G37*
G36*
X775000Y2592514D02*
X755517Y2588639D01*
X727764Y2577143D01*
X702787Y2560454D01*
X681546Y2539213D01*
X664856Y2514236D01*
X653361Y2486482D01*
X649485Y2467000D01*
X775000D01*
Y2592514D01*
D02*
G37*
G36*
X325000D02*
X305518Y2588639D01*
X277764Y2577143D01*
X252787Y2560454D01*
X231546Y2539213D01*
X214857Y2514236D01*
X203361Y2486482D01*
X199485Y2467000D01*
X325000D01*
Y2592514D01*
D02*
G37*
G36*
X3649780Y2625000D02*
X3375000D01*
Y2350220D01*
X3420250Y2357387D01*
X3465160Y2371979D01*
X3507234Y2393417D01*
X3545437Y2421173D01*
X3578827Y2454563D01*
X3606583Y2492766D01*
X3628021Y2534840D01*
X3642613Y2579750D01*
X3649780Y2625000D01*
D02*
G37*
G36*
X3325000D02*
X3050220D01*
X3057387Y2579750D01*
X3071979Y2534840D01*
X3093417Y2492766D01*
X3121173Y2454563D01*
X3154563Y2421173D01*
X3192766Y2393417D01*
X3234840Y2371979D01*
X3279750Y2357387D01*
X3325000Y2350220D01*
Y2625000D01*
D02*
G37*
G36*
X775000Y2417000D02*
X649485D01*
X653361Y2397517D01*
X664856Y2369764D01*
X681546Y2344787D01*
X702787Y2323546D01*
X727764Y2306856D01*
X755517Y2295361D01*
X775000Y2291485D01*
Y2417000D01*
D02*
G37*
G36*
X325000D02*
X199486D01*
X203361Y2397517D01*
X214857Y2369764D01*
X231546Y2344787D01*
X252787Y2323546D01*
X277764Y2306856D01*
X305518Y2295361D01*
X325000Y2291485D01*
Y2417000D01*
D02*
G37*
G36*
X950514D02*
X825000D01*
Y2291485D01*
X844482Y2295361D01*
X872236Y2306856D01*
X897213Y2323546D01*
X918454Y2344787D01*
X935143Y2369764D01*
X946639Y2397517D01*
X950514Y2417000D01*
D02*
G37*
G36*
X500515D02*
X375000D01*
Y2291485D01*
X394483Y2295361D01*
X422236Y2306856D01*
X447213Y2323546D01*
X468454Y2344787D01*
X485144Y2369764D01*
X496639Y2397517D01*
X500515Y2417000D01*
D02*
G37*
G36*
X4796000Y2132583D02*
X4760224Y2129060D01*
X4725822Y2118624D01*
X4694118Y2101678D01*
X4666328Y2078872D01*
X4643523Y2051083D01*
X4626576Y2019378D01*
X4616141Y1984977D01*
X4612617Y1949200D01*
Y1914200D01*
X4616141Y1878424D01*
X4626576Y1844022D01*
X4643523Y1812318D01*
X4666328Y1784529D01*
X4682529Y1771233D01*
Y1694200D01*
X4686396Y1664832D01*
X4697731Y1637465D01*
X4715764Y1613964D01*
X4739029Y1590699D01*
Y1519500D01*
X4739230Y1517974D01*
Y1432750D01*
X4742297Y1409451D01*
X4751290Y1387740D01*
X4765596Y1369096D01*
X4784240Y1354790D01*
X4805951Y1345797D01*
X4829250Y1342730D01*
X4914750D01*
X4938049Y1345797D01*
X4959760Y1354790D01*
X4978404Y1369096D01*
X4992710Y1387740D01*
X5001703Y1409451D01*
X5004770Y1432750D01*
Y1567250D01*
X5001703Y1590549D01*
X4992710Y1612260D01*
X4978404Y1630904D01*
X4965569Y1640752D01*
X4962105Y1667069D01*
X4950769Y1694436D01*
X4932736Y1717936D01*
X4909471Y1741201D01*
Y1771233D01*
X4925672Y1784529D01*
X4939381Y1801234D01*
X4962074Y1782610D01*
X4989436Y1767985D01*
X5019125Y1758979D01*
X5025000Y1758401D01*
Y1931701D01*
Y2105000D01*
X5019125Y2104421D01*
X4989436Y2095415D01*
X4962074Y2080790D01*
X4939381Y2062167D01*
X4925672Y2078872D01*
X4897882Y2101678D01*
X4866178Y2118624D01*
X4831776Y2129060D01*
X4796000Y2132583D01*
D02*
G37*
G36*
X2475000Y1818600D02*
X2422500D01*
X2389216Y1814218D01*
X2358200Y1801371D01*
X2331566Y1780934D01*
X2311129Y1754300D01*
X2298282Y1723284D01*
X2297191Y1715000D01*
X2475000D01*
Y1818600D01*
D02*
G37*
G36*
Y1665000D02*
X2297191D01*
X2298282Y1656716D01*
X2311129Y1625700D01*
X2331566Y1599066D01*
X2358200Y1578629D01*
X2389216Y1565782D01*
X2422500Y1561400D01*
X2475000D01*
Y1665000D01*
D02*
G37*
G36*
X494000Y1670043D02*
Y1554215D01*
X609829D01*
X601789Y1584218D01*
X583029Y1616712D01*
X556497Y1643243D01*
X524003Y1662004D01*
X494000Y1670043D01*
D02*
G37*
G36*
X444000D02*
X413997Y1662004D01*
X381503Y1643243D01*
X354971Y1616712D01*
X336211Y1584218D01*
X328172Y1554215D01*
X444000D01*
Y1670043D01*
D02*
G37*
G36*
X609829Y1504215D02*
X494000D01*
Y1388386D01*
X524003Y1396425D01*
X556497Y1415186D01*
X583029Y1441717D01*
X601789Y1474211D01*
X609829Y1504215D01*
D02*
G37*
G36*
X444000D02*
X328172D01*
X336211Y1474211D01*
X354971Y1441717D01*
X381503Y1415186D01*
X413997Y1396425D01*
X444000Y1388386D01*
Y1504215D01*
D02*
G37*
G36*
X2475000Y1478600D02*
X2422500D01*
X2389216Y1474218D01*
X2358200Y1461371D01*
X2331566Y1440934D01*
X2311129Y1414300D01*
X2298282Y1383284D01*
X2297191Y1375000D01*
X2475000D01*
Y1478600D01*
D02*
G37*
G36*
Y1325000D02*
X2297191D01*
X2298282Y1316716D01*
X2311129Y1285700D01*
X2331566Y1259066D01*
X2358200Y1238629D01*
X2389216Y1225782D01*
X2422500Y1221400D01*
X2475000D01*
Y1325000D01*
D02*
G37*
G36*
X2577500Y1818600D02*
X2525000D01*
Y1690000D01*
Y1561400D01*
X2525037D01*
X2531291Y1552968D01*
X2532089Y1548700D01*
X2529262Y1520000D01*
X2532089Y1491300D01*
X2531290Y1487032D01*
X2525037Y1478600D01*
X2525000D01*
Y1350000D01*
Y1221400D01*
X2525037D01*
X2531290Y1212968D01*
X2532089Y1208700D01*
X2529262Y1180000D01*
X2529986Y1172648D01*
X2521457Y1163238D01*
X2422500D01*
X2392605Y1160294D01*
X2363858Y1151574D01*
X2337366Y1137413D01*
X2314144Y1118356D01*
X2295087Y1095134D01*
X2280927Y1068642D01*
X2272207Y1039895D01*
X2269262Y1010000D01*
X2272207Y980105D01*
X2280927Y951358D01*
X2295087Y924866D01*
X2314144Y901644D01*
X2337366Y882587D01*
X2363858Y868427D01*
X2392605Y859706D01*
X2422500Y856762D01*
X2577500D01*
X2607395Y859706D01*
X2636142Y868427D01*
X2662635Y882587D01*
X2685856Y901644D01*
X2704913Y924866D01*
X2719074Y951358D01*
X2727794Y980105D01*
X2730738Y1010000D01*
X2730014Y1017352D01*
X2738543Y1026762D01*
X2837500D01*
X2867395Y1029707D01*
X2896142Y1038427D01*
X2922634Y1052587D01*
X2945856Y1071645D01*
X2964913Y1094866D01*
X2979074Y1121358D01*
X2987794Y1150105D01*
X2990738Y1180000D01*
X2987794Y1209895D01*
X2979074Y1238642D01*
X2964913Y1265135D01*
X2945856Y1288356D01*
X2922634Y1307413D01*
X2896142Y1321574D01*
X2867395Y1330294D01*
X2837500Y1333238D01*
X2713524D01*
X2705150Y1342787D01*
X2706100Y1350000D01*
X2705150Y1357213D01*
X2713524Y1366762D01*
X2837500D01*
X2867395Y1369706D01*
X2896142Y1378427D01*
X2922634Y1392587D01*
X2945856Y1411644D01*
X2964913Y1434866D01*
X2979074Y1461358D01*
X2987794Y1490105D01*
X2990738Y1520000D01*
X2987794Y1549895D01*
X2979074Y1578642D01*
X2964913Y1605134D01*
X2945856Y1628356D01*
X2922634Y1647413D01*
X2896142Y1661574D01*
X2867395Y1670294D01*
X2837500Y1673238D01*
X2713524D01*
X2705150Y1682787D01*
X2706100Y1690000D01*
X2701718Y1723284D01*
X2688871Y1754300D01*
X2668434Y1780934D01*
X2641800Y1801371D01*
X2610784Y1814218D01*
X2577500Y1818600D01*
D02*
G37*
G36*
X5500000Y792534D02*
Y700000D01*
X5592534D01*
X5586822Y721318D01*
X5571024Y748682D01*
X5548682Y771024D01*
X5521318Y786822D01*
X5500000Y792534D01*
D02*
G37*
G36*
X5450000D02*
X5428682Y786822D01*
X5401318Y771024D01*
X5378976Y748682D01*
X5363178Y721318D01*
X5357466Y700000D01*
X5450000D01*
Y792534D01*
D02*
G37*
G36*
X4650000D02*
Y700000D01*
X4742534D01*
X4736822Y721318D01*
X4721024Y748682D01*
X4698681Y771024D01*
X4671318Y786822D01*
X4650000Y792534D01*
D02*
G37*
G36*
X4600000D02*
X4578682Y786822D01*
X4551318Y771024D01*
X4528976Y748682D01*
X4513178Y721318D01*
X4507466Y700000D01*
X4600000D01*
Y792534D01*
D02*
G37*
G36*
X5592534Y650000D02*
X5357466D01*
X5363178Y628682D01*
X5378976Y601318D01*
X5397063Y583232D01*
X5399932Y575000D01*
X5397063Y566768D01*
X5378976Y548682D01*
X5363178Y521318D01*
X5357466Y500000D01*
X5592534D01*
X5586822Y521318D01*
X5571024Y548682D01*
X5552937Y566768D01*
X5550068Y575000D01*
X5552937Y583232D01*
X5571024Y601318D01*
X5586822Y628682D01*
X5592534Y650000D01*
D02*
G37*
G36*
X4742534D02*
X4507466D01*
X4513178Y628682D01*
X4528976Y601318D01*
X4547063Y583232D01*
X4549932Y575000D01*
X4547063Y566768D01*
X4528976Y548682D01*
X4513178Y521318D01*
X4507466Y500000D01*
X4742534D01*
X4736822Y521318D01*
X4721024Y548682D01*
X4702937Y566768D01*
X4700068Y575000D01*
X4702937Y583232D01*
X4721024Y601318D01*
X4736822Y628682D01*
X4742534Y650000D01*
D02*
G37*
G36*
X9675000Y649780D02*
Y375000D01*
X9949780D01*
X9942613Y420250D01*
X9928021Y465160D01*
X9906583Y507234D01*
X9878827Y545437D01*
X9845436Y578827D01*
X9807234Y606583D01*
X9765160Y628021D01*
X9720250Y642613D01*
X9675000Y649780D01*
D02*
G37*
G36*
X9625000D02*
X9579750Y642613D01*
X9534840Y628021D01*
X9492766Y606583D01*
X9454563Y578827D01*
X9421173Y545437D01*
X9393417Y507234D01*
X9371979Y465160D01*
X9357387Y420250D01*
X9350220Y375000D01*
X9625000D01*
Y649780D01*
D02*
G37*
G36*
X1322714Y528554D02*
Y375000D01*
X1476268D01*
X1470797Y402504D01*
X1457228Y435262D01*
X1437530Y464743D01*
X1412458Y489815D01*
X1382976Y509514D01*
X1350219Y523083D01*
X1322714Y528554D01*
D02*
G37*
G36*
X1272714D02*
X1245210Y523083D01*
X1212452Y509514D01*
X1182971Y489815D01*
X1157899Y464743D01*
X1138201Y435262D01*
X1124632Y402504D01*
X1119161Y375000D01*
X1272714D01*
Y528554D01*
D02*
G37*
G36*
X375000Y649780D02*
Y375000D01*
X649780D01*
X642613Y420250D01*
X628021Y465160D01*
X606583Y507234D01*
X578827Y545437D01*
X545437Y578827D01*
X507234Y606583D01*
X465160Y628021D01*
X420250Y642613D01*
X375000Y649780D01*
D02*
G37*
G36*
X325000D02*
X279750Y642613D01*
X234840Y628021D01*
X192766Y606583D01*
X154563Y578827D01*
X121173Y545437D01*
X93417Y507234D01*
X71979Y465160D01*
X57387Y420250D01*
X50220Y375000D01*
X325000D01*
Y649780D01*
D02*
G37*
G36*
X5592534Y450000D02*
X5357466D01*
X5363178Y428682D01*
X5378976Y401318D01*
X5397063Y383232D01*
X5399932Y375000D01*
X5397063Y366768D01*
X5378976Y348682D01*
X5363178Y321318D01*
X5357466Y300000D01*
X5592534D01*
X5586822Y321318D01*
X5571024Y348682D01*
X5552937Y366768D01*
X5550068Y375000D01*
X5552937Y383232D01*
X5571024Y401318D01*
X5586822Y428682D01*
X5592534Y450000D01*
D02*
G37*
G36*
X4742534D02*
X4507466D01*
X4513178Y428682D01*
X4528976Y401318D01*
X4547063Y383232D01*
X4549932Y375000D01*
X4547063Y366768D01*
X4528976Y348682D01*
X4513178Y321318D01*
X4507466Y300000D01*
X4742534D01*
X4736822Y321318D01*
X4721024Y348682D01*
X4702937Y366768D01*
X4700068Y375000D01*
X4702937Y383232D01*
X4721024Y401318D01*
X4736822Y428682D01*
X4742534Y450000D01*
D02*
G37*
G36*
X5072899Y682500D02*
X5027101D01*
X4982182Y673565D01*
X4939870Y656039D01*
X4901790Y630595D01*
X4869406Y598210D01*
X4843961Y560130D01*
X4826435Y517818D01*
X4817500Y472899D01*
Y427101D01*
X4826435Y382182D01*
X4843961Y339870D01*
X4869406Y301790D01*
X4901790Y269406D01*
X4939870Y243961D01*
X4982182Y226435D01*
X5027101Y217500D01*
X5072899D01*
X5117818Y226435D01*
X5160130Y243961D01*
X5198210Y269406D01*
X5230595Y301790D01*
X5256039Y339870D01*
X5273565Y382182D01*
X5282500Y427101D01*
Y472899D01*
X5273565Y517818D01*
X5256039Y560130D01*
X5230595Y598210D01*
X5198210Y630595D01*
X5160130Y656039D01*
X5117818Y673565D01*
X5072899Y682500D01*
D02*
G37*
G36*
X1476268Y325000D02*
X1322714D01*
Y171446D01*
X1350219Y176917D01*
X1382976Y190486D01*
X1412458Y210185D01*
X1437530Y235257D01*
X1457228Y264738D01*
X1470797Y297496D01*
X1476268Y325000D01*
D02*
G37*
G36*
X1272714D02*
X1119161D01*
X1124632Y297496D01*
X1138201Y264738D01*
X1157899Y235257D01*
X1182971Y210185D01*
X1212452Y190486D01*
X1245210Y176917D01*
X1272714Y171446D01*
Y325000D01*
D02*
G37*
G36*
X5592534Y250000D02*
X5500000D01*
Y157466D01*
X5521318Y163178D01*
X5548682Y178976D01*
X5571024Y201318D01*
X5586822Y228682D01*
X5592534Y250000D01*
D02*
G37*
G36*
X5450000D02*
X5357466D01*
X5363178Y228682D01*
X5378976Y201318D01*
X5401318Y178976D01*
X5428682Y163178D01*
X5450000Y157466D01*
Y250000D01*
D02*
G37*
G36*
X4742534D02*
X4650000D01*
Y157466D01*
X4671318Y163178D01*
X4698681Y178976D01*
X4721024Y201318D01*
X4736822Y228682D01*
X4742534Y250000D01*
D02*
G37*
G36*
X4600000D02*
X4507466D01*
X4513178Y228682D01*
X4528976Y201318D01*
X4551318Y178976D01*
X4578682Y163178D01*
X4600000Y157466D01*
Y250000D01*
D02*
G37*
G36*
X3026715Y555000D02*
X2616714D01*
Y145000D01*
X3026715D01*
Y555000D01*
D02*
G37*
G36*
X9949780Y325000D02*
X9675000D01*
Y50220D01*
X9720250Y57387D01*
X9765160Y71979D01*
X9807234Y93417D01*
X9845436Y121173D01*
X9878827Y154563D01*
X9906583Y192766D01*
X9928021Y234840D01*
X9942613Y279750D01*
X9949780Y325000D01*
D02*
G37*
G36*
X9625000D02*
X9350220D01*
X9357387Y279750D01*
X9371979Y234840D01*
X9393417Y192766D01*
X9421173Y154563D01*
X9454563Y121173D01*
X9492766Y93417D01*
X9534840Y71979D01*
X9579750Y57387D01*
X9625000Y50220D01*
Y325000D01*
D02*
G37*
G36*
X649780D02*
X375000D01*
Y50220D01*
X420250Y57387D01*
X465160Y71979D01*
X507234Y93417D01*
X545437Y121173D01*
X578827Y154563D01*
X606583Y192766D01*
X628021Y234840D01*
X642613Y279750D01*
X649780Y325000D01*
D02*
G37*
G36*
X325000D02*
X50220D01*
X57387Y279750D01*
X71979Y234840D01*
X93417Y192766D01*
X121173Y154563D01*
X154563Y121173D01*
X192766Y93417D01*
X234840Y71979D01*
X279750Y57387D01*
X325000Y50220D01*
Y325000D01*
D02*
G37*
%LPD*%
D11*
X4872000Y1500000D02*
D03*
X5200000D02*
D03*
D21*
X4000000Y6940000D02*
X4897700Y6042300D01*
X5150800D01*
Y5534300D02*
Y6042300D01*
X5304000Y1931666D02*
Y2904000D01*
X6464000Y4064000D02*
X8763000D01*
X5304000Y2904000D02*
X6464000Y4064000D01*
X7270000Y3030000D02*
X7623782Y3383781D01*
X7683781D01*
X8050000Y3750000D01*
X7270000Y2750000D02*
Y3030000D01*
X1231000Y1529215D02*
Y1558981D01*
X1300000Y1627980D02*
Y2442000D01*
X1231000Y1558981D02*
X1300000Y1627980D01*
X7720000Y2490000D02*
X7775000Y2545000D01*
Y2747000D02*
X7778000Y2750000D01*
X7775000Y2545000D02*
Y2747000D01*
X6580000Y2490000D02*
X7720000D01*
X6508000Y2562000D02*
Y2750000D01*
Y2562000D02*
X6580000Y2490000D01*
X4852500Y1519500D02*
Y1637700D01*
Y1519500D02*
X4872000Y1500000D01*
X4796000Y1694200D02*
X4852500Y1637700D01*
X4796000Y1694200D02*
Y1931700D01*
X5304000Y1628500D02*
Y1931666D01*
X5200000Y1524500D02*
X5304000Y1628500D01*
X5200000Y1500000D02*
Y1524500D01*
X800000Y3458000D02*
X1300000D01*
Y2442000D02*
X1750000D01*
Y3260000D02*
Y3458000D01*
X1600000Y3110000D02*
X1750000Y3260000D01*
X550000Y3110000D02*
X1600000D01*
X410000Y3250000D02*
X550000Y3110000D01*
X410000Y3250000D02*
Y3398000D01*
X350000Y3458000D02*
X410000Y3398000D01*
X3690000Y4540000D02*
X4000000Y4850000D01*
X1300000Y3830000D02*
X2010000Y4540000D01*
X3690000D01*
X1300000Y3458000D02*
Y3830000D01*
X500000Y4850000D02*
X800000Y4550000D01*
X350000Y3458000D02*
X800000Y3908000D01*
Y4550000D01*
X1000000Y4850000D02*
X3500000D01*
X7016000Y2750000D02*
X7270000D01*
X4000000Y6940000D02*
Y8350000D01*
D22*
X8129759Y4809356D02*
X8149906D01*
X7100000Y4750000D02*
X8070403D01*
X8129759Y4809356D01*
X6950000Y4600000D02*
X7100000Y4750000D01*
D23*
X5000000Y8855291D02*
Y8950000D01*
Y8855291D02*
X5155290Y8700000D01*
X5000000Y8950000D02*
X5012868D01*
X5155290Y8700000D02*
X6692000D01*
X8300000Y9200000D02*
X8400000Y9100000D01*
Y8700000D02*
Y9100000D01*
X6779868Y9200000D02*
X8300000D01*
X6692000Y9112132D02*
X6779868Y9200000D01*
X6692000Y8700000D02*
Y9112132D01*
D24*
X5150800Y7566300D02*
X5450800Y7866300D01*
X6200800D01*
X5150800Y7058300D02*
Y7566300D01*
X6350800Y5534300D02*
Y6042300D01*
Y7566300D02*
Y7866300D01*
Y7058300D02*
Y7566300D01*
X6215496Y7866300D02*
X7532264D01*
X7708000Y8042036D02*
Y8300000D01*
X7532264Y7866300D02*
X7708000Y8042036D01*
D25*
Y8300000D02*
Y8700000D01*
D27*
X350000Y8975000D02*
G03*
X350000Y8975000I-25000J0D01*
G01*
D28*
X2098000Y2950000D02*
D03*
X8477000Y3550000D02*
D03*
D29*
X2352000Y2950000D02*
D03*
X8223000Y3550000D02*
D03*
D30*
X2500000Y1010000D02*
D03*
X2760000Y1180000D02*
D03*
X2500000Y1350000D02*
D03*
X2760000Y1520000D02*
D03*
X2500000Y1690000D02*
D03*
D31*
X9650000Y350000D02*
D03*
X3350000Y2650000D02*
D03*
X5000000Y8950000D02*
D03*
X350000Y350000D02*
D03*
D32*
X9556000Y2750000D02*
D03*
X9302000D02*
D03*
X7778000D02*
D03*
X7524000D02*
D03*
X7270000D02*
D03*
X7016000D02*
D03*
X6254000D02*
D03*
X6508000D02*
D03*
X6762000D02*
D03*
X8032000D02*
D03*
X8286000D02*
D03*
X8540000D02*
D03*
X8794000D02*
D03*
X9048000D02*
D03*
D33*
X6000000D02*
D03*
D34*
X8400000Y8700000D02*
D03*
X8908000D02*
D03*
X6692000D02*
D03*
X7200000D02*
D03*
D35*
X9416000D02*
D03*
X7708000D02*
D03*
D36*
X6350800Y5534300D02*
D03*
Y6042300D02*
D03*
Y7058300D02*
D03*
Y7566300D02*
D03*
X5150800Y5534300D02*
D03*
Y6042300D02*
D03*
Y7058300D02*
D03*
Y7566300D02*
D03*
D37*
X500000Y8350000D02*
D03*
X4000000D02*
D03*
X1500000D02*
D03*
X3000000D02*
D03*
X500000Y4850000D02*
D03*
X4000000D02*
D03*
X3500000D02*
D03*
X1000000D02*
D03*
D38*
X9525000Y6477000D02*
D03*
Y5715000D02*
D03*
X8763000Y6096000D02*
D03*
X9525000Y4064000D02*
D03*
X8763000D02*
D03*
D39*
X5304000Y1931666D02*
D03*
X5050000Y1931700D02*
D03*
X4796000D02*
D03*
D40*
X1300000Y2442000D02*
D03*
X800000Y3458000D02*
D03*
X350000D02*
D03*
X1750000Y2442000D02*
D03*
D41*
X1300000Y3458000D02*
D03*
X800000Y2442000D02*
D03*
X350000D02*
D03*
X1750000Y3458000D02*
D03*
D42*
X1231000Y1529215D02*
D03*
X469000D02*
D03*
D43*
X1297714Y350000D02*
D03*
D44*
X2821714D02*
D03*
D45*
X4625000Y275000D02*
D03*
Y475000D02*
D03*
Y675000D02*
D03*
X5475000D02*
D03*
Y475000D02*
D03*
Y275000D02*
D03*
X7321400Y3638900D02*
D03*
X8050000Y3750000D02*
D03*
X6950000Y4600000D02*
D03*
X8145550Y4805000D02*
D03*
%TF.MD5,7f5dbaa41501086f19ed802ad4ebd4dc*%
M02*
