%TF.GenerationSoftware,Altium Limited,Altium Designer,24.0.1 (36)*%
G04 Layer_Physical_Order=2*
G04 Layer_Color=16711680*
%FSLAX45Y45*%
%MOMM*%
%TF.SameCoordinates,4F873DDA-DFB5-4AF5-B95A-0F2F78DC07CA*%
%TF.FilePolarity,Positive*%
%TF.FileFunction,Copper,L2,Bot,Signal*%
%TF.Part,Single*%
G01*
G75*
%TA.AperFunction,SMDPad,CuDef*%
G04:AMPARAMS|DCode=12|XSize=1.524mm|YSize=1.27mm|CornerRadius=0.09525mm|HoleSize=0mm|Usage=FLASHONLY|Rotation=270.000|XOffset=0mm|YOffset=0mm|HoleType=Round|Shape=RoundedRectangle|*
%AMROUNDEDRECTD12*
21,1,1.52400,1.07950,0,0,270.0*
21,1,1.33350,1.27000,0,0,270.0*
1,1,0.19050,-0.53975,-0.66675*
1,1,0.19050,-0.53975,0.66675*
1,1,0.19050,0.53975,0.66675*
1,1,0.19050,0.53975,-0.66675*
%
%ADD12ROUNDEDRECTD12*%
%TA.AperFunction,Conductor*%
%ADD24C,0.40000*%
%ADD25C,0.50000*%
%ADD26C,0.75000*%
%ADD27C,0.30000*%
%ADD28C,0.20000*%
%TA.AperFunction,ComponentPad*%
%ADD29R,1.85000X1.85000*%
%ADD30C,1.85000*%
%ADD31R,1.85000X1.85000*%
%ADD32C,0.40000*%
%ADD33C,1.75001*%
%ADD34R,1.75001X1.75001*%
%ADD35C,0.65000*%
%ADD36O,1.00000X2.10000*%
%ADD37O,1.00000X1.80000*%
%TA.AperFunction,ViaPad*%
%ADD38C,0.80000*%
%ADD39C,1.27000*%
%ADD40C,0.60000*%
%ADD41C,1.20000*%
%ADD42C,0.85000*%
%TA.AperFunction,SMDPad,CuDef*%
%ADD43R,0.91440X0.91440*%
%ADD44R,0.91440X1.27000*%
G04:AMPARAMS|DCode=45|XSize=0.9mm|YSize=0.9mm|CornerRadius=0.0675mm|HoleSize=0mm|Usage=FLASHONLY|Rotation=0.000|XOffset=0mm|YOffset=0mm|HoleType=Round|Shape=RoundedRectangle|*
%AMROUNDEDRECTD45*
21,1,0.90000,0.76500,0,0,0.0*
21,1,0.76500,0.90000,0,0,0.0*
1,1,0.13500,0.38250,-0.38250*
1,1,0.13500,-0.38250,-0.38250*
1,1,0.13500,-0.38250,0.38250*
1,1,0.13500,0.38250,0.38250*
%
%ADD45ROUNDEDRECTD45*%
G04:AMPARAMS|DCode=46|XSize=1.5mm|YSize=0.9mm|CornerRadius=0.0675mm|HoleSize=0mm|Usage=FLASHONLY|Rotation=0.000|XOffset=0mm|YOffset=0mm|HoleType=Round|Shape=RoundedRectangle|*
%AMROUNDEDRECTD46*
21,1,1.50000,0.76500,0,0,0.0*
21,1,1.36500,0.90000,0,0,0.0*
1,1,0.13500,0.68250,-0.38250*
1,1,0.13500,-0.68250,-0.38250*
1,1,0.13500,-0.68250,0.38250*
1,1,0.13500,0.68250,0.38250*
%
%ADD46ROUNDEDRECTD46*%
G04:AMPARAMS|DCode=47|XSize=0.9mm|YSize=1.5mm|CornerRadius=0.0675mm|HoleSize=0mm|Usage=FLASHONLY|Rotation=0.000|XOffset=0mm|YOffset=0mm|HoleType=Round|Shape=RoundedRectangle|*
%AMROUNDEDRECTD47*
21,1,0.90000,1.36500,0,0,0.0*
21,1,0.76500,1.50000,0,0,0.0*
1,1,0.13500,0.38250,-0.68250*
1,1,0.13500,-0.38250,-0.68250*
1,1,0.13500,-0.38250,0.68250*
1,1,0.13500,0.38250,0.68250*
%
%ADD47ROUNDEDRECTD47*%
G36*
X4946267Y53732D02*
X3160783D01*
Y609000D01*
X3157679Y624607D01*
X3148838Y637838D01*
X3135607Y646679D01*
X3122992Y649188D01*
X3124243Y661888D01*
X3163250D01*
X3185392Y666293D01*
X3204164Y678836D01*
X3216707Y697607D01*
X3221111Y719750D01*
Y733000D01*
X3095000D01*
Y783000D01*
X3221111D01*
Y796250D01*
X3216707Y818393D01*
X3207897Y831577D01*
X3210916Y846750D01*
Y923250D01*
X3207287Y941491D01*
X3202604Y948500D01*
X3207287Y955509D01*
X3210916Y973750D01*
Y1050250D01*
X3207287Y1068491D01*
X3202604Y1075500D01*
X3207287Y1082509D01*
X3210916Y1100750D01*
Y1177250D01*
X3207287Y1195491D01*
X3202604Y1202500D01*
X3207287Y1209509D01*
X3210916Y1227750D01*
Y1304250D01*
X3210764Y1305014D01*
X3218821Y1314831D01*
X3246066D01*
X3266298Y1317495D01*
X3274106Y1320729D01*
X3285150Y1325304D01*
X3301340Y1337726D01*
X3345274Y1381660D01*
X3357696Y1397850D01*
X3365505Y1416703D01*
X3368169Y1436934D01*
Y1552634D01*
X3368577Y1554157D01*
X3381927Y1558768D01*
X3951382Y989312D01*
Y972729D01*
X3947971Y966819D01*
X3943200Y949016D01*
Y930584D01*
X3947971Y912781D01*
X3957186Y896819D01*
X3970219Y883786D01*
X3986181Y874571D01*
X4003984Y869800D01*
X4022416D01*
X4040219Y874571D01*
X4056181Y883786D01*
X4069214Y896819D01*
X4078429Y912781D01*
X4083200Y930584D01*
Y949016D01*
X4078429Y966819D01*
X4070897Y979866D01*
X4071159Y981575D01*
X4084690Y986005D01*
X4114623Y956072D01*
Y906471D01*
X4105471Y890619D01*
X4100700Y872816D01*
Y854384D01*
X4105471Y836581D01*
X4114686Y820619D01*
X4120445Y814861D01*
X4115184Y802161D01*
X3935783D01*
X3919216Y806600D01*
X3900785D01*
X3882981Y801829D01*
X3867019Y792614D01*
X3853986Y779581D01*
X3844771Y763619D01*
X3840000Y745816D01*
Y727384D01*
X3844771Y709581D01*
X3839657Y698503D01*
X3829432Y694943D01*
X3818863Y701803D01*
Y733000D01*
X3815426Y759105D01*
X3805350Y783431D01*
X3789321Y804321D01*
X3768432Y820350D01*
X3744105Y830426D01*
X3743000Y830571D01*
Y678000D01*
Y525428D01*
X3744105Y525574D01*
X3768432Y535650D01*
X3789321Y551679D01*
X3801264Y567244D01*
X3815619Y569830D01*
X3817729Y569267D01*
X3833016Y560441D01*
X3851455Y555500D01*
X3870545D01*
X3888984Y560441D01*
X3905516Y569986D01*
X3919015Y583484D01*
X3928559Y600016D01*
X3933500Y618455D01*
Y637545D01*
X3928566Y655958D01*
X3927664Y659396D01*
X3932075Y670046D01*
X3935783Y671039D01*
X4361649D01*
X4362981Y670270D01*
X4367375Y669093D01*
X4371413Y659345D01*
X4371159Y654931D01*
X4366500Y637545D01*
Y618455D01*
X4371441Y600016D01*
X4380986Y583484D01*
X4394484Y569986D01*
X4411016Y560441D01*
X4429455Y555500D01*
X4448545D01*
X4466984Y560441D01*
X4482271Y569267D01*
X4484381Y569830D01*
X4498736Y567244D01*
X4510679Y551679D01*
X4531569Y535650D01*
X4555895Y525574D01*
X4557000Y525428D01*
Y678000D01*
Y830571D01*
X4555895Y830426D01*
X4531569Y820350D01*
X4510679Y804321D01*
X4494650Y783431D01*
X4484574Y759105D01*
X4481137Y733000D01*
Y701677D01*
X4470607Y694850D01*
X4459237Y698805D01*
X4455230Y708481D01*
X4460000Y726284D01*
Y744716D01*
X4455230Y762519D01*
X4446014Y778481D01*
X4432981Y791514D01*
X4417019Y800729D01*
X4399216Y805500D01*
X4380784D01*
X4368323Y802161D01*
X4226216D01*
X4220955Y814861D01*
X4226714Y820619D01*
X4235930Y836581D01*
X4240317Y852955D01*
X4244545Y854781D01*
X4253400Y855695D01*
X4258986Y846019D01*
X4272019Y832986D01*
X4287981Y823771D01*
X4305785Y819000D01*
X4324216D01*
X4342019Y823771D01*
X4357981Y832986D01*
X4371014Y846019D01*
X4380230Y861981D01*
X4384967Y879661D01*
X4516028Y1010723D01*
X4681529D01*
X4697381Y1001571D01*
X4715184Y996800D01*
X4733616D01*
X4751419Y1001571D01*
X4767381Y1010786D01*
X4780414Y1023819D01*
X4789629Y1039781D01*
X4794400Y1057584D01*
Y1076016D01*
X4789629Y1093819D01*
X4780414Y1109781D01*
X4767381Y1122814D01*
X4751419Y1132029D01*
X4733616Y1136800D01*
X4715184D01*
X4697381Y1132029D01*
X4681529Y1122877D01*
X4492800D01*
X4471340Y1118609D01*
X4453148Y1106453D01*
X4305662Y958967D01*
X4287981Y954229D01*
X4272019Y945014D01*
X4258986Y931981D01*
X4249771Y916019D01*
X4245925Y901668D01*
X4233652Y898860D01*
X4226777Y907258D01*
Y979300D01*
X4222509Y1000760D01*
X4210353Y1018953D01*
X3329967Y1899339D01*
X3325230Y1917019D01*
X3316014Y1932981D01*
X3302981Y1946014D01*
X3287019Y1955230D01*
X3269216Y1960000D01*
X3250784D01*
X3232981Y1955230D01*
X3221952Y1948862D01*
X3208059Y1953611D01*
X3207287Y1957491D01*
X3202604Y1964500D01*
X3207287Y1971509D01*
X3210916Y1989750D01*
Y2066250D01*
X3207287Y2084491D01*
X3202604Y2091500D01*
X3207287Y2098509D01*
X3210916Y2116750D01*
Y2193250D01*
X3207287Y2211491D01*
X3202604Y2218500D01*
X3207287Y2225509D01*
X3210916Y2243750D01*
Y2320250D01*
X3207287Y2338491D01*
X3202604Y2345500D01*
X3207287Y2352509D01*
X3210916Y2370750D01*
Y2447250D01*
X3207287Y2465491D01*
X3196954Y2480955D01*
X3181491Y2491287D01*
X3163250Y2494916D01*
X3026750D01*
X3017116Y2492999D01*
X3004416Y2502664D01*
Y2602250D01*
X3000787Y2620491D01*
X2990455Y2635955D01*
X2974991Y2646287D01*
X2956750Y2649916D01*
X2880250D01*
X2862009Y2646287D01*
X2855000Y2641604D01*
X2847991Y2646287D01*
X2842479Y2647384D01*
Y2715300D01*
X2838599Y2734809D01*
X2827548Y2751348D01*
X2774248Y2804648D01*
X2757709Y2815699D01*
X2738200Y2819580D01*
X2535716D01*
X1883400Y3471896D01*
Y3490332D01*
X1877948Y3510679D01*
X1867416Y3528921D01*
X1852521Y3543816D01*
X1834279Y3554348D01*
X1813932Y3559800D01*
X1792868D01*
X1772521Y3554348D01*
X1754279Y3543816D01*
X1739384Y3528921D01*
X1728852Y3510679D01*
X1723400Y3490332D01*
Y3469268D01*
X1728852Y3448921D01*
X1739384Y3430679D01*
X1754279Y3415784D01*
X1772521Y3405252D01*
X1792868Y3399800D01*
X1811304D01*
X2478552Y2732552D01*
X2495091Y2721501D01*
X2514600Y2717620D01*
X2579770D01*
X2588309Y2704920D01*
X2586331Y2689900D01*
Y2657821D01*
X2576514Y2649764D01*
X2575750Y2649916D01*
X2499250D01*
X2481009Y2646287D01*
X2474000Y2641604D01*
X2466991Y2646287D01*
X2460799Y2647519D01*
X2457599Y2663609D01*
X2446548Y2680148D01*
X1991848Y3134848D01*
X1975309Y3145899D01*
X1955800Y3149780D01*
X1570517D01*
X863780Y3856516D01*
Y4064000D01*
X859899Y4083509D01*
X848848Y4100048D01*
X721848Y4227048D01*
X705309Y4238099D01*
X685800Y4241980D01*
X622035D01*
X615684Y4252978D01*
X624811Y4268787D01*
X633500Y4301214D01*
Y4334786D01*
X624811Y4367213D01*
X608026Y4396287D01*
X584287Y4420026D01*
X555213Y4436811D01*
X548351Y4438650D01*
Y4451350D01*
X555213Y4453189D01*
X584287Y4469974D01*
X608026Y4493713D01*
X624811Y4522787D01*
X633500Y4555214D01*
Y4588786D01*
X624811Y4621213D01*
X608026Y4650287D01*
X584287Y4674026D01*
X555213Y4690811D01*
X548351Y4692650D01*
Y4705350D01*
X555213Y4707189D01*
X584287Y4723974D01*
X608026Y4747713D01*
X624811Y4776787D01*
X633500Y4809214D01*
Y4842786D01*
X624811Y4875213D01*
X608026Y4904287D01*
X584287Y4928026D01*
X555213Y4944811D01*
X548351Y4946650D01*
Y4959350D01*
X555213Y4961189D01*
X584287Y4977974D01*
X608026Y5001713D01*
X624811Y5030787D01*
X633500Y5063214D01*
Y5096786D01*
X624811Y5129213D01*
X608026Y5158287D01*
X584287Y5182026D01*
X555213Y5198811D01*
X522786Y5207500D01*
X489214D01*
X456787Y5198811D01*
X427713Y5182026D01*
X403974Y5158287D01*
X392200Y5137894D01*
X379500Y5141297D01*
Y5207500D01*
X124500D01*
Y4952500D01*
X190703D01*
X194106Y4939800D01*
X173713Y4928026D01*
X149974Y4904287D01*
X133189Y4875213D01*
X124500Y4842786D01*
Y4809214D01*
X133189Y4776787D01*
X149974Y4747713D01*
X173713Y4723974D01*
X202787Y4707189D01*
X209649Y4705350D01*
Y4692650D01*
X202787Y4690811D01*
X173713Y4674026D01*
X149974Y4650287D01*
X133189Y4621213D01*
X124500Y4588786D01*
Y4555214D01*
X133189Y4522787D01*
X149974Y4493713D01*
X173713Y4469974D01*
X202787Y4453189D01*
X209649Y4451350D01*
Y4438650D01*
X202787Y4436811D01*
X173713Y4420026D01*
X149974Y4396287D01*
X133189Y4367213D01*
X124500Y4334786D01*
Y4301214D01*
X133189Y4268787D01*
X149974Y4239713D01*
X173713Y4215974D01*
X202787Y4199189D01*
X209649Y4197350D01*
Y4184650D01*
X202787Y4182811D01*
X173713Y4166026D01*
X149974Y4142287D01*
X133189Y4113213D01*
X124500Y4080786D01*
Y4047214D01*
X133189Y4014787D01*
X149974Y3985713D01*
X173713Y3961974D01*
X202787Y3945189D01*
X209649Y3943350D01*
Y3930650D01*
X202787Y3928811D01*
X173713Y3912026D01*
X149974Y3888287D01*
X133189Y3859213D01*
X124500Y3826786D01*
Y3793214D01*
X133189Y3760787D01*
X149974Y3731713D01*
X173713Y3707974D01*
X202787Y3691189D01*
X209649Y3689350D01*
Y3676650D01*
X202787Y3674811D01*
X173713Y3658026D01*
X149974Y3634287D01*
X133189Y3605213D01*
X124500Y3572786D01*
Y3539214D01*
X133189Y3506787D01*
X149974Y3477713D01*
X173713Y3453974D01*
X202787Y3437189D01*
X209649Y3435350D01*
Y3422650D01*
X202787Y3420811D01*
X173713Y3404026D01*
X149974Y3380287D01*
X133189Y3351213D01*
X124500Y3318786D01*
Y3285214D01*
X133189Y3252787D01*
X149974Y3223713D01*
X173713Y3199974D01*
X202787Y3183189D01*
X209649Y3181350D01*
Y3168650D01*
X202787Y3166811D01*
X173713Y3150026D01*
X149974Y3126287D01*
X133189Y3097213D01*
X124500Y3064786D01*
Y3031214D01*
X133189Y2998787D01*
X149974Y2969713D01*
X173713Y2945974D01*
X202787Y2929189D01*
X209649Y2927350D01*
Y2914650D01*
X202787Y2912811D01*
X173713Y2896026D01*
X149974Y2872287D01*
X133189Y2843213D01*
X124500Y2810786D01*
Y2777214D01*
X133189Y2744787D01*
X149974Y2715713D01*
X173713Y2691974D01*
X202787Y2675189D01*
X209055Y2673509D01*
Y2660361D01*
X193626Y2656227D01*
X164553Y2639441D01*
X140814Y2615702D01*
X124028Y2586629D01*
X115339Y2554201D01*
Y2520629D01*
X124028Y2488202D01*
X140814Y2459128D01*
X164553Y2435390D01*
X193626Y2418604D01*
X200488Y2416765D01*
Y2404065D01*
X193626Y2402227D01*
X164553Y2385441D01*
X140814Y2361702D01*
X124028Y2332629D01*
X115339Y2300201D01*
Y2266629D01*
X124028Y2234202D01*
X140814Y2205128D01*
X164553Y2181390D01*
X193626Y2164604D01*
X201544Y2162482D01*
X200646Y2149575D01*
X173713Y2134026D01*
X149974Y2110287D01*
X133189Y2081213D01*
X124500Y2048786D01*
Y2015214D01*
X133189Y1982787D01*
X149974Y1953713D01*
X173713Y1929974D01*
X202787Y1913189D01*
X209649Y1911350D01*
Y1898650D01*
X202787Y1896811D01*
X173713Y1880026D01*
X149974Y1856287D01*
X133189Y1827213D01*
X124500Y1794786D01*
Y1761214D01*
X133189Y1728787D01*
X149974Y1699713D01*
X173713Y1675974D01*
X202787Y1659189D01*
X209649Y1657350D01*
Y1644650D01*
X202787Y1642811D01*
X173713Y1626026D01*
X149974Y1602287D01*
X133189Y1573213D01*
X124500Y1540786D01*
Y1507214D01*
X133189Y1474787D01*
X149974Y1445713D01*
X173713Y1421974D01*
X202787Y1405189D01*
X209649Y1403350D01*
Y1390650D01*
X202787Y1388811D01*
X173713Y1372026D01*
X149974Y1348287D01*
X133189Y1319213D01*
X124500Y1286786D01*
Y1253214D01*
X133189Y1220787D01*
X149974Y1191713D01*
X173713Y1167974D01*
X202787Y1151189D01*
X209649Y1149350D01*
Y1136650D01*
X202787Y1134811D01*
X173713Y1118026D01*
X149974Y1094287D01*
X133189Y1065213D01*
X124500Y1032786D01*
Y999214D01*
X133189Y966787D01*
X149974Y937713D01*
X173713Y913974D01*
X202787Y897189D01*
X209649Y895350D01*
Y882650D01*
X202787Y880811D01*
X173713Y864026D01*
X149974Y840287D01*
X133189Y811213D01*
X124500Y778786D01*
Y745214D01*
X133189Y712787D01*
X149974Y683713D01*
X173713Y659974D01*
X202787Y643189D01*
X209649Y641350D01*
Y628650D01*
X202787Y626811D01*
X173713Y610026D01*
X149974Y586287D01*
X133189Y557213D01*
X124500Y524786D01*
Y491214D01*
X133189Y458787D01*
X149974Y429713D01*
X173713Y405974D01*
X194835Y393780D01*
X195264Y392560D01*
X194270Y379441D01*
X167573Y364028D01*
X141972Y338427D01*
X123870Y307073D01*
X116348Y279000D01*
X252000D01*
Y254000D01*
X277000D01*
Y118348D01*
X305073Y125870D01*
X336427Y143972D01*
X362028Y169573D01*
X377441Y196270D01*
X390560Y197264D01*
X391780Y196835D01*
X403974Y175713D01*
X427713Y151974D01*
X456787Y135189D01*
X489214Y126500D01*
X522786D01*
X555213Y135189D01*
X584287Y151974D01*
X608026Y175713D01*
X617905Y192825D01*
X754000D01*
X777411Y197481D01*
X797257Y210743D01*
X1143258Y556743D01*
X1156519Y576589D01*
X1161175Y600000D01*
Y1274660D01*
X1213121Y1326606D01*
X1218348Y1327513D01*
X1228422Y1325506D01*
X1232043Y1319124D01*
X1229084Y1304250D01*
Y1227750D01*
X1232713Y1209509D01*
X1237396Y1202500D01*
X1232713Y1195491D01*
X1229084Y1177250D01*
Y1100750D01*
X1232713Y1082509D01*
X1237396Y1075500D01*
X1232713Y1068491D01*
X1229084Y1050250D01*
Y973750D01*
X1232713Y955509D01*
X1237396Y948500D01*
X1232713Y941491D01*
X1229084Y923250D01*
Y846750D01*
X1232102Y831577D01*
X1223293Y818393D01*
X1218888Y796250D01*
Y783000D01*
X1471111D01*
Y796250D01*
X1466707Y818393D01*
X1457897Y831577D01*
X1460916Y846750D01*
Y923250D01*
X1457287Y941491D01*
X1452604Y948500D01*
X1457287Y955509D01*
X1460916Y973750D01*
Y1050250D01*
X1457287Y1068491D01*
X1452604Y1075500D01*
X1457287Y1082509D01*
X1460916Y1100750D01*
Y1177250D01*
X1457287Y1195491D01*
X1452604Y1202500D01*
X1457287Y1209509D01*
X1458383Y1215020D01*
X1462600D01*
X1482109Y1218901D01*
X1498648Y1229952D01*
X1510364Y1241668D01*
X1521415Y1258207D01*
X1525295Y1277716D01*
Y1294284D01*
X1524214Y1299719D01*
X1534648Y1310152D01*
X1545699Y1326691D01*
X1549580Y1346200D01*
Y1767705D01*
X1559655Y1775436D01*
X1564268Y1774200D01*
X1582704D01*
X1616562Y1740342D01*
Y1348510D01*
X1620443Y1329001D01*
X1631494Y1312462D01*
X1940005Y1003952D01*
X1956543Y992901D01*
X1976052Y989020D01*
X2979084D01*
Y973750D01*
X2982713Y955509D01*
X2987396Y948500D01*
X2982713Y941491D01*
X2979084Y923250D01*
Y915812D01*
X2975000Y912679D01*
Y820000D01*
X2925000D01*
Y906476D01*
X2915261Y903866D01*
X2894739Y892018D01*
X2877982Y875261D01*
X2866133Y854738D01*
X2864573Y848915D01*
X2850944Y847121D01*
X2844016Y859121D01*
X2829121Y874016D01*
X2810879Y884548D01*
X2790532Y890000D01*
X2783208D01*
X2775847Y890969D01*
X2074766D01*
X2067932Y892800D01*
X2046868D01*
X2026521Y887348D01*
X2008279Y876816D01*
X1993384Y861921D01*
X1982852Y843679D01*
X1977400Y823332D01*
Y802268D01*
X1982852Y781921D01*
X1993384Y763679D01*
X2008279Y748784D01*
X2026521Y738252D01*
X2046868Y732800D01*
X2067932D01*
X2074766Y734631D01*
X2752184D01*
X2769468Y730000D01*
X2790532D01*
X2810879Y735452D01*
X2829121Y745984D01*
X2844016Y760879D01*
X2854548Y779121D01*
X2854923Y780521D01*
X2868324Y781466D01*
X2877982Y764739D01*
X2894739Y747982D01*
X2915261Y736133D01*
X2928117Y732689D01*
X2950579Y710226D01*
X2966768Y697804D01*
X2975608Y694142D01*
X2985836Y678836D01*
X3004607Y666293D01*
X3023758Y662484D01*
X3022507Y649784D01*
X1417492D01*
X1416242Y662484D01*
X1435392Y666293D01*
X1454164Y678836D01*
X1466707Y697607D01*
X1471111Y719750D01*
Y733000D01*
X1218888D01*
Y719750D01*
X1223293Y697607D01*
X1235836Y678836D01*
X1254607Y666293D01*
X1276750Y661888D01*
X1315757D01*
X1317008Y649188D01*
X1304393Y646679D01*
X1291162Y637838D01*
X1282321Y624607D01*
X1279216Y609000D01*
Y53732D01*
X1075134D01*
X1071945Y66432D01*
X1090823Y85310D01*
X1105765Y111191D01*
X1110805Y130000D01*
X889195D01*
X894235Y111191D01*
X909178Y85310D01*
X928055Y66432D01*
X924866Y53732D01*
X53732D01*
Y5299265D01*
X66432Y5302277D01*
X72226Y5294726D01*
X88416Y5282304D01*
X107269Y5274495D01*
X127500Y5271831D01*
X652500D01*
X672731Y5274495D01*
X691584Y5282304D01*
X707774Y5294726D01*
X715657Y5305000D01*
X934343D01*
X942226Y5294726D01*
X958416Y5282304D01*
X977269Y5274495D01*
X997500Y5271831D01*
X1522500D01*
X1542731Y5274495D01*
X1561584Y5282304D01*
X1577774Y5294726D01*
X1585657Y5305000D01*
X1714343D01*
X1722226Y5294726D01*
X1738416Y5282304D01*
X1757269Y5274495D01*
X1777500Y5271831D01*
X2302500D01*
X2322731Y5274495D01*
X2341584Y5282304D01*
X2357774Y5294726D01*
X2365657Y5305000D01*
X2544343D01*
X2552227Y5294726D01*
X2568416Y5282304D01*
X2587269Y5274495D01*
X2607500Y5271831D01*
X3132500D01*
X3152732Y5274495D01*
X3171584Y5282304D01*
X3187774Y5294726D01*
X3195657Y5305000D01*
X3374343D01*
X3382226Y5294726D01*
X3398416Y5282304D01*
X3417269Y5274495D01*
X3437500Y5271831D01*
X3962500D01*
X3982731Y5274495D01*
X4001584Y5282304D01*
X4017774Y5294726D01*
X4025657Y5305000D01*
X4174343D01*
X4182226Y5294726D01*
X4198416Y5282304D01*
X4217268Y5274495D01*
X4237500Y5271831D01*
X4762500D01*
X4782731Y5274495D01*
X4801584Y5282304D01*
X4817773Y5294726D01*
X4825657Y5305000D01*
X4946267D01*
Y53732D01*
D02*
G37*
G36*
X2862009Y2421713D02*
X2880250Y2418084D01*
X2956750D01*
X2966384Y2420001D01*
X2979084Y2410336D01*
Y2370750D01*
X2982713Y2352509D01*
X2987396Y2345500D01*
X2982713Y2338491D01*
X2979084Y2320250D01*
Y2243750D01*
X2982713Y2225509D01*
X2987396Y2218500D01*
X2982713Y2211491D01*
X2979084Y2193250D01*
Y2116750D01*
X2982713Y2098509D01*
X2987396Y2091500D01*
X2982713Y2084491D01*
X2979084Y2066250D01*
Y1989750D01*
X2982713Y1971509D01*
X2987396Y1964500D01*
X2982713Y1957491D01*
X2979084Y1939250D01*
Y1862750D01*
X2982713Y1844509D01*
X2987396Y1837500D01*
X2982713Y1830491D01*
X2979084Y1812250D01*
Y1735750D01*
X2982713Y1717509D01*
X2987396Y1710500D01*
X2982713Y1703491D01*
X2979084Y1685250D01*
Y1608750D01*
X2982713Y1590509D01*
X2987396Y1583500D01*
X2982713Y1576491D01*
X2979084Y1558250D01*
Y1481750D01*
X2982713Y1463509D01*
X2987396Y1456500D01*
X2982713Y1449491D01*
X2979084Y1431250D01*
Y1354750D01*
X2982713Y1336509D01*
X2987396Y1329500D01*
X2982713Y1322491D01*
X2979084Y1304250D01*
Y1227750D01*
X2982713Y1209509D01*
X2987396Y1202500D01*
X2982713Y1195491D01*
X2979084Y1177250D01*
Y1100750D01*
X2971065Y1090980D01*
X1997169D01*
X1718522Y1369627D01*
Y1761458D01*
X1714641Y1780967D01*
X1703590Y1797506D01*
X1654800Y1846296D01*
Y1864732D01*
X1649348Y1885079D01*
X1638816Y1903321D01*
X1623921Y1918216D01*
X1605679Y1928748D01*
X1585332Y1934200D01*
X1564268D01*
X1559655Y1932964D01*
X1549580Y1940695D01*
Y2339585D01*
X1554614Y2344619D01*
X1563829Y2360581D01*
X1568600Y2378384D01*
Y2396816D01*
X1566035Y2406386D01*
X1573813Y2420882D01*
X1577991Y2421713D01*
X1585000Y2426396D01*
X1592009Y2421713D01*
X1610250Y2418084D01*
X1686750D01*
X1693057Y2419339D01*
X1702875Y2411282D01*
Y2067961D01*
X1691199Y2061220D01*
X1672580Y2042601D01*
X1659415Y2019798D01*
X1652600Y1994365D01*
Y1968035D01*
X1659415Y1942602D01*
X1672580Y1919799D01*
X1691199Y1901180D01*
X1714002Y1888015D01*
X1739435Y1881200D01*
X1765765D01*
X1791198Y1888015D01*
X1814001Y1901180D01*
X1832620Y1919799D01*
X1845785Y1942602D01*
X1852600Y1968035D01*
Y1994365D01*
X1845785Y2019798D01*
X1832620Y2042601D01*
X1825225Y2049995D01*
Y2420367D01*
X1831991Y2421713D01*
X1839000Y2426396D01*
X1846009Y2421713D01*
X1864250Y2418084D01*
X1940750D01*
X1958991Y2421713D01*
X1966000Y2426396D01*
X1973009Y2421713D01*
X1991250Y2418084D01*
X2067750D01*
X2085991Y2421713D01*
X2093000Y2426396D01*
X2100009Y2421713D01*
X2118250Y2418084D01*
X2194750D01*
X2212991Y2421713D01*
X2220000Y2426396D01*
X2227009Y2421713D01*
X2245250Y2418084D01*
X2321750D01*
X2339991Y2421713D01*
X2347000Y2426396D01*
X2354009Y2421713D01*
X2372250Y2418084D01*
X2448750D01*
X2466991Y2421713D01*
X2474000Y2426396D01*
X2481009Y2421713D01*
X2499250Y2418084D01*
X2575750D01*
X2593991Y2421713D01*
X2601000Y2426396D01*
X2608009Y2421713D01*
X2626250Y2418084D01*
X2702750D01*
X2720991Y2421713D01*
X2728000Y2426396D01*
X2735009Y2421713D01*
X2753250Y2418084D01*
X2829750D01*
X2847991Y2421713D01*
X2855000Y2426396D01*
X2862009Y2421713D01*
D02*
G37*
%LPC*%
G36*
X1373732Y4953980D02*
X1352668D01*
X1332321Y4948528D01*
X1314079Y4937996D01*
X1299184Y4923101D01*
X1295647Y4916974D01*
X1250726Y4872054D01*
X1238303Y4855865D01*
X1233729Y4844821D01*
X1230494Y4837012D01*
X1227831Y4816780D01*
Y4747170D01*
X1226025D01*
X1206701Y4743327D01*
X1190319Y4732381D01*
X1179373Y4715999D01*
X1175530Y4696675D01*
Y4678877D01*
X1008071D01*
X992219Y4688029D01*
X974416Y4692800D01*
X955984D01*
X938181Y4688029D01*
X922219Y4678814D01*
X909186Y4665781D01*
X899971Y4649819D01*
X895200Y4632016D01*
Y4613584D01*
X899971Y4595781D01*
X909186Y4579819D01*
X922219Y4566786D01*
X938181Y4557571D01*
X955984Y4552800D01*
X974416D01*
X992219Y4557571D01*
X1008071Y4566723D01*
X1175530D01*
Y4563325D01*
X1179373Y4544002D01*
X1190319Y4527620D01*
X1196728Y4523337D01*
Y4508063D01*
X1190319Y4503781D01*
X1179373Y4487399D01*
X1175530Y4468075D01*
Y4438609D01*
X1172468Y4438206D01*
X1153615Y4430396D01*
X1137426Y4417974D01*
X1117005Y4397553D01*
X1110879Y4394016D01*
X1095984Y4379121D01*
X1085452Y4360879D01*
X1080000Y4340532D01*
Y4319468D01*
X1085452Y4299121D01*
X1095984Y4280879D01*
X1110879Y4265984D01*
X1129121Y4255452D01*
X1149468Y4250000D01*
X1170532D01*
X1190878Y4255452D01*
X1209121Y4265984D01*
X1224016Y4280879D01*
X1225958Y4284243D01*
X1226025Y4284230D01*
X1333975D01*
X1353298Y4288074D01*
X1369680Y4299020D01*
X1380626Y4315402D01*
X1384470Y4334725D01*
Y4468075D01*
X1380626Y4487399D01*
X1369680Y4503781D01*
X1363271Y4508063D01*
Y4523337D01*
X1369680Y4527620D01*
X1380626Y4544002D01*
X1382184Y4551831D01*
X1940121D01*
X2150953Y4341000D01*
X2150000Y4337444D01*
Y4302556D01*
X2159030Y4268857D01*
X2176474Y4238643D01*
X2201143Y4213974D01*
X2231357Y4196530D01*
X2265056Y4187500D01*
X2299944D01*
X2333643Y4196530D01*
X2363857Y4213974D01*
X2388526Y4238643D01*
X2405970Y4268857D01*
X2415000Y4302556D01*
Y4337444D01*
X2405970Y4371143D01*
X2388526Y4401357D01*
X2363857Y4426026D01*
X2333643Y4443470D01*
X2299944Y4452500D01*
X2265056D01*
X2261500Y4451547D01*
X2027773Y4685274D01*
X2011584Y4697696D01*
X2000540Y4702271D01*
X1992731Y4705505D01*
X1972500Y4708169D01*
X1384168D01*
Y4784401D01*
X1406194Y4806427D01*
X1412321Y4809964D01*
X1427216Y4824859D01*
X1437748Y4843101D01*
X1443200Y4863448D01*
Y4884512D01*
X1437748Y4904859D01*
X1427216Y4923101D01*
X1412321Y4937996D01*
X1394078Y4948528D01*
X1373732Y4953980D01*
D02*
G37*
G36*
X2454500Y3615001D02*
X2383780D01*
Y3544280D01*
X2454500D01*
Y3615001D01*
D02*
G37*
G36*
X4111000Y3382500D02*
X3993500D01*
Y3265000D01*
X4111000D01*
Y3382500D01*
D02*
G37*
G36*
X4278500D02*
X4161000D01*
Y3240000D01*
Y3097500D01*
X4278500D01*
Y3146157D01*
X4291200Y3151417D01*
X4308643Y3133974D01*
X4338857Y3116530D01*
X4372556Y3107500D01*
X4407444D01*
X4441143Y3116530D01*
X4471357Y3133974D01*
X4496026Y3158643D01*
X4509668Y3182271D01*
X4524333D01*
X4537974Y3158643D01*
X4562643Y3133974D01*
X4592857Y3116530D01*
X4626556Y3107500D01*
X4661444D01*
X4695143Y3116530D01*
X4725357Y3133974D01*
X4750026Y3158643D01*
X4767470Y3188857D01*
X4776500Y3222556D01*
Y3257444D01*
X4767470Y3291143D01*
X4750026Y3321357D01*
X4725357Y3346026D01*
X4695143Y3363470D01*
X4661444Y3372500D01*
X4626556D01*
X4592857Y3363470D01*
X4562643Y3346026D01*
X4537974Y3321357D01*
X4524333Y3297729D01*
X4509668D01*
X4496026Y3321357D01*
X4471357Y3346026D01*
X4441143Y3363470D01*
X4407444Y3372500D01*
X4372556D01*
X4338857Y3363470D01*
X4308643Y3346026D01*
X4291200Y3328583D01*
X4278500Y3333843D01*
Y3382500D01*
D02*
G37*
G36*
X4111000Y3215000D02*
X3993500D01*
Y3097500D01*
X4111000D01*
Y3215000D01*
D02*
G37*
G36*
X2934944Y4452500D02*
X2900056D01*
X2866357Y4443470D01*
X2836143Y4426026D01*
X2811474Y4401357D01*
X2794030Y4371143D01*
X2785000Y4337444D01*
Y4302556D01*
X2794030Y4268857D01*
X2811474Y4238643D01*
X2818284Y4231833D01*
Y4216331D01*
X2548653Y3946700D01*
X2487760D01*
Y3748420D01*
X2487760Y3739700D01*
X2476709Y3735720D01*
X2383780D01*
Y3665001D01*
X2479499D01*
Y3640001D01*
X2504499D01*
Y3544280D01*
X2574131D01*
X2575220Y3544280D01*
X2586831Y3541652D01*
Y3373352D01*
X2586701Y3373327D01*
X2570319Y3362381D01*
X2559374Y3345999D01*
X2555530Y3326675D01*
Y3193325D01*
X2559374Y3174002D01*
X2570319Y3157620D01*
X2576729Y3153337D01*
Y3138063D01*
X2570319Y3133781D01*
X2559374Y3117399D01*
X2555530Y3098075D01*
Y2964725D01*
X2559374Y2945402D01*
X2570319Y2929020D01*
X2586701Y2918074D01*
X2606025Y2914230D01*
X2713975D01*
X2733299Y2918074D01*
X2749681Y2929020D01*
X2760626Y2945402D01*
X2764470Y2964725D01*
Y3098075D01*
X2760626Y3117399D01*
X2749681Y3133781D01*
X2743271Y3138063D01*
Y3153337D01*
X2749681Y3157620D01*
X2760626Y3174002D01*
X2764470Y3193325D01*
Y3326675D01*
X2760626Y3345999D01*
X2749681Y3362381D01*
X2743169Y3366732D01*
Y3554280D01*
X2755720D01*
Y3725720D01*
X2597109D01*
X2587792Y3734728D01*
X2587280Y3736448D01*
X2587162Y3738420D01*
X2588108Y3739700D01*
X2659200D01*
Y3836153D01*
X2951726Y4128679D01*
X2964149Y4144868D01*
X2971958Y4163721D01*
X2974621Y4183953D01*
Y4199981D01*
X2998857Y4213974D01*
X3023526Y4238643D01*
X3040970Y4268857D01*
X3050000Y4302556D01*
Y4337444D01*
X3040970Y4371143D01*
X3023526Y4401357D01*
X2998857Y4426026D01*
X2968643Y4443470D01*
X2934944Y4452500D01*
D02*
G37*
G36*
X3926000Y1888341D02*
Y1802536D01*
X4011805D01*
X4006765Y1821345D01*
X3991823Y1847226D01*
X3970691Y1868358D01*
X3944809Y1883301D01*
X3926000Y1888341D01*
D02*
G37*
G36*
X3876000D02*
X3857191Y1883301D01*
X3831310Y1868358D01*
X3810178Y1847226D01*
X3795235Y1821345D01*
X3790195Y1802536D01*
X3876000D01*
Y1888341D01*
D02*
G37*
G36*
X4011805Y1752536D02*
X3926000D01*
Y1666731D01*
X3944809Y1671771D01*
X3970691Y1686713D01*
X3991823Y1707845D01*
X4006765Y1733726D01*
X4011805Y1752536D01*
D02*
G37*
G36*
X3876000D02*
X3790195D01*
X3795235Y1733726D01*
X3810178Y1707845D01*
X3831310Y1686713D01*
X3857191Y1671771D01*
X3876000Y1666731D01*
Y1752536D01*
D02*
G37*
G36*
X4095000Y1470805D02*
Y1385000D01*
X4180805D01*
X4175765Y1403809D01*
X4160823Y1429691D01*
X4139690Y1450823D01*
X4113809Y1465765D01*
X4095000Y1470805D01*
D02*
G37*
G36*
X4045000D02*
X4026191Y1465765D01*
X4000310Y1450823D01*
X3979177Y1429691D01*
X3964235Y1403809D01*
X3959195Y1385000D01*
X4045000D01*
Y1470805D01*
D02*
G37*
G36*
X4180805Y1335000D02*
X4095000D01*
Y1249195D01*
X4113809Y1254235D01*
X4139690Y1269178D01*
X4160823Y1290310D01*
X4175765Y1316191D01*
X4180805Y1335000D01*
D02*
G37*
G36*
X4045000D02*
X3959195D01*
X3964235Y1316191D01*
X3979177Y1290310D01*
X4000310Y1269178D01*
X4026191Y1254235D01*
X4045000Y1249195D01*
Y1335000D01*
D02*
G37*
G36*
X4607000Y830571D02*
Y703000D01*
X4682863D01*
Y733000D01*
X4679426Y759105D01*
X4669350Y783431D01*
X4653321Y804321D01*
X4632431Y820350D01*
X4608105Y830426D01*
X4607000Y830571D01*
D02*
G37*
G36*
X3693000D02*
X3691895Y830426D01*
X3667569Y820350D01*
X3646680Y804321D01*
X3630651Y783431D01*
X3620574Y759105D01*
X3617138Y733000D01*
Y703000D01*
X3693000D01*
Y830571D01*
D02*
G37*
G36*
X4682863Y653000D02*
X4607000D01*
Y525428D01*
X4608105Y525574D01*
X4632431Y535650D01*
X4653321Y551679D01*
X4669350Y572569D01*
X4679426Y596895D01*
X4682863Y623000D01*
Y653000D01*
D02*
G37*
G36*
X3693000D02*
X3617138D01*
Y623000D01*
X3620574Y596895D01*
X3630651Y572569D01*
X3646680Y551679D01*
X3667569Y535650D01*
X3691895Y525574D01*
X3693000Y525428D01*
Y653000D01*
D02*
G37*
G36*
X4607000Y397571D02*
Y285000D01*
X4682863D01*
Y300000D01*
X4679426Y326105D01*
X4669350Y350431D01*
X4653321Y371321D01*
X4632431Y387349D01*
X4608105Y397426D01*
X4607000Y397571D01*
D02*
G37*
G36*
X3743000D02*
Y285000D01*
X3818863D01*
Y300000D01*
X3815426Y326105D01*
X3805350Y350431D01*
X3789321Y371321D01*
X3768431Y387349D01*
X3744105Y397426D01*
X3743000Y397571D01*
D02*
G37*
G36*
X4557000D02*
X4555895Y397426D01*
X4531569Y387349D01*
X4510679Y371321D01*
X4494650Y350431D01*
X4484574Y326105D01*
X4481137Y300000D01*
Y285000D01*
X4557000D01*
Y397571D01*
D02*
G37*
G36*
X3693000D02*
X3691895Y397426D01*
X3667569Y387349D01*
X3646680Y371321D01*
X3630651Y350431D01*
X3620574Y326105D01*
X3617138Y300000D01*
Y285000D01*
X3693000D01*
Y397571D01*
D02*
G37*
G36*
X1025000Y265805D02*
Y180000D01*
X1110805D01*
X1105765Y198810D01*
X1090823Y224691D01*
X1069691Y245823D01*
X1043809Y260765D01*
X1025000Y265805D01*
D02*
G37*
G36*
X975000D02*
X956191Y260765D01*
X930310Y245823D01*
X909178Y224691D01*
X894235Y198810D01*
X889195Y180000D01*
X975000D01*
Y265805D01*
D02*
G37*
G36*
X4682863Y235000D02*
X4607000D01*
Y122429D01*
X4608105Y122574D01*
X4632431Y132650D01*
X4653321Y148679D01*
X4669350Y169569D01*
X4679426Y193895D01*
X4682863Y220000D01*
Y235000D01*
D02*
G37*
G36*
X3818863D02*
X3743000D01*
Y122429D01*
X3744105Y122574D01*
X3768431Y132650D01*
X3789321Y148679D01*
X3805350Y169569D01*
X3815426Y193895D01*
X3818863Y220000D01*
Y235000D01*
D02*
G37*
G36*
X3693000D02*
X3617138D01*
Y220000D01*
X3620574Y193895D01*
X3630651Y169569D01*
X3646680Y148679D01*
X3667569Y132650D01*
X3691895Y122574D01*
X3693000Y122429D01*
Y235000D01*
D02*
G37*
G36*
X4557000D02*
X4481137D01*
Y220000D01*
X4484574Y193895D01*
X4494650Y169569D01*
X4510679Y148679D01*
X4531569Y132650D01*
X4555895Y122574D01*
X4557000Y122429D01*
Y235000D01*
D02*
G37*
G36*
X227000Y229000D02*
X116348D01*
X123870Y200927D01*
X141972Y169573D01*
X167573Y143972D01*
X198927Y125870D01*
X227000Y118348D01*
Y229000D01*
D02*
G37*
G36*
X2185000Y1766112D02*
X2171750D01*
X2149607Y1761707D01*
X2140000Y1755288D01*
X2130392Y1761707D01*
X2108250Y1766112D01*
X2095000D01*
Y1670000D01*
X2045000D01*
Y1766112D01*
X2031750D01*
X2009607Y1761707D01*
X2000000Y1755288D01*
X1990393Y1761707D01*
X1968250Y1766112D01*
X1955000D01*
Y1670000D01*
X1930000D01*
Y1645000D01*
X1833888D01*
Y1631750D01*
X1838293Y1609607D01*
X1844712Y1600000D01*
X1838293Y1590393D01*
X1833888Y1568250D01*
Y1555000D01*
X1930000D01*
Y1505000D01*
X1833888D01*
Y1491750D01*
X1838293Y1469607D01*
X1844712Y1460000D01*
X1838293Y1450393D01*
X1833888Y1428250D01*
Y1415000D01*
X1930000D01*
Y1390000D01*
X1955000D01*
Y1293888D01*
X1968250D01*
X1990393Y1298293D01*
X2000000Y1304712D01*
X2009607Y1298293D01*
X2031750Y1293888D01*
X2045000D01*
Y1390000D01*
X2095000D01*
Y1293888D01*
X2108250D01*
X2130392Y1298293D01*
X2140000Y1304712D01*
X2149607Y1298293D01*
X2171750Y1293888D01*
X2185000D01*
Y1390000D01*
X2210000D01*
Y1415000D01*
X2306111D01*
Y1428250D01*
X2301707Y1450393D01*
X2295288Y1460000D01*
X2301707Y1469607D01*
X2306111Y1491750D01*
Y1505000D01*
X2210000D01*
Y1555000D01*
X2306111D01*
Y1568250D01*
X2301707Y1590393D01*
X2295288Y1600000D01*
X2301707Y1609607D01*
X2306111Y1631750D01*
Y1645000D01*
X2210000D01*
Y1670000D01*
X2185000D01*
Y1766112D01*
D02*
G37*
G36*
X2248250D02*
X2235000D01*
Y1695000D01*
X2306111D01*
Y1708250D01*
X2301707Y1730393D01*
X2289164Y1749164D01*
X2270392Y1761707D01*
X2248250Y1766112D01*
D02*
G37*
G36*
X1905000D02*
X1891750D01*
X1869607Y1761707D01*
X1850836Y1749164D01*
X1838293Y1730393D01*
X1833888Y1708250D01*
Y1695000D01*
X1905000D01*
Y1766112D01*
D02*
G37*
G36*
X2685000Y1680805D02*
Y1595000D01*
X2770805D01*
X2765765Y1613809D01*
X2750823Y1639690D01*
X2729691Y1660822D01*
X2703809Y1675765D01*
X2685000Y1680805D01*
D02*
G37*
G36*
X2635000D02*
X2616191Y1675765D01*
X2590310Y1660822D01*
X2569177Y1639690D01*
X2554235Y1613809D01*
X2549195Y1595000D01*
X2635000D01*
Y1680805D01*
D02*
G37*
G36*
X2770805Y1545000D02*
X2685000D01*
Y1459195D01*
X2703809Y1464235D01*
X2729691Y1479177D01*
X2750823Y1500309D01*
X2765765Y1526190D01*
X2770805Y1545000D01*
D02*
G37*
G36*
X2635000D02*
X2549195D01*
X2554235Y1526190D01*
X2569177Y1500309D01*
X2590310Y1479177D01*
X2616191Y1464235D01*
X2635000Y1459195D01*
Y1545000D01*
D02*
G37*
G36*
X2306111Y1365000D02*
X2235000D01*
Y1293888D01*
X2248250D01*
X2270392Y1298293D01*
X2289164Y1310836D01*
X2301707Y1329607D01*
X2306111Y1351750D01*
Y1365000D01*
D02*
G37*
G36*
X1905000D02*
X1833888D01*
Y1351750D01*
X1838293Y1329607D01*
X1850836Y1310836D01*
X1869607Y1298293D01*
X1891750Y1293888D01*
X1905000D01*
Y1365000D01*
D02*
G37*
%LPD*%
D12*
X1280000Y4630000D02*
D03*
Y4401400D02*
D03*
X2660000Y3031400D02*
D03*
Y3260000D02*
D03*
D24*
X1121648Y1700000D02*
X1195648Y1774000D01*
X1100000Y1700000D02*
X1121648D01*
X1764050Y1992650D02*
Y2522550D01*
X1775500Y2534000D01*
X1752600Y1981200D02*
X1764050Y1992650D01*
X762000Y762000D02*
X900000Y900000D01*
Y1900000D02*
X1155000Y2155000D01*
X900000Y900000D02*
Y1900000D01*
X506000Y762000D02*
X762000D01*
X1155000Y2155000D02*
X1345000D01*
X1100000Y600000D02*
Y1300000D01*
X1120000Y1520000D02*
X1345000D01*
X1000000Y1400000D02*
X1120000Y1520000D01*
X1100000Y1300000D02*
X1193000Y1393000D01*
X1000000Y700000D02*
Y1400000D01*
X1193000Y1393000D02*
X1345000D01*
X754000Y254000D02*
X1100000Y600000D01*
X808000Y508000D02*
X1000000Y700000D01*
X1195648Y1774000D02*
X1345000D01*
X506000Y508000D02*
X808000D01*
X506000Y254000D02*
X754000D01*
D25*
X3910000Y736600D02*
X4388900D01*
X4390000Y735500D01*
D26*
X730150Y5500000D02*
Y5839850D01*
X510000Y6060000D02*
X730150Y5839850D01*
X1810000Y6070000D02*
X2030150Y5849850D01*
Y5500000D02*
Y5849850D01*
X3100000Y6070000D02*
X3330000Y5840000D01*
Y5500000D02*
Y5840000D01*
X4410000Y6060000D02*
X4660300Y5809700D01*
Y5500000D02*
Y5809700D01*
X5710000Y6070000D02*
X5930150Y5849850D01*
Y5500000D02*
Y5849850D01*
X7010000Y6070000D02*
X7260300Y5819700D01*
Y5500000D02*
Y5819700D01*
Y6600000D02*
Y6919700D01*
X7010000Y7170000D02*
X7260300Y6919700D01*
X5930000Y6600000D02*
Y6950000D01*
X5710000Y7170000D02*
X5930000Y6950000D01*
X4400000Y7170000D02*
X4630150Y6939850D01*
Y6600000D02*
Y6939850D01*
X3360300Y6600000D02*
Y6919700D01*
X3110000Y7170000D02*
X3360300Y6919700D01*
X2020000Y6600000D02*
Y6955000D01*
X1805000Y7170000D02*
X2020000Y6955000D01*
X760300Y6600000D02*
Y6914700D01*
X505000Y7170000D02*
X760300Y6914700D01*
X3005853Y765500D02*
X3087500D01*
X2951353Y820000D02*
X3005853Y765500D01*
X2950000Y820000D02*
X2951353D01*
X3087500Y765500D02*
X3095000Y758000D01*
X2057400Y812800D02*
X2775847D01*
X2778647Y810000D02*
X2780000D01*
X2775847Y812800D02*
X2778647Y810000D01*
X2070000Y1600000D02*
Y1670000D01*
Y1530000D02*
Y1600000D01*
Y1460000D02*
Y1530000D01*
Y1390000D02*
Y1460000D01*
X2140000Y1530000D02*
X2210000D01*
X2070000D02*
X2140000D01*
X2000000D02*
X2070000D01*
X1930000D02*
X2000000D01*
X3095000Y1393000D02*
X3246066D01*
X3290000Y1436934D01*
Y1570000D01*
X1254000Y4362700D02*
X1280000Y4388700D01*
X1192700Y4362700D02*
X1254000D01*
X1160000Y4330000D02*
X1192700Y4362700D01*
X1280000Y4388700D02*
Y4401400D01*
X1306000Y4656000D02*
Y4816780D01*
X1363200Y4873980D01*
X1280000Y4630000D02*
X1306000Y4656000D01*
X1972500Y4630000D02*
X2282500Y4320000D01*
X1280000Y4630000D02*
X1972500D01*
X2896452Y4183953D02*
Y4298953D01*
X2573480Y3843200D02*
Y3860980D01*
X2896452Y4183953D01*
Y4298953D02*
X2917500Y4320000D01*
X2664500Y2689900D02*
X2667000Y2692400D01*
X2664500Y2534000D02*
Y2689900D01*
X2665000Y3635000D02*
X2670000Y3640000D01*
X2660000Y3260000D02*
X2665000Y3265000D01*
Y3635000D01*
D27*
X4007460Y945540D02*
Y1012540D01*
X3260000Y1760000D02*
X4007460Y1012540D01*
Y945540D02*
X4013200Y939800D01*
X4170700Y863600D02*
Y979300D01*
X3260000Y1890000D02*
X4170700Y979300D01*
X1272800Y4622800D02*
X1280000Y4630000D01*
X965200Y4622800D02*
X1272800D01*
X4315000Y889000D02*
X4492800Y1066800D01*
X4724400D01*
D28*
X3067000Y1040000D02*
X3095000Y1012000D01*
X1667542Y1348510D02*
X1976052Y1040000D01*
X3067000D01*
X1270000Y2540000D02*
X1346200D01*
X1143000Y2667000D02*
X1270000Y2540000D01*
X1498600Y1346200D02*
Y2387600D01*
X1450000Y1297600D02*
X1498600Y1346200D01*
X1345000Y1266000D02*
X1376600Y1297600D01*
X1450000D01*
X496840Y2537415D02*
X702624Y2743200D01*
X1803400D02*
X1902500Y2644100D01*
X702624Y2743200D02*
X1803400D01*
X1462600Y1266000D02*
X1474316Y1277716D01*
Y1294284D01*
X1473200Y1295400D02*
X1474316Y1294284D01*
X1345000Y1266000D02*
X1462600D01*
X990600Y1803400D02*
X1088200Y1901000D01*
X1667542Y1348510D02*
Y1761458D01*
X1574800Y1854200D02*
X1667542Y1761458D01*
X601024Y2387600D02*
X1092200D01*
X1143000Y2336800D01*
X801320Y2274520D02*
X812800Y2286000D01*
X748520Y2274520D02*
X801320D01*
X506000Y2032000D02*
X748520Y2274520D01*
X496840Y2283415D02*
X601024Y2387600D01*
X2514600Y2768600D02*
X2738200D01*
X1803400Y3479800D02*
X2514600Y2768600D01*
X2738200D02*
X2791500Y2715300D01*
Y2534000D02*
Y2715300D01*
X252000Y4318000D02*
X379000Y4191000D01*
X685800D01*
X812800Y3835400D02*
Y4064000D01*
X685800Y4191000D02*
X812800Y4064000D01*
X1549400Y3098800D02*
X1955800D01*
X812800Y3835400D02*
X1549400Y3098800D01*
X1955800D02*
X2410500Y2644100D01*
Y2534000D02*
Y2644100D01*
X1092200Y2870200D02*
X2057400D01*
X2283500Y2644100D01*
Y2534000D02*
Y2644100D01*
X660400Y3302000D02*
X1092200Y2870200D01*
X506000Y3302000D02*
X660400D01*
X506000Y2794000D02*
X1879600D01*
X2029500Y2534000D02*
Y2644100D01*
X1879600Y2794000D02*
X2029500Y2644100D01*
X1902500Y2534000D02*
Y2644100D01*
X1088200Y1901000D02*
X1345000D01*
X381000Y1143000D02*
X545171D01*
X254000Y1270000D02*
X381000Y1143000D01*
X762000Y914400D02*
Y926171D01*
X545171Y1143000D02*
X762000Y926171D01*
X252000Y1270000D02*
X254000D01*
D29*
X4136000Y3240000D02*
D03*
D30*
X4390000D02*
D03*
X4644000D02*
D03*
X2282500Y4320000D02*
D03*
X2917500D02*
D03*
X180000Y6746000D02*
D03*
Y7000000D02*
D03*
X7800000Y6746000D02*
D03*
Y7000000D02*
D03*
X180000Y5646000D02*
D03*
Y5900000D02*
D03*
X7800000Y5646000D02*
D03*
Y5900000D02*
D03*
D31*
Y6154000D02*
D03*
X180000D02*
D03*
Y7254000D02*
D03*
X7800000D02*
D03*
D32*
X2070000Y1460000D02*
D03*
X1930000D02*
D03*
X2210000D02*
D03*
X1930000Y1600000D02*
D03*
X2070000D02*
D03*
X2210000D02*
D03*
X2000000Y1390000D02*
D03*
X2140000D02*
D03*
X2000000Y1530000D02*
D03*
X2140000D02*
D03*
X2000000Y1670000D02*
D03*
X2140000D02*
D03*
D33*
X506000Y2794000D02*
D03*
X252000D02*
D03*
X506000Y3048000D02*
D03*
X252000D02*
D03*
X506000Y3302000D02*
D03*
X252000D02*
D03*
X506000Y3556000D02*
D03*
X252000D02*
D03*
X506000Y3810000D02*
D03*
X252000D02*
D03*
X506000Y4064000D02*
D03*
X252000D02*
D03*
X506000Y4318000D02*
D03*
X252000D02*
D03*
X506000Y4572000D02*
D03*
X252000D02*
D03*
X506000Y4826000D02*
D03*
X252000D02*
D03*
X506000Y5080000D02*
D03*
X242840Y2537415D02*
D03*
X496840D02*
D03*
X242840Y2283415D02*
D03*
X496840D02*
D03*
X252000Y2032000D02*
D03*
X506000D02*
D03*
X252000Y1778000D02*
D03*
X506000D02*
D03*
X252000Y1524000D02*
D03*
X506000D02*
D03*
X252000Y1270000D02*
D03*
X506000D02*
D03*
X252000Y1016000D02*
D03*
X506000D02*
D03*
X252000Y762000D02*
D03*
X506000D02*
D03*
X252000Y508000D02*
D03*
X506000D02*
D03*
X252000Y254000D02*
D03*
X506000D02*
D03*
D34*
X252000Y5080000D02*
D03*
D35*
X3861000Y628000D02*
D03*
X4439000D02*
D03*
D36*
X4582000Y678000D02*
D03*
X3718000D02*
D03*
D37*
X4582000Y260000D02*
D03*
X3718000D02*
D03*
D38*
X730150Y5500000D02*
D03*
X510000Y6060000D02*
D03*
X2030150Y5500000D02*
D03*
X1810000Y6070000D02*
D03*
X3330000Y5500000D02*
D03*
X3100000Y6070000D02*
D03*
X4660300Y5500000D02*
D03*
X4410000Y6060000D02*
D03*
X5930150Y5500000D02*
D03*
X5710000Y6070000D02*
D03*
X7260300Y5500000D02*
D03*
X7010000Y6070000D02*
D03*
X7260300Y6600000D02*
D03*
X7010000Y7170000D02*
D03*
X5930000Y6600000D02*
D03*
X5710000Y7170000D02*
D03*
X4630150Y6600000D02*
D03*
X4400000Y7170000D02*
D03*
X3360300Y6600000D02*
D03*
X3110000Y7170000D02*
D03*
X1805000Y7170000D02*
D03*
X2020000Y6600000D02*
D03*
X505000Y7170000D02*
D03*
X760300Y6600000D02*
D03*
X2950000Y820000D02*
D03*
X2780000Y810000D02*
D03*
X3290000Y1570000D02*
D03*
X2057400Y812800D02*
D03*
X990600Y1803400D02*
D03*
X1574800Y1854200D02*
D03*
X1160000Y4330000D02*
D03*
X1363200Y4873980D02*
D03*
X1345000Y885000D02*
D03*
Y2409000D02*
D03*
Y2282000D02*
D03*
X1143000Y2336800D02*
D03*
X812800Y2286000D02*
D03*
X1803400Y3479800D02*
D03*
X2156500Y2534000D02*
D03*
X2537500D02*
D03*
X1345000Y2028000D02*
D03*
Y1647000D02*
D03*
D39*
X1000000Y155000D02*
D03*
X3901000Y1777536D02*
D03*
X4070000Y1360000D02*
D03*
X2660000Y1570000D02*
D03*
D40*
X3260000Y1760000D02*
D03*
Y1890000D02*
D03*
X1143000Y2667000D02*
D03*
X1346200Y2540000D02*
D03*
X1498600Y2387600D02*
D03*
X965200Y4622800D02*
D03*
X2660000Y3031400D02*
D03*
X2667000Y2692400D02*
D03*
X1345000Y1012000D02*
D03*
X4013200Y939800D02*
D03*
X4724400Y1066800D02*
D03*
X4315000Y889000D02*
D03*
X4390000Y735500D02*
D03*
X3910000Y736600D02*
D03*
X4170700Y863600D02*
D03*
D41*
X1100000Y1700000D02*
D03*
X1752600Y1981200D02*
D03*
X762000Y914400D02*
D03*
D42*
X1345000Y1139000D02*
D03*
D43*
X2670000Y3640000D02*
D03*
X2479500D02*
D03*
D44*
X2573480Y3843200D02*
D03*
D45*
X2070000Y1530000D02*
D03*
X1930000D02*
D03*
X2210000D02*
D03*
X1930000Y1670000D02*
D03*
X2070000D02*
D03*
X2210000D02*
D03*
X1930000Y1390000D02*
D03*
X2070000D02*
D03*
X2210000D02*
D03*
D46*
X1345000Y758000D02*
D03*
Y885000D02*
D03*
Y1012000D02*
D03*
Y1139000D02*
D03*
Y1266000D02*
D03*
Y1393000D02*
D03*
Y1520000D02*
D03*
Y1647000D02*
D03*
Y1774000D02*
D03*
Y1901000D02*
D03*
Y2028000D02*
D03*
Y2155000D02*
D03*
Y2282000D02*
D03*
Y2409000D02*
D03*
X3095000D02*
D03*
Y2282000D02*
D03*
Y2155000D02*
D03*
Y2028000D02*
D03*
Y1901000D02*
D03*
Y1774000D02*
D03*
Y1647000D02*
D03*
Y1520000D02*
D03*
Y1393000D02*
D03*
Y1266000D02*
D03*
Y1139000D02*
D03*
Y1012000D02*
D03*
Y885000D02*
D03*
Y758000D02*
D03*
D47*
X1521500Y2534000D02*
D03*
X1648500D02*
D03*
X1775500D02*
D03*
X1902500D02*
D03*
X2029500D02*
D03*
X2156500D02*
D03*
X2283500D02*
D03*
X2410500D02*
D03*
X2537500D02*
D03*
X2664500D02*
D03*
X2791500D02*
D03*
X2918500D02*
D03*
%TF.MD5,1bf45bf2416c1a620c0a9c33b1af57b2*%
M02*
