%TF.GenerationSoftware,Altium Limited,Altium Designer,24.0.1 (36)*%
G04 Layer_Color=65535*
%FSLAX45Y45*%
%MOMM*%
%TF.SameCoordinates,4F873DDA-DFB5-4AF5-B95A-0F2F78DC07CA*%
%TF.FilePolarity,Positive*%
%TF.FileFunction,Legend,Top*%
%TF.Part,Single*%
G01*
G75*
%TA.AperFunction,NonConductor*%
%ADD48C,0.25400*%
%ADD49C,0.20000*%
%ADD50C,0.25000*%
%ADD51C,0.30480*%
%ADD52C,0.12700*%
D48*
X3362000Y4320000D02*
G03*
X3362000Y4320000I-762000J0D01*
G01*
X4263000Y3113000D02*
Y3367000D01*
X4009000Y3113000D02*
Y3367000D01*
X4771000D01*
Y3113000D02*
Y3367000D01*
X4009000Y3113000D02*
X4771000D01*
X1990400Y4269200D02*
Y4370800D01*
X1939600Y4320000D02*
X2041200D01*
X3158800D02*
X3260400D01*
X53000Y6619000D02*
Y7381000D01*
Y6619000D02*
X307000D01*
Y7381000D01*
X53000D02*
X307000D01*
X53000Y7127000D02*
X307000D01*
X7673000Y6619000D02*
Y7381000D01*
Y6619000D02*
X7927000D01*
Y7381000D01*
X7673000D02*
X7927000D01*
X7673000Y7127000D02*
X7927000D01*
X53000Y5519000D02*
Y6281000D01*
Y5519000D02*
X307000D01*
Y6281000D01*
X53000D02*
X307000D01*
X53000Y6027000D02*
X307000D01*
X7673000Y5519000D02*
Y6281000D01*
Y5519000D02*
X7927000D01*
Y6281000D01*
X7673000D02*
X7927000D01*
X7673000Y6027000D02*
X7927000D01*
X125000Y127000D02*
Y5207000D01*
Y127000D02*
X633000D01*
Y5207000D01*
X125000D02*
X633000D01*
X7289775Y6324551D02*
X7238992D01*
X7213600Y6299159D01*
Y6197592D01*
X7238992Y6172200D01*
X7289775D01*
X7315167Y6197592D01*
Y6299159D01*
X7289775Y6324551D01*
X7365951D02*
Y6197592D01*
X7391343Y6172200D01*
X7442126D01*
X7467518Y6197592D01*
Y6324551D01*
X7518301D02*
X7619869D01*
X7569085D01*
Y6172200D01*
X7289775Y7416751D02*
X7238992D01*
X7213600Y7391359D01*
Y7289792D01*
X7238992Y7264400D01*
X7289775D01*
X7315167Y7289792D01*
Y7391359D01*
X7289775Y7416751D01*
X7365951D02*
Y7289792D01*
X7391343Y7264400D01*
X7442126D01*
X7467518Y7289792D01*
Y7416751D01*
X7518301D02*
X7619869D01*
X7569085D01*
Y7264400D01*
X330200Y6349951D02*
X380983D01*
X355592D01*
Y6197600D01*
X330200D01*
X380983D01*
X457159D02*
Y6349951D01*
X558726Y6197600D01*
Y6349951D01*
X330200Y7442151D02*
X380983D01*
X355592D01*
Y7289800D01*
X330200D01*
X380983D01*
X457159D02*
Y7442151D01*
X558726Y7289800D01*
Y7442151D01*
X4089441Y3530567D02*
X4064049Y3505175D01*
Y3454392D01*
X4089441Y3429000D01*
X4191008D01*
X4216400Y3454392D01*
Y3505175D01*
X4191008Y3530567D01*
X4140225D01*
Y3479783D01*
X4216400Y3581351D02*
X4064049D01*
X4216400Y3682918D01*
X4064049D01*
Y3733701D02*
X4216400D01*
Y3809877D01*
X4191008Y3835269D01*
X4089441D01*
X4064049Y3809877D01*
Y3733701D01*
X4318049Y3429000D02*
X4470400D01*
Y3505175D01*
X4445008Y3530567D01*
X4343441D01*
X4318049Y3505175D01*
Y3429000D01*
X4470400Y3581351D02*
X4368833D01*
X4318049Y3632134D01*
X4368833Y3682918D01*
X4470400D01*
X4394225D01*
Y3581351D01*
X4318049Y3733701D02*
Y3835269D01*
Y3784485D01*
X4470400D01*
Y3886052D02*
X4368833D01*
X4318049Y3936836D01*
X4368833Y3987619D01*
X4470400D01*
X4394225D01*
Y3886052D01*
X4572049Y3530567D02*
Y3429000D01*
X4648225D01*
X4622833Y3479783D01*
Y3505175D01*
X4648225Y3530567D01*
X4699008D01*
X4724400Y3505175D01*
Y3454392D01*
X4699008Y3429000D01*
X4572049Y3581351D02*
X4673617D01*
X4724400Y3632134D01*
X4673617Y3682918D01*
X4572049D01*
X4673600Y4978351D02*
Y4876783D01*
X4724383Y4826000D01*
X4775167Y4876783D01*
Y4978351D01*
X4825951Y4826000D02*
X4876734D01*
X4851343D01*
Y4978351D01*
X4825951Y4952959D01*
X3556000Y4749751D02*
Y4597400D01*
Y4648183D01*
X3657567Y4749751D01*
X3581392Y4673575D01*
X3657567Y4597400D01*
X3708351D02*
Y4749751D01*
X3784526D01*
X3809918Y4724359D01*
Y4673575D01*
X3784526Y4648183D01*
X3708351D01*
X3759134D02*
X3809918Y4597400D01*
X3860701D02*
Y4698967D01*
X3911485Y4749751D01*
X3962269Y4698967D01*
Y4597400D01*
Y4673575D01*
X3860701D01*
X4013052Y4597400D02*
Y4749751D01*
X4089228D01*
X4114619Y4724359D01*
Y4673575D01*
X4089228Y4648183D01*
X4013052D01*
X4063836D02*
X4114619Y4597400D01*
X4165403D02*
X4266970Y4698967D01*
X4419321Y4724359D02*
X4393929Y4749751D01*
X4343145D01*
X4317754Y4724359D01*
Y4698967D01*
X4343145Y4673575D01*
X4393929D01*
X4419321Y4648183D01*
Y4622792D01*
X4393929Y4597400D01*
X4343145D01*
X4317754Y4622792D01*
X4571672Y4724359D02*
X4546280Y4749751D01*
X4495496D01*
X4470104Y4724359D01*
Y4622792D01*
X4495496Y4597400D01*
X4546280D01*
X4571672Y4622792D01*
X4622455Y4749751D02*
Y4597400D01*
Y4673575D01*
X4724022D01*
Y4749751D01*
Y4597400D01*
X4876373Y4749751D02*
X4774806D01*
Y4673575D01*
X4825589D01*
X4774806D01*
Y4597400D01*
X3174967Y5181559D02*
X3149575Y5206951D01*
X3098792D01*
X3073400Y5181559D01*
Y5079992D01*
X3098792Y5054600D01*
X3149575D01*
X3174967Y5079992D01*
X3251143Y5054600D02*
X3301926D01*
X3327318Y5079992D01*
Y5130775D01*
X3301926Y5156167D01*
X3251143D01*
X3225751Y5130775D01*
Y5079992D01*
X3251143Y5054600D01*
X3378101D02*
Y5156167D01*
X3454277D01*
X3479669Y5130775D01*
Y5054600D01*
X3555844Y5181559D02*
Y5156167D01*
X3530452D01*
X3581236D01*
X3555844D01*
Y5079992D01*
X3581236Y5054600D01*
X3657411Y5156167D02*
Y5054600D01*
Y5105383D01*
X3682803Y5130775D01*
X3708195Y5156167D01*
X3733586D01*
X3835154Y5054600D02*
X3885937D01*
X3911329Y5079992D01*
Y5130775D01*
X3885937Y5156167D01*
X3835154D01*
X3809762Y5130775D01*
Y5079992D01*
X3835154Y5054600D01*
X3962112D02*
X4012896D01*
X3987504D01*
Y5206951D01*
X3962112D01*
X4089071Y5130775D02*
X4190639D01*
X4241422Y5054600D02*
Y5206951D01*
X4317597D01*
X4342989Y5181559D01*
Y5130775D01*
X4317597Y5105383D01*
X4241422D01*
X4419165Y5156167D02*
X4469948D01*
X4495340Y5130775D01*
Y5054600D01*
X4419165D01*
X4393773Y5079992D01*
X4419165Y5105383D01*
X4495340D01*
X4546123Y5054600D02*
Y5156167D01*
X4622299D01*
X4647691Y5130775D01*
Y5054600D01*
X4774650D02*
X4723866D01*
X4698474Y5079992D01*
Y5130775D01*
X4723866Y5156167D01*
X4774650D01*
X4800041Y5130775D01*
Y5105383D01*
X4698474D01*
X4850825Y5054600D02*
X4901608D01*
X4876217D01*
Y5206951D01*
X4850825D01*
X3835400Y3327375D02*
X3784617D01*
X3810008D01*
Y3200417D01*
X3784617Y3175025D01*
X3759225D01*
X3733833Y3200417D01*
X3886184Y3175025D02*
X3936967D01*
X3911576D01*
Y3327375D01*
X3886184Y3301983D01*
X2498433Y4396175D02*
X2600000Y4243825D01*
Y4396175D02*
X2498433Y4243825D01*
X2650784D02*
X2701567D01*
X2676175D01*
Y4396175D01*
X2650784Y4370783D01*
X3731420Y2763631D02*
Y2636672D01*
X3756812Y2611280D01*
X3807595D01*
X3832987Y2636672D01*
Y2763631D01*
X3985338Y2611280D02*
X3883771D01*
X3985338Y2712847D01*
Y2738239D01*
X3959946Y2763631D01*
X3909163D01*
X3883771Y2738239D01*
X1988947Y1432679D02*
X1963555Y1458071D01*
X1912772D01*
X1887380Y1432679D01*
Y1407287D01*
X1912772Y1381895D01*
X1963555D01*
X1988947Y1356504D01*
Y1331112D01*
X1963555Y1305720D01*
X1912772D01*
X1887380Y1331112D01*
X2039731Y1305720D02*
X2090514D01*
X2065123D01*
Y1458071D01*
X2039731Y1432679D01*
X1498641Y3683025D02*
Y3835375D01*
X1574817D01*
X1600208Y3809983D01*
Y3759200D01*
X1574817Y3733808D01*
X1498641D01*
X1549425D02*
X1600208Y3683025D01*
X1752559Y3835375D02*
X1650992D01*
Y3759200D01*
X1701775Y3784592D01*
X1727167D01*
X1752559Y3759200D01*
Y3708417D01*
X1727167Y3683025D01*
X1676384D01*
X1650992Y3708417D01*
X1574960Y1257460D02*
Y1409811D01*
X1651135D01*
X1676527Y1384419D01*
Y1333635D01*
X1651135Y1308244D01*
X1574960D01*
X1625744D02*
X1676527Y1257460D01*
X1727311Y1384419D02*
X1752703Y1409811D01*
X1803486D01*
X1828878Y1384419D01*
Y1359027D01*
X1803486Y1333635D01*
X1778094D01*
X1803486D01*
X1828878Y1308244D01*
Y1282852D01*
X1803486Y1257460D01*
X1752703D01*
X1727311Y1282852D01*
X3401220Y1514000D02*
Y1666351D01*
X3477395D01*
X3502787Y1640959D01*
Y1590175D01*
X3477395Y1564784D01*
X3401220D01*
X3452004D02*
X3502787Y1514000D01*
X3655138D02*
X3553571D01*
X3655138Y1615567D01*
Y1640959D01*
X3629746Y1666351D01*
X3578963D01*
X3553571Y1640959D01*
X4620420Y1514000D02*
Y1666351D01*
X4696595D01*
X4721987Y1640959D01*
Y1590175D01*
X4696595Y1564784D01*
X4620420D01*
X4671204D02*
X4721987Y1514000D01*
X4772771D02*
X4823554D01*
X4798163D01*
Y1666351D01*
X4772771Y1640959D01*
X1549408Y4292617D02*
Y4394183D01*
X1524017Y4419575D01*
X1473233D01*
X1447841Y4394183D01*
Y4292617D01*
X1473233Y4267225D01*
X1524017D01*
X1498625Y4318008D02*
X1549408Y4267225D01*
X1524017D02*
X1549408Y4292617D01*
X1600192Y4394183D02*
X1625584Y4419575D01*
X1676367D01*
X1701759Y4394183D01*
Y4368792D01*
X1676367Y4343400D01*
X1650975D01*
X1676367D01*
X1701759Y4318008D01*
Y4292617D01*
X1676367Y4267225D01*
X1625584D01*
X1600192Y4292617D01*
X1244608Y5003817D02*
Y5105383D01*
X1219217Y5130775D01*
X1168433D01*
X1143041Y5105383D01*
Y5003817D01*
X1168433Y4978425D01*
X1219217D01*
X1193825Y5029208D02*
X1244608Y4978425D01*
X1219217D02*
X1244608Y5003817D01*
X1396959Y4978425D02*
X1295392D01*
X1396959Y5079992D01*
Y5105383D01*
X1371567Y5130775D01*
X1320784D01*
X1295392Y5105383D01*
X4420918Y358629D02*
X4471701D01*
X4446310D01*
Y485588D01*
X4471701Y510979D01*
X4497093D01*
X4522485Y485588D01*
X4370134Y536371D02*
X4268567D01*
X4217784Y358629D02*
Y485588D01*
X4192392Y510979D01*
X4141608D01*
X4116216Y485588D01*
Y358629D01*
X3963866Y384021D02*
X3989257Y358629D01*
X4040041D01*
X4065433Y384021D01*
Y409412D01*
X4040041Y434804D01*
X3989257D01*
X3963866Y460196D01*
Y485588D01*
X3989257Y510979D01*
X4040041D01*
X4065433Y485588D01*
X3913082Y358629D02*
Y510979D01*
X3836907D01*
X3811515Y485588D01*
Y460196D01*
X3836907Y434804D01*
X3913082D01*
X3836907D01*
X3811515Y409412D01*
Y384021D01*
X3836907Y358629D01*
X3913082D01*
X898871Y5075923D02*
Y5126707D01*
Y5101315D01*
X771913D01*
X746521Y5126707D01*
Y5152098D01*
X771913Y5177490D01*
X721129Y5025140D02*
Y4923572D01*
X898871Y4872789D02*
X746521D01*
Y4796613D01*
X771913Y4771222D01*
X873480D01*
X898871Y4796613D01*
Y4872789D01*
Y4720438D02*
Y4669655D01*
Y4695046D01*
X746521D01*
Y4720438D01*
Y4669655D01*
X873480Y4491912D02*
X898871Y4517304D01*
Y4568087D01*
X873480Y4593479D01*
X848088D01*
X822696Y4568087D01*
Y4517304D01*
X797304Y4491912D01*
X771913D01*
X746521Y4517304D01*
Y4568087D01*
X771913Y4593479D01*
X746521Y4441129D02*
X898871D01*
Y4364953D01*
X873480Y4339561D01*
X822696D01*
X797304Y4364953D01*
Y4441129D01*
X898871Y4288778D02*
X746521D01*
Y4187211D01*
Y4136427D02*
X848088D01*
X898871Y4085644D01*
X848088Y4034860D01*
X746521D01*
X822696D01*
Y4136427D01*
X898871Y3984076D02*
X873480D01*
X822696Y3933293D01*
X873480Y3882509D01*
X898871D01*
X822696Y3933293D02*
X746521D01*
X4587400Y2616311D02*
Y2463960D01*
X4663575D01*
X4688967Y2489352D01*
Y2590919D01*
X4663575Y2616311D01*
X4587400D01*
X4739751Y2463960D02*
X4790534D01*
X4765143D01*
Y2616311D01*
X4739751Y2590919D01*
X4866710D02*
X4892101Y2616311D01*
X4942885D01*
X4968277Y2590919D01*
Y2565527D01*
X4942885Y2540135D01*
X4917493D01*
X4942885D01*
X4968277Y2514744D01*
Y2489352D01*
X4942885Y2463960D01*
X4892101D01*
X4866710Y2489352D01*
X7025800Y5986891D02*
Y5834540D01*
X7101975D01*
X7127367Y5859932D01*
Y5961499D01*
X7101975Y5986891D01*
X7025800D01*
X7178151Y5834540D02*
X7228934D01*
X7203543D01*
Y5986891D01*
X7178151Y5961499D01*
X7406677Y5834540D02*
X7305110D01*
X7406677Y5936107D01*
Y5961499D01*
X7381285Y5986891D01*
X7330501D01*
X7305110Y5961499D01*
X5750720Y5986891D02*
Y5834540D01*
X5826895D01*
X5852287Y5859932D01*
Y5961499D01*
X5826895Y5986891D01*
X5750720D01*
X5903071Y5834540D02*
X5953854D01*
X5928463D01*
Y5986891D01*
X5903071Y5961499D01*
X6030030Y5834540D02*
X6080813D01*
X6055421D01*
Y5986891D01*
X6030030Y5961499D01*
X4424840Y5986891D02*
Y5834540D01*
X4501015D01*
X4526407Y5859932D01*
Y5961499D01*
X4501015Y5986891D01*
X4424840D01*
X4577191Y5834540D02*
X4627974D01*
X4602583D01*
Y5986891D01*
X4577191Y5961499D01*
X4704150D02*
X4729541Y5986891D01*
X4780325D01*
X4805717Y5961499D01*
Y5859932D01*
X4780325Y5834540D01*
X4729541D01*
X4704150Y5859932D01*
Y5961499D01*
X3187860Y5986891D02*
Y5834540D01*
X3264035D01*
X3289427Y5859932D01*
Y5961499D01*
X3264035Y5986891D01*
X3187860D01*
X3340211Y5859932D02*
X3365603Y5834540D01*
X3416386D01*
X3441778Y5859932D01*
Y5961499D01*
X3416386Y5986891D01*
X3365603D01*
X3340211Y5961499D01*
Y5936107D01*
X3365603Y5910715D01*
X3441778D01*
X1887380Y5986891D02*
Y5834540D01*
X1963555D01*
X1988947Y5859932D01*
Y5961499D01*
X1963555Y5986891D01*
X1887380D01*
X2039731Y5961499D02*
X2065123Y5986891D01*
X2115906D01*
X2141298Y5961499D01*
Y5936107D01*
X2115906Y5910715D01*
X2141298Y5885324D01*
Y5859932D01*
X2115906Y5834540D01*
X2065123D01*
X2039731Y5859932D01*
Y5885324D01*
X2065123Y5910715D01*
X2039731Y5936107D01*
Y5961499D01*
X2065123Y5910715D02*
X2115906D01*
X586900Y5986891D02*
Y5834540D01*
X663075D01*
X688467Y5859932D01*
Y5961499D01*
X663075Y5986891D01*
X586900D01*
X739251D02*
X840818D01*
Y5961499D01*
X739251Y5859932D01*
Y5834540D01*
X7089300Y7086711D02*
Y6934360D01*
X7165475D01*
X7190867Y6959752D01*
Y7061319D01*
X7165475Y7086711D01*
X7089300D01*
X7343218D02*
X7292434Y7061319D01*
X7241651Y7010535D01*
Y6959752D01*
X7267043Y6934360D01*
X7317826D01*
X7343218Y6959752D01*
Y6985144D01*
X7317826Y7010535D01*
X7241651D01*
X5788820Y7086711D02*
Y6934360D01*
X5864995D01*
X5890387Y6959752D01*
Y7061319D01*
X5864995Y7086711D01*
X5788820D01*
X6042738D02*
X5941171D01*
Y7010535D01*
X5991954Y7035927D01*
X6017346D01*
X6042738Y7010535D01*
Y6959752D01*
X6017346Y6934360D01*
X5966563D01*
X5941171Y6959752D01*
X4488340Y7086711D02*
Y6934360D01*
X4564515D01*
X4589907Y6959752D01*
Y7061319D01*
X4564515Y7086711D01*
X4488340D01*
X4716866Y6934360D02*
Y7086711D01*
X4640691Y7010535D01*
X4742258D01*
X3187860Y7086711D02*
Y6934360D01*
X3264035D01*
X3289427Y6959752D01*
Y7061319D01*
X3264035Y7086711D01*
X3187860D01*
X3340211Y7061319D02*
X3365603Y7086711D01*
X3416386D01*
X3441778Y7061319D01*
Y7035927D01*
X3416386Y7010535D01*
X3390994D01*
X3416386D01*
X3441778Y6985144D01*
Y6959752D01*
X3416386Y6934360D01*
X3365603D01*
X3340211Y6959752D01*
X1887380Y7086711D02*
Y6934360D01*
X1963555D01*
X1988947Y6959752D01*
Y7061319D01*
X1963555Y7086711D01*
X1887380D01*
X2141298Y6934360D02*
X2039731D01*
X2141298Y7035927D01*
Y7061319D01*
X2115906Y7086711D01*
X2065123D01*
X2039731Y7061319D01*
X612300Y7086711D02*
Y6934360D01*
X688475D01*
X713867Y6959752D01*
Y7061319D01*
X688475Y7086711D01*
X612300D01*
X764651Y6934360D02*
X815434D01*
X790043D01*
Y7086711D01*
X764651Y7061319D01*
X904367Y863719D02*
X878975Y889111D01*
X828192D01*
X802800Y863719D01*
Y762152D01*
X828192Y736760D01*
X878975D01*
X904367Y762152D01*
X955151Y736760D02*
X1005934D01*
X980543D01*
Y889111D01*
X955151Y863719D01*
X1158285Y736760D02*
Y889111D01*
X1082110Y812935D01*
X1183677D01*
X3962527Y1673979D02*
X3937135Y1699371D01*
X3886352D01*
X3860960Y1673979D01*
Y1572412D01*
X3886352Y1547020D01*
X3937135D01*
X3962527Y1572412D01*
X4013311Y1547020D02*
X4064094D01*
X4038703D01*
Y1699371D01*
X4013311Y1673979D01*
X4140270D02*
X4165661Y1699371D01*
X4216445D01*
X4241837Y1673979D01*
Y1648587D01*
X4216445Y1623195D01*
X4191053D01*
X4216445D01*
X4241837Y1597804D01*
Y1572412D01*
X4216445Y1547020D01*
X4165661D01*
X4140270Y1572412D01*
X6799707Y5550019D02*
X6774315Y5575411D01*
X6723532D01*
X6698140Y5550019D01*
Y5448452D01*
X6723532Y5423060D01*
X6774315D01*
X6799707Y5448452D01*
X6850491Y5423060D02*
X6901274D01*
X6875883D01*
Y5575411D01*
X6850491Y5550019D01*
X7079017Y5423060D02*
X6977450D01*
X7079017Y5524627D01*
Y5550019D01*
X7053625Y5575411D01*
X7002841D01*
X6977450Y5550019D01*
X5522087D02*
X5496695Y5575411D01*
X5445912D01*
X5420520Y5550019D01*
Y5448452D01*
X5445912Y5423060D01*
X5496695D01*
X5522087Y5448452D01*
X5572871Y5423060D02*
X5623654D01*
X5598263D01*
Y5575411D01*
X5572871Y5550019D01*
X5699830Y5423060D02*
X5750613D01*
X5725221D01*
Y5575411D01*
X5699830Y5550019D01*
X4201287D02*
X4175895Y5575411D01*
X4125112D01*
X4099720Y5550019D01*
Y5448452D01*
X4125112Y5423060D01*
X4175895D01*
X4201287Y5448452D01*
X4252071Y5423060D02*
X4302854D01*
X4277463D01*
Y5575411D01*
X4252071Y5550019D01*
X4379030D02*
X4404421Y5575411D01*
X4455205D01*
X4480597Y5550019D01*
Y5448452D01*
X4455205Y5423060D01*
X4404421D01*
X4379030Y5448452D01*
Y5550019D01*
X2997327D02*
X2971935Y5575411D01*
X2921152D01*
X2895760Y5550019D01*
Y5448452D01*
X2921152Y5423060D01*
X2971935D01*
X2997327Y5448452D01*
X3048111D02*
X3073503Y5423060D01*
X3124286D01*
X3149678Y5448452D01*
Y5550019D01*
X3124286Y5575411D01*
X3073503D01*
X3048111Y5550019D01*
Y5524627D01*
X3073503Y5499235D01*
X3149678D01*
X1696847Y5550019D02*
X1671455Y5575411D01*
X1620672D01*
X1595280Y5550019D01*
Y5448452D01*
X1620672Y5423060D01*
X1671455D01*
X1696847Y5448452D01*
X1747631Y5550019D02*
X1773023Y5575411D01*
X1823806D01*
X1849198Y5550019D01*
Y5524627D01*
X1823806Y5499235D01*
X1849198Y5473844D01*
Y5448452D01*
X1823806Y5423060D01*
X1773023D01*
X1747631Y5448452D01*
Y5473844D01*
X1773023Y5499235D01*
X1747631Y5524627D01*
Y5550019D01*
X1773023Y5499235D02*
X1823806D01*
X396367Y5550019D02*
X370975Y5575411D01*
X320192D01*
X294800Y5550019D01*
Y5448452D01*
X320192Y5423060D01*
X370975D01*
X396367Y5448452D01*
X447151Y5575411D02*
X548718D01*
Y5550019D01*
X447151Y5448452D01*
Y5423060D01*
X6926707Y6649839D02*
X6901315Y6675231D01*
X6850532D01*
X6825140Y6649839D01*
Y6548272D01*
X6850532Y6522880D01*
X6901315D01*
X6926707Y6548272D01*
X7079058Y6675231D02*
X7028274Y6649839D01*
X6977491Y6599055D01*
Y6548272D01*
X7002883Y6522880D01*
X7053666D01*
X7079058Y6548272D01*
Y6573664D01*
X7053666Y6599055D01*
X6977491D01*
X5598287Y6649839D02*
X5572895Y6675231D01*
X5522112D01*
X5496720Y6649839D01*
Y6548272D01*
X5522112Y6522880D01*
X5572895D01*
X5598287Y6548272D01*
X5750638Y6675231D02*
X5649071D01*
Y6599055D01*
X5699854Y6624447D01*
X5725246D01*
X5750638Y6599055D01*
Y6548272D01*
X5725246Y6522880D01*
X5674463D01*
X5649071Y6548272D01*
X4297807Y6649839D02*
X4272415Y6675231D01*
X4221632D01*
X4196240Y6649839D01*
Y6548272D01*
X4221632Y6522880D01*
X4272415D01*
X4297807Y6548272D01*
X4424766Y6522880D02*
Y6675231D01*
X4348591Y6599055D01*
X4450158D01*
X3027807Y6649839D02*
X3002415Y6675231D01*
X2951632D01*
X2926240Y6649839D01*
Y6548272D01*
X2951632Y6522880D01*
X3002415D01*
X3027807Y6548272D01*
X3078591Y6649839D02*
X3103983Y6675231D01*
X3154766D01*
X3180158Y6649839D01*
Y6624447D01*
X3154766Y6599055D01*
X3129374D01*
X3154766D01*
X3180158Y6573664D01*
Y6548272D01*
X3154766Y6522880D01*
X3103983D01*
X3078591Y6548272D01*
X1696847Y6649839D02*
X1671455Y6675231D01*
X1620672D01*
X1595280Y6649839D01*
Y6548272D01*
X1620672Y6522880D01*
X1671455D01*
X1696847Y6548272D01*
X1849198Y6522880D02*
X1747631D01*
X1849198Y6624447D01*
Y6649839D01*
X1823806Y6675231D01*
X1773023D01*
X1747631Y6649839D01*
X477647D02*
X452255Y6675231D01*
X401472D01*
X376080Y6649839D01*
Y6548272D01*
X401472Y6522880D01*
X452255D01*
X477647Y6548272D01*
X528431Y6522880D02*
X579214D01*
X553823D01*
Y6675231D01*
X528431Y6649839D01*
D49*
X3835000Y860000D02*
G03*
X3835000Y860000I-10000J0D01*
G01*
X6885000Y6070000D02*
G03*
X6885000Y6070000I-10000J0D01*
G01*
X385000Y7170000D02*
G03*
X385000Y7170000I-10000J0D01*
G01*
X1685000D02*
G03*
X1685000Y7170000I-10000J0D01*
G01*
X2985000D02*
G03*
X2985000Y7170000I-10000J0D01*
G01*
X4285000D02*
G03*
X4285000Y7170000I-10000J0D01*
G01*
X5585000D02*
G03*
X5585000Y7170000I-10000J0D01*
G01*
X6885000D02*
G03*
X6885000Y7170000I-10000J0D01*
G01*
X385000Y6070000D02*
G03*
X385000Y6070000I-10000J0D01*
G01*
X1685000D02*
G03*
X1685000Y6070000I-10000J0D01*
G01*
X2985000D02*
G03*
X2985000Y6070000I-10000J0D01*
G01*
X4285000D02*
G03*
X4285000Y6070000I-10000J0D01*
G01*
X5585000D02*
G03*
X5585000Y6070000I-10000J0D01*
G01*
X4680000Y1860500D02*
G03*
X4680000Y1860500I-10000J0D01*
G01*
X1149700Y634400D02*
G03*
X1149700Y634400I-10000J0D01*
G01*
X4429400Y1110300D02*
G03*
X4429400Y1110300I-10000J0D01*
G01*
X4597000Y400000D02*
Y525000D01*
X3703000Y400000D02*
Y525000D01*
X4597000Y0D02*
Y128000D01*
X3703000Y0D02*
Y128000D01*
X3804750Y1934750D02*
X4455250D01*
Y2285250D01*
X3804750D02*
X4455250D01*
X3804750Y1934750D02*
Y2285250D01*
D50*
X3742500Y1770500D02*
G03*
X3742500Y1770500I-12500J0D01*
G01*
D51*
X1215700Y3513000D02*
X1444300D01*
X1215700Y3995600D02*
X1444300D01*
Y3513000D02*
Y3703500D01*
X1215700Y3513000D02*
Y3703500D01*
Y3805100D02*
Y3995600D01*
X1444300Y3805100D02*
Y3995600D01*
X1147300Y4474780D02*
X1261600D01*
X1147300Y4182680D02*
X1261600D01*
X1147300Y4423980D02*
Y4474780D01*
X1375900Y4322380D02*
Y4335080D01*
X1147300Y4182680D02*
Y4233480D01*
Y4924780D02*
X1261600D01*
X1147300Y4632680D02*
X1261600D01*
X1147300Y4873980D02*
Y4924780D01*
X1375900Y4772380D02*
Y4785080D01*
X1147300Y4632680D02*
Y4683480D01*
X1565700Y684400D02*
X1794300D01*
X1565700Y1167000D02*
X1794300D01*
Y684400D02*
Y874900D01*
X1565700Y684400D02*
Y874900D01*
Y976500D02*
Y1167000D01*
X1794300Y976500D02*
Y1167000D01*
X988900Y6511100D02*
Y6688900D01*
X671400Y6511100D02*
Y6688900D01*
X861900D02*
X988900D01*
X861900Y6511100D02*
X988900D01*
X671400D02*
X785700D01*
X671400Y6688900D02*
X785700D01*
X2258750Y6511100D02*
Y6688900D01*
X1941250Y6511100D02*
Y6688900D01*
X2131750D02*
X2258750D01*
X2131750Y6511100D02*
X2258750D01*
X1941250D02*
X2055550D01*
X1941250Y6688900D02*
X2055550D01*
X3588900Y6511100D02*
Y6688900D01*
X3271400Y6511100D02*
Y6688900D01*
X3461900D02*
X3588900D01*
X3461900Y6511100D02*
X3588900D01*
X3271400D02*
X3385700D01*
X3271400Y6688900D02*
X3385700D01*
X4858750Y6511100D02*
Y6688900D01*
X4541250Y6511100D02*
Y6688900D01*
X4731750D02*
X4858750D01*
X4731750Y6511100D02*
X4858750D01*
X4541250D02*
X4655550D01*
X4541250Y6688900D02*
X4655550D01*
X6158750Y6511100D02*
Y6688900D01*
X5841250Y6511100D02*
Y6688900D01*
X6031750D02*
X6158750D01*
X6031750Y6511100D02*
X6158750D01*
X5841250D02*
X5955550D01*
X5841250Y6688900D02*
X5955550D01*
X7488900Y6511100D02*
Y6688900D01*
X7171400Y6511100D02*
Y6688900D01*
X7361900D02*
X7488900D01*
X7361900Y6511100D02*
X7488900D01*
X7171400D02*
X7285700D01*
X7171400Y6688900D02*
X7285700D01*
X958750Y5411100D02*
Y5588900D01*
X641250Y5411100D02*
Y5588900D01*
X831750D02*
X958750D01*
X831750Y5411100D02*
X958750D01*
X641250D02*
X755550D01*
X641250Y5588900D02*
X755550D01*
X2258750Y5411100D02*
Y5588900D01*
X1941250Y5411100D02*
Y5588900D01*
X2131750D02*
X2258750D01*
X2131750Y5411100D02*
X2258750D01*
X1941250D02*
X2055550D01*
X1941250Y5588900D02*
X2055550D01*
X3558750Y5411100D02*
Y5588900D01*
X3241250Y5411100D02*
Y5588900D01*
X3431750D02*
X3558750D01*
X3431750Y5411100D02*
X3558750D01*
X3241250D02*
X3355550D01*
X3241250Y5588900D02*
X3355550D01*
X3619500Y1231900D02*
Y1422400D01*
X3390900Y1231900D02*
Y1422400D01*
Y939800D02*
Y1130300D01*
X3619500Y939800D02*
Y1130300D01*
X3390900Y1422400D02*
X3619500D01*
X3390900Y939800D02*
X3619500D01*
X4838700Y1231900D02*
Y1422400D01*
X4610100Y1231900D02*
Y1422400D01*
Y939800D02*
Y1130300D01*
X4838700Y939800D02*
Y1130300D01*
X4610100Y1422400D02*
X4838700D01*
X4610100Y939800D02*
X4838700D01*
X4888900Y5411100D02*
Y5588900D01*
X4571400Y5411100D02*
Y5588900D01*
X4761900D02*
X4888900D01*
X4761900Y5411100D02*
X4888900D01*
X4571400D02*
X4685700D01*
X4571400Y5588900D02*
X4685700D01*
X6158750Y5411100D02*
Y5588900D01*
X5841250Y5411100D02*
Y5588900D01*
X6031750D02*
X6158750D01*
X6031750Y5411100D02*
X6158750D01*
X5841250D02*
X5955550D01*
X5841250Y5588900D02*
X5955550D01*
X7488900Y5411100D02*
Y5588900D01*
X7171400Y5411100D02*
Y5588900D01*
X7361900D02*
X7488900D01*
X7361900Y5411100D02*
X7488900D01*
X7171400D02*
X7285700D01*
X7171400Y5588900D02*
X7285700D01*
D52*
X7000000Y5660000D02*
X7500000D01*
X7000000Y6160000D02*
X7500000D01*
X7000000Y5831350D02*
Y5988650D01*
X7500000Y5831350D02*
Y5988650D01*
X500000Y6760000D02*
X1000000D01*
X500000Y7260000D02*
X1000000D01*
X500000Y6931350D02*
Y7088650D01*
X1000000Y6931350D02*
Y7088650D01*
X1800000Y6760000D02*
X2300000D01*
X1800000Y7260000D02*
X2300000D01*
X1800000Y6931350D02*
Y7088650D01*
X2300000Y6931350D02*
Y7088650D01*
X3100000Y6760000D02*
X3600000D01*
X3100000Y7260000D02*
X3600000D01*
X3100000Y6931350D02*
Y7088650D01*
X3600000Y6931350D02*
Y7088650D01*
X4400000Y6760000D02*
X4900000D01*
X4400000Y7260000D02*
X4900000D01*
X4400000Y6931350D02*
Y7088650D01*
X4900000Y6931350D02*
Y7088650D01*
X5700000Y6760000D02*
X6200000D01*
X5700000Y7260000D02*
X6200000D01*
X5700000Y6931350D02*
Y7088650D01*
X6200000Y6931350D02*
Y7088650D01*
X7000000Y6760000D02*
X7500000D01*
X7000000Y7260000D02*
X7500000D01*
X7000000Y6931350D02*
Y7088650D01*
X7500000Y6931350D02*
Y7088650D01*
X500000Y5660000D02*
X1000000D01*
X500000Y6160000D02*
X1000000D01*
X500000Y5831350D02*
Y5988650D01*
X1000000Y5831350D02*
Y5988650D01*
X1800000Y5660000D02*
X2300000D01*
X1800000Y6160000D02*
X2300000D01*
X1800000Y5831350D02*
Y5988650D01*
X2300000Y5831350D02*
Y5988650D01*
X3100000Y5660000D02*
X3600000D01*
X3100000Y6160000D02*
X3600000D01*
X3100000Y5831350D02*
Y5988650D01*
X3600000Y5831350D02*
Y5988650D01*
X4400000Y5660000D02*
X4900000D01*
X4400000Y6160000D02*
X4900000D01*
X4400000Y5831350D02*
Y5988650D01*
X4900000Y5831350D02*
Y5988650D01*
X5700000Y5660000D02*
X6200000D01*
X5700000Y6160000D02*
X6200000D01*
X5700000Y5831350D02*
Y5988650D01*
X6200000Y5831350D02*
Y5988650D01*
X4740000Y2065000D02*
Y2215000D01*
X4600000Y2065000D02*
Y2215000D01*
X1139700Y443900D02*
Y494700D01*
X1114300Y469300D02*
X1165100D01*
X785000Y140000D02*
X897500D01*
X1102500D02*
X1215000D01*
X785000D02*
Y455000D01*
X900000Y570000D01*
X1215000Y140000D02*
Y457500D01*
X1101250Y571250D02*
X1215000Y457500D01*
X4228900Y1110300D02*
X4279700D01*
X4254300Y1084900D02*
Y1135700D01*
X3925000Y1352500D02*
Y1465000D01*
Y1035000D02*
Y1147500D01*
Y1465000D02*
X4240000D01*
X4355000Y1350000D01*
X3925000Y1035000D02*
X4242500D01*
X4356250Y1148750D01*
%TF.MD5,4cc974f952d6d4a7d96287d4bdb01a98*%
M02*
