%TF.GenerationSoftware,Altium Limited,Altium Designer,24.0.1 (36)*%
G04 Layer_Physical_Order=1*
G04 Layer_Color=255*
%FSLAX45Y45*%
%MOMM*%
%TF.SameCoordinates,8AA56912-9505-4270-891B-A046144FA8B4*%
%TF.FilePolarity,Positive*%
%TF.FileFunction,Copper,L1,Top,Signal*%
%TF.Part,Single*%
G01*
G75*
%TA.AperFunction,SMDPad,CuDef*%
G04:AMPARAMS|DCode=10|XSize=1.524mm|YSize=1.27mm|CornerRadius=0.09525mm|HoleSize=0mm|Usage=FLASHONLY|Rotation=180.000|XOffset=0mm|YOffset=0mm|HoleType=Round|Shape=RoundedRectangle|*
%AMROUNDEDRECTD10*
21,1,1.52400,1.07950,0,0,180.0*
21,1,1.33350,1.27000,0,0,180.0*
1,1,0.19050,-0.66675,0.53975*
1,1,0.19050,0.66675,0.53975*
1,1,0.19050,0.66675,-0.53975*
1,1,0.19050,-0.66675,-0.53975*
%
%ADD10ROUNDEDRECTD10*%
G04:AMPARAMS|DCode=11|XSize=1.524mm|YSize=1.27mm|CornerRadius=0.09525mm|HoleSize=0mm|Usage=FLASHONLY|Rotation=90.000|XOffset=0mm|YOffset=0mm|HoleType=Round|Shape=RoundedRectangle|*
%AMROUNDEDRECTD11*
21,1,1.52400,1.07950,0,0,90.0*
21,1,1.33350,1.27000,0,0,90.0*
1,1,0.19050,0.53975,0.66675*
1,1,0.19050,0.53975,-0.66675*
1,1,0.19050,-0.53975,-0.66675*
1,1,0.19050,-0.53975,0.66675*
%
%ADD11ROUNDEDRECTD11*%
%TA.AperFunction,Conductor*%
%ADD12C,0.75000*%
%TA.AperFunction,ComponentPad*%
%ADD13C,5.00000*%
%ADD14C,1.85000*%
%ADD15R,1.85000X1.85000*%
%ADD16C,1.20000*%
%TA.AperFunction,ViaPad*%
%ADD17C,1.85000*%
G36*
X12566659Y6033340D02*
X7923341D01*
Y8637500D01*
X8132500D01*
Y8862500D01*
X7923341D01*
Y8966659D01*
X12566659D01*
Y6033340D01*
D02*
G37*
%LPC*%
G36*
X8299000Y8864946D02*
Y8775000D01*
X8388946D01*
X8383493Y8795353D01*
X8368023Y8822147D01*
X8346147Y8844023D01*
X8319353Y8859493D01*
X8299000Y8864946D01*
D02*
G37*
G36*
X8249000D02*
X8228647Y8859493D01*
X8201853Y8844023D01*
X8179977Y8822147D01*
X8164507Y8795353D01*
X8159054Y8775000D01*
X8249000D01*
Y8864946D01*
D02*
G37*
G36*
X10320811Y8862500D02*
X10291189D01*
X10262577Y8854833D01*
X10236923Y8840022D01*
X10215978Y8819077D01*
X10201167Y8793423D01*
X10193500Y8764811D01*
Y8735189D01*
X10201167Y8706577D01*
X10215978Y8680923D01*
X10236923Y8659978D01*
X10262577Y8645167D01*
X10291189Y8637500D01*
X10320811D01*
X10349423Y8645167D01*
X10375077Y8659978D01*
X10396022Y8680923D01*
X10410833Y8706577D01*
X10418500Y8735189D01*
Y8764811D01*
X10410833Y8793423D01*
X10396022Y8819077D01*
X10375077Y8840022D01*
X10349423Y8854833D01*
X10320811Y8862500D01*
D02*
G37*
G36*
X10066811D02*
X10037189D01*
X10008577Y8854833D01*
X9982923Y8840022D01*
X9961978Y8819077D01*
X9947167Y8793423D01*
X9939500Y8764811D01*
Y8735189D01*
X9947167Y8706577D01*
X9961978Y8680923D01*
X9982923Y8659978D01*
X10008577Y8645167D01*
X10037189Y8637500D01*
X10066811D01*
X10095423Y8645167D01*
X10121077Y8659978D01*
X10142022Y8680923D01*
X10156833Y8706577D01*
X10164500Y8735189D01*
Y8764811D01*
X10156833Y8793423D01*
X10142022Y8819077D01*
X10121077Y8840022D01*
X10095423Y8854833D01*
X10066811Y8862500D01*
D02*
G37*
G36*
X9812811D02*
X9783189D01*
X9754577Y8854833D01*
X9728923Y8840022D01*
X9707978Y8819077D01*
X9693167Y8793423D01*
X9685500Y8764811D01*
Y8735189D01*
X9693167Y8706577D01*
X9707978Y8680923D01*
X9728923Y8659978D01*
X9754577Y8645167D01*
X9783189Y8637500D01*
X9812811D01*
X9841423Y8645167D01*
X9867077Y8659978D01*
X9888022Y8680923D01*
X9902833Y8706577D01*
X9910500Y8735189D01*
Y8764811D01*
X9902833Y8793423D01*
X9888022Y8819077D01*
X9867077Y8840022D01*
X9841423Y8854833D01*
X9812811Y8862500D01*
D02*
G37*
G36*
X9558811D02*
X9529189D01*
X9500577Y8854833D01*
X9474923Y8840022D01*
X9453978Y8819077D01*
X9439167Y8793423D01*
X9431500Y8764811D01*
Y8735189D01*
X9439167Y8706577D01*
X9453978Y8680923D01*
X9474923Y8659978D01*
X9500577Y8645167D01*
X9529189Y8637500D01*
X9558811D01*
X9587423Y8645167D01*
X9613077Y8659978D01*
X9634022Y8680923D01*
X9648833Y8706577D01*
X9656500Y8735189D01*
Y8764811D01*
X9648833Y8793423D01*
X9634022Y8819077D01*
X9613077Y8840022D01*
X9587423Y8854833D01*
X9558811Y8862500D01*
D02*
G37*
G36*
X9304811D02*
X9275189D01*
X9246577Y8854833D01*
X9220923Y8840022D01*
X9199978Y8819077D01*
X9185167Y8793423D01*
X9177500Y8764811D01*
Y8735189D01*
X9185167Y8706577D01*
X9199978Y8680923D01*
X9220923Y8659978D01*
X9246577Y8645167D01*
X9275189Y8637500D01*
X9304811D01*
X9333423Y8645167D01*
X9359077Y8659978D01*
X9380022Y8680923D01*
X9394833Y8706577D01*
X9402500Y8735189D01*
Y8764811D01*
X9394833Y8793423D01*
X9380022Y8819077D01*
X9359077Y8840022D01*
X9333423Y8854833D01*
X9304811Y8862500D01*
D02*
G37*
G36*
X8388946Y8725000D02*
X8299000D01*
Y8635054D01*
X8319353Y8640507D01*
X8346147Y8655977D01*
X8368023Y8677853D01*
X8383493Y8704647D01*
X8388946Y8725000D01*
D02*
G37*
G36*
X8249000D02*
X8159054D01*
X8164507Y8704647D01*
X8179977Y8677853D01*
X8201853Y8655977D01*
X8228647Y8640507D01*
X8249000Y8635054D01*
Y8725000D01*
D02*
G37*
G36*
X8542811Y8862500D02*
X8513189D01*
X8484577Y8854833D01*
X8458923Y8840022D01*
X8437978Y8819077D01*
X8423167Y8793423D01*
X8415500Y8764811D01*
Y8735189D01*
X8423167Y8706577D01*
X8437978Y8680923D01*
X8458923Y8659978D01*
X8469374Y8653944D01*
Y8246056D01*
X8458924Y8240022D01*
X8437978Y8219077D01*
X8423167Y8193423D01*
X8415500Y8164811D01*
Y8135189D01*
X8423167Y8106577D01*
X8437978Y8080923D01*
X8458924Y8059978D01*
X8469374Y8053944D01*
Y7984300D01*
X8473836Y7961865D01*
X8478222Y7955302D01*
Y7896025D01*
X8480513Y7884505D01*
X8487039Y7874739D01*
X8496805Y7868213D01*
X8508325Y7865922D01*
X8641675D01*
X8653195Y7868213D01*
X8662961Y7874739D01*
X8669487Y7884505D01*
X8671778Y7896025D01*
Y8003975D01*
X8669487Y8015495D01*
X8662961Y8025261D01*
X8653195Y8031787D01*
X8641675Y8034078D01*
X8586627D01*
Y8053944D01*
X8597077Y8059978D01*
X8618023Y8080923D01*
X8632833Y8106577D01*
X8640500Y8135189D01*
Y8164811D01*
X8632833Y8193423D01*
X8618023Y8219077D01*
X8597077Y8240022D01*
X8586627Y8246056D01*
Y8653944D01*
X8597077Y8659978D01*
X8618022Y8680923D01*
X8632833Y8706577D01*
X8640500Y8735189D01*
Y8764811D01*
X8632833Y8793423D01*
X8618022Y8819077D01*
X8597077Y8840022D01*
X8571423Y8854833D01*
X8542811Y8862500D01*
D02*
G37*
G36*
X8638075Y7754671D02*
X8596400D01*
Y7690495D01*
X8673276D01*
Y7719470D01*
X8670597Y7732941D01*
X8662966Y7744361D01*
X8651546Y7751992D01*
X8638075Y7754671D01*
D02*
G37*
G36*
X8546400D02*
X8504725D01*
X8491254Y7751992D01*
X8479834Y7744361D01*
X8472203Y7732941D01*
X8469524Y7719470D01*
Y7690495D01*
X8546400D01*
Y7754671D01*
D02*
G37*
G36*
X11764532Y7834000D02*
X11743468D01*
X11723121Y7828548D01*
X11704879Y7818016D01*
X11689984Y7803121D01*
X11679452Y7784879D01*
X11674000Y7764532D01*
Y7743468D01*
X11679452Y7723121D01*
X11689984Y7704879D01*
X11704879Y7689984D01*
X11723121Y7679452D01*
X11743468Y7674000D01*
X11764532D01*
X11784879Y7679452D01*
X11803121Y7689984D01*
X11818016Y7704879D01*
X11828548Y7723121D01*
X11834000Y7743468D01*
Y7764532D01*
X11828548Y7784879D01*
X11818016Y7803121D01*
X11803121Y7818016D01*
X11784879Y7828548D01*
X11764532Y7834000D01*
D02*
G37*
G36*
X8796811Y8862500D02*
X8767189D01*
X8738577Y8854833D01*
X8712923Y8840022D01*
X8691978Y8819077D01*
X8677167Y8793423D01*
X8669500Y8764811D01*
Y8735189D01*
X8677167Y8706577D01*
X8691978Y8680923D01*
X8712923Y8659978D01*
X8734174Y8647709D01*
Y8033531D01*
X8725405Y8031787D01*
X8715639Y8025261D01*
X8709113Y8015495D01*
X8706822Y8003975D01*
Y7896025D01*
X8709113Y7884505D01*
X8715639Y7874739D01*
X8725405Y7868213D01*
X8736925Y7865922D01*
X8743174D01*
Y7749573D01*
X8733325D01*
X8721805Y7747281D01*
X8712039Y7740756D01*
X8705513Y7730990D01*
X8703222Y7719470D01*
Y7611520D01*
X8705513Y7600000D01*
X8712039Y7590233D01*
X8721805Y7583708D01*
X8733325Y7581416D01*
X8866675D01*
X8878195Y7583708D01*
X8887961Y7590233D01*
X8894487Y7600000D01*
X8896778Y7611520D01*
Y7719470D01*
X8894487Y7730990D01*
X8887961Y7740756D01*
X8878195Y7747281D01*
X8866675Y7749573D01*
X8860427D01*
Y7865922D01*
X8870275D01*
X8881795Y7868213D01*
X8891561Y7874739D01*
X8898087Y7884505D01*
X8900378Y7896025D01*
Y8003975D01*
X8898087Y8015495D01*
X8891561Y8025261D01*
X8881795Y8031787D01*
X8870275Y8034078D01*
X8851427D01*
Y8660328D01*
X8872022Y8680923D01*
X8886833Y8706577D01*
X8894500Y8735189D01*
Y8764811D01*
X8886833Y8793423D01*
X8872022Y8819077D01*
X8851077Y8840022D01*
X8825423Y8854833D01*
X8796811Y8862500D01*
D02*
G37*
G36*
X8673276Y7640495D02*
X8596400D01*
Y7576318D01*
X8638075D01*
X8651546Y7578998D01*
X8662966Y7586628D01*
X8670597Y7598049D01*
X8673276Y7611520D01*
Y7640495D01*
D02*
G37*
G36*
X8546400D02*
X8469524D01*
Y7611520D01*
X8472203Y7598049D01*
X8479834Y7586628D01*
X8491254Y7578998D01*
X8504725Y7576318D01*
X8546400D01*
Y7640495D01*
D02*
G37*
G36*
X9050811Y8862500D02*
X9021189D01*
X8992577Y8854833D01*
X8966923Y8840022D01*
X8945978Y8819077D01*
X8931167Y8793423D01*
X8923500Y8764811D01*
Y8735189D01*
X8931167Y8706577D01*
X8945978Y8680923D01*
X8966923Y8659978D01*
X8977374Y8653944D01*
Y8439000D01*
X8981836Y8416565D01*
X8994545Y8397545D01*
X9969245Y7422845D01*
X9988265Y7410136D01*
X10010700Y7405674D01*
X10490922D01*
Y7397625D01*
X10493213Y7386105D01*
X10499739Y7376339D01*
X10509505Y7369813D01*
X10521025Y7367522D01*
X10628975D01*
X10640495Y7369813D01*
X10650261Y7376339D01*
X10656787Y7386105D01*
X10659078Y7397625D01*
Y7405674D01*
X11452123D01*
X11474558Y7410136D01*
X11489363Y7420028D01*
X11489468Y7420000D01*
X11510532D01*
X11530879Y7425452D01*
X11549121Y7435984D01*
X11564016Y7450879D01*
X11574548Y7469121D01*
X11580000Y7489468D01*
Y7510532D01*
X11574548Y7530879D01*
X11564016Y7549121D01*
X11549121Y7564016D01*
X11530879Y7574548D01*
X11510532Y7580000D01*
X11489468D01*
X11469121Y7574548D01*
X11450879Y7564016D01*
X11435984Y7549121D01*
X11425452Y7530879D01*
X11423321Y7522927D01*
X10659078D01*
Y7530975D01*
X10656787Y7542495D01*
X10650261Y7552261D01*
X10640495Y7558787D01*
X10628975Y7561078D01*
X10521025D01*
X10509505Y7558787D01*
X10499739Y7552261D01*
X10493213Y7542495D01*
X10490922Y7530975D01*
Y7522927D01*
X10034984D01*
X9094627Y8463284D01*
Y8653944D01*
X9105077Y8659978D01*
X9126022Y8680923D01*
X9140833Y8706577D01*
X9148500Y8735189D01*
Y8764811D01*
X9140833Y8793423D01*
X9126022Y8819077D01*
X9105077Y8840022D01*
X9079423Y8854833D01*
X9050811Y8862500D01*
D02*
G37*
G36*
X11779001Y7327300D02*
Y7271000D01*
X11835300D01*
X11833207Y7278809D01*
X11822017Y7298191D01*
X11806191Y7314017D01*
X11786809Y7325207D01*
X11779001Y7327300D01*
D02*
G37*
G36*
X11729001Y7327300D02*
X11721191Y7325207D01*
X11701809Y7314017D01*
X11685983Y7298191D01*
X11674793Y7278809D01*
X11672701Y7271000D01*
X11729001D01*
Y7327300D01*
D02*
G37*
G36*
X10628975Y7337576D02*
X10599999D01*
Y7260700D01*
X10664176D01*
Y7302375D01*
X10661497Y7315846D01*
X10653866Y7327266D01*
X10642446Y7334897D01*
X10628975Y7337576D01*
D02*
G37*
G36*
X10549999D02*
X10521025D01*
X10507554Y7334897D01*
X10496134Y7327266D01*
X10488503Y7315846D01*
X10485824Y7302375D01*
Y7260700D01*
X10549999D01*
Y7337576D01*
D02*
G37*
G36*
X11835300Y7221000D02*
X11779001D01*
Y7164700D01*
X11786809Y7166793D01*
X11806191Y7177983D01*
X11822017Y7193809D01*
X11833207Y7213191D01*
X11835300Y7221000D01*
D02*
G37*
G36*
X11729001D02*
X11672701D01*
X11674793Y7213191D01*
X11685983Y7193809D01*
X11701809Y7177983D01*
X11721191Y7166793D01*
X11729001Y7164700D01*
Y7221000D01*
D02*
G37*
G36*
X10664176Y7210701D02*
X10599999D01*
Y7133824D01*
X10628975D01*
X10642446Y7136503D01*
X10653866Y7144134D01*
X10661497Y7155554D01*
X10664176Y7169025D01*
Y7210701D01*
D02*
G37*
G36*
X10549999D02*
X10485824D01*
Y7169025D01*
X10488503Y7155554D01*
X10496134Y7144134D01*
X10507554Y7136503D01*
X10521025Y7133824D01*
X10549999D01*
Y7210701D01*
D02*
G37*
G36*
X10425000Y6624468D02*
Y6375000D01*
X10674468D01*
X10668229Y6414396D01*
X10654852Y6455563D01*
X10635201Y6494132D01*
X10609758Y6529151D01*
X10579151Y6559758D01*
X10544132Y6585201D01*
X10505563Y6604852D01*
X10464396Y6618229D01*
X10425000Y6624468D01*
D02*
G37*
G36*
X10375000D02*
X10335604Y6618229D01*
X10294437Y6604852D01*
X10255868Y6585201D01*
X10220850Y6559758D01*
X10190242Y6529151D01*
X10164799Y6494132D01*
X10145148Y6455563D01*
X10131771Y6414396D01*
X10125532Y6375000D01*
X10375000D01*
Y6624468D01*
D02*
G37*
G36*
X10674468Y6325000D02*
X10425000D01*
Y6075532D01*
X10464396Y6081771D01*
X10505563Y6095148D01*
X10544132Y6114799D01*
X10579151Y6140242D01*
X10609758Y6170849D01*
X10635201Y6205868D01*
X10654852Y6244437D01*
X10668229Y6285604D01*
X10674468Y6325000D01*
D02*
G37*
G36*
X10375000D02*
X10125532D01*
X10131771Y6285604D01*
X10145148Y6244437D01*
X10164799Y6205868D01*
X10190242Y6170849D01*
X10220850Y6140242D01*
X10255868Y6114799D01*
X10294437Y6095148D01*
X10335604Y6081771D01*
X10375000Y6075532D01*
Y6325000D01*
D02*
G37*
%LPD*%
D10*
X8803600Y7950000D02*
D03*
X8800000Y7665495D02*
D03*
X8571400D02*
D03*
X8575000Y7950000D02*
D03*
D11*
X10575000Y7464300D02*
D03*
Y7235700D02*
D03*
D12*
X8792800Y7960800D02*
Y8739200D01*
X8801800Y7667295D02*
Y7951800D01*
X11452123Y7464300D02*
X11487823Y7500000D01*
X10575000Y7464300D02*
X11452123D01*
X11487823Y7500000D02*
X11500000D01*
X8528000Y8150000D02*
Y8750000D01*
Y7984300D02*
Y8150000D01*
X9036000Y8439000D02*
Y8750000D01*
X10010700Y7464300D02*
X10575000D01*
X9036000Y8439000D02*
X10010700Y7464300D01*
X8792800Y7960800D02*
X8801800Y7951800D01*
X8800000Y7665495D02*
X8801800Y7667295D01*
X8782000Y8750000D02*
X8792800Y8739200D01*
X8528000Y7984300D02*
X8562300Y7950000D01*
X8575000D01*
D13*
X10400000Y6350000D02*
D03*
D14*
X10306000Y8750000D02*
D03*
X10052000D02*
D03*
X8782000D02*
D03*
X8528000D02*
D03*
X8274000D02*
D03*
X9036000D02*
D03*
X9290000D02*
D03*
X9544000D02*
D03*
X9798000D02*
D03*
D15*
X8020000D02*
D03*
D16*
X11500000Y7500000D02*
D03*
X11754000Y7246000D02*
D03*
Y7754000D02*
D03*
D17*
X8528000Y8150000D02*
D03*
%TF.MD5,7051e4b513284f60af79d52436a97e30*%
M02*
