%TF.GenerationSoftware,Altium Limited,Altium Designer,24.0.1 (36)*%
G04 Layer_Color=65535*
%FSLAX45Y45*%
%MOMM*%
%TF.SameCoordinates,8AA56912-9505-4270-891B-A046144FA8B4*%
%TF.FilePolarity,Positive*%
%TF.FileFunction,Legend,Top*%
%TF.Part,Single*%
G01*
G75*
%TA.AperFunction,NonConductor*%
%ADD19C,0.25400*%
%ADD20C,0.30480*%
%ADD21C,0.10000*%
D19*
X7893000Y8623000D02*
X10433000D01*
Y8877000D01*
X7893000D02*
X10433000D01*
X7893000Y8623000D02*
Y8877000D01*
X8147000Y8623000D02*
Y8877000D01*
X7992200Y6150592D02*
Y6302943D01*
X8042983Y6252159D01*
X8093767Y6302943D01*
Y6150592D01*
X8220726Y6302943D02*
X8169943D01*
X8144551Y6277551D01*
Y6175984D01*
X8169943Y6150592D01*
X8220726D01*
X8246118Y6175984D01*
Y6277551D01*
X8220726Y6302943D01*
X8296901D02*
X8398469D01*
X8347685D01*
Y6150592D01*
X8449252Y6302943D02*
X8500036D01*
X8474644D01*
Y6150592D01*
X8449252D01*
X8500036D01*
X8652386Y6302943D02*
X8601603D01*
X8576211Y6277551D01*
Y6175984D01*
X8601603Y6150592D01*
X8652386D01*
X8677778Y6175984D01*
Y6277551D01*
X8652386Y6302943D01*
X8728562Y6150592D02*
Y6302943D01*
X8830129Y6150592D01*
Y6302943D01*
X8880912Y6125200D02*
X8982480D01*
X9033263Y6302943D02*
Y6150592D01*
X9109438D01*
X9134830Y6175984D01*
Y6277551D01*
X9109438Y6302943D01*
X9033263D01*
X9287181D02*
X9185614D01*
Y6150592D01*
X9287181D01*
X9185614Y6226767D02*
X9236397D01*
X9439532Y6277551D02*
X9414140Y6302943D01*
X9363356D01*
X9337965Y6277551D01*
Y6175984D01*
X9363356Y6150592D01*
X9414140D01*
X9439532Y6175984D01*
X9490315Y6150592D02*
Y6175984D01*
X9515707D01*
Y6150592D01*
X9490315D01*
X9769625Y6302943D02*
Y6201375D01*
X9820408Y6150592D01*
X9871192Y6201375D01*
Y6302943D01*
X9921976Y6150592D02*
X9972759D01*
X9947367D01*
Y6302943D01*
X9921976Y6277551D01*
X7992200Y6556951D02*
Y6404600D01*
Y6455384D01*
X8093767Y6556951D01*
X8017592Y6480775D01*
X8093767Y6404600D01*
X8144551D02*
Y6556951D01*
X8220726D01*
X8246118Y6531559D01*
Y6480775D01*
X8220726Y6455384D01*
X8144551D01*
X8195334D02*
X8246118Y6404600D01*
X8296901D02*
Y6506167D01*
X8347685Y6556951D01*
X8398469Y6506167D01*
Y6404600D01*
Y6480775D01*
X8296901D01*
X8449252Y6404600D02*
Y6556951D01*
X8525427D01*
X8550819Y6531559D01*
Y6480775D01*
X8525427Y6455384D01*
X8449252D01*
X8500036D02*
X8550819Y6404600D01*
X8601603D02*
X8703170Y6506167D01*
X8855521Y6531559D02*
X8830129Y6556951D01*
X8779345D01*
X8753954Y6531559D01*
Y6506167D01*
X8779345Y6480775D01*
X8830129D01*
X8855521Y6455384D01*
Y6429992D01*
X8830129Y6404600D01*
X8779345D01*
X8753954Y6429992D01*
X9007871Y6531559D02*
X8982480Y6556951D01*
X8931696D01*
X8906304Y6531559D01*
Y6429992D01*
X8931696Y6404600D01*
X8982480D01*
X9007871Y6429992D01*
X9058655Y6556951D02*
Y6404600D01*
Y6480775D01*
X9160222D01*
Y6556951D01*
Y6404600D01*
X9312573Y6556951D02*
X9211006D01*
Y6480775D01*
X9261789D01*
X9211006D01*
Y6404600D01*
X11658433Y7586175D02*
Y7459216D01*
X11683825Y7433825D01*
X11734608D01*
X11760000Y7459216D01*
Y7586175D01*
X11810784Y7433825D02*
X11861567D01*
X11836176D01*
Y7586175D01*
X11810784Y7560783D01*
X10469880Y7683500D02*
Y7835851D01*
X10546055D01*
X10571447Y7810459D01*
Y7759675D01*
X10546055Y7734283D01*
X10469880D01*
X10520663D02*
X10571447Y7683500D01*
X10622231Y7810459D02*
X10647623Y7835851D01*
X10698406D01*
X10723798Y7810459D01*
Y7785067D01*
X10698406Y7759675D01*
X10673014D01*
X10698406D01*
X10723798Y7734283D01*
Y7708892D01*
X10698406Y7683500D01*
X10647623D01*
X10622231Y7708892D01*
X8098041Y7598825D02*
Y7751175D01*
X8174217D01*
X8199608Y7725783D01*
Y7675000D01*
X8174217Y7649608D01*
X8098041D01*
X8148825D02*
X8199608Y7598825D01*
X8351959D02*
X8250392D01*
X8351959Y7700392D01*
Y7725783D01*
X8326567Y7751175D01*
X8275784D01*
X8250392Y7725783D01*
X8173433Y7873825D02*
Y8026175D01*
X8249608D01*
X8275000Y8000784D01*
Y7950000D01*
X8249608Y7924608D01*
X8173433D01*
X8224216D02*
X8275000Y7873825D01*
X8325784D02*
X8376567D01*
X8351176D01*
Y8026175D01*
X8325784Y8000784D01*
D20*
X10460700Y7591300D02*
X10689300D01*
X10460700Y7108700D02*
X10689300D01*
X10460700Y7400800D02*
Y7591300D01*
X10689300Y7400800D02*
Y7591300D01*
Y7108700D02*
Y7299200D01*
X10460700Y7108700D02*
Y7299200D01*
X8927000Y7551195D02*
Y7779795D01*
X8444400Y7551195D02*
Y7779795D01*
X8736500D02*
X8927000D01*
X8736500Y7551195D02*
X8927000D01*
X8444400D02*
X8634900D01*
X8444400Y7779795D02*
X8634900D01*
X8448000Y7835700D02*
Y8064300D01*
X8930600Y7835700D02*
Y8064300D01*
X8448000Y7835700D02*
X8638500D01*
X8448000Y8064300D02*
X8638500D01*
X8740100D02*
X8930600D01*
X8740100Y7835700D02*
X8930600D01*
D21*
X10962000Y6200000D02*
Y8800000D01*
X12292000D01*
Y6200000D02*
Y8800000D01*
X10962000Y6200000D02*
X12292000D01*
%TF.MD5,3034c6632f24dafda82f1ae74137d46d*%
M02*
