%TF.GenerationSoftware,Altium Limited,Altium Designer,24.0.1 (36)*%
G04 Layer_Physical_Order=1*
G04 Layer_Color=255*
%FSLAX45Y45*%
%MOMM*%
%TF.SameCoordinates,95B5C6B2-F670-4A0E-B731-85317CB4A22F*%
%TF.FilePolarity,Positive*%
%TF.FileFunction,Copper,L1,Top,Signal*%
%TF.Part,Single*%
G01*
G75*
%TA.AperFunction,SMDPad,CuDef*%
G04:AMPARAMS|DCode=10|XSize=1.14mm|YSize=1.63mm|CornerRadius=0.1425mm|HoleSize=0mm|Usage=FLASHONLY|Rotation=0.000|XOffset=0mm|YOffset=0mm|HoleType=Round|Shape=RoundedRectangle|*
%AMROUNDEDRECTD10*
21,1,1.14000,1.34500,0,0,0.0*
21,1,0.85500,1.63000,0,0,0.0*
1,1,0.28500,0.42750,-0.67250*
1,1,0.28500,-0.42750,-0.67250*
1,1,0.28500,-0.42750,0.67250*
1,1,0.28500,0.42750,0.67250*
%
%ADD10ROUNDEDRECTD10*%
G04:AMPARAMS|DCode=11|XSize=1.524mm|YSize=1.27mm|CornerRadius=0.09525mm|HoleSize=0mm|Usage=FLASHONLY|Rotation=180.000|XOffset=0mm|YOffset=0mm|HoleType=Round|Shape=RoundedRectangle|*
%AMROUNDEDRECTD11*
21,1,1.52400,1.07950,0,0,180.0*
21,1,1.33350,1.27000,0,0,180.0*
1,1,0.19050,-0.66675,0.53975*
1,1,0.19050,0.66675,0.53975*
1,1,0.19050,0.66675,-0.53975*
1,1,0.19050,-0.66675,-0.53975*
%
%ADD11ROUNDEDRECTD11*%
G04:AMPARAMS|DCode=12|XSize=0.762mm|YSize=0.762mm|CornerRadius=0.0381mm|HoleSize=0mm|Usage=FLASHONLY|Rotation=180.000|XOffset=0mm|YOffset=0mm|HoleType=Round|Shape=RoundedRectangle|*
%AMROUNDEDRECTD12*
21,1,0.76200,0.68580,0,0,180.0*
21,1,0.68580,0.76200,0,0,180.0*
1,1,0.07620,-0.34290,0.34290*
1,1,0.07620,0.34290,0.34290*
1,1,0.07620,0.34290,-0.34290*
1,1,0.07620,-0.34290,-0.34290*
%
%ADD12ROUNDEDRECTD12*%
G04:AMPARAMS|DCode=13|XSize=1.524mm|YSize=1.27mm|CornerRadius=0.09525mm|HoleSize=0mm|Usage=FLASHONLY|Rotation=90.000|XOffset=0mm|YOffset=0mm|HoleType=Round|Shape=RoundedRectangle|*
%AMROUNDEDRECTD13*
21,1,1.52400,1.07950,0,0,90.0*
21,1,1.33350,1.27000,0,0,90.0*
1,1,0.19050,0.53975,0.66675*
1,1,0.19050,0.53975,-0.66675*
1,1,0.19050,-0.53975,-0.66675*
1,1,0.19050,-0.53975,0.66675*
%
%ADD13ROUNDEDRECTD13*%
%ADD14R,0.91440X1.27000*%
%ADD15R,0.91440X0.91440*%
G04:AMPARAMS|DCode=16|XSize=7.5mm|YSize=3mm|CornerRadius=0.225mm|HoleSize=0mm|Usage=FLASHONLY|Rotation=180.000|XOffset=0mm|YOffset=0mm|HoleType=Round|Shape=RoundedRectangle|*
%AMROUNDEDRECTD16*
21,1,7.50000,2.55000,0,0,180.0*
21,1,7.05000,3.00000,0,0,180.0*
1,1,0.45000,-3.52500,1.27500*
1,1,0.45000,3.52500,1.27500*
1,1,0.45000,3.52500,-1.27500*
1,1,0.45000,-3.52500,-1.27500*
%
%ADD16ROUNDEDRECTD16*%
G04:AMPARAMS|DCode=17|XSize=1.14mm|YSize=1.63mm|CornerRadius=0.1425mm|HoleSize=0mm|Usage=FLASHONLY|Rotation=90.000|XOffset=0mm|YOffset=0mm|HoleType=Round|Shape=RoundedRectangle|*
%AMROUNDEDRECTD17*
21,1,1.14000,1.34500,0,0,90.0*
21,1,0.85500,1.63000,0,0,90.0*
1,1,0.28500,0.67250,0.42750*
1,1,0.28500,0.67250,-0.42750*
1,1,0.28500,-0.67250,-0.42750*
1,1,0.28500,-0.67250,0.42750*
%
%ADD17ROUNDEDRECTD17*%
G04:AMPARAMS|DCode=18|XSize=2.5mm|YSize=1.6mm|CornerRadius=0.12mm|HoleSize=0mm|Usage=FLASHONLY|Rotation=90.000|XOffset=0mm|YOffset=0mm|HoleType=Round|Shape=RoundedRectangle|*
%AMROUNDEDRECTD18*
21,1,2.50000,1.36000,0,0,90.0*
21,1,2.26000,1.60000,0,0,90.0*
1,1,0.24000,0.68000,1.13000*
1,1,0.24000,0.68000,-1.13000*
1,1,0.24000,-0.68000,-1.13000*
1,1,0.24000,-0.68000,1.13000*
%
%ADD18ROUNDEDRECTD18*%
G04:AMPARAMS|DCode=19|XSize=2.032mm|YSize=0.6096mm|CornerRadius=0.04572mm|HoleSize=0mm|Usage=FLASHONLY|Rotation=270.000|XOffset=0mm|YOffset=0mm|HoleType=Round|Shape=RoundedRectangle|*
%AMROUNDEDRECTD19*
21,1,2.03200,0.51816,0,0,270.0*
21,1,1.94056,0.60960,0,0,270.0*
1,1,0.09144,-0.25908,-0.97028*
1,1,0.09144,-0.25908,0.97028*
1,1,0.09144,0.25908,0.97028*
1,1,0.09144,0.25908,-0.97028*
%
%ADD19ROUNDEDRECTD19*%
G04:AMPARAMS|DCode=20|XSize=2.5mm|YSize=1.6mm|CornerRadius=0.12mm|HoleSize=0mm|Usage=FLASHONLY|Rotation=0.000|XOffset=0mm|YOffset=0mm|HoleType=Round|Shape=RoundedRectangle|*
%AMROUNDEDRECTD20*
21,1,2.50000,1.36000,0,0,0.0*
21,1,2.26000,1.60000,0,0,0.0*
1,1,0.24000,1.13000,-0.68000*
1,1,0.24000,-1.13000,-0.68000*
1,1,0.24000,-1.13000,0.68000*
1,1,0.24000,1.13000,0.68000*
%
%ADD20ROUNDEDRECTD20*%
%TA.AperFunction,Conductor*%
%ADD21C,0.60000*%
%ADD22C,1.50000*%
%ADD23C,0.75000*%
%ADD24C,3.00000*%
%ADD25C,2.20000*%
%ADD26C,1.00000*%
%TA.AperFunction,NonConductor*%
%ADD27C,0.25400*%
%TA.AperFunction,ComponentPad*%
%ADD28C,1.85000*%
%ADD29R,1.85000X1.85000*%
%ADD30C,5.00000*%
%ADD31C,2.15000*%
%ADD32R,2.15000X2.15000*%
%ADD33C,3.00000*%
%ADD34C,1.52400*%
%ADD35C,1.95000*%
%ADD36O,2.15000X2.50000*%
%ADD37R,1.75001X1.75001*%
%ADD38C,1.75001*%
%ADD39R,2.05000X2.05000*%
%ADD40C,2.05000*%
%ADD41C,1.85001*%
%ADD42O,3.10000X1.55000*%
%ADD43C,2.60000*%
%ADD44R,2.60000X2.60000*%
%TA.AperFunction,ViaPad*%
%ADD45C,1.40000*%
G36*
X8910000Y6160000D02*
Y5980000D01*
X8680000Y5750000D01*
X7390000D01*
Y5950000D01*
X7390000D01*
X7440000Y6000000D01*
X8440000D01*
X8670000Y6230000D01*
X8840000D01*
X8910000Y6160000D01*
D02*
G37*
G36*
X7250000Y6000000D02*
X7300000Y5950000D01*
Y5750000D01*
X6575000Y5725000D01*
X6465384Y5375000D01*
X6225000D01*
X6200000Y5525000D01*
Y6050000D01*
X6500000D01*
X7250000Y6000000D01*
D02*
G37*
G36*
X9164931Y3787300D02*
X9156596Y3780904D01*
X9142290Y3762260D01*
X9133297Y3740549D01*
X9130230Y3717250D01*
Y3582750D01*
X9133297Y3559451D01*
X9142290Y3537740D01*
X9156596Y3519096D01*
X9175240Y3504790D01*
X9196951Y3495797D01*
X9220250Y3492730D01*
X9305750D01*
X9329049Y3495797D01*
X9350760Y3504790D01*
X9369404Y3519096D01*
X9382780Y3536529D01*
X9420779D01*
X9479280Y3478028D01*
Y3417520D01*
X9382760D01*
Y3411871D01*
X9293091D01*
X9291259Y3414259D01*
X9273602Y3427808D01*
X9253040Y3436325D01*
X9230975Y3439230D01*
X9097625D01*
X9075559Y3436325D01*
X9054998Y3427808D01*
X9050000Y3423973D01*
X9045002Y3427808D01*
X9024440Y3436325D01*
X9002375Y3439230D01*
X8869025D01*
X8846959Y3436325D01*
X8826398Y3427808D01*
X8808741Y3414259D01*
X8808136Y3413471D01*
X8774001D01*
X8639501Y3547972D01*
Y3566005D01*
X8633256Y3597400D01*
X8621006Y3626973D01*
X8603223Y3653588D01*
X8580588Y3676223D01*
X8553973Y3694006D01*
X8524400Y3706256D01*
X8493005Y3712501D01*
X8460995D01*
X8429600Y3706256D01*
X8400027Y3694006D01*
X8373412Y3676223D01*
X8372234Y3675044D01*
X8360500Y3679905D01*
Y3687500D01*
X8248000D01*
Y3550000D01*
Y3412500D01*
X8360500D01*
Y3420096D01*
X8372234Y3424956D01*
X8373412Y3423778D01*
X8400027Y3405994D01*
X8429600Y3393744D01*
X8460995Y3387499D01*
X8479029D01*
X8646764Y3219764D01*
X8670265Y3201731D01*
X8697632Y3190395D01*
X8727000Y3186529D01*
X8808136D01*
X8808741Y3185741D01*
X8826398Y3172192D01*
X8840934Y3166171D01*
X8838408Y3153471D01*
X8660000D01*
X8630631Y3149605D01*
X8603264Y3138269D01*
X8579764Y3120236D01*
X8480811Y3021284D01*
X8462779Y2997783D01*
X8451443Y2970416D01*
X8447576Y2941047D01*
Y2889695D01*
X8433225Y2880106D01*
X8413000Y2859881D01*
X8399471Y2873410D01*
Y2964000D01*
X8395604Y2993368D01*
X8384269Y3020735D01*
X8366236Y3044236D01*
X8180236Y3230236D01*
X8156735Y3248269D01*
X8129368Y3259605D01*
X8100000Y3263471D01*
X8063471D01*
Y3510500D01*
X8059605Y3539868D01*
X8048269Y3567235D01*
X8030236Y3590736D01*
X8027089Y3593883D01*
X8033932Y3605000D01*
X8069090D01*
X8075424Y3606697D01*
X8085500Y3598966D01*
Y3575000D01*
X8198000D01*
Y3687500D01*
X8194896D01*
X8186771Y3700201D01*
X8195000Y3730910D01*
Y3769090D01*
X8189417Y3789924D01*
X8197148Y3800000D01*
X8821529D01*
Y3771694D01*
X8814290Y3762260D01*
X8805297Y3740549D01*
X8802230Y3717250D01*
Y3582750D01*
X8805297Y3559451D01*
X8814290Y3537740D01*
X8828596Y3519096D01*
X8847240Y3504790D01*
X8868951Y3495797D01*
X8892250Y3492730D01*
X8977750D01*
X9001049Y3495797D01*
X9022760Y3504790D01*
X9041404Y3519096D01*
X9055710Y3537740D01*
X9064703Y3559451D01*
X9067770Y3582750D01*
Y3717250D01*
X9064703Y3740549D01*
X9055710Y3762260D01*
X9048471Y3771694D01*
Y3800000D01*
X9160620D01*
X9164931Y3787300D01*
D02*
G37*
G36*
X7615180D02*
X7604790Y3773760D01*
X7595797Y3752049D01*
X7592730Y3728750D01*
Y3643250D01*
X7595797Y3619951D01*
X7604790Y3598240D01*
X7619096Y3579596D01*
X7637740Y3565290D01*
X7659451Y3556297D01*
X7682750Y3553230D01*
X7746798D01*
X7836529Y3463499D01*
Y3290138D01*
X7824796Y3285278D01*
X7598888Y3511186D01*
X7598887Y3511187D01*
X7436284Y3673790D01*
X7433222Y3685218D01*
X7427306Y3695465D01*
Y3800000D01*
X7608916D01*
X7615180Y3787300D01*
D02*
G37*
G36*
X10000000Y0D02*
X0D01*
Y2650000D01*
X1000000D01*
Y2100000D01*
X1950000D01*
X3000000Y3150000D01*
X3700000Y3800000D01*
X7215494D01*
Y3695465D01*
X7209578Y3685218D01*
X7203866Y3663900D01*
X7321400D01*
Y3613900D01*
X7203866D01*
X7209578Y3592582D01*
X7225376Y3565219D01*
X7247718Y3542877D01*
X7275082Y3527078D01*
X7286510Y3524016D01*
X7418094Y3392432D01*
Y2852714D01*
X7405394Y2848861D01*
X7400106Y2856775D01*
X7376775Y2880106D01*
X7349341Y2898437D01*
X7318858Y2911063D01*
X7286497Y2917500D01*
X7253503D01*
X7221142Y2911063D01*
X7190659Y2898437D01*
X7163225Y2880106D01*
X7143000Y2859881D01*
X7122775Y2880106D01*
X7095341Y2898437D01*
X7064858Y2911063D01*
X7032497Y2917500D01*
X6999503D01*
X6967142Y2911063D01*
X6936659Y2898437D01*
X6909225Y2880106D01*
X6885894Y2856775D01*
X6879782Y2847627D01*
X6867143Y2846382D01*
X6849497Y2864028D01*
X6817003Y2882789D01*
X6787000Y2890828D01*
Y2750000D01*
Y2609172D01*
X6817003Y2617211D01*
X6849497Y2635972D01*
X6867143Y2653618D01*
X6879782Y2652373D01*
X6885894Y2643225D01*
X6902529Y2626590D01*
Y2443001D01*
X6782999Y2323471D01*
X5665751D01*
Y2335286D01*
X5662761Y2357997D01*
X5653994Y2379161D01*
X5640049Y2397335D01*
X5630288Y2404825D01*
X5623266Y2413857D01*
X5627692Y2422057D01*
X5636402Y2435094D01*
X5641214Y2459285D01*
Y2547286D01*
X5510000D01*
X5378786D01*
Y2459285D01*
X5383598Y2435094D01*
X5392308Y2422057D01*
X5396734Y2413857D01*
X5389711Y2404825D01*
X5379951Y2397335D01*
X5366006Y2379161D01*
X5357239Y2357997D01*
X5354249Y2335286D01*
Y2323471D01*
X4880000D01*
X4850631Y2319604D01*
X4823264Y2308269D01*
X4799764Y2290236D01*
X4715764Y2206236D01*
X4697731Y2182736D01*
X4686396Y2155369D01*
X4682529Y2126000D01*
Y2092167D01*
X4666328Y2078872D01*
X4643523Y2051083D01*
X4626576Y2019378D01*
X4616141Y1984977D01*
X4612617Y1949200D01*
Y1914200D01*
X4616141Y1878424D01*
X4626576Y1844022D01*
X4643523Y1812318D01*
X4666328Y1784529D01*
X4694118Y1761723D01*
X4725822Y1744776D01*
X4760224Y1734341D01*
X4796000Y1730817D01*
X4831776Y1734341D01*
X4866178Y1744776D01*
X4897882Y1761723D01*
X4925672Y1784529D01*
X4939381Y1801234D01*
X4962074Y1782610D01*
X4982887Y1771486D01*
X4985904Y1756543D01*
X4767832Y1538471D01*
X4355689D01*
X4352761Y1560712D01*
X4343994Y1581875D01*
X4330049Y1600049D01*
X4311875Y1613994D01*
X4290712Y1622761D01*
X4268000Y1625751D01*
X4159721D01*
X4155236Y1630236D01*
X4131735Y1648269D01*
X4104368Y1659605D01*
X4075000Y1663471D01*
X3984192D01*
X3975818Y1673019D01*
X3976079Y1675000D01*
Y1895971D01*
X3985712Y1897239D01*
X4006875Y1906006D01*
X4025049Y1919951D01*
X4032539Y1929711D01*
X4041571Y1936734D01*
X4049772Y1932308D01*
X4062808Y1923598D01*
X4087000Y1918786D01*
X4175000D01*
Y2050000D01*
Y2181214D01*
X4087000D01*
X4062808Y2176402D01*
X4049772Y2167692D01*
X4041571Y2163266D01*
X4032539Y2170289D01*
X4025049Y2180049D01*
X4006875Y2193994D01*
X3985712Y2202761D01*
X3963000Y2205751D01*
X3737000D01*
X3714288Y2202761D01*
X3693124Y2193994D01*
X3674951Y2180049D01*
X3661005Y2161875D01*
X3652239Y2140711D01*
X3649249Y2118000D01*
Y1982000D01*
X3652239Y1959288D01*
X3661005Y1938125D01*
X3674951Y1919951D01*
X3693124Y1906006D01*
X3714288Y1897239D01*
X3723921Y1895971D01*
Y1775841D01*
X3600726D01*
Y1986880D01*
X3601930Y1996025D01*
Y2103975D01*
X3599025Y2126040D01*
X3590508Y2146602D01*
X3576959Y2164259D01*
X3559302Y2177808D01*
X3538740Y2186325D01*
X3516675Y2189230D01*
X3507723D01*
X3507680Y2189252D01*
X3479405Y2197829D01*
X3450000Y2200726D01*
X3420595Y2197829D01*
X3392320Y2189252D01*
X3392277Y2189230D01*
X3383325D01*
X3361259Y2186325D01*
X3340698Y2177808D01*
X3335700Y2173973D01*
X3330702Y2177808D01*
X3310140Y2186325D01*
X3288075Y2189230D01*
X3154725D01*
X3132659Y2186325D01*
X3112098Y2177808D01*
X3094441Y2164259D01*
X3094245Y2164004D01*
X2947607D01*
X2946594Y2165324D01*
X2928937Y2178873D01*
X2908375Y2187390D01*
X2886309Y2190295D01*
X2752959D01*
X2730894Y2187390D01*
X2710332Y2178873D01*
X2692675Y2165324D01*
X2686559Y2157354D01*
X2680935Y2161112D01*
X2657709Y2165731D01*
X2616035D01*
Y2051065D01*
Y1936399D01*
X2657709D01*
X2680935Y1941019D01*
X2686559Y1944777D01*
X2692675Y1936806D01*
X2706163Y1926456D01*
Y1745739D01*
X2693463Y1743213D01*
X2688871Y1754300D01*
X2668434Y1780934D01*
X2641800Y1801371D01*
X2610784Y1814218D01*
X2577500Y1818600D01*
X2525000D01*
Y1690000D01*
Y1561400D01*
X2525037D01*
X2531291Y1552968D01*
X2532089Y1548700D01*
X2529262Y1520000D01*
X2532089Y1491300D01*
X2531290Y1487032D01*
X2525037Y1478600D01*
X2525000D01*
Y1350000D01*
Y1221400D01*
X2525037D01*
X2531290Y1212968D01*
X2532089Y1208700D01*
X2529262Y1180000D01*
X2529986Y1172648D01*
X2521457Y1163238D01*
X2422500D01*
X2392605Y1160294D01*
X2363858Y1151574D01*
X2337366Y1137413D01*
X2320377Y1123471D01*
X2097476D01*
X2093994Y1131876D01*
X2080049Y1150049D01*
X2070288Y1157539D01*
X2063266Y1166571D01*
X2067692Y1174772D01*
X2076402Y1187809D01*
X2081214Y1212000D01*
Y1300000D01*
X1950000D01*
X1818786D01*
Y1212000D01*
X1823598Y1187809D01*
X1832308Y1174772D01*
X1836734Y1166571D01*
X1829711Y1157539D01*
X1819951Y1150049D01*
X1806006Y1131876D01*
X1797239Y1110712D01*
X1794311Y1088471D01*
X1572001D01*
X1344471Y1316001D01*
Y1405804D01*
X1361106Y1422439D01*
X1379437Y1449873D01*
X1392064Y1480356D01*
X1398501Y1512717D01*
Y1545712D01*
X1392064Y1578073D01*
X1379437Y1608556D01*
X1361106Y1635990D01*
X1337776Y1659321D01*
X1310341Y1677652D01*
X1279858Y1690278D01*
X1247497Y1696715D01*
X1214503D01*
X1182142Y1690278D01*
X1151659Y1677652D01*
X1124225Y1659321D01*
X1100894Y1635990D01*
X1082563Y1608556D01*
X1069936Y1578073D01*
X1063500Y1545712D01*
Y1512717D01*
X1069936Y1480356D01*
X1082563Y1449873D01*
X1100894Y1422439D01*
X1117529Y1405804D01*
Y1269000D01*
X1121396Y1239632D01*
X1132731Y1212265D01*
X1150764Y1188764D01*
X1444764Y894764D01*
X1468265Y876731D01*
X1495632Y865396D01*
X1525000Y861529D01*
X1794311D01*
X1797239Y839288D01*
X1806006Y818125D01*
X1819951Y799951D01*
X1838125Y786006D01*
X1859288Y777239D01*
X1882000Y774249D01*
X2018000D01*
X2040711Y777239D01*
X2061875Y786006D01*
X2080049Y799951D01*
X2093994Y818125D01*
X2102761Y839288D01*
X2105751Y862000D01*
Y896529D01*
X2320377D01*
X2337366Y882587D01*
X2363858Y868427D01*
X2392605Y859706D01*
X2422500Y856762D01*
X2577500D01*
X2607395Y859706D01*
X2636142Y868427D01*
X2656109Y879099D01*
X2667458Y870765D01*
X2605670Y544057D01*
X2605274Y537002D01*
X2604353Y530000D01*
Y220000D01*
X2606930Y200421D01*
X2614488Y182176D01*
X2616714Y179274D01*
Y145000D01*
X2675084D01*
X2680000Y144353D01*
X2950000D01*
X2954916Y145000D01*
X3026715D01*
Y174939D01*
X3895293Y633090D01*
X3896480Y633931D01*
X3897824Y634488D01*
X3901371Y637210D01*
X3901671Y637334D01*
X3906311Y640894D01*
X3911408Y644505D01*
X3912095Y645333D01*
X3922038Y652962D01*
X3937666Y673330D01*
X3947490Y697048D01*
X3950841Y722500D01*
Y977500D01*
X3947490Y1002953D01*
X3937666Y1026671D01*
X3922038Y1047038D01*
X3901671Y1062666D01*
X3901371Y1062790D01*
X3897824Y1065512D01*
X3879579Y1073070D01*
X3860000Y1075647D01*
X3853974D01*
X3852500Y1075841D01*
X3191140D01*
X2963491Y1303491D01*
X2947824Y1315513D01*
X2929579Y1323070D01*
X2910000Y1325647D01*
X2882713D01*
X2867395Y1330294D01*
X2837500Y1333238D01*
X2713524D01*
X2705150Y1342787D01*
X2706100Y1350000D01*
X2705150Y1357213D01*
X2713524Y1366762D01*
X2837500D01*
X2867395Y1369706D01*
X2896142Y1378427D01*
X2922634Y1392587D01*
X2945856Y1411644D01*
X2964913Y1434866D01*
X2979074Y1461358D01*
X2987794Y1490105D01*
X2990738Y1520000D01*
X2987794Y1549895D01*
X2979074Y1578642D01*
X2964913Y1605134D01*
X2945856Y1628356D01*
X2933105Y1638819D01*
Y1926456D01*
X2946594Y1936806D01*
X2946790Y1937062D01*
X3093427D01*
X3094441Y1935741D01*
X3112098Y1922192D01*
X3132659Y1913675D01*
X3154725Y1910770D01*
X3288075D01*
X3289726Y1910988D01*
X3299274Y1902614D01*
Y1775841D01*
X3147500D01*
X3122048Y1772490D01*
X3098330Y1762666D01*
X3077962Y1747038D01*
X3062334Y1726671D01*
X3052510Y1702952D01*
X3049159Y1677500D01*
Y1422500D01*
X3052510Y1397047D01*
X3062334Y1373329D01*
X3077962Y1352962D01*
X3098330Y1337334D01*
X3122048Y1327510D01*
X3147500Y1324159D01*
X3852500D01*
X3877953Y1327510D01*
X3901671Y1337334D01*
X3922038Y1352962D01*
X3937666Y1373329D01*
X3947490Y1397047D01*
X3950841Y1422500D01*
Y1436529D01*
X4027999D01*
X4032264Y1432264D01*
X4044249Y1423067D01*
Y1312000D01*
X4047239Y1289288D01*
X4056006Y1268124D01*
X4069951Y1249951D01*
X4079711Y1242461D01*
X4086734Y1233429D01*
X4082308Y1225228D01*
X4073598Y1212191D01*
X4068786Y1188000D01*
Y1100000D01*
X4200000D01*
X4331214D01*
Y1188000D01*
X4326402Y1212191D01*
X4317692Y1225228D01*
X4313266Y1233429D01*
X4320289Y1242461D01*
X4330049Y1249951D01*
X4343994Y1268124D01*
X4352761Y1289288D01*
X4355689Y1311529D01*
X4814834D01*
X4844202Y1315395D01*
X4871569Y1326731D01*
X4895070Y1344764D01*
X5283143Y1732837D01*
X5304000Y1730783D01*
X5339776Y1734307D01*
X5374178Y1744742D01*
X5405882Y1761689D01*
X5433672Y1784495D01*
X5456478Y1812284D01*
X5473424Y1843988D01*
X5483859Y1878390D01*
X5487383Y1914166D01*
Y1949166D01*
X5483859Y1984943D01*
X5476612Y2008834D01*
X5486031Y2021535D01*
X5578000D01*
X5600711Y2024525D01*
X5621875Y2033291D01*
X5640049Y2047236D01*
X5653994Y2065410D01*
X5662761Y2086574D01*
X5664071Y2096529D01*
X6830000D01*
X6859368Y2100395D01*
X6886735Y2111731D01*
X6910236Y2129764D01*
X7096236Y2315764D01*
X7114269Y2339265D01*
X7125604Y2366632D01*
X7129471Y2396000D01*
Y2626590D01*
X7143000Y2640119D01*
X7163225Y2619894D01*
X7190659Y2601564D01*
X7221142Y2588937D01*
X7253503Y2582500D01*
X7286497D01*
X7318858Y2588937D01*
X7349341Y2601564D01*
X7376775Y2619894D01*
X7400106Y2643225D01*
X7406218Y2652373D01*
X7418857Y2653618D01*
X7436503Y2635972D01*
X7468997Y2617211D01*
X7499000Y2609172D01*
Y2750000D01*
X7549000D01*
Y2609172D01*
X7579003Y2617211D01*
X7611497Y2635972D01*
X7629143Y2653618D01*
X7641782Y2652373D01*
X7643482Y2649829D01*
Y2603954D01*
X7511164Y2471636D01*
X7493131Y2448136D01*
X7481796Y2420769D01*
X7477929Y2391400D01*
Y2064609D01*
X7464441Y2054259D01*
X7450892Y2036602D01*
X7442376Y2016040D01*
X7439471Y1993975D01*
Y1886025D01*
X7442376Y1863959D01*
X7450892Y1843398D01*
X7464441Y1825741D01*
X7482098Y1812192D01*
X7502660Y1803675D01*
X7524725Y1800770D01*
X7658075D01*
X7680141Y1803675D01*
X7700702Y1812192D01*
X7705700Y1816027D01*
X7710698Y1812192D01*
X7731260Y1803675D01*
X7753325Y1800770D01*
X7886675D01*
X7908741Y1803675D01*
X7929302Y1812192D01*
X7946959Y1825741D01*
X7947564Y1826529D01*
X8012436D01*
X8013041Y1825741D01*
X8030698Y1812192D01*
X8051259Y1803675D01*
X8073325Y1800770D01*
X8206675D01*
X8228740Y1803675D01*
X8249302Y1812192D01*
X8266959Y1825741D01*
X8273075Y1833712D01*
X8278699Y1829954D01*
X8301925Y1825334D01*
X8343600D01*
Y1940000D01*
Y2054666D01*
X8301925D01*
X8278699Y2050046D01*
X8273075Y2046288D01*
X8266959Y2054259D01*
X8249302Y2067808D01*
X8228740Y2076325D01*
X8206675Y2079230D01*
X8145471D01*
Y2626590D01*
X8159000Y2640119D01*
X8179225Y2619894D01*
X8206659Y2601564D01*
X8237142Y2588937D01*
X8269503Y2582500D01*
X8302497D01*
X8334858Y2588937D01*
X8365341Y2601564D01*
X8392775Y2619894D01*
X8413000Y2640119D01*
X8433225Y2619894D01*
X8460659Y2601564D01*
X8491142Y2588937D01*
X8523503Y2582500D01*
X8556497D01*
X8588858Y2588937D01*
X8619341Y2601564D01*
X8646775Y2619894D01*
X8667000Y2640119D01*
X8687225Y2619894D01*
X8714659Y2601564D01*
X8745142Y2588937D01*
X8777503Y2582500D01*
X8810497D01*
X8842858Y2588937D01*
X8873341Y2601564D01*
X8900775Y2619894D01*
X8921000Y2640119D01*
X8941225Y2619894D01*
X8968659Y2601564D01*
X8999142Y2588937D01*
X9031503Y2582500D01*
X9064497D01*
X9096858Y2588937D01*
X9127341Y2601564D01*
X9154775Y2619894D01*
X9175000Y2640119D01*
X9195225Y2619894D01*
X9222659Y2601564D01*
X9253142Y2588937D01*
X9285503Y2582500D01*
X9318497D01*
X9350858Y2588937D01*
X9381341Y2601564D01*
X9408775Y2619894D01*
X9429000Y2640119D01*
X9449225Y2619894D01*
X9476659Y2601564D01*
X9507142Y2588937D01*
X9539503Y2582500D01*
X9572497D01*
X9604858Y2588937D01*
X9635341Y2601564D01*
X9662775Y2619894D01*
X9686106Y2643225D01*
X9704437Y2670659D01*
X9717063Y2701142D01*
X9723500Y2733503D01*
Y2766497D01*
X9717063Y2798858D01*
X9704437Y2829341D01*
X9686106Y2856775D01*
X9662775Y2880106D01*
X9635341Y2898437D01*
X9604858Y2911063D01*
X9572497Y2917500D01*
X9539503D01*
X9507142Y2911063D01*
X9476659Y2898437D01*
X9449225Y2880106D01*
X9429000Y2859881D01*
X9408775Y2880106D01*
X9381341Y2898437D01*
X9350858Y2911063D01*
X9318497Y2917500D01*
X9285503D01*
X9253142Y2911063D01*
X9222659Y2898437D01*
X9195225Y2880106D01*
X9175000Y2859881D01*
X9154775Y2880106D01*
X9127341Y2898437D01*
X9096858Y2911063D01*
X9074143Y2915581D01*
X9074565Y2928447D01*
X9089369Y2930395D01*
X9116736Y2941731D01*
X9140236Y2959764D01*
X9244536Y3064064D01*
X9262569Y3087564D01*
X9273904Y3114931D01*
X9277771Y3144300D01*
Y3175391D01*
X9290201Y3184929D01*
X9382760D01*
Y3176080D01*
X9624200D01*
Y3201080D01*
X9668980D01*
Y3296800D01*
X9693980D01*
Y3321800D01*
X9789700D01*
Y3392520D01*
X9720720D01*
Y3638500D01*
X9639752D01*
X9624587Y3653666D01*
X9634605Y3677851D01*
X9638471Y3707220D01*
Y3800000D01*
X10000000D01*
Y0D01*
D02*
G37*
G36*
X7735413Y3075113D02*
X7757347Y3058283D01*
X7782889Y3047703D01*
X7810300Y3044094D01*
X7837711Y3047703D01*
X7861849Y3057701D01*
X7875965Y3046870D01*
X7895137Y3038929D01*
X7915710Y3036220D01*
X7984290D01*
X7986638Y3036529D01*
X8052999D01*
X8172529Y2916999D01*
Y2873410D01*
X8159000Y2859881D01*
X8138775Y2880106D01*
X8111341Y2898437D01*
X8080858Y2911063D01*
X8048497Y2917500D01*
X8015503D01*
X7983142Y2911063D01*
X7952659Y2898437D01*
X7925225Y2880106D01*
X7905000Y2859881D01*
X7884775Y2880106D01*
X7857341Y2898437D01*
X7826858Y2911063D01*
X7794497Y2917500D01*
X7761503D01*
X7729142Y2911063D01*
X7698659Y2898437D01*
X7671225Y2880106D01*
X7647894Y2856775D01*
X7642606Y2848861D01*
X7629906Y2852714D01*
Y3164027D01*
X7641639Y3168887D01*
X7735413Y3075113D01*
D02*
G37*
G36*
X7918529Y2626590D02*
Y2084222D01*
X7905829Y2076708D01*
X7886675Y2079230D01*
X7753325D01*
X7731260Y2076325D01*
X7717571Y2070655D01*
X7704871Y2078574D01*
Y2344399D01*
X7837189Y2476716D01*
X7855221Y2500217D01*
X7866557Y2527584D01*
X7870423Y2556952D01*
Y2610305D01*
X7884775Y2619894D01*
X7905000Y2640119D01*
X7918529Y2626590D01*
D02*
G37*
G36*
X3160000Y1000000D02*
X3860000D01*
Y700000D01*
X2950000Y220000D01*
X2680000D01*
Y530000D01*
X2748035Y889738D01*
Y1080000D01*
X2720000Y1100000D01*
X2700000Y1250000D01*
X2910000D01*
X3160000Y1000000D01*
D02*
G37*
%LPC*%
G36*
X8198000Y3525000D02*
X8085500D01*
Y3412500D01*
X8198000D01*
Y3525000D01*
D02*
G37*
G36*
X9789700Y3271800D02*
X9718980D01*
Y3201080D01*
X9789700D01*
Y3271800D01*
D02*
G37*
G36*
X6524497Y2917500D02*
X6491503D01*
X6459142Y2911063D01*
X6428659Y2898437D01*
X6401225Y2880106D01*
X6381000Y2859881D01*
X6360775Y2880106D01*
X6333341Y2898437D01*
X6302858Y2911063D01*
X6270497Y2917500D01*
X6237503D01*
X6205142Y2911063D01*
X6180200Y2900732D01*
X6167500Y2907871D01*
Y2917500D01*
X5832500D01*
Y2582500D01*
X6167500D01*
Y2592129D01*
X6180200Y2599268D01*
X6205142Y2588937D01*
X6237503Y2582500D01*
X6270497D01*
X6302858Y2588937D01*
X6333341Y2601564D01*
X6360775Y2619894D01*
X6381000Y2640119D01*
X6401225Y2619894D01*
X6428659Y2601564D01*
X6459142Y2588937D01*
X6491503Y2582500D01*
X6524497D01*
X6556858Y2588937D01*
X6587341Y2601564D01*
X6614775Y2619894D01*
X6638106Y2643225D01*
X6644218Y2652373D01*
X6656857Y2653618D01*
X6674503Y2635972D01*
X6706997Y2617211D01*
X6737000Y2609172D01*
Y2750000D01*
Y2890828D01*
X6706997Y2882789D01*
X6674503Y2864028D01*
X6656857Y2846382D01*
X6644218Y2847627D01*
X6638106Y2856775D01*
X6614775Y2880106D01*
X6587341Y2898437D01*
X6556858Y2911063D01*
X6524497Y2917500D01*
D02*
G37*
G36*
X3375000Y2949780D02*
Y2675000D01*
X3649780D01*
X3642613Y2720250D01*
X3628021Y2765160D01*
X3606583Y2807234D01*
X3578827Y2845437D01*
X3545437Y2878827D01*
X3507234Y2906583D01*
X3465160Y2928021D01*
X3420250Y2942613D01*
X3375000Y2949780D01*
D02*
G37*
G36*
X3325000D02*
X3279750Y2942613D01*
X3234840Y2928021D01*
X3192766Y2906583D01*
X3154563Y2878827D01*
X3121173Y2845437D01*
X3093417Y2807234D01*
X3071979Y2765160D01*
X3057387Y2720250D01*
X3050220Y2675000D01*
X3325000D01*
Y2949780D01*
D02*
G37*
G36*
X5578000Y2748500D02*
X5535000D01*
Y2597286D01*
X5641214D01*
Y2685285D01*
X5636402Y2709477D01*
X5622699Y2729985D01*
X5602191Y2743688D01*
X5578000Y2748500D01*
D02*
G37*
G36*
X5485000D02*
X5442000D01*
X5417809Y2743688D01*
X5397301Y2729985D01*
X5383598Y2709477D01*
X5378786Y2685285D01*
Y2597286D01*
X5485000D01*
Y2748500D01*
D02*
G37*
G36*
X825000Y2592515D02*
Y2467000D01*
X950515D01*
X946639Y2486482D01*
X935143Y2514236D01*
X918454Y2539213D01*
X897213Y2560454D01*
X872236Y2577143D01*
X844482Y2588639D01*
X825000Y2592515D01*
D02*
G37*
G36*
X375000D02*
Y2467000D01*
X500515D01*
X496639Y2486482D01*
X485144Y2514236D01*
X468454Y2539213D01*
X447213Y2560454D01*
X422236Y2577143D01*
X394483Y2588639D01*
X375000Y2592515D01*
D02*
G37*
G36*
X775000Y2592514D02*
X755517Y2588639D01*
X727764Y2577143D01*
X702787Y2560454D01*
X681546Y2539213D01*
X664856Y2514236D01*
X653361Y2486482D01*
X649485Y2467000D01*
X775000D01*
Y2592514D01*
D02*
G37*
G36*
X325000D02*
X305518Y2588639D01*
X277764Y2577143D01*
X252787Y2560454D01*
X231546Y2539213D01*
X214857Y2514236D01*
X203361Y2486482D01*
X199485Y2467000D01*
X325000D01*
Y2592514D01*
D02*
G37*
G36*
X3649780Y2625000D02*
X3375000D01*
Y2350220D01*
X3420250Y2357387D01*
X3465160Y2371979D01*
X3507234Y2393417D01*
X3545437Y2421173D01*
X3578827Y2454563D01*
X3606583Y2492766D01*
X3628021Y2534840D01*
X3642613Y2579750D01*
X3649780Y2625000D01*
D02*
G37*
G36*
X3325000D02*
X3050220D01*
X3057387Y2579750D01*
X3071979Y2534840D01*
X3093417Y2492766D01*
X3121173Y2454563D01*
X3154563Y2421173D01*
X3192766Y2393417D01*
X3234840Y2371979D01*
X3279750Y2357387D01*
X3325000Y2350220D01*
Y2625000D01*
D02*
G37*
G36*
X775000Y2417000D02*
X649485D01*
X653361Y2397517D01*
X664856Y2369764D01*
X681546Y2344787D01*
X702787Y2323546D01*
X727764Y2306856D01*
X755517Y2295361D01*
X775000Y2291485D01*
Y2417000D01*
D02*
G37*
G36*
X325000D02*
X199486D01*
X203361Y2397517D01*
X214857Y2369764D01*
X231546Y2344787D01*
X252787Y2323546D01*
X277764Y2306856D01*
X305518Y2295361D01*
X325000Y2291485D01*
Y2417000D01*
D02*
G37*
G36*
X950514D02*
X825000D01*
Y2291485D01*
X844482Y2295361D01*
X872236Y2306856D01*
X897213Y2323546D01*
X918454Y2344787D01*
X935143Y2369764D01*
X946639Y2397517D01*
X950514Y2417000D01*
D02*
G37*
G36*
X500515D02*
X375000D01*
Y2291485D01*
X394483Y2295361D01*
X422236Y2306856D01*
X447213Y2323546D01*
X468454Y2344787D01*
X485144Y2369764D01*
X496639Y2397517D01*
X500515Y2417000D01*
D02*
G37*
G36*
X2566035Y2165731D02*
X2524359D01*
X2501134Y2161112D01*
X2481444Y2147955D01*
X2468288Y2128266D01*
X2463668Y2105040D01*
Y2076065D01*
X2566035D01*
Y2165731D01*
D02*
G37*
G36*
X4313000Y2181214D02*
X4225000D01*
Y2075000D01*
X4376214D01*
Y2118000D01*
X4371402Y2142191D01*
X4357699Y2162699D01*
X4337191Y2176402D01*
X4313000Y2181214D01*
D02*
G37*
G36*
X8435275Y2054666D02*
X8393600D01*
Y1965000D01*
X8495966D01*
Y1993975D01*
X8491346Y2017200D01*
X8478190Y2036890D01*
X8458500Y2050046D01*
X8435275Y2054666D01*
D02*
G37*
G36*
X2566035Y2026065D02*
X2463668D01*
Y1997090D01*
X2468288Y1973865D01*
X2481444Y1954175D01*
X2501134Y1941019D01*
X2524359Y1936399D01*
X2566035D01*
Y2026065D01*
D02*
G37*
G36*
X4376214Y2025000D02*
X4225000D01*
Y1918786D01*
X4313000D01*
X4337191Y1923598D01*
X4357699Y1937301D01*
X4371402Y1957809D01*
X4376214Y1982000D01*
Y2025000D01*
D02*
G37*
G36*
X8495966Y1915000D02*
X8393600D01*
Y1825334D01*
X8435275D01*
X8458500Y1829954D01*
X8478190Y1843110D01*
X8491346Y1862799D01*
X8495966Y1886025D01*
Y1915000D01*
D02*
G37*
G36*
X2475000Y1818600D02*
X2422500D01*
X2389216Y1814218D01*
X2358200Y1801371D01*
X2331566Y1780934D01*
X2311129Y1754300D01*
X2298282Y1723284D01*
X2297191Y1715000D01*
X2475000D01*
Y1818600D01*
D02*
G37*
G36*
Y1665000D02*
X2297191D01*
X2298282Y1656716D01*
X2311129Y1625700D01*
X2331566Y1599066D01*
X2358200Y1578629D01*
X2389216Y1565782D01*
X2422500Y1561400D01*
X2475000D01*
Y1665000D01*
D02*
G37*
G36*
X494000Y1670043D02*
Y1554215D01*
X609829D01*
X601789Y1584218D01*
X583029Y1616712D01*
X556497Y1643243D01*
X524003Y1662004D01*
X494000Y1670043D01*
D02*
G37*
G36*
X444000D02*
X413997Y1662004D01*
X381503Y1643243D01*
X354971Y1616712D01*
X336211Y1584218D01*
X328172Y1554215D01*
X444000D01*
Y1670043D01*
D02*
G37*
G36*
X609829Y1504215D02*
X494000D01*
Y1388386D01*
X524003Y1396425D01*
X556497Y1415186D01*
X583029Y1441717D01*
X601789Y1474211D01*
X609829Y1504215D01*
D02*
G37*
G36*
X444000D02*
X328172D01*
X336211Y1474211D01*
X354971Y1441717D01*
X381503Y1415186D01*
X413997Y1396425D01*
X444000Y1388386D01*
Y1504215D01*
D02*
G37*
G36*
X2475000Y1478600D02*
X2422500D01*
X2389216Y1474218D01*
X2358200Y1461371D01*
X2331566Y1440934D01*
X2311129Y1414300D01*
X2298282Y1383284D01*
X2297191Y1375000D01*
X2475000D01*
Y1478600D01*
D02*
G37*
G36*
X2018000Y1501214D02*
X1975000D01*
Y1350000D01*
X2081214D01*
Y1438000D01*
X2076402Y1462191D01*
X2062699Y1482699D01*
X2042191Y1496402D01*
X2018000Y1501214D01*
D02*
G37*
G36*
X1925000D02*
X1882000D01*
X1857809Y1496402D01*
X1837301Y1482699D01*
X1823598Y1462191D01*
X1818786Y1438000D01*
Y1350000D01*
X1925000D01*
Y1501214D01*
D02*
G37*
G36*
X2475000Y1325000D02*
X2297191D01*
X2298282Y1316716D01*
X2311129Y1285700D01*
X2331566Y1259066D01*
X2358200Y1238629D01*
X2389216Y1225782D01*
X2422500Y1221400D01*
X2475000D01*
Y1325000D01*
D02*
G37*
G36*
X4331214Y1050000D02*
X4225000D01*
Y898786D01*
X4268000D01*
X4292191Y903598D01*
X4312699Y917301D01*
X4326402Y937809D01*
X4331214Y962000D01*
Y1050000D01*
D02*
G37*
G36*
X4175000D02*
X4068786D01*
Y962000D01*
X4073598Y937809D01*
X4087301Y917301D01*
X4107809Y903598D01*
X4132000Y898786D01*
X4175000D01*
Y1050000D01*
D02*
G37*
G36*
X9675000Y649780D02*
Y375000D01*
X9949780D01*
X9942613Y420250D01*
X9928021Y465160D01*
X9906583Y507234D01*
X9878827Y545437D01*
X9845436Y578827D01*
X9807234Y606583D01*
X9765160Y628021D01*
X9720250Y642613D01*
X9675000Y649780D01*
D02*
G37*
G36*
X9625000D02*
X9579750Y642613D01*
X9534840Y628021D01*
X9492766Y606583D01*
X9454563Y578827D01*
X9421173Y545437D01*
X9393417Y507234D01*
X9371979Y465160D01*
X9357387Y420250D01*
X9350220Y375000D01*
X9625000D01*
Y649780D01*
D02*
G37*
G36*
X1322714Y528554D02*
Y375000D01*
X1476268D01*
X1470797Y402504D01*
X1457228Y435262D01*
X1437530Y464743D01*
X1412458Y489815D01*
X1382976Y509514D01*
X1350219Y523083D01*
X1322714Y528554D01*
D02*
G37*
G36*
X1272714D02*
X1245210Y523083D01*
X1212452Y509514D01*
X1182971Y489815D01*
X1157899Y464743D01*
X1138201Y435262D01*
X1124632Y402504D01*
X1119161Y375000D01*
X1272714D01*
Y528554D01*
D02*
G37*
G36*
X375000Y649780D02*
Y375000D01*
X649780D01*
X642613Y420250D01*
X628021Y465160D01*
X606583Y507234D01*
X578827Y545437D01*
X545437Y578827D01*
X507234Y606583D01*
X465160Y628021D01*
X420250Y642613D01*
X375000Y649780D01*
D02*
G37*
G36*
X325000D02*
X279750Y642613D01*
X234840Y628021D01*
X192766Y606583D01*
X154563Y578827D01*
X121173Y545437D01*
X93417Y507234D01*
X71979Y465160D01*
X57387Y420250D01*
X50220Y375000D01*
X325000D01*
Y649780D01*
D02*
G37*
G36*
X5072899Y682500D02*
X5027101D01*
X4982182Y673565D01*
X4939870Y656039D01*
X4901790Y630595D01*
X4869406Y598210D01*
X4843961Y560130D01*
X4826435Y517818D01*
X4817500Y472899D01*
Y427101D01*
X4826435Y382182D01*
X4843961Y339870D01*
X4869406Y301790D01*
X4901790Y269406D01*
X4939870Y243961D01*
X4982182Y226435D01*
X5027101Y217500D01*
X5072899D01*
X5117818Y226435D01*
X5160130Y243961D01*
X5198210Y269406D01*
X5230595Y301790D01*
X5256039Y339870D01*
X5273565Y382182D01*
X5282500Y427101D01*
Y472899D01*
X5273565Y517818D01*
X5256039Y560130D01*
X5230595Y598210D01*
X5198210Y630595D01*
X5160130Y656039D01*
X5117818Y673565D01*
X5072899Y682500D01*
D02*
G37*
G36*
X1476268Y325000D02*
X1322714D01*
Y171446D01*
X1350219Y176917D01*
X1382976Y190486D01*
X1412458Y210185D01*
X1437530Y235257D01*
X1457228Y264738D01*
X1470797Y297496D01*
X1476268Y325000D01*
D02*
G37*
G36*
X1272714D02*
X1119161D01*
X1124632Y297496D01*
X1138201Y264738D01*
X1157899Y235257D01*
X1182971Y210185D01*
X1212452Y190486D01*
X1245210Y176917D01*
X1272714Y171446D01*
Y325000D01*
D02*
G37*
G36*
X9949780D02*
X9675000D01*
Y50220D01*
X9720250Y57387D01*
X9765160Y71979D01*
X9807234Y93417D01*
X9845436Y121173D01*
X9878827Y154563D01*
X9906583Y192766D01*
X9928021Y234840D01*
X9942613Y279750D01*
X9949780Y325000D01*
D02*
G37*
G36*
X9625000D02*
X9350220D01*
X9357387Y279750D01*
X9371979Y234840D01*
X9393417Y192766D01*
X9421173Y154563D01*
X9454563Y121173D01*
X9492766Y93417D01*
X9534840Y71979D01*
X9579750Y57387D01*
X9625000Y50220D01*
Y325000D01*
D02*
G37*
G36*
X649780D02*
X375000D01*
Y50220D01*
X420250Y57387D01*
X465160Y71979D01*
X507234Y93417D01*
X545437Y121173D01*
X578827Y154563D01*
X606583Y192766D01*
X628021Y234840D01*
X642613Y279750D01*
X649780Y325000D01*
D02*
G37*
G36*
X325000D02*
X50220D01*
X57387Y279750D01*
X71979Y234840D01*
X93417Y192766D01*
X121173Y154563D01*
X154563Y121173D01*
X192766Y93417D01*
X234840Y71979D01*
X279750Y57387D01*
X325000Y50220D01*
Y325000D01*
D02*
G37*
%LPD*%
D10*
X8935000Y3650000D02*
D03*
X9263000D02*
D03*
D11*
X7820000Y1940000D02*
D03*
X7591400D02*
D03*
X8368600D02*
D03*
X8140000D02*
D03*
X7550000Y4253465D02*
D03*
X7321400D02*
D03*
X3450000Y2050000D02*
D03*
X3221400D02*
D03*
X2819634Y2051065D02*
D03*
X2591034D02*
D03*
X8935700Y3300000D02*
D03*
X9164300D02*
D03*
D12*
X7950000Y3150000D02*
D03*
X7810300D02*
D03*
X7104600Y4996866D02*
D03*
X6964900D02*
D03*
X7770300Y5070000D02*
D03*
X7910000D02*
D03*
D13*
X7450000Y4550671D02*
D03*
Y4779271D02*
D03*
D14*
X9600000Y3500000D02*
D03*
D15*
X9693980Y3296800D02*
D03*
X9503480D02*
D03*
D16*
X3500000Y1550000D02*
D03*
Y850000D02*
D03*
D17*
X7750000Y3686000D02*
D03*
Y4014000D02*
D03*
D18*
X5510000Y2572285D02*
D03*
Y2222286D02*
D03*
X4200000Y1075000D02*
D03*
Y1425000D02*
D03*
X1950000Y1325000D02*
D03*
Y975000D02*
D03*
D19*
X7536400Y5860466D02*
D03*
X7409400D02*
D03*
X7282400D02*
D03*
X7155400D02*
D03*
Y5301666D02*
D03*
X7282400D02*
D03*
X7409400D02*
D03*
X7536400D02*
D03*
D20*
X4200000Y2050000D02*
D03*
X3850000D02*
D03*
D21*
X6964900Y4600000D02*
Y4996866D01*
X7524000Y3436300D02*
X7810300Y3150000D01*
X7321400Y3638900D02*
X7524000Y3436300D01*
Y2750000D02*
Y3436300D01*
X7910000Y5070000D02*
X7986863Y4993137D01*
Y4963137D02*
Y4993137D01*
Y4963137D02*
X8100000Y4850000D01*
X7083800Y5230065D02*
X7154920D01*
X7155400Y5230546D02*
Y5301666D01*
X6964900Y4996866D02*
Y5111166D01*
X7083800Y5230065D01*
X7154920D02*
X7155400Y5230546D01*
X7312165Y4250000D02*
X7317934D01*
X7321400Y4253465D01*
X7104600Y4996866D02*
X7112700Y5004966D01*
X7174966D01*
X7282400Y5112400D01*
Y5301666D01*
X7409400Y4832571D02*
X7450000Y4791971D01*
X7409400Y4832571D02*
Y5301666D01*
X7450000Y4779271D02*
Y4791971D01*
X7536400Y5253600D02*
X7543420Y5246580D01*
X7536400Y5253600D02*
Y5301666D01*
X7543420Y5246580D02*
X7693420D01*
D22*
X6812165Y4750000D02*
X6956083Y4606083D01*
X5750000Y5150000D02*
X6150000Y4750000D01*
X6812165D01*
X5750000Y5150000D02*
Y7875000D01*
X6562563Y8687563D01*
X6679563D02*
X6692000Y8700000D01*
X6562563Y8687563D02*
X6679563D01*
X7321400Y3638900D02*
Y4253465D01*
X6964900Y4597265D02*
X7312165Y4250000D01*
X3450000Y1600000D02*
Y2050000D01*
D23*
X880000Y7970000D02*
X4695000D01*
X5200000Y8175000D02*
X6225000Y9200000D01*
X4695000Y7970000D02*
X4900000Y8175000D01*
X5200000D01*
X6225000Y9200000D02*
X7100000D01*
X8050000Y3750000D02*
Y4278644D01*
X7770300Y4558344D02*
X8050000Y4278644D01*
X7770300Y4558344D02*
Y5070000D01*
X7562700Y4253465D02*
X7706000Y4110165D01*
Y4033500D02*
Y4110165D01*
X7200000Y8700000D02*
Y9100000D01*
X7100000Y9200000D02*
X7200000Y9100000D01*
X1231000Y1269000D02*
X1525000Y975000D01*
X1950000D01*
X1231000Y1269000D02*
Y1529215D01*
X7764400Y5070000D02*
Y5175600D01*
X9263000Y3669500D02*
X9282500Y3650000D01*
X9467780D01*
X9263000Y3669500D02*
Y3674500D01*
X9525000Y3707220D02*
Y4064000D01*
X9467780Y3650000D02*
X9525000Y3707220D01*
X9600000Y3500000D02*
Y3517780D01*
X9467780Y3650000D02*
X9600000Y3517780D01*
X4880000Y2210000D02*
X6830000D01*
X4796000Y1931700D02*
Y2126000D01*
X4880000Y2210000D01*
X6830000D02*
X7016000Y2396000D01*
Y2750000D01*
X4814834Y1425000D02*
X5304000Y1914166D01*
X3725000Y1550000D02*
X3850000Y1675000D01*
X3450000Y1600000D02*
X3500000Y1550000D01*
X4200000Y1425000D02*
X4814834D01*
X7591400Y2391400D02*
X7756952Y2556952D01*
Y2728953D01*
X7778000Y2750000D01*
X8032000Y1992000D02*
Y2750000D01*
X7591400Y1940000D02*
Y2391400D01*
X8477000Y3550000D02*
X8727000Y3300000D01*
X8935700D01*
X8540000Y2750000D02*
X8561047Y2771048D01*
Y2941047D01*
X8660000Y3040000D01*
X9060000D01*
X9164300Y3144300D01*
Y3300000D01*
X5304000Y1914166D02*
Y1931666D01*
X3725000Y1550000D02*
X4075000D01*
X4112500Y1512500D01*
X4157500D02*
X4200000Y1470000D01*
X4112500Y1512500D02*
X4157500D01*
X3500000Y1550000D02*
X3725000D01*
X4200000Y1425000D02*
Y1470000D01*
X2820167Y2050533D02*
X3220867D01*
X3221400Y2050000D01*
X2819634Y2051065D02*
X2820167Y2050533D01*
X2819634Y1556955D02*
Y2051065D01*
X2782679Y1520000D02*
X2819634Y1556955D01*
X2760000Y1520000D02*
X2782679D01*
X1950000Y975000D02*
X1985000Y1010000D01*
X2500000D01*
X8100000Y3150000D02*
X8286000Y2964000D01*
Y2750000D02*
Y2964000D01*
X7950000Y3150000D02*
X8100000D01*
X7693420Y5246580D02*
X7764400Y5175600D01*
X7450000Y4537971D02*
X7550000Y4437971D01*
Y4253465D02*
Y4437971D01*
X7450000Y4537971D02*
Y4550671D01*
X7550000Y4253465D02*
X7562700D01*
X7706000Y4033500D02*
X7725500Y4014000D01*
X7750000D01*
X7950000Y3150000D02*
Y3510500D01*
X7774500Y3686000D02*
X7950000Y3510500D01*
X7750000Y3686000D02*
X7774500D01*
X7980000Y1940000D02*
X8140000D01*
X7820000D02*
X7980000D01*
X8032000Y1992000D01*
X8763000Y4064000D02*
X8935000Y3892000D01*
Y3650000D02*
Y3892000D01*
X9501880Y3298400D02*
X9503480Y3296800D01*
X9164300Y3300000D02*
X9165900Y3298400D01*
X9501880D01*
X500000Y8350000D02*
X880000Y7970000D01*
X1500000Y8350000D02*
X3000000D01*
D24*
X9525000Y6477000D02*
Y8591000D01*
X7200000Y7975736D02*
Y8300000D01*
X7375736Y7800000D02*
X8732264D01*
X7200000Y7975736D02*
X7375736Y7800000D01*
X8908000Y7975736D02*
Y8300000D01*
X8732264Y7800000D02*
X8908000Y7975736D01*
D25*
X9416000Y8700000D02*
X9525000Y8591000D01*
X8908000Y8300000D02*
Y8700000D01*
X7200000Y8300000D02*
Y8700000D01*
D26*
X3850000Y1675000D02*
Y2050000D01*
D27*
X350000Y8975000D02*
G03*
X350000Y8975000I-25000J0D01*
G01*
D28*
X9048000Y2750000D02*
D03*
X8794000D02*
D03*
X8540000D02*
D03*
X8286000D02*
D03*
X8032000D02*
D03*
X6762000D02*
D03*
X6508000D02*
D03*
X6254000D02*
D03*
X7016000D02*
D03*
X7270000D02*
D03*
X7524000D02*
D03*
X7778000D02*
D03*
X9302000D02*
D03*
X9556000D02*
D03*
D29*
X6000000D02*
D03*
D30*
X3350000Y2650000D02*
D03*
X9650000Y350000D02*
D03*
X5000000Y8950000D02*
D03*
X350000Y350000D02*
D03*
D31*
X8400000Y8700000D02*
D03*
X8908000D02*
D03*
X6692000D02*
D03*
X7200000D02*
D03*
D32*
X9416000D02*
D03*
X7708000D02*
D03*
D33*
X6350800Y5534300D02*
D03*
Y6042300D02*
D03*
Y7058300D02*
D03*
Y7566300D02*
D03*
X5150800Y5534300D02*
D03*
Y6042300D02*
D03*
Y7058300D02*
D03*
Y7566300D02*
D03*
D34*
X500000Y8350000D02*
D03*
X4000000D02*
D03*
X1500000D02*
D03*
X3000000D02*
D03*
X500000Y4850000D02*
D03*
X4000000D02*
D03*
X3500000D02*
D03*
X1000000D02*
D03*
D35*
X9525000Y6477000D02*
D03*
Y5715000D02*
D03*
X8763000Y6096000D02*
D03*
X9525000Y4064000D02*
D03*
X8763000D02*
D03*
D36*
X5304000Y1931666D02*
D03*
X5050000Y1931700D02*
D03*
X4796000D02*
D03*
D37*
X8223000Y3550000D02*
D03*
D38*
X8477000D02*
D03*
D39*
X1300000Y2442000D02*
D03*
X800000Y3458000D02*
D03*
X350000D02*
D03*
X1750000Y2442000D02*
D03*
D40*
X1300000Y3458000D02*
D03*
X800000Y2442000D02*
D03*
X350000D02*
D03*
X1750000Y3458000D02*
D03*
D41*
X1231000Y1529215D02*
D03*
X469000D02*
D03*
D42*
X2500000Y1690000D02*
D03*
X2760000Y1520000D02*
D03*
X2500000Y1350000D02*
D03*
X2760000Y1180000D02*
D03*
X2500000Y1010000D02*
D03*
D43*
X1297714Y350000D02*
D03*
D44*
X2821714D02*
D03*
D45*
X4625000Y275000D02*
D03*
Y475000D02*
D03*
Y675000D02*
D03*
X5475000D02*
D03*
Y475000D02*
D03*
Y275000D02*
D03*
X7321400Y3638900D02*
D03*
X8050000Y3750000D02*
D03*
X6950000Y4600000D02*
D03*
X8100000Y4850000D02*
D03*
%TF.MD5,7d67379bdc053d298ef242bab35e8efb*%
M02*
