%TF.GenerationSoftware,Altium Limited,Altium Designer,24.0.1 (36)*%
G04 Layer_Color=65535*
%FSLAX45Y45*%
%MOMM*%
%TF.SameCoordinates,95B5C6B2-F670-4A0E-B731-85317CB4A22F*%
%TF.FilePolarity,Positive*%
%TF.FileFunction,Legend,Top*%
%TF.Part,Single*%
G01*
G75*
%TA.AperFunction,NonConductor*%
%ADD27C,0.25400*%
%ADD46C,0.20000*%
%ADD47C,0.12700*%
%ADD48C,0.30480*%
%ADD49C,0.30000*%
%ADD50R,0.35000X0.35000*%
D27*
X5314993Y452032D02*
G03*
X5314993Y452032I-266700J0D01*
G01*
X8238898Y3451243D02*
G03*
X8238898Y3648757I111102J98757D01*
G01*
X1612000Y1529215D02*
G03*
X1612000Y1529215I-762000J0D01*
G01*
X7599900Y5644566D02*
G03*
X7599900Y5517566I0J-63500D01*
G01*
X3000000Y0D02*
Y3000000D01*
X10000000D01*
Y2900000D02*
Y3000000D01*
Y0D02*
Y2900000D01*
X3000000Y0D02*
X10000000D01*
X9683000Y2813500D02*
Y2877000D01*
Y2623000D02*
Y2686500D01*
X5873000Y2623000D02*
X9683000Y2623000D01*
Y2686500D02*
Y2813500D01*
X5873000Y2877000D02*
X9683000Y2877000D01*
X5873000Y2623000D02*
Y2877000D01*
X6127000Y2623000D02*
Y2877000D01*
X8146000Y8382500D02*
Y9081000D01*
Y8382500D02*
X8643000D01*
X9662000D02*
Y8463500D01*
X8643000Y8382500D02*
X9662000D01*
Y8463500D02*
Y9081000D01*
X9543000Y8954000D02*
Y9081000D01*
X9289000Y8954000D02*
Y9081000D01*
X9035000Y8954000D02*
Y9081000D01*
X8781000Y8954000D02*
Y9081000D01*
X8527000Y8954000D02*
Y9081000D01*
X8273000Y8954000D02*
Y9081000D01*
X9543000D02*
X9662000D01*
X9289000Y8954000D02*
X9543000D01*
X9035000Y9081000D02*
X9289000D01*
X9035000Y8954000D02*
Y9081000D01*
X8781000Y8954000D02*
X9035000D01*
X8781000D02*
Y9081000D01*
X8527000D02*
X8781000D01*
X8273000Y8954000D02*
X8527000D01*
X8146000Y9081000D02*
X8273000D01*
X6604813Y5534330D02*
X6655613D01*
Y6042330D01*
X6604813D02*
X6655613D01*
X6604813Y7058330D02*
X6655613D01*
Y7566330D01*
X6604813D02*
X6655613D01*
X6046013Y5534330D02*
X6096813D01*
X6046013D02*
Y6042330D01*
X6096813D01*
X6046013Y7058330D02*
X6096813D01*
X6046013D02*
Y7566330D01*
X6096813D01*
Y6042330D02*
X6604813D01*
X6096813Y7058330D02*
X6604813D01*
X6096813Y5534330D02*
Y7566330D01*
Y5534330D02*
X6604813D01*
Y7566330D01*
X6096813D02*
X6604813D01*
X5404813Y5534330D02*
X5455613D01*
Y6042330D01*
X5404813D02*
X5455613D01*
X5404813Y7058330D02*
X5455613D01*
Y7566330D01*
X5404813D02*
X5455613D01*
X4846013Y5534330D02*
X4896813D01*
X4846013D02*
Y6042330D01*
X4896813D01*
X4846013Y7058330D02*
X4896813D01*
X4846013D02*
Y7566330D01*
X4896813D01*
Y6042330D02*
X5404813D01*
X4896813Y7058330D02*
X5404813D01*
X4896813Y5534330D02*
Y7566330D01*
Y5534330D02*
X5404813D01*
Y7566330D01*
X4896813D02*
X5404813D01*
X6438000Y8382500D02*
Y9081000D01*
Y8382500D02*
X6935000D01*
X7954000D02*
Y8463500D01*
X6935000Y8382500D02*
X7954000D01*
Y8463500D02*
Y9081000D01*
X7835000Y8954000D02*
Y9081000D01*
X7581000Y8954000D02*
Y9081000D01*
X7327000Y8954000D02*
Y9081000D01*
X7073000Y8954000D02*
Y9081000D01*
X6819000Y8954000D02*
Y9081000D01*
X6565000Y8954000D02*
Y9081000D01*
X7835000D02*
X7954000D01*
X7581000Y8954000D02*
X7835000D01*
X7327000Y9081000D02*
X7581000D01*
X7327000Y8954000D02*
Y9081000D01*
X7073000Y8954000D02*
X7327000D01*
X7073000D02*
Y9081000D01*
X6819000D02*
X7073000D01*
X6565000Y8954000D02*
X6819000D01*
X6438000Y9081000D02*
X6565000D01*
X3900000Y8750000D02*
X4450000D01*
X3900000D02*
Y9250000D01*
X600000Y8750000D02*
Y9250000D01*
X50000Y8750000D02*
X600000D01*
X50000Y4450000D02*
X600000D01*
Y3950000D02*
Y4450000D01*
X3900000D02*
X4450000D01*
X3900000Y3950000D02*
Y4450000D01*
X50000Y3950000D02*
Y9250000D01*
Y3950000D02*
X4450000D01*
Y9250000D01*
X50000D02*
X4450000D01*
X8509000Y6731000D02*
X9779000D01*
Y3810000D02*
Y6731000D01*
X8509000Y3810000D02*
X9779000D01*
X8509000D02*
Y6731000D01*
X8210300Y3499200D02*
Y3600800D01*
X3100000Y1200000D02*
Y1500000D01*
Y900000D02*
Y1200000D01*
X3900000D02*
Y1500000D01*
Y900000D02*
Y1200000D01*
X1198400Y2645200D02*
X1401600D01*
X1198400Y2746800D02*
X1401600D01*
X1198400Y3254800D02*
X1401600D01*
X1300000D02*
Y3356400D01*
Y2543600D02*
Y2645200D01*
X1401600D02*
Y3254800D01*
X1198400Y2645200D02*
Y3254800D01*
X901600Y2645200D02*
Y3254800D01*
X698400Y2645200D02*
Y3254800D01*
X800000D02*
Y3356400D01*
Y2543600D02*
Y2645200D01*
X698400D02*
X901600D01*
X698400Y3153200D02*
X901600D01*
X698400Y3254800D02*
X901600D01*
X7599900Y5644566D02*
Y5708066D01*
Y5454066D02*
Y5517566D01*
X7091900Y5454066D02*
X7599900D01*
X7091900D02*
Y5708066D01*
X7599900D01*
X451600Y2645200D02*
Y3254800D01*
X248400Y2645200D02*
Y3254800D01*
X350000D02*
Y3356400D01*
Y2543600D02*
Y2645200D01*
X248400D02*
X451600D01*
X248400Y3153200D02*
X451600D01*
X248400Y3254800D02*
X451600D01*
X1648400Y2645200D02*
Y3254800D01*
X1851600Y2645200D02*
Y3254800D01*
X1750000Y2543600D02*
Y2645200D01*
Y3254800D02*
Y3356400D01*
X1648400Y3254800D02*
X1851600D01*
X1648400Y2746800D02*
X1851600D01*
X1648400Y2645200D02*
X1851600D01*
X2350600Y816600D02*
Y1883400D01*
X2271100D02*
X2350600D01*
X2271000Y1883300D02*
X2271100Y1883400D01*
X2271000Y816500D02*
Y1883300D01*
Y816500D02*
X2271100Y816600D01*
X2350600Y1883400D02*
X2706200D01*
X2271100Y816600D02*
X2706200D01*
Y1883400D01*
X1570714Y100000D02*
X2559714D01*
X1559714Y600000D02*
X2559714D01*
Y350000D02*
X2761315D01*
X1359714D02*
X1559714D01*
Y100000D02*
Y600000D01*
X2559714Y100000D02*
Y600000D01*
X3025400Y3050400D02*
Y3202751D01*
X3126967Y3050400D01*
Y3202751D01*
X3203143Y3050400D02*
X3253926D01*
X3279318Y3075792D01*
Y3126575D01*
X3253926Y3151967D01*
X3203143D01*
X3177751Y3126575D01*
Y3075792D01*
X3203143Y3050400D01*
X3431669Y3202751D02*
Y3050400D01*
X3355493D01*
X3330102Y3075792D01*
Y3126575D01*
X3355493Y3151967D01*
X3431669D01*
X3558628Y3050400D02*
X3507844D01*
X3482452Y3075792D01*
Y3126575D01*
X3507844Y3151967D01*
X3558628D01*
X3584020Y3126575D01*
Y3101184D01*
X3482452D01*
X3787154Y3202751D02*
Y3101184D01*
X3837937Y3050400D01*
X3888721Y3101184D01*
Y3202751D01*
X4041072Y3050400D02*
X3939504D01*
X4041072Y3151967D01*
Y3177359D01*
X4015680Y3202751D01*
X3964896D01*
X3939504Y3177359D01*
X8715049Y2159800D02*
Y2210584D01*
Y2185192D01*
X8867400D01*
Y2159800D01*
Y2210584D01*
X8715049Y2362934D02*
Y2312151D01*
X8740441Y2286759D01*
X8842008D01*
X8867400Y2312151D01*
Y2362934D01*
X8842008Y2388326D01*
X8740441D01*
X8715049Y2362934D01*
Y2540677D02*
X8740441Y2489893D01*
X8791224Y2439110D01*
X8842008D01*
X8867400Y2464502D01*
Y2515285D01*
X8842008Y2540677D01*
X8816616D01*
X8791224Y2515285D01*
Y2439110D01*
X9477049Y2159800D02*
Y2210584D01*
Y2185192D01*
X9629400D01*
Y2159800D01*
Y2210584D01*
X9477049Y2362934D02*
Y2312151D01*
X9502441Y2286759D01*
X9604008D01*
X9629400Y2312151D01*
Y2362934D01*
X9604008Y2388326D01*
X9502441D01*
X9477049Y2362934D01*
X9604008Y2439110D02*
X9629400Y2464502D01*
Y2515285D01*
X9604008Y2540677D01*
X9502441D01*
X9477049Y2515285D01*
Y2464502D01*
X9502441Y2439110D01*
X9527833D01*
X9553224Y2464502D01*
Y2540677D01*
X9223049Y2159800D02*
Y2210584D01*
Y2185192D01*
X9375400D01*
Y2159800D01*
Y2210584D01*
X9223049Y2362934D02*
Y2312151D01*
X9248441Y2286759D01*
X9350008D01*
X9375400Y2312151D01*
Y2362934D01*
X9350008Y2388326D01*
X9248441D01*
X9223049Y2362934D01*
X9248441Y2439110D02*
X9223049Y2464502D01*
Y2515285D01*
X9248441Y2540677D01*
X9273833D01*
X9299224Y2515285D01*
X9324616Y2540677D01*
X9350008D01*
X9375400Y2515285D01*
Y2464502D01*
X9350008Y2439110D01*
X9324616D01*
X9299224Y2464502D01*
X9273833Y2439110D01*
X9248441D01*
X9299224Y2464502D02*
Y2515285D01*
X8969049Y2159800D02*
Y2210584D01*
Y2185192D01*
X9121400D01*
Y2159800D01*
Y2210584D01*
X8969049Y2362934D02*
Y2312151D01*
X8994441Y2286759D01*
X9096008D01*
X9121400Y2312151D01*
Y2362934D01*
X9096008Y2388326D01*
X8994441D01*
X8969049Y2362934D01*
Y2439110D02*
Y2540677D01*
X8994441D01*
X9096008Y2439110D01*
X9121400D01*
X8461049Y2159800D02*
Y2210584D01*
Y2185192D01*
X8613400D01*
Y2159800D01*
Y2210584D01*
X8461049Y2362934D02*
Y2312151D01*
X8486441Y2286759D01*
X8588008D01*
X8613400Y2312151D01*
Y2362934D01*
X8588008Y2388326D01*
X8486441D01*
X8461049Y2362934D01*
Y2540677D02*
Y2439110D01*
X8537224D01*
X8511833Y2489893D01*
Y2515285D01*
X8537224Y2540677D01*
X8588008D01*
X8613400Y2515285D01*
Y2464502D01*
X8588008Y2439110D01*
X8207049Y2159800D02*
Y2210584D01*
Y2185192D01*
X8359400D01*
Y2159800D01*
Y2210584D01*
X8207049Y2362934D02*
Y2312151D01*
X8232441Y2286759D01*
X8334008D01*
X8359400Y2312151D01*
Y2362934D01*
X8334008Y2388326D01*
X8232441D01*
X8207049Y2362934D01*
X8359400Y2515285D02*
X8207049D01*
X8283224Y2439110D01*
Y2540677D01*
X7953049Y2159800D02*
Y2210584D01*
Y2185192D01*
X8105400D01*
Y2159800D01*
Y2210584D01*
X7953049Y2362934D02*
Y2312151D01*
X7978441Y2286759D01*
X8080008D01*
X8105400Y2312151D01*
Y2362934D01*
X8080008Y2388326D01*
X7978441D01*
X7953049Y2362934D01*
X7978441Y2439110D02*
X7953049Y2464502D01*
Y2515285D01*
X7978441Y2540677D01*
X8003833D01*
X8029224Y2515285D01*
Y2489893D01*
Y2515285D01*
X8054616Y2540677D01*
X8080008D01*
X8105400Y2515285D01*
Y2464502D01*
X8080008Y2439110D01*
X5921049Y1982000D02*
X6022616D01*
X6073400Y2032784D01*
X6022616Y2083567D01*
X5921049D01*
Y2134351D02*
X6073400D01*
Y2210526D01*
X6048008Y2235918D01*
X6022616D01*
X5997224Y2210526D01*
Y2134351D01*
Y2210526D01*
X5971833Y2235918D01*
X5946441D01*
X5921049Y2210526D01*
Y2134351D01*
X6073400Y2286702D02*
X5971833D01*
X5921049Y2337485D01*
X5971833Y2388269D01*
X6073400D01*
X5997224D01*
Y2286702D01*
X5921049Y2439052D02*
Y2540620D01*
Y2489836D01*
X6073400D01*
X6175049Y1982000D02*
X6276616D01*
X6327400Y2032784D01*
X6276616Y2083567D01*
X6175049D01*
Y2134351D02*
X6327400D01*
Y2210526D01*
X6302008Y2235918D01*
X6276616D01*
X6251224Y2210526D01*
Y2134351D01*
Y2210526D01*
X6225833Y2235918D01*
X6200441D01*
X6175049Y2210526D01*
Y2134351D01*
Y2286702D02*
X6302008D01*
X6327400Y2312093D01*
Y2362877D01*
X6302008Y2388269D01*
X6175049D01*
X6200441Y2540620D02*
X6175049Y2515228D01*
Y2464444D01*
X6200441Y2439052D01*
X6225833D01*
X6251224Y2464444D01*
Y2515228D01*
X6276616Y2540620D01*
X6302008D01*
X6327400Y2515228D01*
Y2464444D01*
X6302008Y2439052D01*
X7738530Y2136825D02*
X7713138Y2162217D01*
Y2213001D01*
X7738530Y2238393D01*
X7763921D01*
X7789313Y2213001D01*
Y2187609D01*
Y2213001D01*
X7814705Y2238393D01*
X7840097D01*
X7865488Y2213001D01*
Y2162217D01*
X7840097Y2136825D01*
X7713138Y2289176D02*
X7814705D01*
X7865488Y2339960D01*
X7814705Y2390743D01*
X7713138D01*
X7738530Y2441527D02*
X7713138Y2466919D01*
Y2517702D01*
X7738530Y2543094D01*
X7763921D01*
X7789313Y2517702D01*
Y2492310D01*
Y2517702D01*
X7814705Y2543094D01*
X7840097D01*
X7865488Y2517702D01*
Y2466919D01*
X7840097Y2441527D01*
X6454441Y2134400D02*
X6429049Y2159792D01*
Y2210575D01*
X6454441Y2235967D01*
X6479833D01*
X6505224Y2210575D01*
Y2185184D01*
Y2210575D01*
X6530616Y2235967D01*
X6556008D01*
X6581400Y2210575D01*
Y2159792D01*
X6556008Y2134400D01*
X6429049Y2286751D02*
X6530616D01*
X6581400Y2337534D01*
X6530616Y2388318D01*
X6429049D01*
X6454441Y2439102D02*
X6429049Y2464493D01*
Y2515277D01*
X6454441Y2540669D01*
X6479833D01*
X6505224Y2515277D01*
Y2489885D01*
Y2515277D01*
X6530616Y2540669D01*
X6556008D01*
X6581400Y2515277D01*
Y2464493D01*
X6556008Y2439102D01*
X7191049Y2388367D02*
Y2286800D01*
X7267224D01*
X7241833Y2337584D01*
Y2362975D01*
X7267224Y2388367D01*
X7318008D01*
X7343400Y2362975D01*
Y2312192D01*
X7318008Y2286800D01*
X7191049Y2439151D02*
X7292616D01*
X7343400Y2489934D01*
X7292616Y2540718D01*
X7191049D01*
X6937049Y2388367D02*
Y2286800D01*
X7013224D01*
X6987833Y2337584D01*
Y2362975D01*
X7013224Y2388367D01*
X7064008D01*
X7089400Y2362975D01*
Y2312192D01*
X7064008Y2286800D01*
X6937049Y2439151D02*
X7038616D01*
X7089400Y2489934D01*
X7038616Y2540718D01*
X6937049D01*
X7470441Y2235967D02*
X7445049Y2210575D01*
Y2159792D01*
X7470441Y2134400D01*
X7572008D01*
X7597400Y2159792D01*
Y2210575D01*
X7572008Y2235967D01*
X7521224D01*
Y2185184D01*
X7597400Y2286751D02*
X7445049D01*
X7597400Y2388318D01*
X7445049D01*
Y2439102D02*
X7597400D01*
Y2515277D01*
X7572008Y2540669D01*
X7470441D01*
X7445049Y2515277D01*
Y2439102D01*
X6708441Y2235967D02*
X6683049Y2210575D01*
Y2159792D01*
X6708441Y2134400D01*
X6810008D01*
X6835400Y2159792D01*
Y2210575D01*
X6810008Y2235967D01*
X6759224D01*
Y2185184D01*
X6835400Y2286751D02*
X6683049D01*
X6835400Y2388318D01*
X6683049D01*
Y2439102D02*
X6835400D01*
Y2515277D01*
X6810008Y2540669D01*
X6708441D01*
X6683049Y2515277D01*
Y2439102D01*
X8998425Y8122249D02*
X9049208D01*
X9074600Y8147641D01*
Y8249208D01*
X9049208Y8274599D01*
X8998425D01*
X8973033Y8249208D01*
Y8147641D01*
X8998425Y8122249D01*
X8922249D02*
Y8249208D01*
X8896857Y8274599D01*
X8846074D01*
X8820682Y8249208D01*
Y8122249D01*
X8769899D02*
X8668331D01*
X8719115D01*
Y8274599D01*
X7374600Y8122249D02*
X7323816D01*
X7349208D01*
Y8274599D01*
X7374600D01*
X7323816D01*
X7247641D02*
Y8122249D01*
X7146074Y8274599D01*
Y8122249D01*
X2302359Y4923033D02*
X2327751Y4948425D01*
Y4999208D01*
X2302359Y5024600D01*
X2276968D01*
X2251576Y4999208D01*
Y4948425D01*
X2226184Y4923033D01*
X2200792D01*
X2175400Y4948425D01*
Y4999208D01*
X2200792Y5024600D01*
X2327751Y4770682D02*
Y4872249D01*
X2175400D01*
Y4770682D01*
X2251576Y4872249D02*
Y4821466D01*
X2302359Y4618331D02*
X2327751Y4643723D01*
Y4694507D01*
X2302359Y4719899D01*
X2200792D01*
X2175400Y4694507D01*
Y4643723D01*
X2200792Y4618331D01*
X2175401Y8524600D02*
X2327751D01*
Y8448424D01*
X2302359Y8423032D01*
X2251576D01*
X2226184Y8448424D01*
Y8524600D01*
X2175401Y8372249D02*
X2327751D01*
Y8296074D01*
X2302359Y8270682D01*
X2251576D01*
X2226184Y8296074D01*
Y8372249D01*
Y8321465D02*
X2175401Y8270682D01*
X2327751Y8219898D02*
Y8169115D01*
Y8194506D01*
X2175401D01*
Y8219898D01*
Y8169115D01*
X9799608Y2826175D02*
X9748825D01*
X9774216D01*
Y2699217D01*
X9748825Y2673825D01*
X9723433D01*
X9698041Y2699217D01*
X9850392Y2800784D02*
X9875784Y2826175D01*
X9926567D01*
X9951959Y2800784D01*
Y2775392D01*
X9926567Y2750000D01*
X9901175D01*
X9926567D01*
X9951959Y2724608D01*
Y2699217D01*
X9926567Y2673825D01*
X9875784D01*
X9850392Y2699217D01*
X8818880Y3505200D02*
Y3657551D01*
X8895055D01*
X8920447Y3632159D01*
Y3581375D01*
X8895055Y3555983D01*
X8818880D01*
X8869663D02*
X8920447Y3505200D01*
X8971231Y3657551D02*
X9072798D01*
Y3632159D01*
X8971231Y3530592D01*
Y3505200D01*
X8150860Y3939491D02*
Y3787140D01*
X8227035D01*
X8252427Y3812532D01*
Y3914099D01*
X8227035Y3939491D01*
X8150860D01*
X8303211Y3812532D02*
X8328603Y3787140D01*
X8379386D01*
X8404778Y3812532D01*
Y3914099D01*
X8379386Y3939491D01*
X8328603D01*
X8303211Y3914099D01*
Y3888707D01*
X8328603Y3863315D01*
X8404778D01*
X7782767Y5329608D02*
X7757375Y5304216D01*
Y5253433D01*
X7782767Y5228041D01*
X7884333D01*
X7909725Y5253433D01*
Y5304216D01*
X7884333Y5329608D01*
Y5380392D02*
X7909725Y5405784D01*
Y5456567D01*
X7884333Y5481959D01*
X7782767D01*
X7757375Y5456567D01*
Y5405784D01*
X7782767Y5380392D01*
X7808158D01*
X7833550Y5405784D01*
Y5481959D01*
X5415247Y2905719D02*
X5389855Y2931111D01*
X5339072D01*
X5313680Y2905719D01*
Y2804152D01*
X5339072Y2778760D01*
X5389855D01*
X5415247Y2804152D01*
X5567598Y2931111D02*
X5516814Y2905719D01*
X5466031Y2854935D01*
Y2804152D01*
X5491423Y2778760D01*
X5542206D01*
X5567598Y2804152D01*
Y2829543D01*
X5542206Y2854935D01*
X5466031D01*
X4104607Y1757639D02*
X4079215Y1783031D01*
X4028432D01*
X4003040Y1757639D01*
Y1656072D01*
X4028432Y1630680D01*
X4079215D01*
X4104607Y1656072D01*
X4256958Y1783031D02*
X4155391D01*
Y1706855D01*
X4206174Y1732247D01*
X4231566D01*
X4256958Y1706855D01*
Y1656072D01*
X4231566Y1630680D01*
X4180783D01*
X4155391Y1656072D01*
X4556760Y2296111D02*
Y2169152D01*
X4582152Y2143760D01*
X4632935D01*
X4658327Y2169152D01*
Y2296111D01*
X4810678Y2143760D02*
X4709111D01*
X4810678Y2245327D01*
Y2270719D01*
X4785286Y2296111D01*
X4734503D01*
X4709111Y2270719D01*
X2283460Y2123391D02*
Y1996432D01*
X2308852Y1971040D01*
X2359635D01*
X2385027Y1996432D01*
Y2123391D01*
X2435811Y2097999D02*
X2461203Y2123391D01*
X2511986D01*
X2537378Y2097999D01*
Y2072607D01*
X2511986Y2047215D01*
X2486594D01*
X2511986D01*
X2537378Y2021823D01*
Y1996432D01*
X2511986Y1971040D01*
X2461203D01*
X2435811Y1996432D01*
X7104380Y6195011D02*
Y6068052D01*
X7129772Y6042660D01*
X7180555D01*
X7205947Y6068052D01*
Y6195011D01*
X7256731Y6042660D02*
X7307514D01*
X7282123D01*
Y6195011D01*
X7256731Y6169619D01*
X798433Y9126175D02*
X900000D01*
X849216D01*
Y8973825D01*
X950784D02*
X1001567D01*
X976176D01*
Y9126175D01*
X950784Y9100783D01*
X8896082Y5223825D02*
Y5376175D01*
X8972258D01*
X8997650Y5350784D01*
Y5300000D01*
X8972258Y5274608D01*
X8896082D01*
X8946866D02*
X8997650Y5223825D01*
X9150000Y5376175D02*
X9048433D01*
Y5223825D01*
X9150000D01*
X9048433Y5300000D02*
X9099216D01*
X9200784Y5376175D02*
Y5223825D01*
X9302351D01*
X9353134D02*
X9403918D01*
X9378526D01*
Y5376175D01*
X9353134Y5350784D01*
X3103880Y2255520D02*
Y2407871D01*
X3180055D01*
X3205447Y2382479D01*
Y2331695D01*
X3180055Y2306303D01*
X3103880D01*
X3154663D02*
X3205447Y2255520D01*
X3357798Y2407871D02*
X3256231D01*
Y2331695D01*
X3307014Y2357087D01*
X3332406D01*
X3357798Y2331695D01*
Y2280912D01*
X3332406Y2255520D01*
X3281623D01*
X3256231Y2280912D01*
X7583041Y1613825D02*
Y1766175D01*
X7659217D01*
X7684608Y1740783D01*
Y1690000D01*
X7659217Y1664608D01*
X7583041D01*
X7633825D02*
X7684608Y1613825D01*
X7735392Y1740783D02*
X7760784Y1766175D01*
X7811567D01*
X7836959Y1740783D01*
Y1715392D01*
X7811567Y1690000D01*
X7786175D01*
X7811567D01*
X7836959Y1664608D01*
Y1639216D01*
X7811567Y1613825D01*
X7760784D01*
X7735392Y1639216D01*
X2473960Y2258060D02*
Y2410411D01*
X2550135D01*
X2575527Y2385019D01*
Y2334235D01*
X2550135Y2308843D01*
X2473960D01*
X2524743D02*
X2575527Y2258060D01*
X2727878Y2410411D02*
X2677094Y2385019D01*
X2626311Y2334235D01*
Y2283452D01*
X2651703Y2258060D01*
X2702486D01*
X2727878Y2283452D01*
Y2308843D01*
X2702486Y2334235D01*
X2626311D01*
X6873041Y4177290D02*
Y4329641D01*
X6949216D01*
X6974608Y4304249D01*
Y4253465D01*
X6949216Y4228074D01*
X6873041D01*
X6923825D02*
X6974608Y4177290D01*
X7126959D02*
X7025392D01*
X7126959Y4278857D01*
Y4304249D01*
X7101567Y4329641D01*
X7050784D01*
X7025392Y4304249D01*
X8123041Y1623825D02*
Y1776175D01*
X8199217D01*
X8224608Y1750783D01*
Y1700000D01*
X8199217Y1674608D01*
X8123041D01*
X8173825D02*
X8224608Y1623825D01*
X8351567D02*
Y1776175D01*
X8275392Y1700000D01*
X8376959D01*
X7088233Y4460496D02*
Y4612846D01*
X7164409D01*
X7189800Y4587454D01*
Y4536671D01*
X7164409Y4511279D01*
X7088233D01*
X7139017D02*
X7189800Y4460496D01*
X7240584D02*
X7291367D01*
X7265976D01*
Y4612846D01*
X7240584Y4587454D01*
X9565607Y3675372D02*
Y3776939D01*
X9540215Y3802331D01*
X9489432D01*
X9464040Y3776939D01*
Y3675372D01*
X9489432Y3649980D01*
X9540215D01*
X9514823Y3700763D02*
X9565607Y3649980D01*
X9540215D02*
X9565607Y3675372D01*
X9616391Y3649980D02*
X9667174D01*
X9641783D01*
Y3802331D01*
X9616391Y3776939D01*
X3398425Y1119033D02*
X3550775D01*
Y1220600D01*
Y1271384D02*
Y1322167D01*
Y1296776D01*
X3398425D01*
X3423817Y1271384D01*
X7800000Y8123825D02*
X7850783D01*
X7825392D01*
Y8250784D01*
X7850783Y8276175D01*
X7876175D01*
X7901567Y8250784D01*
X7749216Y8276175D02*
X7698433D01*
X7723824D01*
Y8123825D01*
X7749216Y8149217D01*
X9525392Y8123825D02*
X9576175D01*
X9550784D01*
Y8250784D01*
X9576175Y8276175D01*
X9601567D01*
X9626959Y8250784D01*
X9373041Y8276175D02*
X9474608D01*
X9373041Y8174608D01*
Y8149217D01*
X9398433Y8123825D01*
X9449216D01*
X9474608Y8149217D01*
X6324608Y6626175D02*
X6223041D01*
Y6550000D01*
X6273825D01*
X6223041D01*
Y6473825D01*
X6476959D02*
X6375392D01*
X6476959Y6575392D01*
Y6600784D01*
X6451567Y6626175D01*
X6400784D01*
X6375392Y6600784D01*
X5150000Y6626175D02*
X5048433D01*
Y6550000D01*
X5099217D01*
X5048433D01*
Y6473825D01*
X5200784D02*
X5251567D01*
X5226176D01*
Y6626175D01*
X5200784Y6600784D01*
X261620Y3799791D02*
Y3647440D01*
X337795D01*
X363187Y3672832D01*
Y3774399D01*
X337795Y3799791D01*
X261620D01*
X490146Y3647440D02*
Y3799791D01*
X413971Y3723615D01*
X515538D01*
X9067800Y3987751D02*
Y3835400D01*
X9143975D01*
X9169367Y3860792D01*
Y3962359D01*
X9143975Y3987751D01*
X9067800D01*
X9321718D02*
X9270934Y3962359D01*
X9220151Y3911575D01*
Y3860792D01*
X9245543Y3835400D01*
X9296326D01*
X9321718Y3860792D01*
Y3886183D01*
X9296326Y3911575D01*
X9220151D01*
X1198433Y3826175D02*
Y3673825D01*
X1274608D01*
X1300000Y3699217D01*
Y3800784D01*
X1274608Y3826175D01*
X1198433D01*
X1350784Y3673825D02*
X1401567D01*
X1376176D01*
Y3826175D01*
X1350784Y3800784D01*
X7323041Y3926175D02*
Y3773825D01*
X7399217D01*
X7424608Y3799216D01*
Y3900783D01*
X7399217Y3926175D01*
X7323041D01*
X7576959D02*
X7475392D01*
Y3850000D01*
X7526175Y3875392D01*
X7551567D01*
X7576959Y3850000D01*
Y3799216D01*
X7551567Y3773825D01*
X7500784D01*
X7475392Y3799216D01*
X1183640Y843231D02*
Y690880D01*
X1259815D01*
X1285207Y716272D01*
Y817839D01*
X1259815Y843231D01*
X1183640D01*
X1335991Y817839D02*
X1361383Y843231D01*
X1412166D01*
X1437558Y817839D01*
Y792447D01*
X1412166Y767055D01*
X1437558Y741663D01*
Y716272D01*
X1412166Y690880D01*
X1361383D01*
X1335991Y716272D01*
Y741663D01*
X1361383Y767055D01*
X1335991Y792447D01*
Y817839D01*
X1361383Y767055D02*
X1412166D01*
X711200Y3799791D02*
Y3647440D01*
X787375D01*
X812767Y3672832D01*
Y3774399D01*
X787375Y3799791D01*
X711200D01*
X965118Y3647440D02*
X863551D01*
X965118Y3749007D01*
Y3774399D01*
X939726Y3799791D01*
X888943D01*
X863551Y3774399D01*
X1661160Y3799791D02*
Y3647440D01*
X1737335D01*
X1762727Y3672832D01*
Y3774399D01*
X1737335Y3799791D01*
X1661160D01*
X1813511Y3774399D02*
X1838903Y3799791D01*
X1889686D01*
X1915078Y3774399D01*
Y3749007D01*
X1889686Y3723615D01*
X1864294D01*
X1889686D01*
X1915078Y3698223D01*
Y3672832D01*
X1889686Y3647440D01*
X1838903D01*
X1813511Y3672832D01*
X203167Y2506939D02*
X177775Y2532331D01*
X126992D01*
X101600Y2506939D01*
Y2405372D01*
X126992Y2379980D01*
X177775D01*
X203167Y2405372D01*
X355518Y2379980D02*
X253951D01*
X355518Y2481547D01*
Y2506939D01*
X330126Y2532331D01*
X279343D01*
X253951Y2506939D01*
X7833327Y3456899D02*
X7807935Y3482291D01*
X7757152D01*
X7731760Y3456899D01*
Y3355332D01*
X7757152Y3329940D01*
X7807935D01*
X7833327Y3355332D01*
X7884111Y3456899D02*
X7909503Y3482291D01*
X7960286D01*
X7985678Y3456899D01*
Y3431507D01*
X7960286Y3406115D01*
X7934894D01*
X7960286D01*
X7985678Y3380723D01*
Y3355332D01*
X7960286Y3329940D01*
X7909503D01*
X7884111Y3355332D01*
X1856707Y1658579D02*
X1831315Y1683971D01*
X1780532D01*
X1755140Y1658579D01*
Y1557012D01*
X1780532Y1531620D01*
X1831315D01*
X1856707Y1557012D01*
X1907491Y1658579D02*
X1932883Y1683971D01*
X1983666D01*
X2009058Y1658579D01*
Y1633187D01*
X1983666Y1607795D01*
X2009058Y1582403D01*
Y1557012D01*
X1983666Y1531620D01*
X1932883D01*
X1907491Y1557012D01*
Y1582403D01*
X1932883Y1607795D01*
X1907491Y1633187D01*
Y1658579D01*
X1932883Y1607795D02*
X1983666D01*
X6674608Y5054249D02*
X6649217Y5079641D01*
X6598433D01*
X6573041Y5054249D01*
Y4952682D01*
X6598433Y4927290D01*
X6649217D01*
X6674608Y4952682D01*
X6801567Y4927290D02*
Y5079641D01*
X6725392Y5003465D01*
X6826959D01*
X3848067Y2473919D02*
X3822675Y2499311D01*
X3771892D01*
X3746500Y2473919D01*
Y2372352D01*
X3771892Y2346960D01*
X3822675D01*
X3848067Y2372352D01*
X3898851Y2499311D02*
X4000418D01*
Y2473919D01*
X3898851Y2372352D01*
Y2346960D01*
D46*
X8829500Y3650000D02*
G03*
X8829500Y3650000I-10000J0D01*
G01*
X7760000Y3570500D02*
G03*
X7760000Y3570500I-10000J0D01*
G01*
X5380300Y2117886D02*
G03*
X5380300Y2117886I-10000J0D01*
G01*
X4349700Y1529400D02*
G03*
X4349700Y1529400I-10000J0D01*
G01*
X2520000Y732500D02*
G03*
X2520000Y732500I-20000J0D01*
G01*
X3755600Y2189700D02*
G03*
X3755600Y2189700I-10000J0D01*
G01*
X1820300Y870600D02*
G03*
X1820300Y870600I-10000J0D01*
G01*
X4542000Y809835D02*
X4584334Y936835D01*
X4965334Y1741166D02*
X4986500Y1781666D01*
X5113500D02*
X5134666Y1741166D01*
X5414701Y1781666D02*
X5426199Y1765535D01*
X4542000Y1698835D02*
X4584334Y1656500D01*
X5515666D02*
X5558000Y1698835D01*
X4584334Y936835D02*
X5515666D01*
X4584334D02*
Y1656500D01*
X5515666D01*
Y936835D02*
Y1656500D01*
Y936835D02*
X5558000Y809835D01*
X4542000D02*
X5558000D01*
X4542000Y1698835D02*
X5558000D01*
X4542000Y513500D02*
Y1698835D01*
X5558000Y513500D02*
Y1698800D01*
X5431000Y513500D02*
X5558000D01*
X5431000Y386500D02*
Y513500D01*
Y386500D02*
X5558000D01*
Y174835D02*
Y386500D01*
X4542000Y513500D02*
X4669000D01*
Y386500D02*
Y513500D01*
X4542000Y386500D02*
X4669000D01*
X4542000Y174835D02*
Y386500D01*
Y174835D02*
X5558000D01*
X5134666Y1698835D02*
Y1741166D01*
X4965334Y1698835D02*
Y1741166D01*
X5431000Y1698835D02*
Y1762335D01*
X5261666Y1698835D02*
Y1781666D01*
X4669000Y1698835D02*
Y1762335D01*
X4838334Y1698835D02*
Y1781666D01*
X4668200Y1759934D02*
X4684499Y1781666D01*
D47*
X9024000Y3580000D02*
X9174000D01*
X9024000Y3720000D02*
X9174000D01*
X7820000Y3775000D02*
Y3925000D01*
X7680000Y3775000D02*
Y3925000D01*
X5295000Y2294786D02*
X5408750Y2181036D01*
X5295000Y2294786D02*
Y2612286D01*
X5610000Y2182285D02*
X5725000Y2297285D01*
Y2612286D01*
X5295000D02*
X5407500D01*
X5612500D02*
X5725000D01*
X5344900Y2282986D02*
X5395700D01*
X5370300Y2257586D02*
Y2308386D01*
X4301250Y1466250D02*
X4415000Y1352500D01*
Y1035000D02*
Y1352500D01*
X3985000Y1350000D02*
X4100000Y1465000D01*
X3985000Y1035000D02*
Y1350000D01*
X4302500Y1035000D02*
X4415000D01*
X3985000D02*
X4097500D01*
X4314300Y1364300D02*
X4365100D01*
X4339700Y1338900D02*
Y1389700D01*
X2271000Y816500D02*
Y1883500D01*
Y816500D02*
X2706100D01*
X2934800Y1045200D01*
Y1654800D01*
X2706100Y1883500D02*
X2934800Y1654800D01*
X2271000Y1883500D02*
X2706100D01*
X3808750Y2151250D02*
X3922500Y2265000D01*
X4240000D01*
X3810000Y1950000D02*
X3925000Y1835000D01*
X4240000D01*
Y2152500D02*
Y2265000D01*
Y1835000D02*
Y1947500D01*
X3910700Y2164300D02*
Y2215100D01*
X3885300Y2189700D02*
X3936100D01*
X1735000Y1047500D02*
X1848750Y933750D01*
X1735000Y1047500D02*
Y1365000D01*
X2050000Y935000D02*
X2165000Y1050000D01*
Y1365000D01*
X1735000D02*
X1847500D01*
X2052500D02*
X2165000D01*
X1784900Y1035700D02*
X1835700D01*
X1810300Y1010300D02*
Y1061100D01*
D48*
X7756500Y1825700D02*
X7947000D01*
X7756500Y2054300D02*
X7947000D01*
X7464400D02*
X7654900D01*
X7464400Y1825700D02*
X7654900D01*
X7947000D02*
Y2054300D01*
X7464400Y1825700D02*
Y2054300D01*
X8305100Y1825700D02*
X8495600D01*
X8305100Y2054300D02*
X8495600D01*
X8013000D02*
X8203500D01*
X8013000Y1825700D02*
X8203500D01*
X8495600D02*
Y2054300D01*
X8013000Y1825700D02*
Y2054300D01*
X7924600Y3061100D02*
X8038900D01*
X7924600Y3238900D02*
X8038900D01*
X7721400D02*
X7848400D01*
X7721400Y3061100D02*
X7848400D01*
X8038900D02*
Y3238900D01*
X7721400Y3061100D02*
Y3238900D01*
X7079200Y4907966D02*
X7193500D01*
X7079200Y5085766D02*
X7193500D01*
X6876000D02*
X7003000D01*
X6876000Y4907966D02*
X7003000D01*
X7193500D02*
Y5085766D01*
X6876000Y4907966D02*
Y5085766D01*
X7681400Y5158900D02*
X7795700D01*
X7681400Y4981100D02*
X7795700D01*
X7871900D02*
X7998900D01*
X7871900Y5158900D02*
X7998900D01*
X7681400Y4981100D02*
Y5158900D01*
X7998900Y4981100D02*
Y5158900D01*
X7335700Y4423671D02*
Y4614171D01*
X7564300Y4423671D02*
Y4614171D01*
Y4715771D02*
Y4906271D01*
X7335700Y4715771D02*
Y4906271D01*
Y4423671D02*
X7564300D01*
X7335700Y4906271D02*
X7564300D01*
X7486500Y4139165D02*
X7677000D01*
X7486500Y4367765D02*
X7677000D01*
X7194400D02*
X7384900D01*
X7194400Y4139165D02*
X7384900D01*
X7677000D02*
Y4367765D01*
X7194400Y4139165D02*
Y4367765D01*
X3386500Y1935700D02*
X3577000D01*
X3386500Y2164300D02*
X3577000D01*
X3094400D02*
X3284900D01*
X3094400Y1935700D02*
X3284900D01*
X3577000D02*
Y2164300D01*
X3094400Y1935700D02*
Y2164300D01*
X2756134Y1936765D02*
X2946634D01*
X2756134Y2165365D02*
X2946634D01*
X2464034D02*
X2654534D01*
X2464034Y1936765D02*
X2654534D01*
X2946634D02*
Y2165365D01*
X2464034Y1936765D02*
Y2165365D01*
X9744780Y3398400D02*
Y3512700D01*
X9452680Y3398400D02*
Y3512700D01*
X9693980D02*
X9744780D01*
X9592380Y3284100D02*
X9605080D01*
X9452680Y3512700D02*
X9503480D01*
X1340000Y1748415D02*
Y1850015D01*
X1289200Y1799215D02*
X1390800D01*
X1340000Y1697615D02*
Y1748415D01*
Y1850015D02*
Y1900815D01*
X1238400Y1799215D02*
X1289200D01*
X1390800D02*
X1441600D01*
X8808700Y3185700D02*
Y3414300D01*
X9291300Y3185700D02*
Y3414300D01*
X8808700Y3185700D02*
X8999200D01*
X8808700Y3414300D02*
X8999200D01*
X9100800D02*
X9291300D01*
X9100800Y3185700D02*
X9291300D01*
D49*
X2359714Y100000D02*
Y600000D01*
D50*
X2497500Y735000D02*
D03*
%TF.MD5,d62c668c82ef1169af7df0cb028393dd*%
M02*
