%TF.GenerationSoftware,Altium Limited,Altium Designer,24.0.1 (36)*%
G04 Layer_Physical_Order=1*
G04 Layer_Color=255*
%FSLAX45Y45*%
%MOMM*%
%TF.SameCoordinates,DDEBADB9-0EAF-4DA9-B7D3-1C4C0305AAAB*%
%TF.FilePolarity,Positive*%
%TF.FileFunction,Copper,L1,Top,Signal*%
%TF.Part,Single*%
G01*
G75*
%TA.AperFunction,SMDPad,CuDef*%
G04:AMPARAMS|DCode=10|XSize=1.524mm|YSize=1.27mm|CornerRadius=0.09525mm|HoleSize=0mm|Usage=FLASHONLY|Rotation=180.000|XOffset=0mm|YOffset=0mm|HoleType=Round|Shape=RoundedRectangle|*
%AMROUNDEDRECTD10*
21,1,1.52400,1.07950,0,0,180.0*
21,1,1.33350,1.27000,0,0,180.0*
1,1,0.19050,-0.66675,0.53975*
1,1,0.19050,0.66675,0.53975*
1,1,0.19050,0.66675,-0.53975*
1,1,0.19050,-0.66675,-0.53975*
%
%ADD10ROUNDEDRECTD10*%
%TA.AperFunction,BGAPad,CuDef*%
%ADD11R,0.70000X0.70000*%
%TA.AperFunction,SMDPad,CuDef*%
%ADD12R,1.50000X0.90000*%
G04:AMPARAMS|DCode=13|XSize=1.524mm|YSize=1.27mm|CornerRadius=0.09525mm|HoleSize=0mm|Usage=FLASHONLY|Rotation=270.000|XOffset=0mm|YOffset=0mm|HoleType=Round|Shape=RoundedRectangle|*
%AMROUNDEDRECTD13*
21,1,1.52400,1.07950,0,0,270.0*
21,1,1.33350,1.27000,0,0,270.0*
1,1,0.19050,-0.53975,-0.66675*
1,1,0.19050,-0.53975,0.66675*
1,1,0.19050,0.53975,0.66675*
1,1,0.19050,0.53975,-0.66675*
%
%ADD13ROUNDEDRECTD13*%
G04:AMPARAMS|DCode=14|XSize=1mm|YSize=1.5mm|CornerRadius=0.075mm|HoleSize=0mm|Usage=FLASHONLY|Rotation=0.000|XOffset=0mm|YOffset=0mm|HoleType=Round|Shape=RoundedRectangle|*
%AMROUNDEDRECTD14*
21,1,1.00000,1.35000,0,0,0.0*
21,1,0.85000,1.50000,0,0,0.0*
1,1,0.15000,0.42500,-0.67500*
1,1,0.15000,-0.42500,-0.67500*
1,1,0.15000,-0.42500,0.67500*
1,1,0.15000,0.42500,0.67500*
%
%ADD14ROUNDEDRECTD14*%
%ADD15R,0.80000X2.70000*%
G04:AMPARAMS|DCode=16|XSize=0.66mm|YSize=0.31mm|CornerRadius=0.02325mm|HoleSize=0mm|Usage=FLASHONLY|Rotation=0.000|XOffset=0mm|YOffset=0mm|HoleType=Round|Shape=RoundedRectangle|*
%AMROUNDEDRECTD16*
21,1,0.66000,0.26350,0,0,0.0*
21,1,0.61350,0.31000,0,0,0.0*
1,1,0.04650,0.30675,-0.13175*
1,1,0.04650,-0.30675,-0.13175*
1,1,0.04650,-0.30675,0.13175*
1,1,0.04650,0.30675,0.13175*
%
%ADD16ROUNDEDRECTD16*%
G04:AMPARAMS|DCode=17|XSize=0.762mm|YSize=0.762mm|CornerRadius=0.0381mm|HoleSize=0mm|Usage=FLASHONLY|Rotation=0.000|XOffset=0mm|YOffset=0mm|HoleType=Round|Shape=RoundedRectangle|*
%AMROUNDEDRECTD17*
21,1,0.76200,0.68580,0,0,0.0*
21,1,0.68580,0.76200,0,0,0.0*
1,1,0.07620,0.34290,-0.34290*
1,1,0.07620,-0.34290,-0.34290*
1,1,0.07620,-0.34290,0.34290*
1,1,0.07620,0.34290,0.34290*
%
%ADD17ROUNDEDRECTD17*%
%ADD18R,2.40000X2.40000*%
G04:AMPARAMS|DCode=19|XSize=2.5mm|YSize=1.6mm|CornerRadius=0.12mm|HoleSize=0mm|Usage=FLASHONLY|Rotation=90.000|XOffset=0mm|YOffset=0mm|HoleType=Round|Shape=RoundedRectangle|*
%AMROUNDEDRECTD19*
21,1,2.50000,1.36000,0,0,90.0*
21,1,2.26000,1.60000,0,0,90.0*
1,1,0.24000,0.68000,1.13000*
1,1,0.24000,0.68000,-1.13000*
1,1,0.24000,-0.68000,-1.13000*
1,1,0.24000,-0.68000,1.13000*
%
%ADD19ROUNDEDRECTD19*%
%TA.AperFunction,ConnectorPad*%
%ADD20R,1.15000X0.30000*%
%ADD21R,1.15000X0.60000*%
%TA.AperFunction,Conductor*%
%ADD22C,0.75000*%
%ADD23C,0.25000*%
%ADD24C,0.50000*%
%ADD25C,0.60000*%
%ADD26C,0.30000*%
%TA.AperFunction,ComponentPad*%
%ADD27C,1.85000*%
%ADD28R,1.85000X1.85000*%
%ADD29C,0.40000*%
%ADD30O,1.11000X2.22000*%
%ADD31C,0.65000*%
%ADD32O,2.10000X1.00000*%
%ADD33O,1.80000X1.00000*%
%ADD34C,5.00000*%
%TA.AperFunction,ViaPad*%
%ADD35C,1.50000*%
%ADD36C,0.80000*%
G36*
X6941373Y2250000D02*
X6941373Y2249999D01*
Y750000D01*
Y58627D01*
X5550000D01*
Y659873D01*
X5613142D01*
Y639445D01*
X5615433Y627925D01*
X5621959Y618159D01*
X5631725Y611633D01*
X5643245Y609342D01*
X5751195D01*
X5762715Y611633D01*
X5772481Y618159D01*
X5779007Y627925D01*
X5781298Y639445D01*
Y772795D01*
X5779007Y784315D01*
X5772481Y794081D01*
X5762715Y800607D01*
X5751195Y802898D01*
X5643245D01*
X5631725Y800607D01*
X5621959Y794081D01*
X5615433Y784315D01*
X5614003Y777126D01*
X5542000D01*
Y791000D01*
X5352000D01*
Y743911D01*
X5278261Y670172D01*
X5271465Y660000D01*
X3804286D01*
X3792000Y661000D01*
X3792000Y672700D01*
Y791000D01*
X3602000D01*
Y771882D01*
X3431100D01*
X3413542Y768389D01*
X3398657Y758443D01*
X3218757Y578543D01*
X3208811Y563658D01*
X3205318Y546100D01*
Y493745D01*
X3197353Y487632D01*
X3194050Y483328D01*
X3181350D01*
X3178047Y487632D01*
X3162276Y499734D01*
X3143909Y507342D01*
X3124200Y509936D01*
X3104491Y507342D01*
X3086124Y499734D01*
X3070353Y487632D01*
X3058251Y471861D01*
X3050643Y453494D01*
X3048049Y433785D01*
Y322785D01*
X3050643Y303076D01*
X3058251Y284709D01*
X3070353Y268938D01*
X3086124Y256836D01*
X3104491Y249228D01*
X3124200Y246633D01*
X3143909Y249228D01*
X3162276Y256836D01*
X3178047Y268938D01*
X3181350Y273242D01*
X3194050D01*
X3197353Y268938D01*
X3213124Y256836D01*
X3231491Y249228D01*
X3251200Y246633D01*
X3270909Y249228D01*
X3289276Y256836D01*
X3303156Y267486D01*
X3310229Y269135D01*
X3317899D01*
X3320787Y265372D01*
X3337603Y252468D01*
X3353200Y246008D01*
Y378285D01*
Y510562D01*
X3337603Y504102D01*
X3320787Y491198D01*
X3317899Y487435D01*
X3310229D01*
X3303156Y489084D01*
X3297082Y493745D01*
Y527095D01*
X3450105Y680119D01*
X3593321D01*
X3601250Y667418D01*
X3600000Y660000D01*
X3600000Y649128D01*
Y600000D01*
X3597000Y597000D01*
Y58627D01*
X2842313D01*
X2836166Y67194D01*
X2834738Y71327D01*
X2836538Y80380D01*
Y215380D01*
X2834404Y226110D01*
X2828326Y235206D01*
X2819230Y241284D01*
X2808500Y243418D01*
X2742725D01*
X2741000Y243762D01*
X2735004D01*
X2451043Y527723D01*
X2448172Y529641D01*
X2452025Y542341D01*
X2488500D01*
X2499230Y544476D01*
X2508326Y550554D01*
X2514404Y559650D01*
X2516539Y570380D01*
Y668532D01*
X2828125Y980118D01*
X3602000D01*
Y961000D01*
X3792000D01*
Y1091000D01*
X3602000D01*
Y1071882D01*
X2809120D01*
X2791562Y1068389D01*
X2776677Y1058443D01*
X2451652Y733418D01*
X2403500D01*
X2392770Y731284D01*
X2383674Y725206D01*
X2377596Y716110D01*
X2375461Y705380D01*
Y570380D01*
X2377596Y559650D01*
X2381463Y553861D01*
X2377264Y542871D01*
X2375838Y541161D01*
X2271838D01*
X2265050Y553861D01*
X2267614Y557699D01*
X2270136Y570380D01*
Y612880D01*
X2118863D01*
Y570380D01*
X2121386Y557699D01*
X2123950Y553861D01*
X2117161Y541161D01*
X2036105D01*
X1956943Y620323D01*
X1945039Y628277D01*
Y705380D01*
X1942904Y716110D01*
X1936826Y725206D01*
X1927730Y731284D01*
X1917000Y733418D01*
X1832000D01*
X1821270Y731284D01*
X1812174Y725206D01*
X1806096Y716110D01*
X1803961Y705380D01*
Y570380D01*
X1806096Y559650D01*
X1812174Y550554D01*
X1821270Y544476D01*
X1832000Y542341D01*
X1897775D01*
X1899500Y541998D01*
X1905495D01*
X1984657Y462837D01*
X1999542Y452891D01*
X2017100Y449398D01*
X2399595D01*
X2433413Y415580D01*
X2428153Y402880D01*
X2418965D01*
X2396913Y393745D01*
X2380034Y376867D01*
X2370900Y354815D01*
Y330945D01*
X2374873Y321353D01*
Y160380D01*
X2375461Y157424D01*
Y80380D01*
X2377262Y71327D01*
X2375834Y67194D01*
X2369687Y58627D01*
X2270813D01*
X2264666Y67194D01*
X2263238Y71327D01*
X2265038Y80380D01*
Y215380D01*
X2262904Y226110D01*
X2256826Y235206D01*
X2247730Y241284D01*
X2237000Y243418D01*
X2171225D01*
X2169500Y243762D01*
X2163504D01*
X1930343Y476923D01*
X1915458Y486869D01*
X1897900Y490361D01*
X1515405D01*
X1385443Y620323D01*
X1373539Y628277D01*
Y705380D01*
X1371404Y716110D01*
X1365326Y725206D01*
X1356230Y731284D01*
X1345500Y733418D01*
X1260500D01*
X1249770Y731284D01*
X1240674Y725206D01*
X1234596Y716110D01*
X1232461Y705380D01*
Y570380D01*
X1234596Y559650D01*
X1240674Y550554D01*
X1249770Y544476D01*
X1260500Y542341D01*
X1326275D01*
X1328000Y541998D01*
X1333995D01*
X1463957Y412037D01*
X1478842Y402091D01*
X1496400Y398598D01*
X1806972D01*
X1809069Y394635D01*
X1810866Y385898D01*
X1795834Y370867D01*
X1786700Y348815D01*
Y324945D01*
X1795834Y302893D01*
X1812713Y286014D01*
X1813719Y285598D01*
X1815873Y283443D01*
Y237678D01*
X1812174Y235206D01*
X1806096Y226110D01*
X1803961Y215380D01*
Y80380D01*
X1805762Y71327D01*
X1804334Y67194D01*
X1798187Y58627D01*
X1699313D01*
X1693166Y67194D01*
X1691738Y71327D01*
X1693538Y80380D01*
Y215380D01*
X1691404Y226110D01*
X1685326Y235206D01*
X1676230Y241284D01*
X1665500Y243418D01*
X1599725D01*
X1598000Y243762D01*
X1592004D01*
X1333443Y502323D01*
X1318558Y512269D01*
X1301000Y515761D01*
X918505D01*
X813943Y620323D01*
X802039Y628277D01*
Y705380D01*
X799904Y716110D01*
X793826Y725206D01*
X784730Y731284D01*
X774000Y733418D01*
X689000D01*
X678270Y731284D01*
X669174Y725206D01*
X663096Y716110D01*
X660961Y705380D01*
Y570380D01*
X663096Y559650D01*
X669174Y550554D01*
X678270Y544476D01*
X689000Y542341D01*
X754775D01*
X756500Y541998D01*
X762495D01*
X867057Y437437D01*
X881942Y427491D01*
X899500Y423998D01*
X1073025D01*
X1078286Y411298D01*
X1066734Y399747D01*
X1065361Y396432D01*
X1010045Y341115D01*
X997336Y322095D01*
X992873Y299660D01*
Y237678D01*
X989174Y235206D01*
X983096Y226110D01*
X980961Y215380D01*
Y80380D01*
X982762Y71327D01*
X981334Y67194D01*
X975187Y58627D01*
X807813D01*
X801666Y67194D01*
X800238Y71327D01*
X802039Y80380D01*
Y215380D01*
X799904Y226110D01*
X793826Y235206D01*
X784730Y241284D01*
X774000Y243418D01*
X768507D01*
X762326Y252669D01*
Y371564D01*
X763700Y374879D01*
Y398749D01*
X754565Y420801D01*
X737687Y437680D01*
X715635Y446814D01*
X691765D01*
X669713Y437680D01*
X652834Y420801D01*
X643700Y398749D01*
Y374879D01*
X645073Y371564D01*
Y229314D01*
X649536Y206879D01*
X660373Y190660D01*
Y160380D01*
X660961Y157424D01*
Y80380D01*
X662762Y71327D01*
X661334Y67194D01*
X655187Y58627D01*
X58626D01*
X58627Y2941373D01*
X1800470Y2941373D01*
X1805330Y2929640D01*
X1761945Y2886255D01*
X1749236Y2867235D01*
X1744773Y2844800D01*
Y2335684D01*
X1739616Y2330526D01*
X1662300D01*
X1659788Y2330027D01*
X1557600D01*
X1545115Y2327543D01*
X1534530Y2320471D01*
X1527457Y2309886D01*
X1524973Y2297400D01*
Y2071400D01*
X1527457Y2058914D01*
X1534530Y2048329D01*
X1537304Y2046476D01*
X1538790Y2044251D01*
X1545406Y2039830D01*
X1553210Y2038278D01*
X1566973D01*
Y1946900D01*
X1571436Y1924465D01*
X1584145Y1905445D01*
X1599354Y1890236D01*
Y1766520D01*
X1600480Y1760857D01*
Y1544020D01*
X1880480D01*
Y1824020D01*
X1716607D01*
Y1914520D01*
X1712144Y1936955D01*
X1699435Y1955975D01*
X1684227Y1971184D01*
Y2038278D01*
X1697990D01*
X1701021Y2038881D01*
X1704093Y2039213D01*
X2048263Y2147163D01*
X2049066Y2147602D01*
X2049964Y2147780D01*
X2052533Y2149497D01*
X2055244Y2150979D01*
X2055818Y2151692D01*
X2056579Y2152201D01*
X2058296Y2154770D01*
X2060234Y2157177D01*
X2060491Y2158056D01*
X2061000Y2158816D01*
X2061602Y2161847D01*
X2062472Y2164812D01*
X2062373Y2165722D01*
X2062552Y2166620D01*
Y2171093D01*
X2062737Y2172025D01*
Y2198375D01*
X2062552Y2199307D01*
Y2199640D01*
X2061481Y2205026D01*
X2064937Y2210200D01*
X2059164D01*
X2056583Y2214063D01*
X2056160Y2214345D01*
X2056074Y2214474D01*
X2048688Y2219409D01*
X2039975Y2221142D01*
X2009300D01*
Y2249258D01*
X2039975D01*
X2048688Y2250991D01*
X2056074Y2255926D01*
X2058930Y2260200D01*
X2064937D01*
X2061429Y2265450D01*
X2062737Y2272025D01*
Y2298375D01*
X2061005Y2307086D01*
X2056070Y2314470D01*
X2048686Y2319404D01*
X2048636Y2319414D01*
Y2481711D01*
X2056530Y2483282D01*
X2064406Y2488544D01*
X2069668Y2496420D01*
X2071516Y2505710D01*
Y2574290D01*
X2069668Y2583580D01*
X2064406Y2591456D01*
X2056530Y2596718D01*
X2048636Y2598289D01*
Y2735711D01*
X2056530Y2737282D01*
X2064406Y2742544D01*
X2069668Y2750420D01*
X2071516Y2759710D01*
Y2828290D01*
X2069668Y2837580D01*
X2065597Y2843673D01*
X2067624Y2850843D01*
X2070927Y2856373D01*
X2094673D01*
X2097977Y2850843D01*
X2100003Y2843673D01*
X2095932Y2837580D01*
X2094084Y2828290D01*
Y2759710D01*
X2095932Y2750420D01*
X2101194Y2742544D01*
X2109070Y2737282D01*
X2118360Y2735434D01*
X2186940D01*
X2196230Y2737282D01*
X2204106Y2742544D01*
X2209368Y2750420D01*
X2210433Y2755774D01*
X2313526D01*
X2313874Y2754933D01*
X2330753Y2738054D01*
X2352805Y2728920D01*
X2376675D01*
X2398727Y2738054D01*
X2415606Y2754933D01*
X2424740Y2776985D01*
Y2800855D01*
X2415606Y2822907D01*
X2398727Y2839786D01*
X2389342Y2843673D01*
X2391868Y2856373D01*
X2717800D01*
X2740235Y2860836D01*
X2756226Y2871520D01*
X2878617D01*
X2887500Y2862500D01*
X2887500Y2858820D01*
Y2637500D01*
X2954119D01*
Y2486400D01*
X2957611Y2468842D01*
X2967557Y2453957D01*
X3066357Y2355157D01*
X3081242Y2345211D01*
X3098800Y2341718D01*
X3468415D01*
X3694120Y2116014D01*
Y2108965D01*
X3703254Y2086913D01*
X3720133Y2070034D01*
X3742185Y2060900D01*
X3766055D01*
X3788107Y2070034D01*
X3804986Y2086913D01*
X3814120Y2108965D01*
Y2132835D01*
X3804986Y2154887D01*
X3788107Y2171766D01*
X3766055Y2180900D01*
X3759006D01*
X3519863Y2420043D01*
X3504978Y2429989D01*
X3487420Y2433482D01*
X3117805D01*
X3045882Y2505405D01*
Y2637500D01*
X3112500D01*
Y2858820D01*
X3112500Y2862500D01*
X3121384Y2871520D01*
X3223784D01*
X3225456Y2858820D01*
X3210577Y2854833D01*
X3184924Y2840023D01*
X3163978Y2819077D01*
X3149167Y2793423D01*
X3141500Y2764811D01*
Y2735189D01*
X3149167Y2706577D01*
X3163978Y2680924D01*
X3184924Y2659978D01*
X3210577Y2645167D01*
X3239189Y2637500D01*
X3268811D01*
X3297423Y2645167D01*
X3323077Y2659978D01*
X3344023Y2680924D01*
X3358833Y2706577D01*
X3366500Y2735189D01*
Y2764811D01*
X3358833Y2793423D01*
X3344023Y2819077D01*
X3323077Y2840023D01*
X3297423Y2854833D01*
X3282544Y2858820D01*
X3284216Y2871520D01*
X3477784D01*
X3479456Y2858820D01*
X3464577Y2854833D01*
X3438924Y2840023D01*
X3417978Y2819077D01*
X3403167Y2793423D01*
X3395500Y2764811D01*
Y2735189D01*
X3403167Y2706577D01*
X3417978Y2680924D01*
X3438924Y2659978D01*
X3464577Y2645167D01*
X3493189Y2637500D01*
X3522811D01*
X3551423Y2645167D01*
X3577077Y2659978D01*
X3598023Y2680924D01*
X3612833Y2706577D01*
X3620500Y2735189D01*
Y2764811D01*
X3612833Y2793423D01*
X3598023Y2819077D01*
X3577077Y2840023D01*
X3551423Y2854833D01*
X3536544Y2858820D01*
X3538216Y2871520D01*
X3708653D01*
X3709648Y2869887D01*
X3705345Y2852968D01*
X3689853Y2844024D01*
X3667977Y2822147D01*
X3652508Y2795353D01*
X3647054Y2775000D01*
X3876946D01*
X3871493Y2795353D01*
X3856024Y2822147D01*
X3834147Y2844024D01*
X3818655Y2852968D01*
X3814353Y2869887D01*
X3815347Y2871520D01*
X3855336D01*
X3919317Y2807540D01*
X3911167Y2793423D01*
X3903500Y2764811D01*
Y2735189D01*
X3911167Y2706577D01*
X3925978Y2680924D01*
X3946924Y2659978D01*
X3972577Y2645167D01*
X4001189Y2637500D01*
X4030811D01*
X4059423Y2645167D01*
X4085077Y2659978D01*
X4106023Y2680924D01*
X4116471Y2699021D01*
X4169529D01*
X4179978Y2680924D01*
X4200924Y2659978D01*
X4226577Y2645167D01*
X4255189Y2637500D01*
X4284811D01*
X4313423Y2645167D01*
X4339077Y2659978D01*
X4360023Y2680924D01*
X4374833Y2706577D01*
X4382500Y2735189D01*
Y2764811D01*
X4374833Y2793423D01*
X4360023Y2819077D01*
X4339077Y2840023D01*
X4313423Y2854833D01*
X4284811Y2862500D01*
X4255189D01*
X4226577Y2854833D01*
X4200924Y2840023D01*
X4179978Y2819077D01*
X4169529Y2800980D01*
X4116471D01*
X4106023Y2819077D01*
X4085077Y2840023D01*
X4059423Y2854833D01*
X4030811Y2862500D01*
X4008549D01*
X3941409Y2929640D01*
X3946269Y2941373D01*
X6941373D01*
Y2250000D01*
D02*
G37*
G36*
X2042160Y2166620D02*
X1697990Y2058670D01*
X1553210D01*
X1694180Y2199640D01*
X2042160Y2199640D01*
Y2166620D01*
D02*
G37*
%LPC*%
G36*
X4549000Y2864946D02*
Y2775000D01*
X4638946D01*
X4633493Y2795353D01*
X4618024Y2822147D01*
X4596147Y2844024D01*
X4569353Y2859493D01*
X4549000Y2864946D01*
D02*
G37*
G36*
X4499000D02*
X4478647Y2859493D01*
X4451853Y2844024D01*
X4429977Y2822147D01*
X4414508Y2795353D01*
X4409054Y2775000D01*
X4499000D01*
Y2864946D01*
D02*
G37*
G36*
X375000Y2924468D02*
Y2675000D01*
X624468D01*
X618229Y2714396D01*
X604852Y2755563D01*
X585201Y2794131D01*
X559758Y2829150D01*
X529151Y2859758D01*
X494132Y2885201D01*
X455563Y2904852D01*
X414396Y2918228D01*
X375000Y2924468D01*
D02*
G37*
G36*
X325000D02*
X285604Y2918228D01*
X244437Y2904852D01*
X205869Y2885201D01*
X170850Y2859758D01*
X140242Y2829150D01*
X114799Y2794131D01*
X95148Y2755563D01*
X81771Y2714396D01*
X75532Y2675000D01*
X325000D01*
Y2924468D01*
D02*
G37*
G36*
X6316811Y2862500D02*
X6287189D01*
X6258577Y2854833D01*
X6232924Y2840023D01*
X6211978Y2819077D01*
X6197167Y2793423D01*
X6189500Y2764811D01*
Y2735189D01*
X6197167Y2706577D01*
X6211978Y2680924D01*
X6232924Y2659978D01*
X6258577Y2645167D01*
X6287189Y2637500D01*
X6316811D01*
X6345423Y2645167D01*
X6371077Y2659978D01*
X6392023Y2680924D01*
X6406833Y2706577D01*
X6414500Y2735189D01*
Y2764811D01*
X6406833Y2793423D01*
X6392023Y2819077D01*
X6371077Y2840023D01*
X6345423Y2854833D01*
X6316811Y2862500D01*
D02*
G37*
G36*
X6062811D02*
X6033189D01*
X6004577Y2854833D01*
X5978924Y2840023D01*
X5957978Y2819077D01*
X5943167Y2793423D01*
X5935500Y2764811D01*
Y2735189D01*
X5943167Y2706577D01*
X5957978Y2680924D01*
X5978924Y2659978D01*
X6004577Y2645167D01*
X6033189Y2637500D01*
X6062811D01*
X6091423Y2645167D01*
X6117077Y2659978D01*
X6138023Y2680924D01*
X6152833Y2706577D01*
X6160500Y2735189D01*
Y2764811D01*
X6152833Y2793423D01*
X6138023Y2819077D01*
X6117077Y2840023D01*
X6091423Y2854833D01*
X6062811Y2862500D01*
D02*
G37*
G36*
X4792811D02*
X4763189D01*
X4734577Y2854833D01*
X4708924Y2840023D01*
X4687978Y2819077D01*
X4673167Y2793423D01*
X4665500Y2764811D01*
Y2735189D01*
X4673167Y2706577D01*
X4687978Y2680924D01*
X4708924Y2659978D01*
X4734577Y2645167D01*
X4763189Y2637500D01*
X4792811D01*
X4821423Y2645167D01*
X4847077Y2659978D01*
X4868023Y2680924D01*
X4882833Y2706577D01*
X4890500Y2735189D01*
Y2764811D01*
X4882833Y2793423D01*
X4868023Y2819077D01*
X4847077Y2840023D01*
X4821423Y2854833D01*
X4792811Y2862500D01*
D02*
G37*
G36*
X4638946Y2725000D02*
X4549000D01*
Y2635054D01*
X4569353Y2640508D01*
X4596147Y2655977D01*
X4618024Y2677853D01*
X4633493Y2704647D01*
X4638946Y2725000D01*
D02*
G37*
G36*
X4499000D02*
X4409054D01*
X4414508Y2704647D01*
X4429977Y2677853D01*
X4451853Y2655977D01*
X4478647Y2640508D01*
X4499000Y2635054D01*
Y2725000D01*
D02*
G37*
G36*
X3876946D02*
X3787000D01*
Y2635054D01*
X3807353Y2640508D01*
X3834147Y2655977D01*
X3856024Y2677853D01*
X3871493Y2704647D01*
X3876946Y2725000D01*
D02*
G37*
G36*
X3737000D02*
X3647054D01*
X3652508Y2704647D01*
X3667977Y2677853D01*
X3689853Y2655977D01*
X3716647Y2640508D01*
X3737000Y2635054D01*
Y2725000D01*
D02*
G37*
G36*
X2608000Y2741525D02*
X2565000D01*
Y2615800D01*
X2645725D01*
Y2703800D01*
X2642853Y2718237D01*
X2634675Y2730476D01*
X2622436Y2738653D01*
X2608000Y2741525D01*
D02*
G37*
G36*
X2515000D02*
X2472000D01*
X2457564Y2738653D01*
X2445325Y2730476D01*
X2437147Y2718237D01*
X2434275Y2703800D01*
Y2615800D01*
X2515000D01*
Y2741525D01*
D02*
G37*
G36*
X2186940Y2603664D02*
X2177650D01*
Y2565000D01*
X2216314D01*
Y2574290D01*
X2214078Y2585531D01*
X2207711Y2595061D01*
X2198181Y2601428D01*
X2186940Y2603664D01*
D02*
G37*
G36*
X2127650D02*
X2118360D01*
X2107119Y2601428D01*
X2097589Y2595061D01*
X2091222Y2585531D01*
X2088986Y2574290D01*
Y2565000D01*
X2127650D01*
Y2603664D01*
D02*
G37*
G36*
X1693600Y2685125D02*
X1650600D01*
Y2559400D01*
X1731325D01*
Y2647400D01*
X1728453Y2661836D01*
X1720275Y2674075D01*
X1708036Y2682253D01*
X1693600Y2685125D01*
D02*
G37*
G36*
X1600600D02*
X1557600D01*
X1543164Y2682253D01*
X1530925Y2674075D01*
X1522747Y2661836D01*
X1519875Y2647400D01*
Y2559400D01*
X1600600D01*
Y2685125D01*
D02*
G37*
G36*
X2216314Y2515000D02*
X2177650D01*
Y2476336D01*
X2186940D01*
X2198181Y2478572D01*
X2207711Y2484939D01*
X2214078Y2494469D01*
X2216314Y2505710D01*
Y2515000D01*
D02*
G37*
G36*
X2127650D02*
X2088986D01*
Y2505710D01*
X2091222Y2494469D01*
X2097589Y2484939D01*
X2107119Y2478572D01*
X2118360Y2476336D01*
X2127650D01*
Y2515000D01*
D02*
G37*
G36*
X2645725Y2565800D02*
X2565000D01*
Y2440075D01*
X2608000D01*
X2622436Y2442947D01*
X2634675Y2451124D01*
X2642853Y2463363D01*
X2645725Y2477800D01*
Y2565800D01*
D02*
G37*
G36*
X2515000D02*
X2434275D01*
Y2477800D01*
X2437147Y2463363D01*
X2445325Y2451124D01*
X2457564Y2442947D01*
X2472000Y2440075D01*
X2515000D01*
Y2565800D01*
D02*
G37*
G36*
X1731325Y2509400D02*
X1650600D01*
Y2383675D01*
X1693600D01*
X1708036Y2386547D01*
X1720275Y2394724D01*
X1728453Y2406963D01*
X1731325Y2421400D01*
Y2509400D01*
D02*
G37*
G36*
X1600600D02*
X1519875D01*
Y2421400D01*
X1522747Y2406963D01*
X1530925Y2394724D01*
X1543164Y2386547D01*
X1557600Y2383675D01*
X1600600D01*
Y2509400D01*
D02*
G37*
G36*
X2608000Y2386427D02*
X2472000D01*
X2459515Y2383943D01*
X2449889Y2377512D01*
X2448561D01*
X2448560Y2377512D01*
X2440756Y2375960D01*
X2434141Y2371539D01*
X2434140Y2371539D01*
X2331782Y2269181D01*
X2322064Y2267242D01*
X2315666Y2270067D01*
X2302207Y2283526D01*
X2280155Y2292660D01*
X2256285D01*
X2234233Y2283526D01*
X2222229Y2271521D01*
X2209737Y2273631D01*
Y2298375D01*
X2208004Y2307086D01*
X2203070Y2314470D01*
X2195686Y2319404D01*
X2186975Y2321137D01*
X2125625D01*
X2116914Y2319404D01*
X2109530Y2314470D01*
X2104595Y2307086D01*
X2102863Y2298375D01*
Y2272025D01*
X2104595Y2263314D01*
X2106677Y2260200D01*
X2104595Y2257086D01*
X2102863Y2248375D01*
Y2222025D01*
X2104595Y2213314D01*
X2106559Y2210375D01*
X2104600Y2207444D01*
X2103048Y2199640D01*
Y2199307D01*
X2102863Y2198375D01*
Y2172025D01*
X2103048Y2171093D01*
Y1722160D01*
X2104600Y1714356D01*
X2109021Y1707741D01*
X2109021Y1707740D01*
X2121581Y1695181D01*
X2128196Y1690760D01*
X2136000Y1689208D01*
X2143804Y1690760D01*
X2148814Y1694108D01*
X2235200D01*
X2243004Y1695660D01*
X2249619Y1700081D01*
X2254040Y1706696D01*
X2255592Y1714500D01*
Y2153920D01*
X2254220Y2160815D01*
X2255370Y2163550D01*
X2262007Y2172660D01*
X2280155D01*
X2302207Y2181794D01*
X2308788Y2188375D01*
X2321488Y2183115D01*
Y2115820D01*
Y1717040D01*
X2323040Y1709236D01*
X2327461Y1702621D01*
X2334076Y1698200D01*
X2341880Y1696648D01*
X2420113D01*
X2421581Y1695181D01*
X2428196Y1690760D01*
X2436000Y1689208D01*
X2443804Y1690760D01*
X2450419Y1695181D01*
X2450420Y1695182D01*
X2556000Y1800762D01*
X2567733Y1795902D01*
Y1671330D01*
X2566360Y1668015D01*
Y1644145D01*
X2575494Y1622093D01*
X2592373Y1605214D01*
X2614425Y1596080D01*
X2638295D01*
X2660347Y1605214D01*
X2677226Y1622093D01*
X2686360Y1644145D01*
Y1668015D01*
X2684987Y1671330D01*
Y1841374D01*
X2904147D01*
X2905513Y1834505D01*
X2912039Y1824739D01*
X2921805Y1818213D01*
X2933325Y1815922D01*
X3066675D01*
X3078195Y1818213D01*
X3087961Y1824739D01*
X3094487Y1834505D01*
X3096778Y1846025D01*
Y1953975D01*
X3094487Y1965495D01*
X3087961Y1975261D01*
X3078195Y1981787D01*
X3066675Y1984078D01*
X2933325D01*
X2921805Y1981787D01*
X2912039Y1975261D01*
X2905513Y1965495D01*
X2904147Y1958627D01*
X2639132D01*
Y2120286D01*
X2640627Y2127800D01*
Y2353800D01*
X2638143Y2366286D01*
X2631070Y2376871D01*
X2620485Y2383943D01*
X2608000Y2386427D01*
D02*
G37*
G36*
X624468Y2625000D02*
X375000D01*
Y2375531D01*
X414396Y2381771D01*
X455563Y2395147D01*
X494132Y2414799D01*
X529151Y2440241D01*
X559758Y2470849D01*
X585201Y2505868D01*
X604852Y2544436D01*
X618229Y2585604D01*
X624468Y2625000D01*
D02*
G37*
G36*
X325000D02*
X75532D01*
X81771Y2585604D01*
X95148Y2544436D01*
X114799Y2505868D01*
X140242Y2470849D01*
X170850Y2440241D01*
X205869Y2414799D01*
X244437Y2395147D01*
X285604Y2381771D01*
X325000Y2375531D01*
Y2625000D01*
D02*
G37*
G36*
X5554811Y2862500D02*
X5525189D01*
X5496577Y2854833D01*
X5470924Y2840023D01*
X5449978Y2819077D01*
X5435167Y2793423D01*
X5427500Y2764811D01*
Y2735189D01*
X5435167Y2706577D01*
X5449978Y2680924D01*
X5470924Y2659978D01*
X5494119Y2646586D01*
Y2404325D01*
X5341492Y2251699D01*
X5329788Y2257955D01*
X5331882Y2268480D01*
Y2646586D01*
X5355077Y2659978D01*
X5376023Y2680924D01*
X5390833Y2706577D01*
X5398500Y2735189D01*
Y2764811D01*
X5390833Y2793423D01*
X5376023Y2819077D01*
X5355077Y2840023D01*
X5329423Y2854833D01*
X5300811Y2862500D01*
X5271189D01*
X5242577Y2854833D01*
X5216924Y2840023D01*
X5195978Y2819077D01*
X5181167Y2793423D01*
X5173500Y2764811D01*
Y2735189D01*
X5181167Y2706577D01*
X5195978Y2680924D01*
X5216924Y2659978D01*
X5240119Y2646586D01*
Y2287485D01*
X5083117Y2130483D01*
X5078002Y2122828D01*
X5062797Y2107623D01*
X5052851Y2092738D01*
X5049358Y2075180D01*
Y1216660D01*
X5052851Y1199102D01*
X5062797Y1184217D01*
X5253457Y993557D01*
X5268342Y983611D01*
X5285900Y980118D01*
X5352000D01*
Y961000D01*
X5542000D01*
Y1091000D01*
X5352000D01*
Y1071882D01*
X5304905D01*
X5141122Y1235665D01*
Y2050194D01*
X5144528Y2052901D01*
X5152799Y2049238D01*
X5156429Y2046137D01*
Y1295010D01*
X5159921Y1277451D01*
X5169867Y1262566D01*
X5288877Y1143557D01*
X5303762Y1133611D01*
X5321320Y1130118D01*
X5352000D01*
Y1111000D01*
X5542000D01*
Y1241000D01*
X5352000D01*
Y1224355D01*
X5339300Y1222906D01*
X5248192Y1314014D01*
Y2028626D01*
X5572443Y2352877D01*
X5582389Y2367762D01*
X5585882Y2385320D01*
Y2646586D01*
X5609077Y2659978D01*
X5630023Y2680924D01*
X5644833Y2706577D01*
X5652500Y2735189D01*
Y2764811D01*
X5644833Y2793423D01*
X5630023Y2819077D01*
X5609077Y2840023D01*
X5583423Y2854833D01*
X5554811Y2862500D01*
D02*
G37*
G36*
X241935Y2255796D02*
X200260D01*
Y2191620D01*
X277136D01*
Y2220595D01*
X274457Y2234066D01*
X266826Y2245486D01*
X255406Y2253117D01*
X241935Y2255796D01*
D02*
G37*
G36*
X150260D02*
X108585D01*
X95114Y2253117D01*
X83694Y2245486D01*
X76063Y2234066D01*
X73384Y2220595D01*
Y2191620D01*
X150260D01*
Y2255796D01*
D02*
G37*
G36*
X277136Y2141620D02*
X200260D01*
Y2077444D01*
X241935D01*
X255406Y2080123D01*
X266826Y2087754D01*
X274457Y2099174D01*
X277136Y2112645D01*
Y2141620D01*
D02*
G37*
G36*
X150260D02*
X73384D01*
Y2112645D01*
X76063Y2099174D01*
X83694Y2087754D01*
X95114Y2080123D01*
X108585Y2077444D01*
X150260D01*
Y2141620D01*
D02*
G37*
G36*
X470535Y2250698D02*
X337185D01*
X325665Y2248407D01*
X315899Y2241881D01*
X309373Y2232115D01*
X307082Y2220595D01*
Y2112645D01*
X309373Y2101125D01*
X315899Y2091359D01*
X325665Y2084833D01*
X337185Y2082542D01*
X370714D01*
Y1966309D01*
X358014Y1963783D01*
X355512Y1969823D01*
X343491Y1985491D01*
X327823Y1997512D01*
X309579Y2005069D01*
X290000Y2007647D01*
X275000D01*
Y1932000D01*
Y1856353D01*
X290000D01*
X309579Y1858930D01*
X327823Y1866488D01*
X343491Y1878509D01*
X355512Y1894177D01*
X358014Y1900217D01*
X370714Y1897691D01*
Y1803400D01*
X373431Y1789744D01*
X381166Y1778166D01*
X552406Y1606927D01*
X551569Y1598431D01*
X526569Y1573431D01*
X519386Y1562681D01*
X516863Y1550000D01*
Y1500000D01*
X519386Y1487319D01*
X526569Y1476569D01*
X551569Y1451569D01*
X562319Y1444386D01*
X575000Y1441864D01*
X648000D01*
Y1360686D01*
X563000D01*
X549344Y1357969D01*
X537767Y1350234D01*
X381166Y1193634D01*
X373431Y1182056D01*
X370714Y1168400D01*
Y1102309D01*
X358014Y1099783D01*
X355512Y1105824D01*
X343491Y1121491D01*
X327823Y1133512D01*
X309579Y1141070D01*
X290000Y1143647D01*
X275000D01*
Y1068000D01*
Y992353D01*
X290000D01*
X309579Y994931D01*
X327823Y1002488D01*
X343491Y1014510D01*
X355512Y1030177D01*
X358014Y1036217D01*
X370714Y1033691D01*
Y896878D01*
X339725D01*
X328205Y894587D01*
X318439Y888061D01*
X311913Y878295D01*
X309622Y866775D01*
Y758825D01*
X311913Y747305D01*
X318439Y737539D01*
X328205Y731013D01*
X339725Y728722D01*
X473075D01*
X484595Y731013D01*
X494361Y737539D01*
X500887Y747305D01*
X503178Y758825D01*
Y866775D01*
X500887Y878295D01*
X494361Y888061D01*
X484595Y894587D01*
X473075Y896878D01*
X442086D01*
Y1153618D01*
X577782Y1289314D01*
X648000D01*
Y1269146D01*
X635300Y1260660D01*
X628443Y1263500D01*
X607557D01*
X588261Y1255508D01*
X573493Y1240739D01*
X565500Y1221443D01*
Y1200557D01*
X573493Y1181261D01*
X588261Y1166493D01*
X607557Y1158500D01*
X625521D01*
X632959Y1151587D01*
X635511Y1147681D01*
X634288Y1143647D01*
X613000D01*
X593421Y1141070D01*
X575176Y1133512D01*
X559509Y1121491D01*
X547488Y1105824D01*
X542176Y1093000D01*
X793824D01*
X788512Y1105824D01*
X783543Y1112300D01*
X789806Y1125000D01*
X808000D01*
Y1155000D01*
X725500D01*
Y1205000D01*
X808000D01*
Y1214118D01*
X968722D01*
X978665Y1210000D01*
X1002535D01*
X1024587Y1219134D01*
X1041466Y1236013D01*
X1050600Y1258065D01*
Y1281935D01*
X1041466Y1303987D01*
X1024587Y1320866D01*
X1002535Y1330000D01*
X999646D01*
X992773Y1342700D01*
X999800Y1359665D01*
Y1383534D01*
X1005365Y1391863D01*
X1554075D01*
X1724769Y1221169D01*
X1735519Y1213986D01*
X1748200Y1211463D01*
X2106328D01*
X2107274Y1207932D01*
X2119781Y1186269D01*
X2137469Y1168581D01*
X2159132Y1156074D01*
X2183293Y1149600D01*
X2208307D01*
X2232468Y1156074D01*
X2254131Y1168581D01*
X2271819Y1186269D01*
X2284326Y1207932D01*
X2285272Y1211463D01*
X2643400D01*
X2656081Y1213986D01*
X2666831Y1221169D01*
X2712526Y1266863D01*
X3602000D01*
Y1261000D01*
X3792000D01*
Y1391000D01*
X3677824D01*
X3671518Y1398352D01*
X3669715Y1401973D01*
X3675511Y1411000D01*
X3792000D01*
Y1541000D01*
X3602000D01*
Y1433137D01*
X2285110D01*
X2275419Y1445837D01*
X2279400Y1460693D01*
Y1485707D01*
X2272926Y1509868D01*
X2260419Y1531531D01*
X2242731Y1549219D01*
X2221068Y1561726D01*
X2196907Y1568200D01*
X2171893D01*
X2147732Y1561726D01*
X2126069Y1549219D01*
X2108381Y1531531D01*
X2095874Y1509868D01*
X2094928Y1506337D01*
X1084049D01*
X1075000Y1508137D01*
X911192D01*
X906332Y1519870D01*
X927015Y1540552D01*
X927865Y1540200D01*
X951735D01*
X973787Y1549334D01*
X990666Y1566213D01*
X999800Y1588265D01*
Y1612135D01*
X990666Y1634187D01*
X973787Y1651066D01*
X951735Y1660200D01*
X927865D01*
X905813Y1651066D01*
X888934Y1634187D01*
X879800Y1612135D01*
Y1588265D01*
X880152Y1587415D01*
X850875Y1558137D01*
X803000D01*
Y1694119D01*
X1019129D01*
X1029293Y1683954D01*
X1051345Y1674820D01*
X1075215D01*
X1078530Y1676193D01*
X1160480D01*
Y1544020D01*
X1440480D01*
Y1824020D01*
X1160480D01*
Y1793447D01*
X1078530D01*
X1075215Y1794820D01*
X1051345D01*
X1029766Y1785882D01*
X808000D01*
Y1795000D01*
X725500D01*
Y1845000D01*
X808000D01*
Y1875000D01*
X789806D01*
X783543Y1887700D01*
X788512Y1894177D01*
X793824Y1907000D01*
X542176D01*
X547488Y1894177D01*
X559509Y1878509D01*
X575176Y1866488D01*
X593421Y1858930D01*
X613000Y1856353D01*
X634288D01*
X635511Y1852319D01*
X632959Y1848413D01*
X625521Y1841500D01*
X607557D01*
X588261Y1833507D01*
X573493Y1818739D01*
X565500Y1799443D01*
Y1778557D01*
X573493Y1759261D01*
X588261Y1744493D01*
X607557Y1736500D01*
X628443D01*
X635300Y1739340D01*
X648000Y1730854D01*
Y1660686D01*
X599581D01*
X442086Y1818182D01*
Y2082542D01*
X470535D01*
X482055Y2084833D01*
X491821Y2091359D01*
X498347Y2101125D01*
X500638Y2112645D01*
Y2220595D01*
X498347Y2232115D01*
X491821Y2241881D01*
X482055Y2248407D01*
X470535Y2250698D01*
D02*
G37*
G36*
X3792000Y1991000D02*
X3602000D01*
Y1958627D01*
X3324453D01*
X3323087Y1965495D01*
X3316561Y1975261D01*
X3306795Y1981787D01*
X3295275Y1984078D01*
X3161925D01*
X3150405Y1981787D01*
X3140639Y1975261D01*
X3134113Y1965495D01*
X3131822Y1953975D01*
Y1846025D01*
X3134113Y1834505D01*
X3140639Y1824739D01*
X3150405Y1818213D01*
X3161925Y1815922D01*
X3169974D01*
Y1712500D01*
X3141500D01*
Y1487500D01*
X3366500D01*
Y1712500D01*
X3287227D01*
Y1815922D01*
X3295275D01*
X3306795Y1818213D01*
X3316561Y1824739D01*
X3323087Y1834505D01*
X3324453Y1841374D01*
X3589455D01*
X3602000Y1841000D01*
X3602000Y1828673D01*
Y1711000D01*
X3792000D01*
Y1841000D01*
X3710536D01*
X3706726Y1852734D01*
X3711560Y1857947D01*
X3712455Y1858545D01*
X3713332Y1859857D01*
X3714392Y1861000D01*
X3792000D01*
Y1991000D01*
D02*
G37*
G36*
X723000Y2007647D02*
X693000D01*
Y1957000D01*
X793824D01*
X788512Y1969823D01*
X776491Y1985491D01*
X760824Y1997512D01*
X742579Y2005069D01*
X723000Y2007647D01*
D02*
G37*
G36*
X643000D02*
X613000D01*
X593421Y2005069D01*
X575176Y1997512D01*
X559509Y1985491D01*
X547488Y1969823D01*
X542176Y1957000D01*
X643000D01*
Y2007647D01*
D02*
G37*
G36*
X225000D02*
X210000D01*
X190421Y2005069D01*
X172177Y1997512D01*
X156509Y1985491D01*
X144488Y1969823D01*
X139176Y1957000D01*
X225000D01*
Y2007647D01*
D02*
G37*
G36*
X5547000Y1996000D02*
X5472000D01*
Y1950999D01*
X5547000D01*
Y1996000D01*
D02*
G37*
G36*
X225000Y1907000D02*
X139176D01*
X144488Y1894177D01*
X156509Y1878509D01*
X172177Y1866488D01*
X190421Y1858930D01*
X210000Y1856353D01*
X225000D01*
Y1907000D01*
D02*
G37*
G36*
X5547000Y1900999D02*
X5472000D01*
Y1856000D01*
X5547000D01*
Y1900999D01*
D02*
G37*
G36*
X6570811Y2862500D02*
X6541189D01*
X6512577Y2854833D01*
X6486924Y2840023D01*
X6465978Y2819077D01*
X6451167Y2793423D01*
X6443500Y2764811D01*
Y2735189D01*
X6451167Y2706577D01*
X6465978Y2680924D01*
X6486924Y2659978D01*
X6510119Y2646586D01*
Y2513545D01*
X5818455Y1821882D01*
X5542000D01*
Y1841000D01*
X5354482D01*
Y1856000D01*
X5422001D01*
Y1925999D01*
Y1996000D01*
X5382020D01*
X5377159Y2007733D01*
X5826443Y2457017D01*
X5836389Y2471902D01*
X5839882Y2489460D01*
Y2646586D01*
X5863077Y2659978D01*
X5884023Y2680924D01*
X5898833Y2706577D01*
X5906500Y2735189D01*
Y2764811D01*
X5898833Y2793423D01*
X5884023Y2819077D01*
X5863077Y2840023D01*
X5837423Y2854833D01*
X5808811Y2862500D01*
X5779189D01*
X5750577Y2854833D01*
X5724924Y2840023D01*
X5703978Y2819077D01*
X5689167Y2793423D01*
X5681500Y2764811D01*
Y2735189D01*
X5689167Y2706577D01*
X5703978Y2680924D01*
X5724924Y2659978D01*
X5748119Y2646586D01*
Y2508465D01*
X5276157Y2036503D01*
X5266211Y2021618D01*
X5262718Y2004060D01*
Y1386840D01*
X5266211Y1369282D01*
X5276157Y1354397D01*
X5316997Y1313557D01*
X5331882Y1303611D01*
X5349440Y1300119D01*
X5352000D01*
Y1261000D01*
X5542000D01*
Y1391000D01*
X5431433D01*
X5427000Y1391882D01*
X5372201D01*
X5367199Y1398337D01*
X5372918Y1411000D01*
X5542000D01*
Y1541000D01*
X5354482D01*
Y1561000D01*
X5542000D01*
Y1580119D01*
X5588400D01*
X5605958Y1583611D01*
X5620843Y1593557D01*
X5658926Y1631640D01*
X5665975D01*
X5688027Y1640774D01*
X5704906Y1657653D01*
X5714040Y1679705D01*
Y1703575D01*
X5708306Y1717418D01*
X5716792Y1730118D01*
X5837460D01*
X5855018Y1733611D01*
X5869903Y1743557D01*
X6588443Y2462097D01*
X6598389Y2476982D01*
X6601882Y2494540D01*
Y2646586D01*
X6625077Y2659978D01*
X6646023Y2680924D01*
X6660833Y2706577D01*
X6668500Y2735189D01*
Y2764811D01*
X6660833Y2793423D01*
X6646023Y2819077D01*
X6625077Y2840023D01*
X6599423Y2854833D01*
X6570811Y2862500D01*
D02*
G37*
G36*
X3025000Y1714946D02*
Y1625000D01*
X3114946D01*
X3109493Y1645353D01*
X3094024Y1672147D01*
X3072147Y1694024D01*
X3045353Y1709493D01*
X3025000Y1714946D01*
D02*
G37*
G36*
X2975000Y1714946D02*
X2954647Y1709493D01*
X2927853Y1694024D01*
X2905977Y1672147D01*
X2890508Y1645353D01*
X2885054Y1625000D01*
X2975000D01*
Y1714946D01*
D02*
G37*
G36*
X3792000Y1691000D02*
X3602000D01*
Y1561000D01*
X3792000D01*
Y1691000D01*
D02*
G37*
G36*
X2975000Y1575000D02*
X2885054D01*
X2890508Y1554647D01*
X2905977Y1527853D01*
X2927853Y1505977D01*
X2954647Y1490508D01*
X2975000Y1485054D01*
Y1575000D01*
D02*
G37*
G36*
X3114946D02*
X3025000D01*
Y1485054D01*
X3045353Y1490508D01*
X3072147Y1505977D01*
X3094024Y1527853D01*
X3109493Y1554647D01*
X3114946Y1575000D01*
D02*
G37*
G36*
X4646000Y1516000D02*
X4611000D01*
Y1481000D01*
X4646000D01*
Y1516000D01*
D02*
G37*
G36*
X4340999D02*
X4306000D01*
Y1481000D01*
X4340999D01*
Y1516000D01*
D02*
G37*
G36*
X4561001D02*
X4501000D01*
Y1456000D01*
X4451000D01*
Y1516000D01*
X4390999D01*
Y1456000D01*
X4365999D01*
Y1431000D01*
X4306000D01*
Y1396000D01*
Y1371000D01*
X4365999D01*
Y1321000D01*
X4306000D01*
Y1286000D01*
Y1261000D01*
X4365999D01*
Y1236000D01*
X4390999D01*
Y1176000D01*
X4451000D01*
Y1236000D01*
X4501000D01*
Y1176000D01*
X4561001D01*
Y1236000D01*
X4586000D01*
Y1261000D01*
X4646000D01*
Y1286000D01*
Y1321000D01*
X4586000D01*
Y1371000D01*
X4646000D01*
Y1396000D01*
Y1431000D01*
X4586000D01*
Y1456000D01*
X4561001D01*
Y1516000D01*
D02*
G37*
G36*
X5046811Y2862500D02*
X5017189D01*
X4988577Y2854833D01*
X4962924Y2840023D01*
X4941978Y2819077D01*
X4927167Y2793423D01*
X4919500Y2764811D01*
Y2735189D01*
X4927167Y2706577D01*
X4941978Y2680924D01*
X4962924Y2659978D01*
X4986119Y2646586D01*
Y2452585D01*
X4122997Y1589463D01*
X4113051Y1574578D01*
X4109558Y1557020D01*
Y1443945D01*
X3887495Y1221881D01*
X3792000D01*
Y1241000D01*
X3602000D01*
Y1111000D01*
X3792000D01*
Y1130118D01*
X3906500D01*
X3924058Y1133611D01*
X3938943Y1143557D01*
X4187883Y1392497D01*
X4197829Y1407382D01*
X4201322Y1424940D01*
Y1538015D01*
X5064443Y2401137D01*
X5074389Y2416022D01*
X5077882Y2433580D01*
Y2646586D01*
X5101077Y2659978D01*
X5122023Y2680924D01*
X5136833Y2706577D01*
X5144500Y2735189D01*
Y2764811D01*
X5136833Y2793423D01*
X5122023Y2819077D01*
X5101077Y2840023D01*
X5075423Y2854833D01*
X5046811Y2862500D01*
D02*
G37*
G36*
X4646000Y1211000D02*
X4611000D01*
Y1176000D01*
X4646000D01*
Y1211000D01*
D02*
G37*
G36*
X4340999D02*
X4306000D01*
Y1176000D01*
X4340999D01*
Y1211000D01*
D02*
G37*
G36*
X225000Y1143647D02*
X210000D01*
X190421Y1141070D01*
X172177Y1133512D01*
X156509Y1121491D01*
X144488Y1105824D01*
X139176Y1093000D01*
X225000D01*
Y1143647D01*
D02*
G37*
G36*
X793824Y1043000D02*
X693000D01*
Y992353D01*
X723000D01*
X742579Y994931D01*
X760824Y1002488D01*
X776491Y1014510D01*
X788512Y1030177D01*
X793824Y1043000D01*
D02*
G37*
G36*
X643000D02*
X542176D01*
X547488Y1030177D01*
X559509Y1014510D01*
X575176Y1002488D01*
X593421Y994931D01*
X613000Y992353D01*
X643000D01*
Y1043000D01*
D02*
G37*
G36*
X225000D02*
X139176D01*
X144488Y1030177D01*
X156509Y1014510D01*
X172177Y1002488D01*
X190421Y994931D01*
X210000Y992353D01*
X225000D01*
Y1043000D01*
D02*
G37*
G36*
X1666900Y1082700D02*
X1574400D01*
Y990200D01*
X1666900D01*
Y1082700D01*
D02*
G37*
G36*
X1524400D02*
X1431900D01*
Y990200D01*
X1524400D01*
Y1082700D01*
D02*
G37*
G36*
X6045007Y1047500D02*
X6019993D01*
X5995832Y1041026D01*
X5974169Y1028519D01*
X5956481Y1010831D01*
X5945979Y992641D01*
X5930240D01*
X5912682Y989149D01*
X5897797Y979203D01*
X5840475Y921882D01*
X5542000D01*
Y941000D01*
X5458612D01*
X5457695Y941380D01*
X5433825D01*
X5432908Y941000D01*
X5352000D01*
Y811000D01*
X5542000D01*
Y830118D01*
X5859480D01*
X5877038Y833611D01*
X5891923Y843557D01*
X5942080Y893713D01*
X5956481Y894169D01*
X5974169Y876481D01*
X5995832Y863974D01*
X6019993Y857500D01*
X6045007D01*
X6069168Y863974D01*
X6090831Y876481D01*
X6108519Y894169D01*
X6121026Y915832D01*
X6127500Y939993D01*
Y965007D01*
X6121026Y989168D01*
X6108519Y1010831D01*
X6090831Y1028519D01*
X6069168Y1041026D01*
X6045007Y1047500D01*
D02*
G37*
G36*
X1310211Y1077700D02*
X1280589D01*
X1251977Y1070033D01*
X1226323Y1055222D01*
X1205378Y1034277D01*
X1190567Y1008623D01*
X1182900Y980011D01*
Y950389D01*
X1190567Y921777D01*
X1205378Y896123D01*
X1226323Y875178D01*
X1251977Y860367D01*
X1280589Y852700D01*
X1310211D01*
X1338823Y860367D01*
X1364477Y875178D01*
X1385422Y896123D01*
X1400233Y921777D01*
X1407900Y950389D01*
Y980011D01*
X1400233Y1008623D01*
X1385422Y1034277D01*
X1364477Y1055222D01*
X1338823Y1070033D01*
X1310211Y1077700D01*
D02*
G37*
G36*
X1056211D02*
X1026589D01*
X997977Y1070033D01*
X972323Y1055222D01*
X951378Y1034277D01*
X936567Y1008623D01*
X928900Y980011D01*
Y950389D01*
X936567Y921777D01*
X951378Y896123D01*
X972323Y875178D01*
X997977Y860367D01*
X1026589Y852700D01*
X1056211D01*
X1084823Y860367D01*
X1110477Y875178D01*
X1131422Y896123D01*
X1146233Y921777D01*
X1153900Y950389D01*
Y980011D01*
X1146233Y1008623D01*
X1131422Y1034277D01*
X1110477Y1055222D01*
X1084823Y1070033D01*
X1056211Y1077700D01*
D02*
G37*
G36*
X1666900Y940200D02*
X1574400D01*
Y847700D01*
X1666900D01*
Y940200D01*
D02*
G37*
G36*
X1524400D02*
X1431900D01*
Y847700D01*
X1524400D01*
Y940200D01*
D02*
G37*
G36*
X244475Y901976D02*
X202800D01*
Y837800D01*
X279676D01*
Y866775D01*
X276997Y880246D01*
X269366Y891666D01*
X257946Y899297D01*
X244475Y901976D01*
D02*
G37*
G36*
X152800D02*
X111125D01*
X97654Y899297D01*
X86234Y891666D01*
X78603Y880246D01*
X75924Y866775D01*
Y837800D01*
X152800D01*
Y901976D01*
D02*
G37*
G36*
X3792000Y941000D02*
X3602000D01*
Y811000D01*
X3792000D01*
Y941000D01*
D02*
G37*
G36*
X279676Y787800D02*
X202800D01*
Y723624D01*
X244475D01*
X257946Y726303D01*
X269366Y733934D01*
X276997Y745354D01*
X279676Y758825D01*
Y787800D01*
D02*
G37*
G36*
X152800D02*
X75924D01*
Y758825D01*
X78603Y745354D01*
X86234Y733934D01*
X97654Y726303D01*
X111125Y723624D01*
X152800D01*
Y787800D01*
D02*
G37*
G36*
X2808500Y738516D02*
X2791000D01*
Y662880D01*
X2841636D01*
Y705380D01*
X2839114Y718061D01*
X2831931Y728811D01*
X2821181Y735994D01*
X2808500Y738516D01*
D02*
G37*
G36*
X2741000D02*
X2723500D01*
X2710819Y735994D01*
X2700069Y728811D01*
X2692886Y718061D01*
X2690363Y705380D01*
Y662880D01*
X2741000D01*
Y738516D01*
D02*
G37*
G36*
X2237000D02*
X2219500D01*
Y662880D01*
X2270136D01*
Y705380D01*
X2267614Y718061D01*
X2260431Y728811D01*
X2249681Y735994D01*
X2237000Y738516D01*
D02*
G37*
G36*
X2169500D02*
X2152000D01*
X2139319Y735994D01*
X2128569Y728811D01*
X2121386Y718061D01*
X2118863Y705380D01*
Y662880D01*
X2169500D01*
Y738516D01*
D02*
G37*
G36*
X1665500D02*
X1648000D01*
Y662880D01*
X1698636D01*
Y705380D01*
X1696114Y718061D01*
X1688931Y728811D01*
X1678181Y735994D01*
X1665500Y738516D01*
D02*
G37*
G36*
X1598000D02*
X1580500D01*
X1567819Y735994D01*
X1557069Y728811D01*
X1549886Y718061D01*
X1547363Y705380D01*
Y662880D01*
X1598000D01*
Y738516D01*
D02*
G37*
G36*
X1094000D02*
X1076500D01*
Y662880D01*
X1127136D01*
Y705380D01*
X1124614Y718061D01*
X1117431Y728811D01*
X1106681Y735994D01*
X1094000Y738516D01*
D02*
G37*
G36*
X1026500D02*
X1009000D01*
X996319Y735994D01*
X985569Y728811D01*
X978386Y718061D01*
X975863Y705380D01*
Y662880D01*
X1026500D01*
Y738516D01*
D02*
G37*
G36*
X6057500Y731829D02*
Y660000D01*
X6129329D01*
X6125685Y673598D01*
X6112520Y696401D01*
X6093901Y715020D01*
X6071098Y728185D01*
X6057500Y731829D01*
D02*
G37*
G36*
X6007500D02*
X5993902Y728185D01*
X5971099Y715020D01*
X5952480Y696401D01*
X5939315Y673598D01*
X5935671Y660000D01*
X6007500D01*
Y731829D01*
D02*
G37*
G36*
X6129329Y610000D02*
X6057500D01*
Y538171D01*
X6071098Y541815D01*
X6093901Y554980D01*
X6112520Y573599D01*
X6125685Y596402D01*
X6129329Y610000D01*
D02*
G37*
G36*
X2841636Y612880D02*
X2791000D01*
Y537243D01*
X2808500D01*
X2821181Y539766D01*
X2831931Y546949D01*
X2839114Y557699D01*
X2841636Y570380D01*
Y612880D01*
D02*
G37*
G36*
X2741000D02*
X2690363D01*
Y570380D01*
X2692886Y557699D01*
X2700069Y546949D01*
X2710819Y539766D01*
X2723500Y537243D01*
X2741000D01*
Y612880D01*
D02*
G37*
G36*
X1698636D02*
X1648000D01*
Y537243D01*
X1665500D01*
X1678181Y539766D01*
X1688931Y546949D01*
X1696114Y557699D01*
X1698636Y570380D01*
Y612880D01*
D02*
G37*
G36*
X1598000D02*
X1547363D01*
Y570380D01*
X1549886Y557699D01*
X1557069Y546949D01*
X1567819Y539766D01*
X1580500Y537243D01*
X1598000D01*
Y612880D01*
D02*
G37*
G36*
X1127136D02*
X1076500D01*
Y537243D01*
X1094000D01*
X1106681Y539766D01*
X1117431Y546949D01*
X1124614Y557699D01*
X1127136Y570380D01*
Y612880D01*
D02*
G37*
G36*
X1026500D02*
X975863D01*
Y570380D01*
X978386Y557699D01*
X985569Y546949D01*
X996319Y539766D01*
X1009000Y537243D01*
X1026500D01*
Y612880D01*
D02*
G37*
G36*
X6007500Y610000D02*
X5935671D01*
X5937138Y604525D01*
X5856015Y523402D01*
X5786396D01*
Y544195D01*
X5783717Y557666D01*
X5776086Y569086D01*
X5764666Y576717D01*
X5751195Y579396D01*
X5722220D01*
Y477520D01*
Y375644D01*
X5751195D01*
X5764666Y378323D01*
X5776086Y385954D01*
X5783717Y397374D01*
X5786396Y410845D01*
Y431638D01*
X5875020D01*
X5892578Y435131D01*
X5907463Y445077D01*
X6002025Y539638D01*
X6007500Y538171D01*
Y610000D01*
D02*
G37*
G36*
X5672220Y579396D02*
X5643245D01*
X5629774Y576717D01*
X5618354Y569086D01*
X5610723Y557666D01*
X5608044Y544195D01*
Y502520D01*
X5672220D01*
Y579396D01*
D02*
G37*
G36*
X3403200Y510562D02*
Y403285D01*
X3459395D01*
Y433785D01*
X3456628Y454800D01*
X3448517Y474382D01*
X3435613Y491198D01*
X3418797Y504102D01*
X3403200Y510562D01*
D02*
G37*
G36*
X5672220Y452520D02*
X5608044D01*
Y410845D01*
X5610723Y397374D01*
X5618354Y385954D01*
X5629774Y378323D01*
X5643245Y375644D01*
X5672220D01*
Y452520D01*
D02*
G37*
G36*
X6675000Y624468D02*
Y375000D01*
X6924468D01*
X6918228Y414396D01*
X6904852Y455563D01*
X6885201Y494132D01*
X6859758Y529151D01*
X6829150Y559758D01*
X6794131Y585201D01*
X6755563Y604852D01*
X6714396Y618229D01*
X6675000Y624468D01*
D02*
G37*
G36*
X6625000D02*
X6585604Y618229D01*
X6544436Y604852D01*
X6505868Y585201D01*
X6470849Y559758D01*
X6440242Y529151D01*
X6414799Y494132D01*
X6395147Y455563D01*
X6381771Y414396D01*
X6375532Y375000D01*
X6625000D01*
Y624468D01*
D02*
G37*
G36*
X3459395Y353285D02*
X3403200D01*
Y246008D01*
X3418797Y252468D01*
X3435613Y265372D01*
X3448517Y282188D01*
X3456628Y301770D01*
X3459395Y322785D01*
Y353285D01*
D02*
G37*
G36*
X6924468Y325000D02*
X6675000D01*
Y75532D01*
X6714396Y81771D01*
X6755563Y95148D01*
X6794131Y114799D01*
X6829150Y140242D01*
X6859758Y170850D01*
X6885201Y205869D01*
X6904852Y244437D01*
X6918228Y285604D01*
X6924468Y325000D01*
D02*
G37*
G36*
X6625000D02*
X6375532D01*
X6381771Y285604D01*
X6395147Y244437D01*
X6414799Y205869D01*
X6440242Y170850D01*
X6470849Y140242D01*
X6505868Y114799D01*
X6544436Y95148D01*
X6585604Y81771D01*
X6625000Y75532D01*
Y325000D01*
D02*
G37*
%LPD*%
G36*
X2618740Y2354580D02*
Y1892340D01*
X2436000Y1709600D01*
X2428560Y1717040D01*
X2341880D01*
Y2115820D01*
Y2125980D01*
Y2136140D01*
Y2250440D01*
X2448560Y2357120D01*
X2616200D01*
X2618740Y2354580D01*
D02*
G37*
G36*
X2235200Y2153920D02*
Y1714500D01*
X2140900D01*
X2136000Y1709600D01*
X2123440Y1722160D01*
Y2199640D01*
X2189480D01*
X2235200Y2153920D01*
D02*
G37*
D10*
X3000000Y1900000D02*
D03*
X3228600D02*
D03*
X403860Y2166620D02*
D03*
X175260D02*
D03*
X406400Y812800D02*
D03*
X177800D02*
D03*
D11*
X4586000Y1456000D02*
D03*
X4476000D02*
D03*
X4366000D02*
D03*
Y1236000D02*
D03*
X4476000D02*
D03*
X4586000D02*
D03*
Y1346000D02*
D03*
X4366000D02*
D03*
X4476000D02*
D03*
D12*
X3697000Y726000D02*
D03*
Y876000D02*
D03*
Y1026000D02*
D03*
Y1176000D02*
D03*
Y1326000D02*
D03*
Y1476000D02*
D03*
Y1626000D02*
D03*
Y1776000D02*
D03*
Y1926000D02*
D03*
X5447000D02*
D03*
Y1776000D02*
D03*
Y1626000D02*
D03*
Y1476000D02*
D03*
Y1326000D02*
D03*
Y1176000D02*
D03*
Y1026000D02*
D03*
Y876000D02*
D03*
Y726000D02*
D03*
D13*
X5697220Y477520D02*
D03*
Y706120D02*
D03*
D14*
X1051500Y637880D02*
D03*
Y147880D02*
D03*
X731500Y637880D02*
D03*
Y147880D02*
D03*
X1874500D02*
D03*
Y637880D02*
D03*
X2194500Y147880D02*
D03*
Y637880D02*
D03*
X1623000D02*
D03*
Y147880D02*
D03*
X1303000Y637880D02*
D03*
Y147880D02*
D03*
X2446000D02*
D03*
Y637880D02*
D03*
X2766000Y147880D02*
D03*
Y637880D02*
D03*
D15*
X2176000Y1879600D02*
D03*
X2396000D02*
D03*
D16*
X2009300Y2285200D02*
D03*
Y2235200D02*
D03*
Y2185200D02*
D03*
X2156300D02*
D03*
Y2235200D02*
D03*
Y2285200D02*
D03*
D17*
X2012950Y2540000D02*
D03*
X2152650D02*
D03*
Y2794000D02*
D03*
X2012950D02*
D03*
D18*
X1740480Y1684020D02*
D03*
X1300480D02*
D03*
D19*
X2540000Y2240800D02*
D03*
Y2590800D02*
D03*
X1625600Y2534400D02*
D03*
Y2184400D02*
D03*
D20*
X725500Y1675000D02*
D03*
Y1625000D02*
D03*
Y1575000D02*
D03*
Y1325000D02*
D03*
Y1375000D02*
D03*
Y1425000D02*
D03*
Y1525000D02*
D03*
Y1475000D02*
D03*
D21*
Y1260000D02*
D03*
Y1740000D02*
D03*
Y1180000D02*
D03*
Y1820000D02*
D03*
D22*
X3228600Y1625400D02*
Y1900000D01*
X3671000D01*
X2603500Y1905000D02*
X2604853D01*
X2609853Y1900000D02*
X3000000D01*
X2604853Y1905000D02*
X2609853Y1900000D01*
X1763900Y2271900D02*
X1803400Y2311400D01*
X2717800Y2915000D02*
X2717800Y2915000D01*
X1873600Y2915000D02*
X2717800D01*
X1803400Y2844800D02*
X1873600Y2915000D01*
X1803400Y2311400D02*
Y2844800D01*
X1662300Y2271900D02*
X1763900D01*
X1651000Y2260600D02*
X1662300Y2271900D01*
X1625600Y2229400D02*
X1651000Y2254800D01*
Y2260600D01*
X1625600Y2184400D02*
Y2229400D01*
X4756953Y2771048D02*
X4778000Y2750000D01*
X3508000D02*
X3529048Y2771048D01*
X2603500Y1905000D02*
X2626360Y1882140D01*
X2405380Y2103120D02*
X2603500Y1905000D01*
X5454500Y718500D02*
X5684840D01*
X5697220Y706120D01*
X5447000Y726000D02*
X5454500Y718500D01*
X1051500Y147880D02*
Y299660D01*
X1117600Y365760D01*
X1287900Y229314D02*
X1290500Y226714D01*
X1287900Y229314D02*
Y336880D01*
X1290500Y160380D02*
Y226714D01*
Y160380D02*
X1303000Y147880D01*
X703700Y229314D02*
Y386814D01*
X719000Y160380D02*
X731500Y147880D01*
X719000Y160380D02*
Y214014D01*
X703700Y229314D02*
X719000Y214014D01*
X1657980Y1766520D02*
X1740480Y1684020D01*
X1657980Y1766520D02*
Y1914520D01*
X1625600Y1946900D02*
X1657980Y1914520D01*
X1625600Y1946900D02*
Y2184400D01*
X5319717Y628717D02*
X5417000Y726000D01*
X5318760Y596900D02*
X5319717Y597857D01*
X5417000Y726000D02*
X5447000D01*
X5319717Y597857D02*
Y628717D01*
X2626360Y1656080D02*
Y1882140D01*
X2625403Y1657037D02*
X2626360Y1656080D01*
X2396000Y1784600D02*
Y1879600D01*
X1063280Y1734820D02*
X1249680D01*
X1874500Y122880D02*
Y147880D01*
X1846700Y335527D02*
Y336880D01*
X2430900Y341527D02*
Y342880D01*
Y341527D02*
X2433500Y338927D01*
Y160380D02*
Y338927D01*
Y160380D02*
X2446000Y147880D01*
X1846700Y335527D02*
X1874500Y307727D01*
Y147880D02*
Y307727D01*
D23*
X3228600Y1625400D02*
X3254000Y1600000D01*
X3671000Y1900000D02*
X3697000Y1926000D01*
X3667822Y1476000D02*
X3697000D01*
X3635322Y1414645D02*
Y1443500D01*
X3620678Y1400000D02*
X3635322Y1414645D01*
X2257600Y1400000D02*
X3620678D01*
X2184400Y1473200D02*
X2257600Y1400000D01*
X3635322Y1443500D02*
X3667822Y1476000D01*
X1076800Y1473200D02*
X2184400D01*
X3671000Y1300000D02*
X3697000Y1326000D01*
X2643400Y1244600D02*
X2698800Y1300000D01*
X3671000D01*
X2195800Y1244600D02*
X2643400D01*
X1748200D02*
X2195800D01*
X939800Y1425000D02*
X1567800D01*
X1748200Y1244600D01*
X725500Y1425000D02*
X939800D01*
Y1371600D02*
Y1425000D01*
X864600Y1525000D02*
X939800Y1600200D01*
X725500Y1525000D02*
X864600D01*
X725500Y1475000D02*
X1075000D01*
X575000D02*
X725500D01*
X1075000D02*
X1076800Y1473200D01*
X550000Y1500000D02*
X575000Y1475000D01*
X550000Y1500000D02*
Y1550000D01*
X575000Y1575000D01*
X725500D01*
X3696000Y876000D02*
X3697000D01*
X3695700Y876300D02*
X3696000Y876000D01*
D24*
X5447000Y1776000D02*
X5837460D01*
X6556000Y2494540D02*
Y2750000D01*
X5837460Y1776000D02*
X6556000Y2494540D01*
X1045882Y1740000D02*
X1058682Y1727200D01*
X1066800D01*
X5697220Y477520D02*
X5875020D01*
X6032500Y635000D01*
X6026760Y946760D02*
X6032500Y952500D01*
X5859480Y876000D02*
X5930240Y946760D01*
X6026760D01*
X5451140Y876000D02*
X5859480D01*
X5445760Y881380D02*
X5451140Y876000D01*
X5588400Y1626000D02*
X5654040Y1691640D01*
X5447000Y1626000D02*
X5588400D01*
X1573000Y197880D02*
X1598000D01*
X899500Y469880D02*
X1301000D01*
X1598000Y197880D02*
X1623000Y172880D01*
X1301000Y469880D02*
X1573000Y197880D01*
X781500Y587880D02*
X899500Y469880D01*
X731500Y612880D02*
X756500Y587880D01*
X731500Y612880D02*
Y637880D01*
X756500Y587880D02*
X781500D01*
X4155440Y1424940D02*
Y1557020D01*
X5032000Y2433580D01*
Y2750000D01*
X3906500Y1176000D02*
X4155440Y1424940D01*
X3697000Y1176000D02*
X3906500D01*
X5095240Y1216660D02*
Y2075180D01*
X5115560Y2098040D02*
X5286000Y2268480D01*
X5095240Y1216660D02*
X5285900Y1026000D01*
X5095240Y2075180D02*
X5115560Y2095500D01*
Y2098040D01*
X5285900Y1026000D02*
X5447000D01*
X5286000Y2268480D02*
Y2750000D01*
X5202310Y2047630D02*
X5540000Y2385320D01*
Y2750000D01*
X5202310Y1295010D02*
Y2047630D01*
Y1295010D02*
X5321320Y1176000D01*
X5349440Y1346000D02*
X5427000D01*
X5308600Y1386840D02*
X5349440Y1346000D01*
X5308600Y1386840D02*
Y2004060D01*
X5427000Y1346000D02*
X5447000Y1326000D01*
X5308600Y2004060D02*
X5794000Y2489460D01*
X5321320Y1176000D02*
X5447000D01*
X5794000Y2489460D02*
Y2750000D01*
X5444200Y1473200D02*
X5447000Y1476000D01*
X5440680Y1473200D02*
X5444200D01*
X1249680Y1734820D02*
X1300480Y1684020D01*
X972482Y1260000D02*
X982482Y1270000D01*
X990600D01*
X725500Y1260000D02*
X972482D01*
X3487420Y2387600D02*
X3754120Y2120900D01*
X3098800Y2387600D02*
X3487420D01*
X3251200Y546100D02*
X3431100Y726000D01*
X3697000D01*
X3251200Y378285D02*
Y546100D01*
X2809120Y1026000D02*
X3697000D01*
X2446000Y662880D02*
X2809120Y1026000D01*
X2446000Y637880D02*
Y662880D01*
X2169500Y197880D02*
X2194500Y172880D01*
X1623000Y147880D02*
Y172880D01*
X1353000Y587880D02*
X1496400Y444480D01*
X1897900D01*
X2716000Y197880D02*
X2741000D01*
X2766000Y172880D01*
Y147880D02*
Y172880D01*
X2194500Y147880D02*
Y172880D01*
X2418600Y495280D02*
X2716000Y197880D01*
X2017100Y495280D02*
X2418600D01*
X1874500Y612880D02*
Y637880D01*
Y612880D02*
X1899500Y587880D01*
X1924500D01*
X2017100Y495280D01*
X1897900Y444480D02*
X2144500Y197880D01*
X2169500D01*
X1328000Y587880D02*
X1353000D01*
X1303000Y612880D02*
Y637880D01*
Y612880D02*
X1328000Y587880D01*
X725500Y1740000D02*
X1045882D01*
X3000000Y2486400D02*
Y2750000D01*
Y2486400D02*
X3098800Y2387600D01*
D25*
X4016000Y2750000D02*
X4270000D01*
X4016000D02*
Y2782953D01*
X2725300Y2922500D02*
X3876453D01*
X4016000Y2782953D01*
X2717800Y2915000D02*
X2725300Y2922500D01*
D26*
X2362200Y2791460D02*
X2364740Y2788920D01*
X2155190Y2791460D02*
X2362200D01*
X2156300Y2235200D02*
X2156800Y2234700D01*
X2266180D01*
X2268220Y2232660D01*
X2152650Y2794000D02*
X2155190Y2791460D01*
X2012950Y2540000D02*
Y2794000D01*
Y2285700D02*
Y2540000D01*
X2012450Y2285200D02*
X2012950Y2285700D01*
X2009300Y2285200D02*
X2012450D01*
X563000Y1325000D02*
X725500D01*
X406400Y1168400D02*
X563000Y1325000D01*
X406400Y812800D02*
Y1168400D01*
Y1803400D02*
Y2146300D01*
Y1803400D02*
X584800Y1625000D01*
X725500D01*
D27*
X3000000Y1600000D02*
D03*
X6556000Y2750000D02*
D03*
X6302000D02*
D03*
X4778000D02*
D03*
X4524000D02*
D03*
X4270000D02*
D03*
X4016000D02*
D03*
X3254000D02*
D03*
X3508000D02*
D03*
X3762000D02*
D03*
X5032000D02*
D03*
X5286000D02*
D03*
X5540000D02*
D03*
X5794000D02*
D03*
X6048000D02*
D03*
X1041400Y965200D02*
D03*
X1295400D02*
D03*
D28*
X3254000Y1600000D02*
D03*
X3000000Y2750000D02*
D03*
X1549400Y965200D02*
D03*
D29*
X4586000Y1401000D02*
D03*
X4476000D02*
D03*
X4531000Y1456000D02*
D03*
X4421000D02*
D03*
X4531000Y1346000D02*
D03*
X4586000Y1291000D02*
D03*
X4476000D02*
D03*
X4421000Y1346000D02*
D03*
X4531000Y1236000D02*
D03*
X4366000Y1401000D02*
D03*
Y1291000D02*
D03*
X4421000Y1236000D02*
D03*
D30*
X3124200Y378285D02*
D03*
X3251200D02*
D03*
X3378200D02*
D03*
D31*
X618000Y1789000D02*
D03*
Y1211000D02*
D03*
D32*
X668000Y1068000D02*
D03*
Y1932000D02*
D03*
D33*
X250000Y1068000D02*
D03*
Y1932000D02*
D03*
D34*
X350000Y2650000D02*
D03*
X6650000Y350000D02*
D03*
D35*
X2184400Y1473200D02*
D03*
X2195800Y1244600D02*
D03*
X6032500Y635000D02*
D03*
Y952500D02*
D03*
D36*
X939800Y1371600D02*
D03*
Y1600200D02*
D03*
X2364740Y2788920D02*
D03*
X2603500Y1905000D02*
D03*
X5654040Y1691640D02*
D03*
X1117600Y365760D02*
D03*
X703700Y386814D02*
D03*
X1287900Y336880D02*
D03*
X1740480Y1684020D02*
D03*
X1836420Y2153920D02*
D03*
X2268220Y2232660D02*
D03*
X5318760Y596900D02*
D03*
X2626360Y1656080D02*
D03*
X3695700Y876300D02*
D03*
X5445760Y881380D02*
D03*
X5447000Y1476000D02*
D03*
X990600Y1270000D02*
D03*
X3754120Y2120900D02*
D03*
X2430900Y342880D02*
D03*
X1846700Y336880D02*
D03*
X2405380Y2103120D02*
D03*
X1063280Y1734820D02*
D03*
%TF.MD5,5baa8c6a068c8450b6ceaa5514dfa7b6*%
M02*
