%TF.GenerationSoftware,Altium Limited,Altium Designer,24.0.1 (36)*%
G04 Layer_Color=255*
%FSLAX45Y45*%
%MOMM*%
%TF.SameCoordinates,DDEBADB9-0EAF-4DA9-B7D3-1C4C0305AAAB*%
%TF.FilePolarity,Positive*%
%TF.FileFunction,Pads,Top*%
%TF.Part,Single*%
G01*
G75*
%TA.AperFunction,SMDPad,CuDef*%
G04:AMPARAMS|DCode=10|XSize=1.524mm|YSize=1.27mm|CornerRadius=0.09525mm|HoleSize=0mm|Usage=FLASHONLY|Rotation=180.000|XOffset=0mm|YOffset=0mm|HoleType=Round|Shape=RoundedRectangle|*
%AMROUNDEDRECTD10*
21,1,1.52400,1.07950,0,0,180.0*
21,1,1.33350,1.27000,0,0,180.0*
1,1,0.19050,-0.66675,0.53975*
1,1,0.19050,0.66675,0.53975*
1,1,0.19050,0.66675,-0.53975*
1,1,0.19050,-0.66675,-0.53975*
%
%ADD10ROUNDEDRECTD10*%
%TA.AperFunction,BGAPad,CuDef*%
%ADD11R,0.70000X0.70000*%
%TA.AperFunction,SMDPad,CuDef*%
%ADD12R,1.50000X0.90000*%
G04:AMPARAMS|DCode=13|XSize=1.524mm|YSize=1.27mm|CornerRadius=0.09525mm|HoleSize=0mm|Usage=FLASHONLY|Rotation=270.000|XOffset=0mm|YOffset=0mm|HoleType=Round|Shape=RoundedRectangle|*
%AMROUNDEDRECTD13*
21,1,1.52400,1.07950,0,0,270.0*
21,1,1.33350,1.27000,0,0,270.0*
1,1,0.19050,-0.53975,-0.66675*
1,1,0.19050,-0.53975,0.66675*
1,1,0.19050,0.53975,0.66675*
1,1,0.19050,0.53975,-0.66675*
%
%ADD13ROUNDEDRECTD13*%
G04:AMPARAMS|DCode=14|XSize=1mm|YSize=1.5mm|CornerRadius=0.075mm|HoleSize=0mm|Usage=FLASHONLY|Rotation=0.000|XOffset=0mm|YOffset=0mm|HoleType=Round|Shape=RoundedRectangle|*
%AMROUNDEDRECTD14*
21,1,1.00000,1.35000,0,0,0.0*
21,1,0.85000,1.50000,0,0,0.0*
1,1,0.15000,0.42500,-0.67500*
1,1,0.15000,-0.42500,-0.67500*
1,1,0.15000,-0.42500,0.67500*
1,1,0.15000,0.42500,0.67500*
%
%ADD14ROUNDEDRECTD14*%
%ADD15R,0.80000X2.70000*%
G04:AMPARAMS|DCode=16|XSize=0.66mm|YSize=0.31mm|CornerRadius=0.02325mm|HoleSize=0mm|Usage=FLASHONLY|Rotation=0.000|XOffset=0mm|YOffset=0mm|HoleType=Round|Shape=RoundedRectangle|*
%AMROUNDEDRECTD16*
21,1,0.66000,0.26350,0,0,0.0*
21,1,0.61350,0.31000,0,0,0.0*
1,1,0.04650,0.30675,-0.13175*
1,1,0.04650,-0.30675,-0.13175*
1,1,0.04650,-0.30675,0.13175*
1,1,0.04650,0.30675,0.13175*
%
%ADD16ROUNDEDRECTD16*%
G04:AMPARAMS|DCode=17|XSize=0.762mm|YSize=0.762mm|CornerRadius=0.0381mm|HoleSize=0mm|Usage=FLASHONLY|Rotation=0.000|XOffset=0mm|YOffset=0mm|HoleType=Round|Shape=RoundedRectangle|*
%AMROUNDEDRECTD17*
21,1,0.76200,0.68580,0,0,0.0*
21,1,0.68580,0.76200,0,0,0.0*
1,1,0.07620,0.34290,-0.34290*
1,1,0.07620,-0.34290,-0.34290*
1,1,0.07620,-0.34290,0.34290*
1,1,0.07620,0.34290,0.34290*
%
%ADD17ROUNDEDRECTD17*%
%ADD18R,2.40000X2.40000*%
G04:AMPARAMS|DCode=19|XSize=2.5mm|YSize=1.6mm|CornerRadius=0.12mm|HoleSize=0mm|Usage=FLASHONLY|Rotation=90.000|XOffset=0mm|YOffset=0mm|HoleType=Round|Shape=RoundedRectangle|*
%AMROUNDEDRECTD19*
21,1,2.50000,1.36000,0,0,90.0*
21,1,2.26000,1.60000,0,0,90.0*
1,1,0.24000,0.68000,1.13000*
1,1,0.24000,0.68000,-1.13000*
1,1,0.24000,-0.68000,-1.13000*
1,1,0.24000,-0.68000,1.13000*
%
%ADD19ROUNDEDRECTD19*%
%TA.AperFunction,ConnectorPad*%
%ADD20R,1.15000X0.30000*%
%ADD21R,1.15000X0.60000*%
%TA.AperFunction,ComponentPad*%
%ADD27C,1.85000*%
%ADD28R,1.85000X1.85000*%
%ADD29C,0.40000*%
%ADD30O,1.11000X2.22000*%
%ADD31C,0.65000*%
%ADD32O,2.10000X1.00000*%
%ADD33O,1.80000X1.00000*%
%ADD34C,5.00000*%
D10*
X3000000Y1900000D02*
D03*
X3228600D02*
D03*
X403860Y2166620D02*
D03*
X175260D02*
D03*
X406400Y812800D02*
D03*
X177800D02*
D03*
D11*
X4586000Y1456000D02*
D03*
X4476000D02*
D03*
X4366000D02*
D03*
Y1236000D02*
D03*
X4476000D02*
D03*
X4586000D02*
D03*
Y1346000D02*
D03*
X4366000D02*
D03*
X4476000D02*
D03*
D12*
X3697000Y726000D02*
D03*
Y876000D02*
D03*
Y1026000D02*
D03*
Y1176000D02*
D03*
Y1326000D02*
D03*
Y1476000D02*
D03*
Y1626000D02*
D03*
Y1776000D02*
D03*
Y1926000D02*
D03*
X5447000D02*
D03*
Y1776000D02*
D03*
Y1626000D02*
D03*
Y1476000D02*
D03*
Y1326000D02*
D03*
Y1176000D02*
D03*
Y1026000D02*
D03*
Y876000D02*
D03*
Y726000D02*
D03*
D13*
X5697220Y477520D02*
D03*
Y706120D02*
D03*
D14*
X1051500Y637880D02*
D03*
Y147880D02*
D03*
X731500Y637880D02*
D03*
Y147880D02*
D03*
X1874500D02*
D03*
Y637880D02*
D03*
X2194500Y147880D02*
D03*
Y637880D02*
D03*
X1623000D02*
D03*
Y147880D02*
D03*
X1303000Y637880D02*
D03*
Y147880D02*
D03*
X2446000D02*
D03*
Y637880D02*
D03*
X2766000Y147880D02*
D03*
Y637880D02*
D03*
D15*
X2176000Y1879600D02*
D03*
X2396000D02*
D03*
D16*
X2009300Y2285200D02*
D03*
Y2235200D02*
D03*
Y2185200D02*
D03*
X2156300D02*
D03*
Y2235200D02*
D03*
Y2285200D02*
D03*
D17*
X2012950Y2540000D02*
D03*
X2152650D02*
D03*
Y2794000D02*
D03*
X2012950D02*
D03*
D18*
X1740480Y1684020D02*
D03*
X1300480D02*
D03*
D19*
X2540000Y2240800D02*
D03*
Y2590800D02*
D03*
X1625600Y2534400D02*
D03*
Y2184400D02*
D03*
D20*
X725500Y1675000D02*
D03*
Y1625000D02*
D03*
Y1575000D02*
D03*
Y1325000D02*
D03*
Y1375000D02*
D03*
Y1425000D02*
D03*
Y1525000D02*
D03*
Y1475000D02*
D03*
D21*
Y1260000D02*
D03*
Y1740000D02*
D03*
Y1180000D02*
D03*
Y1820000D02*
D03*
D27*
X3000000Y1600000D02*
D03*
X6556000Y2750000D02*
D03*
X6302000D02*
D03*
X4778000D02*
D03*
X4524000D02*
D03*
X4270000D02*
D03*
X4016000D02*
D03*
X3254000D02*
D03*
X3508000D02*
D03*
X3762000D02*
D03*
X5032000D02*
D03*
X5286000D02*
D03*
X5540000D02*
D03*
X5794000D02*
D03*
X6048000D02*
D03*
X1041400Y965200D02*
D03*
X1295400D02*
D03*
D28*
X3254000Y1600000D02*
D03*
X3000000Y2750000D02*
D03*
X1549400Y965200D02*
D03*
D29*
X4586000Y1401000D02*
D03*
X4476000D02*
D03*
X4531000Y1456000D02*
D03*
X4421000D02*
D03*
X4531000Y1346000D02*
D03*
X4586000Y1291000D02*
D03*
X4476000D02*
D03*
X4421000Y1346000D02*
D03*
X4531000Y1236000D02*
D03*
X4366000Y1401000D02*
D03*
Y1291000D02*
D03*
X4421000Y1236000D02*
D03*
D30*
X3124200Y378285D02*
D03*
X3251200D02*
D03*
X3378200D02*
D03*
D31*
X618000Y1789000D02*
D03*
Y1211000D02*
D03*
D32*
X668000Y1068000D02*
D03*
Y1932000D02*
D03*
D33*
X250000Y1068000D02*
D03*
Y1932000D02*
D03*
D34*
X350000Y2650000D02*
D03*
X6650000Y350000D02*
D03*
%TF.MD5,dc29f8721f7e1567394c9de4fea98c17*%
M02*
