%TF.GenerationSoftware,Altium Limited,Altium Designer,24.0.1 (36)*%
G04 Layer_Color=255*
%FSLAX45Y45*%
%MOMM*%
%TF.SameCoordinates,DDEBADB9-0EAF-4DA9-B7D3-1C4C0305AAAB*%
%TF.FilePolarity,Positive*%
%TF.FileFunction,Pads,Bot*%
%TF.Part,Single*%
G01*
G75*
%TA.AperFunction,SMDPad,CuDef*%
G04:AMPARAMS|DCode=13|XSize=1.524mm|YSize=1.27mm|CornerRadius=0.09525mm|HoleSize=0mm|Usage=FLASHONLY|Rotation=270.000|XOffset=0mm|YOffset=0mm|HoleType=Round|Shape=RoundedRectangle|*
%AMROUNDEDRECTD13*
21,1,1.52400,1.07950,0,0,270.0*
21,1,1.33350,1.27000,0,0,270.0*
1,1,0.19050,-0.53975,-0.66675*
1,1,0.19050,-0.53975,0.66675*
1,1,0.19050,0.53975,0.66675*
1,1,0.19050,0.53975,-0.66675*
%
%ADD13ROUNDEDRECTD13*%
G04:AMPARAMS|DCode=17|XSize=0.762mm|YSize=0.762mm|CornerRadius=0.0381mm|HoleSize=0mm|Usage=FLASHONLY|Rotation=0.000|XOffset=0mm|YOffset=0mm|HoleType=Round|Shape=RoundedRectangle|*
%AMROUNDEDRECTD17*
21,1,0.76200,0.68580,0,0,0.0*
21,1,0.68580,0.76200,0,0,0.0*
1,1,0.07620,0.34290,-0.34290*
1,1,0.07620,-0.34290,-0.34290*
1,1,0.07620,-0.34290,0.34290*
1,1,0.07620,0.34290,0.34290*
%
%ADD17ROUNDEDRECTD17*%
%TA.AperFunction,ComponentPad*%
%ADD27C,1.85000*%
%ADD28R,1.85000X1.85000*%
%ADD29C,0.40000*%
%ADD30O,1.11000X2.22000*%
%ADD31C,0.65000*%
%ADD32O,2.10000X1.00000*%
%ADD33O,1.80000X1.00000*%
%ADD34C,5.00000*%
%TA.AperFunction,SMDPad,CuDef*%
G04:AMPARAMS|DCode=37|XSize=0.762mm|YSize=0.762mm|CornerRadius=0.0381mm|HoleSize=0mm|Usage=FLASHONLY|Rotation=270.000|XOffset=0mm|YOffset=0mm|HoleType=Round|Shape=RoundedRectangle|*
%AMROUNDEDRECTD37*
21,1,0.76200,0.68580,0,0,270.0*
21,1,0.68580,0.76200,0,0,270.0*
1,1,0.07620,-0.34290,-0.34290*
1,1,0.07620,-0.34290,0.34290*
1,1,0.07620,0.34290,0.34290*
1,1,0.07620,0.34290,-0.34290*
%
%ADD37ROUNDEDRECTD37*%
D13*
X5130800Y584200D02*
D03*
Y812800D02*
D03*
X4254500Y1043940D02*
D03*
Y815340D02*
D03*
X3954800Y818000D02*
D03*
Y1046600D02*
D03*
D17*
X3175000Y152400D02*
D03*
X3314700D02*
D03*
D27*
X3000000Y1600000D02*
D03*
X6556000Y2750000D02*
D03*
X6302000D02*
D03*
X4778000D02*
D03*
X4524000D02*
D03*
X4270000D02*
D03*
X4016000D02*
D03*
X3254000D02*
D03*
X3508000D02*
D03*
X3762000D02*
D03*
X5032000D02*
D03*
X5286000D02*
D03*
X5540000D02*
D03*
X5794000D02*
D03*
X6048000D02*
D03*
X1041400Y965200D02*
D03*
X1295400D02*
D03*
D28*
X3254000Y1600000D02*
D03*
X3000000Y2750000D02*
D03*
X1549400Y965200D02*
D03*
D29*
X4586000Y1401000D02*
D03*
X4476000D02*
D03*
X4531000Y1456000D02*
D03*
X4421000D02*
D03*
X4531000Y1346000D02*
D03*
X4586000Y1291000D02*
D03*
X4476000D02*
D03*
X4421000Y1346000D02*
D03*
X4531000Y1236000D02*
D03*
X4366000Y1401000D02*
D03*
Y1291000D02*
D03*
X4421000Y1236000D02*
D03*
D30*
X3124200Y378285D02*
D03*
X3251200D02*
D03*
X3378200D02*
D03*
D31*
X618000Y1789000D02*
D03*
Y1211000D02*
D03*
D32*
X668000Y1068000D02*
D03*
Y1932000D02*
D03*
D33*
X250000Y1068000D02*
D03*
Y1932000D02*
D03*
D34*
X350000Y2650000D02*
D03*
X6650000Y350000D02*
D03*
D37*
X871500Y476580D02*
D03*
Y336880D02*
D03*
X1421500Y476580D02*
D03*
Y336880D02*
D03*
X2021500Y476580D02*
D03*
Y336880D02*
D03*
X2571500Y476580D02*
D03*
Y336880D02*
D03*
X4826000Y901700D02*
D03*
Y762000D02*
D03*
X4518660Y866140D02*
D03*
Y1005840D02*
D03*
%TF.MD5,cec39d9b41a0df6cde7e1186c18663db*%
M02*
