%TF.GenerationSoftware,Altium Limited,Altium Designer,24.0.1 (36)*%
G04 Layer_Color=255*
%FSLAX45Y45*%
%MOMM*%
%TF.SameCoordinates,8AA56912-9505-4270-891B-A046144FA8B4*%
%TF.FilePolarity,Positive*%
%TF.FileFunction,Pads,Top*%
%TF.Part,Single*%
G01*
G75*
%TA.AperFunction,SMDPad,CuDef*%
G04:AMPARAMS|DCode=10|XSize=1.524mm|YSize=1.27mm|CornerRadius=0.09525mm|HoleSize=0mm|Usage=FLASHONLY|Rotation=180.000|XOffset=0mm|YOffset=0mm|HoleType=Round|Shape=RoundedRectangle|*
%AMROUNDEDRECTD10*
21,1,1.52400,1.07950,0,0,180.0*
21,1,1.33350,1.27000,0,0,180.0*
1,1,0.19050,-0.66675,0.53975*
1,1,0.19050,0.66675,0.53975*
1,1,0.19050,0.66675,-0.53975*
1,1,0.19050,-0.66675,-0.53975*
%
%ADD10ROUNDEDRECTD10*%
G04:AMPARAMS|DCode=11|XSize=1.524mm|YSize=1.27mm|CornerRadius=0.09525mm|HoleSize=0mm|Usage=FLASHONLY|Rotation=90.000|XOffset=0mm|YOffset=0mm|HoleType=Round|Shape=RoundedRectangle|*
%AMROUNDEDRECTD11*
21,1,1.52400,1.07950,0,0,90.0*
21,1,1.33350,1.27000,0,0,90.0*
1,1,0.19050,0.53975,0.66675*
1,1,0.19050,0.53975,-0.66675*
1,1,0.19050,-0.53975,-0.66675*
1,1,0.19050,-0.53975,0.66675*
%
%ADD11ROUNDEDRECTD11*%
%TA.AperFunction,ComponentPad*%
%ADD13C,5.00000*%
%ADD14C,1.85000*%
%ADD15R,1.85000X1.85000*%
%ADD16C,1.20000*%
D10*
X8803600Y7950000D02*
D03*
X8800000Y7665495D02*
D03*
X8571400D02*
D03*
X8575000Y7950000D02*
D03*
D11*
X10575000Y7464300D02*
D03*
Y7235700D02*
D03*
D13*
X10400000Y6350000D02*
D03*
D14*
X10306000Y8750000D02*
D03*
X10052000D02*
D03*
X8782000D02*
D03*
X8528000D02*
D03*
X8274000D02*
D03*
X9036000D02*
D03*
X9290000D02*
D03*
X9544000D02*
D03*
X9798000D02*
D03*
D15*
X8020000D02*
D03*
D16*
X11500000Y7500000D02*
D03*
X11754000Y7246000D02*
D03*
Y7754000D02*
D03*
%TF.MD5,94f7b8ba1913217145142382691789a6*%
M02*
