%TF.GenerationSoftware,Altium Limited,Altium Designer,24.0.1 (36)*%
G04 Layer_Color=128*
%FSLAX45Y45*%
%MOMM*%
%TF.SameCoordinates,8AA56912-9505-4270-891B-A046144FA8B4*%
%TF.FilePolarity,Positive*%
%TF.FileFunction,Drillmap*%
%TF.Part,Single*%
G01*
G75*
%TA.AperFunction,NonConductor*%
%ADD40C,0.12700*%
D40*
X10242500Y6350000D02*
X10557500D01*
X10400000Y6192500D02*
Y6507500D01*
X10263500Y8750000D02*
X10348500D01*
X10306000Y8707500D02*
Y8792500D01*
X10009500Y8750000D02*
X10094500D01*
X10052000Y8707500D02*
Y8792500D01*
X8739500Y8750000D02*
X8824500D01*
X8782000Y8707500D02*
Y8792500D01*
X8485500Y8750000D02*
X8570500D01*
X8528000Y8707500D02*
Y8792500D01*
X8231500Y8750000D02*
X8316500D01*
X8274000Y8707500D02*
Y8792500D01*
X7977500Y8750000D02*
X8062500D01*
X8020000Y8707500D02*
Y8792500D01*
X8993500Y8750000D02*
X9078500D01*
X9036000Y8707500D02*
Y8792500D01*
X9247500Y8750000D02*
X9332500D01*
X9290000Y8707500D02*
Y8792500D01*
X9501500Y8750000D02*
X9586500D01*
X9544000Y8707500D02*
Y8792500D01*
X9755500Y8750000D02*
X9840500D01*
X9798000Y8707500D02*
Y8792500D01*
X11465000Y7500000D02*
X11535000D01*
X11500000Y7465000D02*
Y7535000D01*
X11719000Y7246000D02*
X11789000D01*
X11754000Y7211000D02*
Y7281000D01*
X11719000Y7754000D02*
X11789000D01*
X11754000Y7719000D02*
Y7789000D01*
X8485500Y8150000D02*
X8570500D01*
X8528000Y8107500D02*
Y8192500D01*
%TF.MD5,c5cf7a666018528da879556e02f9fbfe*%
M02*
