%TF.GenerationSoftware,Altium Limited,Altium Designer,24.0.1 (36)*%
G04 Layer_Physical_Order=2*
G04 Layer_Color=16711680*
%FSLAX45Y45*%
%MOMM*%
%TF.SameCoordinates,8AA56912-9505-4270-891B-A046144FA8B4*%
%TF.FilePolarity,Positive*%
%TF.FileFunction,Copper,L2,Bot,Signal*%
%TF.Part,Single*%
G01*
G75*
%TA.AperFunction,Conductor*%
%ADD12C,0.75000*%
%TA.AperFunction,ComponentPad*%
%ADD13C,5.00000*%
%ADD14C,1.85000*%
%ADD15R,1.85000X1.85000*%
%ADD16C,1.20000*%
%TA.AperFunction,ViaPad*%
%ADD17C,1.85000*%
%TA.AperFunction,SMDPad,CuDef*%
G04:AMPARAMS|DCode=18|XSize=0.762mm|YSize=0.762mm|CornerRadius=0.0381mm|HoleSize=0mm|Usage=FLASHONLY|Rotation=90.000|XOffset=0mm|YOffset=0mm|HoleType=Round|Shape=RoundedRectangle|*
%AMROUNDEDRECTD18*
21,1,0.76200,0.68580,0,0,90.0*
21,1,0.68580,0.76200,0,0,90.0*
1,1,0.07620,0.34290,0.34290*
1,1,0.07620,0.34290,-0.34290*
1,1,0.07620,-0.34290,-0.34290*
1,1,0.07620,-0.34290,0.34290*
%
%ADD18ROUNDEDRECTD18*%
G36*
X12566659Y6033340D02*
X7923341D01*
Y8637500D01*
X8132500D01*
Y8862500D01*
X7923341D01*
Y8966659D01*
X12566659D01*
Y6033340D01*
D02*
G37*
%LPC*%
G36*
X8299000Y8864946D02*
Y8775000D01*
X8388946D01*
X8383493Y8795353D01*
X8368023Y8822147D01*
X8346147Y8844023D01*
X8319353Y8859493D01*
X8299000Y8864946D01*
D02*
G37*
G36*
X8249000D02*
X8228647Y8859493D01*
X8201853Y8844023D01*
X8179977Y8822147D01*
X8164507Y8795353D01*
X8159054Y8775000D01*
X8249000D01*
Y8864946D01*
D02*
G37*
G36*
X10320811Y8862500D02*
X10291189D01*
X10262577Y8854833D01*
X10236923Y8840022D01*
X10215978Y8819077D01*
X10201167Y8793423D01*
X10193500Y8764811D01*
Y8735189D01*
X10201167Y8706577D01*
X10215978Y8680923D01*
X10236923Y8659978D01*
X10262577Y8645167D01*
X10291189Y8637500D01*
X10320811D01*
X10349423Y8645167D01*
X10375077Y8659978D01*
X10396022Y8680923D01*
X10410833Y8706577D01*
X10418500Y8735189D01*
Y8764811D01*
X10410833Y8793423D01*
X10396022Y8819077D01*
X10375077Y8840022D01*
X10349423Y8854833D01*
X10320811Y8862500D01*
D02*
G37*
G36*
X10066811D02*
X10037189D01*
X10008577Y8854833D01*
X9982923Y8840022D01*
X9961978Y8819077D01*
X9947167Y8793423D01*
X9939500Y8764811D01*
Y8735189D01*
X9947167Y8706577D01*
X9961978Y8680923D01*
X9982923Y8659978D01*
X10008577Y8645167D01*
X10037189Y8637500D01*
X10066811D01*
X10095423Y8645167D01*
X10121077Y8659978D01*
X10142022Y8680923D01*
X10156833Y8706577D01*
X10164500Y8735189D01*
Y8764811D01*
X10156833Y8793423D01*
X10142022Y8819077D01*
X10121077Y8840022D01*
X10095423Y8854833D01*
X10066811Y8862500D01*
D02*
G37*
G36*
X9812811D02*
X9783189D01*
X9754577Y8854833D01*
X9728923Y8840022D01*
X9707978Y8819077D01*
X9693167Y8793423D01*
X9685500Y8764811D01*
Y8735189D01*
X9693167Y8706577D01*
X9707978Y8680923D01*
X9728923Y8659978D01*
X9754577Y8645167D01*
X9783189Y8637500D01*
X9812811D01*
X9841423Y8645167D01*
X9867077Y8659978D01*
X9888022Y8680923D01*
X9902833Y8706577D01*
X9910500Y8735189D01*
Y8764811D01*
X9902833Y8793423D01*
X9888022Y8819077D01*
X9867077Y8840022D01*
X9841423Y8854833D01*
X9812811Y8862500D01*
D02*
G37*
G36*
X9558811D02*
X9529189D01*
X9500577Y8854833D01*
X9474923Y8840022D01*
X9453978Y8819077D01*
X9439167Y8793423D01*
X9431500Y8764811D01*
Y8735189D01*
X9439167Y8706577D01*
X9453978Y8680923D01*
X9474923Y8659978D01*
X9500577Y8645167D01*
X9529189Y8637500D01*
X9558811D01*
X9587423Y8645167D01*
X9613077Y8659978D01*
X9634022Y8680923D01*
X9648833Y8706577D01*
X9656500Y8735189D01*
Y8764811D01*
X9648833Y8793423D01*
X9634022Y8819077D01*
X9613077Y8840022D01*
X9587423Y8854833D01*
X9558811Y8862500D01*
D02*
G37*
G36*
X9304811D02*
X9275189D01*
X9246577Y8854833D01*
X9220923Y8840022D01*
X9199978Y8819077D01*
X9185167Y8793423D01*
X9177500Y8764811D01*
Y8735189D01*
X9185167Y8706577D01*
X9199978Y8680923D01*
X9220923Y8659978D01*
X9246577Y8645167D01*
X9275189Y8637500D01*
X9304811D01*
X9333423Y8645167D01*
X9359077Y8659978D01*
X9380022Y8680923D01*
X9394833Y8706577D01*
X9402500Y8735189D01*
Y8764811D01*
X9394833Y8793423D01*
X9380022Y8819077D01*
X9359077Y8840022D01*
X9333423Y8854833D01*
X9304811Y8862500D01*
D02*
G37*
G36*
X9050811D02*
X9021189D01*
X8992577Y8854833D01*
X8966923Y8840022D01*
X8945978Y8819077D01*
X8931167Y8793423D01*
X8923500Y8764811D01*
Y8735189D01*
X8931167Y8706577D01*
X8945978Y8680923D01*
X8966923Y8659978D01*
X8992577Y8645167D01*
X9021189Y8637500D01*
X9050811D01*
X9079423Y8645167D01*
X9105077Y8659978D01*
X9126022Y8680923D01*
X9140833Y8706577D01*
X9148500Y8735189D01*
Y8764811D01*
X9140833Y8793423D01*
X9126022Y8819077D01*
X9105077Y8840022D01*
X9079423Y8854833D01*
X9050811Y8862500D01*
D02*
G37*
G36*
X8796811D02*
X8767189D01*
X8738577Y8854833D01*
X8712923Y8840022D01*
X8691978Y8819077D01*
X8677167Y8793423D01*
X8669500Y8764811D01*
Y8735189D01*
X8677167Y8706577D01*
X8691978Y8680923D01*
X8712923Y8659978D01*
X8738577Y8645167D01*
X8767189Y8637500D01*
X8796811D01*
X8825423Y8645167D01*
X8851077Y8659978D01*
X8872022Y8680923D01*
X8886833Y8706577D01*
X8894500Y8735189D01*
Y8764811D01*
X8886833Y8793423D01*
X8872022Y8819077D01*
X8851077Y8840022D01*
X8825423Y8854833D01*
X8796811Y8862500D01*
D02*
G37*
G36*
X8542811D02*
X8513189D01*
X8484577Y8854833D01*
X8458923Y8840022D01*
X8437978Y8819077D01*
X8423167Y8793423D01*
X8415500Y8764811D01*
Y8735189D01*
X8423167Y8706577D01*
X8437978Y8680923D01*
X8458923Y8659978D01*
X8484577Y8645167D01*
X8513189Y8637500D01*
X8542811D01*
X8571423Y8645167D01*
X8597077Y8659978D01*
X8618022Y8680923D01*
X8632833Y8706577D01*
X8640500Y8735189D01*
Y8764811D01*
X8632833Y8793423D01*
X8618022Y8819077D01*
X8597077Y8840022D01*
X8571423Y8854833D01*
X8542811Y8862500D01*
D02*
G37*
G36*
X8388946Y8725000D02*
X8299000D01*
Y8635054D01*
X8319353Y8640507D01*
X8346147Y8655977D01*
X8368023Y8677853D01*
X8383493Y8704647D01*
X8388946Y8725000D01*
D02*
G37*
G36*
X8249000D02*
X8159054D01*
X8164507Y8704647D01*
X8179977Y8677853D01*
X8201853Y8655977D01*
X8228647Y8640507D01*
X8249000Y8635054D01*
Y8725000D01*
D02*
G37*
G36*
X8542811Y8262500D02*
X8513189D01*
X8484577Y8254833D01*
X8458924Y8240022D01*
X8437978Y8219077D01*
X8423167Y8193423D01*
X8415500Y8164811D01*
Y8135189D01*
X8423167Y8106577D01*
X8437978Y8080923D01*
X8458924Y8059978D01*
X8484577Y8045167D01*
X8513189Y8037500D01*
X8542811D01*
X8554467Y8040623D01*
X8882545Y7712545D01*
X8901565Y7699836D01*
X8924000Y7695373D01*
X11699490D01*
X11704879Y7689984D01*
X11723121Y7679452D01*
X11743468Y7674000D01*
X11751090D01*
X11901245Y7523845D01*
X11920265Y7511136D01*
X11927197Y7509757D01*
X11929854Y7507981D01*
X11939145Y7506134D01*
X11973133D01*
X11973435Y7506074D01*
X11973736Y7506134D01*
X12007725D01*
X12017015Y7507981D01*
X12024890Y7513244D01*
X12030153Y7521120D01*
X12032001Y7530410D01*
Y7564399D01*
X12032061Y7564700D01*
X12032001Y7565001D01*
Y7598990D01*
X12030153Y7608280D01*
X12024890Y7616156D01*
X12017015Y7621418D01*
X12007725Y7623266D01*
X11976153D01*
X11972835Y7623926D01*
X11966984D01*
X11834000Y7756910D01*
Y7764532D01*
X11828548Y7784879D01*
X11818016Y7803121D01*
X11803121Y7818016D01*
X11784879Y7828548D01*
X11764532Y7834000D01*
X11743468D01*
X11723121Y7828548D01*
X11704879Y7818016D01*
X11699490Y7812626D01*
X8948284D01*
X8637377Y8123533D01*
X8640500Y8135189D01*
Y8164811D01*
X8632833Y8193423D01*
X8618023Y8219077D01*
X8597077Y8240022D01*
X8571424Y8254833D01*
X8542811Y8262500D01*
D02*
G37*
G36*
X12007725Y7488664D02*
X11998434D01*
Y7450001D01*
X12037099D01*
Y7459290D01*
X12034863Y7470531D01*
X12028495Y7480061D01*
X12018966Y7486428D01*
X12007725Y7488664D01*
D02*
G37*
G36*
X11510532Y7580000D02*
X11489468D01*
X11469121Y7574548D01*
X11450879Y7564016D01*
X11435984Y7549121D01*
X11425452Y7530879D01*
X11420000Y7510532D01*
Y7489468D01*
X11425452Y7469121D01*
X11435984Y7450879D01*
X11450879Y7435984D01*
X11469121Y7425452D01*
X11489468Y7420000D01*
X11510532D01*
X11530879Y7425452D01*
X11549121Y7435984D01*
X11564016Y7450879D01*
X11574548Y7469121D01*
X11580000Y7489468D01*
Y7510532D01*
X11574548Y7530879D01*
X11564016Y7549121D01*
X11549121Y7564016D01*
X11530879Y7574548D01*
X11510532Y7580000D01*
D02*
G37*
G36*
X11948434Y7488664D02*
X11939145D01*
X11927903Y7486428D01*
X11918374Y7480061D01*
X11912006Y7470531D01*
X11909770Y7459290D01*
Y7444246D01*
X11789296Y7323771D01*
X11786809Y7325207D01*
X11779001Y7327300D01*
Y7246000D01*
Y7164700D01*
X11786809Y7166793D01*
X11806191Y7177983D01*
X11822017Y7193809D01*
X11826081Y7200848D01*
X11844500Y7213155D01*
X11992681Y7361336D01*
X12007725D01*
X12018966Y7363572D01*
X12028495Y7369939D01*
X12034863Y7379469D01*
X12037099Y7390710D01*
Y7400001D01*
X11973434D01*
Y7425001D01*
X11948434D01*
Y7488664D01*
D02*
G37*
G36*
X11729001Y7327300D02*
X11721191Y7325207D01*
X11701809Y7314017D01*
X11685983Y7298191D01*
X11674793Y7278809D01*
X11672701Y7271000D01*
X11729001D01*
Y7327300D01*
D02*
G37*
G36*
Y7221000D02*
X11672701D01*
X11674793Y7213191D01*
X11685983Y7193809D01*
X11701809Y7177983D01*
X11721191Y7166793D01*
X11729001Y7164700D01*
Y7221000D01*
D02*
G37*
G36*
X10425000Y6624468D02*
Y6375000D01*
X10674468D01*
X10668229Y6414396D01*
X10654852Y6455563D01*
X10635201Y6494132D01*
X10609758Y6529151D01*
X10579151Y6559758D01*
X10544132Y6585201D01*
X10505563Y6604852D01*
X10464396Y6618229D01*
X10425000Y6624468D01*
D02*
G37*
G36*
X10375000D02*
X10335604Y6618229D01*
X10294437Y6604852D01*
X10255868Y6585201D01*
X10220850Y6559758D01*
X10190242Y6529151D01*
X10164799Y6494132D01*
X10145148Y6455563D01*
X10131771Y6414396D01*
X10125532Y6375000D01*
X10375000D01*
Y6624468D01*
D02*
G37*
G36*
X10674468Y6325000D02*
X10425000D01*
Y6075532D01*
X10464396Y6081771D01*
X10505563Y6095148D01*
X10544132Y6114799D01*
X10579151Y6140242D01*
X10609758Y6170849D01*
X10635201Y6205868D01*
X10654852Y6244437D01*
X10668229Y6285604D01*
X10674468Y6325000D01*
D02*
G37*
G36*
X10375000D02*
X10125532D01*
X10131771Y6285604D01*
X10145148Y6244437D01*
X10164799Y6205868D01*
X10190242Y6170849D01*
X10220850Y6140242D01*
X10255868Y6114799D01*
X10294437Y6095148D01*
X10335604Y6081771D01*
X10375000Y6075532D01*
Y6325000D01*
D02*
G37*
%LPD*%
D12*
X8528000Y8150000D02*
X8924000Y7754000D01*
X11754000D01*
X11803045Y7254610D02*
X11973435Y7425000D01*
X11754000Y7246000D02*
X11762610Y7254610D01*
X11803045D01*
X11942700Y7565300D02*
X11972835D01*
X11973435Y7564700D01*
X11754000Y7754000D02*
X11942700Y7565300D01*
D13*
X10400000Y6350000D02*
D03*
D14*
X10306000Y8750000D02*
D03*
X10052000D02*
D03*
X8782000D02*
D03*
X8528000D02*
D03*
X8274000D02*
D03*
X9036000D02*
D03*
X9290000D02*
D03*
X9544000D02*
D03*
X9798000D02*
D03*
D15*
X8020000D02*
D03*
D16*
X11500000Y7500000D02*
D03*
X11754000Y7246000D02*
D03*
Y7754000D02*
D03*
D17*
X8528000Y8150000D02*
D03*
D18*
X11973435Y7564700D02*
D03*
Y7425000D02*
D03*
%TF.MD5,afcad32c532e6bd59567a545b933adb8*%
M02*
