%TF.GenerationSoftware,Altium Limited,Altium Designer,24.0.1 (36)*%
G04 Layer_Color=8421504*
%FSLAX45Y45*%
%MOMM*%
%TF.SameCoordinates,95B5C6B2-F670-4A0E-B731-85317CB4A22F*%
%TF.FilePolarity,Positive*%
%TF.FileFunction,Paste,Top*%
%TF.Part,Single*%
G01*
G75*
%TA.AperFunction,SMDPad,CuDef*%
G04:AMPARAMS|DCode=10|XSize=1.14mm|YSize=1.63mm|CornerRadius=0.1425mm|HoleSize=0mm|Usage=FLASHONLY|Rotation=0.000|XOffset=0mm|YOffset=0mm|HoleType=Round|Shape=RoundedRectangle|*
%AMROUNDEDRECTD10*
21,1,1.14000,1.34500,0,0,0.0*
21,1,0.85500,1.63000,0,0,0.0*
1,1,0.28500,0.42750,-0.67250*
1,1,0.28500,-0.42750,-0.67250*
1,1,0.28500,-0.42750,0.67250*
1,1,0.28500,0.42750,0.67250*
%
%ADD10ROUNDEDRECTD10*%
%ADD14R,0.91440X1.27000*%
%ADD15R,0.91440X0.91440*%
G04:AMPARAMS|DCode=17|XSize=1.14mm|YSize=1.63mm|CornerRadius=0.1425mm|HoleSize=0mm|Usage=FLASHONLY|Rotation=90.000|XOffset=0mm|YOffset=0mm|HoleType=Round|Shape=RoundedRectangle|*
%AMROUNDEDRECTD17*
21,1,1.14000,1.34500,0,0,90.0*
21,1,0.85500,1.63000,0,0,90.0*
1,1,0.28500,0.67250,0.42750*
1,1,0.28500,0.67250,-0.42750*
1,1,0.28500,-0.67250,-0.42750*
1,1,0.28500,-0.67250,0.42750*
%
%ADD17ROUNDEDRECTD17*%
G04:AMPARAMS|DCode=81|XSize=1.484mm|YSize=1.23mm|CornerRadius=0.07525mm|HoleSize=0mm|Usage=FLASHONLY|Rotation=180.000|XOffset=0mm|YOffset=0mm|HoleType=Round|Shape=RoundedRectangle|*
%AMROUNDEDRECTD81*
21,1,1.48400,1.07950,0,0,180.0*
21,1,1.33350,1.23000,0,0,180.0*
1,1,0.15050,-0.66675,0.53975*
1,1,0.15050,0.66675,0.53975*
1,1,0.15050,0.66675,-0.53975*
1,1,0.15050,-0.66675,-0.53975*
%
%ADD81ROUNDEDRECTD81*%
G04:AMPARAMS|DCode=82|XSize=0.722mm|YSize=0.722mm|CornerRadius=0.0181mm|HoleSize=0mm|Usage=FLASHONLY|Rotation=180.000|XOffset=0mm|YOffset=0mm|HoleType=Round|Shape=RoundedRectangle|*
%AMROUNDEDRECTD82*
21,1,0.72200,0.68580,0,0,180.0*
21,1,0.68580,0.72200,0,0,180.0*
1,1,0.03620,-0.34290,0.34290*
1,1,0.03620,0.34290,0.34290*
1,1,0.03620,0.34290,-0.34290*
1,1,0.03620,-0.34290,-0.34290*
%
%ADD82ROUNDEDRECTD82*%
G04:AMPARAMS|DCode=83|XSize=1.484mm|YSize=1.23mm|CornerRadius=0.07525mm|HoleSize=0mm|Usage=FLASHONLY|Rotation=90.000|XOffset=0mm|YOffset=0mm|HoleType=Round|Shape=RoundedRectangle|*
%AMROUNDEDRECTD83*
21,1,1.48400,1.07950,0,0,90.0*
21,1,1.33350,1.23000,0,0,90.0*
1,1,0.15050,0.53975,0.66675*
1,1,0.15050,0.53975,-0.66675*
1,1,0.15050,-0.53975,-0.66675*
1,1,0.15050,-0.53975,0.66675*
%
%ADD83ROUNDEDRECTD83*%
G04:AMPARAMS|DCode=84|XSize=7.46mm|YSize=2.96mm|CornerRadius=0.205mm|HoleSize=0mm|Usage=FLASHONLY|Rotation=180.000|XOffset=0mm|YOffset=0mm|HoleType=Round|Shape=RoundedRectangle|*
%AMROUNDEDRECTD84*
21,1,7.46000,2.55000,0,0,180.0*
21,1,7.05000,2.96000,0,0,180.0*
1,1,0.41000,-3.52500,1.27500*
1,1,0.41000,3.52500,1.27500*
1,1,0.41000,3.52500,-1.27500*
1,1,0.41000,-3.52500,-1.27500*
%
%ADD84ROUNDEDRECTD84*%
G04:AMPARAMS|DCode=85|XSize=2.46mm|YSize=1.56mm|CornerRadius=0.1mm|HoleSize=0mm|Usage=FLASHONLY|Rotation=90.000|XOffset=0mm|YOffset=0mm|HoleType=Round|Shape=RoundedRectangle|*
%AMROUNDEDRECTD85*
21,1,2.46000,1.36000,0,0,90.0*
21,1,2.26000,1.56000,0,0,90.0*
1,1,0.20000,0.68000,1.13000*
1,1,0.20000,0.68000,-1.13000*
1,1,0.20000,-0.68000,-1.13000*
1,1,0.20000,-0.68000,1.13000*
%
%ADD85ROUNDEDRECTD85*%
G04:AMPARAMS|DCode=86|XSize=1.992mm|YSize=0.5696mm|CornerRadius=0.02572mm|HoleSize=0mm|Usage=FLASHONLY|Rotation=270.000|XOffset=0mm|YOffset=0mm|HoleType=Round|Shape=RoundedRectangle|*
%AMROUNDEDRECTD86*
21,1,1.99200,0.51816,0,0,270.0*
21,1,1.94056,0.56960,0,0,270.0*
1,1,0.05144,-0.25908,-0.97028*
1,1,0.05144,-0.25908,0.97028*
1,1,0.05144,0.25908,0.97028*
1,1,0.05144,0.25908,-0.97028*
%
%ADD86ROUNDEDRECTD86*%
G04:AMPARAMS|DCode=87|XSize=2.46mm|YSize=1.56mm|CornerRadius=0.1mm|HoleSize=0mm|Usage=FLASHONLY|Rotation=0.000|XOffset=0mm|YOffset=0mm|HoleType=Round|Shape=RoundedRectangle|*
%AMROUNDEDRECTD87*
21,1,2.46000,1.36000,0,0,0.0*
21,1,2.26000,1.56000,0,0,0.0*
1,1,0.20000,1.13000,-0.68000*
1,1,0.20000,-1.13000,-0.68000*
1,1,0.20000,-1.13000,0.68000*
1,1,0.20000,1.13000,0.68000*
%
%ADD87ROUNDEDRECTD87*%
D10*
X8935000Y3650000D02*
D03*
X9263000D02*
D03*
D14*
X9600000Y3500000D02*
D03*
D15*
X9693980Y3296800D02*
D03*
X9503480D02*
D03*
D17*
X7750000Y3686000D02*
D03*
Y4014000D02*
D03*
D81*
X7820000Y1940000D02*
D03*
X7591400D02*
D03*
X8368600D02*
D03*
X8140000D02*
D03*
X7550000Y4253465D02*
D03*
X7321400D02*
D03*
X3450000Y2050000D02*
D03*
X3221400D02*
D03*
X2819634Y2051065D02*
D03*
X2591034D02*
D03*
X8935700Y3300000D02*
D03*
X9164300D02*
D03*
D82*
X7950000Y3150000D02*
D03*
X7810300D02*
D03*
X7104600Y4996866D02*
D03*
X6964900D02*
D03*
X7770300Y5070000D02*
D03*
X7910000D02*
D03*
D83*
X7450000Y4550671D02*
D03*
Y4779271D02*
D03*
D84*
X3500000Y1550000D02*
D03*
Y850000D02*
D03*
D85*
X5510000Y2572285D02*
D03*
Y2222286D02*
D03*
X4200000Y1075000D02*
D03*
Y1425000D02*
D03*
X1950000Y1325000D02*
D03*
Y975000D02*
D03*
D86*
X7536400Y5860466D02*
D03*
X7409400D02*
D03*
X7282400D02*
D03*
X7155400D02*
D03*
Y5301666D02*
D03*
X7282400D02*
D03*
X7409400D02*
D03*
X7536400D02*
D03*
D87*
X4200000Y2050000D02*
D03*
X3850000D02*
D03*
%TF.MD5,25cf3926bdfb9db85cb203f644bfba5a*%
M02*
