%TF.GenerationSoftware,Altium Limited,Altium Designer,24.0.1 (36)*%
G04 Layer_Color=0*
%FSLAX45Y45*%
%MOMM*%
%TF.SameCoordinates,4F873DDA-DFB5-4AF5-B95A-0F2F78DC07CA*%
%TF.FilePolarity,Positive*%
%TF.FileFunction,Plated,1,2,PTH,Drill*%
%TF.Part,Single*%
G01*
G75*
%TA.AperFunction,ComponentDrill*%
%ADD113C,0.85000*%
%ADD114C,0.85000*%
%ADD115C,0.20000*%
%ADD116C,0.75001*%
%ADD117O,0.60000X1.70000*%
%ADD118O,0.60000X1.40000*%
%TA.AperFunction,ViaDrill,NotFilled*%
%ADD119C,0.50000*%
%ADD120C,0.71120*%
%ADD121C,0.30000*%
%ADD122C,0.70000*%
%ADD123C,0.40000*%
D113*
X4136000Y3240000D02*
D03*
X4390000D02*
D03*
X4644000D02*
D03*
X2282500Y4320000D02*
D03*
X2917500D02*
D03*
D114*
X7800000Y6154000D02*
D03*
X180000D02*
D03*
Y6746000D02*
D03*
Y7000000D02*
D03*
Y7254000D02*
D03*
X7800000Y6746000D02*
D03*
Y7000000D02*
D03*
Y7254000D02*
D03*
X180000Y5646000D02*
D03*
Y5900000D02*
D03*
X7800000Y5646000D02*
D03*
Y5900000D02*
D03*
D115*
X2070000Y1460000D02*
D03*
X1930000D02*
D03*
X2210000D02*
D03*
X1930000Y1600000D02*
D03*
X2070000D02*
D03*
X2210000D02*
D03*
X2000000Y1390000D02*
D03*
X2140000D02*
D03*
X2000000Y1530000D02*
D03*
X2140000D02*
D03*
X2000000Y1670000D02*
D03*
X2140000D02*
D03*
D116*
X506000Y2794000D02*
D03*
X252000D02*
D03*
X506000Y3048000D02*
D03*
X252000D02*
D03*
X506000Y3302000D02*
D03*
X252000D02*
D03*
X506000Y3556000D02*
D03*
X252000D02*
D03*
X506000Y3810000D02*
D03*
X252000D02*
D03*
X506000Y4064000D02*
D03*
X252000D02*
D03*
X506000Y4318000D02*
D03*
X252000D02*
D03*
X506000Y4572000D02*
D03*
X252000D02*
D03*
X506000Y4826000D02*
D03*
X252000D02*
D03*
X506000Y5080000D02*
D03*
X252000D02*
D03*
X242840Y2537415D02*
D03*
X496840D02*
D03*
X242840Y2283415D02*
D03*
X496840D02*
D03*
X252000Y2032000D02*
D03*
X506000D02*
D03*
X252000Y1778000D02*
D03*
X506000D02*
D03*
X252000Y1524000D02*
D03*
X506000D02*
D03*
X252000Y1270000D02*
D03*
X506000D02*
D03*
X252000Y1016000D02*
D03*
X506000D02*
D03*
X252000Y762000D02*
D03*
X506000D02*
D03*
X252000Y508000D02*
D03*
X506000D02*
D03*
X252000Y254000D02*
D03*
X506000D02*
D03*
D117*
X4582000Y678000D02*
D03*
X3718000D02*
D03*
D118*
X4582000Y260000D02*
D03*
X3718000D02*
D03*
D119*
X730150Y5500000D02*
D03*
X510000Y6060000D02*
D03*
X2030150Y5500000D02*
D03*
X1810000Y6070000D02*
D03*
X3330000Y5500000D02*
D03*
X3100000Y6070000D02*
D03*
X4660300Y5500000D02*
D03*
X4410000Y6060000D02*
D03*
X5930150Y5500000D02*
D03*
X5710000Y6070000D02*
D03*
X7260300Y5500000D02*
D03*
X7010000Y6070000D02*
D03*
X7260300Y6600000D02*
D03*
X7010000Y7170000D02*
D03*
X5930000Y6600000D02*
D03*
X5710000Y7170000D02*
D03*
X4630150Y6600000D02*
D03*
X4400000Y7170000D02*
D03*
X3360300Y6600000D02*
D03*
X3110000Y7170000D02*
D03*
X1805000Y7170000D02*
D03*
X2020000Y6600000D02*
D03*
X505000Y7170000D02*
D03*
X760300Y6600000D02*
D03*
X2950000Y820000D02*
D03*
X2780000Y810000D02*
D03*
X3290000Y1570000D02*
D03*
X2057400Y812800D02*
D03*
X990600Y1803400D02*
D03*
X1574800Y1854200D02*
D03*
X1160000Y4330000D02*
D03*
X1363200Y4873980D02*
D03*
X1345000Y885000D02*
D03*
Y2409000D02*
D03*
Y2282000D02*
D03*
X1143000Y2336800D02*
D03*
X812800Y2286000D02*
D03*
X1803400Y3479800D02*
D03*
X2156500Y2534000D02*
D03*
X2537500D02*
D03*
X1345000Y2028000D02*
D03*
Y1647000D02*
D03*
D120*
X1000000Y155000D02*
D03*
X3901000Y1777536D02*
D03*
X4070000Y1360000D02*
D03*
X2660000Y1570000D02*
D03*
D121*
X3260000Y1760000D02*
D03*
Y1890000D02*
D03*
X1143000Y2667000D02*
D03*
X1346200Y2540000D02*
D03*
X1498600Y2387600D02*
D03*
X965200Y4622800D02*
D03*
X2660000Y3031400D02*
D03*
X2667000Y2692400D02*
D03*
X1345000Y1012000D02*
D03*
X4013200Y939800D02*
D03*
X4724400Y1066800D02*
D03*
X4315000Y889000D02*
D03*
X4390000Y735500D02*
D03*
X3910000Y736600D02*
D03*
X4170700Y863600D02*
D03*
D122*
X1100000Y1700000D02*
D03*
X1752600Y1981200D02*
D03*
X762000Y914400D02*
D03*
D123*
X1345000Y1139000D02*
D03*
%TF.MD5,78b71a54c164295d4d642e82882073bf*%
M02*
