%TF.GenerationSoftware,Altium Limited,Altium Designer,24.0.1 (36)*%
G04 Layer_Color=128*
%FSLAX45Y45*%
%MOMM*%
%TF.SameCoordinates,4F873DDA-DFB5-4AF5-B95A-0F2F78DC07CA*%
%TF.FilePolarity,Positive*%
%TF.FileFunction,Paste,Bot*%
%TF.Part,Single*%
G01*
G75*
%TA.AperFunction,SMDPad,CuDef*%
%ADD43R,0.91440X0.91440*%
%ADD44R,0.91440X1.27000*%
G04:AMPARAMS|DCode=86|XSize=1.484mm|YSize=1.23mm|CornerRadius=0.07525mm|HoleSize=0mm|Usage=FLASHONLY|Rotation=270.000|XOffset=0mm|YOffset=0mm|HoleType=Round|Shape=RoundedRectangle|*
%AMROUNDEDRECTD86*
21,1,1.48400,1.07950,0,0,270.0*
21,1,1.33350,1.23000,0,0,270.0*
1,1,0.15050,-0.53975,-0.66675*
1,1,0.15050,-0.53975,0.66675*
1,1,0.15050,0.53975,0.66675*
1,1,0.15050,0.53975,-0.66675*
%
%ADD86ROUNDEDRECTD86*%
G04:AMPARAMS|DCode=93|XSize=0.86mm|YSize=0.86mm|CornerRadius=0.0475mm|HoleSize=0mm|Usage=FLASHONLY|Rotation=0.000|XOffset=0mm|YOffset=0mm|HoleType=Round|Shape=RoundedRectangle|*
%AMROUNDEDRECTD93*
21,1,0.86000,0.76500,0,0,0.0*
21,1,0.76500,0.86000,0,0,0.0*
1,1,0.09500,0.38250,-0.38250*
1,1,0.09500,-0.38250,-0.38250*
1,1,0.09500,-0.38250,0.38250*
1,1,0.09500,0.38250,0.38250*
%
%ADD93ROUNDEDRECTD93*%
G04:AMPARAMS|DCode=94|XSize=1.46mm|YSize=0.86mm|CornerRadius=0.0475mm|HoleSize=0mm|Usage=FLASHONLY|Rotation=0.000|XOffset=0mm|YOffset=0mm|HoleType=Round|Shape=RoundedRectangle|*
%AMROUNDEDRECTD94*
21,1,1.46000,0.76500,0,0,0.0*
21,1,1.36500,0.86000,0,0,0.0*
1,1,0.09500,0.68250,-0.38250*
1,1,0.09500,-0.68250,-0.38250*
1,1,0.09500,-0.68250,0.38250*
1,1,0.09500,0.68250,0.38250*
%
%ADD94ROUNDEDRECTD94*%
G04:AMPARAMS|DCode=95|XSize=0.86mm|YSize=1.46mm|CornerRadius=0.0475mm|HoleSize=0mm|Usage=FLASHONLY|Rotation=0.000|XOffset=0mm|YOffset=0mm|HoleType=Round|Shape=RoundedRectangle|*
%AMROUNDEDRECTD95*
21,1,0.86000,1.36500,0,0,0.0*
21,1,0.76500,1.46000,0,0,0.0*
1,1,0.09500,0.38250,-0.68250*
1,1,0.09500,-0.38250,-0.68250*
1,1,0.09500,-0.38250,0.68250*
1,1,0.09500,0.38250,0.68250*
%
%ADD95ROUNDEDRECTD95*%
D43*
X2670000Y3640000D02*
D03*
X2479500D02*
D03*
D44*
X2573480Y3843200D02*
D03*
D86*
X1280000Y4630000D02*
D03*
Y4401400D02*
D03*
X2660000Y3031400D02*
D03*
Y3260000D02*
D03*
D93*
X2070000Y1530000D02*
D03*
X1930000D02*
D03*
X2210000D02*
D03*
X1930000Y1670000D02*
D03*
X2070000D02*
D03*
X2210000D02*
D03*
X1930000Y1390000D02*
D03*
X2070000D02*
D03*
X2210000D02*
D03*
D94*
X1345000Y758000D02*
D03*
Y885000D02*
D03*
Y1012000D02*
D03*
Y1139000D02*
D03*
Y1266000D02*
D03*
Y1393000D02*
D03*
Y1520000D02*
D03*
Y1647000D02*
D03*
Y1774000D02*
D03*
Y1901000D02*
D03*
Y2028000D02*
D03*
Y2155000D02*
D03*
Y2282000D02*
D03*
Y2409000D02*
D03*
X3095000D02*
D03*
Y2282000D02*
D03*
Y2155000D02*
D03*
Y2028000D02*
D03*
Y1901000D02*
D03*
Y1774000D02*
D03*
Y1647000D02*
D03*
Y1520000D02*
D03*
Y1393000D02*
D03*
Y1266000D02*
D03*
Y1139000D02*
D03*
Y1012000D02*
D03*
Y885000D02*
D03*
Y758000D02*
D03*
D95*
X1521500Y2534000D02*
D03*
X1648500D02*
D03*
X1775500D02*
D03*
X1902500D02*
D03*
X2029500D02*
D03*
X2156500D02*
D03*
X2283500D02*
D03*
X2410500D02*
D03*
X2537500D02*
D03*
X2664500D02*
D03*
X2791500D02*
D03*
X2918500D02*
D03*
%TF.MD5,49da77e905847525df763eff4e20b974*%
M02*
