%TF.GenerationSoftware,Altium Limited,Altium Designer,24.0.1 (36)*%
G04 Layer_Physical_Order=1*
G04 Layer_Color=255*
%FSLAX45Y45*%
%MOMM*%
%TF.SameCoordinates,4F873DDA-DFB5-4AF5-B95A-0F2F78DC07CA*%
%TF.FilePolarity,Positive*%
%TF.FileFunction,Copper,L1,Top,Signal*%
%TF.Part,Single*%
G01*
G75*
%TA.AperFunction,Conductor*%
%ADD10C,0.25400*%
%TA.AperFunction,SMDPad,CuDef*%
%ADD11C,1.00000*%
G04:AMPARAMS|DCode=12|XSize=1.524mm|YSize=1.27mm|CornerRadius=0.09525mm|HoleSize=0mm|Usage=FLASHONLY|Rotation=270.000|XOffset=0mm|YOffset=0mm|HoleType=Round|Shape=RoundedRectangle|*
%AMROUNDEDRECTD12*
21,1,1.52400,1.07950,0,0,270.0*
21,1,1.33350,1.27000,0,0,270.0*
1,1,0.19050,-0.53975,-0.66675*
1,1,0.19050,-0.53975,0.66675*
1,1,0.19050,0.53975,0.66675*
1,1,0.19050,0.53975,-0.66675*
%
%ADD12ROUNDEDRECTD12*%
%ADD13R,1.27000X0.91440*%
%ADD14R,0.91440X0.91440*%
G04:AMPARAMS|DCode=15|XSize=0.762mm|YSize=0.762mm|CornerRadius=0.0381mm|HoleSize=0mm|Usage=FLASHONLY|Rotation=0.000|XOffset=0mm|YOffset=0mm|HoleType=Round|Shape=RoundedRectangle|*
%AMROUNDEDRECTD15*
21,1,0.76200,0.68580,0,0,0.0*
21,1,0.68580,0.76200,0,0,0.0*
1,1,0.07620,0.34290,-0.34290*
1,1,0.07620,-0.34290,-0.34290*
1,1,0.07620,-0.34290,0.34290*
1,1,0.07620,0.34290,0.34290*
%
%ADD15ROUNDEDRECTD15*%
G04:AMPARAMS|DCode=16|XSize=1mm|YSize=1.5mm|CornerRadius=0.075mm|HoleSize=0mm|Usage=FLASHONLY|Rotation=90.000|XOffset=0mm|YOffset=0mm|HoleType=Round|Shape=RoundedRectangle|*
%AMROUNDEDRECTD16*
21,1,1.00000,1.35000,0,0,90.0*
21,1,0.85000,1.50000,0,0,90.0*
1,1,0.15000,0.67500,0.42500*
1,1,0.15000,0.67500,-0.42500*
1,1,0.15000,-0.67500,-0.42500*
1,1,0.15000,-0.67500,0.42500*
%
%ADD16ROUNDEDRECTD16*%
%TA.AperFunction,ConnectorPad*%
%ADD17R,0.30000X1.15000*%
%ADD18R,0.60000X1.15000*%
%TA.AperFunction,SMDPad,CuDef*%
G04:AMPARAMS|DCode=19|XSize=1.14mm|YSize=1.63mm|CornerRadius=0.1425mm|HoleSize=0mm|Usage=FLASHONLY|Rotation=90.000|XOffset=0mm|YOffset=0mm|HoleType=Round|Shape=RoundedRectangle|*
%AMROUNDEDRECTD19*
21,1,1.14000,1.34500,0,0,90.0*
21,1,0.85500,1.63000,0,0,90.0*
1,1,0.28500,0.67250,0.42750*
1,1,0.28500,0.67250,-0.42750*
1,1,0.28500,-0.67250,-0.42750*
1,1,0.28500,-0.67250,0.42750*
%
%ADD19ROUNDEDRECTD19*%
G04:AMPARAMS|DCode=20|XSize=1.60429mm|YSize=3.26213mm|CornerRadius=0.12032mm|HoleSize=0mm|Usage=FLASHONLY|Rotation=90.000|XOffset=0mm|YOffset=0mm|HoleType=Round|Shape=RoundedRectangle|*
%AMROUNDEDRECTD20*
21,1,1.60429,3.02149,0,0,90.0*
21,1,1.36365,3.26213,0,0,90.0*
1,1,0.24064,1.51074,0.68182*
1,1,0.24064,1.51074,-0.68182*
1,1,0.24064,-1.51074,-0.68182*
1,1,0.24064,-1.51074,0.68182*
%
%ADD20ROUNDEDRECTD20*%
G04:AMPARAMS|DCode=21|XSize=1.60429mm|YSize=0.95213mm|CornerRadius=0.07141mm|HoleSize=0mm|Usage=FLASHONLY|Rotation=90.000|XOffset=0mm|YOffset=0mm|HoleType=Round|Shape=RoundedRectangle|*
%AMROUNDEDRECTD21*
21,1,1.60429,0.80931,0,0,90.0*
21,1,1.46148,0.95213,0,0,90.0*
1,1,0.14282,0.40466,0.73074*
1,1,0.14282,0.40466,-0.73074*
1,1,0.14282,-0.40466,-0.73074*
1,1,0.14282,-0.40466,0.73074*
%
%ADD21ROUNDEDRECTD21*%
G04:AMPARAMS|DCode=22|XSize=2.5mm|YSize=1.6mm|CornerRadius=0.12mm|HoleSize=0mm|Usage=FLASHONLY|Rotation=270.000|XOffset=0mm|YOffset=0mm|HoleType=Round|Shape=RoundedRectangle|*
%AMROUNDEDRECTD22*
21,1,2.50000,1.36000,0,0,270.0*
21,1,2.26000,1.60000,0,0,270.0*
1,1,0.24000,-0.68000,-1.13000*
1,1,0.24000,-0.68000,1.13000*
1,1,0.24000,0.68000,1.13000*
1,1,0.24000,0.68000,-1.13000*
%
%ADD22ROUNDEDRECTD22*%
G04:AMPARAMS|DCode=23|XSize=2.5mm|YSize=1.6mm|CornerRadius=0.12mm|HoleSize=0mm|Usage=FLASHONLY|Rotation=180.000|XOffset=0mm|YOffset=0mm|HoleType=Round|Shape=RoundedRectangle|*
%AMROUNDEDRECTD23*
21,1,2.50000,1.36000,0,0,180.0*
21,1,2.26000,1.60000,0,0,180.0*
1,1,0.24000,-1.13000,0.68000*
1,1,0.24000,1.13000,0.68000*
1,1,0.24000,1.13000,-0.68000*
1,1,0.24000,-1.13000,-0.68000*
%
%ADD23ROUNDEDRECTD23*%
%TA.AperFunction,Conductor*%
%ADD24C,0.40000*%
%ADD25C,0.50000*%
%ADD26C,0.75000*%
%ADD27C,0.30000*%
%ADD28C,0.20000*%
%TA.AperFunction,ComponentPad*%
%ADD29R,1.85000X1.85000*%
%ADD30C,1.85000*%
%ADD31R,1.85000X1.85000*%
%ADD32C,0.40000*%
%ADD33C,1.75001*%
%ADD34R,1.75001X1.75001*%
%ADD35C,0.65000*%
%ADD36O,1.00000X2.10000*%
%ADD37O,1.00000X1.80000*%
%TA.AperFunction,ViaPad*%
%ADD38C,0.80000*%
%ADD39C,1.27000*%
%ADD40C,0.60000*%
%ADD41C,1.20000*%
%ADD42C,0.85000*%
G36*
X7946268Y7440010D02*
Y7407639D01*
X7942499Y7396500D01*
X7825000D01*
Y7254000D01*
X7800000D01*
Y7229000D01*
X7657500D01*
Y7159641D01*
X7645767Y7154781D01*
X7610931Y7189617D01*
Y7212500D01*
X7607244Y7231034D01*
X7596746Y7246745D01*
X7581034Y7257244D01*
X7562500Y7260931D01*
X7427501D01*
X7408967Y7257244D01*
X7393255Y7246745D01*
X7382756Y7231034D01*
X7379070Y7212500D01*
Y7127500D01*
X7382756Y7108967D01*
X7393255Y7093255D01*
X7408967Y7082756D01*
X7427501Y7079070D01*
X7500383D01*
X7613679Y6965774D01*
X7629868Y6953351D01*
X7648721Y6945542D01*
X7668953Y6942879D01*
X7679981D01*
X7693974Y6918643D01*
X7718643Y6893974D01*
X7742271Y6880332D01*
Y6865667D01*
X7718643Y6852026D01*
X7693974Y6827357D01*
X7690112Y6820669D01*
X7610931D01*
Y6892500D01*
X7607244Y6911034D01*
X7596746Y6926746D01*
X7581034Y6937244D01*
X7562500Y6940931D01*
X7427501D01*
X7408967Y6937244D01*
X7393255Y6926746D01*
X7382756Y6911034D01*
X7379070Y6892500D01*
Y6820669D01*
X7120931D01*
Y6892500D01*
X7117244Y6911034D01*
X7106746Y6926746D01*
X7091034Y6937244D01*
X7072500Y6940931D01*
X6999617D01*
X6715274Y7225274D01*
X6699085Y7237696D01*
X6680232Y7245505D01*
X6660000Y7248169D01*
X6294615D01*
X6281034Y7257244D01*
X6262500Y7260931D01*
X6127501D01*
X6108967Y7257244D01*
X6093255Y7246745D01*
X6082756Y7231034D01*
X6079070Y7212500D01*
Y7127500D01*
X6082756Y7108967D01*
X6093255Y7093255D01*
X6108967Y7082756D01*
X6127501Y7079070D01*
X6262500D01*
X6281034Y7082756D01*
X6294615Y7091831D01*
X6627622D01*
X6886084Y6833369D01*
X6881862Y6820669D01*
X6310931D01*
Y6892500D01*
X6307244Y6911034D01*
X6296746Y6926746D01*
X6281034Y6937244D01*
X6262500Y6940931D01*
X6127501D01*
X6108967Y6937244D01*
X6093255Y6926746D01*
X6082756Y6911034D01*
X6079070Y6892500D01*
Y6820669D01*
X5820931D01*
Y6892500D01*
X5817244Y6911034D01*
X5806746Y6926746D01*
X5791034Y6937244D01*
X5772500Y6940931D01*
X5699617D01*
X5415274Y7225274D01*
X5399085Y7237696D01*
X5380232Y7245505D01*
X5360000Y7248169D01*
X4994615D01*
X4981034Y7257244D01*
X4962500Y7260931D01*
X4827501D01*
X4808967Y7257244D01*
X4793255Y7246745D01*
X4782756Y7231034D01*
X4779070Y7212500D01*
Y7127500D01*
X4782756Y7108967D01*
X4793255Y7093255D01*
X4808967Y7082756D01*
X4827501Y7079070D01*
X4962500D01*
X4981034Y7082756D01*
X4994615Y7091831D01*
X5327622D01*
X5586084Y6833369D01*
X5581862Y6820669D01*
X5010931D01*
Y6892500D01*
X5007244Y6911034D01*
X4996746Y6926746D01*
X4981034Y6937244D01*
X4962500Y6940931D01*
X4827501D01*
X4808967Y6937244D01*
X4793255Y6926746D01*
X4782756Y6911034D01*
X4779070Y6892500D01*
Y6820669D01*
X4520931D01*
Y6892500D01*
X4517244Y6911034D01*
X4506746Y6926746D01*
X4491034Y6937244D01*
X4472500Y6940931D01*
X4399617D01*
X4115274Y7225274D01*
X4099085Y7237696D01*
X4080232Y7245505D01*
X4060001Y7248169D01*
X3694615D01*
X3681034Y7257244D01*
X3662500Y7260931D01*
X3527500D01*
X3508967Y7257244D01*
X3493255Y7246745D01*
X3482756Y7231034D01*
X3479070Y7212500D01*
Y7127500D01*
X3482756Y7108967D01*
X3493255Y7093255D01*
X3508967Y7082756D01*
X3527500Y7079070D01*
X3662500D01*
X3681034Y7082756D01*
X3694615Y7091831D01*
X4027622D01*
X4286084Y6833369D01*
X4281862Y6820669D01*
X3710931D01*
Y6892500D01*
X3707244Y6911034D01*
X3696745Y6926746D01*
X3681034Y6937244D01*
X3662500Y6940931D01*
X3527500D01*
X3508967Y6937244D01*
X3493255Y6926746D01*
X3482756Y6911034D01*
X3479070Y6892500D01*
Y6820669D01*
X3220931D01*
Y6892500D01*
X3217244Y6911034D01*
X3206745Y6926746D01*
X3191033Y6937244D01*
X3172500Y6940931D01*
X3099617D01*
X2815274Y7225274D01*
X2799085Y7237696D01*
X2788041Y7242271D01*
X2780232Y7245505D01*
X2760000Y7248169D01*
X2394615D01*
X2381034Y7257244D01*
X2362500Y7260931D01*
X2227500D01*
X2208967Y7257244D01*
X2193255Y7246745D01*
X2182756Y7231034D01*
X2179070Y7212500D01*
Y7127500D01*
X2182756Y7108967D01*
X2193255Y7093255D01*
X2208967Y7082756D01*
X2227500Y7079070D01*
X2362500D01*
X2381034Y7082756D01*
X2394615Y7091831D01*
X2727622D01*
X2986084Y6833369D01*
X2981862Y6820669D01*
X2410931D01*
Y6892500D01*
X2407244Y6911034D01*
X2396746Y6926746D01*
X2381034Y6937244D01*
X2362500Y6940931D01*
X2227500D01*
X2208967Y6937244D01*
X2193255Y6926746D01*
X2182756Y6911034D01*
X2179070Y6892500D01*
Y6820669D01*
X1920931D01*
Y6892500D01*
X1917244Y6911034D01*
X1906745Y6926746D01*
X1891034Y6937244D01*
X1872500Y6940931D01*
X1799617D01*
X1515274Y7225274D01*
X1499085Y7237696D01*
X1488041Y7242271D01*
X1480232Y7245505D01*
X1460000Y7248169D01*
X1094615D01*
X1081034Y7257244D01*
X1062500Y7260931D01*
X927501D01*
X908967Y7257244D01*
X893255Y7246745D01*
X882756Y7231034D01*
X879070Y7212500D01*
Y7127500D01*
X882756Y7108967D01*
X893255Y7093255D01*
X908967Y7082756D01*
X927501Y7079070D01*
X1062500D01*
X1081034Y7082756D01*
X1094615Y7091831D01*
X1427622D01*
X1686084Y6833369D01*
X1681862Y6820669D01*
X1110931D01*
Y6892500D01*
X1107244Y6911034D01*
X1096746Y6926746D01*
X1081034Y6937244D01*
X1062500Y6940931D01*
X927501D01*
X908967Y6937244D01*
X893255Y6926746D01*
X882756Y6911034D01*
X879070Y6892500D01*
Y6820669D01*
X620931D01*
Y6892500D01*
X617244Y6911034D01*
X606746Y6926746D01*
X591034Y6937244D01*
X572500Y6940931D01*
X499617D01*
X406322Y7034226D01*
X390133Y7046649D01*
X379089Y7051223D01*
X371280Y7054458D01*
X351048Y7057121D01*
X300018D01*
X286026Y7081357D01*
X268583Y7098800D01*
X273843Y7111500D01*
X322500D01*
Y7229000D01*
X180000D01*
Y7254000D01*
X155000D01*
Y7396500D01*
X53732D01*
Y7446268D01*
X5468085D01*
X7946268Y7440010D01*
D02*
G37*
G36*
X7942499Y7111500D02*
X7946268Y7100361D01*
Y6550000D01*
X7485843D01*
X7477786Y6559817D01*
X7478958Y6565710D01*
Y6568411D01*
X7550273Y6639726D01*
X7550274Y6639727D01*
X7562696Y6655916D01*
X7566182Y6664331D01*
X7694286D01*
X7718643Y6639974D01*
X7748857Y6622530D01*
X7782556Y6613500D01*
X7817444D01*
X7851143Y6622530D01*
X7881357Y6639974D01*
X7906026Y6664643D01*
X7923470Y6694857D01*
X7932500Y6728556D01*
Y6763444D01*
X7923470Y6797143D01*
X7906026Y6827357D01*
X7881357Y6852026D01*
X7857729Y6865667D01*
Y6880332D01*
X7881357Y6893974D01*
X7906026Y6918643D01*
X7923470Y6948857D01*
X7932500Y6982556D01*
Y7017444D01*
X7923470Y7051143D01*
X7906026Y7081357D01*
X7888583Y7098800D01*
X7893843Y7111500D01*
X7942499D01*
D02*
G37*
G36*
X7174596Y6651631D02*
X7171146Y6634290D01*
Y6625000D01*
X7260300D01*
Y6575000D01*
X7171146D01*
Y6565710D01*
X7172318Y6559817D01*
X7164262Y6550000D01*
X6155693D01*
X6147636Y6559817D01*
X6148808Y6565710D01*
Y6568411D01*
X6244728Y6664331D01*
X7167255D01*
X7174596Y6651631D01*
D02*
G37*
G36*
X5844445D02*
X5840996Y6634290D01*
Y6625000D01*
X5930000D01*
Y6575000D01*
X5840996D01*
Y6565710D01*
X5842168Y6559817D01*
X5834111Y6550000D01*
X4855693D01*
X4847636Y6559817D01*
X4848808Y6565710D01*
Y6568411D01*
X4944728Y6664331D01*
X5837105D01*
X5844445Y6651631D01*
D02*
G37*
G36*
X4544445D02*
X4540996Y6634290D01*
Y6625000D01*
X4630150D01*
Y6575000D01*
X4540996D01*
Y6565710D01*
X4542168Y6559817D01*
X4534111Y6550000D01*
X3585843D01*
X3577786Y6559817D01*
X3578958Y6565710D01*
Y6568411D01*
X3650273Y6639726D01*
X3650274Y6639727D01*
X3662696Y6655916D01*
X3666182Y6664331D01*
X4537105D01*
X4544445Y6651631D01*
D02*
G37*
G36*
X3274595D02*
X3271146Y6634290D01*
Y6625000D01*
X3360300D01*
Y6575000D01*
X3271146D01*
Y6565710D01*
X3272318Y6559817D01*
X3264261Y6550000D01*
X2255693D01*
X2247636Y6559817D01*
X2248808Y6565710D01*
Y6568411D01*
X2344729Y6664331D01*
X3267255D01*
X3274595Y6651631D01*
D02*
G37*
G36*
X1944445D02*
X1943688Y6647823D01*
X1936134Y6634739D01*
X1933524Y6625000D01*
X2020000D01*
Y6575000D01*
X1933524D01*
X1936134Y6565261D01*
X1937612Y6562700D01*
X1930280Y6550000D01*
X985843D01*
X977786Y6559817D01*
X978958Y6565710D01*
Y6568411D01*
X1050273Y6639726D01*
X1050274Y6639727D01*
X1062696Y6655916D01*
X1066182Y6664331D01*
X1937105D01*
X1944445Y6651631D01*
D02*
G37*
G36*
X73974Y6664643D02*
X98643Y6639974D01*
X128857Y6622530D01*
X162556Y6613500D01*
X197444D01*
X231143Y6622530D01*
X261357Y6639974D01*
X286026Y6664643D01*
X287867Y6667831D01*
X388326D01*
X390345Y6666995D01*
X410577Y6664331D01*
X667255D01*
X674596Y6651631D01*
X671146Y6634290D01*
Y6625000D01*
X760300D01*
Y6575000D01*
X671146D01*
Y6565710D01*
X672318Y6559817D01*
X664262Y6550000D01*
X53732D01*
Y6674302D01*
X66432Y6677705D01*
X73974Y6664643D01*
D02*
G37*
G36*
X7946268Y6340009D02*
Y6307639D01*
X7942499Y6296500D01*
X7825000D01*
Y6154000D01*
X7800000D01*
Y6129000D01*
X7657500D01*
Y6059641D01*
X7645767Y6054781D01*
X7610931Y6089617D01*
Y6112500D01*
X7607244Y6131033D01*
X7596746Y6146745D01*
X7581034Y6157244D01*
X7562500Y6160931D01*
X7427501D01*
X7408967Y6157244D01*
X7393255Y6146745D01*
X7382756Y6131033D01*
X7379070Y6112500D01*
Y6027500D01*
X7382756Y6008967D01*
X7393255Y5993255D01*
X7408967Y5982756D01*
X7427501Y5979070D01*
X7500383D01*
X7613679Y5865774D01*
X7629868Y5853351D01*
X7648721Y5845542D01*
X7668953Y5842879D01*
X7679981D01*
X7693974Y5818643D01*
X7718643Y5793974D01*
X7742271Y5780332D01*
Y5765667D01*
X7718643Y5752026D01*
X7693974Y5727357D01*
X7690112Y5720669D01*
X7610931D01*
Y5792500D01*
X7607244Y5811034D01*
X7596746Y5826746D01*
X7581034Y5837244D01*
X7562500Y5840931D01*
X7427501D01*
X7408967Y5837244D01*
X7393255Y5826746D01*
X7382756Y5811034D01*
X7379070Y5792500D01*
Y5720669D01*
X7120931D01*
Y5792500D01*
X7117244Y5811034D01*
X7106746Y5826746D01*
X7091034Y5837244D01*
X7072500Y5840931D01*
X6999617D01*
X6715274Y6125274D01*
X6699085Y6137696D01*
X6680232Y6145505D01*
X6660000Y6148169D01*
X6294615D01*
X6281034Y6157244D01*
X6262500Y6160931D01*
X6127501D01*
X6108967Y6157244D01*
X6093255Y6146745D01*
X6082756Y6131033D01*
X6079070Y6112500D01*
Y6027500D01*
X6082756Y6008967D01*
X6093255Y5993255D01*
X6108967Y5982756D01*
X6127501Y5979070D01*
X6262500D01*
X6281034Y5982756D01*
X6294615Y5991831D01*
X6627622D01*
X6886084Y5733369D01*
X6881862Y5720669D01*
X6310931D01*
Y5792500D01*
X6307244Y5811034D01*
X6296746Y5826746D01*
X6281034Y5837244D01*
X6262500Y5840931D01*
X6127501D01*
X6108967Y5837244D01*
X6093255Y5826746D01*
X6082756Y5811034D01*
X6079070Y5792500D01*
Y5720669D01*
X5820931D01*
Y5792500D01*
X5817244Y5811034D01*
X5806746Y5826746D01*
X5791034Y5837244D01*
X5772500Y5840931D01*
X5699617D01*
X5415274Y6125274D01*
X5399085Y6137696D01*
X5380232Y6145505D01*
X5360000Y6148169D01*
X4994615D01*
X4981034Y6157244D01*
X4962500Y6160931D01*
X4827501D01*
X4808967Y6157244D01*
X4793255Y6146745D01*
X4782756Y6131033D01*
X4779070Y6112500D01*
Y6027500D01*
X4782756Y6008967D01*
X4793255Y5993255D01*
X4808967Y5982756D01*
X4827501Y5979070D01*
X4962500D01*
X4981034Y5982756D01*
X4994615Y5991831D01*
X5327622D01*
X5586084Y5733369D01*
X5581862Y5720669D01*
X5010931D01*
Y5792500D01*
X5007244Y5811034D01*
X4996746Y5826746D01*
X4981034Y5837244D01*
X4962500Y5840931D01*
X4827501D01*
X4808967Y5837244D01*
X4793255Y5826746D01*
X4782756Y5811034D01*
X4779070Y5792500D01*
Y5720669D01*
X4520931D01*
Y5792500D01*
X4517244Y5811034D01*
X4506746Y5826746D01*
X4491034Y5837244D01*
X4472500Y5840931D01*
X4399617D01*
X4115274Y6125274D01*
X4099085Y6137696D01*
X4080232Y6145505D01*
X4060001Y6148169D01*
X3694615D01*
X3681034Y6157244D01*
X3662500Y6160931D01*
X3527500D01*
X3508967Y6157244D01*
X3493255Y6146745D01*
X3482756Y6131033D01*
X3479070Y6112500D01*
Y6027500D01*
X3482756Y6008967D01*
X3493255Y5993255D01*
X3508967Y5982756D01*
X3527500Y5979070D01*
X3662500D01*
X3681034Y5982756D01*
X3694615Y5991831D01*
X4027622D01*
X4286084Y5733369D01*
X4281862Y5720669D01*
X3710931D01*
Y5792500D01*
X3707244Y5811034D01*
X3696745Y5826746D01*
X3681034Y5837244D01*
X3662500Y5840931D01*
X3527500D01*
X3508967Y5837244D01*
X3493255Y5826746D01*
X3482756Y5811034D01*
X3479070Y5792500D01*
Y5720669D01*
X3220931D01*
Y5792500D01*
X3217244Y5811034D01*
X3206745Y5826746D01*
X3191033Y5837244D01*
X3172500Y5840931D01*
X3099617D01*
X2815274Y6125274D01*
X2799085Y6137696D01*
X2788041Y6142271D01*
X2780232Y6145505D01*
X2760000Y6148169D01*
X2394615D01*
X2381034Y6157244D01*
X2362500Y6160931D01*
X2227500D01*
X2208967Y6157244D01*
X2193255Y6146745D01*
X2182756Y6131033D01*
X2179070Y6112500D01*
Y6027500D01*
X2182756Y6008967D01*
X2193255Y5993255D01*
X2208967Y5982756D01*
X2227500Y5979070D01*
X2362500D01*
X2381034Y5982756D01*
X2394615Y5991831D01*
X2727622D01*
X2986084Y5733369D01*
X2981862Y5720669D01*
X2410931D01*
Y5792500D01*
X2407244Y5811034D01*
X2396746Y5826746D01*
X2381034Y5837244D01*
X2362500Y5840931D01*
X2227500D01*
X2208967Y5837244D01*
X2193255Y5826746D01*
X2182756Y5811034D01*
X2179070Y5792500D01*
Y5720669D01*
X1920931D01*
Y5792500D01*
X1917244Y5811034D01*
X1906745Y5826746D01*
X1891034Y5837244D01*
X1872500Y5840931D01*
X1799617D01*
X1515274Y6125274D01*
X1499085Y6137696D01*
X1488041Y6142271D01*
X1480232Y6145505D01*
X1460000Y6148169D01*
X1094615D01*
X1081034Y6157244D01*
X1062500Y6160931D01*
X927501D01*
X908967Y6157244D01*
X893255Y6146745D01*
X882756Y6131033D01*
X879070Y6112500D01*
Y6027500D01*
X882756Y6008967D01*
X893255Y5993255D01*
X908967Y5982756D01*
X927501Y5979070D01*
X1062500D01*
X1081034Y5982756D01*
X1094615Y5991831D01*
X1427622D01*
X1686084Y5733369D01*
X1681862Y5720669D01*
X1110931D01*
Y5792500D01*
X1107244Y5811034D01*
X1096746Y5826746D01*
X1081034Y5837244D01*
X1062500Y5840931D01*
X927501D01*
X908967Y5837244D01*
X893255Y5826746D01*
X882756Y5811034D01*
X879070Y5792500D01*
Y5720669D01*
X620931D01*
Y5792500D01*
X617244Y5811034D01*
X606746Y5826746D01*
X591034Y5837244D01*
X572500Y5840931D01*
X492617D01*
X378274Y5955274D01*
X362085Y5967696D01*
X343232Y5975505D01*
X323000Y5978169D01*
X287867D01*
X286026Y5981357D01*
X268583Y5998800D01*
X273843Y6011500D01*
X322500D01*
Y6129000D01*
X180000D01*
Y6154000D01*
X155000D01*
Y6296500D01*
X53732D01*
Y6350948D01*
X62724Y6359917D01*
X7946268Y6340009D01*
D02*
G37*
G36*
X7174596Y5551631D02*
X7171146Y5534290D01*
Y5525000D01*
X7260300D01*
Y5475000D01*
X7171146D01*
Y5465710D01*
X7171576Y5463550D01*
X7163519Y5453733D01*
X6156436D01*
X6148379Y5463550D01*
X6148808Y5465710D01*
Y5468411D01*
X6244729Y5564331D01*
X7167255D01*
X7174596Y5551631D01*
D02*
G37*
G36*
X5844446D02*
X5840996Y5534290D01*
Y5525000D01*
X5930150D01*
Y5475000D01*
X5840996D01*
Y5465710D01*
X5841426Y5463550D01*
X5833369Y5453733D01*
X5000000D01*
X4981235Y5450000D01*
X4885843D01*
X4877786Y5459817D01*
X4878958Y5465710D01*
Y5468411D01*
X4950274Y5539727D01*
X4962697Y5555916D01*
X4966182Y5564331D01*
X5837105D01*
X5844446Y5551631D01*
D02*
G37*
G36*
X4574595D02*
X4571146Y5534290D01*
Y5525000D01*
X4660300D01*
Y5475000D01*
X4571146D01*
Y5465710D01*
X4572318Y5459817D01*
X4564261Y5450000D01*
X3555693D01*
X3547636Y5459817D01*
X3548808Y5465710D01*
Y5468411D01*
X3644729Y5564331D01*
X4567255D01*
X4574595Y5551631D01*
D02*
G37*
G36*
X3244445D02*
X3240996Y5534290D01*
Y5525000D01*
X3330000D01*
Y5475000D01*
X3240996D01*
Y5465710D01*
X3242168Y5459817D01*
X3234111Y5450000D01*
X2255693D01*
X2247636Y5459817D01*
X2248808Y5465710D01*
Y5468411D01*
X2344729Y5564331D01*
X3237105D01*
X3244445Y5551631D01*
D02*
G37*
G36*
X1944445D02*
X1940996Y5534290D01*
Y5525000D01*
X2030150D01*
Y5475000D01*
X1940996D01*
Y5465710D01*
X1942168Y5459817D01*
X1934111Y5450000D01*
X955693D01*
X947636Y5459817D01*
X948808Y5465710D01*
Y5468411D01*
X1044728Y5564331D01*
X1937105D01*
X1944445Y5551631D01*
D02*
G37*
G36*
X73974Y5564643D02*
X98643Y5539974D01*
X128857Y5522530D01*
X162556Y5513500D01*
X197444D01*
X231143Y5522530D01*
X261357Y5539974D01*
X285714Y5564331D01*
X637105D01*
X644445Y5551631D01*
X640996Y5534290D01*
Y5525000D01*
X730150D01*
Y5475000D01*
X640996D01*
Y5465710D01*
X642168Y5459817D01*
X634111Y5450000D01*
X53732D01*
Y5574302D01*
X66432Y5577705D01*
X73974Y5564643D01*
D02*
G37*
G36*
X4946267Y53732D02*
X3160783D01*
Y608331D01*
X3207266D01*
X3227497Y610995D01*
X3235306Y614229D01*
X3246350Y618804D01*
X3262540Y631226D01*
X3306474Y675160D01*
X3318896Y691350D01*
X3326705Y710203D01*
X3329369Y730434D01*
Y1313821D01*
X3377984Y1362436D01*
X3390534Y1357026D01*
Y1320400D01*
X3480200D01*
Y1422766D01*
X3456274D01*
X3450864Y1435316D01*
X3486779Y1471231D01*
X4010258D01*
X4013661Y1458531D01*
X4000310Y1450823D01*
X3979177Y1429691D01*
X3964235Y1403809D01*
X3958181Y1381214D01*
X3852000D01*
X3827809Y1376402D01*
X3807301Y1362699D01*
X3793598Y1342191D01*
X3788786Y1318000D01*
Y1275000D01*
X3965001D01*
Y1250000D01*
X3990001D01*
Y1118786D01*
X4078000D01*
X4102191Y1123598D01*
X4122700Y1137301D01*
X4136403Y1157809D01*
X4138624Y1168974D01*
X4151572D01*
X4153017Y1161711D01*
X4164510Y1144510D01*
X4181711Y1133017D01*
X4202000Y1128981D01*
X4324439D01*
Y959172D01*
X4324216Y959000D01*
X4305785D01*
X4287981Y954229D01*
X4272019Y945014D01*
X4258986Y931981D01*
X4249771Y916019D01*
X4248482Y911210D01*
X4246239Y909425D01*
X4234003Y906243D01*
X4220286Y915409D01*
X4217290Y916005D01*
X4213681Y919614D01*
X4197719Y928829D01*
X4179916Y933600D01*
X4161484D01*
X4143681Y928829D01*
X4127719Y919614D01*
X4114653Y917653D01*
X4083167Y949139D01*
X4078429Y966819D01*
X4069214Y982781D01*
X4056181Y995814D01*
X4040219Y1005029D01*
X4022416Y1009800D01*
X4003984D01*
X3986181Y1005029D01*
X3970219Y995814D01*
X3957186Y982781D01*
X3953938Y977155D01*
X3938067Y975065D01*
X3858354Y1054778D01*
X3840161Y1066934D01*
X3818701Y1071202D01*
X3609670D01*
Y1133475D01*
X3605826Y1152799D01*
X3594881Y1169180D01*
Y1180993D01*
X3602090Y1185810D01*
X3615246Y1205499D01*
X3619866Y1228725D01*
Y1270400D01*
X3505200D01*
X3390534D01*
Y1228725D01*
X3395154Y1205499D01*
X3408310Y1185810D01*
X3415519Y1180993D01*
Y1169180D01*
X3404574Y1152799D01*
X3400730Y1133475D01*
Y1000125D01*
X3404574Y980801D01*
X3415519Y964419D01*
X3431901Y953474D01*
X3451225Y949630D01*
X3559175D01*
X3578499Y953474D01*
X3586841Y959048D01*
X3795473D01*
X3894628Y859892D01*
X3897347Y855823D01*
X3897471Y855700D01*
X3892210Y843000D01*
X3855000D01*
Y833005D01*
X3839995D01*
Y735500D01*
X3805000D01*
Y843000D01*
X3750000D01*
Y840571D01*
X3743000Y835473D01*
Y678000D01*
Y525428D01*
X3744105Y525574D01*
X3768432Y535650D01*
X3789321Y551679D01*
X3801264Y567244D01*
X3815619Y569830D01*
X3817729Y569267D01*
X3833016Y560441D01*
X3851455Y555500D01*
X3870545D01*
X3888984Y560441D01*
X3905516Y569986D01*
X3919015Y583484D01*
X3928559Y600016D01*
X3933500Y618455D01*
Y637545D01*
X3933850Y638000D01*
X4018923D01*
Y627174D01*
X4023191Y605714D01*
X4035347Y587521D01*
X4052921Y569947D01*
X4071114Y557791D01*
X4092574Y553523D01*
X4148026D01*
X4169486Y557791D01*
X4187679Y569947D01*
X4214653Y596921D01*
X4226809Y615114D01*
X4231077Y636574D01*
Y638000D01*
X4366151D01*
X4366500Y637545D01*
Y618455D01*
X4371441Y600016D01*
X4380986Y583484D01*
X4394484Y569986D01*
X4411016Y560441D01*
X4429455Y555500D01*
X4448545D01*
X4466984Y560441D01*
X4482271Y569267D01*
X4484381Y569830D01*
X4498736Y567244D01*
X4510679Y551679D01*
X4531569Y535650D01*
X4555895Y525574D01*
X4557000Y525428D01*
Y678000D01*
Y835473D01*
X4550000Y840571D01*
Y843000D01*
X4455561D01*
Y1137876D01*
X4465490Y1144510D01*
X4476983Y1161711D01*
X4481019Y1182000D01*
Y1318000D01*
X4476983Y1338289D01*
X4465490Y1355490D01*
X4448289Y1366983D01*
X4428000Y1371019D01*
X4393169D01*
Y1649362D01*
X4399466D01*
X4417859Y1653021D01*
X4433452Y1663440D01*
X4443871Y1679033D01*
X4446517Y1692331D01*
X4564500D01*
X4584732Y1694995D01*
X4592541Y1698230D01*
X4603585Y1702804D01*
X4619774Y1715226D01*
X4703474Y1798926D01*
X4715896Y1815116D01*
X4723705Y1833968D01*
X4725037Y1844084D01*
X4726369Y1854200D01*
X4726369Y1854202D01*
Y1877938D01*
X4737250D01*
X4758417Y1882148D01*
X4776362Y1894138D01*
X4778830Y1897831D01*
X4807466D01*
X4827697Y1900495D01*
X4835506Y1903729D01*
X4846550Y1908304D01*
X4862740Y1920726D01*
X4906674Y1964661D01*
X4919096Y1980850D01*
X4926905Y1999703D01*
X4929569Y2019934D01*
Y3032600D01*
X4926905Y3052832D01*
X4919096Y3071685D01*
X4906674Y3087874D01*
X4775547Y3219000D01*
X4776500Y3222556D01*
Y3257444D01*
X4767470Y3291143D01*
X4750026Y3321357D01*
X4725357Y3346026D01*
X4695143Y3363470D01*
X4661444Y3372500D01*
X4626556D01*
X4623000Y3371547D01*
X3875274Y4119274D01*
X3859085Y4131696D01*
X3848041Y4136271D01*
X3840232Y4139505D01*
X3820000Y4142169D01*
X2540113D01*
X2522372Y4159910D01*
X2519074Y4164208D01*
X2407757Y4275525D01*
X2415000Y4302556D01*
Y4337444D01*
X2405970Y4371143D01*
X2388526Y4401357D01*
X2363857Y4426026D01*
X2333643Y4443470D01*
X2299944Y4452500D01*
X2265056D01*
X2231357Y4443470D01*
X2201143Y4426026D01*
X2176474Y4401357D01*
X2159030Y4371143D01*
X2150000Y4337444D01*
Y4302556D01*
X2159030Y4268857D01*
X2176474Y4238643D01*
X2201143Y4213974D01*
X2231357Y4196530D01*
X2265056Y4187500D01*
X2274687D01*
X2405228Y4056959D01*
X2408526Y4052660D01*
X2452460Y4008726D01*
X2468650Y3996304D01*
X2487503Y3988495D01*
X2507734Y3985831D01*
X3787622D01*
X4389220Y3384233D01*
X4384359Y3372500D01*
X4372556D01*
X4338857Y3363470D01*
X4308643Y3346026D01*
X4291200Y3328583D01*
X4278500Y3333843D01*
Y3382500D01*
X4161000D01*
Y3240000D01*
Y3097500D01*
X4278500D01*
Y3146157D01*
X4291200Y3151417D01*
X4308643Y3133974D01*
X4311831Y3132133D01*
Y2962379D01*
X4147621Y2798169D01*
X3730000D01*
X3709768Y2795505D01*
X3690915Y2787696D01*
X3674726Y2775274D01*
X3434726Y2535274D01*
X3422304Y2519084D01*
X3417729Y2508040D01*
X3414495Y2500231D01*
X3411831Y2480000D01*
Y1802378D01*
X3338728Y1729276D01*
X3326106Y1732969D01*
X3325506Y1734014D01*
X3330000Y1750784D01*
Y1769216D01*
X3325230Y1787019D01*
X3316014Y1802981D01*
X3302981Y1816014D01*
X3298415Y1818650D01*
Y1831350D01*
X3302981Y1833986D01*
X3316014Y1847019D01*
X3325230Y1862981D01*
X3330000Y1880784D01*
Y1899216D01*
X3325230Y1917019D01*
X3316014Y1932981D01*
X3302981Y1946014D01*
X3287019Y1955230D01*
X3269339Y1959967D01*
X2954453Y2274853D01*
X2936260Y2287009D01*
X2914800Y2291277D01*
X1542028D01*
X1523101Y2310204D01*
X1527696Y2323570D01*
X1541581Y2331586D01*
X1554614Y2344619D01*
X1563829Y2360581D01*
X1568600Y2378384D01*
Y2396816D01*
X1563829Y2414619D01*
X1554614Y2430581D01*
X1541581Y2443614D01*
X1525619Y2452829D01*
X1507816Y2457600D01*
X1500696D01*
X1416200Y2542096D01*
Y2549216D01*
X1411429Y2567019D01*
X1402214Y2582981D01*
X1389181Y2596014D01*
X1374022Y2604766D01*
X1372367Y2606418D01*
X1370027Y2618731D01*
X1392716Y2641420D01*
X1976984D01*
X2076500Y2541904D01*
Y2523468D01*
X2081952Y2503121D01*
X2092484Y2484879D01*
X2107379Y2469984D01*
X2125621Y2459452D01*
X2145968Y2454000D01*
X2167032D01*
X2187379Y2459452D01*
X2205621Y2469984D01*
X2220516Y2484879D01*
X2231048Y2503121D01*
X2236500Y2523468D01*
Y2544532D01*
X2231048Y2564879D01*
X2220516Y2583121D01*
X2205621Y2598016D01*
X2187379Y2608548D01*
X2167032Y2614000D01*
X2148596D01*
X2092909Y2669687D01*
X2097769Y2681420D01*
X2317984D01*
X2457500Y2541904D01*
Y2523468D01*
X2462952Y2503121D01*
X2473484Y2484879D01*
X2488379Y2469984D01*
X2506621Y2459452D01*
X2526968Y2454000D01*
X2548032D01*
X2568379Y2459452D01*
X2586621Y2469984D01*
X2601516Y2484879D01*
X2612048Y2503121D01*
X2617500Y2523468D01*
Y2544532D01*
X2612048Y2564879D01*
X2601516Y2583121D01*
X2586621Y2598016D01*
X2568379Y2608548D01*
X2548032Y2614000D01*
X2529596D01*
X2375148Y2768448D01*
X2358609Y2779499D01*
X2339100Y2783379D01*
X1335400D01*
X1315891Y2779499D01*
X1299352Y2768448D01*
X1221731Y2690827D01*
X1209418Y2693167D01*
X1207766Y2694822D01*
X1199014Y2709981D01*
X1185981Y2723014D01*
X1170019Y2732229D01*
X1152216Y2737000D01*
X1145096D01*
X895988Y2986108D01*
Y3383162D01*
X892107Y3402671D01*
X881056Y3419210D01*
X588290Y3711977D01*
X608026Y3731713D01*
X624811Y3760787D01*
X633500Y3793214D01*
Y3826786D01*
X624811Y3859213D01*
X608026Y3888287D01*
X584287Y3912026D01*
X555213Y3928811D01*
X548351Y3930650D01*
Y3943350D01*
X555213Y3945189D01*
X584287Y3961974D01*
X608026Y3985713D01*
X624811Y4014787D01*
X633500Y4047214D01*
Y4080786D01*
X624811Y4113213D01*
X608026Y4142287D01*
X584287Y4166026D01*
X555213Y4182811D01*
X548351Y4184650D01*
Y4197350D01*
X555213Y4199189D01*
X584287Y4215974D01*
X608026Y4239713D01*
X624811Y4268787D01*
X633500Y4301214D01*
Y4334786D01*
X624811Y4367213D01*
X608026Y4396287D01*
X584287Y4420026D01*
X555213Y4436811D01*
X548351Y4438650D01*
Y4451350D01*
X555213Y4453189D01*
X584287Y4469974D01*
X608026Y4493713D01*
X624811Y4522787D01*
X633500Y4555214D01*
Y4588786D01*
X624811Y4621213D01*
X618627Y4631924D01*
X624978Y4642923D01*
X865772D01*
X895233Y4613461D01*
X899971Y4595781D01*
X909186Y4579819D01*
X922219Y4566786D01*
X938181Y4557571D01*
X955984Y4552800D01*
X974416D01*
X992219Y4557571D01*
X1008181Y4566786D01*
X1021214Y4579819D01*
X1030429Y4595781D01*
X1035200Y4613584D01*
Y4632016D01*
X1030429Y4649819D01*
X1021214Y4665781D01*
X1008181Y4678814D01*
X992219Y4688029D01*
X974539Y4692767D01*
X928653Y4738653D01*
X910460Y4750809D01*
X889000Y4755077D01*
X624978D01*
X618627Y4766076D01*
X624811Y4776787D01*
X633500Y4809214D01*
Y4842786D01*
X624811Y4875213D01*
X608026Y4904287D01*
X584287Y4928026D01*
X555213Y4944811D01*
X548351Y4946650D01*
Y4959350D01*
X555213Y4961189D01*
X584287Y4977974D01*
X608026Y5001713D01*
X624811Y5030787D01*
X633500Y5063214D01*
Y5096786D01*
X624811Y5129213D01*
X616717Y5143233D01*
X623067Y5154231D01*
X657441D01*
X1056500Y4755173D01*
Y4694280D01*
X1246859D01*
X1251719Y4682547D01*
X1104726Y4535554D01*
X1092303Y4519365D01*
X1084494Y4500512D01*
X1081831Y4480280D01*
Y4415720D01*
X1056500D01*
Y4244280D01*
X1263500D01*
Y4315372D01*
X1264780Y4316318D01*
X1266751Y4316200D01*
X1268472Y4315688D01*
X1277480Y4306371D01*
Y4147760D01*
X1285031D01*
Y3985770D01*
X1276025D01*
X1256701Y3981927D01*
X1240319Y3970981D01*
X1229373Y3954599D01*
X1225530Y3935275D01*
Y3801925D01*
X1229373Y3782602D01*
X1240319Y3766220D01*
X1246729Y3761937D01*
Y3746663D01*
X1240319Y3742381D01*
X1229373Y3725999D01*
X1225530Y3706675D01*
Y3573325D01*
X1229373Y3554002D01*
X1240319Y3537620D01*
X1256701Y3526674D01*
X1276025Y3522830D01*
X1383975D01*
X1403298Y3526674D01*
X1419680Y3537620D01*
X1430626Y3554002D01*
X1434470Y3573325D01*
Y3576321D01*
X1634784D01*
X1723400Y3487704D01*
Y3469268D01*
X1728852Y3448921D01*
X1739384Y3430679D01*
X1754279Y3415784D01*
X1772521Y3405252D01*
X1792868Y3399800D01*
X1813932D01*
X1834279Y3405252D01*
X1852521Y3415784D01*
X1867416Y3430679D01*
X1877948Y3448921D01*
X1883400Y3469268D01*
Y3490332D01*
X1877948Y3510679D01*
X1867416Y3528921D01*
X1852521Y3543816D01*
X1834279Y3554348D01*
X1813932Y3559800D01*
X1795496D01*
X1691948Y3663348D01*
X1675409Y3674399D01*
X1655900Y3678280D01*
X1434470D01*
Y3706675D01*
X1430626Y3725999D01*
X1419680Y3742381D01*
X1413271Y3746663D01*
Y3761937D01*
X1419680Y3766220D01*
X1430626Y3782602D01*
X1434470Y3801925D01*
Y3884044D01*
X1438705Y3894268D01*
X1441368Y3914500D01*
Y4147760D01*
X1448920D01*
Y4315560D01*
X1448920Y4319200D01*
X1457707Y4328260D01*
X1458920D01*
Y4398980D01*
X1363200D01*
Y4423980D01*
X1338200D01*
Y4519700D01*
X1326560D01*
X1321700Y4531433D01*
X1388027Y4597760D01*
X1448920D01*
Y4769200D01*
X1277480D01*
Y4718877D01*
X1276200Y4718021D01*
X1263500Y4724810D01*
Y4865720D01*
X1167047D01*
X745467Y5287300D01*
X745606Y5290637D01*
X748784Y5300000D01*
X938179D01*
X942226Y5294726D01*
X958416Y5282304D01*
X977269Y5274495D01*
X997500Y5271831D01*
X1522500D01*
X1542731Y5274495D01*
X1561584Y5282304D01*
X1577774Y5294726D01*
X1581821Y5300000D01*
X1718179D01*
X1722226Y5294726D01*
X1738416Y5282304D01*
X1757269Y5274495D01*
X1777500Y5271831D01*
X2302500D01*
X2322731Y5274495D01*
X2341584Y5282304D01*
X2357774Y5294726D01*
X2361821Y5300000D01*
X2548180D01*
X2552227Y5294726D01*
X2568416Y5282304D01*
X2587269Y5274495D01*
X2607500Y5271831D01*
X3132500D01*
X3152732Y5274495D01*
X3171584Y5282304D01*
X3187774Y5294726D01*
X3191821Y5300000D01*
X3378179D01*
X3382226Y5294726D01*
X3398416Y5282304D01*
X3417269Y5274495D01*
X3437500Y5271831D01*
X3962500D01*
X3982731Y5274495D01*
X4001584Y5282304D01*
X4017774Y5294726D01*
X4021821Y5300000D01*
X4178179D01*
X4182226Y5294726D01*
X4198416Y5282304D01*
X4217268Y5274495D01*
X4237500Y5271831D01*
X4762500D01*
X4782731Y5274495D01*
X4801584Y5282304D01*
X4817773Y5294726D01*
X4821820Y5300000D01*
X4946267D01*
Y53732D01*
D02*
G37*
G36*
X4537974Y3158643D02*
X4562643Y3133974D01*
X4592857Y3116530D01*
X4626556Y3107500D01*
X4661444D01*
X4665000Y3108453D01*
X4773231Y3000222D01*
Y2401424D01*
X4762031Y2395438D01*
X4758417Y2397852D01*
X4737250Y2402063D01*
X4657985D01*
X4555274Y2504774D01*
X4539085Y2517196D01*
X4520232Y2525005D01*
X4500000Y2527669D01*
X4332139D01*
X4330088Y2537985D01*
X4318588Y2555196D01*
X4301376Y2566696D01*
X4281074Y2570734D01*
X3978926D01*
X3958624Y2566696D01*
X3941413Y2555196D01*
X3929913Y2537985D01*
X3925874Y2517683D01*
Y2381318D01*
X3929913Y2361016D01*
X3941413Y2343805D01*
X3958624Y2332304D01*
X3978926Y2328266D01*
X4051831D01*
Y1871999D01*
X4045129Y1861967D01*
X4041470Y1843574D01*
Y1697426D01*
X4045129Y1679033D01*
X4051831Y1669002D01*
Y1647779D01*
X4031621Y1627569D01*
X3948260D01*
X3947009Y1640269D01*
X3963761Y1643601D01*
X3982662Y1656230D01*
X3995291Y1675131D01*
X3999726Y1697426D01*
Y1721534D01*
X4006765Y1733726D01*
X4011805Y1752536D01*
X3790195D01*
X3795235Y1733726D01*
X3802274Y1721534D01*
Y1697426D01*
X3806709Y1675131D01*
X3819338Y1656230D01*
X3838239Y1643601D01*
X3854991Y1640269D01*
X3853740Y1627569D01*
X3474710D01*
X3469850Y1639302D01*
X3545274Y1714726D01*
X3557696Y1730915D01*
X3565505Y1749768D01*
X3568169Y1770000D01*
Y2447621D01*
X3762379Y2641831D01*
X4180000D01*
X4200231Y2644495D01*
X4219084Y2652304D01*
X4235273Y2664726D01*
X4445274Y2874727D01*
X4457696Y2890916D01*
X4465505Y2909769D01*
X4468169Y2930000D01*
X4468169Y2930002D01*
Y3132133D01*
X4471357Y3133974D01*
X4496026Y3158643D01*
X4509668Y3182271D01*
X4524333D01*
X4537974Y3158643D01*
D02*
G37*
G36*
X794029Y3362046D02*
Y2964992D01*
X797909Y2945483D01*
X808960Y2928944D01*
X1073000Y2664904D01*
Y2657784D01*
X1077771Y2639981D01*
X1086986Y2624019D01*
X1100019Y2610986D01*
X1115178Y2602234D01*
X1116833Y2600582D01*
X1119173Y2588269D01*
X871421Y2340517D01*
X861921Y2350016D01*
X843679Y2360548D01*
X823332Y2366000D01*
X802268D01*
X781921Y2360548D01*
X763679Y2350016D01*
X748784Y2335121D01*
X738252Y2316879D01*
X732800Y2296532D01*
Y2275468D01*
X738252Y2255121D01*
X748784Y2236879D01*
X763679Y2221984D01*
X781921Y2211452D01*
X802268Y2206000D01*
X823332D01*
X843679Y2211452D01*
X861921Y2221984D01*
X874957Y2235020D01*
X889000D01*
X908509Y2238901D01*
X925048Y2249952D01*
X1069490Y2394394D01*
X1083270Y2390214D01*
X1083271Y2390208D01*
X1078984Y2385921D01*
X1068452Y2367679D01*
X1063000Y2347332D01*
Y2326268D01*
X1068452Y2305921D01*
X1078984Y2287679D01*
X1093879Y2272784D01*
X1112121Y2262252D01*
X1132468Y2256800D01*
X1153532D01*
X1173879Y2262252D01*
X1192121Y2272784D01*
X1207016Y2287679D01*
X1217548Y2305921D01*
X1223000Y2326268D01*
Y2347332D01*
X1217548Y2367679D01*
X1207016Y2385921D01*
X1193980Y2398957D01*
Y2442684D01*
X1267469Y2516173D01*
X1279782Y2513833D01*
X1281434Y2512178D01*
X1290186Y2497019D01*
X1298190Y2489015D01*
X1297201Y2473779D01*
X1295879Y2473016D01*
X1280984Y2458121D01*
X1270452Y2439879D01*
X1265000Y2419532D01*
Y2398468D01*
X1270452Y2378121D01*
X1280984Y2359879D01*
X1295363Y2345500D01*
X1280984Y2331121D01*
X1270452Y2312879D01*
X1265000Y2292532D01*
Y2271468D01*
X1270452Y2251121D01*
X1280984Y2232879D01*
X1295879Y2217984D01*
X1314121Y2207452D01*
X1334468Y2202000D01*
X1345694D01*
X1428347Y2119347D01*
X1446540Y2107191D01*
X1468000Y2102923D01*
X2837772D01*
X3190033Y1750661D01*
X3194771Y1732981D01*
X3203986Y1717019D01*
X3217019Y1703986D01*
X3232981Y1694771D01*
X3250784Y1690000D01*
X3269216D01*
X3285986Y1694494D01*
X3287031Y1693894D01*
X3290724Y1681272D01*
X3247006Y1637553D01*
X3240879Y1634016D01*
X3225984Y1619121D01*
X3215452Y1600879D01*
X3210000Y1580532D01*
Y1559468D01*
X3215452Y1539121D01*
X3225984Y1520879D01*
X3240879Y1505984D01*
X3259121Y1495452D01*
X3269234Y1492742D01*
X3273030Y1478577D01*
X3195926Y1401474D01*
X3183504Y1385285D01*
X3175695Y1366432D01*
X3173031Y1346200D01*
Y764669D01*
X3036642D01*
X3029310Y777369D01*
X3033866Y785261D01*
X3036476Y795000D01*
X2950000D01*
Y845000D01*
X3036476D01*
X3033866Y854738D01*
X3027212Y866264D01*
Y894520D01*
X3031185Y901402D01*
X3034829Y915000D01*
X2938000D01*
Y965000D01*
X3034829D01*
X3031185Y978598D01*
X3018020Y1001401D01*
X3016169Y1003252D01*
Y1292000D01*
X3013505Y1312232D01*
X3005696Y1331084D01*
X2993274Y1347274D01*
X2795547Y1545000D01*
X2685000D01*
Y1434453D01*
X2859831Y1259621D01*
Y1003252D01*
X2857980Y1001401D01*
X2857850Y1001175D01*
X2730728D01*
X2722591Y1035069D01*
X2704117Y1079669D01*
X2678893Y1120831D01*
X2647540Y1157540D01*
X2610831Y1188893D01*
X2569669Y1214117D01*
X2525069Y1232591D01*
X2508850Y1236484D01*
X2506465Y1237058D01*
X2505663Y1237594D01*
X2496542Y1239440D01*
X2496535Y1239409D01*
X2485100Y1241684D01*
X2464538Y1237594D01*
X2447106Y1225946D01*
X2437025Y1210859D01*
X2430972Y1209722D01*
X2429028D01*
X2422975Y1210859D01*
X2412894Y1225946D01*
X2395462Y1237594D01*
X2374900Y1241684D01*
X2363465Y1239409D01*
X2363458Y1239440D01*
X2354337Y1237594D01*
X2353535Y1237058D01*
X2351150Y1236485D01*
X2351121Y1236478D01*
X2334931Y1232591D01*
X2290330Y1214117D01*
X2249169Y1188893D01*
X2212460Y1157540D01*
X2181107Y1120831D01*
X2155883Y1079669D01*
X2137409Y1035069D01*
X2129272Y1001175D01*
X1988103D01*
X1977261Y1012018D01*
X1956739Y1023866D01*
X1933849Y1030000D01*
X1918515D01*
X1865257Y1083257D01*
X1845411Y1096519D01*
X1822000Y1101175D01*
X1784470D01*
Y1106675D01*
X1780626Y1125999D01*
X1769680Y1142380D01*
X1753299Y1153326D01*
X1733975Y1157170D01*
X1626025D01*
X1606701Y1153326D01*
X1590319Y1142380D01*
X1579374Y1125999D01*
X1575530Y1106675D01*
Y1073175D01*
X1412441D01*
X1407581Y1084909D01*
X1411016Y1088344D01*
X1421878Y1107156D01*
X1427500Y1128139D01*
Y1149861D01*
X1421878Y1170844D01*
X1411016Y1189656D01*
X1395656Y1205016D01*
X1376844Y1215878D01*
X1355861Y1221500D01*
X1334139D01*
X1313156Y1215878D01*
X1294344Y1205016D01*
X1279307Y1189980D01*
X1189800D01*
X1170291Y1186099D01*
X1153752Y1175048D01*
X944084Y965380D01*
X860225D01*
X858986Y967525D01*
X866319Y980225D01*
X889000D01*
X912411Y984881D01*
X932257Y998143D01*
X1789105Y1854990D01*
X1802366Y1874836D01*
X1806776Y1897009D01*
X1814001Y1901180D01*
X1832620Y1919799D01*
X1845785Y1942602D01*
X1852600Y1968035D01*
Y1994365D01*
X1845785Y2019798D01*
X1832620Y2042601D01*
X1814001Y2061220D01*
X1791198Y2074385D01*
X1765765Y2081200D01*
X1739435D01*
X1714002Y2074385D01*
X1691199Y2061220D01*
X1672580Y2042601D01*
X1659415Y2019798D01*
X1652600Y1994365D01*
Y1968035D01*
X1659415Y1942602D01*
X1672580Y1919799D01*
X1676732Y1915647D01*
X1655559Y1894473D01*
X1642967Y1896131D01*
X1638816Y1903321D01*
X1623921Y1918216D01*
X1605679Y1928748D01*
X1585332Y1934200D01*
X1564268D01*
X1543921Y1928748D01*
X1525679Y1918216D01*
X1519995Y1912532D01*
X1508073Y1920499D01*
X1488564Y1924380D01*
X882800D01*
X868615Y1921558D01*
X862358Y1933263D01*
X906117Y1977020D01*
X1282842D01*
X1295879Y1963984D01*
X1314121Y1953452D01*
X1334468Y1948000D01*
X1355532D01*
X1375879Y1953452D01*
X1394121Y1963984D01*
X1409016Y1978879D01*
X1419548Y1997121D01*
X1425000Y2017468D01*
Y2038532D01*
X1419548Y2058879D01*
X1409016Y2077121D01*
X1394121Y2092016D01*
X1375879Y2102548D01*
X1355532Y2108000D01*
X1334468D01*
X1314121Y2102548D01*
X1295879Y2092016D01*
X1282842Y2078980D01*
X885000D01*
X865491Y2075099D01*
X848952Y2064048D01*
X627541Y1842637D01*
X614949Y1844295D01*
X608026Y1856287D01*
X584287Y1880026D01*
X555213Y1896811D01*
X548351Y1898650D01*
Y1911350D01*
X555213Y1913189D01*
X584287Y1929974D01*
X608026Y1953713D01*
X624811Y1982787D01*
X633500Y2015214D01*
Y2048786D01*
X624811Y2081213D01*
X608026Y2110287D01*
X584287Y2134026D01*
X555213Y2150811D01*
X547295Y2152933D01*
X548194Y2165840D01*
X575127Y2181390D01*
X598865Y2205128D01*
X615651Y2234202D01*
X624340Y2266629D01*
Y2300201D01*
X615651Y2332629D01*
X598865Y2361702D01*
X575127Y2385441D01*
X546053Y2402227D01*
X539191Y2404065D01*
Y2416765D01*
X546053Y2418604D01*
X575127Y2435390D01*
X598865Y2459128D01*
X615651Y2488202D01*
X624340Y2520629D01*
Y2554201D01*
X615651Y2586629D01*
X598865Y2615702D01*
X575127Y2639441D01*
X546053Y2656227D01*
X539784Y2657906D01*
Y2671054D01*
X555213Y2675189D01*
X584287Y2691974D01*
X608026Y2715713D01*
X624811Y2744787D01*
X633500Y2777214D01*
Y2810786D01*
X624811Y2843213D01*
X608026Y2872287D01*
X584287Y2896026D01*
X555213Y2912811D01*
X548351Y2914650D01*
Y2927350D01*
X555213Y2929189D01*
X584287Y2945974D01*
X608026Y2969713D01*
X624811Y2998787D01*
X633500Y3031214D01*
Y3064786D01*
X624811Y3097213D01*
X608026Y3126287D01*
X584287Y3150026D01*
X555213Y3166811D01*
X548351Y3168650D01*
Y3181350D01*
X555213Y3183189D01*
X584287Y3199974D01*
X608026Y3223713D01*
X624811Y3252787D01*
X633500Y3285214D01*
Y3318786D01*
X624811Y3351213D01*
X608026Y3380287D01*
X584287Y3404026D01*
X555213Y3420811D01*
X548351Y3422650D01*
Y3435350D01*
X555213Y3437189D01*
X584287Y3453974D01*
X608026Y3477713D01*
X624811Y3506787D01*
X626697Y3513824D01*
X638964Y3517111D01*
X794029Y3362046D01*
D02*
G37*
G36*
X2155883Y800330D02*
X2181107Y759169D01*
X2212460Y722460D01*
X2249169Y691107D01*
X2290330Y665883D01*
X2299127Y662240D01*
X2296649Y649784D01*
X1320000D01*
X1304393Y646679D01*
X1291162Y637838D01*
X1282321Y624607D01*
X1279216Y609000D01*
Y53732D01*
X1138585D01*
X1130528Y63550D01*
X1131214Y67000D01*
Y155000D01*
X1000000D01*
Y205000D01*
X1131214D01*
Y293000D01*
X1126402Y317191D01*
X1112699Y337700D01*
X1092191Y351403D01*
X1081026Y353624D01*
Y366572D01*
X1088289Y368017D01*
X1105490Y379510D01*
X1116983Y396711D01*
X1121019Y417000D01*
Y643000D01*
X1120669Y644758D01*
Y705321D01*
X1222179Y806831D01*
X1327634D01*
X1334468Y805000D01*
X1355532D01*
X1362366Y806831D01*
X1574021D01*
X1575530Y805323D01*
Y744725D01*
X1579374Y725401D01*
X1590319Y709019D01*
X1606701Y698074D01*
X1626025Y694230D01*
X1733975D01*
X1753299Y698074D01*
X1769680Y709019D01*
X1780626Y725401D01*
X1782323Y733931D01*
X2042647D01*
X2046868Y732800D01*
X2067932D01*
X2088279Y738252D01*
X2106521Y748784D01*
X2121416Y763679D01*
X2131948Y781921D01*
X2137400Y802268D01*
Y811766D01*
X2150100Y814293D01*
X2155883Y800330D01*
D02*
G37*
G36*
X2531600Y1168600D02*
X2557000D01*
X2645900Y1079700D01*
Y1054300D01*
X2684000Y1016200D01*
Y863800D01*
X2645900Y825700D01*
Y800300D01*
X2595100Y749500D01*
X2582400D01*
X2531600Y698700D01*
X2491752D01*
X2485100Y692048D01*
Y1187951D01*
X2500151D01*
X2506200Y1194000D01*
X2531600Y1168600D01*
D02*
G37*
G36*
X2374900Y692048D02*
X2359848D01*
X2353800Y686000D01*
X2328400Y711400D01*
X2303000D01*
X2214100Y800300D01*
Y825700D01*
X2176000Y863800D01*
Y1016200D01*
X2214100Y1054300D01*
Y1079700D01*
X2264900Y1130500D01*
X2277600D01*
X2328400Y1181300D01*
X2368248D01*
X2374900Y1187951D01*
Y692048D01*
D02*
G37*
%LPC*%
G36*
X7775000Y7396500D02*
X7657500D01*
Y7279000D01*
X7775000D01*
Y7396500D01*
D02*
G37*
G36*
X322500D02*
X205000D01*
Y7279000D01*
X322500D01*
Y7396500D01*
D02*
G37*
G36*
X5772500Y7271126D02*
X5730000D01*
Y7195000D01*
X5831127D01*
Y7212500D01*
X5826664Y7234935D01*
X5813955Y7253955D01*
X5794935Y7266664D01*
X5772500Y7271126D01*
D02*
G37*
G36*
X5680000D02*
X5637501D01*
X5615065Y7266664D01*
X5596045Y7253955D01*
X5583337Y7234935D01*
X5578874Y7212500D01*
Y7195000D01*
X5680000D01*
Y7271126D01*
D02*
G37*
G36*
X3172500D02*
X3130000D01*
Y7195000D01*
X3231126D01*
Y7212500D01*
X3226664Y7234935D01*
X3213955Y7253955D01*
X3194935Y7266664D01*
X3172500Y7271126D01*
D02*
G37*
G36*
X1872500D02*
X1830000D01*
Y7195000D01*
X1931126D01*
Y7212500D01*
X1926664Y7234935D01*
X1913955Y7253955D01*
X1894935Y7266664D01*
X1872500Y7271126D01*
D02*
G37*
G36*
X572500D02*
X530000D01*
Y7195000D01*
X631126D01*
Y7212500D01*
X626664Y7234935D01*
X613955Y7253955D01*
X594935Y7266664D01*
X572500Y7271126D01*
D02*
G37*
G36*
X3080000D02*
X3037500D01*
X3015065Y7266664D01*
X2996045Y7253955D01*
X2983337Y7234935D01*
X2978874Y7212500D01*
Y7195000D01*
X3080000D01*
Y7271126D01*
D02*
G37*
G36*
X1780000D02*
X1737500D01*
X1715065Y7266664D01*
X1696045Y7253955D01*
X1683337Y7234935D01*
X1678874Y7212500D01*
Y7195000D01*
X1780000D01*
Y7271126D01*
D02*
G37*
G36*
X480000D02*
X437501D01*
X415065Y7266664D01*
X396045Y7253955D01*
X383337Y7234935D01*
X378874Y7212500D01*
Y7195000D01*
X480000D01*
Y7271126D01*
D02*
G37*
G36*
X7072500D02*
X7030000D01*
Y7195000D01*
X7131126D01*
Y7212500D01*
X7126664Y7234935D01*
X7113955Y7253955D01*
X7094935Y7266664D01*
X7072500Y7271126D01*
D02*
G37*
G36*
X4472500D02*
X4430000D01*
Y7195000D01*
X4531127D01*
Y7212500D01*
X4526664Y7234935D01*
X4513955Y7253955D01*
X4494935Y7266664D01*
X4472500Y7271126D01*
D02*
G37*
G36*
X6980000D02*
X6937500D01*
X6915065Y7266664D01*
X6896045Y7253955D01*
X6883337Y7234935D01*
X6878874Y7212500D01*
Y7195000D01*
X6980000D01*
Y7271126D01*
D02*
G37*
G36*
X4380000D02*
X4337501D01*
X4315065Y7266664D01*
X4296046Y7253955D01*
X4283337Y7234935D01*
X4278874Y7212500D01*
Y7195000D01*
X4380000D01*
Y7271126D01*
D02*
G37*
G36*
X7131126Y7145000D02*
X7030000D01*
Y7068874D01*
X7072500D01*
X7094935Y7073337D01*
X7113955Y7086045D01*
X7126664Y7105065D01*
X7131126Y7127500D01*
Y7145000D01*
D02*
G37*
G36*
X6980000D02*
X6878874D01*
Y7127500D01*
X6883337Y7105065D01*
X6896045Y7086045D01*
X6915065Y7073337D01*
X6937500Y7068874D01*
X6980000D01*
Y7145000D01*
D02*
G37*
G36*
X5831127Y7145000D02*
X5730000D01*
Y7068874D01*
X5772500D01*
X5794935Y7073337D01*
X5813955Y7086045D01*
X5826664Y7105065D01*
X5831127Y7127500D01*
Y7145000D01*
D02*
G37*
G36*
X5680000D02*
X5578874D01*
Y7127500D01*
X5583337Y7105065D01*
X5596045Y7086045D01*
X5615065Y7073337D01*
X5637501Y7068874D01*
X5680000D01*
Y7145000D01*
D02*
G37*
G36*
X4531127Y7145000D02*
X4430000D01*
Y7068874D01*
X4472500D01*
X4494935Y7073337D01*
X4513955Y7086045D01*
X4526664Y7105065D01*
X4531127Y7127500D01*
Y7145000D01*
D02*
G37*
G36*
X4380000D02*
X4278874D01*
Y7127500D01*
X4283337Y7105065D01*
X4296046Y7086045D01*
X4315065Y7073337D01*
X4337501Y7068874D01*
X4380000D01*
Y7145000D01*
D02*
G37*
G36*
X3231126Y7145000D02*
X3130000D01*
Y7068874D01*
X3172500D01*
X3194935Y7073337D01*
X3213955Y7086045D01*
X3226664Y7105065D01*
X3231126Y7127500D01*
Y7145000D01*
D02*
G37*
G36*
X3080000D02*
X2978874D01*
Y7127500D01*
X2983337Y7105065D01*
X2996045Y7086045D01*
X3015065Y7073337D01*
X3037500Y7068874D01*
X3080000D01*
Y7145000D01*
D02*
G37*
G36*
X1931126D02*
X1830000D01*
Y7068874D01*
X1872500D01*
X1894935Y7073337D01*
X1913955Y7086045D01*
X1926664Y7105065D01*
X1931126Y7127500D01*
Y7145000D01*
D02*
G37*
G36*
X1780000D02*
X1678874D01*
Y7127500D01*
X1683337Y7105065D01*
X1696045Y7086045D01*
X1715065Y7073337D01*
X1737500Y7068874D01*
X1780000D01*
Y7145000D01*
D02*
G37*
G36*
X631126D02*
X530000D01*
Y7068874D01*
X572500D01*
X594935Y7073337D01*
X613955Y7086045D01*
X626664Y7105065D01*
X631126Y7127500D01*
Y7145000D01*
D02*
G37*
G36*
X480000D02*
X378874D01*
Y7127500D01*
X383337Y7105065D01*
X396045Y7086045D01*
X415065Y7073337D01*
X437501Y7068874D01*
X480000D01*
Y7145000D01*
D02*
G37*
G36*
X7775000Y6296500D02*
X7657500D01*
Y6179000D01*
X7775000D01*
Y6296500D01*
D02*
G37*
G36*
X322500D02*
X205000D01*
Y6179000D01*
X322500D01*
Y6296500D01*
D02*
G37*
G36*
X5772500Y6171126D02*
X5730000D01*
Y6095000D01*
X5831127D01*
Y6112500D01*
X5826664Y6134935D01*
X5813955Y6153955D01*
X5794935Y6166664D01*
X5772500Y6171126D01*
D02*
G37*
G36*
X5680000D02*
X5637501D01*
X5615065Y6166664D01*
X5596045Y6153955D01*
X5583337Y6134935D01*
X5578874Y6112500D01*
Y6095000D01*
X5680000D01*
Y6171126D01*
D02*
G37*
G36*
X3172500D02*
X3130000D01*
Y6095000D01*
X3231126D01*
Y6112500D01*
X3226664Y6134935D01*
X3213955Y6153955D01*
X3194935Y6166664D01*
X3172500Y6171126D01*
D02*
G37*
G36*
X1872500D02*
X1830000D01*
Y6095000D01*
X1931126D01*
Y6112500D01*
X1926664Y6134935D01*
X1913955Y6153955D01*
X1894935Y6166664D01*
X1872500Y6171126D01*
D02*
G37*
G36*
X572500D02*
X530000D01*
Y6095000D01*
X631126D01*
Y6112500D01*
X626664Y6134935D01*
X613955Y6153955D01*
X594935Y6166664D01*
X572500Y6171126D01*
D02*
G37*
G36*
X3080000D02*
X3037500D01*
X3015065Y6166664D01*
X2996045Y6153955D01*
X2983337Y6134935D01*
X2978874Y6112500D01*
Y6095000D01*
X3080000D01*
Y6171126D01*
D02*
G37*
G36*
X1780000D02*
X1737500D01*
X1715065Y6166664D01*
X1696045Y6153955D01*
X1683337Y6134935D01*
X1678874Y6112500D01*
Y6095000D01*
X1780000D01*
Y6171126D01*
D02*
G37*
G36*
X480000D02*
X437501D01*
X415065Y6166664D01*
X396045Y6153955D01*
X383337Y6134935D01*
X378874Y6112500D01*
Y6095000D01*
X480000D01*
Y6171126D01*
D02*
G37*
G36*
X7072500D02*
X7030000D01*
Y6095000D01*
X7131126D01*
Y6112500D01*
X7126664Y6134935D01*
X7113955Y6153955D01*
X7094935Y6166664D01*
X7072500Y6171126D01*
D02*
G37*
G36*
X4472500D02*
X4430001D01*
Y6095000D01*
X4531127D01*
Y6112500D01*
X4526664Y6134935D01*
X4513955Y6153955D01*
X4494935Y6166664D01*
X4472500Y6171126D01*
D02*
G37*
G36*
X6980001D02*
X6937500D01*
X6915065Y6166664D01*
X6896045Y6153955D01*
X6883337Y6134935D01*
X6878874Y6112500D01*
Y6095000D01*
X6980001D01*
Y6171126D01*
D02*
G37*
G36*
X4380001D02*
X4337501D01*
X4315065Y6166664D01*
X4296046Y6153955D01*
X4283337Y6134935D01*
X4278874Y6112500D01*
Y6095000D01*
X4380001D01*
Y6171126D01*
D02*
G37*
G36*
X7131126Y6045000D02*
X7030000D01*
Y5968874D01*
X7072500D01*
X7094935Y5973337D01*
X7113955Y5986045D01*
X7126664Y6005065D01*
X7131126Y6027500D01*
Y6045000D01*
D02*
G37*
G36*
X6980001D02*
X6878874D01*
Y6027500D01*
X6883337Y6005065D01*
X6896045Y5986045D01*
X6915065Y5973337D01*
X6937500Y5968874D01*
X6980001D01*
Y6045000D01*
D02*
G37*
G36*
X5831127Y6045000D02*
X5730000D01*
Y5968874D01*
X5772500D01*
X5794935Y5973337D01*
X5813955Y5986045D01*
X5826664Y6005065D01*
X5831127Y6027500D01*
Y6045000D01*
D02*
G37*
G36*
X5680000D02*
X5578874D01*
Y6027500D01*
X5583337Y6005065D01*
X5596045Y5986045D01*
X5615065Y5973337D01*
X5637501Y5968874D01*
X5680000D01*
Y6045000D01*
D02*
G37*
G36*
X4531127Y6045000D02*
X4430001D01*
Y5968874D01*
X4472500D01*
X4494935Y5973337D01*
X4513955Y5986045D01*
X4526664Y6005065D01*
X4531127Y6027500D01*
Y6045000D01*
D02*
G37*
G36*
X4380001D02*
X4278874D01*
Y6027500D01*
X4283337Y6005065D01*
X4296046Y5986045D01*
X4315065Y5973337D01*
X4337501Y5968874D01*
X4380001D01*
Y6045000D01*
D02*
G37*
G36*
X3231126Y6045000D02*
X3130000D01*
Y5968874D01*
X3172500D01*
X3194935Y5973337D01*
X3213955Y5986045D01*
X3226664Y6005065D01*
X3231126Y6027500D01*
Y6045000D01*
D02*
G37*
G36*
X3080000D02*
X2978874D01*
Y6027500D01*
X2983337Y6005065D01*
X2996045Y5986045D01*
X3015065Y5973337D01*
X3037500Y5968874D01*
X3080000D01*
Y6045000D01*
D02*
G37*
G36*
X1931126D02*
X1830000D01*
Y5968874D01*
X1872500D01*
X1894935Y5973337D01*
X1913955Y5986045D01*
X1926664Y6005065D01*
X1931126Y6027500D01*
Y6045000D01*
D02*
G37*
G36*
X1780000D02*
X1678874D01*
Y6027500D01*
X1683337Y6005065D01*
X1696045Y5986045D01*
X1715065Y5973337D01*
X1737500Y5968874D01*
X1780000D01*
Y6045000D01*
D02*
G37*
G36*
X631126D02*
X530000D01*
Y5968874D01*
X572500D01*
X594935Y5973337D01*
X613955Y5986045D01*
X626664Y6005065D01*
X631126Y6027500D01*
Y6045000D01*
D02*
G37*
G36*
X480000D02*
X378874D01*
Y6027500D01*
X383337Y6005065D01*
X396045Y5986045D01*
X415065Y5973337D01*
X437501Y5968874D01*
X480000D01*
Y6045000D01*
D02*
G37*
G36*
X1448920Y4959700D02*
X1277480D01*
Y4788260D01*
X1448920D01*
Y4959700D01*
D02*
G37*
G36*
X1458920Y4519700D02*
X1388200D01*
Y4448980D01*
X1458920D01*
Y4519700D01*
D02*
G37*
G36*
X2934944Y4452500D02*
X2900056D01*
X2866357Y4443470D01*
X2836143Y4426026D01*
X2811474Y4401357D01*
X2794030Y4371143D01*
X2785000Y4337444D01*
Y4302556D01*
X2794030Y4268857D01*
X2811474Y4238643D01*
X2836143Y4213974D01*
X2866357Y4196530D01*
X2900056Y4187500D01*
X2934944D01*
X2968643Y4196530D01*
X2998857Y4213974D01*
X3023526Y4238643D01*
X3040970Y4268857D01*
X3050000Y4302556D01*
Y4337444D01*
X3040970Y4371143D01*
X3023526Y4401357D01*
X2998857Y4426026D01*
X2968643Y4443470D01*
X2934944Y4452500D01*
D02*
G37*
G36*
X4111000Y3382500D02*
X3993500D01*
Y3265000D01*
X4111000D01*
Y3382500D01*
D02*
G37*
G36*
Y3215000D02*
X3993500D01*
Y3097500D01*
X4111000D01*
Y3215000D01*
D02*
G37*
G36*
X2660000Y3109569D02*
X2639769Y3106905D01*
X2620916Y3099096D01*
X2604726Y3086674D01*
X2592304Y3070485D01*
X2584495Y3051631D01*
X2581831Y3031400D01*
X2584495Y3011168D01*
X2588831Y3000699D01*
Y2692400D01*
X2591495Y2672168D01*
X2599304Y2653315D01*
X2611726Y2637126D01*
X2627915Y2624704D01*
X2646768Y2616895D01*
X2667000Y2614231D01*
X2687232Y2616895D01*
X2706085Y2624704D01*
X2722274Y2637126D01*
X2734696Y2653315D01*
X2742505Y2672168D01*
X2745169Y2692400D01*
Y3024400D01*
X2742505Y3044632D01*
X2734696Y3063485D01*
X2722274Y3079674D01*
X2715274Y3086674D01*
X2699085Y3099096D01*
X2680232Y3106905D01*
X2660000Y3109569D01*
D02*
G37*
G36*
X4778375Y1422766D02*
X4749400D01*
Y1320400D01*
X4839066D01*
Y1362075D01*
X4834446Y1385301D01*
X4821290Y1404990D01*
X4801601Y1418146D01*
X4778375Y1422766D01*
D02*
G37*
G36*
X3559175D02*
X3530200D01*
Y1320400D01*
X3619866D01*
Y1362075D01*
X3615246Y1385301D01*
X3602090Y1404990D01*
X3582401Y1418146D01*
X3559175Y1422766D01*
D02*
G37*
G36*
X4699400D02*
X4670425D01*
X4647199Y1418146D01*
X4627510Y1404990D01*
X4614354Y1385301D01*
X4609734Y1362075D01*
Y1320400D01*
X4699400D01*
Y1422766D01*
D02*
G37*
G36*
X3940001Y1225000D02*
X3788786D01*
Y1182000D01*
X3793598Y1157809D01*
X3807301Y1137301D01*
X3827809Y1123598D01*
X3852000Y1118786D01*
X3940001D01*
Y1225000D01*
D02*
G37*
G36*
X4839066Y1270400D02*
X4724400D01*
X4609734D01*
Y1228725D01*
X4614354Y1205499D01*
X4627510Y1185810D01*
X4634719Y1180993D01*
Y1169180D01*
X4623774Y1152799D01*
X4619930Y1133475D01*
Y1000125D01*
X4623774Y980801D01*
X4634719Y964419D01*
X4651101Y953474D01*
X4670425Y949630D01*
X4778375D01*
X4797699Y953474D01*
X4814081Y964419D01*
X4825026Y980801D01*
X4828870Y1000125D01*
Y1133475D01*
X4825026Y1152799D01*
X4814081Y1169180D01*
Y1180993D01*
X4821290Y1185810D01*
X4834446Y1205499D01*
X4839066Y1228725D01*
Y1270400D01*
D02*
G37*
G36*
X4607000Y830571D02*
Y703000D01*
X4682863D01*
Y733000D01*
X4679426Y759105D01*
X4669350Y783431D01*
X4653321Y804321D01*
X4632431Y820350D01*
X4608105Y830426D01*
X4607000Y830571D01*
D02*
G37*
G36*
X3693000D02*
X3691895Y830426D01*
X3667569Y820350D01*
X3646680Y804321D01*
X3630651Y783431D01*
X3620574Y759105D01*
X3617138Y733000D01*
Y703000D01*
X3693000D01*
Y830571D01*
D02*
G37*
G36*
X4682863Y653000D02*
X4607000D01*
Y525428D01*
X4608105Y525574D01*
X4632431Y535650D01*
X4653321Y551679D01*
X4669350Y572569D01*
X4679426Y596895D01*
X4682863Y623000D01*
Y653000D01*
D02*
G37*
G36*
X3693000D02*
X3617138D01*
Y623000D01*
X3620574Y596895D01*
X3630651Y572569D01*
X3646680Y551679D01*
X3667569Y535650D01*
X3691895Y525574D01*
X3693000Y525428D01*
Y653000D01*
D02*
G37*
G36*
X4607000Y397571D02*
Y285000D01*
X4682863D01*
Y300000D01*
X4679426Y326105D01*
X4669350Y350431D01*
X4653321Y371321D01*
X4632431Y387349D01*
X4608105Y397426D01*
X4607000Y397571D01*
D02*
G37*
G36*
X3743000D02*
Y285000D01*
X3818863D01*
Y300000D01*
X3815426Y326105D01*
X3805350Y350431D01*
X3789321Y371321D01*
X3768431Y387349D01*
X3744105Y397426D01*
X3743000Y397571D01*
D02*
G37*
G36*
X4557000D02*
X4555895Y397426D01*
X4531569Y387349D01*
X4510679Y371321D01*
X4494650Y350431D01*
X4484574Y326105D01*
X4481137Y300000D01*
Y285000D01*
X4557000D01*
Y397571D01*
D02*
G37*
G36*
X3693000D02*
X3691895Y397426D01*
X3667569Y387349D01*
X3646680Y371321D01*
X3630651Y350431D01*
X3620574Y326105D01*
X3617138Y300000D01*
Y285000D01*
X3693000D01*
Y397571D01*
D02*
G37*
G36*
X4682863Y235000D02*
X4607000D01*
Y122429D01*
X4608105Y122574D01*
X4632431Y132650D01*
X4653321Y148679D01*
X4669350Y169569D01*
X4679426Y193895D01*
X4682863Y220000D01*
Y235000D01*
D02*
G37*
G36*
X3818863D02*
X3743000D01*
Y122429D01*
X3744105Y122574D01*
X3768431Y132650D01*
X3789321Y148679D01*
X3805350Y169569D01*
X3815426Y193895D01*
X3818863Y220000D01*
Y235000D01*
D02*
G37*
G36*
X3693000D02*
X3617138D01*
Y220000D01*
X3620574Y193895D01*
X3630651Y169569D01*
X3646680Y148679D01*
X3667569Y132650D01*
X3691895Y122574D01*
X3693000Y122429D01*
Y235000D01*
D02*
G37*
G36*
X4557000D02*
X4481137D01*
Y220000D01*
X4484574Y193895D01*
X4494650Y169569D01*
X4510679Y148679D01*
X4531569Y132650D01*
X4555895Y122574D01*
X4557000Y122429D01*
Y235000D01*
D02*
G37*
G36*
X3941466Y1901834D02*
X3926000D01*
Y1802536D01*
X4011805D01*
X4006765Y1821345D01*
X3999726Y1833538D01*
Y1843574D01*
X3995291Y1865869D01*
X3982662Y1884770D01*
X3963761Y1897399D01*
X3941466Y1901834D01*
D02*
G37*
G36*
X3876000D02*
X3860535D01*
X3838239Y1897399D01*
X3819338Y1884770D01*
X3806709Y1865869D01*
X3802274Y1843574D01*
Y1833538D01*
X3795235Y1821345D01*
X3790195Y1802536D01*
X3876000D01*
Y1901834D01*
D02*
G37*
G36*
X2165000Y1735770D02*
Y1670000D01*
X2115000D01*
Y1735770D01*
X2112981Y1735229D01*
X2097019Y1726014D01*
X2083986Y1712981D01*
X2077024Y1700922D01*
X2075004Y1700254D01*
X2064995D01*
X2062976Y1700922D01*
X2056014Y1712981D01*
X2042981Y1726014D01*
X2027019Y1735229D01*
X2025000Y1735770D01*
Y1670000D01*
X1975000D01*
Y1735770D01*
X1972981Y1735229D01*
X1957019Y1726014D01*
X1943986Y1712981D01*
X1934770Y1697019D01*
X1930000Y1679216D01*
Y1670000D01*
X1920784D01*
X1902981Y1665229D01*
X1887019Y1656014D01*
X1873986Y1642981D01*
X1864770Y1627019D01*
X1864229Y1625000D01*
X1930000D01*
Y1575000D01*
X1864229D01*
X1864770Y1572981D01*
X1873986Y1557019D01*
X1887019Y1543986D01*
X1899078Y1537024D01*
X1899746Y1535005D01*
Y1524995D01*
X1899078Y1522976D01*
X1887019Y1516014D01*
X1873986Y1502981D01*
X1864770Y1487019D01*
X1864229Y1485000D01*
X1930000D01*
Y1435000D01*
X1864229D01*
X1864770Y1432981D01*
X1873986Y1417019D01*
X1887019Y1403986D01*
X1902981Y1394770D01*
X1920784Y1390000D01*
X1930000D01*
Y1380784D01*
X1934770Y1362981D01*
X1943986Y1347019D01*
X1957019Y1333986D01*
X1972981Y1324771D01*
X1975000Y1324230D01*
Y1390000D01*
X2025000D01*
Y1324230D01*
X2027019Y1324771D01*
X2042981Y1333986D01*
X2056014Y1347019D01*
X2062976Y1359078D01*
X2064995Y1359746D01*
X2075004D01*
X2077024Y1359078D01*
X2083986Y1347019D01*
X2097019Y1333986D01*
X2112981Y1324771D01*
X2115000Y1324230D01*
Y1390000D01*
X2165000D01*
Y1324230D01*
X2167019Y1324771D01*
X2182981Y1333986D01*
X2196014Y1347019D01*
X2205229Y1362981D01*
X2210000Y1380784D01*
Y1390000D01*
X2219216D01*
X2237019Y1394770D01*
X2252981Y1403986D01*
X2266014Y1417019D01*
X2275229Y1432981D01*
X2275770Y1435000D01*
X2210000D01*
Y1485000D01*
X2275770D01*
X2275229Y1487019D01*
X2266014Y1502981D01*
X2252981Y1516014D01*
X2240922Y1522976D01*
X2240254Y1524995D01*
Y1535005D01*
X2240922Y1537024D01*
X2252981Y1543986D01*
X2266014Y1557019D01*
X2275229Y1572981D01*
X2275770Y1575000D01*
X2210000D01*
Y1625000D01*
X2275770D01*
X2275229Y1627019D01*
X2266014Y1642981D01*
X2252981Y1656014D01*
X2237019Y1665229D01*
X2219216Y1670000D01*
X2210000D01*
Y1679216D01*
X2205229Y1697019D01*
X2196014Y1712981D01*
X2182981Y1726014D01*
X2167019Y1735229D01*
X2165000Y1735770D01*
D02*
G37*
G36*
X2685000Y1680805D02*
Y1595000D01*
X2770805D01*
X2765765Y1613809D01*
X2750823Y1639690D01*
X2729691Y1660822D01*
X2703809Y1675765D01*
X2685000Y1680805D01*
D02*
G37*
G36*
X2635000D02*
X2616191Y1675765D01*
X2590310Y1660822D01*
X2569177Y1639690D01*
X2554235Y1613809D01*
X2549195Y1595000D01*
X2635000D01*
Y1680805D01*
D02*
G37*
G36*
Y1545000D02*
X2549195D01*
X2554235Y1526190D01*
X2569177Y1500309D01*
X2590310Y1479177D01*
X2616191Y1464235D01*
X2635000Y1459195D01*
Y1545000D01*
D02*
G37*
%LPD*%
D10*
X2374900Y1187951D02*
G03*
X2374900Y692048I55100J-247951D01*
G01*
X2485100D02*
G03*
X2485100Y1187951I-55100J247951D01*
G01*
X2374900Y692048D02*
Y1187951D01*
X2485100Y692048D02*
Y1187951D01*
D11*
X1922000Y940000D02*
D03*
X2938000D02*
D03*
D12*
X1330000Y3640000D02*
D03*
Y3868600D02*
D03*
X1680000Y811400D02*
D03*
Y1040000D02*
D03*
X3505200Y1295400D02*
D03*
Y1066800D02*
D03*
X4724400Y1295400D02*
D03*
Y1066800D02*
D03*
D13*
X1160000Y4330000D02*
D03*
Y4780000D02*
D03*
D14*
X1363200Y4423980D02*
D03*
Y4233480D02*
D03*
Y4873980D02*
D03*
Y4683480D02*
D03*
D15*
X730150Y5500000D02*
D03*
X2030150D02*
D03*
X3330150D02*
D03*
X4660300Y5500000D02*
D03*
X5930150D02*
D03*
X7260300D02*
D03*
X900000Y6600000D02*
D03*
X760300D02*
D03*
X2169850Y6600000D02*
D03*
X2030150D02*
D03*
X3500000Y6600000D02*
D03*
X3360300D02*
D03*
X4769850Y6600000D02*
D03*
X4630150D02*
D03*
X6069850D02*
D03*
X5930150D02*
D03*
X7400000Y6600000D02*
D03*
X7260300D02*
D03*
X869850Y5500000D02*
D03*
X2169850D02*
D03*
X3469850D02*
D03*
X4800000Y5500000D02*
D03*
X6069850D02*
D03*
X7400000D02*
D03*
D16*
X7005000Y6070000D02*
D03*
X5705000D02*
D03*
X4405000D02*
D03*
X3105000D02*
D03*
X1805000D02*
D03*
X505000D02*
D03*
X7495000D02*
D03*
X7005000Y5750000D02*
D03*
X7495000D02*
D03*
X505000Y7170000D02*
D03*
X995000D02*
D03*
X505000Y6850000D02*
D03*
X995000D02*
D03*
X1805000Y7170000D02*
D03*
X2295000D02*
D03*
X1805000Y6850000D02*
D03*
X2295000D02*
D03*
X3105000Y7170000D02*
D03*
X3595000D02*
D03*
X3105000Y6850000D02*
D03*
X3595000D02*
D03*
X4405000Y7170000D02*
D03*
X4895000D02*
D03*
X4405000Y6850000D02*
D03*
X4895000D02*
D03*
X5705000Y7170000D02*
D03*
X6195000D02*
D03*
X5705000Y6850000D02*
D03*
X6195000D02*
D03*
X7005000Y7170000D02*
D03*
X7495000D02*
D03*
X7005000Y6850000D02*
D03*
X7495000D02*
D03*
X995000Y6070000D02*
D03*
X505000Y5750000D02*
D03*
X995000D02*
D03*
X2295000Y6070000D02*
D03*
X1805000Y5750000D02*
D03*
X2295000D02*
D03*
X3595000Y6070000D02*
D03*
X3105000Y5750000D02*
D03*
X3595000D02*
D03*
X4895000Y6070000D02*
D03*
X4405000Y5750000D02*
D03*
X4895000D02*
D03*
X6195000Y6070000D02*
D03*
X5705000Y5750000D02*
D03*
X6195000D02*
D03*
D17*
X3975000Y735500D02*
D03*
X4025000D02*
D03*
X4075000D02*
D03*
X4325000D02*
D03*
X4275000D02*
D03*
X4225000D02*
D03*
X4125000D02*
D03*
X4175000D02*
D03*
D18*
X4390000D02*
D03*
X3910000D02*
D03*
X4470000D02*
D03*
X3830000D02*
D03*
D19*
X4670000Y1976000D02*
D03*
Y2304000D02*
D03*
D20*
X4130000Y2449500D02*
D03*
D21*
X4359000Y1770500D02*
D03*
X4130000D02*
D03*
X3901000D02*
D03*
D22*
X1000000Y530000D02*
D03*
Y180000D02*
D03*
D23*
X4315000Y1250000D02*
D03*
X3965000D02*
D03*
D24*
X1922000Y940000D02*
X2226800D01*
X2633200D02*
X2938000D01*
X675148Y1275148D02*
X1100000Y1700000D01*
X1652000Y1012000D02*
X1680000Y1040000D01*
X1345000Y1012000D02*
X1652000D01*
X1822000Y1040000D02*
X1922000Y940000D01*
X1680000Y1040000D02*
X1822000D01*
X889000Y1041400D02*
X1745847Y1898247D01*
Y1974447D02*
X1752600Y1981200D01*
X1745847Y1898247D02*
Y1974447D01*
X531400Y1041400D02*
X889000D01*
X506000Y1016000D02*
X531400Y1041400D01*
X511148Y1275148D02*
X675148D01*
X506000Y1270000D02*
X511148Y1275148D01*
D25*
X3718000Y683653D02*
X3741097Y706750D01*
X3718000Y678000D02*
Y683653D01*
X3741097Y706750D02*
X3825000D01*
X3830000Y711750D01*
Y735500D01*
X4558903Y706750D02*
X4582000Y683653D01*
X4470000Y711750D02*
Y735500D01*
Y711750D02*
X4475000Y706750D01*
X4558903D01*
X4582000Y678000D02*
Y683653D01*
X4390000Y735500D02*
Y1195000D01*
X3910000Y735500D02*
X3910000Y735500D01*
Y736600D01*
X4315000Y1250000D02*
X4335000D01*
X4390000Y1195000D01*
D26*
X1160000Y4480280D02*
X1363200Y4683480D01*
X1160000Y4330000D02*
Y4480280D01*
X1330000Y3881300D02*
X1363200Y3914500D01*
X1330000Y3868600D02*
Y3881300D01*
X1363200Y3914500D02*
Y4233480D01*
X505000Y6065000D02*
Y6070000D01*
Y6065000D02*
X510000Y6060000D01*
X1805000Y6070000D02*
X1810000D01*
X3100000D02*
X3105000D01*
X4405000Y6065000D02*
X4410000Y6060000D01*
X4405000Y6065000D02*
Y6070000D01*
X5705000D02*
X5710000D01*
X7005000D02*
X7010000D01*
X7005000Y7170000D02*
X7010000D01*
X7010000Y7170000D01*
X5705000Y7170000D02*
X5705001Y7170000D01*
X5710000D01*
X4400000D02*
X4405000D01*
X4405000Y7170000D01*
X3105000D02*
X3105000Y7170000D01*
X3110000D01*
X2295000Y7170000D02*
X2760000D01*
X3080000Y6850000D01*
X3105000D01*
X2020000Y6600000D02*
X2030150D01*
X995000Y6742500D02*
X2295000D01*
X410577D02*
X995000D01*
X4010000Y1250000D02*
X4052500Y1292500D01*
Y1328429D01*
X4070000Y1345929D02*
Y1360000D01*
X3965000Y1250000D02*
X4010000D01*
X4052500Y1328429D02*
X4070000Y1345929D01*
X2938000Y933235D02*
Y940000D01*
Y933235D02*
X2949043Y922191D01*
Y820956D02*
Y922191D01*
Y820956D02*
X2950000Y820000D01*
X2780000Y810000D02*
X2903500Y686500D01*
X3207266D02*
X3251200Y730434D01*
Y1346200D01*
X2903500Y686500D02*
X3207266D01*
X2938000Y940000D02*
Y1292000D01*
X2660000Y1570000D02*
X2938000Y1292000D01*
X3490000Y1770000D02*
Y2480000D01*
X3290000Y1570000D02*
X3490000Y1770000D01*
Y2480000D02*
X3730000Y2720000D01*
X3454400Y1549400D02*
X4064000D01*
X3251200Y1346200D02*
X3454400Y1549400D01*
X3730000Y2720000D02*
X4180000D01*
X4390000Y2930000D02*
Y3240000D01*
X4180000Y2720000D02*
X4390000Y2930000D01*
X7520000Y7170000D02*
X7668953Y7021047D01*
X7778952D01*
X7800000Y7000000D01*
X7495000Y7170000D02*
X7520000D01*
X6660000D02*
X6980000Y6850000D01*
X6195000Y7170000D02*
X6660000D01*
X6980000Y6850000D02*
X7005000D01*
X5360000Y7170000D02*
X5680000Y6850000D01*
X5705000D01*
X4895000Y7170000D02*
X5360000D01*
X4060001D02*
X4380000Y6850000D01*
X3595000Y7170000D02*
X4060001D01*
X4380000Y6850000D02*
X4405000D01*
X995000Y7170000D02*
X1460000D01*
X1780000Y6850000D01*
X1805000D01*
X180000Y5900000D02*
X323000D01*
X460500Y5762500D02*
X492500D01*
X323000Y5900000D02*
X460500Y5762500D01*
X492500D02*
X505000Y5750000D01*
X480000Y6850000D02*
X505000D01*
X351048Y6978953D02*
X480000Y6850000D01*
X201047Y6978953D02*
X351048D01*
X180000Y7000000D02*
X201047Y6978953D01*
X995000Y6742500D02*
Y6850000D01*
Y6695000D02*
Y6742500D01*
X900000Y6600000D02*
X995000Y6695000D01*
X2295000Y6742500D02*
Y6850000D01*
Y6725150D02*
Y6742500D01*
X3595000D01*
X2169850Y6600000D02*
X2295000Y6725150D01*
X3595000Y6742500D02*
X4895000D01*
X3595000D02*
Y6850000D01*
Y6695000D02*
Y6742500D01*
X3500000Y6600000D02*
X3595000Y6695000D01*
X4895000Y6742500D02*
X6195000D01*
X4895000D02*
Y6850000D01*
Y6725150D02*
Y6742500D01*
X4769850Y6600000D02*
X4895000Y6725150D01*
X6195000Y6742500D02*
X7495000D01*
X6195000D02*
Y6850000D01*
Y6725150D02*
Y6742500D01*
X6069850Y6600000D02*
X6195000Y6725150D01*
X7495000Y6742500D02*
Y6850000D01*
Y6695000D02*
Y6742500D01*
X7796500D01*
X7400000Y6600000D02*
X7495000Y6695000D01*
X7796500Y6742500D02*
X7800000Y6746000D01*
X407077D02*
X410577Y6742500D01*
X180000Y6746000D02*
X407077D01*
X7520000Y6070000D02*
X7668953Y5921047D01*
X7778952D01*
X7800000Y5900000D01*
X7495000Y6070000D02*
X7520000D01*
X6660000D02*
X6980000Y5750000D01*
X7005000D01*
X6195000Y6070000D02*
X6660000D01*
X5360000D02*
X5680000Y5750000D01*
X4895000Y6070000D02*
X5360000D01*
X5680000Y5750000D02*
X5705000D01*
X4060001Y6070000D02*
X4380000Y5750000D01*
X4405000D01*
X3595000Y6070000D02*
X4060001D01*
X2295000D02*
X2760000D01*
X3080000Y5750000D01*
X3105000D01*
X995000Y6070000D02*
X1460000D01*
X1780000Y5750000D01*
X1805000D01*
X480000Y6070000D02*
X505000D01*
X995000Y5642500D02*
X2295000D01*
X183500D02*
X995000D01*
Y5750000D01*
Y5625150D02*
Y5642500D01*
X869850Y5500000D02*
X995000Y5625150D01*
X2295000Y5642500D02*
X3595000D01*
X2295000D02*
Y5750000D01*
Y5625150D02*
Y5642500D01*
X2169850Y5500000D02*
X2295000Y5625150D01*
X3595000Y5642500D02*
Y5750000D01*
Y5625150D02*
Y5642500D01*
X4895000D01*
X3469850Y5500000D02*
X3595000Y5625150D01*
X4895000Y5642500D02*
X6195000D01*
X4895000D02*
Y5750000D01*
Y5595000D02*
Y5642500D01*
X4800000Y5500000D02*
X4895000Y5595000D01*
X6195000Y5642500D02*
X7495000D01*
X6195000D02*
Y5750000D01*
Y5625150D02*
Y5642500D01*
X6069850Y5500000D02*
X6195000Y5625150D01*
X7495000Y5642500D02*
X7796500D01*
X7495000D02*
Y5750000D01*
Y5595000D02*
Y5642500D01*
X7400000Y5500000D02*
X7495000Y5595000D01*
X7796500Y5642500D02*
X7800000Y5646000D01*
X180000D02*
X183500Y5642500D01*
X1000000Y505000D02*
X1042500Y547500D01*
Y737700D01*
X1189800Y885000D01*
X1345000D01*
X4130000Y1615400D02*
Y1770500D01*
X4064000Y1549400D02*
X4130000Y1615400D01*
X2056700Y812100D02*
X2057400Y812800D01*
X1680000Y811400D02*
X1680700Y812100D01*
X2056700D01*
X2463800Y4107934D02*
Y4108934D01*
Y4107934D02*
X2507734Y4064000D01*
X2282500Y4290234D02*
X2463800Y4108934D01*
X2507734Y4064000D02*
X3820000D01*
X2282500Y4290234D02*
Y4320000D01*
X3820000Y4064000D02*
X4644000Y3240000D01*
X252000Y4572000D02*
X379000Y4699000D01*
X381000D01*
X252000Y4572000D02*
X252000D01*
X232866Y4845134D02*
X252000Y4826000D01*
X133266Y4845134D02*
X232866D01*
X76200Y4902200D02*
X133266Y4845134D01*
X76200Y5188466D02*
X120134Y5232400D01*
X76200Y4902200D02*
Y5188466D01*
X120134Y5232400D02*
X689820D01*
X1142220Y4780000D02*
X1160000D01*
X689820Y5232400D02*
X1142220Y4780000D01*
X2660000Y3031400D02*
X2667000Y3024400D01*
Y2692400D02*
Y3024400D01*
X4359000Y1737892D02*
Y1770500D01*
X4315000Y1250000D02*
Y1693892D01*
X4359000Y1737892D01*
X4644000Y3240000D02*
X4851400Y3032600D01*
Y2019934D02*
Y3032600D01*
X4670000Y1976000D02*
X4807466D01*
X4851400Y2019934D01*
X4648200Y1854200D02*
Y1956500D01*
X4667700Y1976000D01*
X4670000D01*
X4359000Y1770500D02*
X4564500D01*
X4648200Y1854200D01*
X4500000Y2449500D02*
X4645500Y2304000D01*
X4130000Y2449500D02*
X4500000D01*
X4645500Y2304000D02*
X4670000D01*
X4130000Y1770500D02*
Y2449500D01*
X1606400Y885000D02*
X1641300Y850100D01*
X1345000Y885000D02*
X1606400D01*
X800000Y400000D02*
X843934Y443934D01*
X957500D01*
X1000000Y486434D02*
Y505000D01*
X957500Y443934D02*
X1000000Y486434D01*
X800000Y200000D02*
Y400000D01*
X143934Y100000D02*
X700000D01*
X800000Y200000D01*
X100000Y143934D02*
Y356000D01*
Y143934D02*
X143934Y100000D01*
X100000Y356000D02*
X252000Y508000D01*
D27*
X1468000Y2159000D02*
X2861000D01*
X3260000Y1760000D01*
X1518800Y2235200D02*
X2914800D01*
X3260000Y1890000D01*
X1345000Y2409000D02*
X1518800Y2235200D01*
X1345000Y2282000D02*
X1468000Y2159000D01*
X381000Y4699000D02*
X889000D01*
X965200Y4622800D01*
X4013200Y939800D02*
X4075000Y878000D01*
Y627174D02*
Y735500D01*
Y878000D01*
X4325000Y735500D02*
Y870882D01*
X4315000Y880882D02*
X4325000Y870882D01*
X4315000Y880882D02*
Y889000D01*
X3505200Y1063625D02*
Y1066800D01*
Y1063625D02*
X3553700Y1015125D01*
X3937000Y895476D02*
Y896826D01*
X3553700Y1015125D02*
X3818701D01*
X3937000Y896826D01*
X4004476Y828000D02*
X4004497D01*
X3937000Y895476D02*
X4004476Y828000D01*
X4025000Y735500D02*
Y807497D01*
X4004497Y828000D02*
X4025000Y807497D01*
X4170700Y863600D02*
X4198826D01*
X4142574D02*
X4170700D01*
X4125000Y846026D02*
X4142574Y863600D01*
X4125000Y735500D02*
Y846026D01*
X4198826Y863600D02*
X4225000Y837426D01*
Y735500D02*
Y837426D01*
X4148026Y609600D02*
X4175000Y636574D01*
X4092574Y609600D02*
X4148026D01*
X4075000Y627174D02*
X4092574Y609600D01*
X4175000Y636574D02*
Y735500D01*
D28*
X279400Y3810000D02*
X406400Y3683000D01*
X252000Y3810000D02*
X279400D01*
X406400Y3683000D02*
X545171D01*
X845008Y3383162D01*
Y2964992D02*
Y3383162D01*
Y2964992D02*
X1143000Y2667000D01*
X1371600Y2692400D02*
X1998100D01*
X889000Y2286000D02*
X1335400Y2732400D01*
X1143000Y2463800D02*
X1371600Y2692400D01*
X1335400Y2732400D02*
X2339100D01*
X1998100Y2692400D02*
X2156500Y2534000D01*
X1143000Y2336800D02*
Y2463800D01*
X1346200Y2540000D02*
X1498600Y2387600D01*
X2339100Y2732400D02*
X2537500Y2534000D01*
X882800Y1873400D02*
X1488564D01*
X711200Y1143000D02*
X1215200Y1647000D01*
X711200Y1524000D02*
X990600Y1803400D01*
X252000Y1524000D02*
X379000Y1651000D01*
X660400D01*
X882800Y1873400D01*
X1488564D02*
X1507764Y1854200D01*
X1574800D01*
X812800Y2286000D02*
X889000D01*
X1655900Y3627300D02*
X1803400Y3479800D01*
X1342700Y3627300D02*
X1655900D01*
X1330000Y3640000D02*
X1342700Y3627300D01*
X635000Y1778000D02*
X885000Y2028000D01*
X1345000D01*
X506000Y1778000D02*
X635000D01*
X506000Y1524000D02*
X711200D01*
X1215200Y1647000D02*
X1345000D01*
X965200Y914400D02*
X1189800Y1139000D01*
X762000Y914400D02*
X965200D01*
X1189800Y1139000D02*
X1345000D01*
X406400Y1143000D02*
X711200D01*
X252000Y1016000D02*
X279400D01*
X406400Y1143000D01*
D29*
X4136000Y3240000D02*
D03*
D30*
X4390000D02*
D03*
X4644000D02*
D03*
X2282500Y4320000D02*
D03*
X2917500D02*
D03*
X180000Y6746000D02*
D03*
Y7000000D02*
D03*
X7800000Y6746000D02*
D03*
Y7000000D02*
D03*
X180000Y5646000D02*
D03*
Y5900000D02*
D03*
X7800000Y5646000D02*
D03*
Y5900000D02*
D03*
D31*
Y6154000D02*
D03*
X180000D02*
D03*
Y7254000D02*
D03*
X7800000D02*
D03*
D32*
X2070000Y1460000D02*
D03*
X1930000D02*
D03*
X2210000D02*
D03*
X1930000Y1600000D02*
D03*
X2070000D02*
D03*
X2210000D02*
D03*
X2000000Y1390000D02*
D03*
X2140000D02*
D03*
X2000000Y1530000D02*
D03*
X2140000D02*
D03*
X2000000Y1670000D02*
D03*
X2140000D02*
D03*
D33*
X506000Y2794000D02*
D03*
X252000D02*
D03*
X506000Y3048000D02*
D03*
X252000D02*
D03*
X506000Y3302000D02*
D03*
X252000D02*
D03*
X506000Y3556000D02*
D03*
X252000D02*
D03*
X506000Y3810000D02*
D03*
X252000D02*
D03*
X506000Y4064000D02*
D03*
X252000D02*
D03*
X506000Y4318000D02*
D03*
X252000D02*
D03*
X506000Y4572000D02*
D03*
X252000D02*
D03*
X506000Y4826000D02*
D03*
X252000D02*
D03*
X506000Y5080000D02*
D03*
X242840Y2537415D02*
D03*
X496840D02*
D03*
X242840Y2283415D02*
D03*
X496840D02*
D03*
X252000Y2032000D02*
D03*
X506000D02*
D03*
X252000Y1778000D02*
D03*
X506000D02*
D03*
X252000Y1524000D02*
D03*
X506000D02*
D03*
X252000Y1270000D02*
D03*
X506000D02*
D03*
X252000Y1016000D02*
D03*
X506000D02*
D03*
X252000Y762000D02*
D03*
X506000D02*
D03*
X252000Y508000D02*
D03*
X506000D02*
D03*
X252000Y254000D02*
D03*
X506000D02*
D03*
D34*
X252000Y5080000D02*
D03*
D35*
X3861000Y628000D02*
D03*
X4439000D02*
D03*
D36*
X4582000Y678000D02*
D03*
X3718000D02*
D03*
D37*
X4582000Y260000D02*
D03*
X3718000D02*
D03*
D38*
X730150Y5500000D02*
D03*
X510000Y6060000D02*
D03*
X2030150Y5500000D02*
D03*
X1810000Y6070000D02*
D03*
X3330000Y5500000D02*
D03*
X3100000Y6070000D02*
D03*
X4660300Y5500000D02*
D03*
X4410000Y6060000D02*
D03*
X5930150Y5500000D02*
D03*
X5710000Y6070000D02*
D03*
X7260300Y5500000D02*
D03*
X7010000Y6070000D02*
D03*
X7260300Y6600000D02*
D03*
X7010000Y7170000D02*
D03*
X5930000Y6600000D02*
D03*
X5710000Y7170000D02*
D03*
X4630150Y6600000D02*
D03*
X4400000Y7170000D02*
D03*
X3360300Y6600000D02*
D03*
X3110000Y7170000D02*
D03*
X1805000Y7170000D02*
D03*
X2020000Y6600000D02*
D03*
X505000Y7170000D02*
D03*
X760300Y6600000D02*
D03*
X2950000Y820000D02*
D03*
X2780000Y810000D02*
D03*
X3290000Y1570000D02*
D03*
X2057400Y812800D02*
D03*
X990600Y1803400D02*
D03*
X1574800Y1854200D02*
D03*
X1160000Y4330000D02*
D03*
X1363200Y4873980D02*
D03*
X1345000Y885000D02*
D03*
Y2409000D02*
D03*
Y2282000D02*
D03*
X1143000Y2336800D02*
D03*
X812800Y2286000D02*
D03*
X1803400Y3479800D02*
D03*
X2156500Y2534000D02*
D03*
X2537500D02*
D03*
X1345000Y2028000D02*
D03*
Y1647000D02*
D03*
D39*
X1000000Y155000D02*
D03*
X3901000Y1777536D02*
D03*
X4070000Y1360000D02*
D03*
X2660000Y1570000D02*
D03*
D40*
X3260000Y1760000D02*
D03*
Y1890000D02*
D03*
X1143000Y2667000D02*
D03*
X1346200Y2540000D02*
D03*
X1498600Y2387600D02*
D03*
X965200Y4622800D02*
D03*
X2660000Y3031400D02*
D03*
X2667000Y2692400D02*
D03*
X1345000Y1012000D02*
D03*
X4013200Y939800D02*
D03*
X4724400Y1066800D02*
D03*
X4315000Y889000D02*
D03*
X4390000Y735500D02*
D03*
X3910000Y736600D02*
D03*
X4170700Y863600D02*
D03*
D41*
X1100000Y1700000D02*
D03*
X1752600Y1981200D02*
D03*
X762000Y914400D02*
D03*
D42*
X1345000Y1139000D02*
D03*
%TF.MD5,71465a06df2df566595f1d3bde8bc90a*%
M02*
