%TF.GenerationSoftware,Altium Limited,Altium Designer,24.0.1 (36)*%
G04 Layer_Color=8421504*
%FSLAX45Y45*%
%MOMM*%
%TF.SameCoordinates,E2561F4A-6B88-4173-B20F-5EBD6E3589F9*%
%TF.FilePolarity,Positive*%
%TF.FileFunction,Paste,Top*%
%TF.Part,Single*%
G01*
G75*
%TA.AperFunction,SMDPad,CuDef*%
%ADD13C,1.00000*%
%ADD15R,1.27000X0.91440*%
%ADD16R,0.91440X0.91440*%
%TA.AperFunction,ConnectorPad*%
%ADD19R,0.30000X1.15000*%
%ADD20R,0.60000X1.15000*%
%TA.AperFunction,SMDPad,CuDef*%
G04:AMPARAMS|DCode=21|XSize=1.14mm|YSize=1.63mm|CornerRadius=0.1425mm|HoleSize=0mm|Usage=FLASHONLY|Rotation=90.000|XOffset=0mm|YOffset=0mm|HoleType=Round|Shape=RoundedRectangle|*
%AMROUNDEDRECTD21*
21,1,1.14000,1.34500,0,0,90.0*
21,1,0.85500,1.63000,0,0,90.0*
1,1,0.28500,0.67250,0.42750*
1,1,0.28500,0.67250,-0.42750*
1,1,0.28500,-0.67250,-0.42750*
1,1,0.28500,-0.67250,0.42750*
%
%ADD21ROUNDEDRECTD21*%
G04:AMPARAMS|DCode=88|XSize=1.56429mm|YSize=0.91213mm|CornerRadius=0.05141mm|HoleSize=0mm|Usage=FLASHONLY|Rotation=90.000|XOffset=0mm|YOffset=0mm|HoleType=Round|Shape=RoundedRectangle|*
%AMROUNDEDRECTD88*
21,1,1.56429,0.80931,0,0,90.0*
21,1,1.46148,0.91213,0,0,90.0*
1,1,0.10282,0.40466,0.73074*
1,1,0.10282,0.40466,-0.73074*
1,1,0.10282,-0.40466,-0.73074*
1,1,0.10282,-0.40466,0.73074*
%
%ADD88ROUNDEDRECTD88*%
G04:AMPARAMS|DCode=89|XSize=1.56429mm|YSize=3.22213mm|CornerRadius=0.10032mm|HoleSize=0mm|Usage=FLASHONLY|Rotation=90.000|XOffset=0mm|YOffset=0mm|HoleType=Round|Shape=RoundedRectangle|*
%AMROUNDEDRECTD89*
21,1,1.56429,3.02149,0,0,90.0*
21,1,1.36365,3.22213,0,0,90.0*
1,1,0.20064,1.51074,0.68182*
1,1,0.20064,1.51074,-0.68182*
1,1,0.20064,-1.51074,-0.68182*
1,1,0.20064,-1.51074,0.68182*
%
%ADD89ROUNDEDRECTD89*%
G04:AMPARAMS|DCode=90|XSize=1.484mm|YSize=1.23mm|CornerRadius=0.07525mm|HoleSize=0mm|Usage=FLASHONLY|Rotation=270.000|XOffset=0mm|YOffset=0mm|HoleType=Round|Shape=RoundedRectangle|*
%AMROUNDEDRECTD90*
21,1,1.48400,1.07950,0,0,270.0*
21,1,1.33350,1.23000,0,0,270.0*
1,1,0.15050,-0.53975,-0.66675*
1,1,0.15050,-0.53975,0.66675*
1,1,0.15050,0.53975,0.66675*
1,1,0.15050,0.53975,-0.66675*
%
%ADD90ROUNDEDRECTD90*%
G04:AMPARAMS|DCode=91|XSize=0.722mm|YSize=0.722mm|CornerRadius=0.0181mm|HoleSize=0mm|Usage=FLASHONLY|Rotation=0.000|XOffset=0mm|YOffset=0mm|HoleType=Round|Shape=RoundedRectangle|*
%AMROUNDEDRECTD91*
21,1,0.72200,0.68580,0,0,0.0*
21,1,0.68580,0.72200,0,0,0.0*
1,1,0.03620,0.34290,-0.34290*
1,1,0.03620,-0.34290,-0.34290*
1,1,0.03620,-0.34290,0.34290*
1,1,0.03620,0.34290,0.34290*
%
%ADD91ROUNDEDRECTD91*%
G04:AMPARAMS|DCode=92|XSize=0.96mm|YSize=1.46mm|CornerRadius=0.055mm|HoleSize=0mm|Usage=FLASHONLY|Rotation=90.000|XOffset=0mm|YOffset=0mm|HoleType=Round|Shape=RoundedRectangle|*
%AMROUNDEDRECTD92*
21,1,0.96000,1.35000,0,0,90.0*
21,1,0.85000,1.46000,0,0,90.0*
1,1,0.11000,0.67500,0.42500*
1,1,0.11000,0.67500,-0.42500*
1,1,0.11000,-0.67500,-0.42500*
1,1,0.11000,-0.67500,0.42500*
%
%ADD92ROUNDEDRECTD92*%
G04:AMPARAMS|DCode=93|XSize=2.46mm|YSize=1.56mm|CornerRadius=0.1mm|HoleSize=0mm|Usage=FLASHONLY|Rotation=270.000|XOffset=0mm|YOffset=0mm|HoleType=Round|Shape=RoundedRectangle|*
%AMROUNDEDRECTD93*
21,1,2.46000,1.36000,0,0,270.0*
21,1,2.26000,1.56000,0,0,270.0*
1,1,0.20000,-0.68000,-1.13000*
1,1,0.20000,-0.68000,1.13000*
1,1,0.20000,0.68000,1.13000*
1,1,0.20000,0.68000,-1.13000*
%
%ADD93ROUNDEDRECTD93*%
G04:AMPARAMS|DCode=94|XSize=2.46mm|YSize=1.56mm|CornerRadius=0.1mm|HoleSize=0mm|Usage=FLASHONLY|Rotation=180.000|XOffset=0mm|YOffset=0mm|HoleType=Round|Shape=RoundedRectangle|*
%AMROUNDEDRECTD94*
21,1,2.46000,1.36000,0,0,180.0*
21,1,2.26000,1.56000,0,0,180.0*
1,1,0.20000,-1.13000,0.68000*
1,1,0.20000,1.13000,0.68000*
1,1,0.20000,1.13000,-0.68000*
1,1,0.20000,-1.13000,-0.68000*
%
%ADD94ROUNDEDRECTD94*%
D13*
X2938000Y940000D02*
D03*
X1922000D02*
D03*
D15*
X1160000Y4330000D02*
D03*
Y4780000D02*
D03*
D16*
X1363200Y4423980D02*
D03*
Y4233480D02*
D03*
Y4873980D02*
D03*
Y4683480D02*
D03*
D19*
X3975000Y735500D02*
D03*
X4025000D02*
D03*
X4075000D02*
D03*
X4325000D02*
D03*
X4275000D02*
D03*
X4225000D02*
D03*
X4125000D02*
D03*
X4175000D02*
D03*
D20*
X4390000D02*
D03*
X3910000D02*
D03*
X4470000D02*
D03*
X3830000D02*
D03*
D21*
X4670000Y1976000D02*
D03*
Y2304000D02*
D03*
D88*
X3901000Y1770500D02*
D03*
X4130000D02*
D03*
X4359000D02*
D03*
D89*
X4130000Y2449500D02*
D03*
D90*
X1651000Y4495800D02*
D03*
Y4724400D02*
D03*
X1330000Y3640000D02*
D03*
Y3868600D02*
D03*
X1680000Y811400D02*
D03*
Y1040000D02*
D03*
X3479800Y1193800D02*
D03*
Y965200D02*
D03*
X4724400Y1295400D02*
D03*
Y1066800D02*
D03*
D91*
X730150Y5500000D02*
D03*
X2030150D02*
D03*
X3330150D02*
D03*
X4660300Y5500000D02*
D03*
X5930150D02*
D03*
X7260300D02*
D03*
X900000Y6600000D02*
D03*
X760300D02*
D03*
X2169850Y6600000D02*
D03*
X2030150D02*
D03*
X3500000Y6600000D02*
D03*
X3360300D02*
D03*
X4769850Y6600000D02*
D03*
X4630150D02*
D03*
X6069850D02*
D03*
X5930150D02*
D03*
X7400000Y6600000D02*
D03*
X7260300D02*
D03*
X869850Y5500000D02*
D03*
X2169850D02*
D03*
X3469850D02*
D03*
X4800000Y5500000D02*
D03*
X6069850D02*
D03*
X7400000D02*
D03*
D92*
X7005000Y6070000D02*
D03*
X5705000D02*
D03*
X4405000D02*
D03*
X3105000D02*
D03*
X1805000D02*
D03*
X505000D02*
D03*
X7495000D02*
D03*
X7005000Y5750000D02*
D03*
X7495000D02*
D03*
X505000Y7170000D02*
D03*
X995000D02*
D03*
X505000Y6850000D02*
D03*
X995000D02*
D03*
X1805000Y7170000D02*
D03*
X2295000D02*
D03*
X1805000Y6850000D02*
D03*
X2295000D02*
D03*
X3105000Y7170000D02*
D03*
X3595000D02*
D03*
X3105000Y6850000D02*
D03*
X3595000D02*
D03*
X4405000Y7170000D02*
D03*
X4895000D02*
D03*
X4405000Y6850000D02*
D03*
X4895000D02*
D03*
X5705000Y7170000D02*
D03*
X6195000D02*
D03*
X5705000Y6850000D02*
D03*
X6195000D02*
D03*
X7005000Y7170000D02*
D03*
X7495000D02*
D03*
X7005000Y6850000D02*
D03*
X7495000D02*
D03*
X995000Y6070000D02*
D03*
X505000Y5750000D02*
D03*
X995000D02*
D03*
X2295000Y6070000D02*
D03*
X1805000Y5750000D02*
D03*
X2295000D02*
D03*
X3595000Y6070000D02*
D03*
X3105000Y5750000D02*
D03*
X3595000D02*
D03*
X4895000Y6070000D02*
D03*
X4405000Y5750000D02*
D03*
X4895000D02*
D03*
X6195000Y6070000D02*
D03*
X5705000Y5750000D02*
D03*
X6195000D02*
D03*
D93*
X1000000Y530000D02*
D03*
Y180000D02*
D03*
D94*
X4315000Y1250000D02*
D03*
X3965000D02*
D03*
%TF.MD5,efcdb6c354dac3c37cba5d9d8d1bbd01*%
M02*
