%TF.GenerationSoftware,Altium Limited,Altium Designer,24.0.1 (36)*%
G04 Layer_Color=16711935*
%FSLAX45Y45*%
%MOMM*%
%TF.SameCoordinates,E2561F4A-6B88-4173-B20F-5EBD6E3589F9*%
%TF.FilePolarity,Negative*%
%TF.FileFunction,Soldermask,Bot*%
%TF.Part,Single*%
G01*
G75*
%TA.AperFunction,SMDPad,CuDef*%
G04:AMPARAMS|DCode=58|XSize=1.624mm|YSize=1.37mm|CornerRadius=0.14525mm|HoleSize=0mm|Usage=FLASHONLY|Rotation=270.000|XOffset=0mm|YOffset=0mm|HoleType=Round|Shape=RoundedRectangle|*
%AMROUNDEDRECTD58*
21,1,1.62400,1.07950,0,0,270.0*
21,1,1.33350,1.37000,0,0,270.0*
1,1,0.29050,-0.53975,-0.66675*
1,1,0.29050,-0.53975,0.66675*
1,1,0.29050,0.53975,0.66675*
1,1,0.29050,0.53975,-0.66675*
%
%ADD58ROUNDEDRECTD58*%
%TA.AperFunction,ComponentPad*%
%ADD68C,2.05320*%
%ADD69R,2.05320X2.05320*%
%ADD70R,2.05320X2.05320*%
%TA.AperFunction,WasherPad*%
%ADD71C,0.20320*%
%TA.AperFunction,ComponentPad*%
%ADD72C,1.95321*%
%ADD73R,1.95321X1.95321*%
%ADD74C,0.85320*%
%ADD75O,1.20320X2.30320*%
%ADD76O,1.20320X2.00320*%
%TA.AperFunction,ViaPad*%
%ADD77C,1.60320*%
%ADD78C,1.00320*%
%ADD79C,1.47320*%
%ADD80C,0.80320*%
%ADD81C,1.40320*%
%ADD82C,1.05320*%
%TA.AperFunction,SMDPad,CuDef*%
G04:AMPARAMS|DCode=83|XSize=1mm|YSize=1.6mm|CornerRadius=0.1175mm|HoleSize=0mm|Usage=FLASHONLY|Rotation=0.000|XOffset=0mm|YOffset=0mm|HoleType=Round|Shape=RoundedRectangle|*
%AMROUNDEDRECTD83*
21,1,1.00000,1.36500,0,0,0.0*
21,1,0.76500,1.60000,0,0,0.0*
1,1,0.23500,0.38250,-0.68250*
1,1,0.23500,-0.38250,-0.68250*
1,1,0.23500,-0.38250,0.68250*
1,1,0.23500,0.38250,0.68250*
%
%ADD83ROUNDEDRECTD83*%
G04:AMPARAMS|DCode=84|XSize=1.6mm|YSize=1mm|CornerRadius=0.1175mm|HoleSize=0mm|Usage=FLASHONLY|Rotation=0.000|XOffset=0mm|YOffset=0mm|HoleType=Round|Shape=RoundedRectangle|*
%AMROUNDEDRECTD84*
21,1,1.60000,0.76500,0,0,0.0*
21,1,1.36500,1.00000,0,0,0.0*
1,1,0.23500,0.68250,-0.38250*
1,1,0.23500,-0.68250,-0.38250*
1,1,0.23500,-0.68250,0.38250*
1,1,0.23500,0.68250,0.38250*
%
%ADD84ROUNDEDRECTD84*%
G04:AMPARAMS|DCode=85|XSize=1mm|YSize=1mm|CornerRadius=0.1175mm|HoleSize=0mm|Usage=FLASHONLY|Rotation=0.000|XOffset=0mm|YOffset=0mm|HoleType=Round|Shape=RoundedRectangle|*
%AMROUNDEDRECTD85*
21,1,1.00000,0.76500,0,0,0.0*
21,1,0.76500,1.00000,0,0,0.0*
1,1,0.23500,0.38250,-0.38250*
1,1,0.23500,-0.38250,-0.38250*
1,1,0.23500,-0.38250,0.38250*
1,1,0.23500,0.38250,0.38250*
%
%ADD85ROUNDEDRECTD85*%
%ADD86R,1.11760X1.11760*%
%ADD87R,1.11760X1.47320*%
D58*
X1280000Y4630000D02*
D03*
Y4401400D02*
D03*
X2660000Y3031400D02*
D03*
Y3260000D02*
D03*
D68*
X3454400Y2133600D02*
D03*
Y2387600D02*
D03*
Y3149600D02*
D03*
Y2895600D02*
D03*
Y2641600D02*
D03*
X939800Y2921000D02*
D03*
X1701800D02*
D03*
X1447800D02*
D03*
X1193800D02*
D03*
X4390000Y3240000D02*
D03*
X4644000D02*
D03*
X2282500Y4320000D02*
D03*
X2917500D02*
D03*
X180000Y6746000D02*
D03*
Y7000000D02*
D03*
X7800000Y6746000D02*
D03*
Y7000000D02*
D03*
X180000Y5646000D02*
D03*
Y5900000D02*
D03*
X7800000Y5646000D02*
D03*
Y5900000D02*
D03*
D69*
X3454400Y3403600D02*
D03*
X7800000Y6154000D02*
D03*
X180000D02*
D03*
Y7254000D02*
D03*
X7800000D02*
D03*
D70*
X1955800Y2921000D02*
D03*
X4136000Y3240000D02*
D03*
D71*
X4500000Y5350000D02*
D03*
X3700000D02*
D03*
X2870000D02*
D03*
X2040000D02*
D03*
X1260000D02*
D03*
X390000D02*
D03*
X7569200Y6451600D02*
D03*
X6756400D02*
D03*
X5816600D02*
D03*
X4902200D02*
D03*
X3987800D02*
D03*
X3124200D02*
D03*
X2209800D02*
D03*
X1346200D02*
D03*
X482600D02*
D03*
D72*
X506000Y2794000D02*
D03*
X252000D02*
D03*
X506000Y3048000D02*
D03*
X252000D02*
D03*
X506000Y3302000D02*
D03*
X252000D02*
D03*
X506000Y3556000D02*
D03*
X252000D02*
D03*
X506000Y3810000D02*
D03*
X252000D02*
D03*
X506000Y4064000D02*
D03*
X252000D02*
D03*
X506000Y4318000D02*
D03*
X252000D02*
D03*
X506000Y4572000D02*
D03*
X252000D02*
D03*
X506000Y4826000D02*
D03*
X252000D02*
D03*
X506000Y5080000D02*
D03*
X242840Y2537415D02*
D03*
X496840D02*
D03*
X242840Y2283415D02*
D03*
X496840D02*
D03*
X252000Y2032000D02*
D03*
X506000D02*
D03*
X252000Y1778000D02*
D03*
X506000D02*
D03*
X252000Y1524000D02*
D03*
X506000D02*
D03*
X252000Y1270000D02*
D03*
X506000D02*
D03*
X252000Y1016000D02*
D03*
X506000D02*
D03*
X252000Y762000D02*
D03*
X506000D02*
D03*
X252000Y508000D02*
D03*
X506000D02*
D03*
X252000Y254000D02*
D03*
X506000D02*
D03*
D73*
X252000Y5080000D02*
D03*
D74*
X3861000Y628000D02*
D03*
X4439000D02*
D03*
D75*
X4582000Y678000D02*
D03*
X3718000D02*
D03*
D76*
X4582000Y260000D02*
D03*
X3718000D02*
D03*
D77*
X838200Y3429000D02*
D03*
Y3759200D02*
D03*
X4114800Y2463800D02*
D03*
D78*
X2921000Y2336800D02*
D03*
X2667000Y2057400D02*
D03*
X3073400Y1270000D02*
D03*
X3352800Y1549400D02*
D03*
X3098800Y1143000D02*
D03*
X2514600Y2768600D02*
D03*
X2791500Y2715300D02*
D03*
X2156500Y2534000D02*
D03*
X2032000Y2540000D02*
D03*
X1902500Y2534000D02*
D03*
X2286000Y2692400D02*
D03*
X1160000Y4330000D02*
D03*
X730150Y5500000D02*
D03*
X510000Y6060000D02*
D03*
X2030150Y5500000D02*
D03*
X1810000Y6070000D02*
D03*
X3330000Y5500000D02*
D03*
X3100000Y6070000D02*
D03*
X4660300Y5500000D02*
D03*
X4410000Y6060000D02*
D03*
X5930150Y5500000D02*
D03*
X5710000Y6070000D02*
D03*
X7260300Y5500000D02*
D03*
X7010000Y6070000D02*
D03*
X7260300Y6600000D02*
D03*
X7010000Y7170000D02*
D03*
X5930000Y6600000D02*
D03*
X5710000Y7170000D02*
D03*
X4630150Y6600000D02*
D03*
X4400000Y7170000D02*
D03*
X3360300Y6600000D02*
D03*
X3110000Y7170000D02*
D03*
X1805000Y7170000D02*
D03*
X2020000Y6600000D02*
D03*
X505000Y7170000D02*
D03*
X760300Y6600000D02*
D03*
X2950000Y820000D02*
D03*
X2780000Y810000D02*
D03*
X2057400Y812800D02*
D03*
X990600Y1803400D02*
D03*
X1574800Y1854200D02*
D03*
X1363200Y4873980D02*
D03*
X1345000Y885000D02*
D03*
Y2409000D02*
D03*
Y2282000D02*
D03*
X1803400Y3479800D02*
D03*
X2537500Y2534000D02*
D03*
X1345000Y2028000D02*
D03*
Y1647000D02*
D03*
D79*
X1000000Y155000D02*
D03*
X3901000Y1777536D02*
D03*
X4070000Y1360000D02*
D03*
X2660000Y1570000D02*
D03*
D80*
X3260000Y1760000D02*
D03*
Y1890000D02*
D03*
X1498600Y2387600D02*
D03*
X965200Y4622800D02*
D03*
X1345000Y1012000D02*
D03*
X4013200Y939800D02*
D03*
X4724400Y1066800D02*
D03*
X4315000Y889000D02*
D03*
X4390000Y735500D02*
D03*
X3910000Y736600D02*
D03*
X4170700Y863600D02*
D03*
D81*
X1100000Y1700000D02*
D03*
X1752600Y1981200D02*
D03*
X762000Y914400D02*
D03*
D82*
X1345000Y1139000D02*
D03*
D83*
X2918500Y2534000D02*
D03*
X2791500D02*
D03*
X2664500D02*
D03*
X2537500D02*
D03*
X2410500D02*
D03*
X2283500D02*
D03*
X2156500D02*
D03*
X2029500D02*
D03*
X1902500D02*
D03*
X1775500D02*
D03*
X1648500D02*
D03*
X1521500D02*
D03*
D84*
X3095000Y758000D02*
D03*
Y885000D02*
D03*
Y1012000D02*
D03*
Y1139000D02*
D03*
Y1266000D02*
D03*
Y1393000D02*
D03*
Y1520000D02*
D03*
Y1647000D02*
D03*
Y1774000D02*
D03*
Y1901000D02*
D03*
Y2028000D02*
D03*
Y2155000D02*
D03*
Y2282000D02*
D03*
Y2409000D02*
D03*
X1345000D02*
D03*
Y2282000D02*
D03*
Y2155000D02*
D03*
Y2028000D02*
D03*
Y1901000D02*
D03*
Y1774000D02*
D03*
Y1647000D02*
D03*
Y1520000D02*
D03*
Y1393000D02*
D03*
Y1266000D02*
D03*
Y1139000D02*
D03*
Y1012000D02*
D03*
Y885000D02*
D03*
Y758000D02*
D03*
D85*
X2210000Y1390000D02*
D03*
X2070000D02*
D03*
X1930000D02*
D03*
X2210000Y1670000D02*
D03*
X2070000D02*
D03*
X1930000D02*
D03*
X2210000Y1530000D02*
D03*
X1930000D02*
D03*
X2070000D02*
D03*
D86*
X2670000Y3640000D02*
D03*
X2479500D02*
D03*
D87*
X2573480Y3843200D02*
D03*
%TF.MD5,d7d47576b640cc464a22a94d54844e2a*%
M02*
