%TF.GenerationSoftware,Altium Limited,Altium Designer,24.0.1 (36)*%
G04 Layer_Color=32896*
%FSLAX45Y45*%
%MOMM*%
%TF.SameCoordinates,E2561F4A-6B88-4173-B20F-5EBD6E3589F9*%
%TF.FilePolarity,Positive*%
%TF.FileFunction,Legend,Bot*%
%TF.Part,Single*%
G01*
G75*
%TA.AperFunction,NonConductor*%
%ADD50C,0.25400*%
%ADD51C,0.20000*%
%ADD52C,0.30480*%
%ADD53C,0.12700*%
D50*
X7543825Y7416751D02*
X7594608D01*
X7620000Y7391359D01*
Y7289792D01*
X7594608Y7264400D01*
X7543825D01*
X7518433Y7289792D01*
Y7391359D01*
X7543825Y7416751D01*
X7467649D02*
Y7289792D01*
X7442257Y7264400D01*
X7391474D01*
X7366082Y7289792D01*
Y7416751D01*
X7315299D02*
X7213731D01*
X7264515D01*
Y7264400D01*
X7543825Y6324551D02*
X7594608D01*
X7620000Y6299159D01*
Y6197592D01*
X7594608Y6172200D01*
X7543825D01*
X7518433Y6197592D01*
Y6299159D01*
X7543825Y6324551D01*
X7467649D02*
Y6197592D01*
X7442257Y6172200D01*
X7391474D01*
X7366082Y6197592D01*
Y6324551D01*
X7315299D02*
X7213731D01*
X7264515D01*
Y6172200D01*
X584200Y6349951D02*
X533417D01*
X558808D01*
Y6197600D01*
X584200D01*
X533417D01*
X457241D02*
Y6349951D01*
X355674Y6197600D01*
Y6349951D01*
X584200Y7442151D02*
X533417D01*
X558808D01*
Y7289800D01*
X584200D01*
X533417D01*
X457241D02*
Y7442151D01*
X355674Y7289800D01*
Y7442151D01*
X4876833Y6324551D02*
X4902225Y6349943D01*
X4953008D01*
X4978400Y6324551D01*
Y6222984D01*
X4953008Y6197592D01*
X4902225D01*
X4876833Y6222984D01*
X4800657Y6197592D02*
X4749874D01*
X4724482Y6222984D01*
Y6273767D01*
X4749874Y6299159D01*
X4800657D01*
X4826049Y6273767D01*
Y6222984D01*
X4800657Y6197592D01*
X4673699D02*
Y6299159D01*
X4597523D01*
X4572131Y6273767D01*
Y6197592D01*
X4495956Y6324551D02*
Y6299159D01*
X4521348D01*
X4470564D01*
X4495956D01*
Y6222984D01*
X4470564Y6197592D01*
X4394389Y6299159D02*
Y6197592D01*
Y6248375D01*
X4368997Y6273767D01*
X4343605Y6299159D01*
X4318214D01*
X4216646Y6197592D02*
X4165863D01*
X4140471Y6222984D01*
Y6273767D01*
X4165863Y6299159D01*
X4216646D01*
X4242038Y6273767D01*
Y6222984D01*
X4216646Y6197592D01*
X4089688D02*
X4038904D01*
X4064296D01*
Y6349943D01*
X4089688D01*
X3962729Y6273767D02*
X3861161D01*
X3810378Y6197592D02*
Y6349943D01*
X3734203D01*
X3708811Y6324551D01*
Y6273767D01*
X3734203Y6248375D01*
X3810378D01*
X3632635Y6299159D02*
X3581852D01*
X3556460Y6273767D01*
Y6197592D01*
X3632635D01*
X3658027Y6222984D01*
X3632635Y6248375D01*
X3556460D01*
X3505677Y6197592D02*
Y6299159D01*
X3429501D01*
X3404109Y6273767D01*
Y6197592D01*
X3277150D02*
X3327934D01*
X3353326Y6222984D01*
Y6273767D01*
X3327934Y6299159D01*
X3277150D01*
X3251759Y6273767D01*
Y6248375D01*
X3353326D01*
X3200975Y6197592D02*
X3150192D01*
X3175583D01*
Y6349943D01*
X3200975D01*
X3074016Y6172200D02*
X2972449D01*
X2921665Y6197592D02*
Y6299159D01*
X2870882Y6349943D01*
X2820098Y6299159D01*
Y6197592D01*
Y6273767D01*
X2921665D01*
X2769315Y6197592D02*
Y6349943D01*
X2693139D01*
X2667748Y6324551D01*
Y6273767D01*
X2693139Y6248375D01*
X2769315D01*
X2718531D02*
X2667748Y6197592D01*
X2515397Y6324551D02*
X2540789Y6349943D01*
X2591572D01*
X2616964Y6324551D01*
Y6222984D01*
X2591572Y6197592D01*
X2540789D01*
X2515397Y6222984D01*
Y6273767D01*
X2566181D01*
X2464613Y6349943D02*
Y6197592D01*
X2388438D01*
X2363046Y6222984D01*
Y6248375D01*
X2388438Y6273767D01*
X2464613D01*
X2388438D01*
X2363046Y6299159D01*
Y6324551D01*
X2388438Y6349943D01*
X2464613D01*
X2210695Y6197592D02*
X2312263D01*
X2210695Y6299159D01*
Y6324551D01*
X2236087Y6349943D01*
X2286871D01*
X2312263Y6324551D01*
X4876833Y7416751D02*
X4902225Y7442143D01*
X4953008D01*
X4978400Y7416751D01*
Y7315184D01*
X4953008Y7289792D01*
X4902225D01*
X4876833Y7315184D01*
X4800657Y7289792D02*
X4749874D01*
X4724482Y7315184D01*
Y7365967D01*
X4749874Y7391359D01*
X4800657D01*
X4826049Y7365967D01*
Y7315184D01*
X4800657Y7289792D01*
X4673699D02*
Y7391359D01*
X4597523D01*
X4572131Y7365967D01*
Y7289792D01*
X4495956Y7416751D02*
Y7391359D01*
X4521348D01*
X4470564D01*
X4495956D01*
Y7315184D01*
X4470564Y7289792D01*
X4394389Y7391359D02*
Y7289792D01*
Y7340575D01*
X4368997Y7365967D01*
X4343605Y7391359D01*
X4318214D01*
X4216646Y7289792D02*
X4165863D01*
X4140471Y7315184D01*
Y7365967D01*
X4165863Y7391359D01*
X4216646D01*
X4242038Y7365967D01*
Y7315184D01*
X4216646Y7289792D01*
X4089688D02*
X4038904D01*
X4064296D01*
Y7442143D01*
X4089688D01*
X3962729Y7365967D02*
X3861161D01*
X3810378Y7289792D02*
Y7442143D01*
X3734203D01*
X3708811Y7416751D01*
Y7365967D01*
X3734203Y7340575D01*
X3810378D01*
X3632635Y7391359D02*
X3581852D01*
X3556460Y7365967D01*
Y7289792D01*
X3632635D01*
X3658027Y7315184D01*
X3632635Y7340575D01*
X3556460D01*
X3505677Y7289792D02*
Y7391359D01*
X3429501D01*
X3404109Y7365967D01*
Y7289792D01*
X3277150D02*
X3327934D01*
X3353326Y7315184D01*
Y7365967D01*
X3327934Y7391359D01*
X3277150D01*
X3251759Y7365967D01*
Y7340575D01*
X3353326D01*
X3200975Y7289792D02*
X3150192D01*
X3175583D01*
Y7442143D01*
X3200975D01*
X3074016Y7264400D02*
X2972449D01*
X2921665Y7289792D02*
Y7391359D01*
X2870882Y7442143D01*
X2820098Y7391359D01*
Y7289792D01*
Y7365967D01*
X2921665D01*
X2769315Y7289792D02*
Y7442143D01*
X2693139D01*
X2667748Y7416751D01*
Y7365967D01*
X2693139Y7340575D01*
X2769315D01*
X2718531D02*
X2667748Y7289792D01*
X2515397Y7416751D02*
X2540789Y7442143D01*
X2591572D01*
X2616964Y7416751D01*
Y7315184D01*
X2591572Y7289792D01*
X2540789D01*
X2515397Y7315184D01*
Y7365967D01*
X2566181D01*
X2464613Y7442143D02*
Y7289792D01*
X2388438D01*
X2363046Y7315184D01*
Y7340575D01*
X2388438Y7365967D01*
X2464613D01*
X2388438D01*
X2363046Y7391359D01*
Y7416751D01*
X2388438Y7442143D01*
X2464613D01*
X2312263Y7289792D02*
X2261479D01*
X2286871D01*
Y7442143D01*
X2312263Y7416751D01*
X2509980Y2812800D02*
Y2660449D01*
X2586155D01*
X2611547Y2685841D01*
Y2736625D01*
X2586155Y2762017D01*
X2509980D01*
X2560763D02*
X2611547Y2812800D01*
X2763898Y2660449D02*
X2713114Y2685841D01*
X2662331Y2736625D01*
Y2787408D01*
X2687723Y2812800D01*
X2738506D01*
X2763898Y2787408D01*
Y2762017D01*
X2738506Y2736625D01*
X2662331D01*
X1559720Y2842371D02*
Y2715412D01*
X1534328Y2690020D01*
X1483545D01*
X1458153Y2715412D01*
Y2842371D01*
X1305802Y2816979D02*
X1331194Y2842371D01*
X1381977D01*
X1407369Y2816979D01*
Y2715412D01*
X1381977Y2690020D01*
X1331194D01*
X1305802Y2715412D01*
X1255019Y2690020D02*
X1204235D01*
X1229627D01*
Y2842371D01*
X1255019Y2816979D01*
X1430620Y4848740D02*
Y5001091D01*
X1354444D01*
X1329052Y4975699D01*
Y4924915D01*
X1354444Y4899524D01*
X1430620D01*
X1379836D02*
X1329052Y4848740D01*
X1202094D02*
Y5001091D01*
X1278269Y4924915D01*
X1176702D01*
X2540193Y4018432D02*
Y4119999D01*
X2565585Y4145391D01*
X2616368D01*
X2641760Y4119999D01*
Y4018432D01*
X2616368Y3993040D01*
X2565585D01*
X2590977Y4043824D02*
X2540193Y3993040D01*
X2565585D02*
X2540193Y4018432D01*
X2489409Y3993040D02*
X2438626D01*
X2464017D01*
Y4145391D01*
X2489409Y4119999D01*
D51*
X1210000Y758000D02*
G03*
X1210000Y758000I-10000J0D01*
G01*
D52*
X2670000Y3855900D02*
X2720800D01*
X2568400Y3627300D02*
X2581100D01*
X2428700Y3855900D02*
X2479500D01*
X2720800Y3741600D02*
Y3855900D01*
X2428700Y3741600D02*
Y3855900D01*
X1165700Y4757000D02*
X1394300D01*
X1165700Y4274400D02*
X1394300D01*
Y4566500D02*
Y4757000D01*
X1165700Y4566500D02*
Y4757000D01*
Y4274400D02*
Y4464900D01*
X1394300Y4274400D02*
Y4464900D01*
X2545700Y2904400D02*
X2774300D01*
X2545700Y3387000D02*
X2774300D01*
X2545700Y2904400D02*
Y3094900D01*
X2774300Y2904400D02*
Y3094900D01*
Y3196500D02*
Y3387000D01*
X2545700Y3196500D02*
Y3387000D01*
D53*
X2995500Y2559000D02*
X3120000D01*
Y2486000D02*
Y2559000D01*
X1320000D02*
X1444500D01*
X1320000Y2486000D02*
Y2559000D01*
Y9000D02*
Y681000D01*
X3120000Y9000D02*
Y681000D01*
X1320000Y9000D02*
X3120000D01*
%TF.MD5,c09e27b8ba3f8a7aaa3eb3c5709ab64a*%
M02*
