%TF.GenerationSoftware,Altium Limited,Altium Designer,24.0.1 (36)*%
G04 Layer_Color=128*
%FSLAX45Y45*%
%MOMM*%
%TF.SameCoordinates,E2561F4A-6B88-4173-B20F-5EBD6E3589F9*%
%TF.FilePolarity,Positive*%
%TF.FileFunction,Paste,Bot*%
%TF.Part,Single*%
G01*
G75*
%TA.AperFunction,SMDPad,CuDef*%
%ADD47R,0.91440X0.91440*%
%ADD48R,0.91440X1.27000*%
G04:AMPARAMS|DCode=90|XSize=1.484mm|YSize=1.23mm|CornerRadius=0.07525mm|HoleSize=0mm|Usage=FLASHONLY|Rotation=270.000|XOffset=0mm|YOffset=0mm|HoleType=Round|Shape=RoundedRectangle|*
%AMROUNDEDRECTD90*
21,1,1.48400,1.07950,0,0,270.0*
21,1,1.33350,1.23000,0,0,270.0*
1,1,0.15050,-0.53975,-0.66675*
1,1,0.15050,-0.53975,0.66675*
1,1,0.15050,0.53975,0.66675*
1,1,0.15050,0.53975,-0.66675*
%
%ADD90ROUNDEDRECTD90*%
G04:AMPARAMS|DCode=95|XSize=0.86mm|YSize=1.46mm|CornerRadius=0.0475mm|HoleSize=0mm|Usage=FLASHONLY|Rotation=0.000|XOffset=0mm|YOffset=0mm|HoleType=Round|Shape=RoundedRectangle|*
%AMROUNDEDRECTD95*
21,1,0.86000,1.36500,0,0,0.0*
21,1,0.76500,1.46000,0,0,0.0*
1,1,0.09500,0.38250,-0.68250*
1,1,0.09500,-0.38250,-0.68250*
1,1,0.09500,-0.38250,0.68250*
1,1,0.09500,0.38250,0.68250*
%
%ADD95ROUNDEDRECTD95*%
G04:AMPARAMS|DCode=96|XSize=1.46mm|YSize=0.86mm|CornerRadius=0.0475mm|HoleSize=0mm|Usage=FLASHONLY|Rotation=0.000|XOffset=0mm|YOffset=0mm|HoleType=Round|Shape=RoundedRectangle|*
%AMROUNDEDRECTD96*
21,1,1.46000,0.76500,0,0,0.0*
21,1,1.36500,0.86000,0,0,0.0*
1,1,0.09500,0.68250,-0.38250*
1,1,0.09500,-0.68250,-0.38250*
1,1,0.09500,-0.68250,0.38250*
1,1,0.09500,0.68250,0.38250*
%
%ADD96ROUNDEDRECTD96*%
G04:AMPARAMS|DCode=97|XSize=0.86mm|YSize=0.86mm|CornerRadius=0.0475mm|HoleSize=0mm|Usage=FLASHONLY|Rotation=0.000|XOffset=0mm|YOffset=0mm|HoleType=Round|Shape=RoundedRectangle|*
%AMROUNDEDRECTD97*
21,1,0.86000,0.76500,0,0,0.0*
21,1,0.76500,0.86000,0,0,0.0*
1,1,0.09500,0.38250,-0.38250*
1,1,0.09500,-0.38250,-0.38250*
1,1,0.09500,-0.38250,0.38250*
1,1,0.09500,0.38250,0.38250*
%
%ADD97ROUNDEDRECTD97*%
D47*
X2670000Y3640000D02*
D03*
X2479500D02*
D03*
D48*
X2573480Y3843200D02*
D03*
D90*
X1280000Y4630000D02*
D03*
Y4401400D02*
D03*
X2660000Y3031400D02*
D03*
Y3260000D02*
D03*
D95*
X2918500Y2534000D02*
D03*
X2791500D02*
D03*
X2664500D02*
D03*
X2537500D02*
D03*
X2410500D02*
D03*
X2283500D02*
D03*
X2156500D02*
D03*
X2029500D02*
D03*
X1902500D02*
D03*
X1775500D02*
D03*
X1648500D02*
D03*
X1521500D02*
D03*
D96*
X3095000Y758000D02*
D03*
Y885000D02*
D03*
Y1012000D02*
D03*
Y1139000D02*
D03*
Y1266000D02*
D03*
Y1393000D02*
D03*
Y1520000D02*
D03*
Y1647000D02*
D03*
Y1774000D02*
D03*
Y1901000D02*
D03*
Y2028000D02*
D03*
Y2155000D02*
D03*
Y2282000D02*
D03*
Y2409000D02*
D03*
X1345000D02*
D03*
Y2282000D02*
D03*
Y2155000D02*
D03*
Y2028000D02*
D03*
Y1901000D02*
D03*
Y1774000D02*
D03*
Y1647000D02*
D03*
Y1520000D02*
D03*
Y1393000D02*
D03*
Y1266000D02*
D03*
Y1139000D02*
D03*
Y1012000D02*
D03*
Y885000D02*
D03*
Y758000D02*
D03*
D97*
X2210000Y1390000D02*
D03*
X2070000D02*
D03*
X1930000D02*
D03*
X2210000Y1670000D02*
D03*
X2070000D02*
D03*
X1930000D02*
D03*
X2210000Y1530000D02*
D03*
X1930000D02*
D03*
X2070000D02*
D03*
%TF.MD5,423be466b12bacb67743c0b59558b439*%
M02*
