%TF.GenerationSoftware,Altium Limited,Altium Designer,24.0.1 (36)*%
G04 Layer_Color=65535*
%FSLAX45Y45*%
%MOMM*%
%TF.SameCoordinates,65C793CC-7C80-44E8-9821-AA658A2EEAB5*%
%TF.FilePolarity,Positive*%
%TF.FileFunction,Legend,Top*%
%TF.Part,Single*%
G01*
G75*
%TA.AperFunction,NonConductor*%
%ADD46C,0.20000*%
%ADD47C,0.25400*%
%ADD48C,0.30480*%
%ADD49C,0.12700*%
D46*
X1140300Y1730000D02*
G03*
X1140300Y1730000I-10000J0D01*
G01*
X5620300Y120600D02*
G03*
X5620300Y120600I-10000J0D01*
G01*
X6029000Y1623000D02*
G03*
X6029000Y1623000I-10000J0D01*
G01*
Y2194500D02*
G03*
X6029000Y2194500I-10000J0D01*
G01*
X860000Y1825000D02*
G03*
X860000Y1825000I-10000J0D01*
G01*
X1603500Y140500D02*
G03*
X1603500Y140500I-10000J0D01*
G01*
X6029000Y480000D02*
G03*
X6029000Y480000I-10000J0D01*
G01*
X2284000Y1275200D02*
G03*
X2284000Y1275200I-10000J0D01*
G01*
X2491500Y246500D02*
G03*
X2491500Y246500I-10000J0D01*
G01*
X1528000Y1408200D02*
G03*
X1528000Y1408200I-10000J0D01*
G01*
X6029000Y1051500D02*
G03*
X6029000Y1051500I-10000J0D01*
G01*
X5535500Y210500D02*
G03*
X5535500Y210500I-10000J0D01*
G01*
X390000Y1053000D02*
X515000D01*
X390000Y1947000D02*
X515000D01*
X-10000Y1053000D02*
X118000D01*
X-10000Y1947000D02*
X118000D01*
D47*
X1889000Y2373000D02*
Y2627000D01*
X2143000Y2373000D02*
Y2627000D01*
X873000Y2373000D02*
X2143000D01*
X873000Y2627000D02*
X2143000D01*
X873000Y2373000D02*
Y2627000D01*
X6873000Y1011000D02*
X7127000D01*
X6873000Y757000D02*
X7127000D01*
X6873000D02*
Y2281000D01*
X7127000Y757000D02*
Y2281000D01*
X6873000D02*
X7127000D01*
X4273000Y2473000D02*
Y2727000D01*
X4527000Y2473000D02*
Y2727000D01*
X3003000Y2473000D02*
X4527000D01*
X3003000Y2727000D02*
X4527000D01*
X3003000Y2473000D02*
Y2727000D01*
X4665000Y2473000D02*
Y2727000D01*
X5427000Y2473000D02*
Y2727000D01*
X5681000Y2473000D02*
Y2727000D01*
X4665000Y2473000D02*
X5681000D01*
X4665000Y2727000D02*
X5681000D01*
X2824500Y870000D02*
X3324500D01*
X2324500D02*
X2824500D01*
X2389500Y420000D02*
X2824500D01*
X3259500D01*
X2324500Y870000D02*
X2389500Y420000D01*
X3259500D02*
X3324500Y870000D01*
X2343328Y740000D02*
X3305293D01*
X5742032Y1807174D02*
X5722039Y1787181D01*
Y1747194D01*
X5742032Y1727200D01*
X5822006D01*
X5842000Y1747194D01*
Y1787181D01*
X5822006Y1807174D01*
X5782019D01*
Y1767187D01*
X5842000Y1847161D02*
X5722039D01*
X5842000Y1927135D01*
X5722039D01*
Y1967122D02*
X5842000D01*
Y2027103D01*
X5822006Y2047096D01*
X5742032D01*
X5722039Y2027103D01*
Y1967122D01*
X5842000Y1066800D02*
X5742032D01*
Y1116784D01*
X5758693Y1133445D01*
X5792016D01*
X5808677Y1116784D01*
Y1066800D01*
Y1100122D02*
X5842000Y1133445D01*
X5742032Y1233413D02*
Y1166768D01*
X5842000D01*
Y1233413D01*
X5792016Y1166768D02*
Y1200090D01*
X5758693Y1333380D02*
X5742032Y1316719D01*
Y1283397D01*
X5758693Y1266735D01*
X5775355D01*
X5792016Y1283397D01*
Y1316719D01*
X5808677Y1333380D01*
X5825338D01*
X5842000Y1316719D01*
Y1283397D01*
X5825338Y1266735D01*
X5742032Y1433348D02*
Y1366703D01*
X5842000D01*
Y1433348D01*
X5792016Y1366703D02*
Y1400026D01*
X5742032Y1466671D02*
Y1533316D01*
Y1499993D01*
X5842000D01*
X5588000Y2821032D02*
X5568006Y2801039D01*
X5528019D01*
X5508026Y2821032D01*
Y2841026D01*
X5528019Y2861019D01*
X5548013D01*
X5528019D01*
X5508026Y2881013D01*
Y2901006D01*
X5528019Y2921000D01*
X5568006D01*
X5588000Y2901006D01*
X5274019Y2921000D02*
Y2801039D01*
X5334000Y2861019D01*
X5254026D01*
X5000026Y2801039D02*
X5080000D01*
Y2861019D01*
X5040013Y2841026D01*
X5020019D01*
X5000026Y2861019D01*
Y2901006D01*
X5020019Y2921000D01*
X5060006D01*
X5080000Y2901006D01*
X4746026Y2801039D02*
X4786013Y2821032D01*
X4826000Y2861019D01*
Y2901006D01*
X4806006Y2921000D01*
X4766019D01*
X4746026Y2901006D01*
Y2881013D01*
X4766019Y2861019D01*
X4826000D01*
X4445000Y2801039D02*
X4365026D01*
Y2821032D01*
X4445000Y2901006D01*
Y2921000D01*
X4191000Y2821032D02*
X4171006Y2801039D01*
X4131019D01*
X4111026Y2821032D01*
Y2841026D01*
X4131019Y2861019D01*
X4111026Y2881013D01*
Y2901006D01*
X4131019Y2921000D01*
X4171006D01*
X4191000Y2901006D01*
Y2881013D01*
X4171006Y2861019D01*
X4191000Y2841026D01*
Y2821032D01*
X4171006Y2861019D02*
X4131019D01*
X3937000Y2901006D02*
X3917006Y2921000D01*
X3877019D01*
X3857026Y2901006D01*
Y2821032D01*
X3877019Y2801039D01*
X3917006D01*
X3937000Y2821032D01*
Y2841026D01*
X3917006Y2861019D01*
X3857026D01*
X3759200Y2921000D02*
X3719213D01*
X3739206D01*
Y2801039D01*
X3759200Y2821032D01*
X3659232D02*
X3639239Y2801039D01*
X3599252D01*
X3579258Y2821032D01*
Y2901006D01*
X3599252Y2921000D01*
X3639239D01*
X3659232Y2901006D01*
Y2821032D01*
X3454400Y2921000D02*
X3414413D01*
X3434406D01*
Y2801039D01*
X3454400Y2821032D01*
X3354432D02*
X3334439Y2801039D01*
X3294452D01*
X3274458Y2821032D01*
Y2841026D01*
X3294452Y2861019D01*
X3274458Y2881013D01*
Y2901006D01*
X3294452Y2921000D01*
X3334439D01*
X3354432Y2901006D01*
Y2881013D01*
X3334439Y2861019D01*
X3354432Y2841026D01*
Y2821032D01*
X3334439Y2861019D02*
X3294452D01*
X3149600Y2921000D02*
X3109613D01*
X3129606D01*
Y2801039D01*
X3149600Y2821032D01*
X3049632Y2901006D02*
X3029639Y2921000D01*
X2989652D01*
X2969658Y2901006D01*
Y2821032D01*
X2989652Y2801039D01*
X3029639D01*
X3049632Y2821032D01*
Y2841026D01*
X3029639Y2861019D01*
X2969658D01*
X7229445Y2191506D02*
X7212784Y2208168D01*
X7179461D01*
X7162800Y2191506D01*
Y2124861D01*
X7179461Y2108200D01*
X7212784D01*
X7229445Y2124861D01*
Y2158184D01*
X7196123D01*
X7262768Y2108200D02*
Y2208168D01*
X7329413Y2108200D01*
Y2208168D01*
X7362736D02*
Y2108200D01*
X7412719D01*
X7429381Y2124861D01*
Y2191506D01*
X7412719Y2208168D01*
X7362736D01*
X7162800Y921506D02*
X7179461Y938168D01*
X7212784D01*
X7229445Y921506D01*
Y904845D01*
X7212784Y888184D01*
X7196123D01*
X7212784D01*
X7229445Y871523D01*
Y854861D01*
X7212784Y838200D01*
X7179461D01*
X7162800Y854861D01*
X7262768Y938168D02*
Y871523D01*
X7296090Y838200D01*
X7329413Y871523D01*
Y938168D01*
X7362736Y921506D02*
X7379397Y938168D01*
X7412719D01*
X7429381Y921506D01*
Y904845D01*
X7412719Y888184D01*
X7396058D01*
X7412719D01*
X7429381Y871523D01*
Y854861D01*
X7412719Y838200D01*
X7379397D01*
X7362736Y854861D01*
X7162800Y1175506D02*
X7179461Y1192168D01*
X7212784D01*
X7229445Y1175506D01*
Y1158845D01*
X7212784Y1142184D01*
X7196123D01*
X7212784D01*
X7229445Y1125523D01*
Y1108861D01*
X7212784Y1092200D01*
X7179461D01*
X7162800Y1108861D01*
X7262768Y1192168D02*
Y1125523D01*
X7296090Y1092200D01*
X7329413Y1125523D01*
Y1192168D01*
X7362736Y1175506D02*
X7379397Y1192168D01*
X7412719D01*
X7429381Y1175506D01*
Y1158845D01*
X7412719Y1142184D01*
X7396058D01*
X7412719D01*
X7429381Y1125523D01*
Y1108861D01*
X7412719Y1092200D01*
X7379397D01*
X7362736Y1108861D01*
X7162800Y1429506D02*
X7179461Y1446168D01*
X7212784D01*
X7229445Y1429506D01*
Y1412845D01*
X7212784Y1396184D01*
X7196123D01*
X7212784D01*
X7229445Y1379523D01*
Y1362861D01*
X7212784Y1346200D01*
X7179461D01*
X7162800Y1362861D01*
X7262768Y1446168D02*
Y1379523D01*
X7296090Y1346200D01*
X7329413Y1379523D01*
Y1446168D01*
X7362736Y1429506D02*
X7379397Y1446168D01*
X7412719D01*
X7429381Y1429506D01*
Y1412845D01*
X7412719Y1396184D01*
X7396058D01*
X7412719D01*
X7429381Y1379523D01*
Y1362861D01*
X7412719Y1346200D01*
X7379397D01*
X7362736Y1362861D01*
X7229445Y1683506D02*
X7212784Y1700168D01*
X7179461D01*
X7162800Y1683506D01*
Y1616861D01*
X7179461Y1600200D01*
X7212784D01*
X7229445Y1616861D01*
Y1650184D01*
X7196123D01*
X7262768Y1600200D02*
Y1700168D01*
X7329413Y1600200D01*
Y1700168D01*
X7362736D02*
Y1600200D01*
X7412719D01*
X7429381Y1616861D01*
Y1683506D01*
X7412719Y1700168D01*
X7362736D01*
X7229445Y1937506D02*
X7212784Y1954168D01*
X7179461D01*
X7162800Y1937506D01*
Y1870861D01*
X7179461Y1854200D01*
X7212784D01*
X7229445Y1870861D01*
Y1904184D01*
X7196123D01*
X7262768Y1854200D02*
Y1954168D01*
X7329413Y1854200D01*
Y1954168D01*
X7362736D02*
Y1854200D01*
X7412719D01*
X7429381Y1870861D01*
Y1937506D01*
X7412719Y1954168D01*
X7362736D01*
X304808Y1574775D02*
X254025D01*
X279417D01*
Y1447817D01*
X254025Y1422425D01*
X228633D01*
X203241Y1447817D01*
X431767Y1422425D02*
Y1574775D01*
X355592Y1498600D01*
X457159D01*
X190541Y482625D02*
Y634975D01*
X266717D01*
X292108Y609583D01*
Y558800D01*
X266717Y533408D01*
X190541D01*
X241325D02*
X292108Y482625D01*
X342892Y609583D02*
X368284Y634975D01*
X419067D01*
X444459Y609583D01*
Y584192D01*
X419067Y558800D01*
X444459Y533408D01*
Y508017D01*
X419067Y482625D01*
X368284D01*
X342892Y508017D01*
Y533408D01*
X368284Y558800D01*
X342892Y584192D01*
Y609583D01*
X368284Y558800D02*
X419067D01*
X584241Y2070125D02*
Y2222475D01*
X660417D01*
X685808Y2197083D01*
Y2146300D01*
X660417Y2120908D01*
X584241D01*
X635025D02*
X685808Y2070125D01*
X736592Y2222475D02*
X838159D01*
Y2197083D01*
X736592Y2095517D01*
Y2070125D01*
X3073408Y2108217D02*
Y2209783D01*
X3048017Y2235175D01*
X2997233D01*
X2971841Y2209783D01*
Y2108217D01*
X2997233Y2082825D01*
X3048017D01*
X3022625Y2133608D02*
X3073408Y2082825D01*
X3048017D02*
X3073408Y2108217D01*
X3124192Y2209783D02*
X3149584Y2235175D01*
X3200367D01*
X3225759Y2209783D01*
Y2184392D01*
X3200367Y2159000D01*
X3174975D01*
X3200367D01*
X3225759Y2133608D01*
Y2108217D01*
X3200367Y2082825D01*
X3149584D01*
X3124192Y2108217D01*
X2057408Y1790717D02*
Y1892283D01*
X2032017Y1917675D01*
X1981233D01*
X1955841Y1892283D01*
Y1790717D01*
X1981233Y1765325D01*
X2032017D01*
X2006625Y1816108D02*
X2057408Y1765325D01*
X2032017D02*
X2057408Y1790717D01*
X2209759Y1765325D02*
X2108192D01*
X2209759Y1866892D01*
Y1892283D01*
X2184367Y1917675D01*
X2133584D01*
X2108192Y1892283D01*
X6667525Y2362208D02*
Y2311425D01*
Y2336817D01*
X6794483D01*
X6819875Y2311425D01*
Y2286033D01*
X6794483Y2260641D01*
X6667525Y2514559D02*
Y2412992D01*
X6743700D01*
X6718308Y2463775D01*
Y2489167D01*
X6743700Y2514559D01*
X6794483D01*
X6819875Y2489167D01*
Y2438384D01*
X6794483Y2412992D01*
X1625600Y457217D02*
Y558783D01*
X1600208Y584175D01*
X1549425D01*
X1524033Y558783D01*
Y457217D01*
X1549425Y431825D01*
X1600208D01*
X1574817Y482608D02*
X1625600Y431825D01*
X1600208D02*
X1625600Y457217D01*
X1676384Y431825D02*
X1727167D01*
X1701776D01*
Y584175D01*
X1676384Y558783D01*
X6253541Y386175D02*
Y233825D01*
X6329717D01*
X6355108Y259216D01*
Y360783D01*
X6329717Y386175D01*
X6253541D01*
X6507459D02*
X6456675Y360783D01*
X6405892Y310000D01*
Y259216D01*
X6431284Y233825D01*
X6482067D01*
X6507459Y259216D01*
Y284608D01*
X6482067Y310000D01*
X6405892D01*
X6267041Y957675D02*
Y805325D01*
X6343217D01*
X6368609Y830716D01*
Y932283D01*
X6343217Y957675D01*
X6267041D01*
X6520959D02*
X6419392D01*
Y881500D01*
X6470176Y906892D01*
X6495567D01*
X6520959Y881500D01*
Y830716D01*
X6495567Y805325D01*
X6444784D01*
X6419392Y830716D01*
X6273841Y1549375D02*
Y1397025D01*
X6350017D01*
X6375408Y1422417D01*
Y1523983D01*
X6350017Y1549375D01*
X6273841D01*
X6502367Y1397025D02*
Y1549375D01*
X6426192Y1473200D01*
X6527759D01*
X6261141Y2120875D02*
Y1968525D01*
X6337317D01*
X6362708Y1993917D01*
Y2095483D01*
X6337317Y2120875D01*
X6261141D01*
X6413492Y2095483D02*
X6438884Y2120875D01*
X6489667D01*
X6515059Y2095483D01*
Y2070092D01*
X6489667Y2044700D01*
X6464275D01*
X6489667D01*
X6515059Y2019308D01*
Y1993917D01*
X6489667Y1968525D01*
X6438884D01*
X6413492Y1993917D01*
X5548449Y2400284D02*
Y2284195D01*
X5541193Y2262428D01*
X5533938Y2255172D01*
X5519427Y2247917D01*
X5504915D01*
X5490404Y2255172D01*
X5483149Y2262428D01*
X5475893Y2284195D01*
Y2298706D01*
X5587629Y2371261D02*
X5602140Y2378517D01*
X5623907Y2400284D01*
Y2247917D01*
X1282741Y1625575D02*
Y1498617D01*
X1308133Y1473225D01*
X1358917D01*
X1384308Y1498617D01*
Y1625575D01*
X1435092Y1600183D02*
X1460484Y1625575D01*
X1511267D01*
X1536659Y1600183D01*
Y1574792D01*
X1511267Y1549400D01*
X1485875D01*
X1511267D01*
X1536659Y1524008D01*
Y1498617D01*
X1511267Y1473225D01*
X1460484D01*
X1435092Y1498617D01*
X3523000Y1757751D02*
Y1630792D01*
X3548392Y1605400D01*
X3599175D01*
X3624567Y1630792D01*
Y1757751D01*
X3776918Y1605400D02*
X3675351D01*
X3776918Y1706967D01*
Y1732359D01*
X3751526Y1757751D01*
X3700743D01*
X3675351Y1732359D01*
X3230933Y1084675D02*
Y957716D01*
X3256325Y932325D01*
X3307108D01*
X3332500Y957716D01*
Y1084675D01*
X3383284Y932325D02*
X3434067D01*
X3408676D01*
Y1084675D01*
X3383284Y1059283D01*
X2451141Y2286025D02*
Y2438375D01*
X2527317D01*
X2552708Y2412983D01*
Y2362200D01*
X2527317Y2336808D01*
X2451141D01*
X2501925D02*
X2552708Y2286025D01*
X2705059Y2438375D02*
X2603492D01*
Y2362200D01*
X2654275Y2387592D01*
X2679667D01*
X2705059Y2362200D01*
Y2311417D01*
X2679667Y2286025D01*
X2628884D01*
X2603492Y2311417D01*
X2260633Y63525D02*
Y215875D01*
X2336808D01*
X2362200Y190483D01*
Y139700D01*
X2336808Y114308D01*
X2260633D01*
X2311417D02*
X2362200Y63525D01*
X2412984D02*
X2463767D01*
X2438376D01*
Y215875D01*
X2412984Y190483D01*
X4368808Y2400275D02*
X4318025D01*
X4343417D01*
Y2273317D01*
X4318025Y2247925D01*
X4292633D01*
X4267241Y2273317D01*
X4419592Y2374883D02*
X4444984Y2400275D01*
X4495767D01*
X4521159Y2374883D01*
Y2349492D01*
X4495767Y2324100D01*
X4470375D01*
X4495767D01*
X4521159Y2298708D01*
Y2273317D01*
X4495767Y2247925D01*
X4444984D01*
X4419592Y2273317D01*
X984608Y2856175D02*
X933825D01*
X959217D01*
Y2729217D01*
X933825Y2703825D01*
X908433D01*
X883041Y2729217D01*
X1136959Y2703825D02*
X1035392D01*
X1136959Y2805392D01*
Y2830784D01*
X1111567Y2856175D01*
X1060784D01*
X1035392Y2830784D01*
X2667041Y1371575D02*
Y1219225D01*
X2743217D01*
X2768608Y1244617D01*
Y1346183D01*
X2743217Y1371575D01*
X2667041D01*
X2920959Y1219225D02*
X2819392D01*
X2920959Y1320792D01*
Y1346183D01*
X2895567Y1371575D01*
X2844784D01*
X2819392Y1346183D01*
X2659433Y322675D02*
Y170325D01*
X2735608D01*
X2761000Y195716D01*
Y297283D01*
X2735608Y322675D01*
X2659433D01*
X2811784Y170325D02*
X2862567D01*
X2837176D01*
Y322675D01*
X2811784Y297283D01*
X1625608Y2108183D02*
X1600217Y2133575D01*
X1549433D01*
X1524041Y2108183D01*
Y2006617D01*
X1549433Y1981225D01*
X1600217D01*
X1625608Y2006617D01*
X1676392Y2108183D02*
X1701784Y2133575D01*
X1752567D01*
X1777959Y2108183D01*
Y2082792D01*
X1752567Y2057400D01*
X1727175D01*
X1752567D01*
X1777959Y2032008D01*
Y2006617D01*
X1752567Y1981225D01*
X1701784D01*
X1676392Y2006617D01*
X5740400Y876283D02*
X5715008Y901675D01*
X5664225D01*
X5638833Y876283D01*
Y774717D01*
X5664225Y749325D01*
X5715008D01*
X5740400Y774717D01*
X5791184Y749325D02*
X5841967D01*
X5816576D01*
Y901675D01*
X5791184Y876283D01*
D48*
X2958700Y1784100D02*
Y1898400D01*
X3250800Y1784100D02*
Y1898400D01*
X2958700Y1784100D02*
X3009500D01*
X3098400Y2012700D02*
X3111100D01*
X3200000Y1784100D02*
X3250800D01*
X1938020Y1968500D02*
Y2082800D01*
X2230120Y1968500D02*
Y2082800D01*
X1938020Y1968500D02*
X1988820D01*
X2077720Y2197100D02*
X2090420D01*
X2179320Y1968500D02*
X2230120D01*
X533400Y2032000D02*
Y2260600D01*
X50800Y2032000D02*
Y2260600D01*
X342900D02*
X533400D01*
X342900Y2032000D02*
X533400D01*
X50800D02*
X241300D01*
X50800Y2260600D02*
X241300D01*
X533400Y698500D02*
Y927100D01*
X50800Y698500D02*
Y927100D01*
X342900D02*
X533400D01*
X342900Y698500D02*
X533400D01*
X50800D02*
X241300D01*
X50800Y927100D02*
X241300D01*
X2214300Y465100D02*
Y655600D01*
X1985700Y465100D02*
Y655600D01*
Y173000D02*
Y363500D01*
X2214300Y173000D02*
Y363500D01*
X1985700Y655600D02*
X2214300D01*
X1985700Y173000D02*
X2214300D01*
X2634000Y2024500D02*
X2824500D01*
X2634000Y2253100D02*
X2824500D01*
X2341900D02*
X2532400D01*
X2341900Y2024500D02*
X2532400D01*
X2824500D02*
Y2253100D01*
X2341900Y2024500D02*
Y2253100D01*
D49*
X1055000Y1906900D02*
X1168750Y1793150D01*
X1055000Y1906900D02*
Y2224400D01*
X1370000Y1794400D02*
X1485000Y1909400D01*
Y2224400D01*
X1055000D02*
X1167500D01*
X1372500D02*
X1485000D01*
X1104900Y1895100D02*
X1155700D01*
X1130300Y1869700D02*
Y1920500D01*
X5535000Y297500D02*
X5648750Y183750D01*
X5535000Y297500D02*
Y615000D01*
X5850000Y185000D02*
X5965000Y300000D01*
Y615000D01*
X5535000D02*
X5647500D01*
X5852500D02*
X5965000D01*
X5584900Y285700D02*
X5635700D01*
X5610300Y260300D02*
Y311100D01*
X6144000Y1213000D02*
X6644000D01*
X6144000Y1713000D02*
X6644000D01*
X6144000Y1384350D02*
Y1541650D01*
X6644000Y1384350D02*
Y1541650D01*
X6144000Y1784500D02*
X6644000D01*
X6144000Y2284500D02*
X6644000D01*
X6144000Y1955850D02*
Y2113150D01*
X6644000Y1955850D02*
Y2113150D01*
X763700Y163500D02*
Y193500D01*
Y163500D02*
X1385800D01*
Y837500D01*
X763700D02*
X1385800D01*
X763700Y807500D02*
Y837500D01*
X6644000Y241350D02*
Y398650D01*
X6144000Y241350D02*
Y398650D01*
Y570000D02*
X6644000D01*
X6144000Y70000D02*
X6644000D01*
X2456250Y1463200D02*
Y1570450D01*
Y979950D02*
Y1087200D01*
X3141750Y1463200D02*
Y1570450D01*
Y979950D02*
Y1087200D01*
X2456250Y979950D02*
X3141750D01*
X2456250Y1570450D02*
X3141750D01*
X2686000Y176500D02*
X2836000D01*
X2686000Y316500D02*
X2836000D01*
X2067000Y1008200D02*
X2122000D01*
X2067000Y1508200D02*
X2122000D01*
X1622000Y1008200D02*
X1677000D01*
X1622000Y1508200D02*
X1677000D01*
X2122000Y1008200D02*
Y1063200D01*
Y1453200D02*
Y1508200D01*
X1622000Y1008200D02*
Y1063200D01*
Y1453200D02*
Y1508200D01*
X6644000Y812850D02*
Y970150D01*
X6144000Y812850D02*
Y970150D01*
Y1141500D02*
X6644000D01*
X6144000Y641500D02*
X6644000D01*
X3575500Y-499500D02*
X5375500D01*
X3575500D02*
Y133500D01*
Y1500500D02*
X5375500D01*
Y-499500D02*
Y133500D01*
X3575500Y1487500D02*
Y1500500D01*
X5375500Y1487500D02*
Y1500500D01*
%TF.MD5,f05ab53caca2493c96ddaefec8b2a316*%
M02*
