%TF.GenerationSoftware,Altium Limited,Altium Designer,24.0.1 (36)*%
G04 Layer_Physical_Order=1*
G04 Layer_Color=255*
%FSLAX45Y45*%
%MOMM*%
%TF.SameCoordinates,65C793CC-7C80-44E8-9821-AA658A2EEAB5*%
%TF.FilePolarity,Positive*%
%TF.FileFunction,Copper,L1,Top,Signal*%
%TF.Part,Single*%
G01*
G75*
%TA.AperFunction,Conductor*%
%ADD10C,0.25000*%
%TA.AperFunction,SMDPad,CuDef*%
%ADD11R,0.91440X1.27000*%
%ADD12R,0.91440X0.91440*%
G04:AMPARAMS|DCode=13|XSize=2.5mm|YSize=1.6mm|CornerRadius=0.12mm|HoleSize=0mm|Usage=FLASHONLY|Rotation=90.000|XOffset=0mm|YOffset=0mm|HoleType=Round|Shape=RoundedRectangle|*
%AMROUNDEDRECTD13*
21,1,2.50000,1.36000,0,0,90.0*
21,1,2.26000,1.60000,0,0,90.0*
1,1,0.24000,0.68000,1.13000*
1,1,0.24000,0.68000,-1.13000*
1,1,0.24000,-0.68000,-1.13000*
1,1,0.24000,-0.68000,1.13000*
%
%ADD13ROUNDEDRECTD13*%
G04:AMPARAMS|DCode=14|XSize=1.524mm|YSize=1.27mm|CornerRadius=0.09525mm|HoleSize=0mm|Usage=FLASHONLY|Rotation=0.000|XOffset=0mm|YOffset=0mm|HoleType=Round|Shape=RoundedRectangle|*
%AMROUNDEDRECTD14*
21,1,1.52400,1.07950,0,0,0.0*
21,1,1.33350,1.27000,0,0,0.0*
1,1,0.19050,0.66675,-0.53975*
1,1,0.19050,-0.66675,-0.53975*
1,1,0.19050,-0.66675,0.53975*
1,1,0.19050,0.66675,0.53975*
%
%ADD14ROUNDEDRECTD14*%
G04:AMPARAMS|DCode=15|XSize=1mm|YSize=1.5mm|CornerRadius=0.075mm|HoleSize=0mm|Usage=FLASHONLY|Rotation=90.000|XOffset=0mm|YOffset=0mm|HoleType=Round|Shape=RoundedRectangle|*
%AMROUNDEDRECTD15*
21,1,1.00000,1.35000,0,0,90.0*
21,1,0.85000,1.50000,0,0,90.0*
1,1,0.15000,0.67500,0.42500*
1,1,0.15000,0.67500,-0.42500*
1,1,0.15000,-0.67500,-0.42500*
1,1,0.15000,-0.67500,0.42500*
%
%ADD15ROUNDEDRECTD15*%
%TA.AperFunction,ConnectorPad*%
%ADD16R,1.15000X0.30000*%
%ADD17R,1.15000X0.60000*%
%TA.AperFunction,SMDPad,CuDef*%
G04:AMPARAMS|DCode=18|XSize=2.83mm|YSize=1.22mm|CornerRadius=0.1525mm|HoleSize=0mm|Usage=FLASHONLY|Rotation=180.000|XOffset=0mm|YOffset=0mm|HoleType=Round|Shape=RoundedRectangle|*
%AMROUNDEDRECTD18*
21,1,2.83000,0.91500,0,0,180.0*
21,1,2.52500,1.22000,0,0,180.0*
1,1,0.30500,-1.26250,0.45750*
1,1,0.30500,1.26250,0.45750*
1,1,0.30500,1.26250,-0.45750*
1,1,0.30500,-1.26250,-0.45750*
%
%ADD18ROUNDEDRECTD18*%
G04:AMPARAMS|DCode=19|XSize=6.1mm|YSize=5.63mm|CornerRadius=0.70375mm|HoleSize=0mm|Usage=FLASHONLY|Rotation=180.000|XOffset=0mm|YOffset=0mm|HoleType=Round|Shape=RoundedRectangle|*
%AMROUNDEDRECTD19*
21,1,6.10000,4.22250,0,0,180.0*
21,1,4.69250,5.63000,0,0,180.0*
1,1,1.40750,-2.34625,2.11125*
1,1,1.40750,2.34625,2.11125*
1,1,1.40750,2.34625,-2.11125*
1,1,1.40750,-2.34625,-2.11125*
%
%ADD19ROUNDEDRECTD19*%
%ADD20R,2.29000X3.12000*%
G04:AMPARAMS|DCode=21|XSize=1.524mm|YSize=1.27mm|CornerRadius=0.09525mm|HoleSize=0mm|Usage=FLASHONLY|Rotation=270.000|XOffset=0mm|YOffset=0mm|HoleType=Round|Shape=RoundedRectangle|*
%AMROUNDEDRECTD21*
21,1,1.52400,1.07950,0,0,270.0*
21,1,1.33350,1.27000,0,0,270.0*
1,1,0.19050,-0.53975,-0.66675*
1,1,0.19050,-0.53975,0.66675*
1,1,0.19050,0.53975,0.66675*
1,1,0.19050,0.53975,-0.66675*
%
%ADD21ROUNDEDRECTD21*%
G04:AMPARAMS|DCode=22|XSize=1.14mm|YSize=1.63mm|CornerRadius=0.1425mm|HoleSize=0mm|Usage=FLASHONLY|Rotation=0.000|XOffset=0mm|YOffset=0mm|HoleType=Round|Shape=RoundedRectangle|*
%AMROUNDEDRECTD22*
21,1,1.14000,1.34500,0,0,0.0*
21,1,0.85500,1.63000,0,0,0.0*
1,1,0.28500,0.42750,-0.67250*
1,1,0.28500,-0.42750,-0.67250*
1,1,0.28500,-0.42750,0.67250*
1,1,0.28500,0.42750,0.67250*
%
%ADD22ROUNDEDRECTD22*%
G04:AMPARAMS|DCode=23|XSize=0.97mm|YSize=0.26mm|CornerRadius=0.0325mm|HoleSize=0mm|Usage=FLASHONLY|Rotation=90.000|XOffset=0mm|YOffset=0mm|HoleType=Round|Shape=RoundedRectangle|*
%AMROUNDEDRECTD23*
21,1,0.97000,0.19500,0,0,90.0*
21,1,0.90500,0.26000,0,0,90.0*
1,1,0.06500,0.09750,0.45250*
1,1,0.06500,0.09750,-0.45250*
1,1,0.06500,-0.09750,-0.45250*
1,1,0.06500,-0.09750,0.45250*
%
%ADD23ROUNDEDRECTD23*%
G04:AMPARAMS|DCode=24|XSize=0.97mm|YSize=0.26mm|CornerRadius=0.0325mm|HoleSize=0mm|Usage=FLASHONLY|Rotation=0.000|XOffset=0mm|YOffset=0mm|HoleType=Round|Shape=RoundedRectangle|*
%AMROUNDEDRECTD24*
21,1,0.97000,0.19500,0,0,0.0*
21,1,0.90500,0.26000,0,0,0.0*
1,1,0.06500,0.45250,-0.09750*
1,1,0.06500,-0.45250,-0.09750*
1,1,0.06500,-0.45250,0.09750*
1,1,0.06500,0.45250,0.09750*
%
%ADD24ROUNDEDRECTD24*%
%ADD25R,3.15000X3.15000*%
%TA.AperFunction,BGAPad,CuDef*%
%ADD26R,0.70000X0.70000*%
%TA.AperFunction,ConnectorPad*%
%ADD27R,1.50000X0.90000*%
%TA.AperFunction,Conductor*%
%ADD28C,0.50000*%
%ADD29C,0.30000*%
%ADD30C,0.75000*%
%ADD31C,0.38100*%
%TA.AperFunction,ComponentPad*%
%ADD32C,1.85000*%
%ADD33R,1.85000X1.85000*%
%ADD34R,1.85000X1.85000*%
%ADD35C,5.00000*%
%ADD36C,0.65000*%
%ADD37O,2.10000X1.00000*%
%ADD38O,1.80000X1.00000*%
%ADD39O,2.15000X2.50000*%
%ADD40C,0.40000*%
%TA.AperFunction,ViaPad*%
%ADD41C,1.80000*%
%ADD42C,0.80000*%
%ADD43C,1.85000*%
G36*
X7441373Y58627D02*
X5395892D01*
Y100500D01*
X5394340Y108304D01*
X5389919Y114919D01*
X5383304Y119340D01*
X5375500Y120892D01*
X3575500D01*
X3567696Y119340D01*
X3561081Y114919D01*
X3556660Y108304D01*
X3555108Y100500D01*
Y58627D01*
X58626D01*
X58627Y2941373D01*
X1925000Y2941373D01*
X7441373D01*
X7441373Y58627D01*
D02*
G37*
%LPC*%
G36*
X1025000Y2614946D02*
Y2525000D01*
X1114946D01*
X1109493Y2545353D01*
X1094023Y2572146D01*
X1072147Y2594023D01*
X1045353Y2609492D01*
X1025000Y2614946D01*
D02*
G37*
G36*
X975000D02*
X954647Y2609492D01*
X927853Y2594023D01*
X905977Y2572146D01*
X890507Y2545353D01*
X885054Y2525000D01*
X975000D01*
Y2614946D01*
D02*
G37*
G36*
X5666500Y2712500D02*
X5441500D01*
Y2487500D01*
X5666500D01*
Y2712500D01*
D02*
G37*
G36*
X5060811D02*
X5031189D01*
X5002577Y2704833D01*
X4976923Y2690022D01*
X4955978Y2669076D01*
X4941167Y2643423D01*
X4933500Y2614811D01*
Y2585189D01*
X4941167Y2556577D01*
X4955978Y2530923D01*
X4976923Y2509977D01*
X5002577Y2495167D01*
X5031189Y2487500D01*
X5060811D01*
X5089423Y2495167D01*
X5115077Y2509977D01*
X5136022Y2530923D01*
X5150833Y2556577D01*
X5158500Y2585189D01*
Y2614811D01*
X5150833Y2643423D01*
X5136022Y2669076D01*
X5115077Y2690022D01*
X5089423Y2704833D01*
X5060811Y2712500D01*
D02*
G37*
G36*
X4512500D02*
X4287500D01*
Y2487500D01*
X4512500D01*
Y2712500D01*
D02*
G37*
G36*
X3906811D02*
X3877189D01*
X3848577Y2704833D01*
X3822924Y2690022D01*
X3801978Y2669076D01*
X3787167Y2643423D01*
X3779500Y2614811D01*
Y2585189D01*
X3787167Y2556577D01*
X3801978Y2530923D01*
X3822924Y2509977D01*
X3848577Y2495167D01*
X3877189Y2487500D01*
X3906811D01*
X3935423Y2495167D01*
X3961077Y2509977D01*
X3982023Y2530923D01*
X3996833Y2556577D01*
X4004500Y2585189D01*
Y2614811D01*
X3996833Y2643423D01*
X3982023Y2669076D01*
X3961077Y2690022D01*
X3935423Y2704833D01*
X3906811Y2712500D01*
D02*
G37*
G36*
X3398811D02*
X3369189D01*
X3340577Y2704833D01*
X3314924Y2690022D01*
X3293978Y2669076D01*
X3279167Y2643423D01*
X3271500Y2614811D01*
Y2585189D01*
X3279167Y2556577D01*
X3293978Y2530923D01*
X3314924Y2509977D01*
X3340577Y2495167D01*
X3369189Y2487500D01*
X3373331D01*
X3375857Y2474800D01*
X3362013Y2469065D01*
X3357029Y2464081D01*
X3330805D01*
X3235568Y2559318D01*
X3242500Y2585189D01*
Y2614811D01*
X3234833Y2643423D01*
X3220023Y2669076D01*
X3199077Y2690022D01*
X3173423Y2704833D01*
X3144811Y2712500D01*
X3115189D01*
X3086577Y2704833D01*
X3060924Y2690022D01*
X3039978Y2669076D01*
X3025167Y2643423D01*
X3017500Y2614811D01*
Y2585189D01*
X3025167Y2556577D01*
X3039978Y2530923D01*
X3060924Y2509977D01*
X3086577Y2495167D01*
X3115189Y2487500D01*
X3144811D01*
X3170681Y2494432D01*
X3279357Y2385757D01*
X3294242Y2375811D01*
X3311800Y2372318D01*
X3357029D01*
X3362013Y2367334D01*
X3384065Y2358200D01*
X3407935D01*
X3429987Y2367334D01*
X3446866Y2384213D01*
X3456000Y2406265D01*
Y2430135D01*
X3446866Y2452187D01*
X3429987Y2469065D01*
X3409992Y2477348D01*
X3408718Y2484980D01*
X3409335Y2490320D01*
X3427423Y2495167D01*
X3453077Y2509977D01*
X3474023Y2530923D01*
X3488833Y2556577D01*
X3496500Y2585189D01*
Y2614811D01*
X3488833Y2643423D01*
X3474023Y2669076D01*
X3453077Y2690022D01*
X3427423Y2704833D01*
X3398811Y2712500D01*
D02*
G37*
G36*
X2380000Y2743481D02*
X1592600D01*
X1575042Y2739989D01*
X1560157Y2730043D01*
X1487497Y2657383D01*
X1477551Y2642498D01*
X1474059Y2624940D01*
Y2607374D01*
X1464577Y2604833D01*
X1438923Y2590022D01*
X1417978Y2569076D01*
X1403167Y2543423D01*
X1395500Y2514811D01*
Y2485189D01*
X1403167Y2456576D01*
X1417978Y2430923D01*
X1438923Y2409977D01*
X1464577Y2395167D01*
X1493189Y2387500D01*
X1522811D01*
X1551423Y2395167D01*
X1577077Y2409977D01*
X1598022Y2430923D01*
X1612833Y2456576D01*
X1620500Y2485189D01*
Y2514811D01*
X1612833Y2543423D01*
X1598022Y2569076D01*
X1577077Y2590022D01*
X1569135Y2594607D01*
X1567960Y2608073D01*
X1611605Y2651718D01*
X2360995D01*
X2497800Y2514913D01*
Y2507865D01*
X2506935Y2485813D01*
X2523813Y2468934D01*
X2545865Y2459800D01*
X2569735D01*
X2591787Y2468934D01*
X2608666Y2485813D01*
X2617800Y2507865D01*
Y2531735D01*
X2608666Y2553787D01*
X2591787Y2570665D01*
X2569735Y2579800D01*
X2562687D01*
X2412443Y2730043D01*
X2397558Y2739989D01*
X2380000Y2743481D01*
D02*
G37*
G36*
X2128500Y2612500D02*
X1903500D01*
Y2387500D01*
X1903500Y2387500D01*
X1903500D01*
X1903500Y2387500D01*
X1899674Y2376385D01*
X1500345Y1977055D01*
X1487636Y1958035D01*
X1483174Y1935600D01*
Y1731284D01*
X1330145Y1578255D01*
X1317436Y1559235D01*
X1312973Y1536800D01*
Y1386850D01*
X1311600Y1383535D01*
Y1359665D01*
X1320734Y1337613D01*
X1337613Y1320734D01*
X1359665Y1311600D01*
X1383535D01*
X1405587Y1320734D01*
X1422466Y1337613D01*
X1431600Y1359665D01*
Y1383535D01*
X1430227Y1386850D01*
Y1512516D01*
X1583255Y1665545D01*
X1595964Y1684565D01*
X1600427Y1707000D01*
Y1911316D01*
X1911367Y2222256D01*
X1923100Y2217396D01*
Y2165542D01*
X1830769Y2073211D01*
X1823586Y2062461D01*
X1821063Y2049780D01*
Y2007018D01*
X1820213Y2006666D01*
X1803334Y1989787D01*
X1794200Y1967735D01*
Y1943865D01*
X1803334Y1921813D01*
X1820213Y1904934D01*
X1842265Y1895800D01*
X1866135D01*
X1888187Y1904934D01*
X1905066Y1921813D01*
X1914200Y1943865D01*
Y1967735D01*
X1905066Y1989787D01*
X1888187Y2006666D01*
X1887337Y2007018D01*
Y2036055D01*
X1969962Y2118680D01*
X2054540D01*
Y2250120D01*
X1955824D01*
X1950964Y2261853D01*
X2005506Y2316395D01*
X2018214Y2335415D01*
X2022677Y2357851D01*
Y2387500D01*
X2128500D01*
Y2612500D01*
D02*
G37*
G36*
X1268811D02*
X1239189D01*
X1210577Y2604833D01*
X1184923Y2590022D01*
X1163978Y2569076D01*
X1149167Y2543423D01*
X1141500Y2514811D01*
Y2485189D01*
X1149167Y2456576D01*
X1163978Y2430923D01*
X1184923Y2409977D01*
X1210577Y2395167D01*
X1239189Y2387500D01*
X1268811D01*
X1297423Y2395167D01*
X1323077Y2409977D01*
X1344022Y2430923D01*
X1358833Y2456576D01*
X1366500Y2485189D01*
Y2514811D01*
X1358833Y2543423D01*
X1344022Y2569076D01*
X1323077Y2590022D01*
X1297423Y2604833D01*
X1268811Y2612500D01*
D02*
G37*
G36*
X1114946Y2475000D02*
X1025000D01*
Y2385054D01*
X1045353Y2390507D01*
X1072147Y2405976D01*
X1094023Y2427853D01*
X1109493Y2454647D01*
X1114946Y2475000D01*
D02*
G37*
G36*
X975000D02*
X885054D01*
X890507Y2454647D01*
X905977Y2427853D01*
X927853Y2405976D01*
X954647Y2390507D01*
X975000Y2385054D01*
Y2475000D01*
D02*
G37*
G36*
X7171250Y2920000D02*
X7128751D01*
X7086775Y2913352D01*
X7046356Y2900218D01*
X7008489Y2880924D01*
X6974107Y2855944D01*
X6944056Y2825893D01*
X6919076Y2791511D01*
X6899781Y2753644D01*
X6886648Y2713225D01*
X6880000Y2671249D01*
Y2628750D01*
X6886648Y2586775D01*
X6899781Y2546356D01*
X6919076Y2508489D01*
X6944056Y2474107D01*
X6974107Y2444055D01*
X7008489Y2419075D01*
X7046356Y2399781D01*
X7086775Y2386648D01*
X7128751Y2380000D01*
X7171250D01*
X7213225Y2386648D01*
X7253644Y2399781D01*
X7291511Y2419075D01*
X7325893Y2444055D01*
X7355945Y2474107D01*
X7380925Y2508489D01*
X7400219Y2546356D01*
X7413352Y2586775D01*
X7420000Y2628750D01*
Y2671249D01*
X7413352Y2713225D01*
X7400219Y2753644D01*
X7380925Y2791511D01*
X7355945Y2825893D01*
X7325893Y2855944D01*
X7291511Y2880924D01*
X7253644Y2900218D01*
X7213225Y2913352D01*
X7171250Y2920000D01*
D02*
G37*
G36*
X371249D02*
X328751D01*
X286775Y2913352D01*
X246356Y2900218D01*
X208489Y2880924D01*
X174107Y2855944D01*
X144056Y2825893D01*
X119075Y2791511D01*
X99781Y2753644D01*
X86648Y2713225D01*
X80000Y2671249D01*
Y2628750D01*
X86648Y2586775D01*
X99781Y2546356D01*
X119075Y2508489D01*
X144056Y2474107D01*
X174107Y2444055D01*
X208489Y2419075D01*
X246356Y2399781D01*
X286775Y2386648D01*
X328751Y2380000D01*
X371249D01*
X413225Y2386648D01*
X453644Y2399781D01*
X491511Y2419075D01*
X525893Y2444055D01*
X555945Y2474107D01*
X580925Y2508489D01*
X600219Y2546356D01*
X613352Y2586775D01*
X620000Y2628750D01*
Y2671249D01*
X613352Y2713225D01*
X600219Y2753644D01*
X580925Y2791511D01*
X555945Y2825893D01*
X525893Y2855944D01*
X491511Y2880924D01*
X453644Y2900218D01*
X413225Y2913352D01*
X371249Y2920000D01*
D02*
G37*
G36*
X5314811Y2712500D02*
X5285189D01*
X5256577Y2704833D01*
X5230923Y2690022D01*
X5209978Y2669076D01*
X5195167Y2643423D01*
X5187500Y2614811D01*
Y2585189D01*
X5195167Y2556577D01*
X5209978Y2530923D01*
X5230923Y2509977D01*
X5255119Y2496009D01*
Y2262095D01*
X5242419Y2256834D01*
X5233387Y2265865D01*
X5211335Y2275000D01*
X5187465D01*
X5183520Y2273366D01*
X4897568Y2559318D01*
X4904500Y2585189D01*
Y2614811D01*
X4896833Y2643423D01*
X4882022Y2669076D01*
X4861077Y2690022D01*
X4835423Y2704833D01*
X4806811Y2712500D01*
X4777189D01*
X4748577Y2704833D01*
X4722923Y2690022D01*
X4701978Y2669076D01*
X4687167Y2643423D01*
X4679500Y2614811D01*
Y2585189D01*
X4687167Y2556577D01*
X4701978Y2530923D01*
X4722923Y2509977D01*
X4748577Y2495167D01*
X4777189Y2487500D01*
X4806811D01*
X4832681Y2494432D01*
X5138817Y2188297D01*
X5148081Y2182106D01*
X5148535Y2181013D01*
X5165413Y2164134D01*
X5187465Y2155000D01*
X5211335D01*
X5233387Y2164134D01*
X5242419Y2173166D01*
X5255119Y2167905D01*
Y2109695D01*
X5242419Y2104434D01*
X5233387Y2113465D01*
X5211335Y2122600D01*
X5187465D01*
X5165413Y2113465D01*
X5148535Y2096587D01*
X5139400Y2074535D01*
Y2067486D01*
X3778295Y706381D01*
X3695500D01*
Y725500D01*
X3505500D01*
Y595500D01*
X3695500D01*
Y614618D01*
X3748898D01*
X3752751Y601918D01*
X3744557Y596443D01*
X3708200Y560086D01*
X3695500Y565325D01*
Y575500D01*
X3505500D01*
Y445500D01*
X3695500D01*
Y464618D01*
X3723500D01*
X3728125Y465538D01*
X3734381Y453834D01*
X3726135Y445587D01*
X3717000Y423535D01*
Y402732D01*
X3705956Y395668D01*
X3695500Y399387D01*
Y425500D01*
X3505500D01*
Y295500D01*
X3695500D01*
Y327363D01*
X3725900D01*
X3731351Y328448D01*
X3735023Y326284D01*
X3741346Y320310D01*
X3742400Y318326D01*
Y298065D01*
X3751339Y276485D01*
X3748154Y264280D01*
X3740301Y261027D01*
X3723422Y244148D01*
X3714288Y222096D01*
Y198226D01*
X3723422Y176174D01*
X3740301Y159296D01*
X3762353Y150161D01*
X3786223D01*
X3790356Y151873D01*
X5255500D01*
Y145500D01*
X5445500D01*
Y151873D01*
X5649374D01*
Y112000D01*
X5651857Y99514D01*
X5658930Y88929D01*
X5669515Y81857D01*
X5682000Y79373D01*
X5818000D01*
X5830486Y81857D01*
X5841071Y88929D01*
X5848143Y99514D01*
X5850627Y112000D01*
Y136407D01*
X5874283D01*
X5909161Y101528D01*
X5910535Y98213D01*
X5927413Y81334D01*
X5949465Y72200D01*
X5973335D01*
X5995387Y81334D01*
X6012266Y98213D01*
X6021400Y120265D01*
Y144135D01*
X6012266Y166187D01*
X5995387Y183065D01*
X5992072Y184439D01*
X5940021Y236489D01*
X5921002Y249197D01*
X5898566Y253660D01*
X5850627D01*
Y338000D01*
X5848143Y350486D01*
X5841071Y361071D01*
X5830486Y368143D01*
X5818000Y370627D01*
X5682000D01*
X5669515Y368143D01*
X5658930Y361071D01*
X5651857Y350486D01*
X5649374Y338000D01*
Y269126D01*
X5445500D01*
Y275500D01*
X5255500D01*
Y269126D01*
X3862973D01*
X3855674Y281827D01*
X3862400Y298065D01*
Y305113D01*
X3871905Y314618D01*
X5255500D01*
Y295500D01*
X5445500D01*
Y314618D01*
X5491300D01*
X5508858Y318111D01*
X5523743Y328057D01*
X5595043Y399357D01*
X5604989Y414242D01*
X5608482Y431800D01*
Y1187008D01*
X5630458Y1192897D01*
X5655541Y1207378D01*
X5676022Y1227859D01*
X5690503Y1252942D01*
X5698000Y1280918D01*
Y1309882D01*
X5690503Y1337858D01*
X5676022Y1362941D01*
X5655541Y1383422D01*
X5630458Y1397903D01*
X5602482Y1405400D01*
X5573518D01*
X5545542Y1397903D01*
X5520459Y1383422D01*
X5499978Y1362941D01*
X5485497Y1337858D01*
X5478000Y1309882D01*
Y1280918D01*
X5485497Y1252942D01*
X5499978Y1227859D01*
X5516718Y1211118D01*
Y450805D01*
X5472295Y406381D01*
X5445500D01*
Y425500D01*
X5255500D01*
Y406381D01*
X3852900D01*
X3846817Y405171D01*
X3837000Y413229D01*
Y423535D01*
X3827866Y445587D01*
X3810987Y462465D01*
X3788935Y471600D01*
X3767447D01*
X3762876Y478281D01*
X3761220Y483333D01*
X3796005Y518118D01*
X5033429D01*
X5038413Y513134D01*
X5060465Y504000D01*
X5084335D01*
X5106387Y513134D01*
X5123266Y530013D01*
X5132400Y552065D01*
Y573553D01*
X5139081Y578124D01*
X5144133Y579780D01*
X5225857Y498057D01*
X5240742Y488111D01*
X5255500Y485175D01*
Y445500D01*
X5445500D01*
Y575500D01*
X5334933D01*
X5330500Y576382D01*
X5279128D01*
X5273610Y583284D01*
X5279008Y595500D01*
X5445500D01*
Y725500D01*
X5334933D01*
X5330500Y726382D01*
X5281528D01*
X5276011Y733284D01*
X5281409Y745500D01*
X5445500D01*
Y875500D01*
X5257587D01*
X5255468Y877619D01*
Y882861D01*
X5255500Y895452D01*
X5255515Y895467D01*
X5268068Y895500D01*
X5445500D01*
Y1025500D01*
X5331934D01*
X5331245Y1025637D01*
X5269454D01*
X5265248Y1033950D01*
X5272697Y1045500D01*
X5445500D01*
Y1175500D01*
X5331934D01*
X5331245Y1175637D01*
X5270735D01*
X5267905Y1177829D01*
X5266269Y1190029D01*
X5270685Y1195500D01*
X5445500D01*
Y1325500D01*
X5275280D01*
X5273743Y1327800D01*
X5280532Y1340500D01*
X5325500D01*
Y1410499D01*
Y1480500D01*
X5250500D01*
Y1403113D01*
X5237800Y1397852D01*
X5233387Y1402265D01*
X5211335Y1411400D01*
X5187465D01*
X5165413Y1402265D01*
X5156382Y1393234D01*
X5143682Y1398495D01*
Y1591829D01*
X5148666Y1596813D01*
X5157800Y1618865D01*
Y1642735D01*
X5148666Y1664787D01*
X5131787Y1681665D01*
X5109735Y1690800D01*
X5088247D01*
X5083676Y1697481D01*
X5082020Y1702533D01*
X5333443Y1953957D01*
X5343389Y1968842D01*
X5346882Y1986400D01*
Y2497163D01*
X5369077Y2509977D01*
X5390022Y2530923D01*
X5404833Y2556577D01*
X5412500Y2585189D01*
Y2614811D01*
X5404833Y2643423D01*
X5390022Y2669076D01*
X5369077Y2690022D01*
X5343423Y2704833D01*
X5314811Y2712500D01*
D02*
G37*
G36*
X6216500Y2270136D02*
X6174001D01*
Y2219500D01*
X6249637D01*
Y2237000D01*
X6247114Y2249681D01*
X6239931Y2260431D01*
X6229181Y2267614D01*
X6216500Y2270136D01*
D02*
G37*
G36*
X6124001D02*
X6081500D01*
X6068819Y2267614D01*
X6058069Y2260431D01*
X6050886Y2249681D01*
X6048364Y2237000D01*
Y2219500D01*
X6124001D01*
Y2270136D01*
D02*
G37*
G36*
X1338000Y2335125D02*
X1295000D01*
Y2209400D01*
X1375725D01*
Y2297400D01*
X1372853Y2311837D01*
X1364675Y2324076D01*
X1352436Y2332253D01*
X1338000Y2335125D01*
D02*
G37*
G36*
X1245000D02*
X1202000D01*
X1187564Y2332253D01*
X1175325Y2324076D01*
X1167147Y2311837D01*
X1164275Y2297400D01*
Y2209400D01*
X1245000D01*
Y2335125D01*
D02*
G37*
G36*
X7025000Y2268946D02*
Y2179000D01*
X7114946D01*
X7109493Y2199353D01*
X7094023Y2226147D01*
X7072147Y2248023D01*
X7045353Y2263493D01*
X7025000Y2268946D01*
D02*
G37*
G36*
X6975000D02*
X6954647Y2263493D01*
X6927853Y2248023D01*
X6905977Y2226147D01*
X6890507Y2199353D01*
X6885054Y2179000D01*
X6975000D01*
Y2268946D01*
D02*
G37*
G36*
X244475Y2235476D02*
X202800D01*
Y2171300D01*
X279676D01*
Y2200275D01*
X276997Y2213746D01*
X269366Y2225166D01*
X257946Y2232797D01*
X244475Y2235476D01*
D02*
G37*
G36*
X152800D02*
X111125D01*
X97654Y2232797D01*
X86234Y2225166D01*
X78603Y2213746D01*
X75924Y2200275D01*
Y2171300D01*
X152800D01*
Y2235476D01*
D02*
G37*
G36*
X6249637Y2169500D02*
X6174001D01*
Y2118863D01*
X6216500D01*
X6229181Y2121386D01*
X6239931Y2128569D01*
X6247114Y2139319D01*
X6249637Y2152000D01*
Y2169500D01*
D02*
G37*
G36*
X6124001D02*
X6048364D01*
Y2152000D01*
X6050886Y2139319D01*
X6058069Y2128569D01*
X6068819Y2121386D01*
X6081500Y2118863D01*
X6124001D01*
Y2169500D01*
D02*
G37*
G36*
X1776811Y2612500D02*
X1747189D01*
X1718577Y2604833D01*
X1692923Y2590022D01*
X1671978Y2569076D01*
X1657167Y2543423D01*
X1649500Y2514811D01*
Y2485189D01*
X1657167Y2456576D01*
X1671978Y2430923D01*
X1690287Y2412613D01*
Y2364774D01*
X1386627Y2061114D01*
X1374923Y2067370D01*
X1375725Y2071400D01*
Y2159400D01*
X1295000D01*
Y2033675D01*
X1338000D01*
X1342030Y2034477D01*
X1348286Y2022772D01*
X1305541Y1980027D01*
X1202000D01*
X1189515Y1977543D01*
X1178930Y1970471D01*
X1171857Y1959886D01*
X1169373Y1947400D01*
Y1780157D01*
X1162660Y1778822D01*
X1098962D01*
X1078735Y1787200D01*
X1054865D01*
X1049801Y1785102D01*
X1045882Y1785882D01*
X808000D01*
Y1795000D01*
X725500D01*
Y1845000D01*
X808000D01*
Y1875000D01*
X789806D01*
X783543Y1887700D01*
X788512Y1894177D01*
X793824Y1907000D01*
X542176D01*
X547488Y1894177D01*
X559509Y1878509D01*
X575176Y1866488D01*
X593421Y1858930D01*
X613000Y1856353D01*
X634288D01*
X635511Y1852319D01*
X632959Y1848413D01*
X625521Y1841500D01*
X607557D01*
X588261Y1833507D01*
X573493Y1818739D01*
X565500Y1799443D01*
Y1778557D01*
X573493Y1759261D01*
X588261Y1744493D01*
X607557Y1736500D01*
X628443D01*
X635300Y1739340D01*
X648000Y1730854D01*
Y1660686D01*
X599581D01*
X442086Y1818182D01*
Y2062222D01*
X473075D01*
X484595Y2064513D01*
X494361Y2071039D01*
X500887Y2080805D01*
X503178Y2092325D01*
Y2200275D01*
X500887Y2211795D01*
X494361Y2221561D01*
X484595Y2228087D01*
X473075Y2230378D01*
X339725D01*
X328205Y2228087D01*
X318439Y2221561D01*
X311913Y2211795D01*
X309622Y2200275D01*
Y2092325D01*
X311913Y2080805D01*
X318439Y2071039D01*
X328205Y2064513D01*
X339725Y2062222D01*
X370714D01*
Y1966309D01*
X358014Y1963783D01*
X355512Y1969823D01*
X343491Y1985491D01*
X327823Y1997512D01*
X309579Y2005069D01*
X290000Y2007647D01*
X275000D01*
Y1932000D01*
Y1856353D01*
X290000D01*
X309579Y1858930D01*
X327823Y1866488D01*
X343491Y1878509D01*
X355512Y1894177D01*
X358014Y1900217D01*
X370714Y1897691D01*
Y1803400D01*
X373431Y1789744D01*
X381166Y1778166D01*
X559566Y1599766D01*
X571144Y1592031D01*
X584800Y1589314D01*
X648000D01*
Y1490000D01*
Y1360686D01*
X563000D01*
X549344Y1357969D01*
X537767Y1350234D01*
X381166Y1193634D01*
X373431Y1182056D01*
X370714Y1168400D01*
Y1102309D01*
X358014Y1099783D01*
X355512Y1105824D01*
X343491Y1121491D01*
X327823Y1133512D01*
X309579Y1141070D01*
X290000Y1143647D01*
X275000D01*
Y1068000D01*
Y992353D01*
X290000D01*
X309579Y994931D01*
X327823Y1002488D01*
X343491Y1014510D01*
X355512Y1030177D01*
X358014Y1036217D01*
X370714Y1033691D01*
Y896878D01*
X339725D01*
X328205Y894587D01*
X318439Y888061D01*
X311913Y878295D01*
X309622Y866775D01*
Y758825D01*
X311913Y747305D01*
X318439Y737539D01*
X328205Y731013D01*
X339725Y728722D01*
X473075D01*
X484595Y731013D01*
X494361Y737539D01*
X500887Y747305D01*
X503178Y758825D01*
Y866775D01*
X500887Y878295D01*
X494361Y888061D01*
X484595Y894587D01*
X473075Y896878D01*
X442086D01*
Y1153618D01*
X577782Y1289314D01*
X648000D01*
Y1269146D01*
X635300Y1260660D01*
X628443Y1263500D01*
X607557D01*
X588261Y1255508D01*
X573493Y1240739D01*
X565500Y1221443D01*
Y1200557D01*
X573493Y1181261D01*
X588261Y1166493D01*
X607557Y1158500D01*
X625521D01*
X632959Y1151587D01*
X635511Y1147681D01*
X634288Y1143647D01*
X613000D01*
X593421Y1141070D01*
X575176Y1133512D01*
X559509Y1121491D01*
X547488Y1105824D01*
X542176Y1093000D01*
X793824D01*
X788512Y1105824D01*
X783543Y1112300D01*
X789806Y1125000D01*
X808000D01*
Y1155000D01*
X725500D01*
Y1205000D01*
X808000D01*
Y1214118D01*
X862877D01*
X890756Y1186239D01*
X899134Y1166013D01*
X904118Y1161029D01*
Y1082000D01*
X907611Y1064442D01*
X917557Y1049557D01*
X963712Y1003402D01*
X978597Y993456D01*
X996155Y989963D01*
X1546347D01*
X1554404Y980146D01*
X1554363Y979945D01*
Y811190D01*
X1461250D01*
X1447496Y808455D01*
X1435836Y800664D01*
X1428045Y789004D01*
X1425310Y775250D01*
Y683750D01*
X1428045Y669996D01*
X1435836Y658336D01*
X1447496Y650545D01*
X1461250Y647809D01*
X1713750D01*
X1727504Y650545D01*
X1739164Y658336D01*
X1746955Y669996D01*
X1749690Y683750D01*
Y775250D01*
X1746955Y789004D01*
X1739164Y800664D01*
X1727504Y808455D01*
X1713750Y811190D01*
X1620637D01*
Y966219D01*
X1644624Y990207D01*
X1660958Y993456D01*
X1674805Y1002708D01*
X1688545D01*
Y975950D01*
X1690349Y966878D01*
X1695488Y959188D01*
X1703178Y954049D01*
X1712250Y952244D01*
X1731750D01*
X1740822Y954049D01*
X1747000Y958177D01*
X1753178Y954049D01*
X1762250Y952244D01*
X1781750D01*
X1790822Y954049D01*
X1797000Y958177D01*
X1803179Y954049D01*
X1812250Y952244D01*
X1831750D01*
X1840822Y954049D01*
X1847000Y958177D01*
X1853178Y954049D01*
X1862250Y952244D01*
X1881750D01*
X1890822Y954049D01*
X1897000Y958177D01*
X1903178Y954049D01*
X1912250Y952244D01*
X1931750D01*
X1940822Y954049D01*
X1947000Y958177D01*
X1953178Y954049D01*
X1962250Y952244D01*
X1981750D01*
X1990822Y954049D01*
X1997000Y958177D01*
X2003178Y954049D01*
X2012250Y952244D01*
X2031750D01*
X2040822Y954049D01*
X2048512Y959188D01*
X2053651Y966878D01*
X2055455Y975950D01*
Y1063445D01*
X2060239Y1069961D01*
X2066755Y1074745D01*
X2154250D01*
X2163322Y1076549D01*
X2171012Y1081688D01*
X2176151Y1089378D01*
X2177956Y1098450D01*
Y1117950D01*
X2176151Y1127022D01*
X2172023Y1133200D01*
X2176151Y1139378D01*
X2177956Y1148450D01*
Y1167950D01*
X2176151Y1177022D01*
X2172023Y1183200D01*
X2176151Y1189378D01*
X2177956Y1198450D01*
Y1217950D01*
X2176151Y1227022D01*
X2172023Y1233200D01*
X2176151Y1239378D01*
X2177956Y1248450D01*
Y1267950D01*
X2176151Y1277022D01*
X2172023Y1283200D01*
X2176151Y1289378D01*
X2177956Y1298450D01*
Y1317950D01*
X2176151Y1327021D01*
X2172023Y1333200D01*
X2176151Y1339378D01*
X2177956Y1348450D01*
Y1367950D01*
X2176151Y1377022D01*
X2172023Y1383200D01*
X2176151Y1389378D01*
X2177956Y1398450D01*
Y1417950D01*
X2176151Y1427022D01*
X2171012Y1434712D01*
X2163322Y1439851D01*
X2154250Y1441655D01*
X2066755D01*
X2060239Y1446439D01*
X2055455Y1452954D01*
Y1540450D01*
X2053651Y1549522D01*
X2048512Y1557212D01*
X2040822Y1562351D01*
X2031750Y1564155D01*
X2012250D01*
X2003178Y1562351D01*
X1997000Y1558223D01*
X1990822Y1562351D01*
X1982983Y1563910D01*
X1980328Y1567505D01*
X1976359Y1576855D01*
X1978814Y1580531D01*
X1981337Y1593212D01*
Y1655782D01*
X1982187Y1656134D01*
X1999066Y1673013D01*
X1999418Y1673863D01*
X2454600D01*
Y1664465D01*
X2463734Y1642413D01*
X2480613Y1625534D01*
X2502665Y1616400D01*
X2526535D01*
X2548587Y1625534D01*
X2565466Y1642413D01*
X2574600Y1664465D01*
Y1688335D01*
X2565466Y1710387D01*
X2548587Y1727266D01*
X2526535Y1736400D01*
X2502665D01*
X2490905Y1731529D01*
X2481798Y1737614D01*
X2469117Y1740136D01*
X1999418D01*
X1999066Y1740987D01*
X1982187Y1757865D01*
X1971817Y1762161D01*
X1972261Y1775723D01*
X2000860Y1785431D01*
X2031198Y1800392D01*
X2032866Y1800863D01*
X2392700D01*
X2405381Y1803386D01*
X2416131Y1810569D01*
X2657231Y2051669D01*
X2659271Y2054722D01*
X2764175D01*
X2775695Y2057013D01*
X2785461Y2063539D01*
X2791987Y2073305D01*
X2794278Y2084825D01*
Y2105663D01*
X2856975D01*
X2943780Y2018858D01*
Y1934280D01*
X3075220D01*
Y2065720D01*
X2990642D01*
X2894131Y2162231D01*
X2883381Y2169414D01*
X2870700Y2171936D01*
X2794278D01*
Y2192775D01*
X2791987Y2204295D01*
X2785461Y2214061D01*
X2775695Y2220587D01*
X2764175Y2222878D01*
X2630825D01*
X2619305Y2220587D01*
X2609539Y2214061D01*
X2603013Y2204295D01*
X2600722Y2192775D01*
Y2088884D01*
X2378975Y1867136D01*
X2031566D01*
X2031232Y1867070D01*
X2030897Y1867130D01*
X2024645Y1867003D01*
X2023681Y1866791D01*
X2022701Y1866907D01*
X2017400Y1865410D01*
X2012018Y1864226D01*
X2011208Y1863660D01*
X2010258Y1863392D01*
X2004230Y1860317D01*
X2002435Y1858902D01*
X1945871Y1835472D01*
X1884312Y1820693D01*
X1823399Y1815899D01*
X1821200Y1816336D01*
X1820347Y1816167D01*
X1785262Y1819622D01*
X1781555Y1820746D01*
X1781537Y1820663D01*
X1781537Y1820663D01*
X1740836Y1829649D01*
X1737230Y1829725D01*
X1733692Y1830429D01*
X1730829Y1829859D01*
X1727910Y1829920D01*
X1724550Y1828610D01*
X1721012Y1827906D01*
X1718584Y1826284D01*
X1715864Y1825224D01*
X1713261Y1822728D01*
X1710261Y1820723D01*
X1645369Y1755831D01*
X1638186Y1745081D01*
X1635663Y1732400D01*
Y1571245D01*
X1638186Y1558564D01*
X1645369Y1547814D01*
X1685414Y1507769D01*
X1688545Y1505677D01*
Y1452954D01*
X1683761Y1446439D01*
X1677246Y1441655D01*
X1589750D01*
X1580678Y1439851D01*
X1572988Y1434712D01*
X1567849Y1427022D01*
X1566045Y1417950D01*
Y1398450D01*
X1567849Y1389378D01*
X1571977Y1383200D01*
X1567849Y1377022D01*
X1566045Y1367950D01*
Y1362893D01*
X1561439Y1361277D01*
X1553345Y1360781D01*
X1547431Y1369631D01*
X1536681Y1376814D01*
X1524000Y1379336D01*
X1511319Y1376814D01*
X1500569Y1369631D01*
X1498224Y1367286D01*
X1491041Y1356536D01*
X1488518Y1343855D01*
Y1323145D01*
X1491041Y1310464D01*
X1495336Y1304037D01*
X1489642Y1291337D01*
X1193926D01*
X1156996Y1328267D01*
X1161856Y1340000D01*
X1161935D01*
X1183987Y1349134D01*
X1200866Y1366013D01*
X1210000Y1388065D01*
Y1411935D01*
X1200866Y1433987D01*
X1183987Y1450866D01*
X1161935Y1460000D01*
X1138065D01*
X1137215Y1459648D01*
X1098431Y1498431D01*
X1087681Y1505614D01*
X1075000Y1508137D01*
X803000D01*
Y1590000D01*
Y1694119D01*
X1015559D01*
X1015934Y1693213D01*
X1032813Y1676334D01*
X1054865Y1667200D01*
X1078735D01*
X1100787Y1676334D01*
X1111511Y1687059D01*
X1168540D01*
X1175880Y1688519D01*
X1215000D01*
X1216281Y1688773D01*
X1338000D01*
X1350485Y1691257D01*
X1361070Y1698330D01*
X1368143Y1708915D01*
X1370627Y1721400D01*
Y1915340D01*
X1768612Y2313326D01*
X1778558Y2328211D01*
X1782051Y2345769D01*
Y2388904D01*
X1805423Y2395167D01*
X1831077Y2409977D01*
X1852022Y2430923D01*
X1866833Y2456576D01*
X1874500Y2485189D01*
Y2514811D01*
X1866833Y2543423D01*
X1852022Y2569076D01*
X1831077Y2590022D01*
X1805423Y2604833D01*
X1776811Y2612500D01*
D02*
G37*
G36*
X279676Y2121300D02*
X202800D01*
Y2057124D01*
X244475D01*
X257946Y2059803D01*
X269366Y2067434D01*
X276997Y2078854D01*
X279676Y2092325D01*
Y2121300D01*
D02*
G37*
G36*
X152800D02*
X75924D01*
Y2092325D01*
X78603Y2078854D01*
X86234Y2067434D01*
X97654Y2059803D01*
X111125Y2057124D01*
X152800D01*
Y2121300D01*
D02*
G37*
G36*
X2245040Y2250120D02*
X2113600D01*
Y2118680D01*
X2209340D01*
X2212540Y2118044D01*
X2372122D01*
Y2084825D01*
X2374413Y2073305D01*
X2380939Y2063539D01*
X2390705Y2057013D01*
X2402225Y2054722D01*
X2535575D01*
X2547095Y2057013D01*
X2556861Y2063539D01*
X2563387Y2073305D01*
X2565678Y2084825D01*
Y2192775D01*
X2563387Y2204295D01*
X2556861Y2214061D01*
X2547095Y2220587D01*
X2535575Y2222878D01*
X2402225D01*
X2390705Y2220587D01*
X2380939Y2214061D01*
X2374413Y2204295D01*
X2372122Y2192775D01*
Y2184317D01*
X2245040D01*
Y2250120D01*
D02*
G37*
G36*
X7114946Y2129000D02*
X7025000D01*
Y2039054D01*
X7045353Y2044507D01*
X7072147Y2059977D01*
X7094023Y2081853D01*
X7109493Y2108647D01*
X7114946Y2129000D01*
D02*
G37*
G36*
X6975000D02*
X6885054D01*
X6890507Y2108647D01*
X6905977Y2081853D01*
X6927853Y2059977D01*
X6954647Y2044507D01*
X6975000Y2039054D01*
Y2129000D01*
D02*
G37*
G36*
X1245000Y2159400D02*
X1164275D01*
Y2071400D01*
X1167147Y2056963D01*
X1175325Y2044724D01*
X1187564Y2036547D01*
X1202000Y2033675D01*
X1245000D01*
Y2159400D01*
D02*
G37*
G36*
X723000Y2007647D02*
X693000D01*
Y1957000D01*
X793824D01*
X788512Y1969823D01*
X776491Y1985491D01*
X760824Y1997512D01*
X742579Y2005069D01*
X723000Y2007647D01*
D02*
G37*
G36*
X643000D02*
X613000D01*
X593421Y2005069D01*
X575176Y1997512D01*
X559509Y1985491D01*
X547488Y1969823D01*
X542176Y1957000D01*
X643000D01*
Y2007647D01*
D02*
G37*
G36*
X225000D02*
X210000D01*
X190421Y2005069D01*
X172177Y1997512D01*
X156509Y1985491D01*
X144488Y1969823D01*
X139176Y1957000D01*
X225000D01*
Y2007647D01*
D02*
G37*
G36*
X7025000Y2014946D02*
Y1925000D01*
X7114946D01*
X7109493Y1945353D01*
X7094023Y1972147D01*
X7072147Y1994023D01*
X7045353Y2009493D01*
X7025000Y2014946D01*
D02*
G37*
G36*
X6975000D02*
X6954647Y2009493D01*
X6927853Y1994023D01*
X6905977Y1972147D01*
X6890507Y1945353D01*
X6885054Y1925000D01*
X6975000D01*
Y2014946D01*
D02*
G37*
G36*
X5613000Y1991958D02*
Y1904600D01*
X5700358D01*
X5695163Y1923988D01*
X5680023Y1950211D01*
X5658611Y1971623D01*
X5632388Y1986763D01*
X5613000Y1991958D01*
D02*
G37*
G36*
X5563000D02*
X5543612Y1986763D01*
X5517389Y1971623D01*
X5495977Y1950211D01*
X5480837Y1923988D01*
X5475642Y1904600D01*
X5563000D01*
Y1991958D01*
D02*
G37*
G36*
X2148520Y2064700D02*
X2017080D01*
Y1897700D01*
X2148520D01*
Y1909963D01*
X2196682D01*
X2197034Y1909113D01*
X2213913Y1892234D01*
X2235965Y1883100D01*
X2259835D01*
X2281887Y1892234D01*
X2298766Y1909113D01*
X2307900Y1931165D01*
Y1955035D01*
X2298766Y1977087D01*
X2281887Y1993966D01*
X2259835Y2003100D01*
X2235965D01*
X2213913Y1993966D01*
X2197034Y1977087D01*
X2196682Y1976237D01*
X2148520D01*
Y2064700D01*
D02*
G37*
G36*
X6706500Y2265038D02*
X6571500D01*
X6560770Y2262904D01*
X6551674Y2256826D01*
X6545596Y2247730D01*
X6543462Y2237000D01*
Y2171225D01*
X6543118Y2169500D01*
Y2163504D01*
X6259157Y1879543D01*
X6257239Y1876672D01*
X6244539Y1880525D01*
Y1917000D01*
X6242404Y1927730D01*
X6236326Y1936826D01*
X6227230Y1942904D01*
X6216500Y1945039D01*
X6081500D01*
X6070770Y1942904D01*
X6061674Y1936826D01*
X6055596Y1927730D01*
X6053462Y1917000D01*
Y1886891D01*
X6046057Y1881943D01*
X5956514Y1792400D01*
X5949465D01*
X5927413Y1783265D01*
X5910535Y1766387D01*
X5901400Y1744335D01*
Y1720465D01*
X5910535Y1698413D01*
X5927413Y1681534D01*
X5949465Y1672400D01*
X5973335D01*
X5995387Y1681534D01*
X6012266Y1698413D01*
X6021400Y1720465D01*
Y1727513D01*
X6097505Y1803618D01*
X6124000D01*
X6125725Y1803961D01*
X6216500D01*
X6227230Y1806096D01*
X6233019Y1809963D01*
X6244009Y1805764D01*
X6245719Y1804338D01*
Y1700338D01*
X6233019Y1693550D01*
X6229181Y1696114D01*
X6216500Y1698636D01*
X6174001D01*
Y1623000D01*
Y1547363D01*
X6216500D01*
X6229181Y1549886D01*
X6233019Y1552450D01*
X6245719Y1545661D01*
Y1464605D01*
X6166557Y1385443D01*
X6158603Y1373539D01*
X6081500D01*
X6070770Y1371404D01*
X6061674Y1365326D01*
X6055596Y1356230D01*
X6053462Y1345500D01*
Y1260500D01*
X6055596Y1249770D01*
X6061674Y1240674D01*
X6070770Y1234596D01*
X6081500Y1232461D01*
X6216500D01*
X6227230Y1234596D01*
X6236326Y1240674D01*
X6242404Y1249770D01*
X6244539Y1260500D01*
Y1326275D01*
X6244882Y1328000D01*
Y1333995D01*
X6324043Y1413157D01*
X6333989Y1428042D01*
X6337482Y1445600D01*
Y1828095D01*
X6371300Y1861913D01*
X6384000Y1856653D01*
Y1847465D01*
X6393135Y1825413D01*
X6410013Y1808534D01*
X6432065Y1799400D01*
X6455935D01*
X6465527Y1803373D01*
X6626500D01*
X6629456Y1803961D01*
X6706500D01*
X6717230Y1806096D01*
X6726326Y1812174D01*
X6732404Y1821270D01*
X6734539Y1832000D01*
Y1917000D01*
X6732404Y1927730D01*
X6726326Y1936826D01*
X6717230Y1942904D01*
X6706500Y1945039D01*
X6571500D01*
X6560770Y1942904D01*
X6551674Y1936826D01*
X6545596Y1927730D01*
X6544183Y1920626D01*
X6447974D01*
X6447930Y1920670D01*
X6441723Y1932336D01*
X6621443Y2112056D01*
X6629398Y2123961D01*
X6706500D01*
X6717230Y2126096D01*
X6726326Y2132174D01*
X6732404Y2141270D01*
X6734539Y2152000D01*
Y2237000D01*
X6732404Y2247730D01*
X6726326Y2256826D01*
X6717230Y2262904D01*
X6706500Y2265038D01*
D02*
G37*
G36*
X3265720Y2065720D02*
X3134280D01*
Y1934280D01*
X3265720D01*
Y1963384D01*
X3278420Y1965422D01*
X3336873Y1906969D01*
X3347623Y1899786D01*
X3351671Y1898981D01*
X3352734Y1896413D01*
X3369613Y1879534D01*
X3391665Y1870400D01*
X3415535D01*
X3437587Y1879534D01*
X3454466Y1896413D01*
X3463600Y1918465D01*
Y1942335D01*
X3454466Y1964387D01*
X3437587Y1981266D01*
X3415535Y1990400D01*
X3391665D01*
X3369613Y1981266D01*
X3362957Y1974609D01*
X3314135Y2023431D01*
X3303385Y2030614D01*
X3290704Y2033137D01*
X3265720D01*
Y2065720D01*
D02*
G37*
G36*
X225000Y1907000D02*
X139176D01*
X144488Y1894177D01*
X156509Y1878509D01*
X172177Y1866488D01*
X190421Y1858930D01*
X210000Y1856353D01*
X225000D01*
Y1907000D01*
D02*
G37*
G36*
X4160811Y2712500D02*
X4131189D01*
X4102577Y2704833D01*
X4076924Y2690022D01*
X4055978Y2669076D01*
X4041167Y2643423D01*
X4033500Y2614811D01*
Y2585189D01*
X4041167Y2556577D01*
X4055978Y2530923D01*
X4076924Y2509977D01*
X4100119Y2496586D01*
Y2303200D01*
X4103611Y2285642D01*
X4113557Y2270757D01*
X4479000Y1905313D01*
Y1898265D01*
X4488135Y1876213D01*
X4505013Y1859334D01*
X4527065Y1850200D01*
X4550935D01*
X4572987Y1859334D01*
X4589866Y1876213D01*
X4599000Y1898265D01*
Y1922135D01*
X4589866Y1944187D01*
X4572987Y1961065D01*
X4550935Y1970200D01*
X4543887D01*
X4191882Y2322205D01*
Y2496586D01*
X4215077Y2509977D01*
X4236023Y2530923D01*
X4250833Y2556577D01*
X4258500Y2585189D01*
Y2614811D01*
X4250833Y2643423D01*
X4236023Y2669076D01*
X4215077Y2690022D01*
X4189423Y2704833D01*
X4160811Y2712500D01*
D02*
G37*
G36*
X7114946Y1875000D02*
X7025000D01*
Y1785054D01*
X7045353Y1790507D01*
X7072147Y1805977D01*
X7094023Y1827853D01*
X7109493Y1854647D01*
X7114946Y1875000D01*
D02*
G37*
G36*
X6975000D02*
X6885054D01*
X6890507Y1854647D01*
X6905977Y1827853D01*
X6927853Y1805977D01*
X6954647Y1790507D01*
X6975000Y1785054D01*
Y1875000D01*
D02*
G37*
G36*
X5700358Y1854600D02*
X5613000D01*
Y1767242D01*
X5632388Y1772437D01*
X5658611Y1787577D01*
X5680023Y1808989D01*
X5695163Y1835212D01*
X5700358Y1854600D01*
D02*
G37*
G36*
X5563000D02*
X5475642D01*
X5480837Y1835212D01*
X5495977Y1808989D01*
X5517389Y1787577D01*
X5543612Y1772437D01*
X5563000Y1767242D01*
Y1854600D01*
D02*
G37*
G36*
X3652811Y2712500D02*
X3623189D01*
X3594577Y2704833D01*
X3568924Y2690022D01*
X3547978Y2669076D01*
X3533167Y2643423D01*
X3525500Y2614811D01*
Y2585189D01*
X3533167Y2556577D01*
X3547978Y2530923D01*
X3568924Y2509977D01*
X3592119Y2496586D01*
Y1475500D01*
X3505500D01*
Y1345500D01*
X3695500D01*
Y1475500D01*
X3683882D01*
Y1876472D01*
X3696582Y1882925D01*
X3714265Y1875600D01*
X3738135D01*
X3760187Y1884734D01*
X3765171Y1889718D01*
X3884995D01*
X4021800Y1752913D01*
Y1745865D01*
X4030935Y1723813D01*
X4047813Y1706934D01*
X4069865Y1697800D01*
X4093735D01*
X4115787Y1706934D01*
X4132666Y1723813D01*
X4141800Y1745865D01*
Y1769735D01*
X4132666Y1791787D01*
X4115787Y1808665D01*
X4093735Y1817800D01*
X4086687D01*
X3936443Y1968043D01*
X3921558Y1977989D01*
X3904000Y1981481D01*
X3765171D01*
X3760187Y1986465D01*
X3738135Y1995600D01*
X3714265D01*
X3696582Y1988275D01*
X3683882Y1994728D01*
Y2496586D01*
X3707077Y2509977D01*
X3728023Y2530923D01*
X3742833Y2556577D01*
X3750500Y2585189D01*
Y2614811D01*
X3742833Y2643423D01*
X3728023Y2669076D01*
X3707077Y2690022D01*
X3681423Y2704833D01*
X3652811Y2712500D01*
D02*
G37*
G36*
X7025000Y1760946D02*
Y1671000D01*
X7114946D01*
X7109493Y1691353D01*
X7094023Y1718147D01*
X7072147Y1740023D01*
X7045353Y1755493D01*
X7025000Y1760946D01*
D02*
G37*
G36*
X6975000D02*
X6954647Y1755493D01*
X6927853Y1740023D01*
X6905977Y1718147D01*
X6890507Y1691353D01*
X6885054Y1671000D01*
X6975000D01*
Y1760946D01*
D02*
G37*
G36*
X6124001Y1698636D02*
X6081500D01*
X6068819Y1696114D01*
X6058069Y1688931D01*
X6050886Y1678181D01*
X6048364Y1665500D01*
Y1648000D01*
X6124001D01*
Y1698636D01*
D02*
G37*
G36*
Y1598000D02*
X6048364D01*
Y1580500D01*
X6050886Y1567819D01*
X6058069Y1557069D01*
X6068819Y1549886D01*
X6081500Y1547363D01*
X6124001D01*
Y1598000D01*
D02*
G37*
G36*
X7114946Y1621000D02*
X7025000D01*
Y1531054D01*
X7045353Y1536507D01*
X7072147Y1551977D01*
X7094023Y1573853D01*
X7109493Y1600647D01*
X7114946Y1621000D01*
D02*
G37*
G36*
X6975000D02*
X6885054D01*
X6890507Y1600647D01*
X6905977Y1573853D01*
X6927853Y1551977D01*
X6954647Y1536507D01*
X6975000Y1531054D01*
Y1621000D01*
D02*
G37*
G36*
X5450500Y1480500D02*
X5375500D01*
Y1435499D01*
X5450500D01*
Y1480500D01*
D02*
G37*
G36*
Y1385499D02*
X5375500D01*
Y1340500D01*
X5450500D01*
Y1385499D01*
D02*
G37*
G36*
X3169200Y1880300D02*
X3037760D01*
Y1713300D01*
X3169200D01*
Y1745745D01*
X3180933Y1750605D01*
X3299363Y1632174D01*
Y322700D01*
X3301886Y310019D01*
X3309069Y299269D01*
X3421269Y187069D01*
X3432019Y179886D01*
X3444700Y177363D01*
X3505500D01*
Y145500D01*
X3695500D01*
Y275500D01*
X3505500D01*
Y243637D01*
X3458426D01*
X3365637Y336425D01*
Y1050350D01*
X3378337Y1055611D01*
X3387413Y1046534D01*
X3409465Y1037400D01*
X3433335D01*
X3455387Y1046534D01*
X3472266Y1063413D01*
X3472618Y1064263D01*
X3505500D01*
Y1045500D01*
X3695500D01*
Y1152287D01*
X3708200Y1157547D01*
X3717613Y1148134D01*
X3739665Y1139000D01*
X3763535D01*
X3785587Y1148134D01*
X3802466Y1165013D01*
X3811600Y1187065D01*
Y1210935D01*
X3802466Y1232987D01*
X3785587Y1249865D01*
X3763535Y1259000D01*
X3739665D01*
X3738814Y1258647D01*
X3721786Y1275676D01*
X3711036Y1282859D01*
X3698355Y1285381D01*
X3695500D01*
Y1325500D01*
X3505500D01*
Y1195500D01*
X3681924D01*
X3683201Y1194387D01*
X3686653Y1186540D01*
X3678956Y1175500D01*
X3505500D01*
Y1130536D01*
X3472618D01*
X3472266Y1131387D01*
X3455387Y1148265D01*
X3433335Y1157400D01*
X3409465D01*
X3387413Y1148265D01*
X3378337Y1139189D01*
X3365637Y1144450D01*
Y1645900D01*
X3363114Y1658581D01*
X3355931Y1669331D01*
X3205031Y1820231D01*
X3194281Y1827414D01*
X3181600Y1829937D01*
X3169200D01*
Y1880300D01*
D02*
G37*
G36*
X225000Y1143647D02*
X210000D01*
X190421Y1141070D01*
X172177Y1133512D01*
X156509Y1121491D01*
X144488Y1105824D01*
X139176Y1093000D01*
X225000D01*
Y1143647D01*
D02*
G37*
G36*
X6216500Y1127136D02*
X6174001D01*
Y1076500D01*
X6249637D01*
Y1094000D01*
X6247114Y1106681D01*
X6239931Y1117431D01*
X6229181Y1124614D01*
X6216500Y1127136D01*
D02*
G37*
G36*
X6124001D02*
X6081500D01*
X6068819Y1124614D01*
X6058069Y1117431D01*
X6050886Y1106681D01*
X6048364Y1094000D01*
Y1076500D01*
X6124001D01*
Y1127136D01*
D02*
G37*
G36*
X3992135Y1284400D02*
X3968265D01*
X3946213Y1275265D01*
X3929335Y1258387D01*
X3920200Y1236335D01*
Y1212465D01*
X3928578Y1192238D01*
Y1186865D01*
X3748095Y1006382D01*
X3695500D01*
Y1025500D01*
X3505500D01*
Y895500D01*
X3695500D01*
Y914618D01*
X3767100D01*
X3784658Y918111D01*
X3799543Y928057D01*
X4006903Y1135417D01*
X4016849Y1150302D01*
X4020341Y1167860D01*
Y1179689D01*
X4031066Y1190413D01*
X4040200Y1212465D01*
Y1236335D01*
X4031066Y1258387D01*
X4014187Y1275265D01*
X3992135Y1284400D01*
D02*
G37*
G36*
X793824Y1043000D02*
X693000D01*
Y992353D01*
X723000D01*
X742579Y994931D01*
X760824Y1002488D01*
X776491Y1014510D01*
X788512Y1030177D01*
X793824Y1043000D01*
D02*
G37*
G36*
X643000D02*
X542176D01*
X547488Y1030177D01*
X559509Y1014510D01*
X575176Y1002488D01*
X593421Y994931D01*
X613000Y992353D01*
X643000D01*
Y1043000D01*
D02*
G37*
G36*
X225000D02*
X139176D01*
X144488Y1030177D01*
X156509Y1014510D01*
X172177Y1002488D01*
X190421Y994931D01*
X210000Y992353D01*
X225000D01*
Y1043000D01*
D02*
G37*
G36*
X6249637Y1026500D02*
X6174001D01*
Y975863D01*
X6216500D01*
X6229181Y978386D01*
X6239931Y985569D01*
X6247114Y996319D01*
X6249637Y1009000D01*
Y1026500D01*
D02*
G37*
G36*
X6124001D02*
X6048364D01*
Y1009000D01*
X6050886Y996319D01*
X6058069Y985569D01*
X6068819Y978386D01*
X6081500Y975863D01*
X6124001D01*
Y1026500D01*
D02*
G37*
G36*
X3276500Y1451200D02*
X3007500D01*
Y1099200D01*
X3032619D01*
Y918997D01*
X3019919Y916471D01*
X3015066Y928187D01*
X2998187Y945065D01*
X2997337Y945418D01*
Y1021200D01*
X2994814Y1033881D01*
X2987631Y1044631D01*
X2871448Y1160815D01*
X2871800Y1161665D01*
Y1185535D01*
X2862666Y1207587D01*
X2845787Y1224465D01*
X2823735Y1233600D01*
X2799865D01*
X2777813Y1224465D01*
X2760935Y1207587D01*
X2751800Y1185535D01*
Y1161665D01*
X2760935Y1139613D01*
X2777813Y1122734D01*
X2799865Y1113600D01*
X2823735D01*
X2824585Y1113952D01*
X2931063Y1007474D01*
Y945418D01*
X2930213Y945065D01*
X2913335Y928187D01*
X2904200Y906135D01*
Y882265D01*
X2913335Y860213D01*
X2930213Y843334D01*
X2952265Y834200D01*
X2976135D01*
X2998187Y843334D01*
X3015066Y860213D01*
X3019919Y871929D01*
X3032619Y869402D01*
Y764000D01*
X3014200Y756371D01*
X2987566Y735934D01*
X2967129Y709300D01*
X2961079Y694694D01*
X2947333D01*
X2940238Y711822D01*
X2919000Y739500D01*
X2891322Y760738D01*
X2859090Y774089D01*
X2849500Y775352D01*
Y627500D01*
Y479648D01*
X2859090Y480910D01*
X2891322Y494261D01*
X2919000Y515500D01*
X2940238Y543178D01*
X2947333Y560305D01*
X2961079D01*
X2967129Y545700D01*
X2987566Y519066D01*
X3014200Y498629D01*
X3032619Y491000D01*
Y419005D01*
X2962495Y348881D01*
X2957000D01*
X2955942Y348671D01*
X2882250D01*
X2868886Y346013D01*
X2857557Y338443D01*
X2849987Y327114D01*
X2847329Y313750D01*
Y179250D01*
X2849987Y165886D01*
X2857557Y154557D01*
X2868886Y146987D01*
X2882250Y144329D01*
X2967750D01*
X2981114Y146987D01*
X2992443Y154557D01*
X3000013Y165886D01*
X3002671Y179250D01*
Y263025D01*
X3013943Y270557D01*
X3110943Y367557D01*
X3120889Y382442D01*
X3124382Y400000D01*
Y491000D01*
X3142800Y498629D01*
X3169434Y519066D01*
X3189871Y545700D01*
X3202718Y576716D01*
X3207100Y610000D01*
Y645000D01*
X3202718Y678284D01*
X3189871Y709300D01*
X3169434Y735934D01*
X3142800Y756371D01*
X3124382Y764000D01*
Y1099200D01*
X3276500D01*
Y1451200D01*
D02*
G37*
G36*
X3763535Y878000D02*
X3739665D01*
X3717613Y868865D01*
X3708200Y859452D01*
X3695500Y863796D01*
Y875500D01*
X3505500D01*
Y745500D01*
X3695500D01*
Y764618D01*
X3723687D01*
X3739665Y758000D01*
X3763535D01*
X3785587Y767134D01*
X3802466Y784013D01*
X3811600Y806065D01*
Y829935D01*
X3802466Y851987D01*
X3785587Y868865D01*
X3763535Y878000D01*
D02*
G37*
G36*
X244475Y901976D02*
X202800D01*
Y837800D01*
X279676D01*
Y866775D01*
X276997Y880246D01*
X269366Y891666D01*
X257946Y899297D01*
X244475Y901976D01*
D02*
G37*
G36*
X152800D02*
X111125D01*
X97654Y899297D01*
X86234Y891666D01*
X78603Y880246D01*
X75924Y866775D01*
Y837800D01*
X152800D01*
Y901976D01*
D02*
G37*
G36*
X2590500Y1451200D02*
X2321500D01*
Y1099200D01*
X2397373D01*
Y1013018D01*
X2210182Y825826D01*
X1861850D01*
X1858535Y827200D01*
X1834665D01*
X1812613Y818065D01*
X1795735Y801187D01*
X1786600Y779135D01*
Y755265D01*
X1795735Y733213D01*
X1812613Y716334D01*
X1834665Y707200D01*
X1858535D01*
X1861850Y708573D01*
X2210182D01*
X2219774Y698982D01*
Y538600D01*
X2224236Y516165D01*
X2236945Y497145D01*
X2327761Y406328D01*
X2329135Y403013D01*
X2346013Y386134D01*
X2368065Y377000D01*
X2391935D01*
X2413987Y386134D01*
X2430866Y403013D01*
X2440000Y425065D01*
Y448935D01*
X2430866Y470987D01*
X2413987Y487865D01*
X2410672Y489239D01*
X2337027Y562884D01*
Y723266D01*
X2332564Y745701D01*
X2319855Y764721D01*
X2317376Y767200D01*
X2497455Y947279D01*
X2510164Y966299D01*
X2514626Y988734D01*
Y1099200D01*
X2590500D01*
Y1451200D01*
D02*
G37*
G36*
X6706500Y1693538D02*
X6571500D01*
X6560770Y1691404D01*
X6551674Y1685326D01*
X6545596Y1676230D01*
X6543462Y1665500D01*
Y1599725D01*
X6543118Y1598000D01*
Y1592004D01*
X6309957Y1358843D01*
X6300011Y1343958D01*
X6296519Y1326400D01*
Y943905D01*
X6166557Y813943D01*
X6158603Y802039D01*
X6081500D01*
X6070770Y799904D01*
X6061674Y793826D01*
X6055596Y784730D01*
X6053462Y774000D01*
Y689000D01*
X6055596Y678270D01*
X6061674Y669174D01*
X6070770Y663096D01*
X6081500Y660961D01*
X6216500D01*
X6227230Y663096D01*
X6236326Y669174D01*
X6242404Y678270D01*
X6244539Y689000D01*
Y754775D01*
X6244882Y756500D01*
Y762495D01*
X6374843Y892457D01*
X6384789Y907342D01*
X6388282Y924900D01*
Y1235472D01*
X6392245Y1237569D01*
X6400982Y1239366D01*
X6416013Y1224334D01*
X6438065Y1215200D01*
X6461935D01*
X6483987Y1224334D01*
X6500866Y1241213D01*
X6501282Y1242219D01*
X6503437Y1244373D01*
X6549202D01*
X6551674Y1240674D01*
X6560770Y1234596D01*
X6571500Y1232461D01*
X6651629D01*
X6766497Y1117592D01*
X6785517Y1104884D01*
X6807953Y1100421D01*
X6893601D01*
X6895167Y1094577D01*
X6909978Y1068923D01*
X6930923Y1047978D01*
X6941373Y1041944D01*
Y996500D01*
X6887500D01*
Y771500D01*
X7112500D01*
Y996500D01*
X7058626D01*
Y1041944D01*
X7069077Y1047978D01*
X7090022Y1068923D01*
X7104833Y1094577D01*
X7112500Y1123189D01*
Y1152811D01*
X7104833Y1181423D01*
X7090022Y1207077D01*
X7069077Y1228022D01*
X7058626Y1234056D01*
Y1295944D01*
X7069077Y1301978D01*
X7090022Y1322923D01*
X7104833Y1348577D01*
X7112500Y1377189D01*
Y1406811D01*
X7104833Y1435423D01*
X7090022Y1461077D01*
X7069077Y1482022D01*
X7043423Y1496833D01*
X7014811Y1504500D01*
X6985189D01*
X6956577Y1496833D01*
X6930923Y1482022D01*
X6909978Y1461077D01*
X6895167Y1435423D01*
X6887500Y1406811D01*
Y1377189D01*
X6895167Y1348577D01*
X6909978Y1322923D01*
X6930923Y1301978D01*
X6941373Y1295944D01*
Y1234056D01*
X6930923Y1228022D01*
X6920575Y1217674D01*
X6832237D01*
X6734539Y1315372D01*
Y1345500D01*
X6732404Y1356230D01*
X6726326Y1365326D01*
X6717230Y1371404D01*
X6706500Y1373539D01*
X6571500D01*
X6560770Y1371404D01*
X6551674Y1365326D01*
X6549202Y1361626D01*
X6479153D01*
X6456718Y1357164D01*
X6454588Y1355740D01*
X6446492Y1365605D01*
X6621443Y1540556D01*
X6629398Y1552461D01*
X6706500D01*
X6717230Y1554596D01*
X6726326Y1560674D01*
X6732404Y1569770D01*
X6734539Y1580500D01*
Y1665500D01*
X6732404Y1676230D01*
X6726326Y1685326D01*
X6717230Y1691404D01*
X6706500Y1693538D01*
D02*
G37*
G36*
X279676Y787800D02*
X202800D01*
Y723624D01*
X244475D01*
X257946Y726303D01*
X269366Y733934D01*
X276997Y745354D01*
X279676Y758825D01*
Y787800D01*
D02*
G37*
G36*
X152800D02*
X75924D01*
Y758825D01*
X78603Y745354D01*
X86234Y733934D01*
X97654Y726303D01*
X111125Y723624D01*
X152800D01*
Y787800D01*
D02*
G37*
G36*
X2799500Y775352D02*
X2789911Y774089D01*
X2757679Y760738D01*
X2730000Y739500D01*
X2708762Y711822D01*
X2701667Y694694D01*
X2687921D01*
X2681871Y709300D01*
X2661434Y735934D01*
X2634800Y756371D01*
X2603784Y769218D01*
X2570500Y773600D01*
X2537216Y769218D01*
X2506200Y756371D01*
X2479566Y735934D01*
X2459129Y709300D01*
X2446282Y678284D01*
X2441900Y645000D01*
Y610000D01*
X2446282Y576716D01*
X2459129Y545700D01*
X2479566Y519066D01*
X2506200Y498629D01*
X2524619Y491000D01*
Y331051D01*
X2521987Y327114D01*
X2519329Y313750D01*
Y179250D01*
X2521987Y165886D01*
X2529557Y154557D01*
X2540886Y146987D01*
X2554250Y144329D01*
X2639750D01*
X2653114Y146987D01*
X2664443Y154557D01*
X2672013Y165886D01*
X2674671Y179250D01*
Y313750D01*
X2672013Y327114D01*
X2664443Y338443D01*
X2653114Y346013D01*
X2639750Y348671D01*
X2616382D01*
Y491000D01*
X2634800Y498629D01*
X2661434Y519066D01*
X2681871Y545700D01*
X2687921Y560305D01*
X2701667D01*
X2708762Y543178D01*
X2730000Y515500D01*
X2757679Y494261D01*
X2789911Y480910D01*
X2799500Y479648D01*
Y627500D01*
Y775352D01*
D02*
G37*
G36*
X6706500Y1122038D02*
X6571500D01*
X6560770Y1119904D01*
X6551674Y1113826D01*
X6545596Y1104730D01*
X6543462Y1094000D01*
Y1028225D01*
X6543118Y1026500D01*
Y1020504D01*
X6284557Y761943D01*
X6274611Y747058D01*
X6271119Y729500D01*
Y347005D01*
X6166557Y242443D01*
X6158603Y230539D01*
X6081500D01*
X6070770Y228404D01*
X6061674Y222326D01*
X6055596Y213230D01*
X6053462Y202500D01*
Y117500D01*
X6055596Y106770D01*
X6061674Y97674D01*
X6070770Y91596D01*
X6081500Y89461D01*
X6216500D01*
X6227230Y91596D01*
X6236326Y97674D01*
X6242404Y106770D01*
X6244539Y117500D01*
Y183275D01*
X6244882Y185000D01*
Y190995D01*
X6349443Y295557D01*
X6359389Y310442D01*
X6362882Y328000D01*
Y710495D01*
X6377300Y724913D01*
X6390000Y719653D01*
Y704465D01*
X6399135Y682413D01*
X6416013Y665534D01*
X6438065Y656400D01*
X6461935D01*
X6465250Y657773D01*
X6557566D01*
X6570636Y660373D01*
X6626500D01*
X6629456Y660961D01*
X6706500D01*
X6717230Y663096D01*
X6726326Y669174D01*
X6732404Y678270D01*
X6734539Y689000D01*
Y774000D01*
X6732404Y784730D01*
X6726326Y793826D01*
X6717230Y799904D01*
X6706500Y802039D01*
X6571500D01*
X6560770Y799904D01*
X6551674Y793826D01*
X6545596Y784730D01*
X6543666Y775026D01*
X6465250D01*
X6461935Y776400D01*
X6446747D01*
X6441486Y789100D01*
X6621443Y969056D01*
X6629398Y980961D01*
X6706500D01*
X6717230Y983096D01*
X6726326Y989174D01*
X6732404Y998270D01*
X6734539Y1009000D01*
Y1094000D01*
X6732404Y1104730D01*
X6726326Y1113826D01*
X6717230Y1119904D01*
X6706500Y1122038D01*
D02*
G37*
G36*
X5818000Y725725D02*
X5775000D01*
Y600000D01*
X5855725D01*
Y688000D01*
X5852853Y702436D01*
X5844676Y714675D01*
X5832437Y722853D01*
X5818000Y725725D01*
D02*
G37*
G36*
X5725000D02*
X5682000D01*
X5667564Y722853D01*
X5655325Y714675D01*
X5647147Y702436D01*
X5644275Y688000D01*
Y600000D01*
X5725000D01*
Y725725D01*
D02*
G37*
G36*
X2153975Y630476D02*
X2125000D01*
Y553600D01*
X2189176D01*
Y595275D01*
X2186497Y608746D01*
X2178866Y620166D01*
X2167446Y627797D01*
X2153975Y630476D01*
D02*
G37*
G36*
X2075000D02*
X2046025D01*
X2032554Y627797D01*
X2021134Y620166D01*
X2013503Y608746D01*
X2010824Y595275D01*
Y553600D01*
X2075000D01*
Y630476D01*
D02*
G37*
G36*
X6216500Y555636D02*
X6174000D01*
Y504999D01*
X6249637D01*
Y522500D01*
X6247114Y535181D01*
X6239931Y545931D01*
X6229181Y553114D01*
X6216500Y555636D01*
D02*
G37*
G36*
X6124000D02*
X6081500D01*
X6068819Y553114D01*
X6058069Y545931D01*
X6050886Y535181D01*
X6048364Y522500D01*
Y504999D01*
X6124000D01*
Y555636D01*
D02*
G37*
G36*
X2189176Y503600D02*
X2125000D01*
Y426724D01*
X2153975D01*
X2167446Y429403D01*
X2178866Y437034D01*
X2186497Y448454D01*
X2189176Y461925D01*
Y503600D01*
D02*
G37*
G36*
X2075000D02*
X2010824D01*
Y461925D01*
X2013503Y448454D01*
X2021134Y437034D01*
X2032554Y429403D01*
X2046025Y426724D01*
X2075000D01*
Y503600D01*
D02*
G37*
G36*
X5855725Y550000D02*
X5775000D01*
Y424275D01*
X5818000D01*
X5832437Y427147D01*
X5844676Y435324D01*
X5852853Y447563D01*
X5855725Y462000D01*
Y550000D01*
D02*
G37*
G36*
X5725000D02*
X5644275D01*
Y462000D01*
X5647147Y447563D01*
X5655325Y435324D01*
X5667564Y427147D01*
X5682000Y424275D01*
X5725000D01*
Y550000D01*
D02*
G37*
G36*
X6706500Y550538D02*
X6571500D01*
X6560770Y548404D01*
X6551674Y542326D01*
X6545596Y533230D01*
X6543462Y522500D01*
Y437500D01*
X6545596Y426770D01*
X6551674Y417674D01*
X6560770Y411596D01*
X6571500Y409461D01*
X6706500D01*
X6717230Y411596D01*
X6726326Y417674D01*
X6732404Y426770D01*
X6734539Y437500D01*
Y522500D01*
X6732404Y533230D01*
X6726326Y542326D01*
X6717230Y548404D01*
X6706500Y550538D01*
D02*
G37*
G36*
X6249637Y455000D02*
X6174000D01*
Y404363D01*
X6216500D01*
X6229181Y406886D01*
X6239931Y414069D01*
X6247114Y424819D01*
X6249637Y437500D01*
Y455000D01*
D02*
G37*
G36*
X6124000D02*
X6048364D01*
Y437500D01*
X6050886Y424819D01*
X6058069Y414069D01*
X6068819Y406886D01*
X6081500Y404363D01*
X6124000D01*
Y455000D01*
D02*
G37*
G36*
X1429611Y625700D02*
X1399989D01*
X1371377Y618033D01*
X1345723Y603222D01*
X1324778Y582276D01*
X1309967Y556623D01*
X1302300Y528011D01*
Y498389D01*
X1309967Y469777D01*
X1324778Y444123D01*
X1345723Y423177D01*
X1371377Y408367D01*
X1399989Y400700D01*
X1429611D01*
X1458223Y408367D01*
X1467446Y413692D01*
X1488708Y392429D01*
Y353190D01*
X1461250D01*
X1447496Y350454D01*
X1435836Y342664D01*
X1428045Y331004D01*
X1425310Y317250D01*
Y225750D01*
X1428045Y211996D01*
X1435836Y200336D01*
X1447496Y192545D01*
X1461250Y189809D01*
X1713750D01*
X1727504Y192545D01*
X1739164Y200336D01*
X1746955Y211996D01*
X1749690Y225750D01*
Y231685D01*
X2016248D01*
X2018213Y221805D01*
X2024739Y212039D01*
X2034505Y205513D01*
X2046025Y203222D01*
X2153975D01*
X2165495Y205513D01*
X2175261Y212039D01*
X2181787Y221805D01*
X2184078Y233325D01*
Y366675D01*
X2181787Y378195D01*
X2175261Y387961D01*
X2165495Y394487D01*
X2153975Y396778D01*
X2046025D01*
X2034505Y394487D01*
X2024739Y387961D01*
X2018213Y378195D01*
X2015922Y366675D01*
Y311315D01*
X1749690D01*
Y317250D01*
X1746955Y331004D01*
X1739164Y342664D01*
X1727504Y350454D01*
X1713750Y353190D01*
X1554982D01*
Y406155D01*
X1552459Y418836D01*
X1545276Y429586D01*
X1514308Y460554D01*
X1519633Y469777D01*
X1527300Y498389D01*
Y528011D01*
X1519633Y556623D01*
X1504822Y582276D01*
X1483877Y603222D01*
X1458223Y618033D01*
X1429611Y625700D01*
D02*
G37*
G36*
X1157125Y802779D02*
X687875D01*
X664283Y799674D01*
X642298Y790567D01*
X623419Y776081D01*
X608933Y757202D01*
X599826Y735217D01*
X596720Y711625D01*
Y289375D01*
X599826Y265783D01*
X608933Y243798D01*
X623419Y224919D01*
X642298Y210433D01*
X664283Y201326D01*
X687875Y198220D01*
X1157125D01*
X1180717Y201326D01*
X1202702Y210433D01*
X1221581Y224919D01*
X1236067Y243798D01*
X1245174Y265783D01*
X1248280Y289375D01*
Y711625D01*
X1245174Y735217D01*
X1236067Y757202D01*
X1221581Y776081D01*
X1202702Y790567D01*
X1180717Y799674D01*
X1157125Y802779D01*
D02*
G37*
G36*
X6706500Y230539D02*
X6571500D01*
X6560770Y228404D01*
X6551674Y222326D01*
X6545596Y213230D01*
X6543462Y202500D01*
Y197007D01*
X6534211Y190826D01*
X6415316D01*
X6412001Y192200D01*
X6388131D01*
X6366079Y183065D01*
X6349200Y166187D01*
X6340066Y144135D01*
Y120265D01*
X6349200Y98213D01*
X6366079Y81334D01*
X6388131Y72200D01*
X6412001D01*
X6415316Y73573D01*
X6557566D01*
X6580001Y78036D01*
X6596220Y88873D01*
X6626500D01*
X6629456Y89461D01*
X6706500D01*
X6717230Y91596D01*
X6726326Y97674D01*
X6732404Y106770D01*
X6734539Y117500D01*
Y202500D01*
X6732404Y213230D01*
X6726326Y222326D01*
X6717230Y228404D01*
X6706500Y230539D01*
D02*
G37*
G36*
X7171250Y620000D02*
X7128751D01*
X7086775Y613352D01*
X7046356Y600219D01*
X7008489Y580924D01*
X6974107Y555944D01*
X6944056Y525893D01*
X6919076Y491511D01*
X6899781Y453644D01*
X6886648Y413225D01*
X6880000Y371249D01*
Y328750D01*
X6886648Y286775D01*
X6899781Y246356D01*
X6919076Y208489D01*
X6944056Y174107D01*
X6974107Y144055D01*
X7008489Y119075D01*
X7046356Y99781D01*
X7086775Y86648D01*
X7128751Y80000D01*
X7171250D01*
X7213225Y86648D01*
X7253644Y99781D01*
X7291511Y119075D01*
X7325893Y144055D01*
X7355945Y174107D01*
X7380925Y208489D01*
X7400219Y246356D01*
X7413352Y286775D01*
X7420000Y328750D01*
Y371249D01*
X7413352Y413225D01*
X7400219Y453644D01*
X7380925Y491511D01*
X7355945Y525893D01*
X7325893Y555944D01*
X7291511Y580924D01*
X7253644Y600219D01*
X7213225Y613352D01*
X7171250Y620000D01*
D02*
G37*
%LPD*%
G36*
X5252307Y2013977D02*
X5253485Y2003771D01*
X4836757Y1587043D01*
X4826811Y1572158D01*
X4823319Y1554600D01*
Y919600D01*
X4826811Y902042D01*
X4836757Y887157D01*
X5088181Y635733D01*
X5086524Y630681D01*
X5081953Y624000D01*
X5060465D01*
X5038413Y614865D01*
X5033429Y609881D01*
X3825402D01*
X3821549Y622581D01*
X3829743Y628057D01*
X4196800Y995114D01*
X4209500Y989853D01*
Y965500D01*
X4244500D01*
Y1000500D01*
X4220147D01*
X4214886Y1013200D01*
X5204287Y2002600D01*
X5211335D01*
X5233387Y2011734D01*
X5240306Y2018653D01*
X5252307Y2013977D01*
D02*
G37*
%LPC*%
G36*
X4549500Y1000500D02*
X4514500D01*
Y965500D01*
X4549500D01*
Y1000500D01*
D02*
G37*
G36*
X4464500D02*
X4404500D01*
Y940500D01*
X4354501D01*
Y1000500D01*
X4294500D01*
Y940500D01*
X4269500D01*
Y915500D01*
X4209500D01*
Y880500D01*
Y855499D01*
X4269500D01*
Y805500D01*
X4209500D01*
Y770500D01*
Y745500D01*
X4269500D01*
Y720500D01*
X4294500D01*
Y660500D01*
X4354501D01*
Y720500D01*
X4404500D01*
Y660500D01*
X4464500D01*
Y720500D01*
X4489500D01*
Y745500D01*
X4549500D01*
Y770500D01*
Y805500D01*
X4489500D01*
Y855499D01*
X4549500D01*
Y880500D01*
Y915500D01*
X4489500D01*
Y940500D01*
X4464500D01*
Y1000500D01*
D02*
G37*
G36*
X4549500Y695500D02*
X4514500D01*
Y660500D01*
X4549500D01*
Y695500D01*
D02*
G37*
G36*
X4244500D02*
X4209500D01*
Y660500D01*
X4244500D01*
Y695500D01*
D02*
G37*
%LPD*%
D10*
X1774393Y1788306D02*
G03*
X1821200Y1783200I46807J211990D01*
G01*
D02*
G03*
X2019286Y1830799I0J435969D01*
G01*
X1521655Y1343855D02*
X1524000Y1346200D01*
X1521655Y1323145D02*
X1536600Y1308200D01*
X1521655Y1323145D02*
Y1343855D01*
X1536600Y1308200D02*
X1635000D01*
X1727000D02*
X1803400Y1231800D01*
X1635000Y1308200D02*
X1727000D01*
X1803400Y1193800D02*
Y1231800D01*
X2469117Y1707000D02*
X2499717Y1676400D01*
X2514600D01*
X1948200Y1707000D02*
X2469117D01*
X2116020Y1943100D02*
X2247900D01*
X2082800Y1976320D02*
Y1981200D01*
Y1976320D02*
X2116020Y1943100D01*
X1854200Y2049780D02*
X1988820Y2184400D01*
X1854200Y1955800D02*
Y2049780D01*
X2212540Y2151180D02*
X2456520D01*
X2179320Y2184400D02*
X2212540Y2151180D01*
X2456520D02*
X2468900Y2138800D01*
X2697500D02*
X2870700D01*
X3009500Y2000000D01*
X3103480Y1796800D02*
X3181600D01*
X3332500Y322700D02*
Y1645900D01*
X3181600Y1796800D02*
X3332500Y1645900D01*
X3200000Y2000000D02*
X3290704D01*
X3360304Y1930400D01*
X3403600D01*
X1721500Y1020700D02*
Y1035845D01*
X1643400D02*
X1721500D01*
X1587500Y729500D02*
Y979945D01*
X1643400Y1035845D01*
X1635000Y1108200D02*
X1642900D01*
X1643400Y1107700D01*
Y1035845D02*
Y1107700D01*
X1180200Y1258200D02*
X1635000D01*
X1168400Y1168400D02*
X1358800D01*
X1013400Y1425000D02*
X1180200Y1258200D01*
X1358800Y1168400D02*
X1398600Y1208200D01*
X725500Y1475000D02*
X1075000D01*
X1150000Y1400000D01*
X725500Y1425000D02*
X1013400D01*
X2811800Y1173600D02*
X2964200Y1021200D01*
Y894200D02*
Y1021200D01*
X1733692Y1797292D02*
X1774393Y1788306D01*
X1668800Y1571245D02*
Y1732400D01*
X1733692Y1797292D01*
X1821500Y1495700D02*
Y1554300D01*
Y1495700D02*
X1822000Y1495200D01*
X1745000Y1630800D02*
X1821500Y1554300D01*
X2025314Y1833874D02*
X2031566Y1834000D01*
X2392700D01*
X2019286Y1830799D02*
X2025314Y1833874D01*
X3608755Y1252245D02*
X3698355D01*
X3600500Y1260500D02*
X3608755Y1252245D01*
X3698355D02*
X3751600Y1199000D01*
X1668800Y1571245D02*
X1708845Y1531200D01*
X1722000Y1495200D02*
Y1530700D01*
X1721500Y1531200D02*
X1722000Y1530700D01*
X1708845Y1531200D02*
X1721500D01*
X3587400Y1097400D02*
X3600500Y1110500D01*
X3421400Y1097400D02*
X3587400D01*
X1872000Y1495200D02*
Y1630800D01*
X1922500Y1567511D02*
X1948200Y1593212D01*
Y1707000D01*
X2392700Y1834000D02*
X2633800Y2075100D01*
X1922500Y1495700D02*
Y1567511D01*
X1922000Y1495200D02*
X1922500Y1495700D01*
X3725900Y360500D02*
X3777000Y411600D01*
X3600500Y360500D02*
X3725900D01*
X1482345Y1158200D02*
X1635000D01*
X1446945Y1122800D02*
X1482345Y1158200D01*
X1440200Y1122800D02*
X1446945D01*
X1398600Y1208200D02*
X1635000D01*
X1521845Y319790D02*
Y406155D01*
X1414800Y513200D02*
X1521845Y406155D01*
X1570136Y271500D02*
X1587500D01*
X1521845Y319790D02*
X1570136Y271500D01*
X2684800Y2138800D02*
X2697500D01*
X2633800Y2075100D02*
Y2087800D01*
X2684800Y2138800D01*
X3444700Y210500D02*
X3600500D01*
X3332500Y322700D02*
X3444700Y210500D01*
D11*
X3103480Y1796800D02*
D03*
X2082800Y1981200D02*
D03*
D12*
X3009500Y2000000D02*
D03*
X3200000D02*
D03*
X1988820Y2184400D02*
D03*
X2179320D02*
D03*
D13*
X1270000D02*
D03*
Y1834400D02*
D03*
X5750000Y575000D02*
D03*
Y225000D02*
D03*
D14*
X406400Y2146300D02*
D03*
X177800D02*
D03*
X406400Y812800D02*
D03*
X177800D02*
D03*
X2697500Y2138800D02*
D03*
X2468900D02*
D03*
D15*
X6149000Y1623000D02*
D03*
X6639000D02*
D03*
X6149000Y1303000D02*
D03*
X6639000D02*
D03*
X6149000Y2194500D02*
D03*
X6639000D02*
D03*
X6149000Y1874500D02*
D03*
X6639000D02*
D03*
Y160000D02*
D03*
X6149000D02*
D03*
X6639000Y480000D02*
D03*
X6149000D02*
D03*
X6639000Y731500D02*
D03*
X6149000D02*
D03*
X6639000Y1051500D02*
D03*
X6149000D02*
D03*
D16*
X725500Y1675000D02*
D03*
Y1625000D02*
D03*
Y1575000D02*
D03*
Y1325000D02*
D03*
Y1375000D02*
D03*
Y1425000D02*
D03*
Y1525000D02*
D03*
Y1475000D02*
D03*
D17*
Y1260000D02*
D03*
Y1740000D02*
D03*
Y1180000D02*
D03*
Y1820000D02*
D03*
D18*
X1587500Y271500D02*
D03*
Y729500D02*
D03*
D19*
X922500Y500500D02*
D03*
D20*
X2456000Y1275200D02*
D03*
X3142000D02*
D03*
D21*
X2100000Y528600D02*
D03*
Y300000D02*
D03*
D22*
X2597000Y246500D02*
D03*
X2925000D02*
D03*
D23*
X1722000Y1021200D02*
D03*
X1772000D02*
D03*
X1822000D02*
D03*
X1872000D02*
D03*
X1922000D02*
D03*
X1972000D02*
D03*
X2022000D02*
D03*
Y1495200D02*
D03*
X1972000D02*
D03*
X1922000D02*
D03*
X1872000D02*
D03*
X1822000D02*
D03*
X1772000D02*
D03*
X1722000D02*
D03*
D24*
X1635000Y1408200D02*
D03*
Y1358200D02*
D03*
Y1308200D02*
D03*
Y1258200D02*
D03*
Y1208200D02*
D03*
Y1158200D02*
D03*
Y1108200D02*
D03*
X2109000D02*
D03*
Y1158200D02*
D03*
Y1208200D02*
D03*
Y1258200D02*
D03*
Y1308200D02*
D03*
Y1358200D02*
D03*
Y1408200D02*
D03*
D25*
X1872000Y1258200D02*
D03*
D26*
X4489500Y940500D02*
D03*
X4379500D02*
D03*
X4269500D02*
D03*
Y720500D02*
D03*
X4379500D02*
D03*
X4489500D02*
D03*
Y830500D02*
D03*
X4269500D02*
D03*
X4379500D02*
D03*
D27*
X3600500Y210500D02*
D03*
Y360500D02*
D03*
Y510500D02*
D03*
Y660500D02*
D03*
Y810500D02*
D03*
Y960500D02*
D03*
Y1110500D02*
D03*
Y1260500D02*
D03*
Y1410500D02*
D03*
X5350500D02*
D03*
Y1260500D02*
D03*
Y1110500D02*
D03*
Y960500D02*
D03*
Y810500D02*
D03*
Y660500D02*
D03*
Y510500D02*
D03*
Y360500D02*
D03*
Y210500D02*
D03*
D28*
X5562600Y431800D02*
Y1270000D01*
X5588000Y1295400D01*
X5491300Y360500D02*
X5562600Y431800D01*
X5350500Y360500D02*
X5491300D01*
X6078500Y1849500D02*
X6124000D01*
X6149000Y1874500D01*
X5961400Y1732400D02*
X6078500Y1849500D01*
X725500Y1740000D02*
X1045882D01*
X950000Y1082000D02*
X996155Y1035845D01*
X1643400D01*
X950000Y1082000D02*
Y1200000D01*
X941882D02*
X950000D01*
X725500Y1260000D02*
X881882D01*
X941882Y1200000D01*
X1215000Y1734400D02*
X1270000Y1789400D01*
X1170000Y1734400D02*
X1215000D01*
X1072540Y1732940D02*
X1168540D01*
X1270000Y1789400D02*
Y1834400D01*
X1168540Y1732940D02*
X1170000Y1734400D01*
X1066800Y1727200D02*
X1072540Y1732940D01*
X1045882Y1740000D02*
X1058682Y1727200D01*
X1066800D01*
X1281510Y1891110D02*
X1736169Y2345769D01*
Y2474169D01*
X1762000Y2500000D01*
X6589000Y1573000D02*
Y1598000D01*
X6614000Y1623000D02*
X6639000D01*
X6589000Y1598000D02*
X6614000Y1623000D01*
X6342400Y1326400D02*
X6589000Y1573000D01*
X6342400Y924900D02*
Y1326400D01*
X6199000Y781500D02*
X6342400Y924900D01*
X6149000Y731500D02*
X6174000D01*
X6199000Y756500D01*
Y781500D01*
X6174000Y160000D02*
X6199000Y185000D01*
Y210000D01*
X6317000Y328000D01*
X6149000Y160000D02*
X6174000D01*
X6589000Y1001500D02*
Y1026500D01*
X6317000Y729500D02*
X6589000Y1001500D01*
X6317000Y328000D02*
Y729500D01*
X6614000Y1051500D02*
X6639000D01*
X6589000Y1026500D02*
X6614000Y1051500D01*
X6199000Y1328000D02*
Y1353000D01*
X6291600Y1445600D01*
X6149000Y1303000D02*
X6174000D01*
X6199000Y1328000D01*
X6589000Y2144500D02*
Y2169500D01*
X6291600Y1847100D02*
X6589000Y2144500D01*
X6614000Y2194500D02*
X6639000D01*
X6589000Y2169500D02*
X6614000Y2194500D01*
X6291600Y1445600D02*
Y1847100D01*
X3852900Y360500D02*
X5350500D01*
X3802400Y310000D02*
X3852900Y360500D01*
X1519940Y2624940D02*
X1592600Y2697600D01*
X1508000Y2500000D02*
X1519940Y2511940D01*
Y2624940D01*
X1592600Y2697600D02*
X2380000D01*
X2557800Y2519800D01*
X3130000Y2600000D02*
X3311800Y2418200D01*
X3396000D01*
X3904000Y1935600D02*
X4081800Y1757800D01*
X3726200Y1935600D02*
X3904000D01*
X3777000Y564000D02*
X5072400D01*
X3600500Y510500D02*
X3723500D01*
X3777000Y564000D01*
X5205140Y1320260D02*
Y1345660D01*
Y1320260D02*
X5250200Y1275200D01*
X5199400Y1351400D02*
X5205140Y1345660D01*
X5250200Y1275200D02*
X5335800D01*
X5350500Y1260500D01*
X4970800Y970400D02*
Y1503800D01*
X4869200Y1554600D02*
X5301000Y1986400D01*
X4869200Y919600D02*
Y1554600D01*
X5097800Y970400D02*
Y1630800D01*
X4970800Y970400D02*
X5260700Y680500D01*
X4146000Y2303200D02*
X4539000Y1910200D01*
X4146000Y2303200D02*
Y2600000D01*
X5243690Y1129755D02*
X5331245D01*
X5199400Y1173600D02*
X5199845D01*
X5331245Y1129755D02*
X5350500Y1110500D01*
X5199845Y1173600D02*
X5243690Y1129755D01*
Y979755D02*
X5331245D01*
X5199400Y1021200D02*
X5202245D01*
X5331245Y979755D02*
X5350500Y960500D01*
X5202245Y1021200D02*
X5243690Y979755D01*
X5097800Y970400D02*
X5241067Y827133D01*
X5171260Y2220740D02*
X5193660D01*
X4792000Y2600000D02*
X5171260Y2220740D01*
X5193660D02*
X5199400Y2215000D01*
X3797300Y660500D02*
X5199400Y2062600D01*
X5301000Y1986400D02*
Y2599000D01*
X5300000Y2600000D02*
X5301000Y2599000D01*
X5241067Y827133D02*
X5333867D01*
X5350500Y810500D01*
X5260700Y680500D02*
X5330500D01*
X5350500Y660500D01*
X3600500D02*
X3797300D01*
X4869200Y919600D02*
X5258300Y530500D01*
X5330500D02*
X5350500Y510500D01*
X5258300Y530500D02*
X5330500D01*
X3735982Y810500D02*
X3743482Y818000D01*
X3600500Y810500D02*
X3735982D01*
X3743482Y818000D02*
X3751600D01*
X3974460Y1218660D02*
X3980200Y1224400D01*
X3974460Y1167860D02*
Y1218660D01*
X3767100Y960500D02*
X3974460Y1167860D01*
X3638000Y1430500D02*
Y2600000D01*
X3618000Y1410500D02*
X3638000Y1430500D01*
X3600500Y1410500D02*
X3618000D01*
X3600500Y960500D02*
X3767100D01*
X3078500Y627500D02*
Y1211700D01*
X3142000Y1275200D01*
X2925000Y271000D02*
X2957000Y303000D01*
X2981500D02*
X3078500Y400000D01*
X2925000Y246500D02*
Y271000D01*
X2957000Y303000D02*
X2981500D01*
X3078500Y400000D02*
Y627500D01*
X2570500Y273000D02*
X2597000Y246500D01*
X2570500Y273000D02*
Y627500D01*
D29*
X563000Y1325000D02*
X725500D01*
X406400Y1168400D02*
X563000Y1325000D01*
X406400Y812800D02*
Y1168400D01*
Y1803400D02*
Y2146300D01*
Y1803400D02*
X584800Y1625000D01*
X725500D01*
D30*
X7000000Y884000D02*
Y1138000D01*
Y1392000D01*
X6639000Y1303000D02*
X6664000D01*
X6807953Y1159047D01*
X6978953D01*
X7000000Y1138000D01*
X1371600Y1371600D02*
Y1536800D01*
X1541800Y1707000D01*
Y1935600D01*
X949500Y500500D02*
X1100000Y350000D01*
X922500Y500500D02*
X949500D01*
X2234466Y767200D02*
X2456000Y988734D01*
Y1275200D01*
X1964051Y2448050D02*
X2016000Y2500000D01*
X1964051Y2357851D02*
Y2448050D01*
X1541800Y1935600D02*
X1964051Y2357851D01*
X2234466Y767200D02*
X2278400Y723266D01*
Y538600D02*
Y723266D01*
X1846600Y767200D02*
X2234466D01*
X2278400Y538600D02*
X2380000Y437000D01*
X3774288Y210161D02*
X3774627Y210500D01*
X5350500D01*
X6447953Y1862000D02*
X6626500D01*
X6444000Y1859400D02*
X6445353D01*
X6447953Y1862000D01*
X6626500D02*
X6639000Y1874500D01*
X6451353Y1275200D02*
X6479153Y1303000D01*
X6639000D01*
X6450000Y1275200D02*
X6451353D01*
X6560166Y719000D02*
X6626500D01*
X6450000Y716400D02*
X6557566D01*
X6626500Y719000D02*
X6639000Y731500D01*
X6557566Y716400D02*
X6560166Y719000D01*
X6557566Y132200D02*
X6572866Y147500D01*
X6626500D02*
X6639000Y160000D01*
X6572866Y147500D02*
X6626500D01*
X6400066Y132200D02*
X6557566D01*
X5750000Y225000D02*
X5779967Y195034D01*
X5898566D01*
X5961400Y132200D01*
X5350500Y210500D02*
X5735500D01*
X5750000Y225000D01*
D31*
X2071500Y271500D02*
X2100000Y300000D01*
X1587500Y271500D02*
X2071500D01*
D32*
X1000000Y2500000D02*
D03*
X1762000D02*
D03*
X1508000D02*
D03*
X1254000D02*
D03*
X7000000Y2154000D02*
D03*
Y1900000D02*
D03*
Y1138000D02*
D03*
Y1392000D02*
D03*
Y1646000D02*
D03*
X3130000Y2600000D02*
D03*
X3384000D02*
D03*
X4146000D02*
D03*
X3892000D02*
D03*
X3638000D02*
D03*
X5300000D02*
D03*
X5046000D02*
D03*
X4792000D02*
D03*
D33*
X2016000Y2500000D02*
D03*
X4400000Y2600000D02*
D03*
X5554000D02*
D03*
D34*
X7000000Y884000D02*
D03*
D35*
X7150000Y2650000D02*
D03*
X350000D02*
D03*
X7150000Y350000D02*
D03*
D36*
X618000Y1789000D02*
D03*
Y1211000D02*
D03*
D37*
X668000Y1068000D02*
D03*
Y1932000D02*
D03*
D38*
X250000Y1068000D02*
D03*
Y1932000D02*
D03*
D39*
X2824500Y627500D02*
D03*
X2570500D02*
D03*
X3078500D02*
D03*
D40*
X4489500Y885500D02*
D03*
X4379500D02*
D03*
X4434500Y940500D02*
D03*
X4324500D02*
D03*
X4434500Y830500D02*
D03*
X4489500Y775500D02*
D03*
X4379500D02*
D03*
X4324500Y830500D02*
D03*
X4434500Y720500D02*
D03*
X4269500Y885500D02*
D03*
Y775500D02*
D03*
X4324500Y720500D02*
D03*
D41*
X5588000Y1879600D02*
D03*
Y1295400D02*
D03*
D42*
X1803400Y1193800D02*
D03*
X2514600Y1676400D02*
D03*
X5961400Y1732400D02*
D03*
X2247900Y1943100D02*
D03*
X1854200Y1955800D02*
D03*
X3403600Y1930400D02*
D03*
X1066800Y1727200D02*
D03*
X1168400Y1168400D02*
D03*
X1371600Y1371600D02*
D03*
X1150000Y1400000D02*
D03*
X950000Y1200000D02*
D03*
X1440200Y1122800D02*
D03*
X1100000Y350000D02*
D03*
X2964200Y894200D02*
D03*
X2811800Y1173600D02*
D03*
X1745000Y1630800D02*
D03*
X3802400Y310000D02*
D03*
X2557800Y2519800D02*
D03*
X3396000Y2418200D02*
D03*
X3726200Y1935600D02*
D03*
X4081800Y1757800D02*
D03*
X5072400Y564000D02*
D03*
X5199400Y1351400D02*
D03*
X4970800Y1503800D02*
D03*
X4539000Y1910200D02*
D03*
X5199400Y1173600D02*
D03*
Y1021200D02*
D03*
Y2215000D02*
D03*
X5097800Y1630800D02*
D03*
X5199400Y2062600D02*
D03*
X3751600Y818000D02*
D03*
X3980200Y1224400D02*
D03*
X1846600Y767200D02*
D03*
X2380000Y437000D02*
D03*
X3774288Y210161D02*
D03*
X6444000Y1859400D02*
D03*
X6450000Y1275200D02*
D03*
Y716400D02*
D03*
X6400066Y132200D02*
D03*
X5961400D02*
D03*
X3751600Y1199000D02*
D03*
X3421400Y1097400D02*
D03*
X1872000Y1630800D02*
D03*
X1948200Y1707000D02*
D03*
X3777000Y411600D02*
D03*
D43*
X1414800Y513200D02*
D03*
%TF.MD5,346718905827ee20be96a96f597c3fc3*%
M02*
