%TF.GenerationSoftware,Altium Limited,Altium Designer,24.0.1 (36)*%
G04 Layer_Color=255*
%FSLAX45Y45*%
%MOMM*%
%TF.SameCoordinates,65C793CC-7C80-44E8-9821-AA658A2EEAB5*%
%TF.FilePolarity,Positive*%
%TF.FileFunction,Pads,Bot*%
%TF.Part,Single*%
G01*
G75*
%TA.AperFunction,SMDPad,CuDef*%
G04:AMPARAMS|DCode=14|XSize=1.524mm|YSize=1.27mm|CornerRadius=0.09525mm|HoleSize=0mm|Usage=FLASHONLY|Rotation=0.000|XOffset=0mm|YOffset=0mm|HoleType=Round|Shape=RoundedRectangle|*
%AMROUNDEDRECTD14*
21,1,1.52400,1.07950,0,0,0.0*
21,1,1.33350,1.27000,0,0,0.0*
1,1,0.19050,0.66675,-0.53975*
1,1,0.19050,-0.66675,-0.53975*
1,1,0.19050,-0.66675,0.53975*
1,1,0.19050,0.66675,0.53975*
%
%ADD14ROUNDEDRECTD14*%
G04:AMPARAMS|DCode=21|XSize=1.524mm|YSize=1.27mm|CornerRadius=0.09525mm|HoleSize=0mm|Usage=FLASHONLY|Rotation=270.000|XOffset=0mm|YOffset=0mm|HoleType=Round|Shape=RoundedRectangle|*
%AMROUNDEDRECTD21*
21,1,1.52400,1.07950,0,0,270.0*
21,1,1.33350,1.27000,0,0,270.0*
1,1,0.19050,-0.53975,-0.66675*
1,1,0.19050,-0.53975,0.66675*
1,1,0.19050,0.53975,0.66675*
1,1,0.19050,0.53975,-0.66675*
%
%ADD21ROUNDEDRECTD21*%
%TA.AperFunction,ComponentPad*%
%ADD32C,1.85000*%
%ADD33R,1.85000X1.85000*%
%ADD34R,1.85000X1.85000*%
%ADD35C,5.00000*%
%ADD36C,0.65000*%
%ADD37O,2.10000X1.00000*%
%ADD38O,1.80000X1.00000*%
%ADD39O,2.15000X2.50000*%
%ADD40C,0.40000*%
%TA.AperFunction,SMDPad,CuDef*%
G04:AMPARAMS|DCode=44|XSize=0.762mm|YSize=0.762mm|CornerRadius=0.0381mm|HoleSize=0mm|Usage=FLASHONLY|Rotation=0.000|XOffset=0mm|YOffset=0mm|HoleType=Round|Shape=RoundedRectangle|*
%AMROUNDEDRECTD44*
21,1,0.76200,0.68580,0,0,0.0*
21,1,0.68580,0.76200,0,0,0.0*
1,1,0.07620,0.34290,-0.34290*
1,1,0.07620,-0.34290,-0.34290*
1,1,0.07620,-0.34290,0.34290*
1,1,0.07620,0.34290,0.34290*
%
%ADD44ROUNDEDRECTD44*%
G04:AMPARAMS|DCode=45|XSize=0.762mm|YSize=0.762mm|CornerRadius=0.0381mm|HoleSize=0mm|Usage=FLASHONLY|Rotation=90.000|XOffset=0mm|YOffset=0mm|HoleType=Round|Shape=RoundedRectangle|*
%AMROUNDEDRECTD45*
21,1,0.76200,0.68580,0,0,90.0*
21,1,0.68580,0.76200,0,0,90.0*
1,1,0.07620,0.34290,0.34290*
1,1,0.07620,0.34290,-0.34290*
1,1,0.07620,-0.34290,-0.34290*
1,1,0.07620,-0.34290,0.34290*
%
%ADD45ROUNDEDRECTD45*%
D14*
X2507000Y1516500D02*
D03*
X2735600D02*
D03*
D21*
X2316500Y2723000D02*
D03*
Y2494400D02*
D03*
X3954800Y259200D02*
D03*
Y487800D02*
D03*
Y818000D02*
D03*
Y1046600D02*
D03*
D32*
X1000000Y2500000D02*
D03*
X1762000D02*
D03*
X1508000D02*
D03*
X1254000D02*
D03*
X7000000Y2154000D02*
D03*
Y1900000D02*
D03*
Y1138000D02*
D03*
Y1392000D02*
D03*
Y1646000D02*
D03*
X3130000Y2600000D02*
D03*
X3384000D02*
D03*
X4146000D02*
D03*
X3892000D02*
D03*
X3638000D02*
D03*
X5300000D02*
D03*
X5046000D02*
D03*
X4792000D02*
D03*
D33*
X2016000Y2500000D02*
D03*
X4400000Y2600000D02*
D03*
X5554000D02*
D03*
D34*
X7000000Y884000D02*
D03*
D35*
X7150000Y2650000D02*
D03*
X350000D02*
D03*
X7150000Y350000D02*
D03*
D36*
X618000Y1789000D02*
D03*
Y1211000D02*
D03*
D37*
X668000Y1068000D02*
D03*
Y1932000D02*
D03*
D38*
X250000Y1068000D02*
D03*
Y1932000D02*
D03*
D39*
X2824500Y627500D02*
D03*
X2570500D02*
D03*
X3078500D02*
D03*
D40*
X4489500Y885500D02*
D03*
X4379500D02*
D03*
X4434500Y940500D02*
D03*
X4324500D02*
D03*
X4434500Y830500D02*
D03*
X4489500Y775500D02*
D03*
X4379500D02*
D03*
X4324500Y830500D02*
D03*
X4434500Y720500D02*
D03*
X4269500Y885500D02*
D03*
Y775500D02*
D03*
X4324500Y720500D02*
D03*
D44*
X1371600Y1219200D02*
D03*
X1511300D02*
D03*
X6450000Y300000D02*
D03*
X6310300D02*
D03*
X6450000Y850000D02*
D03*
X6310300D02*
D03*
X6450000Y1450000D02*
D03*
X6310300D02*
D03*
X6450000Y2000000D02*
D03*
X6310300D02*
D03*
D45*
X4250000Y439700D02*
D03*
Y300000D02*
D03*
X2075200Y1973700D02*
D03*
Y1834000D02*
D03*
%TF.MD5,83f43e32530d94cbde46abc5616fcab4*%
M02*
