%TF.GenerationSoftware,Altium Limited,Altium Designer,24.0.1 (36)*%
G04 Layer_Color=128*
%FSLAX45Y45*%
%MOMM*%
%TF.SameCoordinates,65C793CC-7C80-44E8-9821-AA658A2EEAB5*%
%TF.FilePolarity,Positive*%
%TF.FileFunction,Drillmap*%
%TF.Part,Single*%
G01*
G75*
%TA.AperFunction,NonConductor*%
%ADD49C,0.12700*%
D49*
X957500Y2500000D02*
X1042500D01*
X1000000Y2457500D02*
Y2542500D01*
X1973500Y2500000D02*
X2058500D01*
X2016000Y2457500D02*
Y2542500D01*
X1719500Y2500000D02*
X1804500D01*
X1762000Y2457500D02*
Y2542500D01*
X1465500Y2500000D02*
X1550500D01*
X1508000Y2457500D02*
Y2542500D01*
X1211500Y2500000D02*
X1296500D01*
X1254000Y2457500D02*
Y2542500D01*
X6957500Y2154000D02*
X7042500D01*
X7000000Y2111500D02*
Y2196500D01*
X6957500Y1900000D02*
X7042500D01*
X7000000Y1857500D02*
Y1942500D01*
X6957500Y884000D02*
X7042500D01*
X7000000Y841500D02*
Y926500D01*
X6957500Y1138000D02*
X7042500D01*
X7000000Y1095500D02*
Y1180500D01*
X6957500Y1392000D02*
X7042500D01*
X7000000Y1349500D02*
Y1434500D01*
X6957500Y1646000D02*
X7042500D01*
X7000000Y1603500D02*
Y1688500D01*
X3087500Y2600000D02*
X3172500D01*
X3130000Y2557500D02*
Y2642500D01*
X3341500Y2600000D02*
X3426500D01*
X3384000Y2557500D02*
Y2642500D01*
X4357500Y2600000D02*
X4442500D01*
X4400000Y2557500D02*
Y2642500D01*
X4103500Y2600000D02*
X4188500D01*
X4146000Y2557500D02*
Y2642500D01*
X3849500Y2600000D02*
X3934500D01*
X3892000Y2557500D02*
Y2642500D01*
X3595500Y2600000D02*
X3680500D01*
X3638000Y2557500D02*
Y2642500D01*
X6992500Y2650000D02*
X7307500D01*
X7150000Y2492500D02*
Y2807500D01*
X585500Y1789000D02*
X650500D01*
X618000Y1756500D02*
Y1821500D01*
X585500Y1211000D02*
X650500D01*
X618000Y1178500D02*
Y1243500D01*
X638000Y1068000D02*
X698000D01*
X668000Y1038000D02*
Y1098000D01*
X638000Y1932000D02*
X698000D01*
X668000Y1902000D02*
Y1962000D01*
X220000Y1068000D02*
X280000D01*
X250000Y1038000D02*
Y1098000D01*
X220000Y1932000D02*
X280000D01*
X250000Y1902000D02*
Y1962000D01*
X5511500Y2600000D02*
X5596500D01*
X5554000Y2557500D02*
Y2642500D01*
X5257500Y2600000D02*
X5342500D01*
X5300000Y2557500D02*
Y2642500D01*
X5003500Y2600000D02*
X5088500D01*
X5046000Y2557500D02*
Y2642500D01*
X4749500Y2600000D02*
X4834500D01*
X4792000Y2557500D02*
Y2642500D01*
X2767000Y627500D02*
X2882000D01*
X2824500Y570000D02*
Y685000D01*
X2513000Y627500D02*
X2628000D01*
X2570500Y570000D02*
Y685000D01*
X3021000Y627500D02*
X3136000D01*
X3078500Y570000D02*
Y685000D01*
X192500Y2650000D02*
X507500D01*
X350000Y2492500D02*
Y2807500D01*
X6992500Y350000D02*
X7307500D01*
X7150000Y192500D02*
Y507500D01*
X4474500Y885500D02*
X4504500D01*
X4489500Y870500D02*
Y900500D01*
X4364500Y885500D02*
X4394500D01*
X4379500Y870500D02*
Y900500D01*
X4419500Y940500D02*
X4449500D01*
X4434500Y925500D02*
Y955500D01*
X4309500Y940500D02*
X4339500D01*
X4324500Y925500D02*
Y955500D01*
X4419500Y830500D02*
X4449500D01*
X4434500Y815500D02*
Y845500D01*
X4474500Y775500D02*
X4504500D01*
X4489500Y760500D02*
Y790500D01*
X4364500Y775500D02*
X4394500D01*
X4379500Y760500D02*
Y790500D01*
X4309500Y830500D02*
X4339500D01*
X4324500Y815500D02*
Y845500D01*
X4419500Y720500D02*
X4449500D01*
X4434500Y705500D02*
Y735500D01*
X4254500Y885500D02*
X4284500D01*
X4269500Y870500D02*
Y900500D01*
X4254500Y775500D02*
X4284500D01*
X4269500Y760500D02*
Y790500D01*
X4309500Y720500D02*
X4339500D01*
X4324500Y705500D02*
Y735500D01*
X5545500Y1879600D02*
X5630500D01*
X5588000Y1837100D02*
Y1922100D01*
X5545500Y1295400D02*
X5630500D01*
X5588000Y1252900D02*
Y1337900D01*
X1783400Y1193800D02*
X1823400D01*
X1803400Y1173800D02*
Y1213800D01*
X2494600Y1676400D02*
X2534600D01*
X2514600Y1656400D02*
Y1696400D01*
X5941400Y1732400D02*
X5981400D01*
X5961400Y1712400D02*
Y1752400D01*
X2227900Y1943100D02*
X2267900D01*
X2247900Y1923100D02*
Y1963100D01*
X1834200Y1955800D02*
X1874200D01*
X1854200Y1935800D02*
Y1975800D01*
X3383600Y1930400D02*
X3423600D01*
X3403600Y1910400D02*
Y1950400D01*
X1046800Y1727200D02*
X1086800D01*
X1066800Y1707200D02*
Y1747200D01*
X1148400Y1168400D02*
X1188400D01*
X1168400Y1148400D02*
Y1188400D01*
X1351600Y1371600D02*
X1391600D01*
X1371600Y1351600D02*
Y1391600D01*
X1130000Y1400000D02*
X1170000D01*
X1150000Y1380000D02*
Y1420000D01*
X930000Y1200000D02*
X970000D01*
X950000Y1180000D02*
Y1220000D01*
X1420200Y1122800D02*
X1460200D01*
X1440200Y1102800D02*
Y1142800D01*
X1080000Y350000D02*
X1120000D01*
X1100000Y330000D02*
Y370000D01*
X2944200Y894200D02*
X2984200D01*
X2964200Y874200D02*
Y914200D01*
X2791800Y1173600D02*
X2831800D01*
X2811800Y1153600D02*
Y1193600D01*
X1725000Y1630800D02*
X1765000D01*
X1745000Y1610800D02*
Y1650800D01*
X3782400Y310000D02*
X3822400D01*
X3802400Y290000D02*
Y330000D01*
X2537800Y2519800D02*
X2577800D01*
X2557800Y2499800D02*
Y2539800D01*
X3376000Y2418200D02*
X3416000D01*
X3396000Y2398200D02*
Y2438200D01*
X3706200Y1935600D02*
X3746200D01*
X3726200Y1915600D02*
Y1955600D01*
X4061800Y1757800D02*
X4101800D01*
X4081800Y1737800D02*
Y1777800D01*
X5052400Y564000D02*
X5092400D01*
X5072400Y544000D02*
Y584000D01*
X5179400Y1351400D02*
X5219400D01*
X5199400Y1331400D02*
Y1371400D01*
X4950800Y1503800D02*
X4990800D01*
X4970800Y1483800D02*
Y1523800D01*
X4519000Y1910200D02*
X4559000D01*
X4539000Y1890200D02*
Y1930200D01*
X5179400Y1173600D02*
X5219400D01*
X5199400Y1153600D02*
Y1193600D01*
X5179400Y1021200D02*
X5219400D01*
X5199400Y1001200D02*
Y1041200D01*
X5179400Y2215000D02*
X5219400D01*
X5199400Y2195000D02*
Y2235000D01*
X5077800Y1630800D02*
X5117800D01*
X5097800Y1610800D02*
Y1650800D01*
X5179400Y2062600D02*
X5219400D01*
X5199400Y2042600D02*
Y2082600D01*
X3731600Y818000D02*
X3771600D01*
X3751600Y798000D02*
Y838000D01*
X3960200Y1224400D02*
X4000200D01*
X3980200Y1204400D02*
Y1244400D01*
X1826600Y767200D02*
X1866600D01*
X1846600Y747200D02*
Y787200D01*
X2360000Y437000D02*
X2400000D01*
X2380000Y417000D02*
Y457000D01*
X3754288Y210161D02*
X3794288D01*
X3774288Y190161D02*
Y230161D01*
X6424000Y1859400D02*
X6464000D01*
X6444000Y1839400D02*
Y1879400D01*
X6430000Y1275200D02*
X6470000D01*
X6450000Y1255200D02*
Y1295200D01*
X6430000Y716400D02*
X6470000D01*
X6450000Y696400D02*
Y736400D01*
X6380066Y132200D02*
X6420066D01*
X6400066Y112200D02*
Y152200D01*
X5941400Y132200D02*
X5981400D01*
X5961400Y112200D02*
Y152200D01*
X3731600Y1199000D02*
X3771600D01*
X3751600Y1179000D02*
Y1219000D01*
X3401400Y1097400D02*
X3441400D01*
X3421400Y1077400D02*
Y1117400D01*
X1852000Y1630800D02*
X1892000D01*
X1872000Y1610800D02*
Y1650800D01*
X1928200Y1707000D02*
X1968200D01*
X1948200Y1687000D02*
Y1727000D01*
X3757000Y411600D02*
X3797000D01*
X3777000Y391600D02*
Y431600D01*
X1372300Y513200D02*
X1457300D01*
X1414800Y470700D02*
Y555700D01*
%TF.MD5,8c3d4c8e247837826d3d8bf47122817e*%
M02*
