%TF.GenerationSoftware,Altium Limited,Altium Designer,24.0.1 (36)*%
G04 Layer_Color=128*
%FSLAX45Y45*%
%MOMM*%
%TF.SameCoordinates,65C793CC-7C80-44E8-9821-AA658A2EEAB5*%
%TF.FilePolarity,Positive*%
%TF.FileFunction,Paste,Bot*%
%TF.Part,Single*%
G01*
G75*
%TA.AperFunction,SMDPad,CuDef*%
G04:AMPARAMS|DCode=81|XSize=1.484mm|YSize=1.23mm|CornerRadius=0.07525mm|HoleSize=0mm|Usage=FLASHONLY|Rotation=0.000|XOffset=0mm|YOffset=0mm|HoleType=Round|Shape=RoundedRectangle|*
%AMROUNDEDRECTD81*
21,1,1.48400,1.07950,0,0,0.0*
21,1,1.33350,1.23000,0,0,0.0*
1,1,0.15050,0.66675,-0.53975*
1,1,0.15050,-0.66675,-0.53975*
1,1,0.15050,-0.66675,0.53975*
1,1,0.15050,0.66675,0.53975*
%
%ADD81ROUNDEDRECTD81*%
G04:AMPARAMS|DCode=83|XSize=1.484mm|YSize=1.23mm|CornerRadius=0.07525mm|HoleSize=0mm|Usage=FLASHONLY|Rotation=270.000|XOffset=0mm|YOffset=0mm|HoleType=Round|Shape=RoundedRectangle|*
%AMROUNDEDRECTD83*
21,1,1.48400,1.07950,0,0,270.0*
21,1,1.33350,1.23000,0,0,270.0*
1,1,0.15050,-0.53975,-0.66675*
1,1,0.15050,-0.53975,0.66675*
1,1,0.15050,0.53975,0.66675*
1,1,0.15050,0.53975,-0.66675*
%
%ADD83ROUNDEDRECTD83*%
G04:AMPARAMS|DCode=85|XSize=0.722mm|YSize=0.722mm|CornerRadius=0.0181mm|HoleSize=0mm|Usage=FLASHONLY|Rotation=0.000|XOffset=0mm|YOffset=0mm|HoleType=Round|Shape=RoundedRectangle|*
%AMROUNDEDRECTD85*
21,1,0.72200,0.68580,0,0,0.0*
21,1,0.68580,0.72200,0,0,0.0*
1,1,0.03620,0.34290,-0.34290*
1,1,0.03620,-0.34290,-0.34290*
1,1,0.03620,-0.34290,0.34290*
1,1,0.03620,0.34290,0.34290*
%
%ADD85ROUNDEDRECTD85*%
G04:AMPARAMS|DCode=86|XSize=0.722mm|YSize=0.722mm|CornerRadius=0.0181mm|HoleSize=0mm|Usage=FLASHONLY|Rotation=90.000|XOffset=0mm|YOffset=0mm|HoleType=Round|Shape=RoundedRectangle|*
%AMROUNDEDRECTD86*
21,1,0.72200,0.68580,0,0,90.0*
21,1,0.68580,0.72200,0,0,90.0*
1,1,0.03620,0.34290,0.34290*
1,1,0.03620,0.34290,-0.34290*
1,1,0.03620,-0.34290,-0.34290*
1,1,0.03620,-0.34290,0.34290*
%
%ADD86ROUNDEDRECTD86*%
D81*
X2507000Y1516500D02*
D03*
X2735600D02*
D03*
D83*
X2316500Y2723000D02*
D03*
Y2494400D02*
D03*
X3954800Y259200D02*
D03*
Y487800D02*
D03*
Y818000D02*
D03*
Y1046600D02*
D03*
D85*
X1371600Y1219200D02*
D03*
X1511300D02*
D03*
X6450000Y300000D02*
D03*
X6310300D02*
D03*
X6450000Y850000D02*
D03*
X6310300D02*
D03*
X6450000Y1450000D02*
D03*
X6310300D02*
D03*
X6450000Y2000000D02*
D03*
X6310300D02*
D03*
D86*
X4250000Y439700D02*
D03*
Y300000D02*
D03*
X2075200Y1973700D02*
D03*
Y1834000D02*
D03*
%TF.MD5,176585ea43cd5b828aff38a38e1ee65d*%
M02*
