%TF.GenerationSoftware,Altium Limited,Altium Designer,24.0.1 (36)*%
G04 Layer_Color=65535*
%FSLAX45Y45*%
%MOMM*%
%TF.SameCoordinates,8CF4B923-E39E-4099-A09F-CB558B098684*%
%TF.FilePolarity,Positive*%
%TF.FileFunction,Legend,Top*%
%TF.Part,Single*%
G01*
G75*
%TA.AperFunction,NonConductor*%
%ADD35C,0.10000*%
%ADD36C,0.20000*%
%ADD37C,0.30480*%
%ADD38C,0.25400*%
%ADD39C,0.12700*%
D35*
X680000Y1796415D02*
G03*
X690000Y1796415I5000J0D01*
G01*
D02*
G03*
X680000Y1796415I-5000J0D01*
G01*
X1720000Y980000D02*
G03*
X1720000Y990000I0J5000D01*
G01*
D02*
G03*
X1720000Y980000I0J-5000D01*
G01*
X2538660Y1038000D02*
X2948660D01*
Y1448001D01*
X2538660D02*
X2948660D01*
X2538660Y1038000D02*
Y1448001D01*
D36*
X2733660Y993001D02*
G03*
X2753660Y993001I10000J0D01*
G01*
D02*
G03*
X2733660Y993001I-10000J0D01*
G01*
X2035425Y1673201D02*
G03*
X2035425Y1673201I-10000J0D01*
G01*
X570000Y851415D02*
X630000D01*
X570000Y2141415D02*
X630000D01*
X70000Y851415D02*
X120000D01*
X20000Y1521415D02*
X70000D01*
X20000Y1721415D02*
X70000D01*
X20000Y1521415D02*
Y1721415D01*
Y1796415D01*
X-430000D02*
X20000D01*
X-430000D02*
X-380000Y1751415D01*
X-430000Y1721415D02*
X-380000Y1751415D01*
X-430000Y1721415D02*
X-380000Y1671415D01*
X-430000Y1621415D02*
X-380000Y1671415D01*
X-430000Y1621415D02*
X-380000Y1571415D01*
X-430000Y1521415D02*
X-380000Y1571415D01*
X-430000Y1521415D02*
X-380000Y1491415D01*
X-430000Y1446415D02*
X-380000Y1491415D01*
X-430000Y1446415D02*
X20000D01*
Y1521415D01*
X630000Y851415D02*
Y2141415D01*
X70000D02*
X120000D01*
X70000Y851415D02*
Y2141415D01*
X3288826Y1265001D02*
X3598825D01*
X3288826Y1235001D02*
X3598825D01*
Y1265001D01*
X3288826Y1235001D02*
Y1265001D01*
X3290425Y1052501D02*
Y1216100D01*
X1565000Y1360000D02*
Y1640000D01*
X1875000Y1360000D02*
Y1640000D01*
D37*
X2654300Y647700D02*
X2768600D01*
X2654300Y469900D02*
X2768600D01*
X2844800D02*
X2971800D01*
X2844800Y647700D02*
X2971800D01*
X2654300Y469900D02*
Y647700D01*
X2971800Y469900D02*
Y647700D01*
X3276085Y952500D02*
X3390385D01*
X3276085Y774700D02*
X3390385D01*
X3466585D02*
X3593585D01*
X3466585Y952500D02*
X3593585D01*
X3276085Y774700D02*
Y952500D01*
X3593585Y774700D02*
Y952500D01*
X3670300Y768350D02*
X3848100D01*
X3670300Y450850D02*
X3848100D01*
X3670300Y641350D02*
Y768350D01*
X3848100Y641350D02*
Y768350D01*
Y450850D02*
Y565150D01*
X3670300Y450850D02*
Y565150D01*
X3251200Y622300D02*
X3302000D01*
X3390900Y393700D02*
X3403600D01*
X3492500Y622300D02*
X3543300D01*
X3251200Y508000D02*
Y622300D01*
X3543300Y508000D02*
Y622300D01*
X2999325Y1738301D02*
X3227925D01*
X2999325Y1255701D02*
X3227925D01*
X2999325Y1547801D02*
Y1738301D01*
X3227925Y1547801D02*
Y1738301D01*
Y1255701D02*
Y1446201D01*
X2999325Y1255701D02*
Y1446201D01*
X3748625Y2246301D02*
Y2424101D01*
X4066125Y2246301D02*
Y2424101D01*
X3748625Y2246301D02*
X3875625D01*
X3748625Y2424101D02*
X3875625D01*
X3951825D02*
X4066125D01*
X3951825Y2246301D02*
X4066125D01*
X3649491Y862001D02*
X3878091D01*
X3649491Y1344601D02*
X3878091D01*
Y862001D02*
Y1052501D01*
X3649491Y862001D02*
Y1052501D01*
Y1154101D02*
Y1344601D01*
X3878091Y1154101D02*
Y1344601D01*
X2116675Y1814501D02*
Y1992301D01*
X2434175Y1814501D02*
Y1992301D01*
X2116675Y1814501D02*
X2243675D01*
X2116675Y1992301D02*
X2243675D01*
X2319875D02*
X2434175D01*
X2319875Y1814501D02*
X2434175D01*
X3842631Y1400506D02*
X4071231D01*
X3842631Y1883106D02*
X4071231D01*
Y1400506D02*
Y1591006D01*
X3842631Y1400506D02*
Y1591006D01*
Y1692606D02*
Y1883106D01*
X4071231Y1692606D02*
Y1883106D01*
X3291425Y1738301D02*
X3481925D01*
X3291425Y1509701D02*
X3481925D01*
X3583525D02*
X3774025D01*
X3583525Y1738301D02*
X3774025D01*
X3291425Y1509701D02*
Y1738301D01*
X3774025Y1509701D02*
Y1738301D01*
D38*
X3127000Y2623000D02*
Y2877000D01*
X2873000Y2623000D02*
Y2877000D01*
X4143000D01*
X2873000Y2623000D02*
X4143000D01*
Y2877000D01*
X781000Y2931000D02*
X919000D01*
Y2804000D02*
Y2931000D01*
Y2804000D02*
X1173000D01*
Y2931000D01*
X1427000D01*
Y2804000D02*
X1681000D01*
Y2931000D02*
X1800000D01*
X919000Y2804000D02*
Y2931000D01*
X1173000Y2804000D02*
Y2931000D01*
X1427000Y2804000D02*
Y2931000D01*
X1681000Y2804000D02*
Y2931000D01*
X1800000Y2313500D02*
Y2931000D01*
X781000Y2232500D02*
X1800000D01*
Y2313500D01*
X781000Y2232500D02*
Y2931000D01*
X2311441Y482625D02*
Y634975D01*
X2387617D01*
X2413008Y609583D01*
Y558800D01*
X2387617Y533408D01*
X2311441D01*
X2362225D02*
X2413008Y482625D01*
X2539967D02*
Y634975D01*
X2463792Y558800D01*
X2565359D01*
X2971841Y736625D02*
Y888975D01*
X3048017D01*
X3073408Y863583D01*
Y812800D01*
X3048017Y787408D01*
X2971841D01*
X3022625D02*
X3073408Y736625D01*
X3124192Y863583D02*
X3149584Y888975D01*
X3200367D01*
X3225759Y863583D01*
Y838192D01*
X3200367Y812800D01*
X3174975D01*
X3200367D01*
X3225759Y787408D01*
Y762017D01*
X3200367Y736625D01*
X3149584D01*
X3124192Y762017D01*
X3784608Y355583D02*
X3759217Y380975D01*
X3708433D01*
X3683041Y355583D01*
Y254017D01*
X3708433Y228625D01*
X3759217D01*
X3784608Y254017D01*
X3936959Y380975D02*
X3835392D01*
Y304800D01*
X3886175Y330192D01*
X3911567D01*
X3936959Y304800D01*
Y254017D01*
X3911567Y228625D01*
X3860784D01*
X3835392Y254017D01*
X3403600Y152417D02*
Y253983D01*
X3378208Y279375D01*
X3327425D01*
X3302033Y253983D01*
Y152417D01*
X3327425Y127025D01*
X3378208D01*
X3352817Y177808D02*
X3403600Y127025D01*
X3378208D02*
X3403600Y152417D01*
X3454384Y127025D02*
X3505167D01*
X3479776D01*
Y279375D01*
X3454384Y253983D01*
X1744600Y2032249D02*
Y2184599D01*
X1643033D01*
X1592249D02*
X1541466D01*
X1566857D01*
Y2083032D01*
X1592249D01*
X1465290Y2108424D02*
X1363723D01*
X1312940Y2032249D02*
X1262156D01*
X1287548D01*
Y2184599D01*
X1312940D01*
X1262156D01*
X1160589D02*
X1109806D01*
X1084414Y2159208D01*
Y2108424D01*
X1109806Y2083032D01*
X1160589D01*
X1185981Y2108424D01*
Y2159208D01*
X1160589Y2184599D01*
X1033630D02*
Y2083032D01*
X957455D01*
X932063Y2108424D01*
Y2184599D01*
X180000Y158200D02*
Y310551D01*
X281567Y158200D01*
Y310551D01*
X408526D02*
X357742D01*
X332351Y285159D01*
Y183592D01*
X357742Y158200D01*
X408526D01*
X433918Y183592D01*
Y285159D01*
X408526Y310551D01*
X484701D02*
Y158200D01*
X560877D01*
X586269Y183592D01*
Y285159D01*
X560877Y310551D01*
X484701D01*
X738619D02*
X637052D01*
Y158200D01*
X738619D01*
X637052Y234375D02*
X687836D01*
X789403D02*
X890970D01*
X941754Y310551D02*
Y158200D01*
X1017929D01*
X1043321Y183592D01*
Y208984D01*
X1017929Y234375D01*
X941754D01*
X1017929D01*
X1043321Y259767D01*
Y285159D01*
X1017929Y310551D01*
X941754D01*
X1094104Y158200D02*
Y259767D01*
X1144888Y310551D01*
X1195671Y259767D01*
Y158200D01*
Y234375D01*
X1094104D01*
X1246455Y310551D02*
X1348022D01*
X1297238D01*
Y158200D01*
X1398806Y310551D02*
X1500373D01*
X1449589D01*
Y158200D01*
X1652724Y310551D02*
X1551156D01*
Y158200D01*
X1652724D01*
X1551156Y234375D02*
X1601940D01*
X1703507Y158200D02*
Y310551D01*
X1779682D01*
X1805074Y285159D01*
Y234375D01*
X1779682Y208984D01*
X1703507D01*
X1754291D02*
X1805074Y158200D01*
X1855858Y310551D02*
Y285159D01*
X1906641Y234375D01*
X1957425Y285159D01*
Y310551D01*
X1906641Y234375D02*
Y158200D01*
X2160559Y310551D02*
Y208984D01*
X2211343Y158200D01*
X2262127Y208984D01*
Y310551D01*
X2414477Y158200D02*
X2312910D01*
X2414477Y259767D01*
Y285159D01*
X2389085Y310551D01*
X2338302D01*
X2312910Y285159D01*
X2465261Y158200D02*
Y183592D01*
X2490653D01*
Y158200D01*
X2465261D01*
X2592220D02*
X2643003D01*
X2617611D01*
Y310551D01*
X2592220Y285159D01*
X180000Y589951D02*
Y437600D01*
Y488384D01*
X281567Y589951D01*
X205392Y513775D01*
X281567Y437600D01*
X332351D02*
Y589951D01*
X408526D01*
X433918Y564559D01*
Y513775D01*
X408526Y488384D01*
X332351D01*
X383134D02*
X433918Y437600D01*
X484701D02*
Y539167D01*
X535485Y589951D01*
X586269Y539167D01*
Y437600D01*
Y513775D01*
X484701D01*
X637052Y437600D02*
Y589951D01*
X713227D01*
X738619Y564559D01*
Y513775D01*
X713227Y488384D01*
X637052D01*
X687836D02*
X738619Y437600D01*
X789403D02*
X890970Y539167D01*
X1043321Y564559D02*
X1017929Y589951D01*
X967145D01*
X941754Y564559D01*
Y539167D01*
X967145Y513775D01*
X1017929D01*
X1043321Y488384D01*
Y462992D01*
X1017929Y437600D01*
X967145D01*
X941754Y462992D01*
X1195671Y564559D02*
X1170280Y589951D01*
X1119496D01*
X1094104Y564559D01*
Y462992D01*
X1119496Y437600D01*
X1170280D01*
X1195671Y462992D01*
X1246455Y589951D02*
Y437600D01*
Y513775D01*
X1348022D01*
Y589951D01*
Y437600D01*
X1500373Y589951D02*
X1398806D01*
Y513775D01*
X1449589D01*
X1398806D01*
Y437600D01*
X1495400Y2896183D02*
X1596967D01*
X1546184Y2946967D02*
Y2845400D01*
X995400Y2895400D02*
X1096967D01*
X2228507Y2210719D02*
X2203115Y2236111D01*
X2152332D01*
X2126940Y2210719D01*
Y2109152D01*
X2152332Y2083760D01*
X2203115D01*
X2228507Y2109152D01*
X2279291Y2210719D02*
X2304683Y2236111D01*
X2355466D01*
X2380858Y2210719D01*
Y2185327D01*
X2355466Y2159935D01*
X2330074D01*
X2355466D01*
X2380858Y2134544D01*
Y2109152D01*
X2355466Y2083760D01*
X2304683D01*
X2279291Y2109152D01*
X812800Y1015983D02*
X787408Y1041375D01*
X736625D01*
X711233Y1015983D01*
Y990592D01*
X736625Y965200D01*
X787408D01*
X812800Y939808D01*
Y914417D01*
X787408Y889025D01*
X736625D01*
X711233Y914417D01*
X863584Y889025D02*
X914367D01*
X888976D01*
Y1041375D01*
X863584Y1015983D01*
X3022641Y1193775D02*
Y1066817D01*
X3048033Y1041425D01*
X3098817D01*
X3124208Y1066817D01*
Y1193775D01*
X3276559Y1041425D02*
X3174992D01*
X3276559Y1142992D01*
Y1168383D01*
X3251167Y1193775D01*
X3200384D01*
X3174992Y1168383D01*
X2286493Y1319176D02*
Y1166825D01*
X2388060D01*
X2438844D02*
X2489627D01*
X2464236D01*
Y1319176D01*
X2438844Y1293784D01*
X2758034Y1687484D02*
X2732642Y1712876D01*
X2681858D01*
X2656467Y1687484D01*
Y1585917D01*
X2681858Y1560525D01*
X2732642D01*
X2758034Y1585917D01*
X2884993Y1560525D02*
Y1712876D01*
X2808817Y1636701D01*
X2910385D01*
X3520034Y2411384D02*
X3494642Y2436776D01*
X3443858D01*
X3418467Y2411384D01*
Y2309817D01*
X3443858Y2284425D01*
X3494642D01*
X3520034Y2309817D01*
X3672385Y2284425D02*
X3570817D01*
X3672385Y2385992D01*
Y2411384D01*
X3646993Y2436776D01*
X3596209D01*
X3570817Y2411384D01*
X4013200Y1168383D02*
X3987808Y1193775D01*
X3937025D01*
X3911633Y1168383D01*
Y1066817D01*
X3937025Y1041425D01*
X3987808D01*
X4013200Y1066817D01*
X4063984Y1041425D02*
X4114767D01*
X4089376D01*
Y1193775D01*
X4063984Y1168383D01*
X1727200Y1549375D02*
X1625633D01*
Y1473200D01*
X1676417D01*
X1625633D01*
Y1397025D01*
X1777984D02*
X1828767D01*
X1803376D01*
Y1549375D01*
X1777984Y1523983D01*
X1996058Y1344576D02*
Y1217617D01*
X2021450Y1192225D01*
X2072234D01*
X2097626Y1217617D01*
Y1344576D01*
X2148409Y1192225D02*
X2199193D01*
X2173801D01*
Y1344576D01*
X2148409Y1319184D01*
X3479841Y1803425D02*
Y1955775D01*
X3556017D01*
X3581408Y1930383D01*
Y1879600D01*
X3556017Y1854208D01*
X3479841D01*
X3530625D02*
X3581408Y1803425D01*
X3733759D02*
X3632192D01*
X3733759Y1904992D01*
Y1930383D01*
X3708367Y1955775D01*
X3657584D01*
X3632192Y1930383D01*
X3850258Y1954225D02*
Y2106576D01*
X3926434D01*
X3951826Y2081184D01*
Y2030401D01*
X3926434Y2005009D01*
X3850258D01*
X3901042D02*
X3951826Y1954225D01*
X4002609D02*
X4053393D01*
X4028001D01*
Y2106576D01*
X4002609Y2081184D01*
X1327992Y2466624D02*
X1378775D01*
X1353383D01*
Y2593583D01*
X1378775Y2618975D01*
X1404167D01*
X1429559Y2593583D01*
X1175641Y2618975D02*
X1277208D01*
X1175641Y2517408D01*
Y2492016D01*
X1201033Y2466624D01*
X1251816D01*
X1277208Y2492016D01*
D39*
X2187425Y1416201D02*
X2363426D01*
X2187425Y1730201D02*
X2363426D01*
%TF.MD5,b8ca86c9b358a29ab952f3833ea87b85*%
M02*
