%TF.GenerationSoftware,Altium Limited,Altium Designer,24.0.1 (36)*%
G04 Layer_Physical_Order=1*
G04 Layer_Color=255*
%FSLAX45Y45*%
%MOMM*%
%TF.SameCoordinates,8CF4B923-E39E-4099-A09F-CB558B098684*%
%TF.FilePolarity,Positive*%
%TF.FileFunction,Copper,L1,Top,Signal*%
%TF.Part,Single*%
G01*
G75*
%TA.AperFunction,SMDPad,CuDef*%
G04:AMPARAMS|DCode=10|XSize=0.762mm|YSize=0.762mm|CornerRadius=0.0381mm|HoleSize=0mm|Usage=FLASHONLY|Rotation=0.000|XOffset=0mm|YOffset=0mm|HoleType=Round|Shape=RoundedRectangle|*
%AMROUNDEDRECTD10*
21,1,0.76200,0.68580,0,0,0.0*
21,1,0.68580,0.76200,0,0,0.0*
1,1,0.07620,0.34290,-0.34290*
1,1,0.07620,-0.34290,-0.34290*
1,1,0.07620,-0.34290,0.34290*
1,1,0.07620,0.34290,0.34290*
%
%ADD10ROUNDEDRECTD10*%
G04:AMPARAMS|DCode=11|XSize=0.762mm|YSize=0.762mm|CornerRadius=0.0381mm|HoleSize=0mm|Usage=FLASHONLY|Rotation=90.000|XOffset=0mm|YOffset=0mm|HoleType=Round|Shape=RoundedRectangle|*
%AMROUNDEDRECTD11*
21,1,0.76200,0.68580,0,0,90.0*
21,1,0.68580,0.76200,0,0,90.0*
1,1,0.07620,0.34290,0.34290*
1,1,0.07620,0.34290,-0.34290*
1,1,0.07620,-0.34290,-0.34290*
1,1,0.07620,-0.34290,0.34290*
%
%ADD11ROUNDEDRECTD11*%
%ADD12R,0.91440X0.91440*%
%ADD13R,0.91440X1.27000*%
%ADD14R,3.70000X0.97000*%
G04:AMPARAMS|DCode=15|XSize=0.7mm|YSize=1.3mm|CornerRadius=0.0525mm|HoleSize=0mm|Usage=FLASHONLY|Rotation=180.000|XOffset=0mm|YOffset=0mm|HoleType=Round|Shape=RoundedRectangle|*
%AMROUNDEDRECTD15*
21,1,0.70000,1.19500,0,0,180.0*
21,1,0.59500,1.30000,0,0,180.0*
1,1,0.10500,-0.29750,0.59750*
1,1,0.10500,0.29750,0.59750*
1,1,0.10500,0.29750,-0.59750*
1,1,0.10500,-0.29750,-0.59750*
%
%ADD15ROUNDEDRECTD15*%
G04:AMPARAMS|DCode=16|XSize=1.524mm|YSize=1.27mm|CornerRadius=0.09525mm|HoleSize=0mm|Usage=FLASHONLY|Rotation=90.000|XOffset=0mm|YOffset=0mm|HoleType=Round|Shape=RoundedRectangle|*
%AMROUNDEDRECTD16*
21,1,1.52400,1.07950,0,0,90.0*
21,1,1.33350,1.27000,0,0,90.0*
1,1,0.19050,0.53975,0.66675*
1,1,0.19050,0.53975,-0.66675*
1,1,0.19050,-0.53975,-0.66675*
1,1,0.19050,-0.53975,0.66675*
%
%ADD16ROUNDEDRECTD16*%
G04:AMPARAMS|DCode=17|XSize=1.22mm|YSize=0.6mm|CornerRadius=0.15mm|HoleSize=0mm|Usage=FLASHONLY|Rotation=0.000|XOffset=0mm|YOffset=0mm|HoleType=Round|Shape=RoundedRectangle|*
%AMROUNDEDRECTD17*
21,1,1.22000,0.30000,0,0,0.0*
21,1,0.92000,0.60000,0,0,0.0*
1,1,0.30000,0.46000,-0.15000*
1,1,0.30000,-0.46000,-0.15000*
1,1,0.30000,-0.46000,0.15000*
1,1,0.30000,0.46000,0.15000*
%
%ADD17ROUNDEDRECTD17*%
%ADD18R,2.80000X3.00000*%
G04:AMPARAMS|DCode=19|XSize=1.524mm|YSize=1.27mm|CornerRadius=0.09525mm|HoleSize=0mm|Usage=FLASHONLY|Rotation=0.000|XOffset=0mm|YOffset=0mm|HoleType=Round|Shape=RoundedRectangle|*
%AMROUNDEDRECTD19*
21,1,1.52400,1.07950,0,0,0.0*
21,1,1.33350,1.27000,0,0,0.0*
1,1,0.19050,0.66675,-0.53975*
1,1,0.19050,-0.66675,-0.53975*
1,1,0.19050,-0.66675,0.53975*
1,1,0.19050,0.66675,0.53975*
%
%ADD19ROUNDEDRECTD19*%
%TA.AperFunction,Conductor*%
%ADD20C,0.75000*%
%ADD21C,0.40000*%
%ADD22C,0.70000*%
%ADD23C,0.60000*%
%ADD24C,0.50000*%
%TA.AperFunction,ComponentPad*%
%ADD25R,1.51500X1.51500*%
%ADD26C,1.51500*%
%ADD27C,3.36000*%
%ADD28C,1.85000*%
%ADD29R,1.85000X1.85000*%
%ADD30R,2.15000X2.15000*%
%ADD31C,2.15000*%
%ADD32C,5.00000*%
%TA.AperFunction,ViaPad*%
%ADD33C,1.40000*%
%ADD34C,1.15000*%
G36*
X4099374Y2842319D02*
X4087641Y2837459D01*
X4085077Y2840023D01*
X4059423Y2854833D01*
X4030811Y2862500D01*
X4001189D01*
X3972577Y2854833D01*
X3946924Y2840023D01*
X3925978Y2819077D01*
X3911167Y2793423D01*
X3903500Y2764811D01*
Y2735189D01*
X3911167Y2706577D01*
X3920410Y2690566D01*
X3918599Y2681460D01*
Y2335201D01*
X3918659Y2334898D01*
Y2300911D01*
X3920507Y2291621D01*
X3925770Y2283745D01*
X3933645Y2278482D01*
X3942935Y2276634D01*
X3963696D01*
X4029521Y2210809D01*
Y1859964D01*
X4016821Y1851708D01*
X4010906Y1852884D01*
X3902956D01*
X3891436Y1850593D01*
X3881670Y1844067D01*
X3875144Y1834301D01*
X3872853Y1822781D01*
Y1807086D01*
X3791831D01*
X3772322Y1803205D01*
X3755783Y1792154D01*
X3671708Y1708079D01*
X3580350D01*
X3568831Y1705787D01*
X3559064Y1699262D01*
X3552539Y1689495D01*
X3550247Y1677976D01*
Y1570026D01*
X3552539Y1558506D01*
X3559064Y1548739D01*
X3568831Y1542214D01*
X3580350Y1539922D01*
X3596046D01*
Y1499317D01*
X3552709Y1455980D01*
X3543826D01*
X3541387Y1455495D01*
X3509075D01*
X3499223Y1453536D01*
X3491326Y1448258D01*
X3483428Y1453536D01*
X3473575Y1455495D01*
X3414075D01*
X3404223Y1453536D01*
X3396325Y1448258D01*
X3388428Y1453536D01*
X3378575Y1455495D01*
X3319075D01*
X3309223Y1453536D01*
X3300871Y1447955D01*
X3295290Y1439603D01*
X3294370Y1434977D01*
X3197704D01*
Y1449376D01*
X3195412Y1460895D01*
X3188887Y1470662D01*
X3179120Y1477187D01*
X3167600Y1479479D01*
X3059650D01*
X3048131Y1477187D01*
X3038364Y1470662D01*
X3031839Y1460895D01*
X3029547Y1449376D01*
Y1430477D01*
X2949787D01*
Y1874985D01*
X2957615Y1882814D01*
X2967819Y1900486D01*
X2973100Y1920197D01*
Y1940603D01*
X2967819Y1960314D01*
X2957615Y1977986D01*
X2943186Y1992415D01*
X2925514Y2002619D01*
X2905803Y2007900D01*
X2885397D01*
X2865686Y2002619D01*
X2848014Y1992415D01*
X2833585Y1977986D01*
X2823381Y1960314D01*
X2818100Y1940603D01*
Y1920197D01*
X2823381Y1900486D01*
X2832534Y1884634D01*
Y1512288D01*
X2810061Y1506266D01*
X2789539Y1494418D01*
X2772782Y1477661D01*
X2760934Y1457139D01*
X2754800Y1434249D01*
Y1429501D01*
X2538660D01*
Y1292501D01*
X2948660D01*
Y1313224D01*
X3030104D01*
X3031839Y1304506D01*
X3038364Y1294739D01*
X3048131Y1288214D01*
X3059650Y1285922D01*
X3167600D01*
X3179120Y1288214D01*
X3188887Y1294739D01*
X3195412Y1304506D01*
X3197704Y1316026D01*
Y1317724D01*
X3293331D01*
Y1310251D01*
X3295290Y1300398D01*
X3300871Y1292046D01*
X3309223Y1286466D01*
X3319075Y1284506D01*
X3378575D01*
X3385741Y1285931D01*
X3388690Y1286281D01*
X3399581Y1278644D01*
X3401727Y1267858D01*
X3412778Y1251319D01*
X3431771Y1232326D01*
X3426911Y1220593D01*
X3414075D01*
X3402273Y1218245D01*
X3392267Y1211560D01*
X3391587Y1211424D01*
X3388428Y1213536D01*
X3378575Y1215495D01*
X3319075D01*
X3309223Y1213536D01*
X3300871Y1207955D01*
X3295290Y1199603D01*
X3293331Y1189750D01*
Y1183627D01*
X2948660D01*
Y1193501D01*
X2538660D01*
Y1056501D01*
X2948660D01*
Y1066374D01*
X3060267D01*
X3062131Y1053726D01*
X3040469Y1041219D01*
X3022781Y1023531D01*
X3010274Y1001868D01*
X3007148Y990200D01*
X3190452D01*
X3187326Y1001868D01*
X3174819Y1023531D01*
X3157131Y1041219D01*
X3135469Y1053726D01*
X3137333Y1066374D01*
X3294102D01*
X3295290Y1060398D01*
X3300871Y1052046D01*
X3309223Y1046466D01*
X3319075Y1044506D01*
X3378575D01*
X3388428Y1046466D01*
X3391587Y1048577D01*
X3392267Y1048441D01*
X3402273Y1041756D01*
X3414075Y1039408D01*
X3418826D01*
Y1130001D01*
X3468825D01*
Y1039408D01*
X3473575D01*
X3482748Y1031880D01*
Y922166D01*
X3470395D01*
X3461105Y920318D01*
X3453230Y915056D01*
X3447967Y907180D01*
X3446119Y897890D01*
Y829310D01*
X3447967Y820020D01*
X3453230Y812144D01*
X3461105Y806882D01*
X3470395Y805034D01*
X3482748D01*
Y790913D01*
X3384935Y693100D01*
X3332800D01*
Y526100D01*
X3464240D01*
Y553523D01*
X3532772D01*
X3586197Y500097D01*
X3604390Y487941D01*
X3625850Y483673D01*
X3714661D01*
X3715620Y483032D01*
X3724910Y481184D01*
X3793490D01*
X3802780Y483032D01*
X3810656Y488294D01*
X3815918Y496170D01*
X3817766Y505460D01*
Y574040D01*
X3815918Y583330D01*
X3810656Y591206D01*
X3802780Y596468D01*
X3793490Y598316D01*
X3724910D01*
X3715620Y596468D01*
X3714661Y595827D01*
X3649078D01*
X3595653Y649253D01*
X3577460Y661409D01*
X3556000Y665677D01*
X3532716D01*
X3527856Y677411D01*
X3578478Y728033D01*
X3590634Y746226D01*
X3594903Y767685D01*
Y1130001D01*
X3594320Y1132930D01*
Y1189750D01*
X3604983Y1201240D01*
X3679712D01*
Y1150926D01*
X3682004Y1139406D01*
X3688530Y1129639D01*
X3698296Y1123114D01*
X3709816Y1120822D01*
X3817766D01*
X3829286Y1123114D01*
X3839052Y1129639D01*
X3845578Y1139406D01*
X3847869Y1150926D01*
Y1249083D01*
X3848270Y1251101D01*
Y1334050D01*
X3944948Y1430728D01*
X4010906D01*
X4022426Y1433019D01*
X4032192Y1439545D01*
X4038718Y1449311D01*
X4041009Y1460831D01*
Y1498420D01*
X4045353D01*
X4064862Y1502301D01*
X4081401Y1513352D01*
X4087641Y1519592D01*
X4099374Y1514731D01*
Y750000D01*
Y58627D01*
X58627D01*
Y2941374D01*
X4099374D01*
Y2842319D01*
D02*
G37*
%LPC*%
G36*
X3787000Y2864946D02*
Y2775000D01*
X3876946D01*
X3871493Y2795353D01*
X3856024Y2822147D01*
X3834147Y2844024D01*
X3807353Y2859493D01*
X3787000Y2864946D01*
D02*
G37*
G36*
X3737000D02*
X3716647Y2859493D01*
X3689853Y2844024D01*
X3667977Y2822147D01*
X3652508Y2795353D01*
X3647054Y2775000D01*
X3737000D01*
Y2864946D01*
D02*
G37*
G36*
X3522811Y2862500D02*
X3493189D01*
X3464577Y2854833D01*
X3438924Y2840023D01*
X3417978Y2819077D01*
X3403167Y2793423D01*
X3395500Y2764811D01*
Y2735189D01*
X3403167Y2706577D01*
X3417978Y2680924D01*
X3438924Y2659978D01*
X3464577Y2645167D01*
X3493189Y2637500D01*
X3522811D01*
X3551423Y2645167D01*
X3577077Y2659978D01*
X3598023Y2680924D01*
X3612833Y2706577D01*
X3620500Y2735189D01*
Y2764811D01*
X3612833Y2793423D01*
X3598023Y2819077D01*
X3577077Y2840023D01*
X3551423Y2854833D01*
X3522811Y2862500D01*
D02*
G37*
G36*
X3112500D02*
X2887500D01*
Y2808627D01*
X2343600D01*
X2321165Y2804164D01*
X2302145Y2791455D01*
X2191490Y2680800D01*
X2172551D01*
X2149661Y2674666D01*
X2129139Y2662818D01*
X2112382Y2646061D01*
X2100534Y2625539D01*
X2094400Y2602649D01*
Y2578951D01*
X2100534Y2556061D01*
X2112382Y2535539D01*
X2129139Y2518782D01*
X2149661Y2506934D01*
X2172551Y2500800D01*
X2196249D01*
X2219139Y2506934D01*
X2239661Y2518782D01*
X2256418Y2535539D01*
X2268266Y2556061D01*
X2274400Y2578951D01*
Y2597890D01*
X2367884Y2691374D01*
X2887500D01*
Y2637500D01*
X3112500D01*
Y2862500D01*
D02*
G37*
G36*
X3876946Y2725000D02*
X3787000D01*
Y2635054D01*
X3807353Y2640508D01*
X3834147Y2655977D01*
X3856024Y2677853D01*
X3871493Y2704647D01*
X3876946Y2725000D01*
D02*
G37*
G36*
X3737000D02*
X3647054D01*
X3652508Y2704647D01*
X3667977Y2677853D01*
X3689853Y2655977D01*
X3716647Y2640508D01*
X3737000Y2635054D01*
Y2725000D01*
D02*
G37*
G36*
X1071000Y2680475D02*
Y2575000D01*
X1176475D01*
X1169470Y2601143D01*
X1152026Y2631357D01*
X1127357Y2656026D01*
X1097143Y2673470D01*
X1071000Y2680475D01*
D02*
G37*
G36*
X1021000D02*
X994857Y2673470D01*
X964643Y2656026D01*
X939974Y2631357D01*
X922530Y2601143D01*
X915525Y2575000D01*
X1021000D01*
Y2680475D01*
D02*
G37*
G36*
X1176475Y2525000D02*
X1071000D01*
Y2419525D01*
X1097143Y2426530D01*
X1127357Y2443974D01*
X1152026Y2468643D01*
X1169470Y2498857D01*
X1176475Y2525000D01*
D02*
G37*
G36*
X1021000D02*
X915525D01*
X922530Y2498857D01*
X939974Y2468643D01*
X964643Y2443974D01*
X994857Y2426530D01*
X1021000Y2419525D01*
Y2525000D01*
D02*
G37*
G36*
X371249Y2920000D02*
X328751D01*
X286775Y2913352D01*
X246356Y2900219D01*
X208489Y2880925D01*
X174107Y2855945D01*
X144056Y2825893D01*
X119075Y2791511D01*
X99781Y2753644D01*
X86648Y2713225D01*
X80000Y2671249D01*
Y2628751D01*
X86648Y2586775D01*
X99781Y2546356D01*
X119075Y2508489D01*
X144056Y2474107D01*
X174107Y2444056D01*
X208489Y2419075D01*
X246356Y2399781D01*
X286775Y2386648D01*
X328751Y2380000D01*
X371249D01*
X413225Y2386648D01*
X453644Y2399781D01*
X491511Y2419075D01*
X525893Y2444056D01*
X555945Y2474107D01*
X580925Y2508489D01*
X600219Y2546356D01*
X613352Y2586775D01*
X620000Y2628751D01*
Y2671249D01*
X613352Y2713225D01*
X600219Y2753644D01*
X580925Y2791511D01*
X555945Y2825893D01*
X525893Y2855945D01*
X491511Y2880925D01*
X453644Y2900219D01*
X413225Y2913352D01*
X371249Y2920000D01*
D02*
G37*
G36*
X3871815Y2398865D02*
X3862525D01*
Y2360201D01*
X3901190D01*
Y2369491D01*
X3898954Y2380732D01*
X3892586Y2390261D01*
X3883056Y2396629D01*
X3871815Y2398865D01*
D02*
G37*
G36*
X3812526D02*
X3803235D01*
X3791994Y2396629D01*
X3782465Y2390261D01*
X3776097Y2380732D01*
X3773861Y2369491D01*
Y2360201D01*
X3812526D01*
Y2398865D01*
D02*
G37*
G36*
X3901190Y2310201D02*
X3862525D01*
Y2271536D01*
X3871815D01*
X3883056Y2273772D01*
X3892586Y2280140D01*
X3898954Y2289670D01*
X3901190Y2300911D01*
Y2310201D01*
D02*
G37*
G36*
X3812526D02*
X3773861D01*
Y2300911D01*
X3776097Y2289670D01*
X3782465Y2280140D01*
X3791994Y2273772D01*
X3803235Y2271536D01*
X3812526D01*
Y2310201D01*
D02*
G37*
G36*
X3327000Y2225252D02*
Y2158600D01*
X3393652D01*
X3390526Y2170268D01*
X3378019Y2191931D01*
X3360331Y2209619D01*
X3338668Y2222126D01*
X3327000Y2225252D01*
D02*
G37*
G36*
X3277000D02*
X3265332Y2222126D01*
X3243669Y2209619D01*
X3225981Y2191931D01*
X3213474Y2170268D01*
X3210348Y2158600D01*
X3277000D01*
Y2225252D01*
D02*
G37*
G36*
X375000Y2313223D02*
Y2146415D01*
X541808D01*
X535583Y2177711D01*
X521035Y2212835D01*
X499913Y2244445D01*
X473030Y2271328D01*
X441420Y2292449D01*
X406296Y2306998D01*
X375000Y2313223D01*
D02*
G37*
G36*
X325000Y2313223D02*
X293704Y2306998D01*
X258580Y2292449D01*
X226970Y2271328D01*
X200087Y2244445D01*
X178966Y2212835D01*
X164417Y2177711D01*
X158192Y2146415D01*
X325000D01*
Y2313223D01*
D02*
G37*
G36*
X2006200Y2123652D02*
Y2057000D01*
X2072852D01*
X2069726Y2068668D01*
X2057219Y2090331D01*
X2039531Y2108019D01*
X2017868Y2120526D01*
X2006200Y2123652D01*
D02*
G37*
G36*
X1956200D02*
X1944532Y2120526D01*
X1922869Y2108019D01*
X1905181Y2090331D01*
X1892674Y2068668D01*
X1889548Y2057000D01*
X1956200D01*
Y2123652D01*
D02*
G37*
G36*
X3393652Y2108600D02*
X3327000D01*
Y2041948D01*
X3338668Y2045074D01*
X3360331Y2057581D01*
X3378019Y2075269D01*
X3390526Y2096932D01*
X3393652Y2108600D01*
D02*
G37*
G36*
X3277000D02*
X3210348D01*
X3213474Y2096932D01*
X3225981Y2075269D01*
X3243669Y2057581D01*
X3265332Y2045074D01*
X3277000Y2041948D01*
Y2108600D01*
D02*
G37*
G36*
X2072852Y2007000D02*
X2006200D01*
Y1940348D01*
X2017868Y1943474D01*
X2039531Y1955981D01*
X2057219Y1973669D01*
X2069726Y1995332D01*
X2072852Y2007000D01*
D02*
G37*
G36*
X1956200D02*
X1889548D01*
X1892674Y1995332D01*
X1905181Y1973669D01*
X1922869Y1955981D01*
X1944532Y1943474D01*
X1956200Y1940348D01*
Y2007000D01*
D02*
G37*
G36*
X325000Y2096415D02*
X158192D01*
X164417Y2065119D01*
X178966Y2029995D01*
X200087Y1998385D01*
X226970Y1971502D01*
X258580Y1950380D01*
X293704Y1935832D01*
X325000Y1929607D01*
Y2096415D01*
D02*
G37*
G36*
X541808D02*
X375000D01*
Y1929607D01*
X406296Y1935832D01*
X441420Y1950380D01*
X473030Y1971502D01*
X499913Y1998385D01*
X521035Y2029995D01*
X535583Y2065119D01*
X541808Y2096415D01*
D02*
G37*
G36*
X2239865Y1967065D02*
X2230575D01*
Y1928401D01*
X2269240D01*
Y1937691D01*
X2267004Y1948932D01*
X2260636Y1958461D01*
X2251106Y1964829D01*
X2239865Y1967065D01*
D02*
G37*
G36*
X2180576D02*
X2171285D01*
X2160044Y1964829D01*
X2150515Y1958461D01*
X2144147Y1948932D01*
X2141911Y1937691D01*
Y1928401D01*
X2180576D01*
Y1967065D01*
D02*
G37*
G36*
X2269240Y1878401D02*
X2230575D01*
Y1839736D01*
X2239865D01*
X2251106Y1841972D01*
X2260636Y1848340D01*
X2267004Y1857870D01*
X2269240Y1869111D01*
Y1878401D01*
D02*
G37*
G36*
X2180576D02*
X2141911D01*
Y1869111D01*
X2144147Y1857870D01*
X2150515Y1848340D01*
X2160044Y1841972D01*
X2171285Y1839736D01*
X2180576D01*
Y1878401D01*
D02*
G37*
G36*
X3268811Y2862500D02*
X3239189D01*
X3210577Y2854833D01*
X3184924Y2840023D01*
X3163978Y2819077D01*
X3149167Y2793423D01*
X3141500Y2764811D01*
Y2735189D01*
X3149167Y2706577D01*
X3163978Y2680924D01*
X3184924Y2659978D01*
X3195374Y2653944D01*
Y2560218D01*
X2597183Y1962027D01*
X2345275D01*
X2344973Y1961967D01*
X2310985D01*
X2301695Y1960119D01*
X2293820Y1954856D01*
X2288557Y1946981D01*
X2286709Y1937691D01*
Y1903703D01*
X2286649Y1903401D01*
X2286709Y1903098D01*
Y1869111D01*
X2288557Y1859821D01*
X2293820Y1851945D01*
X2301695Y1846682D01*
X2304492Y1846126D01*
Y1769526D01*
X2304492Y1769525D01*
X2307596Y1753917D01*
X2316437Y1740686D01*
X2331523Y1725600D01*
X2329913Y1709250D01*
X2329515Y1708984D01*
X2221336D01*
X2210582Y1716170D01*
X2196926Y1718886D01*
X2104926D01*
X2091269Y1716170D01*
X2079692Y1708434D01*
X2071956Y1696857D01*
X2069240Y1683201D01*
Y1653201D01*
X2071956Y1639544D01*
X2079692Y1627967D01*
X2075192Y1615699D01*
X2067247Y1603808D01*
X2066131Y1598201D01*
X2235720D01*
X2234605Y1603808D01*
X2227315Y1614717D01*
X2230000Y1623164D01*
X2232941Y1627417D01*
X2329515D01*
X2340269Y1620231D01*
X2353925Y1617515D01*
X2359142D01*
Y1528886D01*
X2353925D01*
X2340269Y1526170D01*
X2328692Y1518434D01*
X2320956Y1506857D01*
X2318240Y1493200D01*
Y1463201D01*
X2320956Y1449544D01*
X2328692Y1437967D01*
X2340269Y1430231D01*
X2353925Y1427515D01*
X2359142D01*
Y800476D01*
X2359142Y800475D01*
X2362246Y784867D01*
X2371087Y771636D01*
X2612761Y529962D01*
X2612762Y529962D01*
X2625993Y521121D01*
X2641600Y518016D01*
X2641601Y518016D01*
X2685925D01*
X2686482Y515220D01*
X2691744Y507344D01*
X2699620Y502082D01*
X2708910Y500234D01*
X2777490D01*
X2786780Y502082D01*
X2794656Y507344D01*
X2799918Y515220D01*
X2801766Y524510D01*
Y593090D01*
X2799918Y602380D01*
X2794656Y610256D01*
X2786780Y615518D01*
X2777490Y617366D01*
X2708910D01*
X2699620Y615518D01*
X2691744Y610256D01*
X2686482Y602380D01*
X2685925Y599584D01*
X2658493D01*
X2440709Y817368D01*
Y1427515D01*
X2445925D01*
X2459582Y1430231D01*
X2471159Y1437967D01*
X2478894Y1449544D01*
X2481611Y1463201D01*
Y1493200D01*
X2478894Y1506857D01*
X2471159Y1518434D01*
X2459582Y1526170D01*
X2445925Y1528886D01*
X2440709D01*
Y1617515D01*
X2445925D01*
X2459582Y1620231D01*
X2471159Y1627967D01*
X2478894Y1639544D01*
X2481611Y1653201D01*
Y1683201D01*
X2478894Y1696857D01*
X2471159Y1708434D01*
X2459582Y1716170D01*
X2445925Y1718886D01*
X2428384D01*
Y1727200D01*
X2425279Y1742807D01*
X2416438Y1756038D01*
X2416438Y1756039D01*
X2386059Y1786418D01*
Y1844774D01*
X2621466D01*
X2643902Y1849237D01*
X2662922Y1861945D01*
X3295455Y2494479D01*
X3308164Y2513499D01*
X3312627Y2535934D01*
Y2653944D01*
X3323077Y2659978D01*
X3344023Y2680924D01*
X3358833Y2706577D01*
X3366500Y2735189D01*
Y2764811D01*
X3358833Y2793423D01*
X3344023Y2819077D01*
X3323077Y2840023D01*
X3297423Y2854833D01*
X3268811Y2862500D01*
D02*
G37*
G36*
X445750Y1892165D02*
X254250D01*
Y1700665D01*
X445750D01*
Y1892165D01*
D02*
G37*
G36*
X1681500Y2677500D02*
X1426500D01*
Y2422500D01*
X1598589D01*
X1661374Y2359716D01*
Y1995000D01*
X1560000D01*
Y1655000D01*
X1880000D01*
Y1995000D01*
X1778627D01*
Y2384000D01*
X1774164Y2406435D01*
X1761455Y2425455D01*
X1681500Y2505411D01*
Y2677500D01*
D02*
G37*
G36*
X3485100Y1713177D02*
X3443425D01*
Y1649001D01*
X3520302D01*
Y1677976D01*
X3517622Y1691446D01*
X3509992Y1702867D01*
X3498571Y1710497D01*
X3485100Y1713177D01*
D02*
G37*
G36*
X3393426D02*
X3351750D01*
X3338280Y1710497D01*
X3326859Y1702867D01*
X3319229Y1691446D01*
X3316549Y1677976D01*
Y1649001D01*
X3393426D01*
Y1713177D01*
D02*
G37*
G36*
X3167600D02*
X3138625D01*
Y1636301D01*
X3202802D01*
Y1677976D01*
X3200122Y1691446D01*
X3192492Y1702867D01*
X3181071Y1710497D01*
X3167600Y1713177D01*
D02*
G37*
G36*
X3088626D02*
X3059650D01*
X3046180Y1710497D01*
X3034759Y1702867D01*
X3027129Y1691446D01*
X3024449Y1677976D01*
Y1636301D01*
X3088626D01*
Y1713177D01*
D02*
G37*
G36*
X3520302Y1599001D02*
X3443425D01*
Y1534824D01*
X3485100D01*
X3498571Y1537504D01*
X3509992Y1545134D01*
X3517622Y1556555D01*
X3520302Y1570026D01*
Y1599001D01*
D02*
G37*
G36*
X3393426D02*
X3316549D01*
Y1570026D01*
X3319229Y1556555D01*
X3326859Y1545134D01*
X3338280Y1537504D01*
X3351750Y1534824D01*
X3393426D01*
Y1599001D01*
D02*
G37*
G36*
X3202802Y1586301D02*
X3138625D01*
Y1509424D01*
X3167600D01*
X3181071Y1512104D01*
X3192492Y1519734D01*
X3200122Y1531155D01*
X3202802Y1544626D01*
Y1586301D01*
D02*
G37*
G36*
X3088626D02*
X3024449D01*
Y1544626D01*
X3027129Y1531155D01*
X3034759Y1519734D01*
X3046180Y1512104D01*
X3059650Y1509424D01*
X3088626D01*
Y1586301D01*
D02*
G37*
G36*
X362606Y1292165D02*
X337394D01*
X313042Y1285639D01*
X291208Y1273034D01*
X273381Y1255207D01*
X260775Y1233373D01*
X254250Y1209020D01*
Y1183809D01*
X260775Y1159457D01*
X273381Y1137623D01*
X291208Y1119796D01*
X313042Y1107190D01*
X337394Y1100665D01*
X362606D01*
X386958Y1107190D01*
X408792Y1119796D01*
X426619Y1137623D01*
X439225Y1159457D01*
X445750Y1183809D01*
Y1209020D01*
X439225Y1233373D01*
X426619Y1255207D01*
X408792Y1273034D01*
X386958Y1285639D01*
X362606Y1292165D01*
D02*
G37*
G36*
X3817766Y1090877D02*
X3788791D01*
Y1014001D01*
X3852967D01*
Y1055676D01*
X3850288Y1069146D01*
X3842657Y1080567D01*
X3831237Y1088197D01*
X3817766Y1090877D01*
D02*
G37*
G36*
X3738791D02*
X3709816D01*
X3696345Y1088197D01*
X3684925Y1080567D01*
X3677294Y1069146D01*
X3674614Y1055676D01*
Y1014001D01*
X3738791D01*
Y1090877D01*
D02*
G37*
G36*
X362606Y1592165D02*
X337394D01*
X313042Y1585639D01*
X291208Y1573034D01*
X273381Y1555207D01*
X260775Y1533373D01*
X254250Y1509021D01*
Y1483809D01*
X260775Y1459457D01*
X273381Y1437623D01*
X291208Y1419796D01*
X313042Y1407190D01*
X337394Y1400665D01*
X362606D01*
X386958Y1407190D01*
X408792Y1419796D01*
X426619Y1437623D01*
X426715Y1437788D01*
X663701D01*
X967945Y1133545D01*
X986965Y1120836D01*
X1009400Y1116373D01*
X1560000D01*
Y1005000D01*
X1880000D01*
Y1244020D01*
X1936725D01*
X1956234Y1247901D01*
X1972773Y1258952D01*
X2141042Y1427221D01*
X2150926D01*
X2152403Y1427515D01*
X2196926D01*
X2210582Y1430231D01*
X2222159Y1437967D01*
X2229895Y1449544D01*
X2232611Y1463201D01*
Y1493200D01*
X2229895Y1506857D01*
X2222159Y1518434D01*
X2226659Y1530702D01*
X2234605Y1542593D01*
X2235720Y1548201D01*
X2066131D01*
X2067247Y1542593D01*
X2075192Y1530702D01*
X2079692Y1518434D01*
X2071956Y1506857D01*
X2070832Y1501203D01*
X1915609Y1345980D01*
X1830000D01*
X1825075Y1345000D01*
X1560000D01*
Y1233626D01*
X1033684D01*
X729440Y1537870D01*
X710420Y1550579D01*
X687985Y1555041D01*
X426715D01*
X426619Y1555207D01*
X408792Y1573034D01*
X386958Y1585639D01*
X362606Y1592165D01*
D02*
G37*
G36*
X375000Y1063223D02*
Y896415D01*
X541808D01*
X535583Y927711D01*
X521035Y962834D01*
X499913Y994445D01*
X473030Y1021328D01*
X441420Y1042449D01*
X406296Y1056998D01*
X375000Y1063223D01*
D02*
G37*
G36*
X325000D02*
X293704Y1056998D01*
X258580Y1042449D01*
X226970Y1021328D01*
X200087Y994445D01*
X178966Y962834D01*
X164417Y927711D01*
X158192Y896415D01*
X325000D01*
Y1063223D01*
D02*
G37*
G36*
X3852967Y964001D02*
X3788791D01*
Y887124D01*
X3817766D01*
X3831237Y889804D01*
X3842657Y897434D01*
X3850288Y908855D01*
X3852967Y922326D01*
Y964001D01*
D02*
G37*
G36*
X3738791D02*
X3674614D01*
Y922326D01*
X3677294Y908855D01*
X3684925Y897434D01*
X3696345Y889804D01*
X3709816Y887124D01*
X3738791D01*
Y964001D01*
D02*
G37*
G36*
X3190452Y940200D02*
X3007148D01*
X3010274Y928532D01*
X3022781Y906869D01*
X3040469Y889181D01*
X3049224Y884127D01*
X3045821Y871427D01*
X2913452D01*
X2900061Y884818D01*
X2879539Y896666D01*
X2856649Y902800D01*
X2832951D01*
X2810061Y896666D01*
X2789539Y884818D01*
X2772782Y868061D01*
X2760934Y847539D01*
X2754800Y824649D01*
Y800951D01*
X2760934Y778061D01*
X2772782Y757539D01*
X2789539Y740782D01*
X2810061Y728934D01*
X2832951Y722800D01*
X2856649D01*
X2879539Y728934D01*
X2900061Y740782D01*
X2913452Y754173D01*
X3314185D01*
X3336621Y758636D01*
X3355640Y771345D01*
X3389330Y805034D01*
X3399275D01*
X3408565Y806882D01*
X3416441Y812144D01*
X3421704Y820020D01*
X3423552Y829310D01*
Y863297D01*
X3423612Y863600D01*
X3423552Y863903D01*
Y897890D01*
X3421704Y907180D01*
X3416441Y915056D01*
X3408565Y920318D01*
X3399275Y922166D01*
X3365288D01*
X3364985Y922227D01*
X3364683Y922166D01*
X3330695D01*
X3321405Y920318D01*
X3313530Y915056D01*
X3308267Y907180D01*
X3306419Y897890D01*
Y887944D01*
X3289902Y871427D01*
X3151779D01*
X3148376Y884127D01*
X3157131Y889181D01*
X3174819Y906869D01*
X3187326Y928532D01*
X3190452Y940200D01*
D02*
G37*
G36*
X3793490Y743114D02*
X3784200D01*
Y704450D01*
X3822864D01*
Y713740D01*
X3820628Y724981D01*
X3814261Y734511D01*
X3804731Y740878D01*
X3793490Y743114D01*
D02*
G37*
G36*
X3734200D02*
X3724910D01*
X3713669Y740878D01*
X3704139Y734511D01*
X3697772Y724981D01*
X3695536Y713740D01*
Y704450D01*
X3734200D01*
Y743114D01*
D02*
G37*
G36*
X541808Y846415D02*
X375000D01*
Y679607D01*
X406296Y685832D01*
X441420Y700380D01*
X473030Y721502D01*
X499913Y748385D01*
X521035Y779995D01*
X535583Y815119D01*
X541808Y846415D01*
D02*
G37*
G36*
X325000D02*
X158192D01*
X164417Y815119D01*
X178966Y779995D01*
X200087Y748385D01*
X226970Y721502D01*
X258580Y700380D01*
X293704Y685832D01*
X325000Y679607D01*
Y846415D01*
D02*
G37*
G36*
X3822864Y654450D02*
X3784200D01*
Y615786D01*
X3793490D01*
X3804731Y618022D01*
X3814261Y624389D01*
X3820628Y633919D01*
X3822864Y645160D01*
Y654450D01*
D02*
G37*
G36*
X3734200D02*
X3695536D01*
Y645160D01*
X3697772Y633919D01*
X3704139Y624389D01*
X3713669Y618022D01*
X3724910Y615786D01*
X3734200D01*
Y654450D01*
D02*
G37*
G36*
X3563220Y477120D02*
X3517500D01*
Y431400D01*
X3563220D01*
Y477120D01*
D02*
G37*
G36*
X3467500D02*
X3421780D01*
Y431400D01*
X3467500D01*
Y477120D01*
D02*
G37*
G36*
X2917190Y617366D02*
X2848610D01*
X2839320Y615518D01*
X2831444Y610256D01*
X2826182Y602380D01*
X2824334Y593090D01*
Y524510D01*
X2826182Y515220D01*
X2831444Y507344D01*
X2839320Y502082D01*
X2848610Y500234D01*
X2862161D01*
X2995647Y366747D01*
X3013840Y354591D01*
X3035300Y350323D01*
X3050236D01*
X3053639Y337623D01*
X3040469Y330019D01*
X3022781Y312331D01*
X3010274Y290668D01*
X3007148Y279000D01*
X3190452D01*
X3187326Y290668D01*
X3174819Y312331D01*
X3157131Y330019D01*
X3143961Y337623D01*
X3147364Y350323D01*
X3236280D01*
Y340680D01*
X3367720D01*
Y472120D01*
X3236280D01*
Y462477D01*
X3058528D01*
X2941466Y579539D01*
Y593090D01*
X2939618Y602380D01*
X2934356Y610256D01*
X2926480Y615518D01*
X2917190Y617366D01*
D02*
G37*
G36*
X3563220Y381400D02*
X3517500D01*
Y335680D01*
X3563220D01*
Y381400D01*
D02*
G37*
G36*
X3467500D02*
X3421780D01*
Y335680D01*
X3467500D01*
Y381400D01*
D02*
G37*
G36*
X3190452Y229000D02*
X3123800D01*
Y162348D01*
X3135468Y165474D01*
X3157131Y177981D01*
X3174819Y195669D01*
X3187326Y217332D01*
X3190452Y229000D01*
D02*
G37*
G36*
X3073800D02*
X3007148D01*
X3010274Y217332D01*
X3022781Y195669D01*
X3040469Y177981D01*
X3062132Y165474D01*
X3073800Y162348D01*
Y229000D01*
D02*
G37*
%LPD*%
D10*
X2743200Y558800D02*
D03*
X2882900D02*
D03*
X3364985Y863600D02*
D03*
X3504685D02*
D03*
X3837525Y2335201D02*
D03*
X3977225D02*
D03*
X2205575Y1903401D02*
D03*
X2345275D02*
D03*
D11*
X3759200Y679450D02*
D03*
Y539750D02*
D03*
D12*
X3302000Y406400D02*
D03*
X3492500D02*
D03*
D13*
X3398520Y609600D02*
D03*
D14*
X2743660Y1361001D02*
D03*
Y1125001D02*
D03*
D15*
X3348825Y1370001D02*
D03*
X3538825D02*
D03*
Y1130001D02*
D03*
X3443825D02*
D03*
X3348825D02*
D03*
X3443825Y1370001D02*
D03*
D16*
X3113625Y1611301D02*
D03*
Y1382701D02*
D03*
X3763791Y989001D02*
D03*
Y1217601D02*
D03*
X3956931Y1527506D02*
D03*
Y1756106D02*
D03*
D17*
X2399925Y1668201D02*
D03*
Y1478200D02*
D03*
X2150926D02*
D03*
Y1573201D02*
D03*
Y1668201D02*
D03*
D18*
X1720000Y1175000D02*
D03*
Y1825000D02*
D03*
D19*
X3418425Y1624001D02*
D03*
X3647025D02*
D03*
D20*
X3314185Y812800D02*
X3364985Y863600D01*
X2844800Y812800D02*
X3314185D01*
X2891160Y1371851D02*
X3102776D01*
X2891160Y1422400D02*
Y1925960D01*
X2844800Y1422400D02*
X2891160D01*
Y1925960D02*
X2895600Y1930400D01*
X2184400Y2590800D02*
X2343600Y2750000D01*
X3000000D01*
X2345275Y1903401D02*
X2621466D01*
X1009400Y1175000D02*
X1720000D01*
X350000Y1496415D02*
X687985D01*
X1009400Y1175000D01*
X2743660Y1125001D02*
X3346326D01*
X3348825Y1127500D01*
Y1130001D01*
X3107275Y1376351D02*
X3346326D01*
X3348825Y1373851D01*
Y1370001D02*
Y1373851D01*
X3102776Y1371851D02*
X3107275Y1376351D01*
X4016000Y2720234D02*
Y2750000D01*
X3977225Y2335201D02*
Y2681460D01*
X4016000Y2720234D01*
X3254000Y2535934D02*
Y2750000D01*
X2621466Y1903401D02*
X3254000Y2535934D01*
X1554000Y2550000D02*
X1720000Y2384000D01*
Y1825000D02*
Y2384000D01*
D21*
X2641600Y558800D02*
X2743200D01*
X2399925Y800475D02*
X2641600Y558800D01*
X2399925Y800475D02*
Y1478200D01*
X2150926Y1668201D02*
X2397600D01*
X2345275Y1769525D02*
Y1903401D01*
Y1769525D02*
X2387600Y1727200D01*
X2397600Y1668201D02*
X2399925D01*
X2387600Y1678201D02*
X2397600Y1668201D01*
X2387600Y1678201D02*
Y1727200D01*
X2399925Y1478200D02*
Y1668201D01*
D22*
X3035300Y406400D02*
X3302000D01*
X2882900Y558800D02*
X3035300Y406400D01*
X3398520Y609600D02*
X3556000D01*
X3625850Y539750D02*
X3759200D01*
X3556000Y609600D02*
X3625850Y539750D01*
X3398520Y609600D02*
Y627380D01*
X3538825Y767685D02*
Y1130001D01*
X3398520Y627380D02*
X3538825Y767685D01*
D23*
X3448826Y1287367D02*
X3483973Y1252220D01*
X3730291D01*
X3448826Y1287367D02*
Y1365000D01*
X4080500Y1584547D02*
Y2231926D01*
X3977225Y2335201D02*
X4080500Y2231926D01*
X3978825Y1549400D02*
X4045353D01*
X4080500Y1584547D01*
X3956931Y1527506D02*
X3978825Y1549400D01*
X3659725Y1624001D02*
X3791831Y1756106D01*
X3956931D01*
X3647025Y1624001D02*
X3659725D01*
X3797291Y1251101D02*
Y1355166D01*
X3956931Y1514806D02*
Y1527506D01*
X3797291Y1355166D02*
X3956931Y1514806D01*
X3763791Y1217601D02*
X3797291Y1251101D01*
X3763791Y1217601D02*
Y1218720D01*
X3730291Y1252220D02*
X3763791Y1218720D01*
X3443825Y1370001D02*
X3448826Y1365000D01*
X3538825Y1370001D02*
Y1400001D01*
X3647025Y1478201D02*
Y1624001D01*
X3573825Y1405001D02*
X3647025Y1478201D01*
X3543826Y1405001D02*
X3573825D01*
X3538825Y1400001D02*
X3543826Y1405001D01*
X1830000Y1295000D02*
X1936725D01*
X2119925Y1478200D02*
X2150926D01*
X1936725Y1295000D02*
X2119925Y1478200D01*
X1720000Y1185000D02*
X1830000Y1295000D01*
X1720000Y1175000D02*
Y1185000D01*
D24*
X1554000Y2550000D02*
X1604000Y2600000D01*
D25*
X350000Y1796415D02*
D03*
D26*
Y1496415D02*
D03*
Y1196415D02*
D03*
D27*
Y2121415D02*
D03*
Y871415D02*
D03*
D28*
X4016000Y2750000D02*
D03*
X3254000D02*
D03*
X3508000D02*
D03*
X3762000D02*
D03*
D29*
X3000000D02*
D03*
D30*
X1554000Y2550000D02*
D03*
D31*
X1046000D02*
D03*
D32*
X350000Y2650000D02*
D03*
D33*
X3098800Y254000D02*
D03*
X2844800Y812800D02*
D03*
Y1422400D02*
D03*
X2184400Y2590800D02*
D03*
X1981200Y2032000D02*
D03*
X3098800Y965200D02*
D03*
X3302000Y2133600D02*
D03*
D34*
X2895600Y1930400D02*
D03*
%TF.MD5,348a68371462e3f88d24a2da3c121b7f*%
M02*
