%TF.GenerationSoftware,Altium Limited,Altium Designer,24.0.1 (36)*%
G04 Layer_Color=8388736*
%FSLAX45Y45*%
%MOMM*%
%TF.SameCoordinates,8CF4B923-E39E-4099-A09F-CB558B098684*%
%TF.FilePolarity,Negative*%
%TF.FileFunction,Soldermask,Top*%
%TF.Part,Single*%
G01*
G75*
%TA.AperFunction,SMDPad,CuDef*%
G04:AMPARAMS|DCode=40|XSize=0.862mm|YSize=0.862mm|CornerRadius=0.0881mm|HoleSize=0mm|Usage=FLASHONLY|Rotation=0.000|XOffset=0mm|YOffset=0mm|HoleType=Round|Shape=RoundedRectangle|*
%AMROUNDEDRECTD40*
21,1,0.86200,0.68580,0,0,0.0*
21,1,0.68580,0.86200,0,0,0.0*
1,1,0.17620,0.34290,-0.34290*
1,1,0.17620,-0.34290,-0.34290*
1,1,0.17620,-0.34290,0.34290*
1,1,0.17620,0.34290,0.34290*
%
%ADD40ROUNDEDRECTD40*%
G04:AMPARAMS|DCode=41|XSize=0.862mm|YSize=0.862mm|CornerRadius=0.0881mm|HoleSize=0mm|Usage=FLASHONLY|Rotation=90.000|XOffset=0mm|YOffset=0mm|HoleType=Round|Shape=RoundedRectangle|*
%AMROUNDEDRECTD41*
21,1,0.86200,0.68580,0,0,90.0*
21,1,0.68580,0.86200,0,0,90.0*
1,1,0.17620,0.34290,0.34290*
1,1,0.17620,0.34290,-0.34290*
1,1,0.17620,-0.34290,-0.34290*
1,1,0.17620,-0.34290,0.34290*
%
%ADD41ROUNDEDRECTD41*%
%ADD42R,1.11760X1.11760*%
%ADD43R,1.11760X1.47320*%
%ADD44R,3.90320X1.17320*%
G04:AMPARAMS|DCode=45|XSize=0.8mm|YSize=1.4mm|CornerRadius=0.1025mm|HoleSize=0mm|Usage=FLASHONLY|Rotation=180.000|XOffset=0mm|YOffset=0mm|HoleType=Round|Shape=RoundedRectangle|*
%AMROUNDEDRECTD45*
21,1,0.80000,1.19500,0,0,180.0*
21,1,0.59500,1.40000,0,0,180.0*
1,1,0.20500,-0.29750,0.59750*
1,1,0.20500,0.29750,0.59750*
1,1,0.20500,0.29750,-0.59750*
1,1,0.20500,-0.29750,-0.59750*
%
%ADD45ROUNDEDRECTD45*%
G04:AMPARAMS|DCode=46|XSize=1.624mm|YSize=1.37mm|CornerRadius=0.14525mm|HoleSize=0mm|Usage=FLASHONLY|Rotation=90.000|XOffset=0mm|YOffset=0mm|HoleType=Round|Shape=RoundedRectangle|*
%AMROUNDEDRECTD46*
21,1,1.62400,1.07950,0,0,90.0*
21,1,1.33350,1.37000,0,0,90.0*
1,1,0.29050,0.53975,0.66675*
1,1,0.29050,0.53975,-0.66675*
1,1,0.29050,-0.53975,-0.66675*
1,1,0.29050,-0.53975,0.66675*
%
%ADD46ROUNDEDRECTD46*%
G04:AMPARAMS|DCode=47|XSize=1.4232mm|YSize=0.8032mm|CornerRadius=0.2516mm|HoleSize=0mm|Usage=FLASHONLY|Rotation=0.000|XOffset=0mm|YOffset=0mm|HoleType=Round|Shape=RoundedRectangle|*
%AMROUNDEDRECTD47*
21,1,1.42320,0.30000,0,0,0.0*
21,1,0.92000,0.80320,0,0,0.0*
1,1,0.50320,0.46000,-0.15000*
1,1,0.50320,-0.46000,-0.15000*
1,1,0.50320,-0.46000,0.15000*
1,1,0.50320,0.46000,0.15000*
%
%ADD47ROUNDEDRECTD47*%
%ADD48R,3.00320X3.20320*%
G04:AMPARAMS|DCode=49|XSize=1.624mm|YSize=1.37mm|CornerRadius=0.14525mm|HoleSize=0mm|Usage=FLASHONLY|Rotation=0.000|XOffset=0mm|YOffset=0mm|HoleType=Round|Shape=RoundedRectangle|*
%AMROUNDEDRECTD49*
21,1,1.62400,1.07950,0,0,0.0*
21,1,1.33350,1.37000,0,0,0.0*
1,1,0.29050,0.66675,-0.53975*
1,1,0.29050,-0.66675,-0.53975*
1,1,0.29050,-0.66675,0.53975*
1,1,0.29050,0.66675,0.53975*
%
%ADD49ROUNDEDRECTD49*%
%TA.AperFunction,ComponentPad*%
%ADD50R,1.71820X1.71820*%
%ADD51C,1.71820*%
%ADD52C,3.56320*%
%ADD53C,2.05320*%
%ADD54R,2.05320X2.05320*%
%ADD55R,2.35320X2.35320*%
%ADD56C,2.35320*%
%ADD57C,5.20320*%
%TA.AperFunction,ViaPad*%
%ADD58C,1.60320*%
%ADD59C,1.35320*%
D40*
X2743200Y558800D02*
D03*
X2882900D02*
D03*
X3364985Y863600D02*
D03*
X3504685D02*
D03*
X3837525Y2335201D02*
D03*
X3977225D02*
D03*
X2205575Y1903401D02*
D03*
X2345275D02*
D03*
D41*
X3759200Y679450D02*
D03*
Y539750D02*
D03*
D42*
X3302000Y406400D02*
D03*
X3492500D02*
D03*
D43*
X3398520Y609600D02*
D03*
D44*
X2743660Y1361001D02*
D03*
Y1125001D02*
D03*
D45*
X3348825Y1370001D02*
D03*
X3538825D02*
D03*
Y1130001D02*
D03*
X3443825D02*
D03*
X3348825D02*
D03*
X3443825Y1370001D02*
D03*
D46*
X3113625Y1611301D02*
D03*
Y1382701D02*
D03*
X3763791Y989001D02*
D03*
Y1217601D02*
D03*
X3956931Y1527506D02*
D03*
Y1756106D02*
D03*
D47*
X2399925Y1668201D02*
D03*
Y1478200D02*
D03*
X2150926D02*
D03*
Y1573201D02*
D03*
Y1668201D02*
D03*
D48*
X1720000Y1175000D02*
D03*
Y1825000D02*
D03*
D49*
X3418425Y1624001D02*
D03*
X3647025D02*
D03*
D50*
X350000Y1796415D02*
D03*
D51*
Y1496415D02*
D03*
Y1196415D02*
D03*
D52*
Y2121415D02*
D03*
Y871415D02*
D03*
D53*
X4016000Y2750000D02*
D03*
X3254000D02*
D03*
X3508000D02*
D03*
X3762000D02*
D03*
D54*
X3000000D02*
D03*
D55*
X1554000Y2550000D02*
D03*
D56*
X1046000D02*
D03*
D57*
X350000Y2650000D02*
D03*
D58*
X3098800Y254000D02*
D03*
X2844800Y812800D02*
D03*
Y1422400D02*
D03*
X2184400Y2590800D02*
D03*
X1981200Y2032000D02*
D03*
X3098800Y965200D02*
D03*
X3302000Y2133600D02*
D03*
D59*
X2895600Y1930400D02*
D03*
%TF.MD5,71b71566e32428b698695a473ce75df9*%
M02*
