%TF.GenerationSoftware,Altium Limited,Altium Designer,24.0.1 (36)*%
G04 Layer_Color=128*
%FSLAX45Y45*%
%MOMM*%
%TF.SameCoordinates,8CF4B923-E39E-4099-A09F-CB558B098684*%
%TF.FilePolarity,Positive*%
%TF.FileFunction,Drillmap*%
%TF.Part,Single*%
G01*
G75*
%TA.AperFunction,NonConductor*%
%ADD39C,0.12700*%
D39*
X299500Y1796415D02*
X400500D01*
X350000Y1745915D02*
Y1846915D01*
X299500Y1496415D02*
X400500D01*
X350000Y1445915D02*
Y1546915D01*
X299500Y1196415D02*
X400500D01*
X350000Y1145915D02*
Y1246915D01*
X238000Y2121415D02*
X462000D01*
X350000Y2009415D02*
Y2233415D01*
X238000Y871415D02*
X462000D01*
X350000Y759415D02*
Y983415D01*
X3973500Y2750000D02*
X4058500D01*
X4016000Y2707500D02*
Y2792500D01*
X2957500Y2750000D02*
X3042500D01*
X3000000Y2707500D02*
Y2792500D01*
X3211500Y2750000D02*
X3296500D01*
X3254000Y2707500D02*
Y2792500D01*
X3465500Y2750000D02*
X3550500D01*
X3508000Y2707500D02*
Y2792500D01*
X3719500Y2750000D02*
X3804500D01*
X3762000Y2707500D02*
Y2792500D01*
X1496500Y2550000D02*
X1611500D01*
X1554000Y2492500D02*
Y2607500D01*
X988500Y2550000D02*
X1103500D01*
X1046000Y2492500D02*
Y2607500D01*
X192500Y2650000D02*
X507500D01*
X350000Y2492500D02*
Y2807500D01*
X3053800Y254000D02*
X3143800D01*
X3098800Y209000D02*
Y299000D01*
X2799800Y812800D02*
X2889800D01*
X2844800Y767800D02*
Y857800D01*
X2799800Y1422400D02*
X2889800D01*
X2844800Y1377400D02*
Y1467400D01*
X2858100Y1930400D02*
X2933100D01*
X2895600Y1892900D02*
Y1967900D01*
X2139400Y2590800D02*
X2229400D01*
X2184400Y2545800D02*
Y2635800D01*
X1936200Y2032000D02*
X2026200D01*
X1981200Y1987000D02*
Y2077000D01*
X3053800Y965200D02*
X3143800D01*
X3098800Y920200D02*
Y1010200D01*
X3257000Y2133600D02*
X3347000D01*
X3302000Y2088600D02*
Y2178600D01*
%TF.MD5,c625e38ee16ae59b704cb1f9af0bc826*%
M02*
