%TF.GenerationSoftware,Altium Limited,Altium Designer,24.0.1 (36)*%
G04 Layer_Color=255*
%FSLAX45Y45*%
%MOMM*%
%TF.SameCoordinates,8CF4B923-E39E-4099-A09F-CB558B098684*%
%TF.FilePolarity,Positive*%
%TF.FileFunction,Pads,Top*%
%TF.Part,Single*%
G01*
G75*
%TA.AperFunction,SMDPad,CuDef*%
G04:AMPARAMS|DCode=10|XSize=0.762mm|YSize=0.762mm|CornerRadius=0.0381mm|HoleSize=0mm|Usage=FLASHONLY|Rotation=0.000|XOffset=0mm|YOffset=0mm|HoleType=Round|Shape=RoundedRectangle|*
%AMROUNDEDRECTD10*
21,1,0.76200,0.68580,0,0,0.0*
21,1,0.68580,0.76200,0,0,0.0*
1,1,0.07620,0.34290,-0.34290*
1,1,0.07620,-0.34290,-0.34290*
1,1,0.07620,-0.34290,0.34290*
1,1,0.07620,0.34290,0.34290*
%
%ADD10ROUNDEDRECTD10*%
G04:AMPARAMS|DCode=11|XSize=0.762mm|YSize=0.762mm|CornerRadius=0.0381mm|HoleSize=0mm|Usage=FLASHONLY|Rotation=90.000|XOffset=0mm|YOffset=0mm|HoleType=Round|Shape=RoundedRectangle|*
%AMROUNDEDRECTD11*
21,1,0.76200,0.68580,0,0,90.0*
21,1,0.68580,0.76200,0,0,90.0*
1,1,0.07620,0.34290,0.34290*
1,1,0.07620,0.34290,-0.34290*
1,1,0.07620,-0.34290,-0.34290*
1,1,0.07620,-0.34290,0.34290*
%
%ADD11ROUNDEDRECTD11*%
%ADD12R,0.91440X0.91440*%
%ADD13R,0.91440X1.27000*%
%ADD14R,3.70000X0.97000*%
G04:AMPARAMS|DCode=15|XSize=0.7mm|YSize=1.3mm|CornerRadius=0.0525mm|HoleSize=0mm|Usage=FLASHONLY|Rotation=180.000|XOffset=0mm|YOffset=0mm|HoleType=Round|Shape=RoundedRectangle|*
%AMROUNDEDRECTD15*
21,1,0.70000,1.19500,0,0,180.0*
21,1,0.59500,1.30000,0,0,180.0*
1,1,0.10500,-0.29750,0.59750*
1,1,0.10500,0.29750,0.59750*
1,1,0.10500,0.29750,-0.59750*
1,1,0.10500,-0.29750,-0.59750*
%
%ADD15ROUNDEDRECTD15*%
G04:AMPARAMS|DCode=16|XSize=1.524mm|YSize=1.27mm|CornerRadius=0.09525mm|HoleSize=0mm|Usage=FLASHONLY|Rotation=90.000|XOffset=0mm|YOffset=0mm|HoleType=Round|Shape=RoundedRectangle|*
%AMROUNDEDRECTD16*
21,1,1.52400,1.07950,0,0,90.0*
21,1,1.33350,1.27000,0,0,90.0*
1,1,0.19050,0.53975,0.66675*
1,1,0.19050,0.53975,-0.66675*
1,1,0.19050,-0.53975,-0.66675*
1,1,0.19050,-0.53975,0.66675*
%
%ADD16ROUNDEDRECTD16*%
G04:AMPARAMS|DCode=17|XSize=1.22mm|YSize=0.6mm|CornerRadius=0.15mm|HoleSize=0mm|Usage=FLASHONLY|Rotation=0.000|XOffset=0mm|YOffset=0mm|HoleType=Round|Shape=RoundedRectangle|*
%AMROUNDEDRECTD17*
21,1,1.22000,0.30000,0,0,0.0*
21,1,0.92000,0.60000,0,0,0.0*
1,1,0.30000,0.46000,-0.15000*
1,1,0.30000,-0.46000,-0.15000*
1,1,0.30000,-0.46000,0.15000*
1,1,0.30000,0.46000,0.15000*
%
%ADD17ROUNDEDRECTD17*%
%ADD18R,2.80000X3.00000*%
G04:AMPARAMS|DCode=19|XSize=1.524mm|YSize=1.27mm|CornerRadius=0.09525mm|HoleSize=0mm|Usage=FLASHONLY|Rotation=0.000|XOffset=0mm|YOffset=0mm|HoleType=Round|Shape=RoundedRectangle|*
%AMROUNDEDRECTD19*
21,1,1.52400,1.07950,0,0,0.0*
21,1,1.33350,1.27000,0,0,0.0*
1,1,0.19050,0.66675,-0.53975*
1,1,0.19050,-0.66675,-0.53975*
1,1,0.19050,-0.66675,0.53975*
1,1,0.19050,0.66675,0.53975*
%
%ADD19ROUNDEDRECTD19*%
%TA.AperFunction,ComponentPad*%
%ADD25R,1.51500X1.51500*%
%ADD26C,1.51500*%
%ADD27C,3.36000*%
%ADD28C,1.85000*%
%ADD29R,1.85000X1.85000*%
%ADD30R,2.15000X2.15000*%
%ADD31C,2.15000*%
%ADD32C,5.00000*%
D10*
X2743200Y558800D02*
D03*
X2882900D02*
D03*
X3364985Y863600D02*
D03*
X3504685D02*
D03*
X3837525Y2335201D02*
D03*
X3977225D02*
D03*
X2205575Y1903401D02*
D03*
X2345275D02*
D03*
D11*
X3759200Y679450D02*
D03*
Y539750D02*
D03*
D12*
X3302000Y406400D02*
D03*
X3492500D02*
D03*
D13*
X3398520Y609600D02*
D03*
D14*
X2743660Y1361001D02*
D03*
Y1125001D02*
D03*
D15*
X3348825Y1370001D02*
D03*
X3538825D02*
D03*
Y1130001D02*
D03*
X3443825D02*
D03*
X3348825D02*
D03*
X3443825Y1370001D02*
D03*
D16*
X3113625Y1611301D02*
D03*
Y1382701D02*
D03*
X3763791Y989001D02*
D03*
Y1217601D02*
D03*
X3956931Y1527506D02*
D03*
Y1756106D02*
D03*
D17*
X2399925Y1668201D02*
D03*
Y1478200D02*
D03*
X2150926D02*
D03*
Y1573201D02*
D03*
Y1668201D02*
D03*
D18*
X1720000Y1175000D02*
D03*
Y1825000D02*
D03*
D19*
X3418425Y1624001D02*
D03*
X3647025D02*
D03*
D25*
X350000Y1796415D02*
D03*
D26*
Y1496415D02*
D03*
Y1196415D02*
D03*
D27*
Y2121415D02*
D03*
Y871415D02*
D03*
D28*
X4016000Y2750000D02*
D03*
X3254000D02*
D03*
X3508000D02*
D03*
X3762000D02*
D03*
D29*
X3000000D02*
D03*
D30*
X1554000Y2550000D02*
D03*
D31*
X1046000D02*
D03*
D32*
X350000Y2650000D02*
D03*
%TF.MD5,d7f8b5a80590a7ded75609a1351ce87c*%
M02*
