%TF.GenerationSoftware,Altium Limited,Altium Designer,24.0.1 (36)*%
G04 Layer_Physical_Order=2*
G04 Layer_Color=16711680*
%FSLAX45Y45*%
%MOMM*%
%TF.SameCoordinates,EA0AF7FB-948C-45CD-8237-9CE77542C851*%
%TF.FilePolarity,Positive*%
%TF.FileFunction,Copper,L2,Bot,Signal*%
%TF.Part,Single*%
G01*
G75*
%TA.AperFunction,Conductor*%
%ADD19C,0.75000*%
%TA.AperFunction,ComponentPad*%
%ADD24R,1.51500X1.51500*%
%ADD25C,1.51500*%
%ADD26C,3.36000*%
%ADD27C,1.85000*%
%ADD28R,1.85000X1.85000*%
%ADD29R,2.15000X2.15000*%
%ADD30C,2.15000*%
%ADD31C,5.00000*%
%TA.AperFunction,ViaPad*%
%ADD32C,1.40000*%
%ADD33C,1.15000*%
G36*
X4099374Y2842319D02*
X4087641Y2837459D01*
X4085077Y2840023D01*
X4059423Y2854833D01*
X4030811Y2862500D01*
X4001189D01*
X3972577Y2854833D01*
X3946924Y2840023D01*
X3925978Y2819077D01*
X3911167Y2793423D01*
X3903500Y2764811D01*
Y2735189D01*
X3911167Y2706577D01*
X3925978Y2680924D01*
X3946924Y2659978D01*
X3972577Y2645167D01*
X4001189Y2637500D01*
X4030811D01*
X4059423Y2645167D01*
X4085077Y2659978D01*
X4087641Y2662542D01*
X4099374Y2657681D01*
Y2250000D01*
Y750000D01*
Y58627D01*
X58627D01*
Y2941374D01*
X4099374D01*
Y2842319D01*
D02*
G37*
%LPC*%
G36*
X3787000Y2864946D02*
Y2775000D01*
X3876946D01*
X3871493Y2795353D01*
X3856024Y2822147D01*
X3834147Y2844024D01*
X3807353Y2859493D01*
X3787000Y2864946D01*
D02*
G37*
G36*
X3737000D02*
X3716647Y2859493D01*
X3689853Y2844024D01*
X3667977Y2822147D01*
X3652508Y2795353D01*
X3647054Y2775000D01*
X3737000D01*
Y2864946D01*
D02*
G37*
G36*
X375000Y2924468D02*
Y2675000D01*
X624468D01*
X618229Y2714396D01*
X604852Y2755563D01*
X585201Y2794132D01*
X559758Y2829151D01*
X529151Y2859758D01*
X494132Y2885201D01*
X455563Y2904852D01*
X414396Y2918229D01*
X375000Y2924468D01*
D02*
G37*
G36*
X325000D02*
X285604Y2918229D01*
X244437Y2904852D01*
X205869Y2885201D01*
X170850Y2859758D01*
X140242Y2829151D01*
X114799Y2794132D01*
X95148Y2755563D01*
X81771Y2714396D01*
X75532Y2675000D01*
X325000D01*
Y2924468D01*
D02*
G37*
G36*
X3522811Y2862500D02*
X3493189D01*
X3464577Y2854833D01*
X3438924Y2840023D01*
X3417978Y2819077D01*
X3403167Y2793423D01*
X3395500Y2764811D01*
Y2735189D01*
X3403167Y2706577D01*
X3417978Y2680924D01*
X3438924Y2659978D01*
X3464577Y2645167D01*
X3493189Y2637500D01*
X3522811D01*
X3551423Y2645167D01*
X3577077Y2659978D01*
X3598023Y2680924D01*
X3612833Y2706577D01*
X3620500Y2735189D01*
Y2764811D01*
X3612833Y2793423D01*
X3598023Y2819077D01*
X3577077Y2840023D01*
X3551423Y2854833D01*
X3522811Y2862500D01*
D02*
G37*
G36*
X3268811D02*
X3239189D01*
X3210577Y2854833D01*
X3184924Y2840023D01*
X3163978Y2819077D01*
X3149167Y2793423D01*
X3141500Y2764811D01*
Y2735189D01*
X3149167Y2706577D01*
X3163978Y2680924D01*
X3184924Y2659978D01*
X3210577Y2645167D01*
X3239189Y2637500D01*
X3268811D01*
X3297423Y2645167D01*
X3323077Y2659978D01*
X3344023Y2680924D01*
X3358833Y2706577D01*
X3366500Y2735189D01*
Y2764811D01*
X3358833Y2793423D01*
X3344023Y2819077D01*
X3323077Y2840023D01*
X3297423Y2854833D01*
X3268811Y2862500D01*
D02*
G37*
G36*
X3876946Y2725000D02*
X3787000D01*
Y2635054D01*
X3807353Y2640508D01*
X3834147Y2655977D01*
X3856024Y2677853D01*
X3871493Y2704647D01*
X3876946Y2725000D01*
D02*
G37*
G36*
X3737000D02*
X3647054D01*
X3652508Y2704647D01*
X3667977Y2677853D01*
X3689853Y2655977D01*
X3716647Y2640508D01*
X3737000Y2635054D01*
Y2725000D01*
D02*
G37*
G36*
X1071000Y2680475D02*
Y2575000D01*
X1176475D01*
X1169470Y2601143D01*
X1152026Y2631357D01*
X1127357Y2656026D01*
X1097143Y2673470D01*
X1071000Y2680475D01*
D02*
G37*
G36*
X1021000D02*
X994857Y2673470D01*
X964643Y2656026D01*
X939974Y2631357D01*
X922530Y2601143D01*
X915525Y2575000D01*
X1021000D01*
Y2680475D01*
D02*
G37*
G36*
X1681500Y2677500D02*
X1426500D01*
Y2422500D01*
X1681500D01*
Y2677500D01*
D02*
G37*
G36*
X1176475Y2525000D02*
X1071000D01*
Y2419525D01*
X1097143Y2426530D01*
X1127357Y2443974D01*
X1152026Y2468643D01*
X1169470Y2498857D01*
X1176475Y2525000D01*
D02*
G37*
G36*
X1021000D02*
X915525D01*
X922530Y2498857D01*
X939974Y2468643D01*
X964643Y2443974D01*
X994857Y2426530D01*
X1021000Y2419525D01*
Y2525000D01*
D02*
G37*
G36*
X624468Y2625000D02*
X375000D01*
Y2375532D01*
X414396Y2381771D01*
X455563Y2395148D01*
X494132Y2414799D01*
X529151Y2440242D01*
X559758Y2470850D01*
X585201Y2505868D01*
X604852Y2544437D01*
X618229Y2585604D01*
X624468Y2625000D01*
D02*
G37*
G36*
X325000D02*
X75532D01*
X81771Y2585604D01*
X95148Y2544437D01*
X114799Y2505868D01*
X140242Y2470850D01*
X170850Y2440242D01*
X205869Y2414799D01*
X244437Y2395148D01*
X285604Y2381771D01*
X325000Y2375532D01*
Y2625000D01*
D02*
G37*
G36*
X3327000Y2225252D02*
Y2158600D01*
X3393652D01*
X3390526Y2170268D01*
X3378019Y2191931D01*
X3360331Y2209619D01*
X3338668Y2222126D01*
X3327000Y2225252D01*
D02*
G37*
G36*
X3277000D02*
X3265332Y2222126D01*
X3243669Y2209619D01*
X3225981Y2191931D01*
X3213474Y2170268D01*
X3210348Y2158600D01*
X3277000D01*
Y2225252D01*
D02*
G37*
G36*
X375000Y2313223D02*
Y2146415D01*
X541808D01*
X535583Y2177711D01*
X521035Y2212835D01*
X499913Y2244445D01*
X473030Y2271328D01*
X441420Y2292449D01*
X406296Y2306998D01*
X375000Y2313223D01*
D02*
G37*
G36*
X325000Y2313223D02*
X293704Y2306998D01*
X258580Y2292449D01*
X226970Y2271328D01*
X200087Y2244445D01*
X178966Y2212835D01*
X164417Y2177711D01*
X158192Y2146415D01*
X325000D01*
Y2313223D01*
D02*
G37*
G36*
X2006200Y2123652D02*
Y2057000D01*
X2072852D01*
X2069726Y2068668D01*
X2057219Y2090331D01*
X2039531Y2108019D01*
X2017868Y2120526D01*
X2006200Y2123652D01*
D02*
G37*
G36*
X1956200D02*
X1944532Y2120526D01*
X1922869Y2108019D01*
X1905181Y2090331D01*
X1892674Y2068668D01*
X1889548Y2057000D01*
X1956200D01*
Y2123652D01*
D02*
G37*
G36*
X3393652Y2108600D02*
X3327000D01*
Y2041948D01*
X3338668Y2045074D01*
X3360331Y2057581D01*
X3378019Y2075269D01*
X3390526Y2096932D01*
X3393652Y2108600D01*
D02*
G37*
G36*
X3277000D02*
X3210348D01*
X3213474Y2096932D01*
X3225981Y2075269D01*
X3243669Y2057581D01*
X3265332Y2045074D01*
X3277000Y2041948D01*
Y2108600D01*
D02*
G37*
G36*
X2072852Y2007000D02*
X2006200D01*
Y1940348D01*
X2017868Y1943474D01*
X2039531Y1955981D01*
X2057219Y1973669D01*
X2069726Y1995332D01*
X2072852Y2007000D01*
D02*
G37*
G36*
X1956200D02*
X1889548D01*
X1892674Y1995332D01*
X1905181Y1973669D01*
X1922869Y1955981D01*
X1944532Y1943474D01*
X1956200Y1940348D01*
Y2007000D01*
D02*
G37*
G36*
X325000Y2096415D02*
X158192D01*
X164417Y2065119D01*
X178966Y2029995D01*
X200087Y1998385D01*
X226970Y1971502D01*
X258580Y1950380D01*
X293704Y1935832D01*
X325000Y1929607D01*
Y2096415D01*
D02*
G37*
G36*
X541808D02*
X375000D01*
Y1929607D01*
X406296Y1935832D01*
X441420Y1950380D01*
X473030Y1971502D01*
X499913Y1998385D01*
X521035Y2029995D01*
X535583Y2065119D01*
X541808Y2096415D01*
D02*
G37*
G36*
X2196249Y2680800D02*
X2172551D01*
X2149661Y2674666D01*
X2129139Y2662818D01*
X2112382Y2646061D01*
X2100534Y2625539D01*
X2094400Y2602649D01*
Y2583711D01*
X1365731Y1855041D01*
X445750D01*
Y1892165D01*
X254250D01*
Y1700665D01*
X445750D01*
Y1737788D01*
X1390015D01*
X1412450Y1742251D01*
X1431470Y1754960D01*
X2177311Y2500800D01*
X2196249D01*
X2219139Y2506934D01*
X2239661Y2518782D01*
X2256418Y2535539D01*
X2268266Y2556061D01*
X2274400Y2578951D01*
Y2602649D01*
X2268266Y2625539D01*
X2256418Y2646061D01*
X2239661Y2662818D01*
X2219139Y2674666D01*
X2196249Y2680800D01*
D02*
G37*
G36*
X3112500Y2862500D02*
X2887500D01*
Y2637500D01*
X2941374D01*
Y2059084D01*
X2890190Y2007900D01*
X2885397D01*
X2865686Y2002619D01*
X2848014Y1992415D01*
X2833585Y1977986D01*
X2823381Y1960314D01*
X2818100Y1940603D01*
Y1920197D01*
X2823381Y1900486D01*
X2833585Y1882814D01*
X2848014Y1868385D01*
X2865686Y1858181D01*
X2885397Y1852900D01*
X2905803D01*
X2925514Y1858181D01*
X2943186Y1868385D01*
X2957615Y1882814D01*
X2967819Y1900486D01*
X2973100Y1920197D01*
Y1924990D01*
X3041455Y1993345D01*
X3054164Y2012365D01*
X3058627Y2034800D01*
Y2637500D01*
X3112500D01*
Y2862500D01*
D02*
G37*
G36*
X362606Y1592165D02*
X337394D01*
X313042Y1585639D01*
X291208Y1573034D01*
X273381Y1555207D01*
X260775Y1533373D01*
X254250Y1509021D01*
Y1483809D01*
X260775Y1459457D01*
X273381Y1437623D01*
X291208Y1419796D01*
X313042Y1407190D01*
X337394Y1400665D01*
X362606D01*
X386958Y1407190D01*
X408792Y1419796D01*
X426619Y1437623D01*
X439225Y1459457D01*
X445750Y1483809D01*
Y1509021D01*
X439225Y1533373D01*
X426619Y1555207D01*
X408792Y1573034D01*
X386958Y1585639D01*
X362606Y1592165D01*
D02*
G37*
G36*
Y1292165D02*
X337394D01*
X313042Y1285639D01*
X291208Y1273034D01*
X273381Y1255207D01*
X260775Y1233373D01*
X254250Y1209020D01*
Y1183809D01*
X260775Y1159457D01*
X273381Y1137623D01*
X291208Y1119796D01*
X313042Y1107190D01*
X337394Y1100665D01*
X362606D01*
X386958Y1107190D01*
X408792Y1119796D01*
X426619Y1137623D01*
X439225Y1159457D01*
X445750Y1183809D01*
Y1209020D01*
X439225Y1233373D01*
X426619Y1255207D01*
X408792Y1273034D01*
X386958Y1285639D01*
X362606Y1292165D01*
D02*
G37*
G36*
X3073000Y1056852D02*
Y990200D01*
X3139652D01*
X3136526Y1001868D01*
X3124019Y1023531D01*
X3106331Y1041219D01*
X3084668Y1053726D01*
X3073000Y1056852D01*
D02*
G37*
G36*
X3023000D02*
X3011332Y1053726D01*
X2989669Y1041219D01*
X2971981Y1023531D01*
X2959474Y1001868D01*
X2956348Y990200D01*
X3023000D01*
Y1056852D01*
D02*
G37*
G36*
X375000Y1063223D02*
Y896415D01*
X541808D01*
X535583Y927711D01*
X521035Y962834D01*
X499913Y994445D01*
X473030Y1021328D01*
X441420Y1042449D01*
X406296Y1056998D01*
X375000Y1063223D01*
D02*
G37*
G36*
X325000D02*
X293704Y1056998D01*
X258580Y1042449D01*
X226970Y1021328D01*
X200087Y994445D01*
X178966Y962834D01*
X164417Y927711D01*
X158192Y896415D01*
X325000D01*
Y1063223D01*
D02*
G37*
G36*
X3139652Y940200D02*
X3073000D01*
Y873548D01*
X3084668Y876674D01*
X3106331Y889181D01*
X3124019Y906869D01*
X3136526Y928532D01*
X3139652Y940200D01*
D02*
G37*
G36*
X3023000D02*
X2956348D01*
X2959474Y928532D01*
X2971981Y906869D01*
X2989669Y889181D01*
X3011332Y876674D01*
X3023000Y873548D01*
Y940200D01*
D02*
G37*
G36*
X2856649Y1512400D02*
X2832951D01*
X2810061Y1506266D01*
X2789539Y1494418D01*
X2772782Y1477661D01*
X2760934Y1457139D01*
X2754800Y1434249D01*
Y1410551D01*
X2760934Y1387661D01*
X2772782Y1367139D01*
X2786173Y1353748D01*
Y881452D01*
X2772782Y868061D01*
X2760934Y847539D01*
X2754800Y824649D01*
Y800951D01*
X2760934Y778061D01*
X2772782Y757539D01*
X2789539Y740782D01*
X2810061Y728934D01*
X2832951Y722800D01*
X2856649D01*
X2879539Y728934D01*
X2900061Y740782D01*
X2916818Y757539D01*
X2928666Y778061D01*
X2934800Y800951D01*
Y824649D01*
X2928666Y847539D01*
X2916818Y868061D01*
X2903427Y881452D01*
Y1353748D01*
X2916818Y1367139D01*
X2928666Y1387661D01*
X2934800Y1410551D01*
Y1434249D01*
X2928666Y1457139D01*
X2916818Y1477661D01*
X2900061Y1494418D01*
X2879539Y1506266D01*
X2856649Y1512400D01*
D02*
G37*
G36*
X541808Y846415D02*
X375000D01*
Y679607D01*
X406296Y685832D01*
X441420Y700380D01*
X473030Y721502D01*
X499913Y748385D01*
X521035Y779995D01*
X535583Y815119D01*
X541808Y846415D01*
D02*
G37*
G36*
X325000D02*
X158192D01*
X164417Y815119D01*
X178966Y779995D01*
X200087Y748385D01*
X226970Y721502D01*
X258580Y700380D01*
X293704Y685832D01*
X325000Y679607D01*
Y846415D01*
D02*
G37*
G36*
X3123800Y345652D02*
Y279000D01*
X3190452D01*
X3187326Y290668D01*
X3174819Y312331D01*
X3157131Y330019D01*
X3135468Y342526D01*
X3123800Y345652D01*
D02*
G37*
G36*
X3073800D02*
X3062132Y342526D01*
X3040469Y330019D01*
X3022781Y312331D01*
X3010274Y290668D01*
X3007148Y279000D01*
X3073800D01*
Y345652D01*
D02*
G37*
G36*
X3190452Y229000D02*
X3123800D01*
Y162348D01*
X3135468Y165474D01*
X3157131Y177981D01*
X3174819Y195669D01*
X3187326Y217332D01*
X3190452Y229000D01*
D02*
G37*
G36*
X3073800D02*
X3007148D01*
X3010274Y217332D01*
X3022781Y195669D01*
X3040469Y177981D01*
X3062132Y165474D01*
X3073800Y162348D01*
Y229000D01*
D02*
G37*
%LPD*%
D19*
X2844800Y812800D02*
Y1422400D01*
X3000000Y2034800D02*
Y2750000D01*
X2895600Y1930400D02*
X3000000Y2034800D01*
X350000Y1796415D02*
X1390015D01*
X2184400Y2590800D01*
D24*
X350000Y1796415D02*
D03*
D25*
Y1496415D02*
D03*
Y1196415D02*
D03*
D26*
Y2121415D02*
D03*
Y871415D02*
D03*
D27*
X4016000Y2750000D02*
D03*
X3254000D02*
D03*
X3508000D02*
D03*
X3762000D02*
D03*
D28*
X3000000D02*
D03*
D29*
X1554000Y2550000D02*
D03*
D30*
X1046000D02*
D03*
D31*
X350000Y2650000D02*
D03*
D32*
X3098800Y254000D02*
D03*
X2844800Y812800D02*
D03*
Y1422400D02*
D03*
X2184400Y2590800D02*
D03*
X1981200Y2032000D02*
D03*
X3048000Y965200D02*
D03*
X3302000Y2133600D02*
D03*
D33*
X2895600Y1930400D02*
D03*
%TF.MD5,19cc1dddc85bc0ae45b787ec88169c48*%
M02*
