%TF.GenerationSoftware,Altium Limited,Altium Designer,24.0.1 (36)*%
G04 Layer_Color=2752767*
%FSLAX45Y45*%
%MOMM*%
%TF.SameCoordinates,EA0AF7FB-948C-45CD-8237-9CE77542C851*%
%TF.FilePolarity,Positive*%
%TF.FileFunction,Drawing*%
%TF.Part,Single*%
G01*
G75*
%TA.AperFunction,NonConductor*%
%ADD38C,0.12700*%
%ADD72C,0.16933*%
D38*
X350000Y1745615D02*
X299200Y1847215D01*
X400800D01*
X350000Y1745615D01*
Y1445615D02*
X299200Y1547215D01*
X400800D01*
X350000Y1445615D01*
Y1145615D02*
X299200Y1247215D01*
X400800D01*
X350000Y1145615D01*
Y2070615D02*
X375400Y2096015D01*
X400800D01*
X375400Y2121415D01*
X400800Y2146815D01*
X375400D01*
X350000Y2172215D01*
X324600Y2146815D01*
X299200D01*
X324600Y2121415D01*
X299200Y2096015D01*
X324600D01*
X350000Y2070615D01*
Y820615D02*
X375400Y846015D01*
X400800D01*
X375400Y871415D01*
X400800Y896815D01*
X375400D01*
X350000Y922215D01*
X324600Y896815D01*
X299200D01*
X324600Y871415D01*
X299200Y846015D01*
X324600D01*
X350000Y820615D01*
X3965200Y2699200D02*
Y2800800D01*
X4066800D01*
Y2699200D01*
X3965200D01*
X2949200D02*
Y2800800D01*
X3050800D01*
Y2699200D01*
X2949200D01*
X3203200D02*
Y2800800D01*
X3304800D01*
Y2699200D01*
X3203200D01*
X3457200D02*
Y2800800D01*
X3558800D01*
Y2699200D01*
X3457200D01*
X3711200D02*
Y2800800D01*
X3812800D01*
Y2699200D01*
X3711200D01*
X299200Y2599200D02*
X324600Y2650000D01*
X299200Y2700800D01*
X350000Y2675400D01*
X400800Y2700800D01*
X375400Y2650000D01*
X400800Y2599200D01*
X350000Y2624600D01*
X299200Y2599200D01*
X3048000Y203200D02*
X3073400D01*
X3098800Y228600D01*
X3124200Y203200D01*
X3149600D01*
Y228600D01*
X3124200Y254000D01*
X3149600Y279400D01*
Y304800D01*
X3124200D01*
X3098800Y279400D01*
X3073400Y304800D01*
X3048000D01*
Y279400D01*
X3073400Y254000D01*
X3048000Y228600D01*
Y203200D01*
X2794000Y762000D02*
X2819400D01*
X2844800Y787400D01*
X2870200Y762000D01*
X2895600D01*
Y787400D01*
X2870200Y812800D01*
X2895600Y838200D01*
Y863600D01*
X2870200D01*
X2844800Y838200D01*
X2819400Y863600D01*
X2794000D01*
Y838200D01*
X2819400Y812800D01*
X2794000Y787400D01*
Y762000D01*
Y1371600D02*
X2819400D01*
X2844800Y1397000D01*
X2870200Y1371600D01*
X2895600D01*
Y1397000D01*
X2870200Y1422400D01*
X2895600Y1447800D01*
Y1473200D01*
X2870200D01*
X2844800Y1447800D01*
X2819400Y1473200D01*
X2794000D01*
Y1447800D01*
X2819400Y1422400D01*
X2794000Y1397000D01*
Y1371600D01*
X2870200Y1905000D02*
Y1879600D01*
X2921000D01*
Y1905000D01*
X2946400D01*
Y1955800D01*
X2921000D01*
Y1981200D01*
X2870200D01*
Y1955800D01*
X2844800D01*
Y1905000D01*
X2870200D01*
X2133600Y2540000D02*
X2159000D01*
X2184400Y2565400D01*
X2209800Y2540000D01*
X2235200D01*
Y2565400D01*
X2209800Y2590800D01*
X2235200Y2616200D01*
Y2641600D01*
X2209800D01*
X2184400Y2616200D01*
X2159000Y2641600D01*
X2133600D01*
Y2616200D01*
X2159000Y2590800D01*
X2133600Y2565400D01*
Y2540000D01*
X1930400Y1981200D02*
X1955800D01*
X1981200Y2006600D01*
X2006600Y1981200D01*
X2032000D01*
Y2006600D01*
X2006600Y2032000D01*
X2032000Y2057400D01*
Y2082800D01*
X2006600D01*
X1981200Y2057400D01*
X1955800Y2082800D01*
X1930400D01*
Y2057400D01*
X1955800Y2032000D01*
X1930400Y2006600D01*
Y1981200D01*
X2997200Y914400D02*
X3022600D01*
X3048000Y939800D01*
X3073400Y914400D01*
X3098800D01*
Y939800D01*
X3073400Y965200D01*
X3098800Y990600D01*
Y1016000D01*
X3073400D01*
X3048000Y990600D01*
X3022600Y1016000D01*
X2997200D01*
Y990600D01*
X3022600Y965200D01*
X2997200Y939800D01*
Y914400D01*
X3251200Y2082800D02*
X3276600D01*
X3302000Y2108200D01*
X3327400Y2082800D01*
X3352800D01*
Y2108200D01*
X3327400Y2133600D01*
X3352800Y2159000D01*
Y2184400D01*
X3327400D01*
X3302000Y2159000D01*
X3276600Y2184400D01*
X3251200D01*
Y2159000D01*
X3276600Y2133600D01*
X3251200Y2108200D01*
Y2082800D01*
D72*
X1604800Y2550000D02*
G03*
X1604800Y2550000I-50800J0D01*
G01*
X1096800D02*
G03*
X1096800Y2550000I-50800J0D01*
G01*
%TF.MD5,1731a6dc9001239716814a2ccb795a3c*%
M02*
