%TF.GenerationSoftware,Altium Limited,Altium Designer,24.0.1 (36)*%
G04 Layer_Physical_Order=1*
G04 Layer_Color=255*
%FSLAX45Y45*%
%MOMM*%
%TF.SameCoordinates,EA0AF7FB-948C-45CD-8237-9CE77542C851*%
%TF.FilePolarity,Positive*%
%TF.FileFunction,Copper,L1,Top,Signal*%
%TF.Part,Single*%
G01*
G75*
%TA.AperFunction,SMDPad,CuDef*%
G04:AMPARAMS|DCode=10|XSize=1.524mm|YSize=1.27mm|CornerRadius=0.09525mm|HoleSize=0mm|Usage=FLASHONLY|Rotation=0.000|XOffset=0mm|YOffset=0mm|HoleType=Round|Shape=RoundedRectangle|*
%AMROUNDEDRECTD10*
21,1,1.52400,1.07950,0,0,0.0*
21,1,1.33350,1.27000,0,0,0.0*
1,1,0.19050,0.66675,-0.53975*
1,1,0.19050,-0.66675,-0.53975*
1,1,0.19050,-0.66675,0.53975*
1,1,0.19050,0.66675,0.53975*
%
%ADD10ROUNDEDRECTD10*%
G04:AMPARAMS|DCode=11|XSize=0.762mm|YSize=0.762mm|CornerRadius=0.0381mm|HoleSize=0mm|Usage=FLASHONLY|Rotation=90.000|XOffset=0mm|YOffset=0mm|HoleType=Round|Shape=RoundedRectangle|*
%AMROUNDEDRECTD11*
21,1,0.76200,0.68580,0,0,90.0*
21,1,0.68580,0.76200,0,0,90.0*
1,1,0.07620,0.34290,0.34290*
1,1,0.07620,0.34290,-0.34290*
1,1,0.07620,-0.34290,-0.34290*
1,1,0.07620,-0.34290,0.34290*
%
%ADD11ROUNDEDRECTD11*%
%ADD12R,0.91440X0.91440*%
%ADD13R,0.91440X1.27000*%
%ADD14R,3.70000X0.97000*%
G04:AMPARAMS|DCode=15|XSize=0.7mm|YSize=1.3mm|CornerRadius=0.0525mm|HoleSize=0mm|Usage=FLASHONLY|Rotation=180.000|XOffset=0mm|YOffset=0mm|HoleType=Round|Shape=RoundedRectangle|*
%AMROUNDEDRECTD15*
21,1,0.70000,1.19500,0,0,180.0*
21,1,0.59500,1.30000,0,0,180.0*
1,1,0.10500,-0.29750,0.59750*
1,1,0.10500,0.29750,0.59750*
1,1,0.10500,0.29750,-0.59750*
1,1,0.10500,-0.29750,-0.59750*
%
%ADD15ROUNDEDRECTD15*%
G04:AMPARAMS|DCode=16|XSize=1.524mm|YSize=1.27mm|CornerRadius=0.09525mm|HoleSize=0mm|Usage=FLASHONLY|Rotation=90.000|XOffset=0mm|YOffset=0mm|HoleType=Round|Shape=RoundedRectangle|*
%AMROUNDEDRECTD16*
21,1,1.52400,1.07950,0,0,90.0*
21,1,1.33350,1.27000,0,0,90.0*
1,1,0.19050,0.53975,0.66675*
1,1,0.19050,0.53975,-0.66675*
1,1,0.19050,-0.53975,-0.66675*
1,1,0.19050,-0.53975,0.66675*
%
%ADD16ROUNDEDRECTD16*%
G04:AMPARAMS|DCode=17|XSize=1.22mm|YSize=0.6mm|CornerRadius=0.15mm|HoleSize=0mm|Usage=FLASHONLY|Rotation=0.000|XOffset=0mm|YOffset=0mm|HoleType=Round|Shape=RoundedRectangle|*
%AMROUNDEDRECTD17*
21,1,1.22000,0.30000,0,0,0.0*
21,1,0.92000,0.60000,0,0,0.0*
1,1,0.30000,0.46000,-0.15000*
1,1,0.30000,-0.46000,-0.15000*
1,1,0.30000,-0.46000,0.15000*
1,1,0.30000,0.46000,0.15000*
%
%ADD17ROUNDEDRECTD17*%
%ADD18R,2.80000X3.00000*%
%TA.AperFunction,Conductor*%
%ADD19C,0.75000*%
%ADD20C,0.40000*%
%ADD21C,0.70000*%
%ADD22C,0.60000*%
%ADD23C,0.50000*%
%TA.AperFunction,ComponentPad*%
%ADD24R,1.51500X1.51500*%
%ADD25C,1.51500*%
%ADD26C,3.36000*%
%ADD27C,1.85000*%
%ADD28R,1.85000X1.85000*%
%ADD29R,2.15000X2.15000*%
%ADD30C,2.15000*%
%ADD31C,5.00000*%
%TA.AperFunction,ViaPad*%
%ADD32C,1.40000*%
%ADD33C,1.15000*%
G36*
X4099374Y2842319D02*
X4087641Y2837459D01*
X4085077Y2840023D01*
X4059423Y2854833D01*
X4030811Y2862500D01*
X4001189D01*
X3972577Y2854833D01*
X3946924Y2840023D01*
X3925978Y2819077D01*
X3911167Y2793423D01*
X3903500Y2764811D01*
Y2735189D01*
X3911167Y2706577D01*
X3920410Y2690566D01*
X3918599Y2681460D01*
Y2419279D01*
X3910550D01*
X3899031Y2416987D01*
X3889264Y2410462D01*
X3882739Y2400695D01*
X3880447Y2389176D01*
Y2281226D01*
X3882739Y2269706D01*
X3889264Y2259939D01*
X3899031Y2253414D01*
X3910550Y2251122D01*
X3989208D01*
X4029521Y2210809D01*
Y1859964D01*
X4016821Y1851708D01*
X4010906Y1852884D01*
X3902956D01*
X3891436Y1850593D01*
X3881670Y1844067D01*
X3875144Y1834301D01*
X3872853Y1822781D01*
Y1807086D01*
X3791831D01*
X3772322Y1803205D01*
X3755783Y1792154D01*
X3671708Y1708079D01*
X3580350D01*
X3568831Y1705787D01*
X3559064Y1699262D01*
X3552539Y1689495D01*
X3550247Y1677976D01*
Y1570026D01*
X3552539Y1558506D01*
X3559064Y1548739D01*
X3568831Y1542214D01*
X3580350Y1539922D01*
X3596046D01*
Y1499317D01*
X3552709Y1455980D01*
X3543826D01*
X3541387Y1455495D01*
X3509075D01*
X3499223Y1453536D01*
X3491326Y1448258D01*
X3483428Y1453536D01*
X3473575Y1455495D01*
X3414075D01*
X3404223Y1453536D01*
X3396325Y1448258D01*
X3388428Y1453536D01*
X3378575Y1455495D01*
X3319075D01*
X3309223Y1453536D01*
X3300871Y1447955D01*
X3295290Y1439603D01*
X3294370Y1434977D01*
X3197704D01*
Y1449376D01*
X3195412Y1460895D01*
X3188887Y1470662D01*
X3179120Y1477187D01*
X3167600Y1479479D01*
X3059650D01*
X3048131Y1477187D01*
X3038364Y1470662D01*
X3031839Y1460895D01*
X3029547Y1449376D01*
Y1430477D01*
X2949787D01*
Y1874985D01*
X2957615Y1882814D01*
X2967819Y1900486D01*
X2973100Y1920197D01*
Y1940603D01*
X2967819Y1960314D01*
X2957615Y1977986D01*
X2943186Y1992415D01*
X2925514Y2002619D01*
X2905803Y2007900D01*
X2885397D01*
X2865686Y2002619D01*
X2848014Y1992415D01*
X2833585Y1977986D01*
X2823381Y1960314D01*
X2818100Y1940603D01*
Y1920197D01*
X2823381Y1900486D01*
X2832534Y1884634D01*
Y1512288D01*
X2810061Y1506266D01*
X2789539Y1494418D01*
X2772782Y1477661D01*
X2760934Y1457139D01*
X2754800Y1434249D01*
Y1429501D01*
X2538660D01*
Y1292501D01*
X2948660D01*
Y1313224D01*
X3030104D01*
X3031839Y1304506D01*
X3038364Y1294739D01*
X3048131Y1288214D01*
X3059650Y1285922D01*
X3167600D01*
X3179120Y1288214D01*
X3188887Y1294739D01*
X3195412Y1304506D01*
X3197704Y1316026D01*
Y1317724D01*
X3293331D01*
Y1310251D01*
X3295290Y1300398D01*
X3300871Y1292046D01*
X3309223Y1286466D01*
X3319075Y1284506D01*
X3378575D01*
X3385741Y1285931D01*
X3388690Y1286281D01*
X3399581Y1278644D01*
X3401727Y1267858D01*
X3412778Y1251319D01*
X3431771Y1232326D01*
X3426911Y1220593D01*
X3414075D01*
X3402273Y1218245D01*
X3392267Y1211560D01*
X3391587Y1211424D01*
X3388428Y1213536D01*
X3378575Y1215495D01*
X3319075D01*
X3309223Y1213536D01*
X3300871Y1207955D01*
X3295290Y1199603D01*
X3293331Y1189750D01*
Y1183627D01*
X2948660D01*
Y1193501D01*
X2538660D01*
Y1056501D01*
X2948660D01*
Y1066374D01*
X3009467D01*
X3011331Y1053726D01*
X2989669Y1041219D01*
X2971981Y1023531D01*
X2959474Y1001868D01*
X2956348Y990200D01*
X3048000D01*
Y940200D01*
X2956348D01*
X2959474Y928532D01*
X2971981Y906869D01*
X2989669Y889181D01*
X2998424Y884127D01*
X2995021Y871427D01*
X2913452D01*
X2900061Y884818D01*
X2879539Y896666D01*
X2856649Y902800D01*
X2832951D01*
X2810061Y896666D01*
X2789539Y884818D01*
X2772782Y868061D01*
X2760934Y847539D01*
X2754800Y824649D01*
Y800951D01*
X2760934Y778061D01*
X2772782Y757539D01*
X2789539Y740782D01*
X2810061Y728934D01*
X2832951Y722800D01*
X2856649D01*
X2879539Y728934D01*
X2900061Y740782D01*
X2913452Y754173D01*
X3136900D01*
X3159335Y758636D01*
X3178355Y771345D01*
X3186532Y779522D01*
X3267075D01*
X3278595Y781813D01*
X3288361Y788339D01*
X3294887Y798105D01*
X3297178Y809625D01*
Y917575D01*
X3294887Y929095D01*
X3288361Y938861D01*
X3278595Y945387D01*
X3267075Y947678D01*
X3146848D01*
X3143000Y952693D01*
Y977707D01*
X3136526Y1001868D01*
X3124019Y1023531D01*
X3106331Y1041219D01*
X3084669Y1053726D01*
X3086533Y1066374D01*
X3294102D01*
X3295290Y1060398D01*
X3300871Y1052046D01*
X3309223Y1046466D01*
X3319075Y1044506D01*
X3378575D01*
X3388428Y1046466D01*
X3391587Y1048577D01*
X3392267Y1048441D01*
X3402273Y1041756D01*
X3414075Y1039408D01*
X3418826D01*
Y1130001D01*
X3468825D01*
Y1039408D01*
X3473575D01*
X3482748Y1031880D01*
Y947678D01*
X3362325D01*
X3350805Y945387D01*
X3341039Y938861D01*
X3334513Y929095D01*
X3332222Y917575D01*
Y809625D01*
X3334513Y798105D01*
X3341039Y788339D01*
X3350805Y781813D01*
X3362325Y779522D01*
X3454763D01*
X3459623Y767788D01*
X3384935Y693100D01*
X3332800D01*
Y526100D01*
X3464240D01*
Y553523D01*
X3532772D01*
X3586197Y500097D01*
X3604390Y487941D01*
X3625850Y483673D01*
X3714661D01*
X3715620Y483032D01*
X3724910Y481184D01*
X3793490D01*
X3802780Y483032D01*
X3810656Y488294D01*
X3815918Y496170D01*
X3817766Y505460D01*
Y574040D01*
X3815918Y583330D01*
X3810656Y591206D01*
X3802780Y596468D01*
X3793490Y598316D01*
X3724910D01*
X3715620Y596468D01*
X3714661Y595827D01*
X3649078D01*
X3595653Y649253D01*
X3577460Y661409D01*
X3556000Y665677D01*
X3532716D01*
X3527856Y677411D01*
X3578478Y728033D01*
X3590634Y746226D01*
X3594903Y767685D01*
Y863600D01*
Y1130001D01*
X3594320Y1132930D01*
Y1189750D01*
X3604983Y1201240D01*
X3679712D01*
Y1150926D01*
X3682004Y1139406D01*
X3688530Y1129639D01*
X3698296Y1123114D01*
X3709816Y1120822D01*
X3817766D01*
X3829286Y1123114D01*
X3839052Y1129639D01*
X3845578Y1139406D01*
X3847869Y1150926D01*
Y1249083D01*
X3848270Y1251101D01*
Y1334050D01*
X3944948Y1430728D01*
X4010906D01*
X4022426Y1433019D01*
X4032192Y1439545D01*
X4038718Y1449311D01*
X4041009Y1460831D01*
Y1498420D01*
X4045353D01*
X4064862Y1502301D01*
X4081401Y1513352D01*
X4087641Y1519592D01*
X4099374Y1514731D01*
Y750000D01*
Y58627D01*
X58627D01*
Y2941374D01*
X4099374D01*
Y2842319D01*
D02*
G37*
%LPC*%
G36*
X3787000Y2864946D02*
Y2775000D01*
X3876946D01*
X3871493Y2795353D01*
X3856024Y2822147D01*
X3834147Y2844024D01*
X3807353Y2859493D01*
X3787000Y2864946D01*
D02*
G37*
G36*
X3737000D02*
X3716647Y2859493D01*
X3689853Y2844024D01*
X3667977Y2822147D01*
X3652508Y2795353D01*
X3647054Y2775000D01*
X3737000D01*
Y2864946D01*
D02*
G37*
G36*
X375000Y2924468D02*
Y2675000D01*
X624468D01*
X618229Y2714396D01*
X604852Y2755563D01*
X585201Y2794132D01*
X559758Y2829151D01*
X529151Y2859758D01*
X494132Y2885201D01*
X455563Y2904852D01*
X414396Y2918229D01*
X375000Y2924468D01*
D02*
G37*
G36*
X325000D02*
X285604Y2918229D01*
X244437Y2904852D01*
X205869Y2885201D01*
X170850Y2859758D01*
X140242Y2829151D01*
X114799Y2794132D01*
X95148Y2755563D01*
X81771Y2714396D01*
X75532Y2675000D01*
X325000D01*
Y2924468D01*
D02*
G37*
G36*
X3522811Y2862500D02*
X3493189D01*
X3464577Y2854833D01*
X3438924Y2840023D01*
X3417978Y2819077D01*
X3403167Y2793423D01*
X3395500Y2764811D01*
Y2735189D01*
X3403167Y2706577D01*
X3417978Y2680924D01*
X3438924Y2659978D01*
X3464577Y2645167D01*
X3493189Y2637500D01*
X3522811D01*
X3551423Y2645167D01*
X3577077Y2659978D01*
X3598023Y2680924D01*
X3612833Y2706577D01*
X3620500Y2735189D01*
Y2764811D01*
X3612833Y2793423D01*
X3598023Y2819077D01*
X3577077Y2840023D01*
X3551423Y2854833D01*
X3522811Y2862500D01*
D02*
G37*
G36*
X3112500D02*
X2887500D01*
Y2808627D01*
X2343600D01*
X2321165Y2804164D01*
X2302145Y2791455D01*
X2191490Y2680800D01*
X2172551D01*
X2149661Y2674666D01*
X2129139Y2662818D01*
X2112382Y2646061D01*
X2100534Y2625539D01*
X2094400Y2602649D01*
Y2578951D01*
X2100534Y2556061D01*
X2112382Y2535539D01*
X2129139Y2518782D01*
X2149661Y2506934D01*
X2172551Y2500800D01*
X2196249D01*
X2219139Y2506934D01*
X2239661Y2518782D01*
X2256418Y2535539D01*
X2268266Y2556061D01*
X2274400Y2578951D01*
Y2597890D01*
X2367884Y2691374D01*
X2887500D01*
Y2637500D01*
X3112500D01*
Y2862500D01*
D02*
G37*
G36*
X3876946Y2725000D02*
X3787000D01*
Y2635054D01*
X3807353Y2640508D01*
X3834147Y2655977D01*
X3856024Y2677853D01*
X3871493Y2704647D01*
X3876946Y2725000D01*
D02*
G37*
G36*
X3737000D02*
X3647054D01*
X3652508Y2704647D01*
X3667977Y2677853D01*
X3689853Y2655977D01*
X3716647Y2640508D01*
X3737000Y2635054D01*
Y2725000D01*
D02*
G37*
G36*
X1071000Y2680475D02*
Y2575000D01*
X1176475D01*
X1169470Y2601143D01*
X1152026Y2631357D01*
X1127357Y2656026D01*
X1097143Y2673470D01*
X1071000Y2680475D01*
D02*
G37*
G36*
X1021000D02*
X994857Y2673470D01*
X964643Y2656026D01*
X939974Y2631357D01*
X922530Y2601143D01*
X915525Y2575000D01*
X1021000D01*
Y2680475D01*
D02*
G37*
G36*
X1176475Y2525000D02*
X1071000D01*
Y2419525D01*
X1097143Y2426530D01*
X1127357Y2443974D01*
X1152026Y2468643D01*
X1169470Y2498857D01*
X1176475Y2525000D01*
D02*
G37*
G36*
X1021000D02*
X915525D01*
X922530Y2498857D01*
X939974Y2468643D01*
X964643Y2443974D01*
X994857Y2426530D01*
X1021000Y2419525D01*
Y2525000D01*
D02*
G37*
G36*
X624468Y2625000D02*
X375000D01*
Y2375532D01*
X414396Y2381771D01*
X455563Y2395148D01*
X494132Y2414799D01*
X529151Y2440242D01*
X559758Y2470850D01*
X585201Y2505868D01*
X604852Y2544437D01*
X618229Y2585604D01*
X624468Y2625000D01*
D02*
G37*
G36*
X325000D02*
X75532D01*
X81771Y2585604D01*
X95148Y2544437D01*
X114799Y2505868D01*
X140242Y2470850D01*
X170850Y2440242D01*
X205869Y2414799D01*
X244437Y2395148D01*
X285604Y2381771D01*
X325000Y2375532D01*
Y2625000D01*
D02*
G37*
G36*
X3815300Y2424377D02*
X3773625D01*
Y2360201D01*
X3850502D01*
Y2389176D01*
X3847822Y2402646D01*
X3840192Y2414067D01*
X3828771Y2421697D01*
X3815300Y2424377D01*
D02*
G37*
G36*
X3723626D02*
X3681950D01*
X3668480Y2421697D01*
X3657059Y2414067D01*
X3649429Y2402646D01*
X3646749Y2389176D01*
Y2360201D01*
X3723626D01*
Y2424377D01*
D02*
G37*
G36*
X3850502Y2310201D02*
X3773625D01*
Y2246024D01*
X3815300D01*
X3828771Y2248704D01*
X3840192Y2256334D01*
X3847822Y2267755D01*
X3850502Y2281226D01*
Y2310201D01*
D02*
G37*
G36*
X3723626D02*
X3646749D01*
Y2281226D01*
X3649429Y2267755D01*
X3657059Y2256334D01*
X3668480Y2248704D01*
X3681950Y2246024D01*
X3723626D01*
Y2310201D01*
D02*
G37*
G36*
X3327000Y2225252D02*
Y2158600D01*
X3393652D01*
X3390526Y2170268D01*
X3378019Y2191931D01*
X3360331Y2209619D01*
X3338668Y2222126D01*
X3327000Y2225252D01*
D02*
G37*
G36*
X3277000D02*
X3265332Y2222126D01*
X3243669Y2209619D01*
X3225981Y2191931D01*
X3213474Y2170268D01*
X3210348Y2158600D01*
X3277000D01*
Y2225252D01*
D02*
G37*
G36*
X375000Y2313223D02*
Y2146415D01*
X541808D01*
X535583Y2177711D01*
X521035Y2212835D01*
X499913Y2244445D01*
X473030Y2271328D01*
X441420Y2292449D01*
X406296Y2306998D01*
X375000Y2313223D01*
D02*
G37*
G36*
X325000Y2313223D02*
X293704Y2306998D01*
X258580Y2292449D01*
X226970Y2271328D01*
X200087Y2244445D01*
X178966Y2212835D01*
X164417Y2177711D01*
X158192Y2146415D01*
X325000D01*
Y2313223D01*
D02*
G37*
G36*
X2006200Y2123652D02*
Y2057000D01*
X2072852D01*
X2069726Y2068668D01*
X2057219Y2090331D01*
X2039531Y2108019D01*
X2017868Y2120526D01*
X2006200Y2123652D01*
D02*
G37*
G36*
X1956200D02*
X1944532Y2120526D01*
X1922869Y2108019D01*
X1905181Y2090331D01*
X1892674Y2068668D01*
X1889548Y2057000D01*
X1956200D01*
Y2123652D01*
D02*
G37*
G36*
X3393652Y2108600D02*
X3327000D01*
Y2041948D01*
X3338668Y2045074D01*
X3360331Y2057581D01*
X3378019Y2075269D01*
X3390526Y2096932D01*
X3393652Y2108600D01*
D02*
G37*
G36*
X3277000D02*
X3210348D01*
X3213474Y2096932D01*
X3225981Y2075269D01*
X3243669Y2057581D01*
X3265332Y2045074D01*
X3277000Y2041948D01*
Y2108600D01*
D02*
G37*
G36*
X3268811Y2862500D02*
X3239189D01*
X3210577Y2854833D01*
X3184924Y2840023D01*
X3163978Y2819077D01*
X3149167Y2793423D01*
X3141500Y2764811D01*
Y2735189D01*
X3149167Y2706577D01*
X3163978Y2680924D01*
X3184924Y2659978D01*
X3195374Y2653944D01*
Y2560218D01*
X2597183Y1962027D01*
X2487976D01*
X2479675Y1963678D01*
X2346325D01*
X2334805Y1961387D01*
X2325039Y1954861D01*
X2318513Y1945095D01*
X2316222Y1933575D01*
Y1825625D01*
X2318513Y1814105D01*
X2325039Y1804339D01*
X2334805Y1797813D01*
X2346325Y1795522D01*
X2354373D01*
Y1727884D01*
X2346145Y1719656D01*
X2344359Y1716983D01*
X2340269Y1716170D01*
X2329515Y1708984D01*
X2221336D01*
X2210582Y1716170D01*
X2196926Y1718886D01*
X2104926D01*
X2091269Y1716170D01*
X2079692Y1708434D01*
X2071956Y1696857D01*
X2069240Y1683201D01*
Y1653201D01*
X2071956Y1639544D01*
X2079692Y1627967D01*
X2075192Y1615699D01*
X2067247Y1603808D01*
X2066131Y1598201D01*
X2235720D01*
X2234605Y1603808D01*
X2227315Y1614717D01*
X2230000Y1623164D01*
X2232941Y1627417D01*
X2329515D01*
X2340269Y1620231D01*
X2353925Y1617515D01*
X2359142D01*
Y1528886D01*
X2353925D01*
X2340269Y1526170D01*
X2328692Y1518434D01*
X2320956Y1506857D01*
X2318240Y1493200D01*
Y1463201D01*
X2320956Y1449544D01*
X2328692Y1437967D01*
X2340269Y1430231D01*
X2353925Y1427515D01*
X2359142D01*
Y800476D01*
X2359142Y800475D01*
X2362246Y784867D01*
X2371087Y771636D01*
X2531406Y611317D01*
X2526546Y599584D01*
X2433578D01*
Y612775D01*
X2431287Y624295D01*
X2424761Y634061D01*
X2414995Y640587D01*
X2403475Y642878D01*
X2270125D01*
X2258605Y640587D01*
X2248839Y634061D01*
X2242313Y624295D01*
X2240022Y612775D01*
Y504825D01*
X2242313Y493305D01*
X2248839Y483539D01*
X2258605Y477013D01*
X2270125Y474722D01*
X2403475D01*
X2414995Y477013D01*
X2424761Y483539D01*
X2431287Y493305D01*
X2433578Y504825D01*
Y518016D01*
X2557522D01*
Y504825D01*
X2559813Y493305D01*
X2566339Y483539D01*
X2576105Y477013D01*
X2587625Y474722D01*
X2720975D01*
X2732495Y477013D01*
X2742261Y483539D01*
X2748787Y493305D01*
X2751078Y504825D01*
Y612775D01*
X2748787Y624295D01*
X2742261Y634061D01*
X2732495Y640587D01*
X2720975Y642878D01*
X2615198D01*
X2440709Y817368D01*
Y1427515D01*
X2445925D01*
X2459582Y1430231D01*
X2471159Y1437967D01*
X2478894Y1449544D01*
X2481611Y1463201D01*
Y1493200D01*
X2478894Y1506857D01*
X2471159Y1518434D01*
X2459582Y1526170D01*
X2445925Y1528886D01*
X2440709D01*
Y1617515D01*
X2445925D01*
X2459582Y1620231D01*
X2471159Y1627967D01*
X2478894Y1639544D01*
X2481611Y1653201D01*
Y1683201D01*
X2478894Y1696857D01*
X2471627Y1707734D01*
Y1795522D01*
X2479675D01*
X2491195Y1797813D01*
X2500961Y1804339D01*
X2507487Y1814105D01*
X2509778Y1825625D01*
Y1844774D01*
X2621466D01*
X2643902Y1849237D01*
X2662922Y1861945D01*
X3295455Y2494479D01*
X3308164Y2513499D01*
X3312627Y2535934D01*
Y2653944D01*
X3323077Y2659978D01*
X3344023Y2680924D01*
X3358833Y2706577D01*
X3366500Y2735189D01*
Y2764811D01*
X3358833Y2793423D01*
X3344023Y2819077D01*
X3323077Y2840023D01*
X3297423Y2854833D01*
X3268811Y2862500D01*
D02*
G37*
G36*
X2072852Y2007000D02*
X2006200D01*
Y1940348D01*
X2017868Y1943474D01*
X2039531Y1955981D01*
X2057219Y1973669D01*
X2069726Y1995332D01*
X2072852Y2007000D01*
D02*
G37*
G36*
X1956200D02*
X1889548D01*
X1892674Y1995332D01*
X1905181Y1973669D01*
X1922869Y1955981D01*
X1944532Y1943474D01*
X1956200Y1940348D01*
Y2007000D01*
D02*
G37*
G36*
X325000Y2096415D02*
X158192D01*
X164417Y2065119D01*
X178966Y2029995D01*
X200087Y1998385D01*
X226970Y1971502D01*
X258580Y1950380D01*
X293704Y1935832D01*
X325000Y1929607D01*
Y2096415D01*
D02*
G37*
G36*
X541808D02*
X375000D01*
Y1929607D01*
X406296Y1935832D01*
X441420Y1950380D01*
X473030Y1971502D01*
X499913Y1998385D01*
X521035Y2029995D01*
X535583Y2065119D01*
X541808Y2096415D01*
D02*
G37*
G36*
X2251075Y1968776D02*
X2209400D01*
Y1904600D01*
X2286276D01*
Y1933575D01*
X2283597Y1947046D01*
X2275966Y1958466D01*
X2264546Y1966097D01*
X2251075Y1968776D01*
D02*
G37*
G36*
X2159400D02*
X2117725D01*
X2104254Y1966097D01*
X2092834Y1958466D01*
X2085203Y1947046D01*
X2082524Y1933575D01*
Y1904600D01*
X2159400D01*
Y1968776D01*
D02*
G37*
G36*
X2286276Y1854600D02*
X2209400D01*
Y1790424D01*
X2251075D01*
X2264546Y1793103D01*
X2275966Y1800734D01*
X2283597Y1812154D01*
X2286276Y1825625D01*
Y1854600D01*
D02*
G37*
G36*
X2159400D02*
X2082524D01*
Y1825625D01*
X2085203Y1812154D01*
X2092834Y1800734D01*
X2104254Y1793103D01*
X2117725Y1790424D01*
X2159400D01*
Y1854600D01*
D02*
G37*
G36*
X445750Y1892165D02*
X254250D01*
Y1700665D01*
X445750D01*
Y1892165D01*
D02*
G37*
G36*
X1681500Y2677500D02*
X1426500D01*
Y2422500D01*
X1598589D01*
X1661374Y2359716D01*
Y1995000D01*
X1560000D01*
Y1655000D01*
X1880000D01*
Y1995000D01*
X1778627D01*
Y2384000D01*
X1774164Y2406435D01*
X1761455Y2425455D01*
X1681500Y2505411D01*
Y2677500D01*
D02*
G37*
G36*
X3485100Y1713177D02*
X3443425D01*
Y1649001D01*
X3520302D01*
Y1677976D01*
X3517622Y1691446D01*
X3509992Y1702867D01*
X3498571Y1710497D01*
X3485100Y1713177D01*
D02*
G37*
G36*
X3393426D02*
X3351750D01*
X3338280Y1710497D01*
X3326859Y1702867D01*
X3319229Y1691446D01*
X3316549Y1677976D01*
Y1649001D01*
X3393426D01*
Y1713177D01*
D02*
G37*
G36*
X3167600D02*
X3138625D01*
Y1636301D01*
X3202802D01*
Y1677976D01*
X3200122Y1691446D01*
X3192492Y1702867D01*
X3181071Y1710497D01*
X3167600Y1713177D01*
D02*
G37*
G36*
X3088626D02*
X3059650D01*
X3046180Y1710497D01*
X3034759Y1702867D01*
X3027129Y1691446D01*
X3024449Y1677976D01*
Y1636301D01*
X3088626D01*
Y1713177D01*
D02*
G37*
G36*
X3520302Y1599001D02*
X3443425D01*
Y1534824D01*
X3485100D01*
X3498571Y1537504D01*
X3509992Y1545134D01*
X3517622Y1556555D01*
X3520302Y1570026D01*
Y1599001D01*
D02*
G37*
G36*
X3393426D02*
X3316549D01*
Y1570026D01*
X3319229Y1556555D01*
X3326859Y1545134D01*
X3338280Y1537504D01*
X3351750Y1534824D01*
X3393426D01*
Y1599001D01*
D02*
G37*
G36*
X3202802Y1586301D02*
X3138625D01*
Y1509424D01*
X3167600D01*
X3181071Y1512104D01*
X3192492Y1519734D01*
X3200122Y1531155D01*
X3202802Y1544626D01*
Y1586301D01*
D02*
G37*
G36*
X3088626D02*
X3024449D01*
Y1544626D01*
X3027129Y1531155D01*
X3034759Y1519734D01*
X3046180Y1512104D01*
X3059650Y1509424D01*
X3088626D01*
Y1586301D01*
D02*
G37*
G36*
X362606Y1292165D02*
X337394D01*
X313042Y1285639D01*
X291208Y1273034D01*
X273381Y1255207D01*
X260775Y1233373D01*
X254250Y1209020D01*
Y1183809D01*
X260775Y1159457D01*
X273381Y1137623D01*
X291208Y1119796D01*
X313042Y1107190D01*
X337394Y1100665D01*
X362606D01*
X386958Y1107190D01*
X408792Y1119796D01*
X426619Y1137623D01*
X439225Y1159457D01*
X445750Y1183809D01*
Y1209020D01*
X439225Y1233373D01*
X426619Y1255207D01*
X408792Y1273034D01*
X386958Y1285639D01*
X362606Y1292165D01*
D02*
G37*
G36*
X3817766Y1090877D02*
X3788791D01*
Y1014001D01*
X3852967D01*
Y1055676D01*
X3850288Y1069146D01*
X3842657Y1080567D01*
X3831237Y1088197D01*
X3817766Y1090877D01*
D02*
G37*
G36*
X3738791D02*
X3709816D01*
X3696345Y1088197D01*
X3684925Y1080567D01*
X3677294Y1069146D01*
X3674614Y1055676D01*
Y1014001D01*
X3738791D01*
Y1090877D01*
D02*
G37*
G36*
X362606Y1592165D02*
X337394D01*
X313042Y1585639D01*
X291208Y1573034D01*
X273381Y1555207D01*
X260775Y1533373D01*
X254250Y1509021D01*
Y1483809D01*
X260775Y1459457D01*
X273381Y1437623D01*
X291208Y1419796D01*
X313042Y1407190D01*
X337394Y1400665D01*
X362606D01*
X386958Y1407190D01*
X408792Y1419796D01*
X426619Y1437623D01*
X426715Y1437788D01*
X663701D01*
X967945Y1133545D01*
X986965Y1120836D01*
X1009400Y1116373D01*
X1560000D01*
Y1005000D01*
X1880000D01*
Y1244020D01*
X1936725D01*
X1956234Y1247901D01*
X1972773Y1258952D01*
X2141042Y1427221D01*
X2150926D01*
X2152403Y1427515D01*
X2196926D01*
X2210582Y1430231D01*
X2222159Y1437967D01*
X2229895Y1449544D01*
X2232611Y1463201D01*
Y1493200D01*
X2229895Y1506857D01*
X2222159Y1518434D01*
X2226659Y1530702D01*
X2234605Y1542593D01*
X2235720Y1548201D01*
X2066131D01*
X2067247Y1542593D01*
X2075192Y1530702D01*
X2079692Y1518434D01*
X2071956Y1506857D01*
X2070832Y1501203D01*
X1915609Y1345980D01*
X1830000D01*
X1825075Y1345000D01*
X1560000D01*
Y1233626D01*
X1033684D01*
X729440Y1537870D01*
X710420Y1550579D01*
X687985Y1555041D01*
X426715D01*
X426619Y1555207D01*
X408792Y1573034D01*
X386958Y1585639D01*
X362606Y1592165D01*
D02*
G37*
G36*
X375000Y1063223D02*
Y896415D01*
X541808D01*
X535583Y927711D01*
X521035Y962834D01*
X499913Y994445D01*
X473030Y1021328D01*
X441420Y1042449D01*
X406296Y1056998D01*
X375000Y1063223D01*
D02*
G37*
G36*
X325000D02*
X293704Y1056998D01*
X258580Y1042449D01*
X226970Y1021328D01*
X200087Y994445D01*
X178966Y962834D01*
X164417Y927711D01*
X158192Y896415D01*
X325000D01*
Y1063223D01*
D02*
G37*
G36*
X3852967Y964001D02*
X3788791D01*
Y887124D01*
X3817766D01*
X3831237Y889804D01*
X3842657Y897434D01*
X3850288Y908855D01*
X3852967Y922326D01*
Y964001D01*
D02*
G37*
G36*
X3738791D02*
X3674614D01*
Y922326D01*
X3677294Y908855D01*
X3684925Y897434D01*
X3696345Y889804D01*
X3709816Y887124D01*
X3738791D01*
Y964001D01*
D02*
G37*
G36*
X3793490Y743114D02*
X3784200D01*
Y704450D01*
X3822864D01*
Y713740D01*
X3820628Y724981D01*
X3814261Y734511D01*
X3804731Y740878D01*
X3793490Y743114D01*
D02*
G37*
G36*
X3734200D02*
X3724910D01*
X3713669Y740878D01*
X3704139Y734511D01*
X3697772Y724981D01*
X3695536Y713740D01*
Y704450D01*
X3734200D01*
Y743114D01*
D02*
G37*
G36*
X541808Y846415D02*
X375000D01*
Y679607D01*
X406296Y685832D01*
X441420Y700380D01*
X473030Y721502D01*
X499913Y748385D01*
X521035Y779995D01*
X535583Y815119D01*
X541808Y846415D01*
D02*
G37*
G36*
X325000D02*
X158192D01*
X164417Y815119D01*
X178966Y779995D01*
X200087Y748385D01*
X226970Y721502D01*
X258580Y700380D01*
X293704Y685832D01*
X325000Y679607D01*
Y846415D01*
D02*
G37*
G36*
X3822864Y654450D02*
X3784200D01*
Y615786D01*
X3793490D01*
X3804731Y618022D01*
X3814261Y624389D01*
X3820628Y633919D01*
X3822864Y645160D01*
Y654450D01*
D02*
G37*
G36*
X3734200D02*
X3695536D01*
Y645160D01*
X3697772Y633919D01*
X3704139Y624389D01*
X3713669Y618022D01*
X3724910Y615786D01*
X3734200D01*
Y654450D01*
D02*
G37*
G36*
X2174875Y647976D02*
X2133200D01*
Y583800D01*
X2210076D01*
Y612775D01*
X2207397Y626246D01*
X2199766Y637666D01*
X2188346Y645297D01*
X2174875Y647976D01*
D02*
G37*
G36*
X2083200D02*
X2041525D01*
X2028054Y645297D01*
X2016634Y637666D01*
X2009003Y626246D01*
X2006324Y612775D01*
Y583800D01*
X2083200D01*
Y647976D01*
D02*
G37*
G36*
X2210076Y533800D02*
X2133200D01*
Y469624D01*
X2174875D01*
X2188346Y472303D01*
X2199766Y479934D01*
X2207397Y491354D01*
X2210076Y504825D01*
Y533800D01*
D02*
G37*
G36*
X2083200D02*
X2006324D01*
Y504825D01*
X2009003Y491354D01*
X2016634Y479934D01*
X2028054Y472303D01*
X2041525Y469624D01*
X2083200D01*
Y533800D01*
D02*
G37*
G36*
X3563220Y477120D02*
X3517500D01*
Y431400D01*
X3563220D01*
Y477120D01*
D02*
G37*
G36*
X3467500D02*
X3421780D01*
Y431400D01*
X3467500D01*
Y477120D01*
D02*
G37*
G36*
X2949575Y642878D02*
X2816225D01*
X2804705Y640587D01*
X2794939Y634061D01*
X2788413Y624295D01*
X2786122Y612775D01*
Y504825D01*
X2788413Y493305D01*
X2794939Y483539D01*
X2804705Y477013D01*
X2816225Y474722D01*
X2887673D01*
X2995647Y366747D01*
X3013840Y354591D01*
X3035300Y350323D01*
X3050236D01*
X3053639Y337623D01*
X3040469Y330019D01*
X3022781Y312331D01*
X3010274Y290668D01*
X3007148Y279000D01*
X3190452D01*
X3187326Y290668D01*
X3174819Y312331D01*
X3157131Y330019D01*
X3143961Y337623D01*
X3147364Y350323D01*
X3236280D01*
Y340680D01*
X3367720D01*
Y472120D01*
X3236280D01*
Y462477D01*
X3058528D01*
X2979678Y541327D01*
Y612775D01*
X2977387Y624295D01*
X2970861Y634061D01*
X2961095Y640587D01*
X2949575Y642878D01*
D02*
G37*
G36*
X3563220Y381400D02*
X3517500D01*
Y335680D01*
X3563220D01*
Y381400D01*
D02*
G37*
G36*
X3467500D02*
X3421780D01*
Y335680D01*
X3467500D01*
Y381400D01*
D02*
G37*
G36*
X3190452Y229000D02*
X3123800D01*
Y162348D01*
X3135468Y165474D01*
X3157131Y177981D01*
X3174819Y195669D01*
X3187326Y217332D01*
X3190452Y229000D01*
D02*
G37*
G36*
X3073800D02*
X3007148D01*
X3010274Y217332D01*
X3022781Y195669D01*
X3040469Y177981D01*
X3062132Y165474D01*
X3073800Y162348D01*
Y229000D01*
D02*
G37*
%LPD*%
D10*
X2336800Y558800D02*
D03*
X2108200D02*
D03*
X3429000Y863600D02*
D03*
X3200400D02*
D03*
X2882900Y558800D02*
D03*
X2654300D02*
D03*
X2184400Y1879600D02*
D03*
X2413000D02*
D03*
X3748625Y2335201D02*
D03*
X3977225D02*
D03*
X3418425Y1624001D02*
D03*
X3647025D02*
D03*
D11*
X3759200Y679450D02*
D03*
Y539750D02*
D03*
D12*
X3302000Y406400D02*
D03*
X3492500D02*
D03*
D13*
X3398520Y609600D02*
D03*
D14*
X2743660Y1361001D02*
D03*
Y1125001D02*
D03*
D15*
X3348825Y1370001D02*
D03*
X3538825D02*
D03*
Y1130001D02*
D03*
X3443825D02*
D03*
X3348825D02*
D03*
X3443825Y1370001D02*
D03*
D16*
X3113625Y1611301D02*
D03*
Y1382701D02*
D03*
X3763791Y989001D02*
D03*
Y1217601D02*
D03*
X3956931Y1527506D02*
D03*
Y1756106D02*
D03*
D17*
X2399925Y1668201D02*
D03*
Y1478200D02*
D03*
X2150926D02*
D03*
Y1573201D02*
D03*
Y1668201D02*
D03*
D18*
X1720000Y1175000D02*
D03*
Y1825000D02*
D03*
D19*
X2413000Y1903401D02*
X2621466D01*
X2387600Y1678201D02*
X2413000Y1703601D01*
Y1879600D01*
X2844800Y812800D02*
X3136900D01*
X3187700Y863600D02*
X3200400D01*
X3136900Y812800D02*
X3187700Y863600D01*
X2891160Y1371851D02*
X3102776D01*
X2891160Y1422400D02*
Y1925960D01*
X2844800Y1422400D02*
X2891160D01*
Y1925960D02*
X2895600Y1930400D01*
X2184400Y2590800D02*
X2343600Y2750000D01*
X3000000D01*
X1009400Y1175000D02*
X1720000D01*
X350000Y1496415D02*
X687985D01*
X1009400Y1175000D01*
X2743660Y1125001D02*
X3346326D01*
X3348825Y1127500D01*
Y1130001D01*
X3107275Y1376351D02*
X3346326D01*
X3348825Y1373851D01*
Y1370001D02*
Y1373851D01*
X3102776Y1371851D02*
X3107275Y1376351D01*
X4016000Y2720234D02*
Y2750000D01*
X3977225Y2335201D02*
Y2681460D01*
X4016000Y2720234D01*
X3254000Y2535934D02*
Y2750000D01*
X2621466Y1903401D02*
X3254000Y2535934D01*
X1554000Y2550000D02*
X1720000Y2384000D01*
Y1825000D02*
Y2384000D01*
D20*
X2150926Y1668201D02*
X2397600D01*
X2336800Y558800D02*
X2641600D01*
X2399925Y800475D02*
X2641600Y558800D01*
X2399925Y800475D02*
Y1478200D01*
X2397600Y1668201D02*
X2399925D01*
X2387600Y1678201D02*
X2397600Y1668201D01*
X2399925Y1478200D02*
Y1668201D01*
D21*
X3538825Y767685D02*
Y863600D01*
Y1130001D01*
X3429000Y863600D02*
X3538825D01*
X3398520Y627380D02*
X3538825Y767685D01*
X3398520Y609600D02*
Y627380D01*
X3035300Y406400D02*
X3302000D01*
X2882900Y558800D02*
X3035300Y406400D01*
X3398520Y609600D02*
X3556000D01*
X3625850Y539750D02*
X3759200D01*
X3556000Y609600D02*
X3625850Y539750D01*
D22*
X3448826Y1287367D02*
X3483973Y1252220D01*
X3730291D01*
X3448826Y1287367D02*
Y1365000D01*
X4080500Y1584547D02*
Y2231926D01*
X3977225Y2335201D02*
X4080500Y2231926D01*
X3978825Y1549400D02*
X4045353D01*
X4080500Y1584547D01*
X3956931Y1527506D02*
X3978825Y1549400D01*
X3659725Y1624001D02*
X3791831Y1756106D01*
X3956931D01*
X3647025Y1624001D02*
X3659725D01*
X3797291Y1251101D02*
Y1355166D01*
X3956931Y1514806D02*
Y1527506D01*
X3797291Y1355166D02*
X3956931Y1514806D01*
X3763791Y1217601D02*
X3797291Y1251101D01*
X3763791Y1217601D02*
Y1218720D01*
X3730291Y1252220D02*
X3763791Y1218720D01*
X3443825Y1370001D02*
X3448826Y1365000D01*
X3538825Y1370001D02*
Y1400001D01*
X3647025Y1478201D02*
Y1624001D01*
X3573825Y1405001D02*
X3647025Y1478201D01*
X3543826Y1405001D02*
X3573825D01*
X3538825Y1400001D02*
X3543826Y1405001D01*
X1830000Y1295000D02*
X1936725D01*
X2119925Y1478200D02*
X2150926D01*
X1936725Y1295000D02*
X2119925Y1478200D01*
X1720000Y1185000D02*
X1830000Y1295000D01*
X1720000Y1175000D02*
Y1185000D01*
D23*
X1554000Y2550000D02*
X1604000Y2600000D01*
D24*
X350000Y1796415D02*
D03*
D25*
Y1496415D02*
D03*
Y1196415D02*
D03*
D26*
Y2121415D02*
D03*
Y871415D02*
D03*
D27*
X4016000Y2750000D02*
D03*
X3254000D02*
D03*
X3508000D02*
D03*
X3762000D02*
D03*
D28*
X3000000D02*
D03*
D29*
X1554000Y2550000D02*
D03*
D30*
X1046000D02*
D03*
D31*
X350000Y2650000D02*
D03*
D32*
X3098800Y254000D02*
D03*
X2844800Y812800D02*
D03*
Y1422400D02*
D03*
X2184400Y2590800D02*
D03*
X1981200Y2032000D02*
D03*
X3048000Y965200D02*
D03*
X3302000Y2133600D02*
D03*
D33*
X2895600Y1930400D02*
D03*
%TF.MD5,a01e8e078507ff84d4f8b71766be6dcc*%
M02*
