%TF.GenerationSoftware,Altium Limited,Altium Designer,24.0.1 (36)*%
G04 Layer_Color=16711935*
%FSLAX45Y45*%
%MOMM*%
%TF.SameCoordinates,EA0AF7FB-948C-45CD-8237-9CE77542C851*%
%TF.FilePolarity,Negative*%
%TF.FileFunction,Soldermask,Bot*%
%TF.Part,Single*%
G01*
G75*
%TA.AperFunction,ComponentPad*%
%ADD48R,1.71820X1.71820*%
%ADD49C,1.71820*%
%ADD50C,3.56320*%
%ADD51C,2.05320*%
%ADD52R,2.05320X2.05320*%
%ADD53R,2.35320X2.35320*%
%ADD54C,2.35320*%
%ADD55C,5.20320*%
%TA.AperFunction,ViaPad*%
%ADD56C,1.60320*%
%ADD57C,1.35320*%
D48*
X350000Y1796415D02*
D03*
D49*
Y1496415D02*
D03*
Y1196415D02*
D03*
D50*
Y2121415D02*
D03*
Y871415D02*
D03*
D51*
X4016000Y2750000D02*
D03*
X3254000D02*
D03*
X3508000D02*
D03*
X3762000D02*
D03*
D52*
X3000000D02*
D03*
D53*
X1554000Y2550000D02*
D03*
D54*
X1046000D02*
D03*
D55*
X350000Y2650000D02*
D03*
D56*
X3098800Y254000D02*
D03*
X2844800Y812800D02*
D03*
Y1422400D02*
D03*
X2184400Y2590800D02*
D03*
X1981200Y2032000D02*
D03*
X3048000Y965200D02*
D03*
X3302000Y2133600D02*
D03*
D57*
X2895600Y1930400D02*
D03*
%TF.MD5,12300b5f4108e21a616c48331a19ad45*%
M02*
