%TF.GenerationSoftware,Altium Limited,Altium Designer,24.0.1 (36)*%
G04 Layer_Color=2752767*
%FSLAX45Y45*%
%MOMM*%
%TF.SameCoordinates,0E29F696-F137-483D-8A73-7D746D5A856F*%
%TF.FilePolarity,Positive*%
%TF.FileFunction,Drawing*%
%TF.Part,Single*%
G01*
G75*
%TA.AperFunction,NonConductor*%
%ADD40C,0.12700*%
%ADD43C,0.10160*%
%ADD87C,0.16933*%
D40*
X4586000Y1350200D02*
X4535200Y1451800D01*
X4636800D01*
X4586000Y1350200D01*
X4476000D02*
X4425200Y1451800D01*
X4526800D01*
X4476000Y1350200D01*
X4531000Y1405200D02*
X4480200Y1506800D01*
X4581800D01*
X4531000Y1405200D01*
X4421000D02*
X4370200Y1506800D01*
X4471800D01*
X4421000Y1405200D01*
X4531000Y1295200D02*
X4480200Y1396800D01*
X4581800D01*
X4531000Y1295200D01*
X4586000Y1240200D02*
X4535200Y1341800D01*
X4636800D01*
X4586000Y1240200D01*
X4476000D02*
X4425200Y1341800D01*
X4526800D01*
X4476000Y1240200D01*
X4421000Y1295200D02*
X4370200Y1396800D01*
X4471800D01*
X4421000Y1295200D01*
X4531000Y1185200D02*
X4480200Y1286800D01*
X4581800D01*
X4531000Y1185200D01*
X4366000Y1350200D02*
X4315200Y1451800D01*
X4416800D01*
X4366000Y1350200D01*
Y1240200D02*
X4315200Y1341800D01*
X4416800D01*
X4366000Y1240200D01*
X4421000Y1185200D02*
X4370200Y1286800D01*
X4471800D01*
X4421000Y1185200D01*
X3073400Y327485D02*
Y429085D01*
X3175000D01*
Y327485D01*
X3073400D01*
X3093720Y347805D02*
Y408765D01*
X3154680D01*
Y347805D01*
X3093720D01*
X3200400Y327485D02*
Y429085D01*
X3302000D01*
Y327485D01*
X3200400D01*
X3220720Y347805D02*
Y408765D01*
X3281680D01*
Y347805D01*
X3220720D01*
X3327400Y327485D02*
Y429085D01*
X3429000D01*
Y327485D01*
X3327400D01*
X3347720Y347805D02*
Y408765D01*
X3408680D01*
Y347805D01*
X3347720D01*
X567200Y1789000D02*
X618000Y1839800D01*
X668800Y1789000D01*
X618000Y1738200D01*
X567200Y1789000D01*
Y1211000D02*
X618000Y1261800D01*
X668800Y1211000D01*
X618000Y1160200D01*
X567200Y1211000D01*
X617200Y1017200D02*
X642600D01*
X668000Y1042600D01*
X693400Y1017200D01*
X718800D01*
Y1042600D01*
X693400Y1068000D01*
X718800Y1093400D01*
Y1118800D01*
X693400D01*
X668000Y1093400D01*
X642600Y1118800D01*
X617200D01*
Y1093400D01*
X642600Y1068000D01*
X617200Y1042600D01*
Y1017200D01*
Y1881200D02*
X642600D01*
X668000Y1906600D01*
X693400Y1881200D01*
X718800D01*
Y1906600D01*
X693400Y1932000D01*
X718800Y1957400D01*
Y1982800D01*
X693400D01*
X668000Y1957400D01*
X642600Y1982800D01*
X617200D01*
Y1957400D01*
X642600Y1932000D01*
X617200Y1906600D01*
Y1881200D01*
X199200Y1017200D02*
X224600Y1068000D01*
X199200Y1118800D01*
X250000Y1093400D01*
X300800Y1118800D01*
X275400Y1068000D01*
X300800Y1017200D01*
X250000Y1042600D01*
X199200Y1017200D01*
Y1881200D02*
X224600Y1932000D01*
X199200Y1982800D01*
X250000Y1957400D01*
X300800Y1982800D01*
X275400Y1932000D01*
X300800Y1881200D01*
X250000Y1906600D01*
X199200Y1881200D01*
X299200Y2599200D02*
Y2700800D01*
X400800D01*
Y2599200D01*
X299200D01*
X6599200Y299200D02*
Y400800D01*
X6700800D01*
Y299200D01*
X6599200D01*
X914400Y1346200D02*
Y1320800D01*
X965200D01*
Y1346200D01*
X990600D01*
Y1397000D01*
X965200D01*
Y1422400D01*
X914400D01*
Y1397000D01*
X889000D01*
Y1346200D01*
X914400D01*
Y1574800D02*
Y1549400D01*
X965200D01*
Y1574800D01*
X990600D01*
Y1625600D01*
X965200D01*
Y1651000D01*
X914400D01*
Y1625600D01*
X889000D01*
Y1574800D01*
X914400D01*
X2339340Y2763520D02*
Y2738120D01*
X2390140D01*
Y2763520D01*
X2415540D01*
Y2814320D01*
X2390140D01*
Y2839720D01*
X2339340D01*
Y2814320D01*
X2313940D01*
Y2763520D01*
X2339340D01*
X2578100Y1879600D02*
Y1854200D01*
X2628900D01*
Y1879600D01*
X2654300D01*
Y1930400D01*
X2628900D01*
Y1955800D01*
X2578100D01*
Y1930400D01*
X2552700D01*
Y1879600D01*
X2578100D01*
X5628640Y1666240D02*
Y1640840D01*
X5679440D01*
Y1666240D01*
X5704840D01*
Y1717040D01*
X5679440D01*
Y1742440D01*
X5628640D01*
Y1717040D01*
X5603240D01*
Y1666240D01*
X5628640D01*
X1092200Y340360D02*
Y314960D01*
X1143000D01*
Y340360D01*
X1168400D01*
Y391160D01*
X1143000D01*
Y416560D01*
X1092200D01*
Y391160D01*
X1066800D01*
Y340360D01*
X1092200D01*
X678300Y361414D02*
Y336014D01*
X729100D01*
Y361414D01*
X754500D01*
Y412214D01*
X729100D01*
Y437614D01*
X678300D01*
Y412214D01*
X652900D01*
Y361414D01*
X678300D01*
X1262500Y311480D02*
Y286080D01*
X1313300D01*
Y311480D01*
X1338700D01*
Y362280D01*
X1313300D01*
Y387680D01*
X1262500D01*
Y362280D01*
X1237100D01*
Y311480D01*
X1262500D01*
X1715080Y1658620D02*
Y1633220D01*
X1765880D01*
Y1658620D01*
X1791280D01*
Y1709420D01*
X1765880D01*
Y1734820D01*
X1715080D01*
Y1709420D01*
X1689680D01*
Y1658620D01*
X1715080D01*
X1811020Y2128520D02*
Y2103120D01*
X1861820D01*
Y2128520D01*
X1887220D01*
Y2179320D01*
X1861820D01*
Y2204720D01*
X1811020D01*
Y2179320D01*
X1785620D01*
Y2128520D01*
X1811020D01*
X2242820Y2207260D02*
Y2181860D01*
X2293620D01*
Y2207260D01*
X2319020D01*
Y2258060D01*
X2293620D01*
Y2283460D01*
X2242820D01*
Y2258060D01*
X2217420D01*
Y2207260D01*
X2242820D01*
X5293360Y571500D02*
Y546100D01*
X5344160D01*
Y571500D01*
X5369560D01*
Y622300D01*
X5344160D01*
Y647700D01*
X5293360D01*
Y622300D01*
X5267960D01*
Y571500D01*
X5293360D01*
X2600960Y1630680D02*
Y1605280D01*
X2651760D01*
Y1630680D01*
X2677160D01*
Y1681480D01*
X2651760D01*
Y1706880D01*
X2600960D01*
Y1681480D01*
X2575560D01*
Y1630680D01*
X2600960D01*
X3670300Y850900D02*
Y825500D01*
X3721100D01*
Y850900D01*
X3746500D01*
Y901700D01*
X3721100D01*
Y927100D01*
X3670300D01*
Y901700D01*
X3644900D01*
Y850900D01*
X3670300D01*
X5420360Y855980D02*
Y830580D01*
X5471160D01*
Y855980D01*
X5496560D01*
Y906780D01*
X5471160D01*
Y932180D01*
X5420360D01*
Y906780D01*
X5394960D01*
Y855980D01*
X5420360D01*
X5421600Y1450600D02*
Y1425200D01*
X5472400D01*
Y1450600D01*
X5497800D01*
Y1501400D01*
X5472400D01*
Y1526800D01*
X5421600D01*
Y1501400D01*
X5396200D01*
Y1450600D01*
X5421600D01*
X965200Y1244600D02*
Y1219200D01*
X1016000D01*
Y1244600D01*
X1041400D01*
Y1295400D01*
X1016000D01*
Y1320800D01*
X965200D01*
Y1295400D01*
X939800D01*
Y1244600D01*
X965200D01*
X3728720Y2095500D02*
Y2070100D01*
X3779520D01*
Y2095500D01*
X3804920D01*
Y2146300D01*
X3779520D01*
Y2171700D01*
X3728720D01*
Y2146300D01*
X3703320D01*
Y2095500D01*
X3728720D01*
X2405500Y317480D02*
Y292080D01*
X2456300D01*
Y317480D01*
X2481700D01*
Y368280D01*
X2456300D01*
Y393680D01*
X2405500D01*
Y368280D01*
X2380100D01*
Y317480D01*
X2405500D01*
X1821300Y311480D02*
Y286080D01*
X1872100D01*
Y311480D01*
X1897500D01*
Y362280D01*
X1872100D01*
Y387680D01*
X1821300D01*
Y362280D01*
X1795900D01*
Y311480D01*
X1821300D01*
X2379980Y2077720D02*
Y2052320D01*
X2430780D01*
Y2077720D01*
X2456180D01*
Y2128520D01*
X2430780D01*
Y2153920D01*
X2379980D01*
Y2128520D01*
X2354580D01*
Y2077720D01*
X2379980D01*
X1037880Y1709420D02*
Y1684020D01*
X1088680D01*
Y1709420D01*
X1114080D01*
Y1760220D01*
X1088680D01*
Y1785620D01*
X1037880D01*
Y1760220D01*
X1012480D01*
Y1709420D01*
X1037880D01*
D43*
X2214880Y1473200D02*
G03*
X2214880Y1473200I-30480J0D01*
G01*
X2226280Y1244600D02*
G03*
X2226280Y1244600I-30480J0D01*
G01*
X6062980Y635000D02*
G03*
X6062980Y635000I-30480J0D01*
G01*
Y952500D02*
G03*
X6062980Y952500I-30480J0D01*
G01*
D87*
X6606800Y2750000D02*
G03*
X6606800Y2750000I-50800J0D01*
G01*
X6352800D02*
G03*
X6352800Y2750000I-50800J0D01*
G01*
X4828800D02*
G03*
X4828800Y2750000I-50800J0D01*
G01*
X4574800D02*
G03*
X4574800Y2750000I-50800J0D01*
G01*
X4320800D02*
G03*
X4320800Y2750000I-50800J0D01*
G01*
X4066800D02*
G03*
X4066800Y2750000I-50800J0D01*
G01*
X3050800D02*
G03*
X3050800Y2750000I-50800J0D01*
G01*
X3304800D02*
G03*
X3304800Y2750000I-50800J0D01*
G01*
X3558800D02*
G03*
X3558800Y2750000I-50800J0D01*
G01*
X3812800D02*
G03*
X3812800Y2750000I-50800J0D01*
G01*
X5082800D02*
G03*
X5082800Y2750000I-50800J0D01*
G01*
X5336800D02*
G03*
X5336800Y2750000I-50800J0D01*
G01*
X5590800D02*
G03*
X5590800Y2750000I-50800J0D01*
G01*
X5844800D02*
G03*
X5844800Y2750000I-50800J0D01*
G01*
X6098800D02*
G03*
X6098800Y2750000I-50800J0D01*
G01*
X1092200Y965200D02*
G03*
X1092200Y965200I-50800J0D01*
G01*
X1346200D02*
G03*
X1346200Y965200I-50800J0D01*
G01*
X1600200D02*
G03*
X1600200Y965200I-50800J0D01*
G01*
X2235200Y1473200D02*
G03*
X2235200Y1473200I-50800J0D01*
G01*
X2246600Y1244600D02*
G03*
X2246600Y1244600I-50800J0D01*
G01*
X6083300Y635000D02*
G03*
X6083300Y635000I-50800J0D01*
G01*
Y952500D02*
G03*
X6083300Y952500I-50800J0D01*
G01*
%TF.MD5,b74ec2d855980eda5339f09cd85c7257*%
M02*
