%TF.GenerationSoftware,Altium Limited,Altium Designer,24.0.1 (36)*%
G04 Layer_Color=0*
%FSLAX45Y45*%
%MOMM*%
%TF.SameCoordinates,0E29F696-F137-483D-8A73-7D746D5A856F*%
%TF.FilePolarity,Positive*%
%TF.FileFunction,Plated,1,2,PTH,Drill*%
%TF.Part,Single*%
G01*
G75*
%TA.AperFunction,ComponentDrill*%
%ADD78C,0.30000*%
%ADD79C,0.85000*%
%ADD80C,0.85000*%
%ADD81C,0.93000*%
%ADD82O,1.70000X0.60000*%
%ADD83O,1.40000X0.60000*%
%TA.AperFunction,ViaDrill,NotFilled*%
%ADD84C,0.75000*%
%ADD85C,0.40000*%
D78*
X4586000Y1401000D02*
D03*
X4476000D02*
D03*
X4531000Y1456000D02*
D03*
X4421000D02*
D03*
X4531000Y1346000D02*
D03*
X4586000Y1291000D02*
D03*
X4476000D02*
D03*
X4421000Y1346000D02*
D03*
X4531000Y1236000D02*
D03*
X4366000Y1401000D02*
D03*
Y1291000D02*
D03*
X4421000Y1236000D02*
D03*
D79*
X6556000Y2750000D02*
D03*
X6302000D02*
D03*
X5032000D02*
D03*
X5286000D02*
D03*
X5540000D02*
D03*
X5794000D02*
D03*
X6048000D02*
D03*
D80*
X4778000D02*
D03*
X4524000D02*
D03*
X4270000D02*
D03*
X4016000D02*
D03*
X3000000D02*
D03*
X3254000D02*
D03*
X3508000D02*
D03*
X3762000D02*
D03*
X1041400Y965200D02*
D03*
X1295400D02*
D03*
X1549400D02*
D03*
D81*
X3124200Y378285D02*
D03*
X3251200D02*
D03*
X3378200D02*
D03*
D82*
X668000Y1068000D02*
D03*
Y1932000D02*
D03*
D83*
X250000Y1068000D02*
D03*
Y1932000D02*
D03*
D84*
X2184400Y1473200D02*
D03*
X2195800Y1244600D02*
D03*
X6032500Y635000D02*
D03*
Y952500D02*
D03*
D85*
X939800Y1371600D02*
D03*
Y1600200D02*
D03*
X2364740Y2788920D02*
D03*
X2603500Y1905000D02*
D03*
X5654040Y1691640D02*
D03*
X1117600Y365760D02*
D03*
X703700Y386814D02*
D03*
X1287900Y336880D02*
D03*
X1740480Y1684020D02*
D03*
X1836420Y2153920D02*
D03*
X2268220Y2232660D02*
D03*
X5318760Y596900D02*
D03*
X2626360Y1656080D02*
D03*
X3695700Y876300D02*
D03*
X5445760Y881380D02*
D03*
X5447000Y1476000D02*
D03*
X990600Y1270000D02*
D03*
X3754120Y2120900D02*
D03*
X2430900Y342880D02*
D03*
X1846700Y336880D02*
D03*
X2405380Y2103120D02*
D03*
X1063280Y1734820D02*
D03*
%TF.MD5,e4d74619cd604d5bf6d5a81c7665f4b3*%
M02*
