%TF.GenerationSoftware,Altium Limited,Altium Designer,24.0.1 (36)*%
G04 Layer_Color=128*
%FSLAX45Y45*%
%MOMM*%
%TF.SameCoordinates,0E29F696-F137-483D-8A73-7D746D5A856F*%
%TF.FilePolarity,Positive*%
%TF.FileFunction,Drillmap*%
%TF.Part,Single*%
G01*
G75*
%TA.AperFunction,NonConductor*%
%ADD40C,0.12700*%
D40*
X4571000Y1401000D02*
X4601000D01*
X4586000Y1386000D02*
Y1416000D01*
X4461000Y1401000D02*
X4491000D01*
X4476000Y1386000D02*
Y1416000D01*
X4516000Y1456000D02*
X4546000D01*
X4531000Y1441000D02*
Y1471000D01*
X4406000Y1456000D02*
X4436000D01*
X4421000Y1441000D02*
Y1471000D01*
X4516000Y1346000D02*
X4546000D01*
X4531000Y1331000D02*
Y1361000D01*
X4571000Y1291000D02*
X4601000D01*
X4586000Y1276000D02*
Y1306000D01*
X4461000Y1291000D02*
X4491000D01*
X4476000Y1276000D02*
Y1306000D01*
X4406000Y1346000D02*
X4436000D01*
X4421000Y1331000D02*
Y1361000D01*
X4516000Y1236000D02*
X4546000D01*
X4531000Y1221000D02*
Y1251000D01*
X4351000Y1401000D02*
X4381000D01*
X4366000Y1386000D02*
Y1416000D01*
X4351000Y1291000D02*
X4381000D01*
X4366000Y1276000D02*
Y1306000D01*
X4406000Y1236000D02*
X4436000D01*
X4421000Y1221000D02*
Y1251000D01*
X6513500Y2750000D02*
X6598500D01*
X6556000Y2707500D02*
Y2792500D01*
X6259500Y2750000D02*
X6344500D01*
X6302000Y2707500D02*
Y2792500D01*
X4735500Y2750000D02*
X4820500D01*
X4778000Y2707500D02*
Y2792500D01*
X4481500Y2750000D02*
X4566500D01*
X4524000Y2707500D02*
Y2792500D01*
X4227500Y2750000D02*
X4312500D01*
X4270000Y2707500D02*
Y2792500D01*
X3973500Y2750000D02*
X4058500D01*
X4016000Y2707500D02*
Y2792500D01*
X2957500Y2750000D02*
X3042500D01*
X3000000Y2707500D02*
Y2792500D01*
X3211500Y2750000D02*
X3296500D01*
X3254000Y2707500D02*
Y2792500D01*
X3465500Y2750000D02*
X3550500D01*
X3508000Y2707500D02*
Y2792500D01*
X3719500Y2750000D02*
X3804500D01*
X3762000Y2707500D02*
Y2792500D01*
X4989500Y2750000D02*
X5074500D01*
X5032000Y2707500D02*
Y2792500D01*
X5243500Y2750000D02*
X5328500D01*
X5286000Y2707500D02*
Y2792500D01*
X5497500Y2750000D02*
X5582500D01*
X5540000Y2707500D02*
Y2792500D01*
X5751500Y2750000D02*
X5836500D01*
X5794000Y2707500D02*
Y2792500D01*
X6005500Y2750000D02*
X6090500D01*
X6048000Y2707500D02*
Y2792500D01*
X3077700Y378285D02*
X3170700D01*
X3124200Y331785D02*
Y424785D01*
X3204700Y378285D02*
X3297700D01*
X3251200Y331785D02*
Y424785D01*
X3331700Y378285D02*
X3424700D01*
X3378200Y331785D02*
Y424785D01*
X998900Y965200D02*
X1083900D01*
X1041400Y922700D02*
Y1007700D01*
X1252900Y965200D02*
X1337900D01*
X1295400Y922700D02*
Y1007700D01*
X1506900Y965200D02*
X1591900D01*
X1549400Y922700D02*
Y1007700D01*
X585500Y1789000D02*
X650500D01*
X618000Y1756500D02*
Y1821500D01*
X585500Y1211000D02*
X650500D01*
X618000Y1178500D02*
Y1243500D01*
X638000Y1068000D02*
X698000D01*
X668000Y1038000D02*
Y1098000D01*
X638000Y1932000D02*
X698000D01*
X668000Y1902000D02*
Y1962000D01*
X220000Y1068000D02*
X280000D01*
X250000Y1038000D02*
Y1098000D01*
X220000Y1932000D02*
X280000D01*
X250000Y1902000D02*
Y1962000D01*
X192500Y2650000D02*
X507500D01*
X350000Y2492500D02*
Y2807500D01*
X6492500Y350000D02*
X6807500D01*
X6650000Y192500D02*
Y507500D01*
X2146900Y1473200D02*
X2221900D01*
X2184400Y1435700D02*
Y1510700D01*
X2158300Y1244600D02*
X2233300D01*
X2195800Y1207100D02*
Y1282100D01*
X919800Y1371600D02*
X959800D01*
X939800Y1351600D02*
Y1391600D01*
X919800Y1600200D02*
X959800D01*
X939800Y1580200D02*
Y1620200D01*
X2344740Y2788920D02*
X2384740D01*
X2364740Y2768920D02*
Y2808920D01*
X2583500Y1905000D02*
X2623500D01*
X2603500Y1885000D02*
Y1925000D01*
X5995000Y635000D02*
X6070000D01*
X6032500Y597500D02*
Y672500D01*
X5995000Y952500D02*
X6070000D01*
X6032500Y915000D02*
Y990000D01*
X5634040Y1691640D02*
X5674040D01*
X5654040Y1671640D02*
Y1711640D01*
X1097600Y365760D02*
X1137600D01*
X1117600Y345760D02*
Y385760D01*
X683700Y386814D02*
X723700D01*
X703700Y366814D02*
Y406814D01*
X1267900Y336880D02*
X1307900D01*
X1287900Y316880D02*
Y356880D01*
X1720480Y1684020D02*
X1760480D01*
X1740480Y1664020D02*
Y1704020D01*
X1816420Y2153920D02*
X1856420D01*
X1836420Y2133920D02*
Y2173920D01*
X2248220Y2232660D02*
X2288220D01*
X2268220Y2212660D02*
Y2252660D01*
X5298760Y596900D02*
X5338760D01*
X5318760Y576900D02*
Y616900D01*
X2606360Y1656080D02*
X2646360D01*
X2626360Y1636080D02*
Y1676080D01*
X3675700Y876300D02*
X3715700D01*
X3695700Y856300D02*
Y896300D01*
X5425760Y881380D02*
X5465760D01*
X5445760Y861380D02*
Y901380D01*
X5427000Y1476000D02*
X5467000D01*
X5447000Y1456000D02*
Y1496000D01*
X970600Y1270000D02*
X1010600D01*
X990600Y1250000D02*
Y1290000D01*
X3734120Y2120900D02*
X3774120D01*
X3754120Y2100900D02*
Y2140900D01*
X2410900Y342880D02*
X2450900D01*
X2430900Y322880D02*
Y362880D01*
X1826700Y336880D02*
X1866700D01*
X1846700Y316880D02*
Y356880D01*
X2385380Y2103120D02*
X2425380D01*
X2405380Y2083120D02*
Y2123120D01*
X1043280Y1734820D02*
X1083280D01*
X1063280Y1714820D02*
Y1754820D01*
%TF.MD5,74181cd8b30651168f67595e5e9269c1*%
M02*
